<svg version="1.1" id="jacket_x5F_cardigan" xmlns="http://www.w3.org/2000/svg" xmlns:xlink="http://www.w3.org/1999/xlink" x="0px" y="0px" viewBox="0 0 3000 3000" xml:space="preserve"><g id="jacket_x5F_cardigan_x5F_body" transform="matrix(2.9166107177734375, 0, 0, 2.9166107177734375, 956.65,1516.1)"><g transform="matrix(1, 0, 0, 1, 0, 0)"><g><g id="jacket_1_Layer0_0_FILL"><path fill="#6b956c" d="M132.6,0.8c-2.5,0.3-5,0.7-7.4,1.1c-1.6,0.3-3.2,0.6-4.8,0.9c-11.1,2.3-21.8,6-32.1,10.9 C44.2,34.9,16.9,69,6.4,115.9c-3.5,24-5.6,47.3-6.4,70.2c-0.1,7.8,0.3,15.1,1.3,22c4.5,10.7,10.9,19.8,19.2,27.5 S42,248,60,249.7c17.9,1.7,34-3.4,48.2-15.3c3.1-2.6,5.9-5,8.4-7.3c0.1-0.1,0.2-0.2,0.2-0.2c6.3-7.4,11.2-13.8,14.7-19.2 c0.4-0.6,0.7-1.2,1.1-1.7c2.9-4.6,4.7-8.5,5.5-11.6c0-0.2,0.1-0.4,0.1-0.7c1.6-6.8,2.9-12.5,3.7-17.2c0.5-5.4,0.9-11,1.2-16.9 c0.4-7.7,0.6-15.9,0.6-24.5c0-26.3-1.4-53-4.2-80.1C138.5,42.3,136.1,24.2,132.6,0.8 M251.1,46.7c-1.5-1.5-3-3-4.5-4.5 c-6.2-6-13.1-11.5-20.6-16.5c13.6,27,22.9,55.5,27.9,85.4c2.7,16.4,4.8,32.9,6.2,49.5c0,0,0,0.1,0,0.1l-0.1,48.4 c0,7.4,0.2,13.9,0.6,19.6c0,0.4,0.1,0.8,0.1,1.2c0.3,4.5,0.7,8.4,1.2,11.8c0.3,1.8,2.3,7.1,6,16.1c1.2-1.2,2.4-2.5,3.5-3.7 c1.4-1.6,2.7-3.2,3.9-4.8c12.3-16.4,18.3-37.4,17.8-63.1c-0.8-22.8-2.9-46.2-6.4-70.2c-2.8-12.3-6.7-23.8-11.8-34.3 c-0.5-1.1-1.1-2.1-1.6-3.2c-0.7-1.3-1.4-2.6-2.1-3.9c-0.7-1.3-1.4-2.6-2.2-3.8c-1.6-2.7-3.3-5.3-5.1-7.9 c-2.9-4.1-6-8.1-9.2-11.9C253.6,49.5,252.4,48.1,251.1,46.7z"></path><path fill="#a87d4f" d="M156.9,0.4L156.9,0.4c-0.6-0.1-1.3-0.2-1.9-0.2c-0.3,0-0.6,0-0.9,0c0.7,0,1.4,0.1,2.1,0.1 C156.4,0.3,156.7,0.3,156.9,0.4z"></path></g></g><g><path d="M268,262.8c-0.3,0-0.6,0-0.9-0.1c-1.7-0.3-3-1.4-3.7-3c-5.1-12.4-6.1-15.6-6.4-17.2c-0.6-3.4-1-7.6-1.3-12.2 c0-0.4-0.1-0.7-0.1-1.1c0,0,0-0.1,0-0.1c-0.4-5.7-0.6-12.4-0.6-19.9l0.1-48.3c-1.4-16.3-3.4-32.7-6.1-48.9 c-4.8-28.9-13.8-56.7-26.8-82.8c-6-3.9-12.6-7.6-19.4-10.9c-10.8-5.2-22.2-8.9-34-11.1c-1.4-0.3-2.7-0.5-4.1-0.7 c-2.8-0.4-5.6-0.8-8.3-1.1c-0.1,0-0.1,0-0.2,0c-0.2,0-0.3,0-0.5-0.1c-0.7,0-1.3-0.1-1.9-0.1c0,0,0,0,0,0L151.1,5 c-0.2,0-0.3,0-0.5,0h-8c-0.2,0-0.4,0-0.6,0c-0.1,0-0.2,0-0.3,0l-3.1,0.1c-0.1,0-0.1,0-0.2,0c3.1,21,5.2,37.6,6.4,49.2 c2.8,27.1,4.2,54.3,4.2,80.6c0,8.6-0.2,17-0.6,24.8c-0.3,5.9-0.7,11.7-1.3,17.2c0,0.1,0,0.3-0.1,0.4c-0.8,4.8-2.1,10.7-3.8,17.6 c0,0.1,0,0.2-0.1,0.3c0,0.2-0.1,0.3-0.1,0.5c-0.9,3.6-2.9,7.9-6.1,13c0,0.1-0.1,0.1-0.1,0.2c-0.3,0.5-0.6,1-1,1.5 c0,0,0,0.1-0.1,0.1c-3.6,5.6-8.7,12.2-15.1,19.7c-0.1,0.1-0.3,0.3-0.4,0.4c-0.1,0.1-0.2,0.2-0.3,0.3c-2.6,2.3-5.5,4.8-8.6,7.5 c-15.2,12.7-32.7,18.3-51.9,16.4c-19-1.8-33.2-7-42.3-15.4c-8.8-8.1-15.7-18-20.5-29.3c-0.2-0.4-0.3-0.8-0.3-1.2 C-4.7,201.7-5.1,194-5,186c0,0,0-0.1,0-0.1c0.8-22.9,2.9-46.7,6.4-70.7c0-0.1,0-0.2,0.1-0.4C6.9,90.7,16.8,69.6,30.8,52 C44.9,34.5,63.5,20.1,86.1,9.2C96.7,4.2,107.9,0.4,119.3-2c1.6-0.4,3.3-0.7,5-1c2.5-0.5,5.1-0.9,7.7-1.2c1.5-0.2,3-0.4,4.6-0.5 c0,0,0,0,0.1,0c0.4,0,0.8-0.1,1.1-0.1c0.1,0,0.2,0,0.3,0l3-0.1c0.4,0,0.9-0.1,1.4-0.1h8.1c0.3,0,0.7,0,1,0.1l2.4,0.1h0.9 c0.1,0,0.2,0,0.3,0c0.7,0,1.3,0.1,2,0.1c0.4,0,0.9,0.1,1.3,0.2c2.6,0.3,5.2,0.6,7.8,1c0,0,0,0,0.1,0c1.4,0.2,2.9,0.5,4.3,0.8 c12.7,2.4,24.9,6.4,36.5,12c7.7,3.7,15,7.8,21.7,12.3c0,0,0,0,0,0c7.7,5.1,14.9,10.9,21.3,17.1c0,0,0,0,0,0 c1.5,1.5,3.1,3.1,4.6,4.6c0,0,0,0,0.1,0.1c1.3,1.4,2.6,2.8,3.9,4.3c0,0,0,0,0,0c3.4,3.9,6.6,8.1,9.6,12.3 c1.9,2.7,3.6,5.5,5.3,8.2c0.8,1.3,1.6,2.7,2.3,4l2.1,3.9c0,0.1,0.1,0.1,0.1,0.2c0.5,1,1,2,1.5,3.1c0,0,0,0,0,0.1 c5.2,10.8,9.3,22.7,12.1,35.4c0,0.1,0.1,0.2,0.1,0.4c3.5,24,5.7,47.8,6.4,70.7c0,0,0,0.1,0,0.1c0.5,26.7-5.8,49-18.8,66.2 c-1.3,1.7-2.7,3.4-4.1,5.1c0,0,0,0,0,0c-1.2,1.3-2.4,2.6-3.6,3.9C270.7,262.2,269.4,262.8,268,262.8z M265.6,228.3 c0,0.4,0.1,0.7,0.1,1.1c0,0,0,0.1,0,0.1c0.3,4.3,0.7,8.1,1.2,11.2c0.1,0.4,0.5,1.9,2.7,7.7c0.6-0.8,1.2-1.5,1.8-2.3 c11.6-15.4,17.2-35.6,16.8-60c-0.8-22.4-2.9-45.8-6.3-69.4c-2.7-11.8-6.5-22.9-11.3-33c-0.5-1-1-2.1-1.5-3.1l-2-3.8 c-0.7-1.2-1.4-2.4-2.1-3.6c0,0,0,0,0,0c-1.5-2.6-3.2-5.2-4.9-7.7c-2.7-4-5.7-7.8-8.9-11.5c-1.2-1.4-2.5-2.8-3.7-4.1 c-1.4-1.5-2.9-2.9-4.3-4.3c-1.3-1.3-2.7-2.5-4.1-3.8c9.2,21.8,15.8,44.7,19.8,68.2c2.7,16.5,4.8,33.3,6.3,49.9c0,0.2,0,0.3,0,0.5 c0,0,0,0,0,0.1l-0.1,48.4C265,216.4,265.2,222.8,265.6,228.3z M6.2,206.7c4.2,9.7,10.2,18.2,17.8,25.3 c7.4,6.9,19.7,11.2,36.5,12.8c16.7,1.6,31.3-3,44.6-14.2c2.9-2.5,5.6-4.8,8-7c0.1-0.1,0.2-0.2,0.3-0.3c6-7,10.7-13.2,14-18.3 c0.4-0.6,0.8-1.2,1.1-1.8c2.5-4,4.1-7.4,4.8-9.9c0.1-0.3,0.1-0.6,0.2-0.9c1.6-6.5,2.8-12.1,3.6-16.6c0.5-5.2,0.9-10.8,1.2-16.5 c0.4-7.6,0.6-15.8,0.6-24.2c0-26-1.4-52.8-4.2-79.6c-1.2-11.6-3.3-28.1-6.4-49c-0.8,0.1-1.5,0.3-2.3,0.4c0,0-0.1,0-0.1,0 c-1.5,0.2-3,0.5-4.5,0.9c0,0-0.1,0-0.1,0c-10.7,2.2-21.1,5.8-31,10.5c-21.3,10.2-38.7,23.7-51.8,40c-13.1,16.3-22.3,36-27.3,58.6 c-3.4,23.6-5.6,46.9-6.3,69.4C4.9,193.4,5.3,200.3,6.2,206.7z M143.1,195.3C143.1,195.3,143.1,195.3,143.1,195.3 C143.1,195.3,143.1,195.3,143.1,195.3z M143.2,195.1C143.2,195.1,143.2,195.1,143.2,195.1C143.2,195.1,143.2,195.1,143.2,195.1z"></path></g></g></g></svg>