<svg version="1.1" id="jacket_x5F_cardigan" xmlns="http://www.w3.org/2000/svg" xmlns:xlink="http://www.w3.org/1999/xlink" x="0px" y="0px" viewBox="0 0 3000 3000" xml:space="preserve"><g id="jacket_x5F_cardigan_x5F_backarm" transform="matrix(-2.9166107177734375, 0, 0, 2.9166107177734375, 1880.95,1719.3)"><g transform="matrix(1, 0, 0, 1, 0, 0)"><g><g id="OUTFIT_ARM_1_Layer0_0_FILL"><path fill="#6b956c" d="M81.3,62.3c4.7-11,12-22.7,21.8-35.1L49.7,0c-16,10.8-27.4,25.3-34.1,43.4c-1,2.8-2,5.6-3,8.4 c-2.9,8.8-5.2,17.6-6.9,26.6c-0.9,4.6-1.7,9.3-2.2,14c-0.7,5.4-1.3,10.8-1.9,16.1c22.8-2.2,45.5,0.3,68,7.7 c0.8-9,2.1-18.1,4-27.2c1.1-5,2.3-10.1,3.7-15.1C78.3,70.3,79.6,66.4,81.3,62.3z"></path></g></g><g><path d="M69.6,121.4c1,0,1.9-0.3,2.8-0.8c1.3-0.8,2.1-2.2,2.2-3.7c0.8-8.8,2.1-17.7,3.9-26.6c1-4.9,2.2-9.9,3.6-14.9 c1-3.6,2.3-7.3,3.9-11c4.5-10.5,11.6-22,21.1-34c1.7-2.2,1.3-5.3-0.8-7c-2.2-1.7-5.3-1.3-7,0.8c-10,12.7-17.6,25-22.4,36.3 c-1.8,4.2-3.3,8.3-4.4,12.4c-1.4,5.1-2.6,10.3-3.7,15.4c-1.5,7.2-2.7,14.5-3.5,21.6c-19.2-5.6-38.7-7.8-58-6.6 c0.4-3.4,0.8-6.7,1.2-10.1C9,88.6,9.7,84,10.6,79.5c1.7-8.8,4-17.5,6.8-26c0.9-2.7,1.9-5.5,2.9-8.3c6.4-17.1,17.2-30.9,32.3-41.1 c2.3-1.5,2.9-4.7,1.3-6.9c-1.5-2.3-4.7-2.9-6.9-1.3C30.1,7.2,18,22.7,10.9,41.7c-1.1,2.9-2.1,5.8-3,8.6 c-2.9,8.9-5.3,18.1-7.1,27.3c-0.9,4.7-1.7,9.5-2.3,14.3c-0.7,5.4-1.3,10.9-1.9,16.2c-0.2,1.5,0.4,3,1.4,4.1 c1.1,1.1,2.5,1.6,4,1.5c22-2.2,44.2,0.4,66,7.5C68.6,121.3,69.1,121.4,69.6,121.4z"></path></g></g></g></svg>