<svg version="1.1" id="shirt_x5F_heart" xmlns="http://www.w3.org/2000/svg" xmlns:xlink="http://www.w3.org/1999/xlink" x="0px" y="0px" viewBox="0 0 3000 3000" xml:space="preserve"><g id="shirt_x5F_heart_x5F_body" transform="matrix(2.9166107177734375, 0, 0, 2.9166107177734375, 956.65,1516.1)"><g transform="matrix(1, 0, 0, 1, 0, 0)"><g><g id="shirt_1_Layer1_0_FILL"><path fill="#a87d4f" d="M156.9,0.3c-0.6,0-1.3-0.1-1.9-0.1c-0.3,0-0.6,0-0.9,0c0.7,0,1.4,0.1,2.1,0.1 C156.4,0.3,156.7,0.3,156.9,0.3L156.9,0.3z"></path><path fill="#d783ec" d="M251.1,46.7c-1.5-1.5-3-3-4.5-4.5c-6.2-6-13.1-11.5-20.6-16.5c-6.6-4.4-13.6-8.4-21.1-11.9 C193.7,8.4,182,4.5,169.7,2.2c-1.4-0.3-2.8-0.5-4.2-0.7c-2.9-0.4-5.7-0.8-8.6-1.1c-0.2,0-0.5-0.1-0.8-0.1 c-0.7,0-1.4-0.1-2.1-0.1l-2.7-0.1c-0.2,0-0.4,0-0.6,0h-1.4c-0.3,0-0.7,0-1,0H145c-0.3,0-0.7,0-1.1,0c0,0-0.1,0-0.1,0h-1.2 c-0.4,0-0.8,0-1.1,0c-1.1,0-2.1,0.1-3.2,0.1c-0.4,0-0.8,0.1-1.2,0.1c-1.5,0.1-3,0.3-4.4,0.5c-2.5,0.3-5,0.7-7.4,1.1 c-1.6,0.3-3.2,0.6-4.8,0.9c-11.1,2.3-21.8,6-32.1,10.9C44.2,34.9,16.9,69,6.4,115.9c-3,20.3-4.9,40.2-5.9,59.6 c-0.2,3.5-0.3,7.1-0.4,10.6c-0.1,7.8,0.3,15.1,1.3,22c0.1,1.1,0.3,2.1,0.5,3.2c106.9,25.4,202.9,27.8,288.2,7.3 c1.5-8.2,2.3-14,2.6-17.5c0.4-4.8,0.6-9.8,0.5-15c-0.8-22.8-2.9-46.2-6.4-70.2c-2.8-12.3-6.7-23.8-11.8-34.3 c-0.5-1.1-1.1-2.1-1.6-3.2c-0.7-1.3-1.4-2.6-2.1-3.9c-0.7-1.3-1.4-2.6-2.2-3.8c-1.6-2.7-3.3-5.3-5.1-7.9 c-2.9-4.1-6-8.1-9.2-11.9C253.6,49.5,252.4,48.1,251.1,46.7 M234.1,112.7c2.5,3.4,3.8,6.8,3.8,10.2c0,8.2-6.2,19.1-18.6,32.6 c-3.9,4.4-9,9.4-15.1,15.1c-1.7-1.7-3.4-3.3-5.1-4.9c-9.7-9.5-17.6-17.2-23.4-23.1c-6.9-7-10.1-13.5-9.6-19.6 c0.5-6.1,2.1-10.1,4.9-12.1c1.2-0.8,2.3-1.4,3.6-1.9c1.7-0.7,3.5-1,5.3-1c4.5,0,9,2.5,13.5,7.5c1.4,1.6,2.7,3.3,3.8,5 c1.9,2.8,3.3,5.8,4.3,8.9h1c0.9-1.3,2.3-3.8,4.2-7.4c1.7-3.2,3.2-5.6,4.3-7.2c2.3-3.2,5-5.4,8-6.6c1.8-0.7,3.8-1.1,5.9-1.1 C228.2,107.1,231.3,109,234.1,112.7z"></path><path fill="#d96b6b" d="M237.8,122.9c0-3.4-1.2-6.8-3.8-10.2c-2.8-3.7-5.9-5.6-9.3-5.6c-2.1,0-4.1,0.4-5.9,1.1 c-3,1.2-5.7,3.4-8,6.6c-1.2,1.6-2.6,4-4.3,7.2c-1.9,3.6-3.3,6.1-4.2,7.4h-1c-1-3.1-2.4-6.1-4.3-8.9c-1.1-1.7-2.3-3.3-3.8-5 c-4.4-5-8.9-7.5-13.5-7.5c-1.8,0-3.6,0.3-5.3,1c-1.2,0.5-2.4,1.1-3.6,1.9c-2.8,1.9-4.4,6-4.9,12.1c-0.5,6.1,2.7,12.6,9.6,19.6 c5.9,5.9,13.7,13.6,23.4,23.1c1.6,1.6,3.3,3.2,5.1,4.9c6.1-5.7,11.2-10.7,15.1-15.1C231.7,142,237.9,131.1,237.8,122.9z"></path></g></g><g><path d="M151.4,297.8h-9.6c0,0-0.1,0-0.1,0l-5.4-0.1h-1.6c0,0-0.1,0-0.1,0c-39-0.9-70.2-8-92.8-21c-0.1-0.1-0.2-0.1-0.3-0.2 c-0.1,0-0.1-0.1-0.2-0.2c-18.3-10.7-31.3-25.5-38.7-44c-2.5-6.2-4.4-13-5.7-20c0-0.1,0-0.1,0-0.2c-0.2-1.1-0.4-2.2-0.5-3.3 C-4.7,201.7-5.1,194-5,186c0,0,0-0.1,0-0.1c0.1-3.5,0.3-7.1,0.5-10.6c1-19.5,3-39.7,6-60.1c0-0.1,0-0.2,0.1-0.4 C6.9,90.7,16.8,69.6,30.8,52C44.9,34.5,63.5,20.1,86.1,9.2C96.7,4.2,107.9,0.4,119.3-2c1.6-0.4,3.3-0.7,5-1 c2.5-0.5,5.1-0.9,7.7-1.2c1.5-0.2,3-0.4,4.6-0.5c0,0,0,0,0.1,0c0.4,0,0.8-0.1,1.1-0.1c0.1,0,0.2,0,0.3,0l3-0.1 c0.4,0,0.9-0.1,1.4-0.1h8.1c0.3,0,0.7,0,1,0.1l2.4,0.1h0.9c0.1,0,0.2,0,0.3,0c0.7,0,1.3,0.1,2,0.1c0.4,0,0.9,0.1,1.3,0.2 c2.6,0.3,5.2,0.6,7.8,1c0,0,0,0,0.1,0c1.4,0.2,2.9,0.5,4.3,0.8c12.7,2.4,24.9,6.4,36.5,12c7.7,3.7,15,7.8,21.7,12.3 c7.7,5.1,14.9,10.9,21.3,17.1c0,0,0,0,0,0c1.5,1.5,3.1,3.1,4.6,4.6c0,0,0,0,0.1,0.1c1.3,1.4,2.6,2.8,3.9,4.3c0,0,0,0,0,0 c3.4,3.9,6.6,8.1,9.6,12.3c1.9,2.7,3.6,5.5,5.3,8.2c0.8,1.3,1.6,2.7,2.3,4l2.1,3.9c0,0.1,0.1,0.1,0.1,0.2c0.5,1,1,2,1.5,3.1 c0,0,0,0,0,0.1c5.2,10.8,9.3,22.7,12.1,35.4c0,0.1,0.1,0.2,0.1,0.4c3.5,24,5.7,47.8,6.4,70.7c0,0,0,0,0,0.1 c0.1,5.4-0.1,10.6-0.5,15.5c-0.3,3.6-1.2,9.5-2.7,17.9c0,0.1,0,0.2,0,0.2c-1.9,10.4-7.1,21.4-15.6,32.6c-1.3,1.7-2.7,3.4-4.1,5.1 c0,0,0,0,0,0c-1.2,1.3-2.4,2.6-3.6,3.9c0,0,0,0,0,0c-11.6,11.6-27,20.5-46,26.6c-18.6,5.9-41.2,9.3-67.1,9.8c0,0-0.1,0-0.1,0 h-1.6L151.4,297.8C151.5,297.8,151.4,297.8,151.4,297.8z M141.9,287.8h9.5l5.4-0.1c0,0,0.1,0,0.1,0h1.5 c24.9-0.6,46.5-3.7,64.2-9.4c17.4-5.5,31.5-13.7,41.9-24.1c1.1-1.2,2.3-2.4,3.3-3.6c1.3-1.5,2.5-3,3.7-4.5 c5.4-7.2,9.3-14.2,11.7-20.8c-40.6,9-84,12.9-129.2,11.8C108.1,236,59.2,229.5,8.4,218c1,3.7,2.1,7.2,3.5,10.6 c6.6,16.5,18.3,29.7,34.8,39.3c0.2,0.1,0.3,0.2,0.4,0.3c21.1,12.1,50.6,18.7,87.7,19.5h1.5c0,0,0.1,0,0.1,0L141.9,287.8z M47.7,268.7C47.7,268.7,47.7,268.7,47.7,268.7C47.7,268.7,47.7,268.7,47.7,268.7z M6.3,207.2c51.7,12.1,101.4,18.8,147.9,20 c46.2,1.2,90.4-3.1,131.6-12.6c1.1-6.3,1.8-11,2-13.9c0.4-4.6,0.6-9.5,0.5-14.4c-0.8-22.4-2.9-45.8-6.3-69.4 c-2.7-11.8-6.5-22.9-11.3-33c-0.5-1-1-2.1-1.5-3.1l-2-3.8c-0.7-1.2-1.4-2.4-2.1-3.6c0,0,0,0,0,0c-1.5-2.6-3.2-5.2-4.9-7.7 c-2.7-4-5.7-7.8-8.9-11.5c-1.2-1.4-2.5-2.8-3.7-4.1c-1.4-1.5-2.9-2.9-4.3-4.3c-6-5.8-12.7-11.1-19.9-15.9 c-6.3-4.2-13.2-8.1-20.5-11.6c-10.8-5.2-22.2-8.9-34-11.1c-1.4-0.3-2.7-0.5-4.1-0.7c-2.8-0.4-5.5-0.8-8.3-1.1c-0.1,0-0.1,0-0.2,0 c0,0-0.1,0-0.1,0c-0.1,0-0.3,0-0.5-0.1c-0.7,0-1.3-0.1-1.9-0.1L151.1,5c-0.2,0-0.3,0-0.5,0h-8c-0.2,0-0.4,0-0.6,0 c-0.1,0-0.2,0-0.3,0l-3.1,0.1c-0.3,0-0.7,0.1-1.1,0.1c-1.4,0.1-2.8,0.3-4.1,0.5c0,0-0.1,0-0.1,0c-2.4,0.3-4.8,0.7-7.1,1.1 c0,0-0.1,0-0.1,0c-1.5,0.2-3,0.5-4.5,0.9c0,0-0.1,0-0.1,0c-10.7,2.2-21.1,5.8-31,10.5c-21.3,10.2-38.7,23.7-51.8,40 c-13.1,16.3-22.3,36-27.3,58.6c-2.9,20-4.9,39.8-5.9,58.9c-0.2,3.5-0.3,7-0.4,10.4C4.9,193.6,5.3,200.7,6.3,207.2z M204.2,175.6 c-1.3,0-2.5-0.5-3.5-1.4c-1.7-1.7-3.4-3.3-5-4.9c-9.7-9.4-17.7-17.3-23.5-23.2c-7.9-8-11.6-16-11-23.6c0.6-7.7,2.9-12.9,7-15.7 c1.5-1,3-1.9,4.6-2.5c2.3-0.9,4.7-1.3,7.1-1.3c6,0,11.8,3.1,17.2,9.2c1.6,1.8,3,3.7,4.2,5.6c0.3,0.5,0.6,1,0.9,1.5 c1.8-3.3,3.3-5.8,4.6-7.5c0,0,0,0,0,0c2.9-4,6.3-6.7,10.2-8.3c2.4-0.9,5-1.4,7.7-1.4c5.1,0,9.6,2.6,13.3,7.6 c3.1,4.3,4.7,8.7,4.7,13.2c0,9.6-6.5,21.4-19.9,36c-4,4.4-9.2,9.6-15.4,15.4C206.6,175.2,205.4,175.6,204.2,175.6z M179.9,113 c-1.2,0-2.3,0.2-3.5,0.7c0,0,0,0,0,0c-0.8,0.3-1.7,0.8-2.5,1.3c-0.7,0.5-2.3,2.2-2.8,8.4c-0.4,4.6,2.3,9.8,8.1,15.7l0,0 c5.8,5.9,13.7,13.6,23.4,23.1c0.5,0.5,1.1,1,1.6,1.6c4.5-4.2,8.3-8.1,11.3-11.5c14.3-15.7,17.3-24.6,17.3-29.3 c0-2.3-0.9-4.7-2.8-7.2c-2.6-3.6-4.6-3.6-5.3-3.6c-1.5,0-2.8,0.2-4,0.7c-2.1,0.8-4,2.4-5.8,4.8c-1,1.5-2.4,3.7-4,6.7 c-2,3.8-3.5,6.3-4.4,7.8c-0.9,1.4-2.5,2.3-4.2,2.3h-0.9c-2.2,0-4.1-1.4-4.8-3.4c-0.9-2.7-2.1-5.3-3.7-7.7c-1-1.5-2.1-3-3.3-4.4 C186.2,115,182.9,113,179.9,113z"></path></g></g></g></svg>