<svg version="1.1" id="jacket_x5F_leather" xmlns="http://www.w3.org/2000/svg" xmlns:xlink="http://www.w3.org/1999/xlink" x="0px" y="0px" viewBox="0 0 3000 3000" xml:space="preserve"><g id="jacket_x5F_leather_x5F_backarm" transform="matrix(-2.9166107177734375, 0, 0, 2.9166107177734375, 1880.95,1719.3)"><g transform="matrix(1, 0, 0, 1, 0, 0)"><g><g id="OUTFIT_ARM_0_Layer0_0_FILL"><path fill="#363636" d="M73.6,89.2c1.1-5,2.3-10.1,3.7-15.1c3.9-14.2,12.5-29.8,25.9-46.8L49.7,0c-16,10.8-27.4,25.3-34.1,43.4 C11.3,54.9,8,66.6,5.7,78.5C31.1,76,53.7,79.5,73.6,89.2 M5.7,78.5c-0.9,4.6-1.7,9.3-2.2,14c-0.7,5.4-1.3,10.8-1.9,16.1 c22.8-2.2,45.5,0.3,68,7.7c0.8-9,2.1-18.1,4-27.2C53.7,79.5,31.1,76,5.7,78.5z"></path></g></g><g><path d="M69.6,121.4c1,0,1.9-0.3,2.8-0.8c1.3-0.8,2.1-2.2,2.2-3.7c0.8-8.8,2.1-17.7,3.9-26.6c0,0,0,0,0,0c1-4.9,2.2-9.9,3.6-14.9 c3.7-13.5,12.1-28.7,25-45.1c1.7-2.2,1.3-5.3-0.8-7c-2.2-1.7-5.3-1.3-7,0.8C85.5,41.6,76.5,57.9,72.4,72.7 c-0.8,3.1-1.6,6.2-2.4,9.4C52.6,74.8,33.1,71.8,12,73c2.1-9.4,4.9-18.7,8.3-27.8c6.4-17.1,17.2-30.9,32.3-41.1 c2.3-1.5,2.9-4.7,1.3-6.9c-1.5-2.3-4.7-2.9-6.9-1.3C30.1,7.2,18,22.7,10.9,41.7C6.5,53.4,3.1,65.5,0.8,77.6c0,0,0,0,0,0 c-0.9,4.7-1.7,9.5-2.3,14.3c-0.7,5.4-1.3,10.9-1.9,16.2c-0.2,1.5,0.4,3,1.4,4.1c1.1,1.1,2.5,1.6,4,1.5c22-2.2,44.2,0.4,66,7.5 C68.6,121.3,69.1,121.4,69.6,121.4z M68,92.1c-1.1,5.9-2,11.9-2.7,17.7c-19.2-5.6-38.7-7.8-58-6.6c0.4-3.4,0.8-6.7,1.2-10.1 c0.4-3.3,0.9-6.7,1.5-10C31.3,81.6,50.8,84.5,68,92.1z"></path></g></g></g></svg>