<svg version="1.1" id="jacket_x5F_leather" xmlns="http://www.w3.org/2000/svg" xmlns:xlink="http://www.w3.org/1999/xlink" x="0px" y="0px" viewBox="0 0 3000 3000" xml:space="preserve"><g id="jacket_x5F_leather_x5F_frontarm" transform="matrix(2.9166107177734375, 0, 0, 2.9166107177734375, 1002.9,1719.3)"><g transform="matrix(1, 0, 0, 1, 0, 0)"><g><g id="OUTFIT_ARM_0_Layer0_0_FILL_00000074423447523779496440000007154832143784893826_"><path fill="#363636" d="M73.6,89.2c1.1-5,2.3-10.1,3.7-15.1c3.9-14.2,12.5-29.8,25.9-46.8L49.7,0c-16,10.8-27.4,25.3-34.1,43.4 C11.3,54.9,8,66.6,5.7,78.5C31.1,76,53.7,79.5,73.6,89.2 M5.7,78.5c-0.9,4.6-1.7,9.3-2.2,14c-0.7,5.4-1.3,10.8-1.9,16.1 c22.8-2.2,45.5,0.3,68,7.7c0.8-9,2.1-18.1,4-27.2C53.7,79.5,31.1,76,5.7,78.5z"></path></g></g><g><path d="M69.6,121.4c-0.5,0-1-0.1-1.6-0.2c-21.8-7.1-44-9.6-66-7.5c-1.5,0.1-3-0.4-4-1.5c-1.1-1.1-1.6-2.6-1.4-4.1 c0.6-5.4,1.2-10.8,1.9-16.2c0.6-4.8,1.4-9.6,2.3-14.3c2.3-12.1,5.8-24.2,10.1-35.9c7.1-19,19.2-34.5,36-45.8 c2.3-1.5,5.4-0.9,6.9,1.3c1.5,2.3,0.9,5.4-1.3,6.9c-15,10.2-25.9,24-32.3,41.1C16.9,54.3,14.1,63.6,12,73 c21.2-1.3,40.7,1.8,58.1,9.1c0.7-3.1,1.5-6.3,2.4-9.4c4-14.8,13-31.2,26.8-48.6c1.7-2.2,4.9-2.5,7-0.8c2.2,1.7,2.5,4.9,0.8,7 c-12.9,16.4-21.3,31.6-25,45.1c-1.3,4.9-2.5,9.9-3.6,14.8c0,0,0,0,0,0c-1.8,8.9-3.2,17.9-3.9,26.6c-0.1,1.5-1,2.9-2.2,3.7 C71.5,121.1,70.6,121.4,69.6,121.4z M17.3,102.9c16,0,32.1,2.3,47.9,6.9c0.7-5.9,1.6-11.8,2.7-17.7c-17.2-7.5-36.6-10.5-58-8.9 c-0.6,3.3-1.1,6.7-1.5,10c-0.4,3.3-0.8,6.7-1.2,10.1C10.6,103,14,102.9,17.3,102.9z"></path></g></g></g></svg>