<svg xmlns="http://www.w3.org/2000/svg"><symbol id="default" viewBox="0 0 3000 3000"><path fill="#E5FAFE" d="M1999.11 1462.49c1.57-1.57 9.45-15.22 24.15-41.21 14.96-24.67 24.41-36.75 28.61-35.96 8.14 1.05 14.7 8.66 19.69 22.84 3.41 9.71 5.78 22.31 7.09 37.54 2.36 23.1 1.05 47.25-4.2 72.45-5.25 26.25-13.91 49.61-25.72 69.82-9.45 16.27-19.43 30.45-29.66 42.79-1.57 1.84-3.15 3.67-4.72 5.25-2.89 3.15-6.04 6.04-9.45 9.19-10.24 8.66-22.84 17.32-38.06 25.46 15.22-7.88 27.82-16.27 38.06-24.94 26.25-12.34 46.99-8.66 62.21 10.76 5.51 6.83 7.88 14.96 7.88 24.41-1.31 39.64-22.31 66.41-63.26 80.06-17.85 10.24-45.94 18.9-84 25.46 38.06-6.56 66.15-14.96 84-25.46 1.57.263 2.89.263 4.2.525 8.66 1.31 17.32 3.94 25.46 8.14 13.65 7.09 21 16.01 22.31 27.04 2.89 30.97-19.69 54.86-68.25 71.92-12.86 4.46-27.3 8.4-43.31 11.81-3.41.525-6.83 1.31-10.24 1.84-18.11 2.89-28.09 4.72-29.92 5.25 2.1-.525 12.07-2.36 29.92-5.25 3.41-.525 6.83-1.31 10.24-1.84 3.94 2.1 7.61 4.72 11.03 7.61 12.34 10.24 19.16 23.1 20.74 38.85 1.31 11.81-6.3 21.26-22.57 27.82-14.44 6.04-32.02 8.93-52.76 8.4-14.44-.525-34.91 0-61.69 1.05-3.15.262-6.3.262-8.92.525-14.44.262-22.57.262-24.41-.525 1.84.787 9.97.787 24.41.525 6.56 4.46 9.97 10.76 10.76 18.9 1.31 13.65-7.35 23.62-26.25 29.92-19.16 6.56-44.62 7.87-75.86 3.41-19.95-2.89-36.49-10.76-49.35-23.62-14.44-14.7-22.84-34.91-25.2-60.11-2.62-26.51-2.62-84 0-172.46 6.04-18.9 15.49-37.01 28.09-54.34 17.59-24.15 43.57-49.35 77.7-75.34l5.51-3.94c20.74-15.49 44.36-31.5 70.87-47.51 27.3-16.54 54.6-35.96 81.64-58.54 25.2-20.47 46.2-39.9 63.26-58.54z"></path><path d="M1781.77 2032.63c-11.03 0-23.36-1.05-36.49-2.89-22.84-3.41-42-12.6-56.96-27.56-16.54-16.8-25.99-39.64-28.88-67.72-2.63-27.3-2.63-84.26 0-174.03 0-1.31.263-2.36.525-3.67 6.56-20.21 16.54-39.64 29.92-58.01 18.38-25.2 45.41-51.45 80.32-77.96 1.84-1.31 3.67-2.63 5.51-4.2 21-15.75 45.15-32.02 71.92-48.04 26.51-16.01 53.55-35.44 80.32-57.49 24.15-19.69 44.62-38.85 61.42-56.96 1.05-1.57 5.51-8.66 22.57-38.85l.263-.262c20.74-34.39 30.19-43.84 41.74-42.26 13.39 1.84 23.63 12.34 30.45 31.76 3.67 10.76 6.3 24.15 7.87 40.69 2.36 24.41 1.05 50.14-4.46 76.39-5.51 27.56-14.7 52.5-27.3 74.02-6.56 11.03-13.39 21.52-20.21 30.98 12.86 1.57 25.99 7.87 37.54 22.31 7.35 9.45 11.03 20.47 10.5 32.81-.787 22.57-7.35 42-19.42 57.49-5.78 7.35-12.6 13.65-20.74 19.16 17.85 9.19 27.56 21.79 29.14 37.27 1.84 19.43-4.2 36.75-18.37 51.45-12.86 13.65-32.02 24.94-58.54 34.12-6.04 2.1-12.34 3.94-18.9 5.78 9.45 10.76 14.96 23.89 16.27 38.59 1.31 12.6-2.89 29.93-30.71 41.47-16.01 6.56-35.44 9.97-58.01 9.45h-.263c-11.55-.262-27.3-.262-46.99.525.52 1.84.788 3.67.788 5.51 1.05 10.24-2.1 19.95-8.93 27.56-6.04 6.83-14.7 12.07-26.25 16.01-13.39 4.2-28.35 6.56-45.67 6.56zm-74.55-48.82c10.76 11.03 24.67 17.59 41.74 19.95 29.14 3.94 52.5 3.15 69.82-2.89 18.64-6.3 17.85-13.39 17.59-16.27-.263-2.89-1.05-4.99-2.63-6.82-18.11.262-21.52-.263-24.41-1.57-6.83-2.63-10.24-10.24-7.61-17.06 2.36-6.3 9.19-9.71 15.75-7.88 1.31.262 5.78.525 20.48 0 2.62-.263 5.51-.263 8.66-.525h.262c26.77-1.05 47.77-1.31 62.47-1.05 18.9.262 34.91-2.1 47.25-7.61 15.49-6.3 14.96-12.34 14.7-14.44-1.31-12.34-6.56-22.05-16.27-30.19h-.262c-1.57-1.31-3.41-2.89-5.25-3.94l-5.25 1.05h-.262c-23.36 3.94-28.09 4.72-28.87 4.99-7.09 1.84-14.18-2.36-16.01-9.45-1.84-7.09 2.36-14.18 9.45-16.01 1.31-.263 3.67-1.05 31.24-5.51l9.97-1.84a347.32 347.32 0 0 0 41.47-11.29c42.26-14.44 61.95-33.34 59.59-57.75-.262-2.1-1.05-9.19-15.22-16.54-6.83-3.41-14.18-5.78-21.26-6.83-19.43 10.24-46.99 18.38-84.52 24.68-7.09 1.31-13.91-3.67-15.22-10.76-1.31-7.09 3.67-13.91 10.76-15.22 36.22-6.3 63-14.18 79.53-23.63.263-.262.79-.525 1.05-.525l1.57-.787c17.85-6.04 31.24-14.7 40.16-25.99 8.92-11.29 13.39-24.94 13.91-42.262-6.3-1.57-11.55-4.99-16.01-13.91-17.32-30.97-13.39-44.62-7.35-10.5 8.93-23.62 17.59-38.85 25.99-6.3 3.41-14.44 1.05-17.85-5.25-3.41-6.3-1.05-14.44 5.25-17.85 14.44-7.87 26.51-16.01 35.96-23.89 3.15-2.63 6.04-5.51 8.66-8.14 1.57-1.57 2.89-3.41 4.46-4.99 9.71-11.55 19.43-25.46 28.35-40.95 11.02-19.16 19.42-41.21 24.41-65.89 4.99-23.63 6.3-46.72 3.94-68.51v-.263c-1.31-14.17-3.41-25.72-6.56-34.65-2.1-6.3-4.46-9.97-6.04-12.07-3.15 3.67-8.93 11.55-18.64 27.56-21.79 38.59-24.15 41.74-25.99 43.57-17.59 19.16-39.11 39.11-64.05 59.59-27.82 22.84-55.91 43.05-83.74 59.85-25.99 15.75-49.61 31.5-69.82 46.72 0 0-.262 0-.262.26-1.84 1.31-3.41 2.63-5.25 3.67-32.81 24.94-58.01 49.35-75.07 72.45-11.29 15.49-19.95 32.02-25.73 48.82-2.62 86.36-2.62 143.32 0 168.78 2.63 22.57 9.71 39.64 22.05 52.24zm111.3-32.02zm-1.57-.263zm172.98-498.47zm60.37-54.86z"></path></symbol><symbol id="body" viewBox="0 0 3000 3000"><path fill="#E5FAFE" d="M1999.11 1462.49c1.57-1.57 9.45-15.22 24.15-41.21 14.96-24.67 24.41-36.75 28.61-35.96 8.14 1.05 14.7 8.66 19.69 22.84 3.41 9.71 5.78 22.31 7.09 37.54 2.36 23.1 1.05 47.25-4.2 72.45-5.25 26.25-13.91 49.61-25.72 69.82-9.45 16.27-19.43 30.45-29.66 42.79-1.57 1.84-3.15 3.67-4.72 5.25-2.89 3.15-6.04 6.04-9.45 9.19-10.24 8.66-22.84 17.32-38.06 25.46 15.22-7.88 27.82-16.27 38.06-24.94 26.25-12.34 46.99-8.66 62.21 10.76 5.51 6.83 7.88 14.96 7.88 24.41-1.31 39.64-22.31 66.41-63.26 80.06-17.85 10.24-45.94 18.9-84 25.46 38.06-6.56 66.15-14.96 84-25.46 1.57.263 2.89.263 4.2.525 8.66 1.31 17.32 3.94 25.46 8.14 13.65 7.09 21 16.01 22.31 27.04 2.89 30.97-19.69 54.86-68.25 71.92-12.86 4.46-27.3 8.4-43.31 11.81-3.41.525-6.83 1.31-10.24 1.84-18.11 2.89-28.09 4.72-29.92 5.25 2.1-.525 12.07-2.36 29.92-5.25 3.41-.525 6.83-1.31 10.24-1.84 3.94 2.1 7.61 4.72 11.03 7.61 12.34 10.24 19.16 23.1 20.74 38.85 1.31 11.81-6.3 21.26-22.57 27.82-14.44 6.04-32.02 8.93-52.76 8.4-14.44-.525-34.91 0-61.69 1.05-3.15.262-6.3.262-8.92.525-14.44.262-22.57.262-24.41-.525 1.84.787 9.97.787 24.41.525 6.56 4.46 9.97 10.76 10.76 18.9 1.31 13.65-7.35 23.62-26.25 29.92-19.16 6.56-44.62 7.87-75.86 3.41-19.95-2.89-36.49-10.76-49.35-23.62-14.44-14.7-22.84-34.91-25.2-60.11-2.62-26.51-2.62-84 0-172.46 6.04-18.9 15.49-37.01 28.09-54.34 17.59-24.15 43.57-49.35 77.7-75.34l5.51-3.94c20.74-15.49 44.36-31.5 70.87-47.51 27.3-16.54 54.6-35.96 81.64-58.54 25.2-20.47 46.2-39.9 63.26-58.54z"></path><path d="M1781.77 2032.63c-11.03 0-23.36-1.05-36.49-2.89-22.84-3.41-42-12.6-56.96-27.56-16.54-16.8-25.99-39.64-28.88-67.72-2.63-27.3-2.63-84.26 0-174.03 0-1.31.263-2.36.525-3.67 6.56-20.21 16.54-39.64 29.92-58.01 18.38-25.2 45.41-51.45 80.32-77.96 1.84-1.31 3.67-2.63 5.51-4.2 21-15.75 45.15-32.02 71.92-48.04 26.51-16.01 53.55-35.44 80.32-57.49 24.15-19.69 44.62-38.85 61.42-56.96 1.05-1.57 5.51-8.66 22.57-38.85l.263-.262c20.74-34.39 30.19-43.84 41.74-42.26 13.39 1.84 23.63 12.34 30.45 31.76 3.67 10.76 6.3 24.15 7.87 40.69 2.36 24.41 1.05 50.14-4.46 76.39-5.51 27.56-14.7 52.5-27.3 74.02-6.56 11.03-13.39 21.52-20.21 30.98 12.86 1.57 25.99 7.87 37.54 22.31 7.35 9.45 11.03 20.47 10.5 32.81-.787 22.57-7.35 42-19.42 57.49-5.78 7.35-12.6 13.65-20.74 19.16 17.85 9.19 27.56 21.79 29.14 37.27 1.84 19.43-4.2 36.75-18.37 51.45-12.86 13.65-32.02 24.94-58.54 34.12-6.04 2.1-12.34 3.94-18.9 5.78 9.45 10.76 14.96 23.89 16.27 38.59 1.31 12.6-2.89 29.93-30.71 41.47-16.01 6.56-35.44 9.97-58.01 9.45h-.263c-11.55-.262-27.3-.262-46.99.525.52 1.84.788 3.67.788 5.51 1.05 10.24-2.1 19.95-8.93 27.56-6.04 6.83-14.7 12.07-26.25 16.01-13.39 4.2-28.35 6.56-45.67 6.56zm-74.55-48.82c10.76 11.03 24.67 17.59 41.74 19.95 29.14 3.94 52.5 3.15 69.82-2.89 18.64-6.3 17.85-13.39 17.59-16.27-.263-2.89-1.05-4.99-2.63-6.82-18.11.262-21.52-.263-24.41-1.57-6.83-2.63-10.24-10.24-7.61-17.06 2.36-6.3 9.19-9.71 15.75-7.88 1.31.262 5.78.525 20.48 0 2.62-.263 5.51-.263 8.66-.525h.262c26.77-1.05 47.77-1.31 62.47-1.05 18.9.262 34.91-2.1 47.25-7.61 15.49-6.3 14.96-12.34 14.7-14.44-1.31-12.34-6.56-22.05-16.27-30.19h-.262c-1.57-1.31-3.41-2.89-5.25-3.94l-5.25 1.05h-.262c-23.36 3.94-28.09 4.72-28.87 4.99-7.09 1.84-14.18-2.36-16.01-9.45-1.84-7.09 2.36-14.18 9.45-16.01 1.31-.263 3.67-1.05 31.24-5.51l9.97-1.84a347.32 347.32 0 0 0 41.47-11.29c42.26-14.44 61.95-33.34 59.59-57.75-.262-2.1-1.05-9.19-15.22-16.54-6.83-3.41-14.18-5.78-21.26-6.83-19.43 10.24-46.99 18.38-84.52 24.68-7.09 1.31-13.91-3.67-15.22-10.76-1.31-7.09 3.67-13.91 10.76-15.22 36.22-6.3 63-14.18 79.53-23.63.263-.262.79-.525 1.05-.525l1.57-.787c17.85-6.04 31.24-14.7 40.16-25.99 8.92-11.29 13.39-24.94 13.91-42.262-6.3-1.57-11.55-4.99-16.01-13.91-17.32-30.97-13.39-44.62-7.35-10.5 8.93-23.62 17.59-38.85 25.99-6.3 3.41-14.44 1.05-17.85-5.25-3.41-6.3-1.05-14.44 5.25-17.85 14.44-7.87 26.51-16.01 35.96-23.89 3.15-2.63 6.04-5.51 8.66-8.14 1.57-1.57 2.89-3.41 4.46-4.99 9.71-11.55 19.43-25.46 28.35-40.95 11.02-19.16 19.42-41.21 24.41-65.89 4.99-23.63 6.3-46.72 3.94-68.51v-.263c-1.31-14.17-3.41-25.72-6.56-34.65-2.1-6.3-4.46-9.97-6.04-12.07-3.15 3.67-8.93 11.55-18.64 27.56-21.79 38.59-24.15 41.74-25.99 43.57-17.59 19.16-39.11 39.11-64.05 59.59-27.82 22.84-55.91 43.05-83.74 59.85-25.99 15.75-49.61 31.5-69.82 46.72 0 0-.262 0-.262.26-1.84 1.31-3.41 2.63-5.25 3.67-32.81 24.94-58.01 49.35-75.07 72.45-11.29 15.49-19.95 32.02-25.73 48.82-2.62 86.36-2.62 143.32 0 168.78 2.63 22.57 9.71 39.64 22.05 52.24zm111.3-32.02zm-1.57-.263zm172.98-498.47zm60.37-54.86z"></path></symbol><symbol id="left" viewBox="0 0 3000 3000"><path fill="#E5FAFE" d="M1999.11 1462.49c1.57-1.57 9.45-15.22 24.15-41.21 14.96-24.67 24.41-36.75 28.61-35.96 8.14 1.05 14.7 8.66 19.69 22.84 3.41 9.71 5.78 22.31 7.09 37.54 2.36 23.1 1.05 47.25-4.2 72.45-5.25 26.25-13.91 49.61-25.72 69.82-9.45 16.27-19.43 30.45-29.66 42.79-1.57 1.84-3.15 3.67-4.72 5.25-2.89 3.15-6.04 6.04-9.45 9.19-10.24 8.66-22.84 17.32-38.06 25.46 15.22-7.88 27.82-16.27 38.06-24.94 26.25-12.34 46.99-8.66 62.21 10.76 5.51 6.83 7.88 14.96 7.88 24.41-1.31 39.64-22.31 66.41-63.26 80.06-17.85 10.24-45.94 18.9-84 25.46 38.06-6.56 66.15-14.96 84-25.46 1.57.263 2.89.263 4.2.525 8.66 1.31 17.32 3.94 25.46 8.14 13.65 7.09 21 16.01 22.31 27.04 2.89 30.97-19.69 54.86-68.25 71.92-12.86 4.46-27.3 8.4-43.31 11.81-3.41.525-6.83 1.31-10.24 1.84-18.11 2.89-28.09 4.72-29.92 5.25 2.1-.525 12.07-2.36 29.92-5.25 3.41-.525 6.83-1.31 10.24-1.84 3.94 2.1 7.61 4.72 11.03 7.61 12.34 10.24 19.16 23.1 20.74 38.85 1.31 11.81-6.3 21.26-22.57 27.82-14.44 6.04-32.02 8.93-52.76 8.4-14.44-.525-34.91 0-61.69 1.05-3.15.262-6.3.262-8.92.525-14.44.262-22.57.262-24.41-.525 1.84.787 9.97.787 24.41.525 6.56 4.46 9.97 10.76 10.76 18.9 1.31 13.65-7.35 23.62-26.25 29.92-19.16 6.56-44.62 7.87-75.86 3.41-19.95-2.89-36.49-10.76-49.35-23.62-14.44-14.7-22.84-34.91-25.2-60.11-2.62-26.51-2.62-84 0-172.46 6.04-18.9 15.49-37.01 28.09-54.34 17.59-24.15 43.57-49.35 77.7-75.34l5.51-3.94c20.74-15.49 44.36-31.5 70.87-47.51 27.3-16.54 54.6-35.96 81.64-58.54 25.2-20.47 46.2-39.9 63.26-58.54z"></path><path d="M1781.77 2032.63c-11.03 0-23.36-1.05-36.49-2.89-22.84-3.41-42-12.6-56.96-27.56-16.54-16.8-25.99-39.64-28.88-67.72-2.63-27.3-2.63-84.26 0-174.03 0-1.31.263-2.36.525-3.67 6.56-20.21 16.54-39.64 29.92-58.01 18.38-25.2 45.41-51.45 80.32-77.96 1.84-1.31 3.67-2.63 5.51-4.2 21-15.75 45.15-32.02 71.92-48.04 26.51-16.01 53.55-35.44 80.32-57.49 24.15-19.69 44.62-38.85 61.42-56.96 1.05-1.57 5.51-8.66 22.57-38.85l.263-.262c20.74-34.39 30.19-43.84 41.74-42.26 13.39 1.84 23.63 12.34 30.45 31.76 3.67 10.76 6.3 24.15 7.87 40.69 2.36 24.41 1.05 50.14-4.46 76.39-5.51 27.56-14.7 52.5-27.3 74.02-6.56 11.03-13.39 21.52-20.21 30.98 12.86 1.57 25.99 7.87 37.54 22.31 7.35 9.45 11.03 20.47 10.5 32.81-.787 22.57-7.35 42-19.42 57.49-5.78 7.35-12.6 13.65-20.74 19.16 17.85 9.19 27.56 21.79 29.14 37.27 1.84 19.43-4.2 36.75-18.37 51.45-12.86 13.65-32.02 24.94-58.54 34.12-6.04 2.1-12.34 3.94-18.9 5.78 9.45 10.76 14.96 23.89 16.27 38.59 1.31 12.6-2.89 29.93-30.71 41.47-16.01 6.56-35.44 9.97-58.01 9.45h-.263c-11.55-.262-27.3-.262-46.99.525.52 1.84.788 3.67.788 5.51 1.05 10.24-2.1 19.95-8.93 27.56-6.04 6.83-14.7 12.07-26.25 16.01-13.39 4.2-28.35 6.56-45.67 6.56zm-74.55-48.82c10.76 11.03 24.67 17.59 41.74 19.95 29.14 3.94 52.5 3.15 69.82-2.89 18.64-6.3 17.85-13.39 17.59-16.27-.263-2.89-1.05-4.99-2.63-6.82-18.11.262-21.52-.263-24.41-1.57-6.83-2.63-10.24-10.24-7.61-17.06 2.36-6.3 9.19-9.71 15.75-7.88 1.31.262 5.78.525 20.48 0 2.62-.263 5.51-.263 8.66-.525h.262c26.77-1.05 47.77-1.31 62.47-1.05 18.9.262 34.91-2.1 47.25-7.61 15.49-6.3 14.96-12.34 14.7-14.44-1.31-12.34-6.56-22.05-16.27-30.19h-.262c-1.57-1.31-3.41-2.89-5.25-3.94l-5.25 1.05h-.262c-23.36 3.94-28.09 4.72-28.87 4.99-7.09 1.84-14.18-2.36-16.01-9.45-1.84-7.09 2.36-14.18 9.45-16.01 1.31-.263 3.67-1.05 31.24-5.51l9.97-1.84a347.32 347.32 0 0 0 41.47-11.29c42.26-14.44 61.95-33.34 59.59-57.75-.262-2.1-1.05-9.19-15.22-16.54-6.83-3.41-14.18-5.78-21.26-6.83-19.43 10.24-46.99 18.38-84.52 24.68-7.09 1.31-13.91-3.67-15.22-10.76-1.31-7.09 3.67-13.91 10.76-15.22 36.22-6.3 63-14.18 79.53-23.63.263-.262.79-.525 1.05-.525l1.57-.787c17.85-6.04 31.24-14.7 40.16-25.99 8.92-11.29 13.39-24.94 13.91-42.262-6.3-1.57-11.55-4.99-16.01-13.91-17.32-30.97-13.39-44.62-7.35-10.5 8.93-23.62 17.59-38.85 25.99-6.3 3.41-14.44 1.05-17.85-5.25-3.41-6.3-1.05-14.44 5.25-17.85 14.44-7.87 26.51-16.01 35.96-23.89 3.15-2.63 6.04-5.51 8.66-8.14 1.57-1.57 2.89-3.41 4.46-4.99 9.71-11.55 19.43-25.46 28.35-40.95 11.02-19.16 19.42-41.21 24.41-65.89 4.99-23.63 6.3-46.72 3.94-68.51v-.263c-1.31-14.17-3.41-25.72-6.56-34.65-2.1-6.3-4.46-9.97-6.04-12.07-3.15 3.67-8.93 11.55-18.64 27.56-21.79 38.59-24.15 41.74-25.99 43.57-17.59 19.16-39.11 39.11-64.05 59.59-27.82 22.84-55.91 43.05-83.74 59.85-25.99 15.75-49.61 31.5-69.82 46.72 0 0-.262 0-.262.26-1.84 1.31-3.41 2.63-5.25 3.67-32.81 24.94-58.01 49.35-75.07 72.45-11.29 15.49-19.95 32.02-25.73 48.82-2.62 86.36-2.62 143.32 0 168.78 2.63 22.57 9.71 39.64 22.05 52.24zm111.3-32.02zm-1.57-.263zm172.98-498.47zm60.37-54.86z"></path></symbol><symbol id="right" viewBox="0 0 3000 3000"><path fill="#E5FAFE" d="M701.48 1376.07c-1.75-1.75-10.5-16.92-26.83-45.79-16.63-27.42-27.12-40.83-31.79-40.25-9.04 1.17-16.33 9.63-21.88 25.67-3.79 10.79-6.42 24.79-8.17 41.71-2.63 25.67-1.17 52.5 4.67 80.5 5.83 29.17 15.46 55.12 28.58 77.58 10.5 18.08 21.58 33.83 33.25 47.54 1.75 2.04 3.5 4.08 5.25 5.83 3.21 3.5 6.71 6.71 10.79 10.21 11.38 9.63 25.37 19.25 42.29 28.29-16.92-8.75-30.91-18.08-42.29-27.71-29.17-13.71-52.21-9.62-69.42 11.96-6.13 7.58-8.75 16.62-8.75 27.12 1.46 44.04 24.79 73.79 70.29 88.96 19.83 11.37 51.04 21 93.33 28.29-42.29-7.29-73.5-16.62-93.33-28.29-1.75.291-3.21.291-4.67.583-9.63 1.46-19.25 4.38-28.58 9.04-15.17 7.87-23.33 17.79-24.5 30.04-3.21 34.42 21.88 60.96 75.83 79.92 14.29 4.96 30.33 9.33 48.12 13.12 3.79.584 7.58 1.46 11.38 2.04 20.13 3.21 31.21 5.25 33.54 5.83-2.33-.583-13.42-2.63-33.54-5.83-3.79-.583-7.58-1.46-11.38-2.04-4.38 2.33-8.46 5.25-12.25 8.46-13.71 11.37-21.29 25.67-23.04 43.16-1.46 13.13 7 23.63 25.08 30.92 16.04 6.71 35.58 9.92 58.62 9.33 16.04-.584 38.79 0 68.25 1.17 3.5.292 7 .292 9.92.584 16.04.291 25.08.291 27.13-.584-2.04.875-11.08.875-27.13.584-7.29 4.96-11.08 11.96-12.25 20.71-1.46 15.17 8.17 26.25 29.17 33.54 21.29 7.29 49.58 8.75 84.29 3.79 22.17-3.21 40.54-11.96 54.83-26.25 16.04-16.33 25.37-38.79 28-66.79 2.92-29.46 2.92-93.33 0-191.62-6.71-21-17.21-41.12-31.21-60.37-19.54-26.83-48.41-54.83-86.33-83.71l-6.13-4.37c-23.04-17.21-49.29-35-78.75-52.79-30.33-18.38-60.66-40.25-90.71-65.04-27.13-22.75-50.46-44.33-69.71-65.04z"></path><path d="M943.27 2009.56c-19.25 0-36.17-2.63-50.75-7.58-13.12-4.38-22.75-10.21-29.16-17.79-7.58-8.46-10.79-19.25-9.92-30.62l.875-6.13c-21.87-.583-39.37-.875-52.21-.583h-.292c-25.08.291-46.67-3.21-64.46-10.5-30.62-12.54-35.29-32.08-33.83-46.08 1.75-16.33 7.88-30.92 18.08-42.88-7.29-2.04-14.29-4.08-21-6.42-29.46-10.5-50.75-22.75-65.04-37.92-15.75-16.33-22.46-35.58-20.42-57.17 1.75-17.21 12.83-31.21 32.38-41.42-9.04-6.12-16.92-13.42-23.04-21.29-13.71-17.21-21-38.79-21.58-63.88-.291-14 3.5-26.25 11.67-36.46 12.83-16.04 27.42-23.04 41.71-24.79-7.87-10.5-15.46-22.17-22.46-34.42-14-23.92-24.21-51.62-30.33-82.25-6.13-29.17-7.58-57.75-4.96-84.87 1.75-18.38 4.67-33.25 8.75-45.21 7.29-21.29 18.67-33.25 33.83-35.29 12.83-1.75 23.33 8.75 46.37 46.96l.292.29c18.96 33.54 23.92 41.42 25.08 43.17 18.37 20.13 41.42 41.42 67.96 63.29 29.75 24.5 59.5 46.08 89.25 63.87 29.75 18.08 56.58 36.17 79.92 53.37l6.13 4.38c38.79 29.46 68.83 58.62 89.25 86.62 14.88 20.42 25.96 42 33.25 64.46.291 1.17.583 2.63.583 4.08 2.92 99.75 2.92 163.04 0 193.37-2.92 31.21-13.71 56.58-32.08 75.25-16.62 16.63-37.62 26.83-63 30.62-14.87 2.92-28.29 3.79-40.83 3.79zm-57.75-60.96c-1.75 2.04-2.63 4.38-2.92 7.58-.291 3.21-1.17 11.08 19.54 18.08 19.25 6.71 45.21 7.58 77.58 3.21 19.25-2.63 34.42-9.92 46.37-22.17 13.71-14 21.58-32.96 23.92-57.75 2.92-28.58 2.92-91.58 0-187.54-6.42-18.96-15.75-37.04-28.58-54.25-18.67-25.67-46.67-52.79-83.42-80.79-1.75-1.46-3.79-2.92-5.54-4.08 0 0-.291 0-.291-.292-22.46-16.92-48.71-34.42-77.58-51.92-30.62-18.67-61.83-41.12-92.46-66.5-27.71-22.75-51.62-44.92-71.17-66.21-2.04-2.04-4.67-5.54-28.87-48.42-10.79-17.79-17.21-26.54-20.71-30.63-2.04 2.33-4.38 6.42-6.71 13.42-3.5 9.92-5.83 22.75-7.29 38.5v.29c-2.33 24.21-.875 49.88 4.38 76.12 5.54 27.42 14.58 52.21 27.12 73.21a335.45 335.45 0 0 0 31.5 45.5c1.75 1.75 3.21 3.79 4.96 5.54 2.92 2.92 6.13 6.13 9.63 9.04 10.5 9.04 23.92 18.08 39.96 26.54 7 3.79 9.63 12.83 5.83 19.83-3.79 7-12.83 9.63-19.83 5.83-16.92-9.33-31.5-18.96-43.17-28.88-28.29-12.54-41.71-2.04-50.17 8.46-3.79 4.96-5.54 10.79-5.54 17.79.583 18.96 5.54 34.12 15.46 46.67 9.92 12.54 24.79 22.17 44.62 28.87l1.75.875c.291.29.875.29 1.17.583 18.38 10.5 48.12 19.54 88.37 26.25 7.87 1.46 13.42 8.75 11.96 16.92s-9.04 13.42-16.92 11.96c-41.41-7.29-72.04-16.33-93.62-27.71-7.88 1.17-16.04 3.79-23.62 7.58-15.46 8.17-16.63 15.75-16.92 18.37-2.63 26.83 18.96 48.12 66.21 64.75 13.71 4.67 29.17 8.75 46.08 12.54l11.08 2.04c30.62 4.96 33.25 5.83 34.71 6.13 7.87 2.04 12.54 9.92 10.5 17.79-2.04 7.88-9.92 12.54-17.79 10.5-1.17-.292-6.13-1.17-32.08-5.54h-.291l-5.83-1.17c-2.04 1.17-3.79 2.63-5.83 4.38h-.291c-10.79 9.04-16.63 19.83-18.08 33.54-.292 2.63-.875 9.04 16.04 16.04 14 5.83 31.79 8.75 52.79 8.46 16.33-.583 39.67 0 69.42 1.17h.292c3.5.292 6.71.292 9.92.583 16.63.292 21.58 0 22.75 0 7-2.04 14.87 1.75 17.5 8.75 2.92 7.58-.876 16.04-8.46 18.96-3.5.875-7.29 1.75-27.42 1.17zm16.92-28.88zm1.75-.291zM711.98 1365.57zm0 0z"></path></symbol></svg>