<svg xmlns="http://www.w3.org/2000/svg"><symbol id="default" viewBox="0 0 3000 3000"><path fill="#FCE370" d="M1024.38 1883.11c-2.62-.29-4.96.59-7 2.92 1.46-.58 3.79-1.75 7-2.92Zm-82.25-187.24c.291.29.88.29 1.17.29-2.33-1.17-4.67-2.33-6.71-3.5 1.17.58 2.04 1.17 2.92 1.46.88.87 1.75 1.16 2.63 1.75ZM1397.13 675.64c-1.75 1.75-3.5 3.21-5.55 4.96.59 0 1.17.29 2.05 0 1.45-1.46 2.62-3.21 3.5-4.96Zm91.29-287.29c-42.88-16.92-92.75-30.62-149.04-41.12-56.29-10.5-129.5-9.63-219.04 2.63-89.83 11.67-171.21 41.71-244.7 89.54-40.54 26.54-76.12 51.92-106.75 76.12-95.37 75.25-146.71 175.29-154 300.41-7.29 125.42 6.42 241.21 41.12 347.67 34.71 107.04 45.79 190.45 32.96 250.82-31.79 134.46 13.13 234.5 134.46 300.12 37.92 20.71 78.46 32.67 121.62 35.88-16.62-34.71-17.79-52.79-3.21-54.25v-.58c-.875-.59-1.75-.88-2.63-1.46-.875-.59-2.04-1.17-2.92-1.46-9.63-5.25-16.04-8.75-19.54-10.5-38.79-21.58-67.96-42.29-87.5-62.12 19.83 19.83 49 40.54 87.5 62.12 3.21 1.75 9.63 5.25 19.54 10.5 2.33 1.17 4.67 2.33 6.71 3.5.29.29.58.29.58.29 13.42 6.13 41.12 18.96 83.13 38.5 47.54 21.87 72.33 45.79 73.79 71.75 1.75 25.96 3.2 41.12 4.08 46.37 11.96-5.25 22.17-10.21 30.92-15.46 37.33-22.75 55.41-69.12 54.25-139.41-26.55-12.83-48.13-25.08-64.46-37.04-16.04-11.67-25.38-21-28-27.71 2.62 7 11.96 16.04 28 27.71 16.33 11.96 37.91 24.21 64.46 37.04 24.79 3.5 45.79 13.42 63.58 29.75 17.5 16.33 30.91 49.58 39.66 100.04 7.88-4.38 14.88-9.33 21.29-14.58 29.75-24.21 44.63-57.75 44.63-100.34 0-65.62-19.25-116.37-57.75-152.83-15.46-14.58-35.29-27.99-59.21-40.54-14.58-7.58-37.04-17.5-67.95-30.33-30.92-12.83-53.38-22.75-67.96-30.33-23.92-12.54-43.75-26.25-59.21-40.83-38.5-36.46-57.75-87.21-57.75-152.83 0-5.84 2.33-26.25 7-60.67 4.67-34.42 7-54.83 7-60.67 0-19.83-4.96-39.08-14.58-57.74-5.25-9.92-15.75-25.96-31.79-47.55-15.17-20.41-25.67-37.33-32.08-50.74-9.63-21-14.58-43.46-14.58-67.37 0-1.46 0-3.21.29-5.25v.292l-4.38-.292c-34.13 14.58-55.71 21-64.75 20.13 9.04 1.17 30.62-5.54 64.75-20.13 1.46-.583 3.21-1.46 4.67-2.04 32.08-14 61.83-33.25 89.83-57.16 2.33-2.04 4.96-4.38 7.29-6.42 27.41-24.79 49-51.62 65.33-80.79 14-24.79 22.75-49.87 26.54-74.67-3.79 24.79-12.83 49.87-26.54 74.67-16.33 29.17-37.92 56.29-65.33 80.79h16.62c31.5-.875 62.42-10.79 92.75-29.75 27.42-16.92 52.5-39.96 75.83-69.12 1.46-2.04 3.21-4.08 4.38-5.83 19.25-25.08 35-52.21 47.25-81.08 4.66-11.38 8.75-22.46 11.96-32.96a48.09 48.09 0 0 1 6.41 18.08c.59 6.13 1.46 12.54 2.34 19.54.87 7 1.16 17.21.87 30.04-.29 13.12-1.46 23.92-2.92 32.96-1.45 9.04-3.79 20.13-6.7 33.83-2.92 13.71-5.25 23.33-6.71 28.58h.29c41.12-9.04 80.5-36.17 119-81.67 8.75-10.21 16.62-20.71 23.91-31.5H1391c1.75-1.75 3.79-3.21 5.54-4.96 23.92-22.46 42.88-48.42 57.46-77.58-14.29 29.17-33.54 55.12-57.46 77.58v5.54c40.84 2.33 81.38-11.67 122.21-42.87 42.58-32.38 67.37-60.08 74.08-83.42 6.71-23.33 1.75-52.5-15.17-87.79-16.33-35.87-46.08-62.12-89.24-79.04Z"></path><path fill="#000" d="M1105.47 1867.66c-2.34 0-4.67-.59-6.71-1.75-3.79-2.05-6.71-5.84-7.58-10.21-.59-3.5-2.04-12.54-4.38-48.13-1.46-19.83-23.91-40.25-65.62-59.5-33.84-15.75-58.63-27.12-73.79-34.12 1.17 5.25 3.79 14.58 11.38 30.33 2.33 4.67 1.75 10.21-1.17 14.59-2.92 4.37-7.88 6.7-13.13 6.41-44.92-3.5-88.08-16.04-127.75-37.62-127.17-68.54-175-175-141.75-316.16 11.96-57.75 1.17-139.42-32.67-242.96-35-107.91-49.29-226.62-41.71-353.2 3.79-64.46 18.96-123.08 45.5-175 26.25-51.62 64.75-97.71 113.75-136.21 30.92-24.5 67.37-50.17 107.91-77 74.67-49 158.96-79.92 250.25-92.17 90.71-12.25 166.25-13.12 224-2.33 57.16 10.5 108.2 24.79 151.95 42 46.37 18.38 79.04 47.25 97.71 85.75 18.37 38.5 23.91 71.46 16.04 98.29-7.88 26.54-33.83 56.29-79.33 91-42 31.79-84.88 47.25-127.46 46.08-6.42 8.75-13.12 17.21-20.12 25.67-40.25 47.83-82.84 77-126.88 86.62-1.16.29-2.4.29-3.2.29-4.67 0-9.05-2.33-11.67-5.83-2.63-3.79-3.5-8.46-2.33-12.83 1.45-4.96 3.79-14 6.41-27.42 2.92-13.42 4.96-24.79 6.71-33.54 1.46-8.17 2.33-18.67 2.63-30.92.29-5.54.29-10.21 0-14.58a392.43 392.43 0 0 1-42.59 70.29c-1.46 2.04-3.21 4.08-4.66 6.13-24.21 30.33-50.75 54.83-79.34 72.62-32.66 20.12-66.2 30.92-100.04 31.79h-11.37c-1.17.88-2.33 2.04-3.21 2.92-26.54 22.75-55.12 41.71-85.45 55.71.29 20.71 4.67 40.83 13.13 59.21 5.83 12.54 16.04 28.88 30.33 48.12 16.63 22.75 27.42 38.8 32.96 49.59 10.79 20.71 16.33 42.29 16.33 64.16 0 4.38-.87 15.46-7.29 62.71-6.12 44.04-7 55.71-7 58.62 0 30.92 4.67 58.63 13.42 82.25 8.75 23.33 22.16 43.46 39.66 60.08 14.3 13.71 33.25 26.55 56 38.5 14 7.29 36.46 17.21 66.79 29.75 30.92 12.84 54.25 23.34 69.13 30.92 25.08 13.12 46.08 27.42 62.41 42.87 41.42 39.09 62.42 94.21 62.42 163.33 0 46.96-16.92 84.29-49.88 111.42-7 5.83-14.87 11.08-23.33 15.75-4.08 2.33-9.04 2.62-13.42.58-4.37-2.04-7.29-5.83-8.16-10.5-10.5-58.33-25.08-82.25-35.58-91.87-11.38-10.5-24.21-18.09-39.09-22.46-2.04 65.62-22.75 110.54-61.25 133.87-9.04 5.54-19.83 11.09-32.66 16.34-1.46 1.45-3.5 1.75-5.25 1.75Zm-154.87-184.04c13.42 6.12 41.42 18.96 82.83 38.2 53.37 24.8 80.2 52.21 82.54 84 .87 10.79 1.46 19.25 2.04 25.38 4.08-2.04 7.58-4.09 10.79-6.13 16.04-9.62 27.71-24.21 35.58-44.62 7.59-19.25 11.38-44.04 11.67-73.21-23.62-11.66-43.17-23.33-58.33-34.41-19.25-14-29.46-24.5-32.96-34.71-2.62-7.59 1.17-16.04 8.75-18.67 7.58-2.91 16.04 1.17 18.67 8.75 0 .29 2.62 6.42 22.75 21 15.16 11.08 35.58 22.75 60.37 34.71 26.54 4.08 49.87 15.46 69.12 33.25 17.21 16.04 30.63 44.62 39.96 86.62.58-.58 1.17-1.17 2.04-1.46 26.54-21.58 39.38-50.75 39.38-88.95 0-30.92-4.67-58.63-13.42-82.25-8.75-23.33-22.17-43.46-39.67-60.08-14.29-13.42-33.24-26.25-55.99-38.21-14-7.29-36.46-17.21-66.79-29.75-30.92-12.83-54.25-23.33-69.13-30.92-25.08-13.12-46.08-27.7-62.41-43.16-41.42-39.09-62.42-93.92-62.42-163.33 0-4.38.88-15.46 7.29-62.71 6.13-44.04 7-55.71 7-58.92 0-17.2-4.38-34.41-12.83-50.74-4.67-9.34-15.17-24.8-30.63-45.8-16.62-21-27.71-38.49-34.42-53.08-8.75-18.67-13.71-38.5-15.46-59.21-36.46 14.58-49.29 15.75-56.87 14.58-7.87-1.17-13.71-8.46-12.54-16.33 1.17-7.88 8.46-13.71 16.33-12.54 1.75.29 12.54 0 57.46-18.96 1.46-.584 2.63-1.17 4.08-1.75.29 0 .291-.292.58-.292 30.33-13.42 59.5-31.79 86.04-54.83l7-6.13c25.96-23.63 46.96-49.58 62.42-77.29 13.12-23.33 21.29-46.67 25.08-69.71 1.17-7.88 8.75-13.42 16.62-12.25 7.88 1.17 13.42 8.75 12.25 16.62-4.08 26.54-13.7 53.37-28.29 79.62-11.08 20.13-24.79 39.08-40.83 57.17 21.58-3.79 43.46-12.25 64.75-25.38 25.67-16.04 49.87-38.21 72.04-65.92 1.46-2.04 2.92-3.79 4.37-5.83 18.38-24.21 33.55-50.46 45.21-78.17 4.67-10.79 8.46-21.29 11.38-31.5 1.75-5.54 6.41-9.63 12.25-10.21 5.83-.584 11.37 2.04 14.29 7 4.37 7.58 7.29 15.46 8.16 23.62v.292c.59 5.83 1.46 12.25 2.34 19.25 1.16 7.88 1.46 18.67.87 32.38-.29 13.71-1.46 25.37-2.91 35-1.46 9.04-3.8 20.71-6.71 34.42-.29 1.46-.59 2.63-.88 3.79 29.75-12.25 58.92-35.58 87.5-69.42 6.71-7.87 12.83-16.04 18.96-24.21.58-3.21 2.04-6.42 4.67-8.75 1.75-1.46 3.5-2.92 4.95-4.67l.3-.292c22.45-21 40.54-45.79 53.95-73.21a239.69 239.69 0 0 0 21.29-65.62c1.17-7.88 8.75-13.42 16.63-11.96 7.87 1.17 13.42 8.75 11.96 16.62-4.09 25.08-11.96 49.87-23.63 73.79-10.79 21.87-24.21 42.29-39.95 60.66 27.41-4.38 55.41-17.21 83.12-38.21 49.58-37.62 65.04-62.12 68.83-75.83 5.83-19.54.88-45.79-14.58-77.58-15.46-32.08-42.29-55.42-81.96-71.46-41.71-16.63-91-30.33-146.41-40.54-54.54-10.21-126.88-9.33-214.67 2.63-87.49 11.67-167.41 41.42-238.57 87.79-39.96 26.25-75.54 51.62-105.87 75.25-45.79 36.17-81.37 78.75-106.17 126.87-24.5 48.12-38.79 102.96-42.29 163.33-7.29 122.79 6.42 238 40.54 342.41 17.5 53.96 29.17 102.67 35 145.25 5.54 43.17 5.25 81.08-1.46 112.87v.29c-15.17 63.88-11.96 119.88 9.04 166.54 21 46.67 60.66 86.33 118.41 117.25 28.87 15.75 59.5 26.25 91.58 31.5-4.96-14.29-6.13-25.08-3.5-33.54-3.79-2.04-6.71-3.79-8.75-4.96-39.67-22.17-70.29-44.04-90.71-64.46-20.12-20.12-32.67-35.87-38.79-47.83-3.5-7.29-.583-16.04 6.71-19.54 7.29-3.5 16.04-.58 19.54 6.71 3.21 6.41 11.38 18.37 33.25 40.25 18.67 18.66 47.25 38.79 84.58 59.79 0 0 .292 0 .292.29 2.92 1.75 9.33 5.25 18.67 10.21a68.55 68.55 0 0 0 6.42 3.21c-.291 0 0 .29.29.29Z"></path></symbol><symbol id="body" viewBox="0 0 3000 3000"><path fill="#FCE370" d="M1024.38 1883.11c-2.62-.29-4.96.59-7 2.92 1.46-.58 3.79-1.75 7-2.92Zm-82.25-187.24c.291.29.88.29 1.17.29-2.33-1.17-4.67-2.33-6.71-3.5 1.17.58 2.04 1.17 2.92 1.46.88.87 1.75 1.16 2.63 1.75ZM1397.13 675.64c-1.75 1.75-3.5 3.21-5.55 4.96.59 0 1.17.29 2.05 0 1.45-1.46 2.62-3.21 3.5-4.96Zm91.29-287.29c-42.88-16.92-92.75-30.62-149.04-41.12-56.29-10.5-129.5-9.63-219.04 2.63-89.83 11.67-171.21 41.71-244.7 89.54-40.54 26.54-76.12 51.92-106.75 76.12-95.37 75.25-146.71 175.29-154 300.41-7.29 125.42 6.42 241.21 41.12 347.67 34.71 107.04 45.79 190.45 32.96 250.82-31.79 134.46 13.13 234.5 134.46 300.12 37.92 20.71 78.46 32.67 121.62 35.88-16.62-34.71-17.79-52.79-3.21-54.25v-.58c-.875-.59-1.75-.88-2.63-1.46-.875-.59-2.04-1.17-2.92-1.46-9.63-5.25-16.04-8.75-19.54-10.5-38.79-21.58-67.96-42.29-87.5-62.12 19.83 19.83 49 40.54 87.5 62.12 3.21 1.75 9.63 5.25 19.54 10.5 2.33 1.17 4.67 2.33 6.71 3.5.29.29.58.29.58.29 13.42 6.13 41.12 18.96 83.13 38.5 47.54 21.87 72.33 45.79 73.79 71.75 1.75 25.96 3.2 41.12 4.08 46.37 11.96-5.25 22.17-10.21 30.92-15.46 37.33-22.75 55.41-69.12 54.25-139.41-26.55-12.83-48.13-25.08-64.46-37.04-16.04-11.67-25.38-21-28-27.71 2.62 7 11.96 16.04 28 27.71 16.33 11.96 37.91 24.21 64.46 37.04 24.79 3.5 45.79 13.42 63.58 29.75 17.5 16.33 30.91 49.58 39.66 100.04 7.88-4.38 14.88-9.33 21.29-14.58 29.75-24.21 44.63-57.75 44.63-100.34 0-65.62-19.25-116.37-57.75-152.83-15.46-14.58-35.29-27.99-59.21-40.54-14.58-7.58-37.04-17.5-67.95-30.33-30.92-12.83-53.38-22.75-67.96-30.33-23.92-12.54-43.75-26.25-59.21-40.83-38.5-36.46-57.75-87.21-57.75-152.83 0-5.84 2.33-26.25 7-60.67 4.67-34.42 7-54.83 7-60.67 0-19.83-4.96-39.08-14.58-57.74-5.25-9.92-15.75-25.96-31.79-47.55-15.17-20.41-25.67-37.33-32.08-50.74-9.63-21-14.58-43.46-14.58-67.37 0-1.46 0-3.21.29-5.25v.292l-4.38-.292c-34.13 14.58-55.71 21-64.75 20.13 9.04 1.17 30.62-5.54 64.75-20.13 1.46-.583 3.21-1.46 4.67-2.04 32.08-14 61.83-33.25 89.83-57.16 2.33-2.04 4.96-4.38 7.29-6.42 27.41-24.79 49-51.62 65.33-80.79 14-24.79 22.75-49.87 26.54-74.67-3.79 24.79-12.83 49.87-26.54 74.67-16.33 29.17-37.92 56.29-65.33 80.79h16.62c31.5-.875 62.42-10.79 92.75-29.75 27.42-16.92 52.5-39.96 75.83-69.12 1.46-2.04 3.21-4.08 4.38-5.83 19.25-25.08 35-52.21 47.25-81.08 4.66-11.38 8.75-22.46 11.96-32.96a48.09 48.09 0 0 1 6.41 18.08c.59 6.13 1.46 12.54 2.34 19.54.87 7 1.16 17.21.87 30.04-.29 13.12-1.46 23.92-2.92 32.96-1.45 9.04-3.79 20.13-6.7 33.83-2.92 13.71-5.25 23.33-6.71 28.58h.29c41.12-9.04 80.5-36.17 119-81.67 8.75-10.21 16.62-20.71 23.91-31.5H1391c1.75-1.75 3.79-3.21 5.54-4.96 23.92-22.46 42.88-48.42 57.46-77.58-14.29 29.17-33.54 55.12-57.46 77.58v5.54c40.84 2.33 81.38-11.67 122.21-42.87 42.58-32.38 67.37-60.08 74.08-83.42 6.71-23.33 1.75-52.5-15.17-87.79-16.33-35.87-46.08-62.12-89.24-79.04Z"></path><path fill="#000" d="M1105.47 1867.66c-2.34 0-4.67-.59-6.71-1.75-3.79-2.05-6.71-5.84-7.58-10.21-.59-3.5-2.04-12.54-4.38-48.13-1.46-19.83-23.91-40.25-65.62-59.5-33.84-15.75-58.63-27.12-73.79-34.12 1.17 5.25 3.79 14.58 11.38 30.33 2.33 4.67 1.75 10.21-1.17 14.59-2.92 4.37-7.88 6.7-13.13 6.41-44.92-3.5-88.08-16.04-127.75-37.62-127.17-68.54-175-175-141.75-316.16 11.96-57.75 1.17-139.42-32.67-242.96-35-107.91-49.29-226.62-41.71-353.2 3.79-64.46 18.96-123.08 45.5-175 26.25-51.62 64.75-97.71 113.75-136.21 30.92-24.5 67.37-50.17 107.91-77 74.67-49 158.96-79.92 250.25-92.17 90.71-12.25 166.25-13.12 224-2.33 57.16 10.5 108.2 24.79 151.95 42 46.37 18.38 79.04 47.25 97.71 85.75 18.37 38.5 23.91 71.46 16.04 98.29-7.88 26.54-33.83 56.29-79.33 91-42 31.79-84.88 47.25-127.46 46.08-6.42 8.75-13.12 17.21-20.12 25.67-40.25 47.83-82.84 77-126.88 86.62-1.16.29-2.4.29-3.2.29-4.67 0-9.05-2.33-11.67-5.83-2.63-3.79-3.5-8.46-2.33-12.83 1.45-4.96 3.79-14 6.41-27.42 2.92-13.42 4.96-24.79 6.71-33.54 1.46-8.17 2.33-18.67 2.63-30.92.29-5.54.29-10.21 0-14.58a392.43 392.43 0 0 1-42.59 70.29c-1.46 2.04-3.21 4.08-4.66 6.13-24.21 30.33-50.75 54.83-79.34 72.62-32.66 20.12-66.2 30.92-100.04 31.79h-11.37c-1.17.88-2.33 2.04-3.21 2.92-26.54 22.75-55.12 41.71-85.45 55.71.29 20.71 4.67 40.83 13.13 59.21 5.83 12.54 16.04 28.88 30.33 48.12 16.63 22.75 27.42 38.8 32.96 49.59 10.79 20.71 16.33 42.29 16.33 64.16 0 4.38-.87 15.46-7.29 62.71-6.12 44.04-7 55.71-7 58.62 0 30.92 4.67 58.63 13.42 82.25 8.75 23.33 22.16 43.46 39.66 60.08 14.3 13.71 33.25 26.55 56 38.5 14 7.29 36.46 17.21 66.79 29.75 30.92 12.84 54.25 23.34 69.13 30.92 25.08 13.12 46.08 27.42 62.41 42.87 41.42 39.09 62.42 94.21 62.42 163.33 0 46.96-16.92 84.29-49.88 111.42-7 5.83-14.87 11.08-23.33 15.75-4.08 2.33-9.04 2.62-13.42.58-4.37-2.04-7.29-5.83-8.16-10.5-10.5-58.33-25.08-82.25-35.58-91.87-11.38-10.5-24.21-18.09-39.09-22.46-2.04 65.62-22.75 110.54-61.25 133.87-9.04 5.54-19.83 11.09-32.66 16.34-1.46 1.45-3.5 1.75-5.25 1.75Zm-154.87-184.04c13.42 6.12 41.42 18.96 82.83 38.2 53.37 24.8 80.2 52.21 82.54 84 .87 10.79 1.46 19.25 2.04 25.38 4.08-2.04 7.58-4.09 10.79-6.13 16.04-9.62 27.71-24.21 35.58-44.62 7.59-19.25 11.38-44.04 11.67-73.21-23.62-11.66-43.17-23.33-58.33-34.41-19.25-14-29.46-24.5-32.96-34.71-2.62-7.59 1.17-16.04 8.75-18.67 7.58-2.91 16.04 1.17 18.67 8.75 0 .29 2.62 6.42 22.75 21 15.16 11.08 35.58 22.75 60.37 34.71 26.54 4.08 49.87 15.46 69.12 33.25 17.21 16.04 30.63 44.62 39.96 86.62.58-.58 1.17-1.17 2.04-1.46 26.54-21.58 39.38-50.75 39.38-88.95 0-30.92-4.67-58.63-13.42-82.25-8.75-23.33-22.17-43.46-39.67-60.08-14.29-13.42-33.24-26.25-55.99-38.21-14-7.29-36.46-17.21-66.79-29.75-30.92-12.83-54.25-23.33-69.13-30.92-25.08-13.12-46.08-27.7-62.41-43.16-41.42-39.09-62.42-93.92-62.42-163.33 0-4.38.88-15.46 7.29-62.71 6.13-44.04 7-55.71 7-58.92 0-17.2-4.38-34.41-12.83-50.74-4.67-9.34-15.17-24.8-30.63-45.8-16.62-21-27.71-38.49-34.42-53.08-8.75-18.67-13.71-38.5-15.46-59.21-36.46 14.58-49.29 15.75-56.87 14.58-7.87-1.17-13.71-8.46-12.54-16.33 1.17-7.88 8.46-13.71 16.33-12.54 1.75.29 12.54 0 57.46-18.96 1.46-.584 2.63-1.17 4.08-1.75.29 0 .291-.292.58-.292 30.33-13.42 59.5-31.79 86.04-54.83l7-6.13c25.96-23.63 46.96-49.58 62.42-77.29 13.12-23.33 21.29-46.67 25.08-69.71 1.17-7.88 8.75-13.42 16.62-12.25 7.88 1.17 13.42 8.75 12.25 16.62-4.08 26.54-13.7 53.37-28.29 79.62-11.08 20.13-24.79 39.08-40.83 57.17 21.58-3.79 43.46-12.25 64.75-25.38 25.67-16.04 49.87-38.21 72.04-65.92 1.46-2.04 2.92-3.79 4.37-5.83 18.38-24.21 33.55-50.46 45.21-78.17 4.67-10.79 8.46-21.29 11.38-31.5 1.75-5.54 6.41-9.63 12.25-10.21 5.83-.584 11.37 2.04 14.29 7 4.37 7.58 7.29 15.46 8.16 23.62v.292c.59 5.83 1.46 12.25 2.34 19.25 1.16 7.88 1.46 18.67.87 32.38-.29 13.71-1.46 25.37-2.91 35-1.46 9.04-3.8 20.71-6.71 34.42-.29 1.46-.59 2.63-.88 3.79 29.75-12.25 58.92-35.58 87.5-69.42 6.71-7.87 12.83-16.04 18.96-24.21.58-3.21 2.04-6.42 4.67-8.75 1.75-1.46 3.5-2.92 4.95-4.67l.3-.292c22.45-21 40.54-45.79 53.95-73.21a239.69 239.69 0 0 0 21.29-65.62c1.17-7.88 8.75-13.42 16.63-11.96 7.87 1.17 13.42 8.75 11.96 16.62-4.09 25.08-11.96 49.87-23.63 73.79-10.79 21.87-24.21 42.29-39.95 60.66 27.41-4.38 55.41-17.21 83.12-38.21 49.58-37.62 65.04-62.12 68.83-75.83 5.83-19.54.88-45.79-14.58-77.58-15.46-32.08-42.29-55.42-81.96-71.46-41.71-16.63-91-30.33-146.41-40.54-54.54-10.21-126.88-9.33-214.67 2.63-87.49 11.67-167.41 41.42-238.57 87.79-39.96 26.25-75.54 51.62-105.87 75.25-45.79 36.17-81.37 78.75-106.17 126.87-24.5 48.12-38.79 102.96-42.29 163.33-7.29 122.79 6.42 238 40.54 342.41 17.5 53.96 29.17 102.67 35 145.25 5.54 43.17 5.25 81.08-1.46 112.87v.29c-15.17 63.88-11.96 119.88 9.04 166.54 21 46.67 60.66 86.33 118.41 117.25 28.87 15.75 59.5 26.25 91.58 31.5-4.96-14.29-6.13-25.08-3.5-33.54-3.79-2.04-6.71-3.79-8.75-4.96-39.67-22.17-70.29-44.04-90.71-64.46-20.12-20.12-32.67-35.87-38.79-47.83-3.5-7.29-.583-16.04 6.71-19.54 7.29-3.5 16.04-.58 19.54 6.71 3.21 6.41 11.38 18.37 33.25 40.25 18.67 18.66 47.25 38.79 84.58 59.79 0 0 .292 0 .292.29 2.92 1.75 9.33 5.25 18.67 10.21a68.55 68.55 0 0 0 6.42 3.21c-.291 0 0 .29.29.29Z"></path></symbol><symbol id="left" viewBox="0 0 3000 3000"><path fill="#FCE370" d="M1024.38 1883.11c-2.62-.29-4.96.59-7 2.92 1.46-.58 3.79-1.75 7-2.92Zm-82.25-187.24c.291.29.88.29 1.17.29-2.33-1.17-4.67-2.33-6.71-3.5 1.17.58 2.04 1.17 2.92 1.46.88.87 1.75 1.16 2.63 1.75ZM1397.13 675.64c-1.75 1.75-3.5 3.21-5.55 4.96.59 0 1.17.29 2.05 0 1.45-1.46 2.62-3.21 3.5-4.96Zm91.29-287.29c-42.88-16.92-92.75-30.62-149.04-41.12-56.29-10.5-129.5-9.63-219.04 2.63-89.83 11.67-171.21 41.71-244.7 89.54-40.54 26.54-76.12 51.92-106.75 76.12-95.37 75.25-146.71 175.29-154 300.41-7.29 125.42 6.42 241.21 41.12 347.67 34.71 107.04 45.79 190.45 32.96 250.82-31.79 134.46 13.13 234.5 134.46 300.12 37.92 20.71 78.46 32.67 121.62 35.88-16.62-34.71-17.79-52.79-3.21-54.25v-.58c-.875-.59-1.75-.88-2.63-1.46-.875-.59-2.04-1.17-2.92-1.46-9.63-5.25-16.04-8.75-19.54-10.5-38.79-21.58-67.96-42.29-87.5-62.12 19.83 19.83 49 40.54 87.5 62.12 3.21 1.75 9.63 5.25 19.54 10.5 2.33 1.17 4.67 2.33 6.71 3.5.29.29.58.29.58.29 13.42 6.13 41.12 18.96 83.13 38.5 47.54 21.87 72.33 45.79 73.79 71.75 1.75 25.96 3.2 41.12 4.08 46.37 11.96-5.25 22.17-10.21 30.92-15.46 37.33-22.75 55.41-69.12 54.25-139.41-26.55-12.83-48.13-25.08-64.46-37.04-16.04-11.67-25.38-21-28-27.71 2.62 7 11.96 16.04 28 27.71 16.33 11.96 37.91 24.21 64.46 37.04 24.79 3.5 45.79 13.42 63.58 29.75 17.5 16.33 30.91 49.58 39.66 100.04 7.88-4.38 14.88-9.33 21.29-14.58 29.75-24.21 44.63-57.75 44.63-100.34 0-65.62-19.25-116.37-57.75-152.83-15.46-14.58-35.29-27.99-59.21-40.54-14.58-7.58-37.04-17.5-67.95-30.33-30.92-12.83-53.38-22.75-67.96-30.33-23.92-12.54-43.75-26.25-59.21-40.83-38.5-36.46-57.75-87.21-57.75-152.83 0-5.84 2.33-26.25 7-60.67 4.67-34.42 7-54.83 7-60.67 0-19.83-4.96-39.08-14.58-57.74-5.25-9.92-15.75-25.96-31.79-47.55-15.17-20.41-25.67-37.33-32.08-50.74-9.63-21-14.58-43.46-14.58-67.37 0-1.46 0-3.21.29-5.25v.292l-4.38-.292c-34.13 14.58-55.71 21-64.75 20.13 9.04 1.17 30.62-5.54 64.75-20.13 1.46-.583 3.21-1.46 4.67-2.04 32.08-14 61.83-33.25 89.83-57.16 2.33-2.04 4.96-4.38 7.29-6.42 27.41-24.79 49-51.62 65.33-80.79 14-24.79 22.75-49.87 26.54-74.67-3.79 24.79-12.83 49.87-26.54 74.67-16.33 29.17-37.92 56.29-65.33 80.79h16.62c31.5-.875 62.42-10.79 92.75-29.75 27.42-16.92 52.5-39.96 75.83-69.12 1.46-2.04 3.21-4.08 4.38-5.83 19.25-25.08 35-52.21 47.25-81.08 4.66-11.38 8.75-22.46 11.96-32.96a48.09 48.09 0 0 1 6.41 18.08c.59 6.13 1.46 12.54 2.34 19.54.87 7 1.16 17.21.87 30.04-.29 13.12-1.46 23.92-2.92 32.96-1.45 9.04-3.79 20.13-6.7 33.83-2.92 13.71-5.25 23.33-6.71 28.58h.29c41.12-9.04 80.5-36.17 119-81.67 8.75-10.21 16.62-20.71 23.91-31.5H1391c1.75-1.75 3.79-3.21 5.54-4.96 23.92-22.46 42.88-48.42 57.46-77.58-14.29 29.17-33.54 55.12-57.46 77.58v5.54c40.84 2.33 81.38-11.67 122.21-42.87 42.58-32.38 67.37-60.08 74.08-83.42 6.71-23.33 1.75-52.5-15.17-87.79-16.33-35.87-46.08-62.12-89.24-79.04Z"></path><path fill="#000" d="M1105.47 1867.66c-2.34 0-4.67-.59-6.71-1.75-3.79-2.05-6.71-5.84-7.58-10.21-.59-3.5-2.04-12.54-4.38-48.13-1.46-19.83-23.91-40.25-65.62-59.5-33.84-15.75-58.63-27.12-73.79-34.12 1.17 5.25 3.79 14.58 11.38 30.33 2.33 4.67 1.75 10.21-1.17 14.59-2.92 4.37-7.88 6.7-13.13 6.41-44.92-3.5-88.08-16.04-127.75-37.62-127.17-68.54-175-175-141.75-316.16 11.96-57.75 1.17-139.42-32.67-242.96-35-107.91-49.29-226.62-41.71-353.2 3.79-64.46 18.96-123.08 45.5-175 26.25-51.62 64.75-97.71 113.75-136.21 30.92-24.5 67.37-50.17 107.91-77 74.67-49 158.96-79.92 250.25-92.17 90.71-12.25 166.25-13.12 224-2.33 57.16 10.5 108.2 24.79 151.95 42 46.37 18.38 79.04 47.25 97.71 85.75 18.37 38.5 23.91 71.46 16.04 98.29-7.88 26.54-33.83 56.29-79.33 91-42 31.79-84.88 47.25-127.46 46.08-6.42 8.75-13.12 17.21-20.12 25.67-40.25 47.83-82.84 77-126.88 86.62-1.16.29-2.4.29-3.2.29-4.67 0-9.05-2.33-11.67-5.83-2.63-3.79-3.5-8.46-2.33-12.83 1.45-4.96 3.79-14 6.41-27.42 2.92-13.42 4.96-24.79 6.71-33.54 1.46-8.17 2.33-18.67 2.63-30.92.29-5.54.29-10.21 0-14.58a392.43 392.43 0 0 1-42.59 70.29c-1.46 2.04-3.21 4.08-4.66 6.13-24.21 30.33-50.75 54.83-79.34 72.62-32.66 20.12-66.2 30.92-100.04 31.79h-11.37c-1.17.88-2.33 2.04-3.21 2.92-26.54 22.75-55.12 41.71-85.45 55.71.29 20.71 4.67 40.83 13.13 59.21 5.83 12.54 16.04 28.88 30.33 48.12 16.63 22.75 27.42 38.8 32.96 49.59 10.79 20.71 16.33 42.29 16.33 64.16 0 4.38-.87 15.46-7.29 62.71-6.12 44.04-7 55.71-7 58.62 0 30.92 4.67 58.63 13.42 82.25 8.75 23.33 22.16 43.46 39.66 60.08 14.3 13.71 33.25 26.55 56 38.5 14 7.29 36.46 17.21 66.79 29.75 30.92 12.84 54.25 23.34 69.13 30.92 25.08 13.12 46.08 27.42 62.41 42.87 41.42 39.09 62.42 94.21 62.42 163.33 0 46.96-16.92 84.29-49.88 111.42-7 5.83-14.87 11.08-23.33 15.75-4.08 2.33-9.04 2.62-13.42.58-4.37-2.04-7.29-5.83-8.16-10.5-10.5-58.33-25.08-82.25-35.58-91.87-11.38-10.5-24.21-18.09-39.09-22.46-2.04 65.62-22.75 110.54-61.25 133.87-9.04 5.54-19.83 11.09-32.66 16.34-1.46 1.45-3.5 1.75-5.25 1.75Zm-154.87-184.04c13.42 6.12 41.42 18.96 82.83 38.2 53.37 24.8 80.2 52.21 82.54 84 .87 10.79 1.46 19.25 2.04 25.38 4.08-2.04 7.58-4.09 10.79-6.13 16.04-9.62 27.71-24.21 35.58-44.62 7.59-19.25 11.38-44.04 11.67-73.21-23.62-11.66-43.17-23.33-58.33-34.41-19.25-14-29.46-24.5-32.96-34.71-2.62-7.59 1.17-16.04 8.75-18.67 7.58-2.91 16.04 1.17 18.67 8.75 0 .29 2.62 6.42 22.75 21 15.16 11.08 35.58 22.75 60.37 34.71 26.54 4.08 49.87 15.46 69.12 33.25 17.21 16.04 30.63 44.62 39.96 86.62.58-.58 1.17-1.17 2.04-1.46 26.54-21.58 39.38-50.75 39.38-88.95 0-30.92-4.67-58.63-13.42-82.25-8.75-23.33-22.17-43.46-39.67-60.08-14.29-13.42-33.24-26.25-55.99-38.21-14-7.29-36.46-17.21-66.79-29.75-30.92-12.83-54.25-23.33-69.13-30.92-25.08-13.12-46.08-27.7-62.41-43.16-41.42-39.09-62.42-93.92-62.42-163.33 0-4.38.88-15.46 7.29-62.71 6.13-44.04 7-55.71 7-58.92 0-17.2-4.38-34.41-12.83-50.74-4.67-9.34-15.17-24.8-30.63-45.8-16.62-21-27.71-38.49-34.42-53.08-8.75-18.67-13.71-38.5-15.46-59.21-36.46 14.58-49.29 15.75-56.87 14.58-7.87-1.17-13.71-8.46-12.54-16.33 1.17-7.88 8.46-13.71 16.33-12.54 1.75.29 12.54 0 57.46-18.96 1.46-.584 2.63-1.17 4.08-1.75.29 0 .291-.292.58-.292 30.33-13.42 59.5-31.79 86.04-54.83l7-6.13c25.96-23.63 46.96-49.58 62.42-77.29 13.12-23.33 21.29-46.67 25.08-69.71 1.17-7.88 8.75-13.42 16.62-12.25 7.88 1.17 13.42 8.75 12.25 16.62-4.08 26.54-13.7 53.37-28.29 79.62-11.08 20.13-24.79 39.08-40.83 57.17 21.58-3.79 43.46-12.25 64.75-25.38 25.67-16.04 49.87-38.21 72.04-65.92 1.46-2.04 2.92-3.79 4.37-5.83 18.38-24.21 33.55-50.46 45.21-78.17 4.67-10.79 8.46-21.29 11.38-31.5 1.75-5.54 6.41-9.63 12.25-10.21 5.83-.584 11.37 2.04 14.29 7 4.37 7.58 7.29 15.46 8.16 23.62v.292c.59 5.83 1.46 12.25 2.34 19.25 1.16 7.88 1.46 18.67.87 32.38-.29 13.71-1.46 25.37-2.91 35-1.46 9.04-3.8 20.71-6.71 34.42-.29 1.46-.59 2.63-.88 3.79 29.75-12.25 58.92-35.58 87.5-69.42 6.71-7.87 12.83-16.04 18.96-24.21.58-3.21 2.04-6.42 4.67-8.75 1.75-1.46 3.5-2.92 4.95-4.67l.3-.292c22.45-21 40.54-45.79 53.95-73.21a239.69 239.69 0 0 0 21.29-65.62c1.17-7.88 8.75-13.42 16.63-11.96 7.87 1.17 13.42 8.75 11.96 16.62-4.09 25.08-11.96 49.87-23.63 73.79-10.79 21.87-24.21 42.29-39.95 60.66 27.41-4.38 55.41-17.21 83.12-38.21 49.58-37.62 65.04-62.12 68.83-75.83 5.83-19.54.88-45.79-14.58-77.58-15.46-32.08-42.29-55.42-81.96-71.46-41.71-16.63-91-30.33-146.41-40.54-54.54-10.21-126.88-9.33-214.67 2.63-87.49 11.67-167.41 41.42-238.57 87.79-39.96 26.25-75.54 51.62-105.87 75.25-45.79 36.17-81.37 78.75-106.17 126.87-24.5 48.12-38.79 102.96-42.29 163.33-7.29 122.79 6.42 238 40.54 342.41 17.5 53.96 29.17 102.67 35 145.25 5.54 43.17 5.25 81.08-1.46 112.87v.29c-15.17 63.88-11.96 119.88 9.04 166.54 21 46.67 60.66 86.33 118.41 117.25 28.87 15.75 59.5 26.25 91.58 31.5-4.96-14.29-6.13-25.08-3.5-33.54-3.79-2.04-6.71-3.79-8.75-4.96-39.67-22.17-70.29-44.04-90.71-64.46-20.12-20.12-32.67-35.87-38.79-47.83-3.5-7.29-.583-16.04 6.71-19.54 7.29-3.5 16.04-.58 19.54 6.71 3.21 6.41 11.38 18.37 33.25 40.25 18.67 18.66 47.25 38.79 84.58 59.79 0 0 .292 0 .292.29 2.92 1.75 9.33 5.25 18.67 10.21a68.55 68.55 0 0 0 6.42 3.21c-.291 0 0 .29.29.29Z"></path></symbol><symbol id="right" viewBox="0 0 3000 3000"><path fill="#FCE370" d="M1024.38 1883.11c-2.62-.29-4.96.59-7 2.92 1.46-.58 3.79-1.75 7-2.92Zm-82.25-187.24c.291.29.88.29 1.17.29-2.33-1.17-4.67-2.33-6.71-3.5 1.17.58 2.04 1.17 2.92 1.46.88.87 1.75 1.16 2.63 1.75ZM1397.13 675.64c-1.75 1.75-3.5 3.21-5.55 4.96.59 0 1.17.29 2.05 0 1.45-1.46 2.62-3.21 3.5-4.96Zm91.29-287.29c-42.88-16.92-92.75-30.62-149.04-41.12-56.29-10.5-129.5-9.63-219.04 2.63-89.83 11.67-171.21 41.71-244.7 89.54-40.54 26.54-76.12 51.92-106.75 76.12-95.37 75.25-146.71 175.29-154 300.41-7.29 125.42 6.42 241.21 41.12 347.67 34.71 107.04 45.79 190.45 32.96 250.82-31.79 134.46 13.13 234.5 134.46 300.12 37.92 20.71 78.46 32.67 121.62 35.88-16.62-34.71-17.79-52.79-3.21-54.25v-.58c-.875-.59-1.75-.88-2.63-1.46-.875-.59-2.04-1.17-2.92-1.46-9.63-5.25-16.04-8.75-19.54-10.5-38.79-21.58-67.96-42.29-87.5-62.12 19.83 19.83 49 40.54 87.5 62.12 3.21 1.75 9.63 5.25 19.54 10.5 2.33 1.17 4.67 2.33 6.71 3.5.29.29.58.29.58.29 13.42 6.13 41.12 18.96 83.13 38.5 47.54 21.87 72.33 45.79 73.79 71.75 1.75 25.96 3.2 41.12 4.08 46.37 11.96-5.25 22.17-10.21 30.92-15.46 37.33-22.75 55.41-69.12 54.25-139.41-26.55-12.83-48.13-25.08-64.46-37.04-16.04-11.67-25.38-21-28-27.71 2.62 7 11.96 16.04 28 27.71 16.33 11.96 37.91 24.21 64.46 37.04 24.79 3.5 45.79 13.42 63.58 29.75 17.5 16.33 30.91 49.58 39.66 100.04 7.88-4.38 14.88-9.33 21.29-14.58 29.75-24.21 44.63-57.75 44.63-100.34 0-65.62-19.25-116.37-57.75-152.83-15.46-14.58-35.29-27.99-59.21-40.54-14.58-7.58-37.04-17.5-67.95-30.33-30.92-12.83-53.38-22.75-67.96-30.33-23.92-12.54-43.75-26.25-59.21-40.83-38.5-36.46-57.75-87.21-57.75-152.83 0-5.84 2.33-26.25 7-60.67 4.67-34.42 7-54.83 7-60.67 0-19.83-4.96-39.08-14.58-57.74-5.25-9.92-15.75-25.96-31.79-47.55-15.17-20.41-25.67-37.33-32.08-50.74-9.63-21-14.58-43.46-14.58-67.37 0-1.46 0-3.21.29-5.25v.292l-4.38-.292c-34.13 14.58-55.71 21-64.75 20.13 9.04 1.17 30.62-5.54 64.75-20.13 1.46-.583 3.21-1.46 4.67-2.04 32.08-14 61.83-33.25 89.83-57.16 2.33-2.04 4.96-4.38 7.29-6.42 27.41-24.79 49-51.62 65.33-80.79 14-24.79 22.75-49.87 26.54-74.67-3.79 24.79-12.83 49.87-26.54 74.67-16.33 29.17-37.92 56.29-65.33 80.79h16.62c31.5-.875 62.42-10.79 92.75-29.75 27.42-16.92 52.5-39.96 75.83-69.12 1.46-2.04 3.21-4.08 4.38-5.83 19.25-25.08 35-52.21 47.25-81.08 4.66-11.38 8.75-22.46 11.96-32.96a48.09 48.09 0 0 1 6.41 18.08c.59 6.13 1.46 12.54 2.34 19.54.87 7 1.16 17.21.87 30.04-.29 13.12-1.46 23.92-2.92 32.96-1.45 9.04-3.79 20.13-6.7 33.83-2.92 13.71-5.25 23.33-6.71 28.58h.29c41.12-9.04 80.5-36.17 119-81.67 8.75-10.21 16.62-20.71 23.91-31.5H1391c1.75-1.75 3.79-3.21 5.54-4.96 23.92-22.46 42.88-48.42 57.46-77.58-14.29 29.17-33.54 55.12-57.46 77.58v5.54c40.84 2.33 81.38-11.67 122.21-42.87 42.58-32.38 67.37-60.08 74.08-83.42 6.71-23.33 1.75-52.5-15.17-87.79-16.33-35.87-46.08-62.12-89.24-79.04Z"></path><path fill="#000" d="M1105.47 1867.66c-2.34 0-4.67-.59-6.71-1.75-3.79-2.05-6.71-5.84-7.58-10.21-.59-3.5-2.04-12.54-4.38-48.13-1.46-19.83-23.91-40.25-65.62-59.5-33.84-15.75-58.63-27.12-73.79-34.12 1.17 5.25 3.79 14.58 11.38 30.33 2.33 4.67 1.75 10.21-1.17 14.59-2.92 4.37-7.88 6.7-13.13 6.41-44.92-3.5-88.08-16.04-127.75-37.62-127.17-68.54-175-175-141.75-316.16 11.96-57.75 1.17-139.42-32.67-242.96-35-107.91-49.29-226.62-41.71-353.2 3.79-64.46 18.96-123.08 45.5-175 26.25-51.62 64.75-97.71 113.75-136.21 30.92-24.5 67.37-50.17 107.91-77 74.67-49 158.96-79.92 250.25-92.17 90.71-12.25 166.25-13.12 224-2.33 57.16 10.5 108.2 24.79 151.95 42 46.37 18.38 79.04 47.25 97.71 85.75 18.37 38.5 23.91 71.46 16.04 98.29-7.88 26.54-33.83 56.29-79.33 91-42 31.79-84.88 47.25-127.46 46.08-6.42 8.75-13.12 17.21-20.12 25.67-40.25 47.83-82.84 77-126.88 86.62-1.16.29-2.4.29-3.2.29-4.67 0-9.05-2.33-11.67-5.83-2.63-3.79-3.5-8.46-2.33-12.83 1.45-4.96 3.79-14 6.41-27.42 2.92-13.42 4.96-24.79 6.71-33.54 1.46-8.17 2.33-18.67 2.63-30.92.29-5.54.29-10.21 0-14.58a392.43 392.43 0 0 1-42.59 70.29c-1.46 2.04-3.21 4.08-4.66 6.13-24.21 30.33-50.75 54.83-79.34 72.62-32.66 20.12-66.2 30.92-100.04 31.79h-11.37c-1.17.88-2.33 2.04-3.21 2.92-26.54 22.75-55.12 41.71-85.45 55.71.29 20.71 4.67 40.83 13.13 59.21 5.83 12.54 16.04 28.88 30.33 48.12 16.63 22.75 27.42 38.8 32.96 49.59 10.79 20.71 16.33 42.29 16.33 64.16 0 4.38-.87 15.46-7.29 62.71-6.12 44.04-7 55.71-7 58.62 0 30.92 4.67 58.63 13.42 82.25 8.75 23.33 22.16 43.46 39.66 60.08 14.3 13.71 33.25 26.55 56 38.5 14 7.29 36.46 17.21 66.79 29.75 30.92 12.84 54.25 23.34 69.13 30.92 25.08 13.12 46.08 27.42 62.41 42.87 41.42 39.09 62.42 94.21 62.42 163.33 0 46.96-16.92 84.29-49.88 111.42-7 5.83-14.87 11.08-23.33 15.75-4.08 2.33-9.04 2.62-13.42.58-4.37-2.04-7.29-5.83-8.16-10.5-10.5-58.33-25.08-82.25-35.58-91.87-11.38-10.5-24.21-18.09-39.09-22.46-2.04 65.62-22.75 110.54-61.25 133.87-9.04 5.54-19.83 11.09-32.66 16.34-1.46 1.45-3.5 1.75-5.25 1.75Zm-154.87-184.04c13.42 6.12 41.42 18.96 82.83 38.2 53.37 24.8 80.2 52.21 82.54 84 .87 10.79 1.46 19.25 2.04 25.38 4.08-2.04 7.58-4.09 10.79-6.13 16.04-9.62 27.71-24.21 35.58-44.62 7.59-19.25 11.38-44.04 11.67-73.21-23.62-11.66-43.17-23.33-58.33-34.41-19.25-14-29.46-24.5-32.96-34.71-2.62-7.59 1.17-16.04 8.75-18.67 7.58-2.91 16.04 1.17 18.67 8.75 0 .29 2.62 6.42 22.75 21 15.16 11.08 35.58 22.75 60.37 34.71 26.54 4.08 49.87 15.46 69.12 33.25 17.21 16.04 30.63 44.62 39.96 86.62.58-.58 1.17-1.17 2.04-1.46 26.54-21.58 39.38-50.75 39.38-88.95 0-30.92-4.67-58.63-13.42-82.25-8.75-23.33-22.17-43.46-39.67-60.08-14.29-13.42-33.24-26.25-55.99-38.21-14-7.29-36.46-17.21-66.79-29.75-30.92-12.83-54.25-23.33-69.13-30.92-25.08-13.12-46.08-27.7-62.41-43.16-41.42-39.09-62.42-93.92-62.42-163.33 0-4.38.88-15.46 7.29-62.71 6.13-44.04 7-55.71 7-58.92 0-17.2-4.38-34.41-12.83-50.74-4.67-9.34-15.17-24.8-30.63-45.8-16.62-21-27.71-38.49-34.42-53.08-8.75-18.67-13.71-38.5-15.46-59.21-36.46 14.58-49.29 15.75-56.87 14.58-7.87-1.17-13.71-8.46-12.54-16.33 1.17-7.88 8.46-13.71 16.33-12.54 1.75.29 12.54 0 57.46-18.96 1.46-.584 2.63-1.17 4.08-1.75.29 0 .291-.292.58-.292 30.33-13.42 59.5-31.79 86.04-54.83l7-6.13c25.96-23.63 46.96-49.58 62.42-77.29 13.12-23.33 21.29-46.67 25.08-69.71 1.17-7.88 8.75-13.42 16.62-12.25 7.88 1.17 13.42 8.75 12.25 16.62-4.08 26.54-13.7 53.37-28.29 79.62-11.08 20.13-24.79 39.08-40.83 57.17 21.58-3.79 43.46-12.25 64.75-25.38 25.67-16.04 49.87-38.21 72.04-65.92 1.46-2.04 2.92-3.79 4.37-5.83 18.38-24.21 33.55-50.46 45.21-78.17 4.67-10.79 8.46-21.29 11.38-31.5 1.75-5.54 6.41-9.63 12.25-10.21 5.83-.584 11.37 2.04 14.29 7 4.37 7.58 7.29 15.46 8.16 23.62v.292c.59 5.83 1.46 12.25 2.34 19.25 1.16 7.88 1.46 18.67.87 32.38-.29 13.71-1.46 25.37-2.91 35-1.46 9.04-3.8 20.71-6.71 34.42-.29 1.46-.59 2.63-.88 3.79 29.75-12.25 58.92-35.58 87.5-69.42 6.71-7.87 12.83-16.04 18.96-24.21.58-3.21 2.04-6.42 4.67-8.75 1.75-1.46 3.5-2.92 4.95-4.67l.3-.292c22.45-21 40.54-45.79 53.95-73.21a239.69 239.69 0 0 0 21.29-65.62c1.17-7.88 8.75-13.42 16.63-11.96 7.87 1.17 13.42 8.75 11.96 16.62-4.09 25.08-11.96 49.87-23.63 73.79-10.79 21.87-24.21 42.29-39.95 60.66 27.41-4.38 55.41-17.21 83.12-38.21 49.58-37.62 65.04-62.12 68.83-75.83 5.83-19.54.88-45.79-14.58-77.58-15.46-32.08-42.29-55.42-81.96-71.46-41.71-16.63-91-30.33-146.41-40.54-54.54-10.21-126.88-9.33-214.67 2.63-87.49 11.67-167.41 41.42-238.57 87.79-39.96 26.25-75.54 51.62-105.87 75.25-45.79 36.17-81.37 78.75-106.17 126.87-24.5 48.12-38.79 102.96-42.29 163.33-7.29 122.79 6.42 238 40.54 342.41 17.5 53.96 29.17 102.67 35 145.25 5.54 43.17 5.25 81.08-1.46 112.87v.29c-15.17 63.88-11.96 119.88 9.04 166.54 21 46.67 60.66 86.33 118.41 117.25 28.87 15.75 59.5 26.25 91.58 31.5-4.96-14.29-6.13-25.08-3.5-33.54-3.79-2.04-6.71-3.79-8.75-4.96-39.67-22.17-70.29-44.04-90.71-64.46-20.12-20.12-32.67-35.87-38.79-47.83-3.5-7.29-.583-16.04 6.71-19.54 7.29-3.5 16.04-.58 19.54 6.71 3.21 6.41 11.38 18.37 33.25 40.25 18.67 18.66 47.25 38.79 84.58 59.79 0 0 .292 0 .292.29 2.92 1.75 9.33 5.25 18.67 10.21a68.55 68.55 0 0 0 6.42 3.21c-.291 0 0 .29.29.29Z"></path></symbol></svg>