<svg width="3009" height="3009" viewBox="0 0 3009 3009" fill="none" xmlns="http://www.w3.org/2000/svg"><path d="M1272.55 546.01C1361.74 503.49 1405.89 399.78 1339.99 300.4C1323.96 280.61 1264.54 270.79 1280.15 286.63C1346.02 353.46 1304.29 508.75 1214.76 527.28C1186.88 533.05 1251.47 556.06 1272.55 546.01Z" fill="#D28B59" stroke="black" stroke-width="30" stroke-linejoin="round"/><path d="M950.02 732.28C868.59 788.26 756.71 774.64 703.59 667.88C694.46 644.11 715.67 587.73 721.59 609.18C746.53 699.63 901.88 741.14 962.69 672.87C981.63 651.61 969.26 719.06 950.02 732.28Z" fill="#D28B59" stroke="black" stroke-width="30" stroke-linejoin="round"/><path d="M1616.23 425.2C1290.79 397.6 869.36 596.61 697.77 953.56C669.82 1029.09 766.47 1145.66 782.86 1080.89C851.98 807.76 1430.71 472.31 1681.28 562.18C1759.3 590.17 1693.12 431.73 1616.23 425.2Z" fill="#D28B59" stroke="black" stroke-width="30" stroke-linejoin="round"/></svg>