<svg width="3009" height="3009" viewBox="0 0 3009 3009" fill="none" xmlns="http://www.w3.org/2000/svg"><path d="M852.87 887.18C771.44 943.16 659.56 929.53 606.44 822.77C597.31 799 618.52 742.62 624.44 764.08C649.38 854.53 804.73 896.04 865.54 827.76C884.48 806.51 872.11 873.95 852.87 887.18Z" fill="#D28B59" stroke="black" stroke-width="30" stroke-linejoin="round"/><path d="M1494.71 516.62C1583.91 474.09 1628.05 370.38 1562.15 271C1546.13 251.21 1486.7 241.39 1502.32 257.24C1568.18 324.07 1526.46 479.36 1436.92 497.89C1409.05 503.66 1473.64 526.67 1494.71 516.62Z" fill="#D28B59" stroke="black" stroke-width="30" stroke-linejoin="round"/><path d="M1238.78 634.58C1327.97 592.05 1372.11 488.35 1306.21 388.96C1290.19 369.17 1230.76 359.35 1246.38 375.2C1312.24 442.03 1270.52 597.32 1180.99 615.85C1153.11 621.62 1217.7 644.63 1238.78 634.58Z" fill="#D28B59" stroke="black" stroke-width="30" stroke-linejoin="round"/><path d="M1083.02 724.56C1001.6 780.54 889.71 766.91 836.59 660.15C827.47 636.38 848.68 580.01 854.59 601.46C879.53 691.91 1034.88 733.42 1095.7 665.15C1114.63 643.89 1102.26 711.33 1083.02 724.56Z" fill="#D28B59" stroke="black" stroke-width="30" stroke-linejoin="round"/><path d="M1619.98 417.06C1294.54 389.45 873.11 588.47 701.52 945.42C673.58 1020.95 770.22 1137.51 786.61 1072.74C855.73 799.62 1434.46 464.17 1685.03 554.04C1763.05 582.02 1696.87 423.58 1619.98 417.06Z" fill="#D28B59" stroke="black" stroke-width="30" stroke-linejoin="round"/></svg>