<svg xmlns="http://www.w3.org/2000/svg"><symbol id="default" viewBox="0 0 3000 3000"><path fill="#817b7b" d="M1940.49 2000.25c-67.8.58-134.16 2.33-201.25 5.83 19.54 38.79 25.96 79.33 19.25 121.62 64.46-16.63 128.62-35 192.79-54.54 3.21-23.92-.292-48.13-10.79-72.92z"></path><path fill="#363636" d="M2106.74 1894.38c-4.67 0-9.33-.292-14.29-.292-102.37 15.75-153.12 51.04-151.96 106.17 10.5 24.79 14 49 11.08 72.62 76.12 46.08 144.37 62.42 204.75 49.29-7.29-2.92-13.71-6.13-19.25-10.21-17.5-11.67-27.71-28.58-31.21-50.46-1.75-10.79-.292-21.29 4.08-32.08 2.33-6.13 7.58-15.17 15.46-27.42 7.58-11.67 12.83-21.29 15.17-28.58 4.38-11.67 5.54-23.33 3.5-35.58-2.04-13.12-12.25-26.25-31.21-39.67-1.75-1.17-3.79-2.62-6.13-3.79z"></path><path fill="#f6c799" d="M1739.25 2006.08c-17.79.88-35.58 1.75-53.08 2.92-331.62 20.42-660.61 77.87-987.57 172.37-22.17 6.42-39.96 16.33-53.96 30.04-4.38 8.46-4.38 17.21 0 25.67 1.46 2.63 3.21 5.54 5.54 8.17 18.67 14.88 49.58 21.88 92.75 21.29 317.62-4.38 638.74-46.37 962.77-126 17.5-4.38 35-8.75 52.5-13.42 7-41.71.58-82.25-18.96-121.04z"></path><path fill="#62c9e2" d="M2106.74 1894.38c2.33 1.17 4.38 2.63 6.42 4.08 18.96 13.42 29.17 26.54 31.21 39.67 1.75 12.25.58 23.92-3.5 35.58-2.63 7.29-7.58 16.92-15.17 28.58-7.88 12.25-13.13 21.58-15.46 27.42-4.38 10.79-5.83 21.29-4.08 32.08 3.21 21.88 13.71 38.79 31.21 50.46 5.54 3.79 11.96 7.29 19.25 10.21 99.46-21.58 177.33-123.08 233.91-304.49-71.75 51.62-166.25 77-283.79 76.42z"></path><path d="M738.85 2281.41c-44.92 0-76.71-8.17-97.71-24.5l-1.75-1.75c-3.21-3.5-5.83-7.29-7.88-11.37-6.71-12.83-6.71-26.25 0-39.8.58-1.46 1.75-2.63 2.63-3.5 15.46-15.46 35.88-26.83 60.08-33.54 163.33-47.25 329.58-85.75 493.78-114.62 164.5-28.87 331.62-48.41 496.99-58.62 17.79-1.17 35.58-2.04 53.37-2.92 62.42-3.21 125.41-4.96 188.12-5.83 3.5-25.96 17.79-47.83 42.58-65.33 27.42-19.25 67.08-32.38 121.04-40.83.87 0 1.75-.292 2.62-.292 4.96 0 9.63.29 14.29.29 57.16.29 109.37-5.83 154.87-18.08 45.21-12.25 85.75-30.92 119.87-55.71 4.96-3.79 11.96-3.79 16.92 0 4.96 3.79 7.29 10.21 5.54 16.04-28.58 91.87-63.29 164.79-103.25 216.7-41.12 53.37-88.67 86.04-141.46 97.71-14.29 3.21-28.88 4.67-44.04 4.67-51.04 0-106.46-17.5-165.96-52.5-62.12 18.96-125.12 36.75-187.25 53.08-17.21 4.38-35 9.04-52.79 13.42-161.87 39.67-325.2 70.58-485.32 91.58-160.41 21-321.99 32.67-480.66 35h-4.67zm-78.46-46.67c16.04 11.96 44.04 18.08 82.54 17.5 157.5-2.04 318.2-13.71 477.16-34.71 159.25-20.71 321.41-51.33 482.12-91 14.29-3.5 28.88-7.29 42.87-10.79 3.5-32.67-1.46-64.46-15.17-94.79-14.58.88-28.88 1.46-43.46 2.33-163.91 10.21-330.16 30.04-493.2 58.62-163.33 28.29-328.41 66.79-490.87 113.75-18.67 5.25-34.12 13.71-46.08 24.79-1.46 3.5-1.17 6.71.88 10.21v.29c.875 1.17 2.04 2.33 3.21 3.79zM1966.74 2065c69.42 40.25 132.12 54.83 186.37 43.16 46.08-9.92 88.08-39.37 124.54-86.92 32.08-41.71 60.96-98.58 85.75-169.16-28.58 16.04-60.08 28.58-93.92 37.62-48.42 13.13-102.96 19.54-162.75 18.96h-.292c-4.38 0-8.46-.291-13.12-.291-48.12 7.58-84.29 19.54-107.62 35.58-20.42 14.29-30.63 31.5-30.92 53.08 9.33 23.04 13.42 45.79 11.96 67.96zm-205.62-45.5c11.08 28.58 15.75 58.33 14 88.67 53.96-14.29 108.5-29.75 162.46-46.37.58-15.17-1.75-30.92-7.29-46.96-56.58-112.87 2.04-169.16 4.67z"></path></symbol><symbol id="body" viewBox="0 0 3000 3000"><path fill="#817b7b" d="M1940.49 2000.25c-67.8.58-134.16 2.33-201.25 5.83 19.54 38.79 25.96 79.33 19.25 121.62 64.46-16.63 128.62-35 192.79-54.54 3.21-23.92-.292-48.13-10.79-72.92z"></path><path fill="#363636" d="M2106.74 1894.38c-4.67 0-9.33-.292-14.29-.292-102.37 15.75-153.12 51.04-151.96 106.17 10.5 24.79 14 49 11.08 72.62 76.12 46.08 144.37 62.42 204.75 49.29-7.29-2.92-13.71-6.13-19.25-10.21-17.5-11.67-27.71-28.58-31.21-50.46-1.75-10.79-.292-21.29 4.08-32.08 2.33-6.13 7.58-15.17 15.46-27.42 7.58-11.67 12.83-21.29 15.17-28.58 4.38-11.67 5.54-23.33 3.5-35.58-2.04-13.12-12.25-26.25-31.21-39.67-1.75-1.17-3.79-2.62-6.13-3.79z"></path><path fill="#f6c799" d="M1739.25 2006.08c-17.79.88-35.58 1.75-53.08 2.92-331.62 20.42-660.61 77.87-987.57 172.37-22.17 6.42-39.96 16.33-53.96 30.04-4.38 8.46-4.38 17.21 0 25.67 1.46 2.63 3.21 5.54 5.54 8.17 18.67 14.88 49.58 21.88 92.75 21.29 317.62-4.38 638.74-46.37 962.77-126 17.5-4.38 35-8.75 52.5-13.42 7-41.71.58-82.25-18.96-121.04z"></path><path fill="#62c9e2" d="M2106.74 1894.38c2.33 1.17 4.38 2.63 6.42 4.08 18.96 13.42 29.17 26.54 31.21 39.67 1.75 12.25.58 23.92-3.5 35.58-2.63 7.29-7.58 16.92-15.17 28.58-7.88 12.25-13.13 21.58-15.46 27.42-4.38 10.79-5.83 21.29-4.08 32.08 3.21 21.88 13.71 38.79 31.21 50.46 5.54 3.79 11.96 7.29 19.25 10.21 99.46-21.58 177.33-123.08 233.91-304.49-71.75 51.62-166.25 77-283.79 76.42z"></path><path d="M738.85 2281.41c-44.92 0-76.71-8.17-97.71-24.5l-1.75-1.75c-3.21-3.5-5.83-7.29-7.88-11.37-6.71-12.83-6.71-26.25 0-39.8.58-1.46 1.75-2.63 2.63-3.5 15.46-15.46 35.88-26.83 60.08-33.54 163.33-47.25 329.58-85.75 493.78-114.62 164.5-28.87 331.62-48.41 496.99-58.62 17.79-1.17 35.58-2.04 53.37-2.92 62.42-3.21 125.41-4.96 188.12-5.83 3.5-25.96 17.79-47.83 42.58-65.33 27.42-19.25 67.08-32.38 121.04-40.83.87 0 1.75-.292 2.62-.292 4.96 0 9.63.29 14.29.29 57.16.29 109.37-5.83 154.87-18.08 45.21-12.25 85.75-30.92 119.87-55.71 4.96-3.79 11.96-3.79 16.92 0 4.96 3.79 7.29 10.21 5.54 16.04-28.58 91.87-63.29 164.79-103.25 216.7-41.12 53.37-88.67 86.04-141.46 97.71-14.29 3.21-28.88 4.67-44.04 4.67-51.04 0-106.46-17.5-165.96-52.5-62.12 18.96-125.12 36.75-187.25 53.08-17.21 4.38-35 9.04-52.79 13.42-161.87 39.67-325.2 70.58-485.32 91.58-160.41 21-321.99 32.67-480.66 35h-4.67zm-78.46-46.67c16.04 11.96 44.04 18.08 82.54 17.5 157.5-2.04 318.2-13.71 477.16-34.71 159.25-20.71 321.41-51.33 482.12-91 14.29-3.5 28.88-7.29 42.87-10.79 3.5-32.67-1.46-64.46-15.17-94.79-14.58.88-28.88 1.46-43.46 2.33-163.91 10.21-330.16 30.04-493.2 58.62-163.33 28.29-328.41 66.79-490.87 113.75-18.67 5.25-34.12 13.71-46.08 24.79-1.46 3.5-1.17 6.71.88 10.21v.29c.875 1.17 2.04 2.33 3.21 3.79zM1966.74 2065c69.42 40.25 132.12 54.83 186.37 43.16 46.08-9.92 88.08-39.37 124.54-86.92 32.08-41.71 60.96-98.58 85.75-169.16-28.58 16.04-60.08 28.58-93.92 37.62-48.42 13.13-102.96 19.54-162.75 18.96h-.292c-4.38 0-8.46-.291-13.12-.291-48.12 7.58-84.29 19.54-107.62 35.58-20.42 14.29-30.63 31.5-30.92 53.08 9.33 23.04 13.42 45.79 11.96 67.96zm-205.62-45.5c11.08 28.58 15.75 58.33 14 88.67 53.96-14.29 108.5-29.75 162.46-46.37.58-15.17-1.75-30.92-7.29-46.96-56.58-112.87 2.04-169.16 4.67z"></path></symbol><symbol id="left" viewBox="0 0 3000 3000"><path fill="#817b7b" d="M1940.49 2000.25c-67.8.58-134.16 2.33-201.25 5.83 19.54 38.79 25.96 79.33 19.25 121.62 64.46-16.63 128.62-35 192.79-54.54 3.21-23.92-.292-48.13-10.79-72.92z"></path><path fill="#363636" d="M2106.74 1894.38c-4.67 0-9.33-.292-14.29-.292-102.37 15.75-153.12 51.04-151.96 106.17 10.5 24.79 14 49 11.08 72.62 76.12 46.08 144.37 62.42 204.75 49.29-7.29-2.92-13.71-6.13-19.25-10.21-17.5-11.67-27.71-28.58-31.21-50.46-1.75-10.79-.292-21.29 4.08-32.08 2.33-6.13 7.58-15.17 15.46-27.42 7.58-11.67 12.83-21.29 15.17-28.58 4.38-11.67 5.54-23.33 3.5-35.58-2.04-13.12-12.25-26.25-31.21-39.67-1.75-1.17-3.79-2.62-6.13-3.79z"></path><path fill="#f6c799" d="M1739.25 2006.08c-17.79.88-35.58 1.75-53.08 2.92-331.62 20.42-660.61 77.87-987.57 172.37-22.17 6.42-39.96 16.33-53.96 30.04-4.38 8.46-4.38 17.21 0 25.67 1.46 2.63 3.21 5.54 5.54 8.17 18.67 14.88 49.58 21.88 92.75 21.29 317.62-4.38 638.74-46.37 962.77-126 17.5-4.38 35-8.75 52.5-13.42 7-41.71.58-82.25-18.96-121.04z"></path><path fill="#62c9e2" d="M2106.74 1894.38c2.33 1.17 4.38 2.63 6.42 4.08 18.96 13.42 29.17 26.54 31.21 39.67 1.75 12.25.58 23.92-3.5 35.58-2.63 7.29-7.58 16.92-15.17 28.58-7.88 12.25-13.13 21.58-15.46 27.42-4.38 10.79-5.83 21.29-4.08 32.08 3.21 21.88 13.71 38.79 31.21 50.46 5.54 3.79 11.96 7.29 19.25 10.21 99.46-21.58 177.33-123.08 233.91-304.49-71.75 51.62-166.25 77-283.79 76.42z"></path><path d="M738.85 2281.41c-44.92 0-76.71-8.17-97.71-24.5l-1.75-1.75c-3.21-3.5-5.83-7.29-7.88-11.37-6.71-12.83-6.71-26.25 0-39.8.58-1.46 1.75-2.63 2.63-3.5 15.46-15.46 35.88-26.83 60.08-33.54 163.33-47.25 329.58-85.75 493.78-114.62 164.5-28.87 331.62-48.41 496.99-58.62 17.79-1.17 35.58-2.04 53.37-2.92 62.42-3.21 125.41-4.96 188.12-5.83 3.5-25.96 17.79-47.83 42.58-65.33 27.42-19.25 67.08-32.38 121.04-40.83.87 0 1.75-.292 2.62-.292 4.96 0 9.63.29 14.29.29 57.16.29 109.37-5.83 154.87-18.08 45.21-12.25 85.75-30.92 119.87-55.71 4.96-3.79 11.96-3.79 16.92 0 4.96 3.79 7.29 10.21 5.54 16.04-28.58 91.87-63.29 164.79-103.25 216.7-41.12 53.37-88.67 86.04-141.46 97.71-14.29 3.21-28.88 4.67-44.04 4.67-51.04 0-106.46-17.5-165.96-52.5-62.12 18.96-125.12 36.75-187.25 53.08-17.21 4.38-35 9.04-52.79 13.42-161.87 39.67-325.2 70.58-485.32 91.58-160.41 21-321.99 32.67-480.66 35h-4.67zm-78.46-46.67c16.04 11.96 44.04 18.08 82.54 17.5 157.5-2.04 318.2-13.71 477.16-34.71 159.25-20.71 321.41-51.33 482.12-91 14.29-3.5 28.88-7.29 42.87-10.79 3.5-32.67-1.46-64.46-15.17-94.79-14.58.88-28.88 1.46-43.46 2.33-163.91 10.21-330.16 30.04-493.2 58.62-163.33 28.29-328.41 66.79-490.87 113.75-18.67 5.25-34.12 13.71-46.08 24.79-1.46 3.5-1.17 6.71.88 10.21v.29c.875 1.17 2.04 2.33 3.21 3.79zM1966.74 2065c69.42 40.25 132.12 54.83 186.37 43.16 46.08-9.92 88.08-39.37 124.54-86.92 32.08-41.71 60.96-98.58 85.75-169.16-28.58 16.04-60.08 28.58-93.92 37.62-48.42 13.13-102.96 19.54-162.75 18.96h-.292c-4.38 0-8.46-.291-13.12-.291-48.12 7.58-84.29 19.54-107.62 35.58-20.42 14.29-30.63 31.5-30.92 53.08 9.33 23.04 13.42 45.79 11.96 67.96zm-205.62-45.5c11.08 28.58 15.75 58.33 14 88.67 53.96-14.29 108.5-29.75 162.46-46.37.58-15.17-1.75-30.92-7.29-46.96-56.58-112.87 2.04-169.16 4.67z"></path></symbol><symbol id="right" viewBox="0 0 3000 3000"><path fill="#817b7b" d="M1940.49 2000.25c-67.8.58-134.16 2.33-201.25 5.83 19.54 38.79 25.96 79.33 19.25 121.62 64.46-16.63 128.62-35 192.79-54.54 3.21-23.92-.292-48.13-10.79-72.92z"></path><path fill="#363636" d="M2106.74 1894.38c-4.67 0-9.33-.292-14.29-.292-102.37 15.75-153.12 51.04-151.96 106.17 10.5 24.79 14 49 11.08 72.62 76.12 46.08 144.37 62.42 204.75 49.29-7.29-2.92-13.71-6.13-19.25-10.21-17.5-11.67-27.71-28.58-31.21-50.46-1.75-10.79-.292-21.29 4.08-32.08 2.33-6.13 7.58-15.17 15.46-27.42 7.58-11.67 12.83-21.29 15.17-28.58 4.38-11.67 5.54-23.33 3.5-35.58-2.04-13.12-12.25-26.25-31.21-39.67-1.75-1.17-3.79-2.62-6.13-3.79z"></path><path fill="#f6c799" d="M1739.25 2006.08c-17.79.88-35.58 1.75-53.08 2.92-331.62 20.42-660.61 77.87-987.57 172.37-22.17 6.42-39.96 16.33-53.96 30.04-4.38 8.46-4.38 17.21 0 25.67 1.46 2.63 3.21 5.54 5.54 8.17 18.67 14.88 49.58 21.88 92.75 21.29 317.62-4.38 638.74-46.37 962.77-126 17.5-4.38 35-8.75 52.5-13.42 7-41.71.58-82.25-18.96-121.04z"></path><path fill="#62c9e2" d="M2106.74 1894.38c2.33 1.17 4.38 2.63 6.42 4.08 18.96 13.42 29.17 26.54 31.21 39.67 1.75 12.25.58 23.92-3.5 35.58-2.63 7.29-7.58 16.92-15.17 28.58-7.88 12.25-13.13 21.58-15.46 27.42-4.38 10.79-5.83 21.29-4.08 32.08 3.21 21.88 13.71 38.79 31.21 50.46 5.54 3.79 11.96 7.29 19.25 10.21 99.46-21.58 177.33-123.08 233.91-304.49-71.75 51.62-166.25 77-283.79 76.42z"></path><path d="M738.85 2281.41c-44.92 0-76.71-8.17-97.71-24.5l-1.75-1.75c-3.21-3.5-5.83-7.29-7.88-11.37-6.71-12.83-6.71-26.25 0-39.8.58-1.46 1.75-2.63 2.63-3.5 15.46-15.46 35.88-26.83 60.08-33.54 163.33-47.25 329.58-85.75 493.78-114.62 164.5-28.87 331.62-48.41 496.99-58.62 17.79-1.17 35.58-2.04 53.37-2.92 62.42-3.21 125.41-4.96 188.12-5.83 3.5-25.96 17.79-47.83 42.58-65.33 27.42-19.25 67.08-32.38 121.04-40.83.87 0 1.75-.292 2.62-.292 4.96 0 9.63.29 14.29.29 57.16.29 109.37-5.83 154.87-18.08 45.21-12.25 85.75-30.92 119.87-55.71 4.96-3.79 11.96-3.79 16.92 0 4.96 3.79 7.29 10.21 5.54 16.04-28.58 91.87-63.29 164.79-103.25 216.7-41.12 53.37-88.67 86.04-141.46 97.71-14.29 3.21-28.88 4.67-44.04 4.67-51.04 0-106.46-17.5-165.96-52.5-62.12 18.96-125.12 36.75-187.25 53.08-17.21 4.38-35 9.04-52.79 13.42-161.87 39.67-325.2 70.58-485.32 91.58-160.41 21-321.99 32.67-480.66 35h-4.67zm-78.46-46.67c16.04 11.96 44.04 18.08 82.54 17.5 157.5-2.04 318.2-13.71 477.16-34.71 159.25-20.71 321.41-51.33 482.12-91 14.29-3.5 28.88-7.29 42.87-10.79 3.5-32.67-1.46-64.46-15.17-94.79-14.58.88-28.88 1.46-43.46 2.33-163.91 10.21-330.16 30.04-493.2 58.62-163.33 28.29-328.41 66.79-490.87 113.75-18.67 5.25-34.12 13.71-46.08 24.79-1.46 3.5-1.17 6.71.88 10.21v.29c.875 1.17 2.04 2.33 3.21 3.79zM1966.74 2065c69.42 40.25 132.12 54.83 186.37 43.16 46.08-9.92 88.08-39.37 124.54-86.92 32.08-41.71 60.96-98.58 85.75-169.16-28.58 16.04-60.08 28.58-93.92 37.62-48.42 13.13-102.96 19.54-162.75 18.96h-.292c-4.38 0-8.46-.291-13.12-.291-48.12 7.58-84.29 19.54-107.62 35.58-20.42 14.29-30.63 31.5-30.92 53.08 9.33 23.04 13.42 45.79 11.96 67.96zm-205.62-45.5c11.08 28.58 15.75 58.33 14 88.67 53.96-14.29 108.5-29.75 162.46-46.37.58-15.17-1.75-30.92-7.29-46.96-56.58-112.87 2.04-169.16 4.67z"></path></symbol></svg>