<svg version="1.1" id="jacket_x5F_cardigan" xmlns="http://www.w3.org/2000/svg" xmlns:xlink="http://www.w3.org/1999/xlink" x="0px" y="0px" viewBox="0 0 3000 3000" xml:space="preserve"><g id="jacket_x5F_cardigan_x5F_frontarm" transform="matrix(2.9166107177734375, 0, 0, 2.9166107177734375, 1002.9,1719.3)"><g transform="matrix(1, 0, 0, 1, 0, 0)"><g><g id="OUTFIT_ARM_1_Layer0_0_FILL_00000092456385872137124460000013925224856313273485_"><path fill="#6b956c" d="M81.3,62.3c4.7-11,12-22.7,21.8-35.1L49.7,0c-16,10.8-27.4,25.3-34.1,43.4c-1,2.8-2,5.6-3,8.4 c-2.9,8.8-5.2,17.6-6.9,26.6c-0.9,4.6-1.7,9.3-2.2,14c-0.7,5.4-1.3,10.8-1.9,16.1c22.8-2.2,45.5,0.3,68,7.7 c0.8-9,2.1-18.1,4-27.2c1.1-5,2.3-10.1,3.7-15.1C78.3,70.3,79.6,66.4,81.3,62.3z"></path></g></g><g><path d="M69.6,121.4c-0.5,0-1-0.1-1.6-0.2c-21.8-7.1-44-9.6-66-7.5c-1.5,0.1-3-0.4-4-1.5c-1.1-1.1-1.6-2.6-1.4-4.1 c0.6-5.4,1.2-10.8,1.9-16.2c0.6-4.8,1.4-9.6,2.3-14.3c1.8-9.2,4.2-18.3,7.1-27.3c1-2.9,2-5.8,3-8.6c7.1-19,19.2-34.5,36-45.8 c2.3-1.5,5.4-0.9,6.9,1.3c1.5,2.3,0.9,5.4-1.3,6.9c-15,10.2-25.9,24-32.3,41.1c-1,2.7-2,5.5-2.9,8.3c-2.8,8.5-5.1,17.3-6.8,26 C9.7,84,9,88.6,8.4,93.2c-0.4,3.3-0.8,6.7-1.2,10.1c19.4-1.2,38.8,1,58,6.6c0.8-7.2,2-14.4,3.5-21.6c1.1-5.1,2.3-10.3,3.7-15.4 c1.1-4,2.6-8.2,4.4-12.4c4.8-11.3,12.4-23.5,22.4-36.3c1.7-2.2,4.9-2.5,7-0.8c2.2,1.7,2.5,4.9,0.8,7c-9.5,12.1-16.6,23.5-21.1,34 c-1.6,3.8-2.9,7.5-3.9,11c-1.3,4.9-2.5,9.9-3.6,14.9c-1.8,8.9-3.2,17.9-3.9,26.6c-0.1,1.5-1,2.9-2.2,3.7 C71.5,121.1,70.6,121.4,69.6,121.4z"></path></g></g></g></svg>