<svg xmlns="http://www.w3.org/2000/svg"><symbol id="rightLeg" viewBox="0 0 3000 3000"><g id="casual-shoes-rightLeg-shoes_x5F_casual_x5F_backleg" transform="matrix(2.92, 0, 0, 2.92, 1463.45,1961.9)"><g transform="matrix(1, 0, 0, 1, 0, 0)"><g><g id="casual-shoes-rightLeg-Shoe_2_Layer0_0_FILL"><path fill="#d9bb96" d="M6,171.4c-1.5,7.7-3.1,15.6-5,23.7c-.7,2.6-1,5.3-1,8.1c0,2.8,.4,5.5,1.1,8.1c38,8.2,76.3,8.3,114.8,.3 c0-.1,.1-.1,.1-.2c.8-2.6,1.1-5.3,1.1-8.2c0-8.8-3.7-16.4-11-22.6c-5.8-4.8-12.5-7.8-20.1-8.9c-.2,0-.4-.1-.7-.1 c-1.4-.2-2.9-.3-4.4-.3C54.5,177.9,29.5,177.9,6,171.4z"></path><path fill="#858585" d="M106.1,225.5c4.9-4,8.2-8.7,9.8-14c-38.6,8-76.9,7.9-114.8-.3c1.6,5.4,4.9,10.2,9.9,14.3 c7.3,6.3,16.2,9.4,26.6,9.4h43.2c1.8,0,3.5-.2,5.2-.4c5.4-.7,10.3-2.4,14.7-5.1C102.6,228.4,104.4,227.1,106.1,225.5z"></path></g></g><g><path d="M80.8,240H37.6C26,240,16,236.4,7.8,229.4c-5.7-4.7-9.6-10.3-11.4-16.7c0,0,0,0,0,0c-.9-3-1.3-6.2-1.3-9.5 c0-3.2,.4-6.3,1.2-9.3c1.8-7.9,3.5-15.8,4.9-23.4c.3-1.4,1.1-2.6,2.3-3.3c1.2-.7,2.6-.9,4-.6c22.5,6.2,46.9,6.2,72.4-.1 c.4-.1,.9-.2,1.3-.1c1.7,0,3.3,.2,4.9,.4c.3,0,.5,.1,.8,.1c8.5,1.2,16.1,4.5,22.6,10c0,0,0,0,0,0 c8.5,7.2,12.8,16.1,12.8,26.4c0,3.3-.5,6.6-1.4,9.6c0,.1-.1,.3-.1,.4c-1.9,6.1-5.7,11.6-11.3,16.2c-1.9,1.7-4,3.2-6.1,4.4 c-5,3.1-10.6,5-16.6,5.8C84.9,239.8,82.9,240,80.8,240C80.9,240,80.9,240,80.8,240z M10.6,218.2c1,1.2,2.2,2.4,3.6,3.5 c0,0,0,0,.1,.1c6.5,5.5,14.1,8.2,23.3,8.2h43.2c1.6,0,3.1-.1,4.6-.4c0,0,.1,0,.1,0c4.7-.6,8.9-2,12.7-4.4 c0,0,.1-.1,.1-.1c1.6-.9,3.1-2,4.6-3.3c.1-.1,.1-.1,.2-.1c1.3-1,2.4-2.1,3.4-3.2C74.3,223.9,42.2,223.8,10.6,218.2z M5.3,207c35.1,7.1,70.9,7.2,106.6,.3c.2-1.3,.3-2.7,.3-4.1c0-7.4-3-13.5-9.3-18.8c-5.1-4.3-10.9-6.8-17.6-7.7 c-.1,0-.3,0-.4-.1c-.1,0-.1,0-.2,0c-1-.1-2.1-.2-3.2-.3c-25,6-49.1,6.4-71.6,1.2c-1.2,6.1-2.6,12.4-4,18.7 c0,.1,0,.1,0,.2c-.6,2.2-.9,4.5-.9,6.8C5,204.5,5.1,205.8,5.3,207z"></path></g></g></g></symbol><symbol id="leftLeg" viewBox="0 0 3000 3000"><g id="casual-shoes-leftLeg-shoes_x5F_casual_x5F_frontleg" transform="matrix(2.92, 0, 0, 2.92, 1042.6,1961.9)"><g transform="matrix(1, 0, 0, 1, 0, 0)"><g><g id="casual-shoes-leftLeg-Shoe_2_Layer0_0_FILL_00000171717253566949813250000002917763608881297799_"><path fill="#d9bb96" d="M6,171.4c-1.5,7.7-3.1,15.6-5,23.7c-.7,2.6-1,5.3-1,8.1c0,2.8,.4,5.5,1.1,8.1c38,8.2,76.3,8.3,114.8,.3 c0-.1,.1-.1,.1-.2c.8-2.6,1.1-5.3,1.1-8.2c0-8.8-3.7-16.4-11-22.6c-5.8-4.8-12.5-7.8-20.1-8.9c-.2,0-.4-.1-.7-.1 c-1.4-.2-2.9-.3-4.4-.3C54.5,177.9,29.5,177.9,6,171.4z"></path><path fill="#858585" d="M106.1,225.5c4.9-4,8.2-8.7,9.8-14c-38.6,8-76.9,7.9-114.8-.3c1.6,5.4,4.9,10.2,9.9,14.3 c7.3,6.3,16.2,9.4,26.6,9.4h43.2c1.8,0,3.5-.2,5.2-.4c5.4-.7,10.3-2.4,14.7-5.1C102.6,228.4,104.4,227.1,106.1,225.5z"></path></g></g><g><path d="M80.8,240H37.6C26,240,16,236.4,7.8,229.4c-5.7-4.7-9.6-10.3-11.4-16.7c0,0,0,0,0,0c-.9-3-1.3-6.2-1.3-9.5 c0-3.2,.4-6.3,1.2-9.3c1.8-7.9,3.5-15.8,4.9-23.4c.3-1.4,1.1-2.6,2.3-3.3c1.2-.7,2.6-.9,4-.6c22.5,6.2,46.9,6.2,72.4-.1 c.4-.1,.9-.1,1.3-.1c1.7,0,3.3,.2,4.9,.4c.3,0,.5,.1,.8,.1c8.5,1.2,16.1,4.5,22.6,10c0,0,0,0,0,0 c8.5,7.2,12.8,16.1,12.8,26.4c0,3.3-.5,6.6-1.4,9.6c0,.1-.1,.3-.1,.4c-1.9,6.1-5.7,11.6-11.3,16.2c-1.9,1.7-4,3.2-6.1,4.4 c-5,3.1-10.6,5-16.6,5.8C84.9,239.8,82.9,240,80.8,240C80.9,240,80.9,240,80.8,240z M10.6,218.2c1,1.2,2.2,2.4,3.6,3.5 c0,0,0,0,.1,.1c6.5,5.5,14.1,8.2,23.3,8.2h43.2c1.6,0,3.1-.1,4.6-.4c0,0,.1,0,.1,0c4.7-.6,8.9-2,12.7-4.4 c0,0,.1-.1,.1-.1c1.6-.9,3.1-2,4.6-3.3c.1-.1,.1-.1,.2-.1c1.3-1,2.4-2.1,3.4-3.2C74.3,223.9,42.2,223.8,10.6,218.2z M5.3,207c35.1,7.1,70.9,7.2,106.6,.3c.2-1.3,.3-2.7,.3-4.1c0-7.4-3-13.5-9.3-18.8c-5.1-4.3-10.9-6.8-17.6-7.7 c-.1,0-.3,0-.4-.1c-.1,0-.1,0-.2,0c-1-.1-2.1-.2-3.2-.3c-25,6-49.1,6.4-71.6,1.2c-1.2,6.1-2.6,12.4-4,18.7 c0,.1,0,.1,0,.2c-.6,2.2-.9,4.5-.9,6.8C5,204.5,5.1,205.8,5.3,207z"></path></g></g></g></symbol></svg>