<svg xmlns="http://www.w3.org/2000/svg"><symbol id="default" viewBox="0 0 3000 3000"><path fill="#C75151" d="M787.27 364.73c-15.46 0-29.75 2.63-42.88 7.88-14.29 5.54-27.12 14.29-38.79 25.96-17.5 17.5-28.29 37.62-32.08 60.66-1.17 6.71-1.75 13.71-1.75 21 0 20.42 4.67 38.79 13.71 55.41-6.71-1.17-13.42-1.46-20.42-1.46-32.08 0-59.21 11.38-81.67 33.83-3.79 3.79-7.29 7.87-10.79 12.25-15.46 20.13-23.33 43.46-23.33 69.71 0 32.08 11.38 59.21 34.12 81.96l2.92 2.92c-14.88 5.54-28.29 14.29-40.54 26.54-19.25 19.25-30.33 41.71-32.96 67.67a114.05 114.05 0 0 0-.874 14.29c0 8.17.874 15.75 2.33 23.33 4.38 22.17 14.88 41.71 31.79 58.62 14.29 14.29 30.62 24.21 49 29.46-4.08 3.21-7.88 6.42-11.38 10.21-22.75 22.75-34.12 49.88-34.12 81.96 0 32.08 11.38 59.21 34.12 81.96 22.46 22.75 49.87 33.83 81.67 33.83 6.42 0 12.54-.29 18.67-1.46-7.88 15.75-11.96 32.96-11.96 51.92 0 8.16.584 15.75 2.33 23.33 4.08 22.17 14.87 41.71 31.79 58.62 22.46 22.75 51.91 32.67 88.08 29.75 28.88-2.04 57.75-17.79 86.33-46.66-19.54-67.67-31.79-140.58-36.46-218.46l-.291-.29h.291c15.17-5.54 28.29-14.58 39.67-27.71 18.08-20.41 25.96-44.33 24.21-72.04-.875-13.71-4.08-25.96-9.92-37.33 6.42.875 13.13.875 20.12.291 27.13-1.75 49.87-12.83 67.96-33.54 18.08-20.42 25.96-44.33 24.21-71.75-.59-8.17-2.05-15.75-4.09-23.04 11.38 3.5 23.63 4.96 36.46 4.08 27.13-1.75 49.87-12.83 67.96-33.54 17.21-19.54 25.37-42 24.5-67.67 17.79 11.67 37.62 16.92 60.08 15.17 27.42-1.75 49.87-12.83 67.96-33.54 11.66-13.13 19.25-27.71 22.75-43.75 20.41 17.5 44.04 25.67 71.16 23.92 27.13-1.75 49.88-13.13 67.96-33.83 11.66-13.42 19.25-28.29 22.75-44.62 3.5 4.38 7.58 8.75 12.25 12.83 20.71 18.08 44.62 26.25 71.75 24.5 27.41-1.75 49.87-13.13 67.95-33.54 3.5-4.08 6.71-9.33 9.63-16.04 28-6.71 49.29-21.87 63.58-44.62 14.58-23.04 18.67-48.12 12.25-74.67-2.92-13.13-7.87-24.5-14.87-34.42-1.75-2.33-4.67-5.83-8.46-10.21 6.71-14.58 9.91-30.63 9.91-47.83 0-32.08-11.37-59.21-33.83-81.96-22.46-22.46-49.87-33.83-81.96-33.83-10.2 0-20.12 1.17-29.45 3.5-17.21 4.38-32.96 12.83-46.67 25.08-1.17-29.75-12.54-55.42-33.83-77-22.46-22.46-49.88-33.83-81.96-33.83-32.08 0-59.21 11.38-81.96 33.83-10.79 10.79-19.25 22.75-24.5 35.58-4.66-7.58-10.49-14.58-17.2-21.29-22.46-22.46-49.88-33.83-81.96-33.83-32.08 0-59.21 11.38-81.96 33.83-20.12 20.12-31.2 43.75-33.54 71.17-1.16-1.17-2.04-2.33-3.21-3.5-22.45-22.46-49.87-33.83-81.95-33.83-18.08 0-34.71 3.5-49.87 11.08-11.67 5.54-22.17 13.13-31.79 22.75-22.75 22.75-34.12 49.87-33.83 81.96 0 5.54.292 11.08 1.17 16.62.292 2.04.583 4.08.875 5.83-4.08-2.33-8.17-4.38-12.54-5.83-14.58-5.54-29.17-8.17-44.62-8.17Z"></path><path fill="#000" d="M782.02 1340.04c-34.71 0-63.87-11.67-86.92-34.71-18.96-18.96-30.92-41.41-35.87-66.2-1.75-8.17-2.33-16.92-2.33-25.96 0-12.54 1.75-24.5 4.67-35.88-34.42-.58-64.46-13.7-88.96-38.2-25.37-25.38-38.21-56.29-38.21-92.17 0-33.54 11.08-62.71 33.25-87.21-11.67-6.13-22.46-14.29-32.67-24.21-18.96-18.96-30.92-41.12-35.87-66.21-1.75-8.46-2.33-17.21-2.33-25.96 0-5.54.292-10.79.875-16.04 3.21-29.17 15.75-54.83 37.33-76.42 8.17-8.17 17.21-15.17 26.83-21-18.38-23.04-27.42-49.87-27.42-80.21 0-29.75 8.75-56 26.25-78.75 3.5-4.67 7.58-9.04 11.96-13.42 24.79-24.79 55.12-37.63 89.83-38.21-3.79-12.25-5.54-25.38-5.54-39.08 0-8.17.584-16.04 2.04-23.62 4.67-25.67 16.63-48.71 36.46-68.25 13.12-13.13 27.71-22.75 43.75-29.17 14.87-5.83 31.21-9.04 48.42-9.04 13.71 0 26.83 1.75 39.08 5.54 0-35.58 12.83-66.5 38.21-91.87 10.79-10.79 23.04-19.54 35.87-25.67 16.92-8.17 35.87-12.25 56.29-12.25 28.58 0 53.95 8.17 75.83 23.92 6.12-19.83 16.91-37.92 32.66-53.67 25.38-25.37 56.29-38.21 92.17-38.21 35.87 0 67.08 12.83 92.16 38.21 1.75 1.75 3.21 3.5 4.96 5.25 4.67-7 10.21-13.42 16.33-19.54 25.38-25.37 56.29-38.21 92.17-38.21 35.87 0 67.08 12.83 92.16 38.21 17.79 17.79 29.46 38.21 34.71 61.25 9.92-5.83 20.71-10.21 32.08-13.13 10.5-2.63 21.59-4.08 32.96-4.08 35.88 0 67.08 12.83 92.17 38.21 25.37 25.38 38.2 56.29 38.2 92.17 0 16.04-2.62 31.21-7.58 45.21 1.46 1.75 2.63 3.21 3.5 4.67 8.17 11.38 14 24.79 17.21 39.67 7 30.63 2.33 59.5-14.29 85.75-15.17 24.21-37.34 40.83-65.63 49.29-2.62 4.96-5.54 9.63-9.04 13.13-20.41 23.63-46.66 36.46-77.87 38.5-29.46 2.04-56-6.42-78.46-24.79-4.66 9.63-10.5 18.96-18.08 27.42-20.71 23.63-46.96 36.46-77.87 38.5-23.63 1.46-45.21-3.5-64.46-14.88-4.67 10.79-11.08 20.71-19.25 30.04-20.42 23.33-46.67 36.17-77.87 38.21-16.92 1.17-32.96-1.17-47.84-7-3.5 20.12-12.54 38.21-26.54 54.54-20.71 23.63-46.96 36.46-77.87 38.5-6.42.583-12.84.291-18.96-.292 0 1.17.29 2.33.29 3.5 2.04 31.21-7.29 58.91-28 82.25-20.71 23.63-46.96 36.46-77.87 38.5 1.75 7 2.92 14 3.21 21.58 2.04 31.21-7.29 58.91-27.71 82.54-10.5 11.66-22.17 21-35.29 27.41 5.25 72.63 17.21 141.75 35.58 205.33 1.46 4.96 0 10.5-3.79 14.29-31.21 31.5-63.29 48.71-95.67 51.05-4.96.58-9.04.87-13.42.87Zm-98.29-193.37c4.67 0 9.04 2.33 11.96 6.12 3.21 4.38 3.5 10.21 1.17 15.17-7 13.42-10.5 28.58-10.5 45.21 0 7 .583 14 2.04 20.41 3.79 19.55 12.83 36.17 27.71 51.04 19.54 19.55 44.62 28 76.71 25.67 23.04-1.75 46.96-14 71.17-36.75-18.38-65.62-30.04-137.08-34.71-212.04 0-.87-.292-1.45-.292-2.33 0-6.71 4.38-12.25 10.5-14 12.54-4.67 23.33-12.25 32.96-23.33 15.46-17.5 22.17-37.63 20.71-61.25-.875-11.67-3.5-22.46-8.17-32.08-2.33-4.67-2.04-10.5 1.17-14.87s8.46-6.71 13.71-6.13c5.54.583 11.38.875 17.21.291 23.63-1.46 42.58-10.79 58.04-28.58 15.46-17.5 22.17-37.63 20.71-61.25-.584-7-1.75-13.71-3.5-19.83-1.46-5.25 0-10.79 3.79-14.58 3.79-3.79 9.33-5.25 14.58-3.5 9.63 2.92 20.12 4.08 31.21 3.5 23.33-1.46 42.29-10.79 58.04-28.58 14.87-16.92 21.58-35.87 21-57.75 0-5.54 2.62-10.5 7.58-13.13 4.67-2.63 10.5-2.33 15.17.584 15.16 9.92 31.79 14.29 51.04 12.83 23.62-1.46 42.58-10.79 58.04-28.58 10.21-11.38 16.33-23.63 19.25-37.33 1.17-4.96 4.67-9.04 9.62-10.79 4.96-1.75 10.21-.583 14.29 2.92 17.5 15.17 37.34 21.87 60.67 20.12 23.33-1.46 42.29-11.08 58.04-28.87 10.21-11.67 16.33-23.92 19.25-37.92 1.17-5.54 5.25-9.92 10.79-11.38 5.54-1.46 11.08.583 14.88 4.96 3.2 3.79 6.7 7.58 10.5 10.79 17.79 15.46 37.62 22.46 61.25 21 23.33-1.46 42.29-11.08 58.04-28.58 2.62-2.92 4.95-7 7.29-12.25 1.75-4.08 5.54-7.29 9.91-8.46 24.5-5.83 42.29-18.38 54.54-38.21 12.55-19.83 16.05-40.83 10.5-63.87-2.62-11.08-6.7-21-12.83-29.46-.87-1.46-3.21-4.08-7.58-9.04a14.83 14.83 0 0 1-2.34-15.75c5.84-12.54 8.75-26.83 8.75-42 0-28.29-9.62-51.62-29.74-71.75-19.84-19.83-43.46-29.46-71.75-29.46-9.04 0-17.79 1.17-25.96 3.21-14.88 3.79-28.58 11.08-40.54 21.88-4.09 3.79-10.21 4.67-15.46 2.63-5.25-2.33-8.75-7.29-8.75-12.83-1.17-26.25-10.79-48.41-29.75-67.37-19.83-19.83-43.46-29.46-71.75-29.46s-51.62 9.63-71.46 29.46c-9.62 9.63-16.91 20.12-21.58 31.21-2.04 4.96-6.71 8.46-12.25 8.75-5.25.584-10.5-2.04-13.41-6.71-4.09-6.42-9.34-12.83-15.17-18.67-19.83-19.83-43.46-29.46-71.75-29.46s-51.62 9.63-71.46 29.46c-17.79 17.79-27.41 37.92-29.45 62.12-.59 5.83-4.38 10.79-9.92 12.54s-11.67.292-15.46-4.08c-.87-.875-1.75-2.04-2.62-2.92-19.84-19.83-43.46-29.46-71.75-29.46-15.75 0-30.62 3.21-43.46 9.63-10.21 4.96-19.54 11.67-28 20.13-20.13 20.12-29.75 43.46-29.75 71.75 0 4.96.291 9.92.875 14.58l.874 5.25c1.17 5.54-1.17 11.38-5.83 14.58-4.67 3.21-10.79 3.5-15.75.875-3.5-2.04-7-3.79-10.5-4.96-11.67-4.67-24.5-7-37.92-7-13.42 0-26.25 2.33-37.62 6.71-13.13 5.54-24.5 13.12-34.71 23.33-15.46 15.46-24.5 32.96-28 53.08-.875 5.83-1.46 12.25-1.46 18.67 0 17.79 4.08 33.83 11.96 48.12 2.63 4.96 2.33 10.79-.875 15.46-3.21 4.67-8.75 7-14.29 6.13-5.83-.875-11.96-1.46-18.08-1.46-28.29 0-51.62 9.63-71.46 29.46-3.5 3.5-6.71 7-9.33 10.79-13.71 17.79-20.42 37.62-20.42 60.96 0 28.29 9.63 51.62 29.75 71.75l2.92 2.92c3.5 3.5 4.96 8.46 4.08 13.42-1.17 4.96-4.38 8.75-9.04 10.5-12.83 4.67-24.5 12.54-35.29 23.33-16.92 16.92-26.54 36.17-28.87 58.92v.292a87.62 87.62 0 0 0-.875 12.54c0 7 .583 14 2.04 20.42 3.79 19.54 12.83 36.17 27.71 51.04 12.54 12.54 26.83 21.29 42.58 25.67 5.25 1.46 9.33 5.83 10.21 11.38 1.17 5.25-1.17 10.79-5.25 14.29-3.5 2.63-7 5.83-9.92 8.75-20.13 20.13-29.75 43.46-29.75 71.75 0 28.29 9.63 51.62 29.75 71.75 19.83 20.12 43.16 29.75 71.46 29.75 5.83 0 11.37-.29 16.62-1.17.292-.29.88-.58 1.75-.58Z"></path></symbol><symbol id="body" viewBox="0 0 3000 3000"><path fill="#C75151" d="M787.27 364.73c-15.46 0-29.75 2.63-42.88 7.88-14.29 5.54-27.12 14.29-38.79 25.96-17.5 17.5-28.29 37.62-32.08 60.66-1.17 6.71-1.75 13.71-1.75 21 0 20.42 4.67 38.79 13.71 55.41-6.71-1.17-13.42-1.46-20.42-1.46-32.08 0-59.21 11.38-81.67 33.83-3.79 3.79-7.29 7.87-10.79 12.25-15.46 20.13-23.33 43.46-23.33 69.71 0 32.08 11.38 59.21 34.12 81.96l2.92 2.92c-14.88 5.54-28.29 14.29-40.54 26.54-19.25 19.25-30.33 41.71-32.96 67.67a114.05 114.05 0 0 0-.874 14.29c0 8.17.874 15.75 2.33 23.33 4.38 22.17 14.88 41.71 31.79 58.62 14.29 14.29 30.62 24.21 49 29.46-4.08 3.21-7.88 6.42-11.38 10.21-22.75 22.75-34.12 49.88-34.12 81.96 0 32.08 11.38 59.21 34.12 81.96 22.46 22.75 49.87 33.83 81.67 33.83 6.42 0 12.54-.29 18.67-1.46-7.88 15.75-11.96 32.96-11.96 51.92 0 8.16.584 15.75 2.33 23.33 4.08 22.17 14.87 41.71 31.79 58.62 22.46 22.75 51.91 32.67 88.08 29.75 28.88-2.04 57.75-17.79 86.33-46.66-19.54-67.67-31.79-140.58-36.46-218.46l-.291-.29h.291c15.17-5.54 28.29-14.58 39.67-27.71 18.08-20.41 25.96-44.33 24.21-72.04-.875-13.71-4.08-25.96-9.92-37.33 6.42.875 13.13.875 20.12.291 27.13-1.75 49.87-12.83 67.96-33.54 18.08-20.42 25.96-44.33 24.21-71.75-.59-8.17-2.05-15.75-4.09-23.04 11.38 3.5 23.63 4.96 36.46 4.08 27.13-1.75 49.87-12.83 67.96-33.54 17.21-19.54 25.37-42 24.5-67.67 17.79 11.67 37.62 16.92 60.08 15.17 27.42-1.75 49.87-12.83 67.96-33.54 11.66-13.13 19.25-27.71 22.75-43.75 20.41 17.5 44.04 25.67 71.16 23.92 27.13-1.75 49.88-13.13 67.96-33.83 11.66-13.42 19.25-28.29 22.75-44.62 3.5 4.38 7.58 8.75 12.25 12.83 20.71 18.08 44.62 26.25 71.75 24.5 27.41-1.75 49.87-13.13 67.95-33.54 3.5-4.08 6.71-9.33 9.63-16.04 28-6.71 49.29-21.87 63.58-44.62 14.58-23.04 18.67-48.12 12.25-74.67-2.92-13.13-7.87-24.5-14.87-34.42-1.75-2.33-4.67-5.83-8.46-10.21 6.71-14.58 9.91-30.63 9.91-47.83 0-32.08-11.37-59.21-33.83-81.96-22.46-22.46-49.87-33.83-81.96-33.83-10.2 0-20.12 1.17-29.45 3.5-17.21 4.38-32.96 12.83-46.67 25.08-1.17-29.75-12.54-55.42-33.83-77-22.46-22.46-49.88-33.83-81.96-33.83-32.08 0-59.21 11.38-81.96 33.83-10.79 10.79-19.25 22.75-24.5 35.58-4.66-7.58-10.49-14.58-17.2-21.29-22.46-22.46-49.88-33.83-81.96-33.83-32.08 0-59.21 11.38-81.96 33.83-20.12 20.12-31.2 43.75-33.54 71.17-1.16-1.17-2.04-2.33-3.21-3.5-22.45-22.46-49.87-33.83-81.95-33.83-18.08 0-34.71 3.5-49.87 11.08-11.67 5.54-22.17 13.13-31.79 22.75-22.75 22.75-34.12 49.87-33.83 81.96 0 5.54.292 11.08 1.17 16.62.292 2.04.583 4.08.875 5.83-4.08-2.33-8.17-4.38-12.54-5.83-14.58-5.54-29.17-8.17-44.62-8.17Z"></path><path fill="#000" d="M782.02 1340.04c-34.71 0-63.87-11.67-86.92-34.71-18.96-18.96-30.92-41.41-35.87-66.2-1.75-8.17-2.33-16.92-2.33-25.96 0-12.54 1.75-24.5 4.67-35.88-34.42-.58-64.46-13.7-88.96-38.2-25.37-25.38-38.21-56.29-38.21-92.17 0-33.54 11.08-62.71 33.25-87.21-11.67-6.13-22.46-14.29-32.67-24.21-18.96-18.96-30.92-41.12-35.87-66.21-1.75-8.46-2.33-17.21-2.33-25.96 0-5.54.292-10.79.875-16.04 3.21-29.17 15.75-54.83 37.33-76.42 8.17-8.17 17.21-15.17 26.83-21-18.38-23.04-27.42-49.87-27.42-80.21 0-29.75 8.75-56 26.25-78.75 3.5-4.67 7.58-9.04 11.96-13.42 24.79-24.79 55.12-37.63 89.83-38.21-3.79-12.25-5.54-25.38-5.54-39.08 0-8.17.584-16.04 2.04-23.62 4.67-25.67 16.63-48.71 36.46-68.25 13.12-13.13 27.71-22.75 43.75-29.17 14.87-5.83 31.21-9.04 48.42-9.04 13.71 0 26.83 1.75 39.08 5.54 0-35.58 12.83-66.5 38.21-91.87 10.79-10.79 23.04-19.54 35.87-25.67 16.92-8.17 35.87-12.25 56.29-12.25 28.58 0 53.95 8.17 75.83 23.92 6.12-19.83 16.91-37.92 32.66-53.67 25.38-25.37 56.29-38.21 92.17-38.21 35.87 0 67.08 12.83 92.16 38.21 1.75 1.75 3.21 3.5 4.96 5.25 4.67-7 10.21-13.42 16.33-19.54 25.38-25.37 56.29-38.21 92.17-38.21 35.87 0 67.08 12.83 92.16 38.21 17.79 17.79 29.46 38.21 34.71 61.25 9.92-5.83 20.71-10.21 32.08-13.13 10.5-2.63 21.59-4.08 32.96-4.08 35.88 0 67.08 12.83 92.17 38.21 25.37 25.38 38.2 56.29 38.2 92.17 0 16.04-2.62 31.21-7.58 45.21 1.46 1.75 2.63 3.21 3.5 4.67 8.17 11.38 14 24.79 17.21 39.67 7 30.63 2.33 59.5-14.29 85.75-15.17 24.21-37.34 40.83-65.63 49.29-2.62 4.96-5.54 9.63-9.04 13.13-20.41 23.63-46.66 36.46-77.87 38.5-29.46 2.04-56-6.42-78.46-24.79-4.66 9.63-10.5 18.96-18.08 27.42-20.71 23.63-46.96 36.46-77.87 38.5-23.63 1.46-45.21-3.5-64.46-14.88-4.67 10.79-11.08 20.71-19.25 30.04-20.42 23.33-46.67 36.17-77.87 38.21-16.92 1.17-32.96-1.17-47.84-7-3.5 20.12-12.54 38.21-26.54 54.54-20.71 23.63-46.96 36.46-77.87 38.5-6.42.583-12.84.291-18.96-.292 0 1.17.29 2.33.29 3.5 2.04 31.21-7.29 58.91-28 82.25-20.71 23.63-46.96 36.46-77.87 38.5 1.75 7 2.92 14 3.21 21.58 2.04 31.21-7.29 58.91-27.71 82.54-10.5 11.66-22.17 21-35.29 27.41 5.25 72.63 17.21 141.75 35.58 205.33 1.46 4.96 0 10.5-3.79 14.29-31.21 31.5-63.29 48.71-95.67 51.05-4.96.58-9.04.87-13.42.87Zm-98.29-193.37c4.67 0 9.04 2.33 11.96 6.12 3.21 4.38 3.5 10.21 1.17 15.17-7 13.42-10.5 28.58-10.5 45.21 0 7 .583 14 2.04 20.41 3.79 19.55 12.83 36.17 27.71 51.04 19.54 19.55 44.62 28 76.71 25.67 23.04-1.75 46.96-14 71.17-36.75-18.38-65.62-30.04-137.08-34.71-212.04 0-.87-.292-1.45-.292-2.33 0-6.71 4.38-12.25 10.5-14 12.54-4.67 23.33-12.25 32.96-23.33 15.46-17.5 22.17-37.63 20.71-61.25-.875-11.67-3.5-22.46-8.17-32.08-2.33-4.67-2.04-10.5 1.17-14.87s8.46-6.71 13.71-6.13c5.54.583 11.38.875 17.21.291 23.63-1.46 42.58-10.79 58.04-28.58 15.46-17.5 22.17-37.63 20.71-61.25-.584-7-1.75-13.71-3.5-19.83-1.46-5.25 0-10.79 3.79-14.58 3.79-3.79 9.33-5.25 14.58-3.5 9.63 2.92 20.12 4.08 31.21 3.5 23.33-1.46 42.29-10.79 58.04-28.58 14.87-16.92 21.58-35.87 21-57.75 0-5.54 2.62-10.5 7.58-13.13 4.67-2.63 10.5-2.33 15.17.584 15.16 9.92 31.79 14.29 51.04 12.83 23.62-1.46 42.58-10.79 58.04-28.58 10.21-11.38 16.33-23.63 19.25-37.33 1.17-4.96 4.67-9.04 9.62-10.79 4.96-1.75 10.21-.583 14.29 2.92 17.5 15.17 37.34 21.87 60.67 20.12 23.33-1.46 42.29-11.08 58.04-28.87 10.21-11.67 16.33-23.92 19.25-37.92 1.17-5.54 5.25-9.92 10.79-11.38 5.54-1.46 11.08.583 14.88 4.96 3.2 3.79 6.7 7.58 10.5 10.79 17.79 15.46 37.62 22.46 61.25 21 23.33-1.46 42.29-11.08 58.04-28.58 2.62-2.92 4.95-7 7.29-12.25 1.75-4.08 5.54-7.29 9.91-8.46 24.5-5.83 42.29-18.38 54.54-38.21 12.55-19.83 16.05-40.83 10.5-63.87-2.62-11.08-6.7-21-12.83-29.46-.87-1.46-3.21-4.08-7.58-9.04a14.83 14.83 0 0 1-2.34-15.75c5.84-12.54 8.75-26.83 8.75-42 0-28.29-9.62-51.62-29.74-71.75-19.84-19.83-43.46-29.46-71.75-29.46-9.04 0-17.79 1.17-25.96 3.21-14.88 3.79-28.58 11.08-40.54 21.88-4.09 3.79-10.21 4.67-15.46 2.63-5.25-2.33-8.75-7.29-8.75-12.83-1.17-26.25-10.79-48.41-29.75-67.37-19.83-19.83-43.46-29.46-71.75-29.46s-51.62 9.63-71.46 29.46c-9.62 9.63-16.91 20.12-21.58 31.21-2.04 4.96-6.71 8.46-12.25 8.75-5.25.584-10.5-2.04-13.41-6.71-4.09-6.42-9.34-12.83-15.17-18.67-19.83-19.83-43.46-29.46-71.75-29.46s-51.62 9.63-71.46 29.46c-17.79 17.79-27.41 37.92-29.45 62.12-.59 5.83-4.38 10.79-9.92 12.54s-11.67.292-15.46-4.08c-.87-.875-1.75-2.04-2.62-2.92-19.84-19.83-43.46-29.46-71.75-29.46-15.75 0-30.62 3.21-43.46 9.63-10.21 4.96-19.54 11.67-28 20.13-20.13 20.12-29.75 43.46-29.75 71.75 0 4.96.291 9.92.875 14.58l.874 5.25c1.17 5.54-1.17 11.38-5.83 14.58-4.67 3.21-10.79 3.5-15.75.875-3.5-2.04-7-3.79-10.5-4.96-11.67-4.67-24.5-7-37.92-7-13.42 0-26.25 2.33-37.62 6.71-13.13 5.54-24.5 13.12-34.71 23.33-15.46 15.46-24.5 32.96-28 53.08-.875 5.83-1.46 12.25-1.46 18.67 0 17.79 4.08 33.83 11.96 48.12 2.63 4.96 2.33 10.79-.875 15.46-3.21 4.67-8.75 7-14.29 6.13-5.83-.875-11.96-1.46-18.08-1.46-28.29 0-51.62 9.63-71.46 29.46-3.5 3.5-6.71 7-9.33 10.79-13.71 17.79-20.42 37.62-20.42 60.96 0 28.29 9.63 51.62 29.75 71.75l2.92 2.92c3.5 3.5 4.96 8.46 4.08 13.42-1.17 4.96-4.38 8.75-9.04 10.5-12.83 4.67-24.5 12.54-35.29 23.33-16.92 16.92-26.54 36.17-28.87 58.92v.292a87.62 87.62 0 0 0-.875 12.54c0 7 .583 14 2.04 20.42 3.79 19.54 12.83 36.17 27.71 51.04 12.54 12.54 26.83 21.29 42.58 25.67 5.25 1.46 9.33 5.83 10.21 11.38 1.17 5.25-1.17 10.79-5.25 14.29-3.5 2.63-7 5.83-9.92 8.75-20.13 20.13-29.75 43.46-29.75 71.75 0 28.29 9.63 51.62 29.75 71.75 19.83 20.12 43.16 29.75 71.46 29.75 5.83 0 11.37-.29 16.62-1.17.292-.29.88-.58 1.75-.58Z"></path></symbol><symbol id="left" viewBox="0 0 3000 3000"><path fill="#C75151" d="M787.27 364.73c-15.46 0-29.75 2.63-42.88 7.88-14.29 5.54-27.12 14.29-38.79 25.96-17.5 17.5-28.29 37.62-32.08 60.66-1.17 6.71-1.75 13.71-1.75 21 0 20.42 4.67 38.79 13.71 55.41-6.71-1.17-13.42-1.46-20.42-1.46-32.08 0-59.21 11.38-81.67 33.83-3.79 3.79-7.29 7.87-10.79 12.25-15.46 20.13-23.33 43.46-23.33 69.71 0 32.08 11.38 59.21 34.12 81.96l2.92 2.92c-14.88 5.54-28.29 14.29-40.54 26.54-19.25 19.25-30.33 41.71-32.96 67.67a114.05 114.05 0 0 0-.874 14.29c0 8.17.874 15.75 2.33 23.33 4.38 22.17 14.88 41.71 31.79 58.62 14.29 14.29 30.62 24.21 49 29.46-4.08 3.21-7.88 6.42-11.38 10.21-22.75 22.75-34.12 49.88-34.12 81.96 0 32.08 11.38 59.21 34.12 81.96 22.46 22.75 49.87 33.83 81.67 33.83 6.42 0 12.54-.29 18.67-1.46-7.88 15.75-11.96 32.96-11.96 51.92 0 8.16.584 15.75 2.33 23.33 4.08 22.17 14.87 41.71 31.79 58.62 22.46 22.75 51.91 32.67 88.08 29.75 28.88-2.04 57.75-17.79 86.33-46.66-19.54-67.67-31.79-140.58-36.46-218.46l-.291-.29h.291c15.17-5.54 28.29-14.58 39.67-27.71 18.08-20.41 25.96-44.33 24.21-72.04-.875-13.71-4.08-25.96-9.92-37.33 6.42.875 13.13.875 20.12.291 27.13-1.75 49.87-12.83 67.96-33.54 18.08-20.42 25.96-44.33 24.21-71.75-.59-8.17-2.05-15.75-4.09-23.04 11.38 3.5 23.63 4.96 36.46 4.08 27.13-1.75 49.87-12.83 67.96-33.54 17.21-19.54 25.37-42 24.5-67.67 17.79 11.67 37.62 16.92 60.08 15.17 27.42-1.75 49.87-12.83 67.96-33.54 11.66-13.13 19.25-27.71 22.75-43.75 20.41 17.5 44.04 25.67 71.16 23.92 27.13-1.75 49.88-13.13 67.96-33.83 11.66-13.42 19.25-28.29 22.75-44.62 3.5 4.38 7.58 8.75 12.25 12.83 20.71 18.08 44.62 26.25 71.75 24.5 27.41-1.75 49.87-13.13 67.95-33.54 3.5-4.08 6.71-9.33 9.63-16.04 28-6.71 49.29-21.87 63.58-44.62 14.58-23.04 18.67-48.12 12.25-74.67-2.92-13.13-7.87-24.5-14.87-34.42-1.75-2.33-4.67-5.83-8.46-10.21 6.71-14.58 9.91-30.63 9.91-47.83 0-32.08-11.37-59.21-33.83-81.96-22.46-22.46-49.87-33.83-81.96-33.83-10.2 0-20.12 1.17-29.45 3.5-17.21 4.38-32.96 12.83-46.67 25.08-1.17-29.75-12.54-55.42-33.83-77-22.46-22.46-49.88-33.83-81.96-33.83-32.08 0-59.21 11.38-81.96 33.83-10.79 10.79-19.25 22.75-24.5 35.58-4.66-7.58-10.49-14.58-17.2-21.29-22.46-22.46-49.88-33.83-81.96-33.83-32.08 0-59.21 11.38-81.96 33.83-20.12 20.12-31.2 43.75-33.54 71.17-1.16-1.17-2.04-2.33-3.21-3.5-22.45-22.46-49.87-33.83-81.95-33.83-18.08 0-34.71 3.5-49.87 11.08-11.67 5.54-22.17 13.13-31.79 22.75-22.75 22.75-34.12 49.87-33.83 81.96 0 5.54.292 11.08 1.17 16.62.292 2.04.583 4.08.875 5.83-4.08-2.33-8.17-4.38-12.54-5.83-14.58-5.54-29.17-8.17-44.62-8.17Z"></path><path fill="#000" d="M782.02 1340.04c-34.71 0-63.87-11.67-86.92-34.71-18.96-18.96-30.92-41.41-35.87-66.2-1.75-8.17-2.33-16.92-2.33-25.96 0-12.54 1.75-24.5 4.67-35.88-34.42-.58-64.46-13.7-88.96-38.2-25.37-25.38-38.21-56.29-38.21-92.17 0-33.54 11.08-62.71 33.25-87.21-11.67-6.13-22.46-14.29-32.67-24.21-18.96-18.96-30.92-41.12-35.87-66.21-1.75-8.46-2.33-17.21-2.33-25.96 0-5.54.292-10.79.875-16.04 3.21-29.17 15.75-54.83 37.33-76.42 8.17-8.17 17.21-15.17 26.83-21-18.38-23.04-27.42-49.87-27.42-80.21 0-29.75 8.75-56 26.25-78.75 3.5-4.67 7.58-9.04 11.96-13.42 24.79-24.79 55.12-37.63 89.83-38.21-3.79-12.25-5.54-25.38-5.54-39.08 0-8.17.584-16.04 2.04-23.62 4.67-25.67 16.63-48.71 36.46-68.25 13.12-13.13 27.71-22.75 43.75-29.17 14.87-5.83 31.21-9.04 48.42-9.04 13.71 0 26.83 1.75 39.08 5.54 0-35.58 12.83-66.5 38.21-91.87 10.79-10.79 23.04-19.54 35.87-25.67 16.92-8.17 35.87-12.25 56.29-12.25 28.58 0 53.95 8.17 75.83 23.92 6.12-19.83 16.91-37.92 32.66-53.67 25.38-25.37 56.29-38.21 92.17-38.21 35.87 0 67.08 12.83 92.16 38.21 1.75 1.75 3.21 3.5 4.96 5.25 4.67-7 10.21-13.42 16.33-19.54 25.38-25.37 56.29-38.21 92.17-38.21 35.87 0 67.08 12.83 92.16 38.21 17.79 17.79 29.46 38.21 34.71 61.25 9.92-5.83 20.71-10.21 32.08-13.13 10.5-2.63 21.59-4.08 32.96-4.08 35.88 0 67.08 12.83 92.17 38.21 25.37 25.38 38.2 56.29 38.2 92.17 0 16.04-2.62 31.21-7.58 45.21 1.46 1.75 2.63 3.21 3.5 4.67 8.17 11.38 14 24.79 17.21 39.67 7 30.63 2.33 59.5-14.29 85.75-15.17 24.21-37.34 40.83-65.63 49.29-2.62 4.96-5.54 9.63-9.04 13.13-20.41 23.63-46.66 36.46-77.87 38.5-29.46 2.04-56-6.42-78.46-24.79-4.66 9.63-10.5 18.96-18.08 27.42-20.71 23.63-46.96 36.46-77.87 38.5-23.63 1.46-45.21-3.5-64.46-14.88-4.67 10.79-11.08 20.71-19.25 30.04-20.42 23.33-46.67 36.17-77.87 38.21-16.92 1.17-32.96-1.17-47.84-7-3.5 20.12-12.54 38.21-26.54 54.54-20.71 23.63-46.96 36.46-77.87 38.5-6.42.583-12.84.291-18.96-.292 0 1.17.29 2.33.29 3.5 2.04 31.21-7.29 58.91-28 82.25-20.71 23.63-46.96 36.46-77.87 38.5 1.75 7 2.92 14 3.21 21.58 2.04 31.21-7.29 58.91-27.71 82.54-10.5 11.66-22.17 21-35.29 27.41 5.25 72.63 17.21 141.75 35.58 205.33 1.46 4.96 0 10.5-3.79 14.29-31.21 31.5-63.29 48.71-95.67 51.05-4.96.58-9.04.87-13.42.87Zm-98.29-193.37c4.67 0 9.04 2.33 11.96 6.12 3.21 4.38 3.5 10.21 1.17 15.17-7 13.42-10.5 28.58-10.5 45.21 0 7 .583 14 2.04 20.41 3.79 19.55 12.83 36.17 27.71 51.04 19.54 19.55 44.62 28 76.71 25.67 23.04-1.75 46.96-14 71.17-36.75-18.38-65.62-30.04-137.08-34.71-212.04 0-.87-.292-1.45-.292-2.33 0-6.71 4.38-12.25 10.5-14 12.54-4.67 23.33-12.25 32.96-23.33 15.46-17.5 22.17-37.63 20.71-61.25-.875-11.67-3.5-22.46-8.17-32.08-2.33-4.67-2.04-10.5 1.17-14.87s8.46-6.71 13.71-6.13c5.54.583 11.38.875 17.21.291 23.63-1.46 42.58-10.79 58.04-28.58 15.46-17.5 22.17-37.63 20.71-61.25-.584-7-1.75-13.71-3.5-19.83-1.46-5.25 0-10.79 3.79-14.58 3.79-3.79 9.33-5.25 14.58-3.5 9.63 2.92 20.12 4.08 31.21 3.5 23.33-1.46 42.29-10.79 58.04-28.58 14.87-16.92 21.58-35.87 21-57.75 0-5.54 2.62-10.5 7.58-13.13 4.67-2.63 10.5-2.33 15.17.584 15.16 9.92 31.79 14.29 51.04 12.83 23.62-1.46 42.58-10.79 58.04-28.58 10.21-11.38 16.33-23.63 19.25-37.33 1.17-4.96 4.67-9.04 9.62-10.79 4.96-1.75 10.21-.583 14.29 2.92 17.5 15.17 37.34 21.87 60.67 20.12 23.33-1.46 42.29-11.08 58.04-28.87 10.21-11.67 16.33-23.92 19.25-37.92 1.17-5.54 5.25-9.92 10.79-11.38 5.54-1.46 11.08.583 14.88 4.96 3.2 3.79 6.7 7.58 10.5 10.79 17.79 15.46 37.62 22.46 61.25 21 23.33-1.46 42.29-11.08 58.04-28.58 2.62-2.92 4.95-7 7.29-12.25 1.75-4.08 5.54-7.29 9.91-8.46 24.5-5.83 42.29-18.38 54.54-38.21 12.55-19.83 16.05-40.83 10.5-63.87-2.62-11.08-6.7-21-12.83-29.46-.87-1.46-3.21-4.08-7.58-9.04a14.83 14.83 0 0 1-2.34-15.75c5.84-12.54 8.75-26.83 8.75-42 0-28.29-9.62-51.62-29.74-71.75-19.84-19.83-43.46-29.46-71.75-29.46-9.04 0-17.79 1.17-25.96 3.21-14.88 3.79-28.58 11.08-40.54 21.88-4.09 3.79-10.21 4.67-15.46 2.63-5.25-2.33-8.75-7.29-8.75-12.83-1.17-26.25-10.79-48.41-29.75-67.37-19.83-19.83-43.46-29.46-71.75-29.46s-51.62 9.63-71.46 29.46c-9.62 9.63-16.91 20.12-21.58 31.21-2.04 4.96-6.71 8.46-12.25 8.75-5.25.584-10.5-2.04-13.41-6.71-4.09-6.42-9.34-12.83-15.17-18.67-19.83-19.83-43.46-29.46-71.75-29.46s-51.62 9.63-71.46 29.46c-17.79 17.79-27.41 37.92-29.45 62.12-.59 5.83-4.38 10.79-9.92 12.54s-11.67.292-15.46-4.08c-.87-.875-1.75-2.04-2.62-2.92-19.84-19.83-43.46-29.46-71.75-29.46-15.75 0-30.62 3.21-43.46 9.63-10.21 4.96-19.54 11.67-28 20.13-20.13 20.12-29.75 43.46-29.75 71.75 0 4.96.291 9.92.875 14.58l.874 5.25c1.17 5.54-1.17 11.38-5.83 14.58-4.67 3.21-10.79 3.5-15.75.875-3.5-2.04-7-3.79-10.5-4.96-11.67-4.67-24.5-7-37.92-7-13.42 0-26.25 2.33-37.62 6.71-13.13 5.54-24.5 13.12-34.71 23.33-15.46 15.46-24.5 32.96-28 53.08-.875 5.83-1.46 12.25-1.46 18.67 0 17.79 4.08 33.83 11.96 48.12 2.63 4.96 2.33 10.79-.875 15.46-3.21 4.67-8.75 7-14.29 6.13-5.83-.875-11.96-1.46-18.08-1.46-28.29 0-51.62 9.63-71.46 29.46-3.5 3.5-6.71 7-9.33 10.79-13.71 17.79-20.42 37.62-20.42 60.96 0 28.29 9.63 51.62 29.75 71.75l2.92 2.92c3.5 3.5 4.96 8.46 4.08 13.42-1.17 4.96-4.38 8.75-9.04 10.5-12.83 4.67-24.5 12.54-35.29 23.33-16.92 16.92-26.54 36.17-28.87 58.92v.292a87.62 87.62 0 0 0-.875 12.54c0 7 .583 14 2.04 20.42 3.79 19.54 12.83 36.17 27.71 51.04 12.54 12.54 26.83 21.29 42.58 25.67 5.25 1.46 9.33 5.83 10.21 11.38 1.17 5.25-1.17 10.79-5.25 14.29-3.5 2.63-7 5.83-9.92 8.75-20.13 20.13-29.75 43.46-29.75 71.75 0 28.29 9.63 51.62 29.75 71.75 19.83 20.12 43.16 29.75 71.46 29.75 5.83 0 11.37-.29 16.62-1.17.292-.29.88-.58 1.75-.58Z"></path></symbol><symbol id="right" viewBox="0 0 3000 3000"><path fill="#C75151" d="M787.27 364.73c-15.46 0-29.75 2.63-42.88 7.88-14.29 5.54-27.12 14.29-38.79 25.96-17.5 17.5-28.29 37.62-32.08 60.66-1.17 6.71-1.75 13.71-1.75 21 0 20.42 4.67 38.79 13.71 55.41-6.71-1.17-13.42-1.46-20.42-1.46-32.08 0-59.21 11.38-81.67 33.83-3.79 3.79-7.29 7.87-10.79 12.25-15.46 20.13-23.33 43.46-23.33 69.71 0 32.08 11.38 59.21 34.12 81.96l2.92 2.92c-14.88 5.54-28.29 14.29-40.54 26.54-19.25 19.25-30.33 41.71-32.96 67.67a114.05 114.05 0 0 0-.874 14.29c0 8.17.874 15.75 2.33 23.33 4.38 22.17 14.88 41.71 31.79 58.62 14.29 14.29 30.62 24.21 49 29.46-4.08 3.21-7.88 6.42-11.38 10.21-22.75 22.75-34.12 49.88-34.12 81.96 0 32.08 11.38 59.21 34.12 81.96 22.46 22.75 49.87 33.83 81.67 33.83 6.42 0 12.54-.29 18.67-1.46-7.88 15.75-11.96 32.96-11.96 51.92 0 8.16.584 15.75 2.33 23.33 4.08 22.17 14.87 41.71 31.79 58.62 22.46 22.75 51.91 32.67 88.08 29.75 28.88-2.04 57.75-17.79 86.33-46.66-19.54-67.67-31.79-140.58-36.46-218.46l-.291-.29h.291c15.17-5.54 28.29-14.58 39.67-27.71 18.08-20.41 25.96-44.33 24.21-72.04-.875-13.71-4.08-25.96-9.92-37.33 6.42.875 13.13.875 20.12.291 27.13-1.75 49.87-12.83 67.96-33.54 18.08-20.42 25.96-44.33 24.21-71.75-.59-8.17-2.05-15.75-4.09-23.04 11.38 3.5 23.63 4.96 36.46 4.08 27.13-1.75 49.87-12.83 67.96-33.54 17.21-19.54 25.37-42 24.5-67.67 17.79 11.67 37.62 16.92 60.08 15.17 27.42-1.75 49.87-12.83 67.96-33.54 11.66-13.13 19.25-27.71 22.75-43.75 20.41 17.5 44.04 25.67 71.16 23.92 27.13-1.75 49.88-13.13 67.96-33.83 11.66-13.42 19.25-28.29 22.75-44.62 3.5 4.38 7.58 8.75 12.25 12.83 20.71 18.08 44.62 26.25 71.75 24.5 27.41-1.75 49.87-13.13 67.95-33.54 3.5-4.08 6.71-9.33 9.63-16.04 28-6.71 49.29-21.87 63.58-44.62 14.58-23.04 18.67-48.12 12.25-74.67-2.92-13.13-7.87-24.5-14.87-34.42-1.75-2.33-4.67-5.83-8.46-10.21 6.71-14.58 9.91-30.63 9.91-47.83 0-32.08-11.37-59.21-33.83-81.96-22.46-22.46-49.87-33.83-81.96-33.83-10.2 0-20.12 1.17-29.45 3.5-17.21 4.38-32.96 12.83-46.67 25.08-1.17-29.75-12.54-55.42-33.83-77-22.46-22.46-49.88-33.83-81.96-33.83-32.08 0-59.21 11.38-81.96 33.83-10.79 10.79-19.25 22.75-24.5 35.58-4.66-7.58-10.49-14.58-17.2-21.29-22.46-22.46-49.88-33.83-81.96-33.83-32.08 0-59.21 11.38-81.96 33.83-20.12 20.12-31.2 43.75-33.54 71.17-1.16-1.17-2.04-2.33-3.21-3.5-22.45-22.46-49.87-33.83-81.95-33.83-18.08 0-34.71 3.5-49.87 11.08-11.67 5.54-22.17 13.13-31.79 22.75-22.75 22.75-34.12 49.87-33.83 81.96 0 5.54.292 11.08 1.17 16.62.292 2.04.583 4.08.875 5.83-4.08-2.33-8.17-4.38-12.54-5.83-14.58-5.54-29.17-8.17-44.62-8.17Z"></path><path fill="#000" d="M782.02 1340.04c-34.71 0-63.87-11.67-86.92-34.71-18.96-18.96-30.92-41.41-35.87-66.2-1.75-8.17-2.33-16.92-2.33-25.96 0-12.54 1.75-24.5 4.67-35.88-34.42-.58-64.46-13.7-88.96-38.2-25.37-25.38-38.21-56.29-38.21-92.17 0-33.54 11.08-62.71 33.25-87.21-11.67-6.13-22.46-14.29-32.67-24.21-18.96-18.96-30.92-41.12-35.87-66.21-1.75-8.46-2.33-17.21-2.33-25.96 0-5.54.292-10.79.875-16.04 3.21-29.17 15.75-54.83 37.33-76.42 8.17-8.17 17.21-15.17 26.83-21-18.38-23.04-27.42-49.87-27.42-80.21 0-29.75 8.75-56 26.25-78.75 3.5-4.67 7.58-9.04 11.96-13.42 24.79-24.79 55.12-37.63 89.83-38.21-3.79-12.25-5.54-25.38-5.54-39.08 0-8.17.584-16.04 2.04-23.62 4.67-25.67 16.63-48.71 36.46-68.25 13.12-13.13 27.71-22.75 43.75-29.17 14.87-5.83 31.21-9.04 48.42-9.04 13.71 0 26.83 1.75 39.08 5.54 0-35.58 12.83-66.5 38.21-91.87 10.79-10.79 23.04-19.54 35.87-25.67 16.92-8.17 35.87-12.25 56.29-12.25 28.58 0 53.95 8.17 75.83 23.92 6.12-19.83 16.91-37.92 32.66-53.67 25.38-25.37 56.29-38.21 92.17-38.21 35.87 0 67.08 12.83 92.16 38.21 1.75 1.75 3.21 3.5 4.96 5.25 4.67-7 10.21-13.42 16.33-19.54 25.38-25.37 56.29-38.21 92.17-38.21 35.87 0 67.08 12.83 92.16 38.21 17.79 17.79 29.46 38.21 34.71 61.25 9.92-5.83 20.71-10.21 32.08-13.13 10.5-2.63 21.59-4.08 32.96-4.08 35.88 0 67.08 12.83 92.17 38.21 25.37 25.38 38.2 56.29 38.2 92.17 0 16.04-2.62 31.21-7.58 45.21 1.46 1.75 2.63 3.21 3.5 4.67 8.17 11.38 14 24.79 17.21 39.67 7 30.63 2.33 59.5-14.29 85.75-15.17 24.21-37.34 40.83-65.63 49.29-2.62 4.96-5.54 9.63-9.04 13.13-20.41 23.63-46.66 36.46-77.87 38.5-29.46 2.04-56-6.42-78.46-24.79-4.66 9.63-10.5 18.96-18.08 27.42-20.71 23.63-46.96 36.46-77.87 38.5-23.63 1.46-45.21-3.5-64.46-14.88-4.67 10.79-11.08 20.71-19.25 30.04-20.42 23.33-46.67 36.17-77.87 38.21-16.92 1.17-32.96-1.17-47.84-7-3.5 20.12-12.54 38.21-26.54 54.54-20.71 23.63-46.96 36.46-77.87 38.5-6.42.583-12.84.291-18.96-.292 0 1.17.29 2.33.29 3.5 2.04 31.21-7.29 58.91-28 82.25-20.71 23.63-46.96 36.46-77.87 38.5 1.75 7 2.92 14 3.21 21.58 2.04 31.21-7.29 58.91-27.71 82.54-10.5 11.66-22.17 21-35.29 27.41 5.25 72.63 17.21 141.75 35.58 205.33 1.46 4.96 0 10.5-3.79 14.29-31.21 31.5-63.29 48.71-95.67 51.05-4.96.58-9.04.87-13.42.87Zm-98.29-193.37c4.67 0 9.04 2.33 11.96 6.12 3.21 4.38 3.5 10.21 1.17 15.17-7 13.42-10.5 28.58-10.5 45.21 0 7 .583 14 2.04 20.41 3.79 19.55 12.83 36.17 27.71 51.04 19.54 19.55 44.62 28 76.71 25.67 23.04-1.75 46.96-14 71.17-36.75-18.38-65.62-30.04-137.08-34.71-212.04 0-.87-.292-1.45-.292-2.33 0-6.71 4.38-12.25 10.5-14 12.54-4.67 23.33-12.25 32.96-23.33 15.46-17.5 22.17-37.63 20.71-61.25-.875-11.67-3.5-22.46-8.17-32.08-2.33-4.67-2.04-10.5 1.17-14.87s8.46-6.71 13.71-6.13c5.54.583 11.38.875 17.21.291 23.63-1.46 42.58-10.79 58.04-28.58 15.46-17.5 22.17-37.63 20.71-61.25-.584-7-1.75-13.71-3.5-19.83-1.46-5.25 0-10.79 3.79-14.58 3.79-3.79 9.33-5.25 14.58-3.5 9.63 2.92 20.12 4.08 31.21 3.5 23.33-1.46 42.29-10.79 58.04-28.58 14.87-16.92 21.58-35.87 21-57.75 0-5.54 2.62-10.5 7.58-13.13 4.67-2.63 10.5-2.33 15.17.584 15.16 9.92 31.79 14.29 51.04 12.83 23.62-1.46 42.58-10.79 58.04-28.58 10.21-11.38 16.33-23.63 19.25-37.33 1.17-4.96 4.67-9.04 9.62-10.79 4.96-1.75 10.21-.583 14.29 2.92 17.5 15.17 37.34 21.87 60.67 20.12 23.33-1.46 42.29-11.08 58.04-28.87 10.21-11.67 16.33-23.92 19.25-37.92 1.17-5.54 5.25-9.92 10.79-11.38 5.54-1.46 11.08.583 14.88 4.96 3.2 3.79 6.7 7.58 10.5 10.79 17.79 15.46 37.62 22.46 61.25 21 23.33-1.46 42.29-11.08 58.04-28.58 2.62-2.92 4.95-7 7.29-12.25 1.75-4.08 5.54-7.29 9.91-8.46 24.5-5.83 42.29-18.38 54.54-38.21 12.55-19.83 16.05-40.83 10.5-63.87-2.62-11.08-6.7-21-12.83-29.46-.87-1.46-3.21-4.08-7.58-9.04a14.83 14.83 0 0 1-2.34-15.75c5.84-12.54 8.75-26.83 8.75-42 0-28.29-9.62-51.62-29.74-71.75-19.84-19.83-43.46-29.46-71.75-29.46-9.04 0-17.79 1.17-25.96 3.21-14.88 3.79-28.58 11.08-40.54 21.88-4.09 3.79-10.21 4.67-15.46 2.63-5.25-2.33-8.75-7.29-8.75-12.83-1.17-26.25-10.79-48.41-29.75-67.37-19.83-19.83-43.46-29.46-71.75-29.46s-51.62 9.63-71.46 29.46c-9.62 9.63-16.91 20.12-21.58 31.21-2.04 4.96-6.71 8.46-12.25 8.75-5.25.584-10.5-2.04-13.41-6.71-4.09-6.42-9.34-12.83-15.17-18.67-19.83-19.83-43.46-29.46-71.75-29.46s-51.62 9.63-71.46 29.46c-17.79 17.79-27.41 37.92-29.45 62.12-.59 5.83-4.38 10.79-9.92 12.54s-11.67.292-15.46-4.08c-.87-.875-1.75-2.04-2.62-2.92-19.84-19.83-43.46-29.46-71.75-29.46-15.75 0-30.62 3.21-43.46 9.63-10.21 4.96-19.54 11.67-28 20.13-20.13 20.12-29.75 43.46-29.75 71.75 0 4.96.291 9.92.875 14.58l.874 5.25c1.17 5.54-1.17 11.38-5.83 14.58-4.67 3.21-10.79 3.5-15.75.875-3.5-2.04-7-3.79-10.5-4.96-11.67-4.67-24.5-7-37.92-7-13.42 0-26.25 2.33-37.62 6.71-13.13 5.54-24.5 13.12-34.71 23.33-15.46 15.46-24.5 32.96-28 53.08-.875 5.83-1.46 12.25-1.46 18.67 0 17.79 4.08 33.83 11.96 48.12 2.63 4.96 2.33 10.79-.875 15.46-3.21 4.67-8.75 7-14.29 6.13-5.83-.875-11.96-1.46-18.08-1.46-28.29 0-51.62 9.63-71.46 29.46-3.5 3.5-6.71 7-9.33 10.79-13.71 17.79-20.42 37.62-20.42 60.96 0 28.29 9.63 51.62 29.75 71.75l2.92 2.92c3.5 3.5 4.96 8.46 4.08 13.42-1.17 4.96-4.38 8.75-9.04 10.5-12.83 4.67-24.5 12.54-35.29 23.33-16.92 16.92-26.54 36.17-28.87 58.92v.292a87.62 87.62 0 0 0-.875 12.54c0 7 .583 14 2.04 20.42 3.79 19.54 12.83 36.17 27.71 51.04 12.54 12.54 26.83 21.29 42.58 25.67 5.25 1.46 9.33 5.83 10.21 11.38 1.17 5.25-1.17 10.79-5.25 14.29-3.5 2.63-7 5.83-9.92 8.75-20.13 20.13-29.75 43.46-29.75 71.75 0 28.29 9.63 51.62 29.75 71.75 19.83 20.12 43.16 29.75 71.46 29.75 5.83 0 11.37-.29 16.62-1.17.292-.29.88-.58 1.75-.58Z"></path></symbol></svg>