<svg width="3009" height="3009" viewBox="0 0 3009 3009" fill="none" xmlns="http://www.w3.org/2000/svg">
<g clip-path="url(#clip0_4368_3916)">
<path d="M959.284 -428.081C962.201 -433.314 967.953 -436.309 973.913 -435.699C974.439 -435.645 974.909 -435.584 975.226 -435.541C975.586 -435.493 975.726 -435.473 975.905 -435.45L976.708 -435.347C985.064 -434.223 995.019 -431.313 1006 -427.224C1006.01 -427.22 1006.02 -427.214 1006.03 -427.21C1024.06 -420.443 1041.35 -410.494 1057.61 -397.724L1057.61 -397.724C1074.61 -384.577 1088.76 -369.761 1099.45 -353.458L1099.45 -353.459C1107.73 -340.924 1114.64 -328.307 1120.03 -315.756C1120.09 -315.636 1120.14 -315.515 1120.18 -315.394C1120.48 -314.663 1121.3 -312.701 1121.92 -310.936C1121.94 -310.876 1121.97 -310.806 1122 -310.734C1122.04 -310.63 1122.1 -310.482 1122.16 -310.303C1123.25 -307.404 1124.21 -304.293 1125.24 -300.222C1125.24 -300.192 1125.25 -300.163 1125.26 -300.133C1128.09 -288.623 1129.63 -276.132 1130.06 -263.028C1130.06 -263.007 1130.06 -262.986 1130.06 -262.965C1130.09 -262.132 1130.8 -261.373 1131.75 -261.374C1132.68 -261.415 1133.38 -262.201 1133.36 -263.056L1133.36 -263.103C1133.17 -276.089 1131.79 -288.062 1129.37 -298.666C1129.06 -300.016 1128.94 -301.401 1129.01 -302.784C1129.62 -314.372 1132.68 -323.989 1139.32 -330.976C1145.45 -337.421 1152.84 -339.657 1157.66 -340.768L1158.59 -340.975L1158.68 -340.994C1163.9 -342.101 1170.15 -341.884 1177.92 -338.183C1178.17 -338.066 1178.42 -337.941 1178.66 -337.81C1192.08 -330.492 1202.46 -320.571 1208.55 -307.311C1214.51 -294.337 1215.66 -279.68 1213.51 -263.912C1213.49 -263.711 1213.47 -263.511 1213.45 -263.312C1213.44 -263.138 1213.44 -263.054 1213.44 -263.042L1213.44 -263.041C1214.19 -250.272 1212.31 -228.764 1201.76 -193.248C1201.67 -192.835 1201.56 -192.451 1201.45 -192.1C1201.39 -191.789 1201.42 -191.475 1201.56 -191.154C1201.72 -190.808 1201.96 -190.54 1202.23 -190.37L1202.35 -190.303L1202.37 -190.296C1202.41 -190.278 1202.5 -190.237 1202.71 -190.167C1203.54 -189.949 1204.42 -190.451 1204.66 -191.249L1204.67 -191.295C1213.39 -220.406 1217.17 -242.158 1217 -258.196L1217 -258.821C1217.1 -261.939 1218.17 -264.956 1220.06 -267.446C1223.64 -272.15 1227.79 -276.388 1232.33 -279.968L1233.24 -280.675L1233.52 -280.881C1236.84 -283.29 1240.55 -285.53 1244.51 -286.912C1248.27 -288.224 1253.71 -289.246 1259.45 -287.23L1260.01 -287.025L1260.05 -287.007C1264.17 -285.406 1274.2 -281.398 1281.16 -268.413C1287.67 -256.279 1290.37 -238.47 1287.08 -211.961C1287.08 -211.951 1287.08 -211.942 1287.08 -211.933C1285.69 -200.917 1283.32 -188.838 1280.08 -176.155C1279.99 -175.779 1279.87 -175.407 1279.75 -175.039C1279.45 -174.15 1279.24 -173.338 1278.75 -171.593L1278.75 -171.593C1278.35 -170.105 1277.9 -168.656 1277.56 -167.556L1277.55 -167.555C1274.28 -157.048 1270.91 -145.933 1270.34 -143.271C1270.33 -143.226 1270.32 -143.18 1270.31 -143.135C1270.24 -142.786 1270.28 -142.484 1270.42 -142.189C1270.58 -141.859 1270.85 -141.587 1271.18 -141.427C1271.19 -141.422 1271.2 -141.416 1271.21 -141.411C1271.17 -141.431 1271.29 -141.365 1271.63 -141.282C1272.45 -141.112 1273.37 -141.658 1273.58 -142.554L1273.58 -142.553C1274.13 -144.945 1276.5 -153.015 1280.69 -166.496L1280.76 -166.719C1281.02 -167.509 1281.15 -167.913 1281.24 -168.262C1282.39 -172.569 1285.39 -176.144 1289.43 -178.017C1290.05 -178.302 1290.35 -178.437 1290.61 -178.559L1291.64 -179.026L1291.88 -179.137C1303.34 -184.237 1314.81 -184.637 1326.47 -180.348C1326.78 -180.245 1327.01 -180.161 1327.12 -180.119C1327.28 -180.061 1327.42 -180.001 1327.54 -179.949C1328.19 -179.693 1328.84 -179.391 1329.47 -179.036L1329.55 -178.988C1332.5 -177.321 1334.67 -174.798 1335.93 -171.903C1335.93 -171.899 1335.93 -171.895 1335.94 -171.89C1336.59 -170.493 1337.11 -168.95 1337.5 -167.269C1338.23 -164.078 1338.49 -160.24 1338.15 -155.563C1338.14 -155.105 1338.1 -154.677 1338.06 -154.283C1337.11 -139.299 1330.2 -125.869 1322.7 -110.854L1322.7 -110.855C1316.97 -99.29 1310.06 -85.3857 1303.36 -67.7778C1303.32 -67.6737 1303.28 -67.5698 1303.24 -67.4666C1302.77 -66.3224 1302.24 -65.1265 1301.91 -64.3765C1301.17 -62.6007 1301 -62.2904 1300.68 -61.4607C1300.53 -61.0654 1300.36 -60.6761 1300.18 -60.2949C1296.19 -51.9658 1293.89 -47.8725 1292.13 -44.8215L1291.3 -43.3643C1291.28 -43.3186 1291.25 -43.2742 1291.22 -43.2288L1291.09 -42.9503C1290.76 -42.2305 1291.04 -41.2859 1291.8 -40.8587L1291.8 -40.8582C1292.57 -40.4261 1293.58 -40.6724 1294.06 -41.5122L1294.37 -42.0759L1294.56 -42.3877C1295.51 -43.9938 1297.41 -47.14 1300.21 -52.6989L1300.52 -53.2738C1303.78 -59.1189 1310.56 -62.1166 1317.12 -60.5387C1317.42 -60.4651 1317.68 -60.394 1317.87 -60.3376C1318.01 -60.2988 1318.12 -60.2607 1318.22 -60.2305C1319.03 -59.9962 1319.81 -59.6941 1320.57 -59.3275C1325.71 -56.8421 1328.24 -52.6052 1329.42 -49.7847C1330.6 -46.9625 1331.02 -44.2081 1331.2 -42.2289C1331.56 -38.2288 1331.19 -34.1136 1330.81 -31.2034C1330.81 -31.1773 1330.81 -31.1513 1330.8 -31.1252C1328.47 -13.8046 1319.26 5.77991 1305.74 25.4207C1305.74 25.4322 1305.73 25.4437 1305.72 25.4553C1297.2 37.7634 1286.56 46.7459 1273.34 51.7197C1267.21 54.0264 1260.29 52.0854 1256.25 46.9258L1140.86 -100.481L1140.85 -100.5C1134.05 -109.213 1126.71 -117.252 1118.91 -124.653C1116.6 -126.81 1114.38 -128.855 1112.15 -130.799C1094.09 -146.5 1073.97 -158.875 1052.62 -167.83C1052.6 -167.838 1052.58 -167.846 1052.56 -167.854C1048.07 -169.757 1043.5 -171.477 1038.84 -173.068C1038.8 -173.078 1038.76 -173.089 1038.72 -173.101C1038.57 -173.147 1038.31 -173.223 1038.02 -173.321C1032.48 -175.137 1028.5 -179.994 1027.8 -185.778C1026.69 -194.963 1025.68 -204.376 1024.9 -213.986L1024.9 -214.013L1024.7 -216.473C1022.54 -242.692 1019.58 -277.119 1013.31 -304.114L1013.27 -304.315C1006.73 -334.374 996.683 -367.861 970.32 -399.634C968.425 -401.867 964.145 -406.889 960.496 -411.632C956.843 -416.381 956.367 -422.848 959.284 -428.081ZM1211.99 -258.023C1211.84 -257.722 1211.7 -257.439 1211.55 -257.175C1211.71 -257.459 1211.85 -257.742 1211.99 -258.023ZM1212.82 -260.12C1212.7 -259.746 1212.58 -259.389 1212.44 -259.049C1212.38 -258.887 1212.31 -258.73 1212.24 -258.577C1212.47 -259.1 1212.66 -259.616 1212.82 -260.12Z" fill="#E9F6FB" stroke="black" stroke-width="30" stroke-linejoin="round"/>
<path d="M1009.36 -206.126C1012.27 -211.359 1018.03 -214.354 1023.99 -213.744C1024.45 -213.697 1024.86 -213.643 1025.12 -213.608C1025.44 -213.565 1025.51 -213.555 1025.64 -213.539C1032.22 -212.73 1039.9 -210.557 1048.19 -207.548L1049.86 -206.935L1049.9 -206.92C1064.31 -201.508 1078.11 -193.566 1091.04 -183.411L1091.04 -183.412C1104.56 -172.956 1115.88 -161.127 1124.45 -148.048L1124.45 -148.048C1131.02 -138.113 1136.51 -128.086 1140.81 -118.083C1140.86 -117.964 1140.91 -117.843 1140.96 -117.722C1141.14 -117.277 1141.82 -115.649 1142.34 -114.171C1142.35 -114.146 1142.36 -114.12 1142.37 -114.093C1143.6 -120.6 1146.12 -126.354 1150.48 -130.938C1156.29 -137.052 1163.35 -138.851 1167.21 -139.694C1167.24 -139.7 1167.27 -139.707 1167.3 -139.713C1171.93 -140.697 1177.35 -140.484 1183.8 -137.561L1184.42 -137.269L1184.79 -137.088C1184.91 -137.026 1185.03 -136.962 1185.15 -136.896C1196.12 -130.916 1204.81 -122.69 1209.92 -111.561C1213.99 -102.706 1215.33 -93.0158 1214.75 -82.8424C1217.36 -86.0159 1220.3 -88.9031 1223.47 -91.4085L1224.23 -91.9967L1224.51 -92.2022C1227.24 -94.1834 1230.43 -96.1313 1233.94 -97.3561C1237.27 -98.5167 1242.33 -99.5143 1247.78 -97.6025L1248.31 -97.4087L1248.35 -97.3911C1251.83 -96.0406 1260.55 -92.5345 1266.55 -81.3582C1272.09 -71.0327 1274.15 -56.3384 1271.53 -35.3047C1271.53 -35.2955 1271.53 -35.2857 1271.53 -35.2765C1270.59 -27.7862 1269.08 -19.7069 1267.06 -11.2633C1267.6 -11.5995 1268.15 -11.9046 1268.73 -12.1736C1269.28 -12.424 1269.49 -12.5211 1269.68 -12.6051L1270.45 -12.9591L1270.69 -13.0701C1280.4 -17.3905 1290.22 -17.7415 1300.12 -14.117C1300.41 -14.0213 1300.62 -13.9432 1300.72 -13.9042C1300.81 -13.8712 1300.89 -13.836 1300.97 -13.8046C1301.66 -13.5406 1302.34 -13.2225 1303 -12.8485L1303.07 -12.8115C1305.99 -11.1591 1308.15 -8.66724 1309.41 -5.80503L1309.64 -5.30331C1310.15 -4.1197 1310.56 -2.85813 1310.86 -1.52994C1311.51 1.33589 1311.72 4.65397 1311.45 8.53138C1311.43 8.91879 1311.4 9.28314 1311.37 9.6224C1310.56 22.1004 1304.8 33.2052 1299.04 44.7264L1299.04 44.726C1294.57 53.7565 1289.24 64.4925 1284.06 78.0839C1284.02 78.188 1283.98 78.2919 1283.94 78.3951C1283.7 78.9952 1283.43 79.6136 1283.2 80.1295C1286.07 78.9273 1289.31 78.6104 1292.51 79.3792C1292.66 79.4162 1292.8 79.4525 1292.93 79.4856C1293.05 79.5188 1293.16 79.5497 1293.26 79.578C1293.45 79.6336 1293.6 79.6831 1293.71 79.7172C1294.45 79.9428 1295.17 80.2249 1295.87 80.5624C1300.85 82.9751 1303.28 87.0709 1304.38 89.704C1305.48 92.339 1305.86 94.8594 1306.01 96.5789C1306.33 100.059 1306 103.552 1305.69 105.906C1305.69 105.932 1305.69 105.959 1305.68 105.985C1303.77 120.241 1296.25 136.037 1285.56 151.578C1285.55 151.589 1285.54 151.601 1285.54 151.612C1278.56 161.682 1269.75 169.175 1258.7 173.332C1252.57 175.639 1245.65 173.698 1241.61 168.539L1151.48 53.3945L1151.46 53.375C1146.24 46.6804 1140.6 40.505 1134.6 34.8188C1132.83 33.1709 1131.15 31.6241 1129.47 30.1596C1115.64 18.1313 1100.22 8.65024 1083.86 1.7898C1083.84 1.78207 1083.82 1.77425 1083.8 1.76645C1080.4 0.321708 1076.92 -0.988368 1073.36 -2.20389C1073.29 -2.22502 1073.19 -2.25308 1073.08 -2.28603C1072.98 -2.31916 1072.85 -2.35924 1072.7 -2.40642C1067.17 -4.22235 1063.18 -9.08049 1062.48 -14.8652C1061.62 -22.0671 1060.82 -29.4642 1060.21 -37.0257L1060.21 -37.0529L1060.05 -39.0151C1058.35 -59.5402 1056.06 -86.1575 1051.23 -106.952L1051.19 -107.152C1046.12 -130.415 1038.43 -155.95 1018.36 -180.159C1016.9 -181.878 1013.49 -185.882 1010.57 -189.677L1010.24 -190.127C1006.89 -194.828 1006.53 -201.056 1009.36 -206.126ZM1293.25 79.5865C1293.23 79.5818 1293.22 79.576 1293.2 79.5712C1293.18 79.567 1293.17 79.5642 1293.15 79.56C1293.18 79.5688 1293.22 79.5775 1293.25 79.5865ZM1073.13 -2.28467C1073.14 -2.27946 1073.16 -2.27465 1073.17 -2.26974C1073.03 -2.31819 1072.89 -2.36727 1072.76 -2.41977C1072.9 -2.36591 1073.02 -2.32085 1073.13 -2.28467Z" fill="#E9F6FB" stroke="black" stroke-width="30" stroke-linejoin="round"/>
<path d="M298.298 -46.4566C292.307 -46.5468 286.838 -43.0631 284.386 -37.5966C284.17 -37.1133 283.988 -36.6759 283.866 -36.3797C283.728 -36.044 283.676 -35.9128 283.605 -35.7463L283.294 -34.9992C280.089 -27.2008 277.632 -17.1247 275.684 -5.57313C275.681 -5.56001 275.68 -5.54628 275.677 -5.53315C272.527 13.4561 272.494 33.4122 275.427 53.8724L275.426 53.8733C278.31 75.1721 284.065 94.8356 292.842 112.239L292.841 112.24C299.553 125.684 307.028 137.971 315.199 148.92C315.277 149.024 315.357 149.128 315.438 149.231C315.925 149.849 317.21 151.547 318.432 152.962C318.472 153.012 318.517 153.073 318.566 153.134C318.635 153.22 318.736 153.342 318.859 153.488C320.826 155.879 323.039 158.268 326.051 161.193C326.073 161.214 326.095 161.235 326.117 161.256C334.671 169.459 344.715 177.047 355.849 183.969C355.866 183.98 355.885 183.991 355.902 184.002C356.612 184.439 356.911 185.439 356.437 186.259C355.939 187.04 354.907 187.254 354.174 186.813L354.134 186.789C342.986 180.127 333.304 172.95 325.331 165.55C324.317 164.609 323.177 163.812 321.944 163.183C311.607 157.91 301.748 155.753 292.375 158.012C283.731 160.096 278.097 165.38 274.726 168.999L274.082 169.699L274.022 169.766C270.452 173.733 267.513 179.258 266.832 187.841C266.81 188.114 266.796 188.388 266.789 188.662C266.415 203.945 269.815 217.898 278.254 229.801C286.511 241.447 298.631 249.77 313.36 255.795C313.541 255.881 313.725 255.963 313.91 256.041C314.066 256.12 314.138 256.162 314.148 256.169L314.149 256.168C324.832 263.204 344.398 272.332 380.431 280.951C380.836 281.076 381.221 281.177 381.58 281.257C381.881 281.357 382.136 281.543 382.344 281.827C382.567 282.132 382.678 282.476 382.686 282.8L382.684 282.938L382.683 282.956C382.681 282.995 382.671 283.094 382.624 283.315C382.399 284.141 381.521 284.656 380.713 284.462L380.666 284.451C351.095 277.447 330.369 269.842 316.566 261.673L316.021 261.366C313.273 259.89 310.128 259.305 307.024 259.702C301.158 260.451 295.415 261.925 290.046 264.063L288.978 264.5L288.66 264.638C284.913 266.309 281.117 268.404 277.94 271.143C274.922 273.745 271.322 277.938 270.197 283.92L270.095 284.505L270.088 284.553C269.413 288.924 267.872 299.609 275.634 312.134C282.888 323.84 296.962 335.081 321.566 345.483C321.575 345.487 321.583 345.491 321.592 345.494C331.827 349.799 343.47 353.789 356.073 357.326C356.447 357.431 356.825 357.521 357.206 357.596C358.127 357.779 358.934 358.004 360.689 358.455L360.69 358.454C362.178 358.854 363.659 359.185 364.784 359.438L364.785 359.437C375.522 361.854 386.833 364.494 389.421 365.334C389.465 365.348 389.51 365.362 389.554 365.376C389.895 365.484 390.135 365.672 390.318 365.945C390.523 366.249 390.624 366.619 390.602 366.977C390.601 366.989 390.6 367.001 390.6 367.013C390.602 366.968 390.597 367.109 390.5 367.443C390.236 368.241 389.304 368.763 388.425 368.495L388.425 368.496C386.077 367.779 377.903 365.796 364.134 362.684L363.905 362.634C363.091 362.464 362.678 362.371 362.329 362.277C358.026 361.116 353.429 361.928 349.785 364.494C349.231 364.884 348.966 365.073 348.725 365.246L347.81 365.896L347.593 366.05C337.443 373.431 331.365 383.158 329.247 395.406C329.181 395.725 329.139 395.966 329.12 396.083C329.094 396.244 329.076 396.396 329.058 396.531C328.953 397.224 328.893 397.932 328.887 398.653L328.886 398.75C328.854 402.139 329.953 405.282 331.832 407.816C331.835 407.82 331.837 407.825 331.84 407.829C332.722 409.097 333.797 410.32 335.061 411.493C337.46 413.719 340.653 415.865 344.872 417.911C345.276 418.128 345.664 418.312 346.027 418.471C359.475 425.145 374.565 425.871 391.316 426.886L391.315 426.887C404.198 427.702 419.691 428.676 438.291 431.675C438.401 431.693 438.511 431.71 438.622 431.725C439.845 431.895 441.149 432.028 441.964 432.117C443.873 432.362 444.226 432.371 445.102 432.513C445.519 432.581 445.94 432.631 446.361 432.663C455.572 433.367 460.265 433.427 463.789 433.425L465.462 433.44C465.515 433.441 465.567 433.439 465.62 433.439L465.93 433.458C466.715 433.538 467.393 434.253 467.383 435.124L467.383 435.125C467.374 436.006 466.655 436.758 465.691 436.749L465.043 436.743L464.683 436.744C462.812 436.771 459.138 436.843 452.925 436.487L452.275 436.463C445.581 436.367 439.596 440.737 437.683 447.208C437.593 447.51 437.526 447.769 437.478 447.964C437.446 448.098 437.42 448.218 437.399 448.315C437.198 449.132 437.066 449.964 437.005 450.804C436.589 456.495 438.991 460.809 440.843 463.241C442.697 465.675 444.871 467.417 446.496 468.561C449.78 470.874 453.53 472.608 456.239 473.738C456.263 473.748 456.288 473.758 456.312 473.768C472.478 480.408 494.045 482.223 517.812 480.337C517.826 480.336 517.84 480.335 517.854 480.334C532.774 479.108 545.87 474.39 556.79 465.425C561.854 461.267 563.633 454.303 561.184 448.225L491.219 274.595L491.21 274.572C487.063 264.328 483.772 253.952 481.263 243.495C480.548 240.421 479.89 237.471 479.317 234.574C474.749 211.084 474.092 187.472 477.017 164.497C477.019 164.477 477.021 164.456 477.024 164.436C477.62 159.597 478.415 154.78 479.37 149.944C479.378 149.91 479.387 149.871 479.397 149.83C479.436 149.672 479.497 149.414 479.561 149.107C480.756 143.405 478.542 137.527 473.881 134.031C466.48 128.48 458.834 122.896 450.902 117.417L450.879 117.401L448.846 116.003C427.223 101.017 398.888 81.2405 378.641 62.3181L378.49 62.179C355.73 41.483 331.751 16.0421 317.416 -22.6754C316.429 -25.4327 314.221 -31.6505 311.937 -37.1817C309.651 -42.7197 304.289 -46.3664 298.298 -46.4566ZM319.22 257.423C319.553 257.447 319.873 257.46 320.176 257.463C319.85 257.46 319.531 257.445 319.22 257.423ZM316.99 257.09C317.372 257.177 317.744 257.246 318.106 257.3C318.278 257.326 318.447 257.346 318.613 257.365C318.046 257.301 317.505 257.208 316.99 257.09Z" fill="#E9F6FB" stroke="black" stroke-width="30" stroke-linejoin="round"/>
<path d="M465.479 107.885C459.488 107.794 454.018 111.278 451.566 116.745C451.375 117.172 451.217 117.553 451.119 117.791C450.997 118.09 450.97 118.157 450.918 118.279C448.327 124.384 446.37 132.119 444.83 140.805L444.527 142.557L444.52 142.597C442 157.785 441.98 173.705 444.311 189.978L444.31 189.979C446.603 206.917 451.189 222.632 458.23 236.596L458.229 236.597C463.549 247.253 469.488 257.02 476 265.746C476.078 265.85 476.157 265.954 476.238 266.056C476.534 266.433 477.602 267.841 478.623 269.029C478.639 269.05 478.657 269.072 478.675 269.095C472.426 266.902 466.182 266.21 460.032 267.693C451.832 269.67 446.746 274.881 444.086 277.803C444.066 277.825 444.045 277.847 444.025 277.869C440.855 281.393 438.329 286.193 437.638 293.236L437.577 293.925L437.55 294.335C437.543 294.471 437.538 294.608 437.534 294.745C437.229 307.234 440.01 318.868 447.093 328.859C452.729 336.808 460.45 342.815 469.551 347.398C465.494 348.079 461.525 349.178 457.768 350.674L456.88 351.036L456.563 351.174C453.482 352.549 450.199 354.339 447.382 356.768C444.714 359.069 441.318 362.955 440.252 368.626L440.156 369.179L440.149 369.227C439.579 372.916 438.254 382.222 444.935 393.003C451.107 402.963 462.803 412.094 482.325 420.348C482.334 420.351 482.343 420.355 482.352 420.359C489.311 423.286 497.063 426.018 505.383 428.494C504.824 428.789 504.281 429.12 503.757 429.489C503.27 429.832 503.079 429.969 502.913 430.088L502.221 430.579L502.004 430.733C493.405 436.986 488.191 445.315 486.38 455.701C486.32 455.996 486.282 456.218 486.264 456.326C486.25 456.418 486.239 456.507 486.227 456.591C486.111 457.319 486.047 458.066 486.04 458.826L486.039 458.901C486.008 462.26 487.086 465.377 488.935 467.899L489.256 468.347C490.024 469.384 490.914 470.366 491.912 471.292C494.067 473.291 496.836 475.132 500.332 476.831C500.675 477.013 501.005 477.17 501.316 477.309C512.526 482.849 525.026 483.408 537.88 484.186L537.879 484.187C547.939 484.823 559.901 485.577 574.259 487.892C574.369 487.91 574.479 487.927 574.589 487.942C575.231 488.031 575.901 488.106 576.461 488.168C573.987 490.05 572.089 492.703 571.157 495.854C571.113 496.006 571.074 496.145 571.041 496.268C571.009 496.391 570.98 496.502 570.956 496.6C570.91 496.792 570.874 496.952 570.851 497.06C570.677 497.814 570.56 498.581 570.503 499.354C570.099 504.879 572.434 509.027 574.163 511.297C575.894 513.57 577.89 515.154 579.301 516.148C582.159 518.16 585.346 519.623 587.537 520.537C587.562 520.547 587.586 520.558 587.61 520.568C600.917 526.033 618.352 527.427 637.158 525.935C637.172 525.934 637.186 525.933 637.2 525.932C649.407 524.928 660.301 521.044 669.428 513.55C674.492 509.392 676.271 502.429 673.822 496.352L619.17 360.724L619.161 360.701C615.974 352.831 613.448 344.856 611.523 336.818C610.977 334.468 610.481 332.234 610.049 330.052C606.551 312.055 606.047 293.966 608.288 276.364C608.29 276.344 608.293 276.324 608.295 276.304C608.748 272.631 609.352 268.964 610.08 265.272C610.098 265.199 610.121 265.103 610.146 264.994C610.171 264.883 610.201 264.751 610.233 264.603C611.428 258.9 609.213 253.021 604.551 249.525C598.748 245.173 592.741 240.784 586.498 236.473L586.476 236.457L584.854 235.341C567.927 223.61 546.025 208.312 530.429 193.736L530.278 193.597C512.663 177.58 494.396 158.15 483.464 128.667C482.705 126.545 480.944 121.586 479.117 117.16L478.895 116.646C476.496 111.397 471.282 107.972 465.479 107.885ZM570.966 496.6C570.971 496.583 570.974 496.565 570.979 496.547C570.983 496.531 570.989 496.516 570.993 496.5C570.984 496.533 570.975 496.567 570.966 496.6ZM610.125 265.032C610.122 265.048 610.119 265.063 610.116 265.078C610.143 264.934 610.17 264.789 610.193 264.644C610.169 264.793 610.146 264.924 610.125 265.032Z" fill="#E9F6FB" stroke="black" stroke-width="30" stroke-linejoin="round"/>
<path d="M664.245 399.705C733.726 555.076 891.332 650.677 983.774 688.885C1002.23 696.515 1023 694.168 1040.3 684.181L1130.67 632.007L1221.04 579.832C1238.33 569.846 1250.75 553.033 1253.37 533.232C1266.51 434.07 1262.52 249.779 1162.7 111.921C1155.19 101.547 1147.84 92.2273 1140.66 83.8948C1093.59 95.3914 990.771 145.352 928.645 184.354L886.324 208.789L844.002 233.223C779.162 267.524 684.483 331.591 650.996 366.6C654.62 376.988 659.016 388.012 664.245 399.705Z" fill="white"/>
<path d="M591.248 419.901L566.111 446.953C552.474 466.087 540.244 485.067 530.065 503.951C466.563 621.759 482.904 735.808 735.665 860.062L818.523 812.224C866.742 784.384 865.08 713.099 819.402 681.261C677.035 582.033 614.215 472.904 591.248 419.901Z" fill="white"/>
<path d="M1252.69 50.5587L1216.69 58.8018C1251.11 105.194 1314.21 214.162 1328.96 387.069C1333.69 442.547 1394.59 479.629 1442.81 451.789L1525.67 403.951C1544.45 122.927 1453.85 51.7506 1320.07 47.841C1298.63 47.2142 1276.07 48.316 1252.69 50.5587Z" fill="white"/>
<path d="M591.248 419.901L566.111 446.953M735.665 860.062L818.523 812.224C866.742 784.384 865.08 713.099 819.402 681.261C677.036 582.033 614.215 472.904 591.248 419.901C591.248 419.901 471.986 157.048 710.035 142.363M566.111 446.953C334.444 308.344 122.505 696.132 668.76 945.645C682.404 951.877 694.379 962.332 701.879 975.323C729.765 1023.63 749.691 1058.14 763.909 1082.77C783.235 1116.24 826.005 1127.66 859.478 1108.34L1269.13 871.826L1678.78 635.314C1712.25 615.989 1723.74 573.236 1704.42 539.764C1690.2 515.137 1670.27 480.624 1642.38 432.322C1634.88 419.331 1631.82 403.734 1633.24 388.801C1690.28 -209.026 1248.48 -219.375 1252.69 50.5587M566.111 446.953C552.474 466.087 540.244 485.067 530.065 503.951M1525.67 403.951L1442.81 451.789C1394.59 479.629 1333.69 442.547 1328.96 387.069C1314.21 214.162 1251.11 105.194 1216.69 58.8018C1216.69 58.8018 1048.68 -175.908 916.942 22.906C903.592 43.0519 890.615 67.6492 878.223 97.3931C864.363 130.661 829.643 150.706 793.902 146.076C761.947 141.936 734.157 140.875 710.035 142.363M710.035 142.363C691.99 107.487 675.648 26.3328 754.649 -19.2783C833.65 -64.8893 895.761 -10.16 916.942 22.906M735.665 860.062L712.633 873.359C694.47 883.846 672.435 885.882 653.313 877.267C511.981 813.587 430.867 702.348 408.087 651.051C388.718 612.074 364.361 526.446 412.471 501.178C441.337 486.017 476.666 480.964 530.065 503.951M735.665 860.062C482.904 735.809 466.563 621.759 530.065 503.951M650.996 366.6C684.483 331.591 779.162 267.524 844.002 233.223L886.324 208.789L928.645 184.355C990.771 145.352 1093.59 95.3914 1140.66 83.8948M844.002 233.223C761.331 197.91 587.432 184.402 650.996 366.6M650.996 366.6C654.62 376.988 659.016 388.012 664.245 399.705C733.726 555.076 891.332 650.677 983.774 688.885C1002.23 696.515 1023 694.168 1040.3 684.181L1130.67 632.007L1221.04 579.832C1238.33 569.845 1250.75 553.033 1253.37 533.232C1266.51 434.07 1262.52 249.779 1162.7 111.921C1155.19 101.547 1147.84 92.2273 1140.66 83.8948M1216.69 58.8018L1252.69 50.5587M1252.69 50.5587C1276.07 48.316 1298.63 47.2143 1320.07 47.841M1525.67 403.951L1548.7 390.654C1566.87 380.167 1579.65 362.102 1581.75 341.234C1597.27 186.998 1541.49 61.1315 1508.45 15.7548C1484.38 -20.5071 1422.4 -84.4157 1376.47 -55.3853C1348.9 -37.9671 1326.86 -9.89731 1320.07 47.841M1525.67 403.951C1544.45 122.927 1453.85 51.7507 1320.07 47.841M928.645 184.355C939.399 95.1025 1014.65 -62.2521 1140.66 83.8948M748.344 -95.9953C755.755 -121.558 740.722 -148.221 715.014 -155.109C689.672 -161.9 663.624 -146.861 656.833 -121.519C649.945 -95.8106 665.519 -69.4596 691.363 -63.0971C716.106 -57.0055 741.248 -71.5213 748.344 -95.9953Z" stroke="black" stroke-width="30.004"/>
<path fill-rule="evenodd" clip-rule="evenodd" d="M566.111 446.952C334.444 308.344 122.504 696.132 668.76 945.645C682.404 951.877 694.378 962.332 701.878 975.323C729.765 1023.63 749.691 1058.14 763.909 1082.77C783.235 1116.24 826.005 1127.66 859.478 1108.34L1269.13 871.826L1678.78 635.314C1712.25 615.989 1723.74 573.237 1704.42 539.764C1690.2 515.137 1670.27 480.624 1642.38 432.322C1634.88 419.331 1631.82 403.734 1633.24 388.801C1690.28 -209.026 1248.48 -219.375 1252.69 50.5587C1276.07 48.3159 1298.63 47.2142 1320.07 47.8409C1326.86 -9.89736 1348.9 -37.9672 1376.47 -55.3854C1422.4 -84.4157 1484.38 -20.5071 1508.45 15.7547C1541.49 61.1314 1597.27 186.998 1581.75 341.234C1579.65 362.102 1566.87 380.167 1548.7 390.654L1525.67 403.951L1442.81 451.789C1394.59 479.629 1333.69 442.547 1328.96 387.069C1314.21 214.162 1251.11 105.194 1216.69 58.8018C1216.69 58.8018 1048.68 -175.908 916.942 22.906C903.592 43.0519 890.615 67.6492 878.223 97.3931C864.363 130.661 829.643 150.706 793.902 146.076C761.947 141.936 734.157 140.875 710.035 142.363C471.986 157.048 591.248 419.901 591.248 419.901C614.215 472.904 677.035 582.033 819.402 681.261C865.08 713.099 866.742 784.384 818.523 812.224L735.665 860.062L712.633 873.359C694.469 883.846 672.435 885.882 653.313 877.267C511.981 813.587 430.867 702.348 408.087 651.051C388.718 612.074 364.36 526.446 412.471 501.178C441.337 486.017 476.666 480.964 530.065 503.951C540.244 485.067 552.474 466.087 566.111 446.952ZM1040.3 684.181C1023 694.168 1002.23 696.515 983.774 688.885C891.332 650.677 733.726 555.076 664.245 399.705C659.016 388.012 654.62 376.988 650.996 366.6C587.432 184.402 761.331 197.91 844.002 233.223L886.324 208.789L928.645 184.354C939.398 95.1024 1014.65 -62.2521 1140.66 83.8947C1147.84 92.2273 1155.19 101.547 1162.7 111.921C1262.52 249.779 1266.51 434.07 1253.37 533.231C1250.75 553.033 1238.33 569.845 1221.04 579.832L1130.67 632.006L1040.3 684.181Z" fill="#5BC8FB"/>
<path d="M710.035 142.363C734.157 140.875 761.947 141.936 793.902 146.076C829.643 150.706 864.363 130.661 878.223 97.3931C890.615 67.6492 903.592 43.0519 916.942 22.906C895.761 -10.16 833.65 -64.8893 754.649 -19.2783C675.648 26.3327 691.99 107.487 710.035 142.363Z" fill="#5BC8FB"/>
<path d="M735.644 -52.1952L644.285 -74.6874L669.128 -167.404L761.845 -142.561L735.644 -52.1952Z" fill="#F35B5B"/>
<path d="M591.248 419.901L566.111 446.953M735.665 860.062L818.523 812.224C866.742 784.384 865.08 713.099 819.402 681.261C677.035 582.033 614.215 472.904 591.248 419.901C591.248 419.901 471.986 157.048 710.035 142.363C734.157 140.875 761.947 141.936 793.902 146.076C829.643 150.706 864.363 130.661 878.223 97.3931C890.615 67.6492 903.592 43.0519 916.942 22.906C1048.68 -175.908 1216.69 58.8018 1216.69 58.8018C1251.11 105.194 1314.21 214.162 1328.96 387.069C1333.69 442.547 1394.59 479.629 1442.81 451.789L1525.67 403.951M566.111 446.953C334.444 308.344 122.504 696.132 668.76 945.645C682.404 951.877 694.378 962.332 701.878 975.323C729.765 1023.63 749.691 1058.14 763.909 1082.77C783.235 1116.24 826.005 1127.66 859.478 1108.34L1269.13 871.826L1678.78 635.314C1712.25 615.989 1723.74 573.236 1704.42 539.764C1690.2 515.137 1670.27 480.624 1642.38 432.322C1634.88 419.331 1631.82 403.734 1633.24 388.801C1690.28 -209.026 1248.48 -219.375 1252.69 50.5587M566.111 446.953C552.474 466.087 540.244 485.067 530.065 503.951M710.035 142.363C691.99 107.487 675.648 26.3327 754.649 -19.2783C833.65 -64.8894 895.761 -10.1601 916.942 22.906M735.665 860.062L712.633 873.359C694.469 883.846 672.435 885.882 653.313 877.267C511.981 813.587 430.867 702.348 408.087 651.051C388.718 612.074 364.361 526.446 412.471 501.178C441.337 486.017 476.666 480.964 530.065 503.951M735.665 860.062C482.904 735.808 466.563 621.759 530.065 503.951M650.996 366.6C684.483 331.591 779.162 267.524 844.002 233.223L886.324 208.789L928.645 184.354C990.771 145.352 1093.59 95.3914 1140.66 83.8947M844.002 233.223C761.331 197.91 587.432 184.402 650.996 366.6M650.996 366.6C654.62 376.988 659.016 388.012 664.245 399.705C733.726 555.076 891.332 650.677 983.774 688.885C1002.23 696.515 1023 694.168 1040.3 684.181L1130.67 632.006L1221.04 579.832C1238.33 569.845 1250.75 553.033 1253.37 533.231C1266.51 434.07 1262.52 249.779 1162.7 111.921C1155.19 101.546 1147.84 92.2273 1140.66 83.8947M1216.69 58.8018L1252.69 50.5587M1252.69 50.5587C1276.07 48.3159 1298.63 47.2142 1320.07 47.8409M1525.67 403.951L1548.7 390.654C1566.87 380.167 1579.65 362.102 1581.75 341.234C1597.27 186.998 1541.49 61.1314 1508.45 15.7547C1484.38 -20.5071 1422.4 -84.4158 1376.47 -55.3854C1348.9 -37.9671 1326.86 -9.89736 1320.07 47.8409M1525.67 403.951C1544.45 122.927 1453.85 51.7506 1320.07 47.8409M928.645 184.354C939.399 95.1024 1014.65 -62.2521 1140.66 83.8947M735.644 -52.1952L644.285 -74.6874L669.128 -167.404L761.845 -142.561L735.644 -52.1952Z" stroke="black" stroke-width="30.004"/>
<path d="M1054.15 343.441L1030.53 335.333L917.952 400.331L916.949 428.967L1082.6 565.644C1086.92 567.07 1090.91 568.34 1094.54 569.436L1054.15 343.441Z" fill="#88E6F5"/>
<path d="M1094.54 569.436C1108.11 511.571 1130.1 353.937 1125.25 288.144C1121.87 285.792 1117.31 283.001 1111.93 279.945L1054.15 343.441L1094.54 569.436Z" fill="#88E6F5"/>
<path fill-rule="evenodd" clip-rule="evenodd" d="M921.778 270.197C902.66 280.672 865.649 305.853 846.58 329.032C840.382 349.707 834.393 416.96 835.209 448.103C835.28 450.824 835.403 453.27 835.583 455.385C886.658 490.111 1019.21 544.716 1082.6 565.644L916.949 428.967L917.952 400.331L1030.53 335.333L1010.33 234.491C980.721 239.417 940.408 258.878 921.778 270.197Z" fill="#88E6F5"/>
<path d="M1082.6 565.644C1019.21 544.716 886.658 490.111 835.583 455.385C835.403 453.27 835.28 450.824 835.209 448.103C834.393 416.96 840.382 349.707 846.58 329.032C865.649 305.853 902.66 280.672 921.778 270.197C940.408 258.878 980.721 239.417 1010.33 234.491C1029.61 239.054 1082.79 263.391 1111.93 279.945C1117.31 283.001 1121.87 285.792 1125.25 288.144C1130.1 353.937 1108.11 511.571 1094.54 569.436C1090.91 568.34 1086.92 567.07 1082.6 565.644ZM846.58 329.032L917.952 400.331M1094.54 569.436L1054.15 343.441M1010.33 234.491L1030.53 335.333M1030.53 335.333L1054.15 343.441M1030.53 335.333L917.952 400.331M1054.15 343.441L1111.93 279.945M917.952 400.331L916.949 428.967M916.949 428.967L835.209 448.103M916.949 428.967L1082.6 565.644" stroke="black" stroke-width="30" stroke-linecap="round" stroke-linejoin="round"/>
<path d="M1030.54 335.343L1010.33 234.501C989.025 238.045 962.175 249.118 941.851 259.266L1017.44 342.906L1030.54 335.343Z" fill="#5FD8F0"/>
<path d="M1010.33 234.491L1030.53 335.333L1054.15 343.441L1111.93 279.945C1082.79 263.391 1029.61 239.054 1010.33 234.491Z" fill="#5FD8F0"/>
<path d="M1054.15 343.441L1030.53 335.333L917.952 400.331L916.949 428.967L1082.6 565.644C1086.92 567.07 1090.91 568.34 1094.54 569.436L1054.15 343.441Z" fill="#5FD8F0"/>
<path d="M1094.54 569.436C1108.11 511.571 1130.1 353.937 1125.25 288.144C1121.87 285.792 1117.31 283.001 1111.93 279.945L1054.15 343.441L1094.54 569.436Z" fill="#5FD8F0"/>
<path d="M1082.6 565.644C1019.21 544.716 886.658 490.111 835.583 455.385C835.403 453.27 835.28 450.824 835.209 448.103C834.393 416.96 840.382 349.707 846.58 329.032C865.649 305.853 902.66 280.672 921.778 270.197C940.408 258.878 980.721 239.417 1010.33 234.491C1029.61 239.054 1082.79 263.391 1111.93 279.945C1117.31 283.001 1121.87 285.792 1125.25 288.144C1130.1 353.937 1108.11 511.571 1094.54 569.436C1090.91 568.34 1086.92 567.07 1082.6 565.644ZM846.58 329.032L917.952 400.331M1094.54 569.436L1054.15 343.441M1010.33 234.491L1030.53 335.333M1030.53 335.333L1054.15 343.441M1030.53 335.333L917.952 400.331M1054.15 343.441L1111.93 279.945M917.952 400.331L916.949 428.967M916.949 428.967L835.209 448.103M916.949 428.967L1082.6 565.644" stroke="black" stroke-width="30" stroke-linecap="round" stroke-linejoin="round"/>
<path d="M1054.15 343.441L1030.53 335.333L917.952 400.331L916.949 428.967L1082.6 565.644C1086.92 567.07 1090.91 568.34 1094.54 569.436L1054.15 343.441Z" fill="#88E6F5"/>
<path d="M1094.54 569.436C1108.11 511.571 1130.1 353.937 1125.25 288.144C1121.87 285.792 1117.31 283.001 1111.93 279.945L1054.15 343.441L1094.54 569.436Z" fill="#88E6F5"/>
<path fill-rule="evenodd" clip-rule="evenodd" d="M921.778 270.197C902.66 280.672 865.649 305.853 846.58 329.032C840.382 349.707 834.393 416.96 835.209 448.103C835.28 450.824 835.403 453.27 835.583 455.385C886.658 490.111 1019.21 544.716 1082.6 565.644L916.949 428.967L917.952 400.331L1030.53 335.333L1010.33 234.491C980.721 239.417 940.408 258.878 921.778 270.197Z" fill="#88E6F5"/>
<path d="M1082.6 565.644C1019.21 544.716 886.658 490.111 835.583 455.385C835.403 453.27 835.28 450.824 835.209 448.103C834.393 416.96 840.382 349.707 846.58 329.032C865.649 305.853 902.66 280.672 921.778 270.197C940.408 258.878 980.721 239.417 1010.33 234.491C1029.61 239.054 1082.79 263.391 1111.93 279.945C1117.31 283.001 1121.87 285.792 1125.25 288.144C1130.1 353.937 1108.11 511.571 1094.54 569.436C1090.91 568.34 1086.92 567.07 1082.6 565.644ZM846.58 329.032L917.952 400.331M1094.54 569.436L1054.15 343.441M1010.33 234.491L1030.53 335.333M1030.53 335.333L1054.15 343.441M1030.53 335.333L917.952 400.331M1054.15 343.441L1111.93 279.945M917.952 400.331L916.949 428.967M916.949 428.967L835.209 448.103M916.949 428.967L1082.6 565.644" stroke="black" stroke-width="30" stroke-linecap="round" stroke-linejoin="round"/>
<path d="M1030.54 335.343L1010.33 234.501C989.025 238.045 962.175 249.118 941.851 259.266L1017.44 342.906L1030.54 335.343Z" fill="#5FD8F0"/>
<path d="M1010.33 234.491L1030.53 335.333L1054.15 343.441L1111.93 279.945C1082.79 263.391 1029.61 239.054 1010.33 234.491Z" fill="#5FD8F0"/>
<path d="M1054.15 343.441L1030.53 335.333L917.952 400.331L916.949 428.967L1082.6 565.644C1086.92 567.07 1090.91 568.34 1094.54 569.436L1054.15 343.441Z" fill="#5FD8F0"/>
<path d="M1094.54 569.436C1108.11 511.571 1130.1 353.937 1125.25 288.144C1121.87 285.792 1117.31 283.001 1111.93 279.945L1054.15 343.441L1094.54 569.436Z" fill="#5FD8F0"/>
<path d="M1082.6 565.644C1019.21 544.716 886.658 490.111 835.583 455.385C835.403 453.27 835.28 450.824 835.209 448.103C834.393 416.96 840.382 349.707 846.58 329.032C865.649 305.853 902.66 280.672 921.778 270.197C940.408 258.878 980.721 239.417 1010.33 234.491C1029.61 239.054 1082.79 263.391 1111.93 279.945C1117.31 283.001 1121.87 285.792 1125.25 288.144C1130.1 353.937 1108.11 511.571 1094.54 569.436C1090.91 568.34 1086.92 567.07 1082.6 565.644ZM846.58 329.032L917.952 400.331M1094.54 569.436L1054.15 343.441M1010.33 234.491L1030.53 335.333M1030.53 335.333L1054.15 343.441M1030.53 335.333L917.952 400.331M1054.15 343.441L1111.93 279.945M917.952 400.331L916.949 428.967M916.949 428.967L835.209 448.103M916.949 428.967L1082.6 565.644" stroke="black" stroke-width="30" stroke-linecap="round" stroke-linejoin="round"/>
</g>
<defs>
<clipPath id="clip0_4368_3916">
<rect width="3000" height="3000" fill="white" transform="translate(0 8.055) rotate(-0.153839)"/>
</clipPath>
</defs>
</svg>
