<svg width="3009" height="3009" viewBox="0 0 3009 3009" fill="none" xmlns="http://www.w3.org/2000/svg"><g clip-path="url(#clip0_4368_3916)"><path d="M959.28 -428.08C962.2 -433.31 967.95 -436.31 973.91 -435.7C974.44 -435.64 974.91 -435.58 975.23 -435.54C975.59 -435.49 975.73 -435.47 975.9 -435.45L976.71 -435.35C985.06 -434.22 995.02 -431.31 1006 -427.22C1006.01 -427.22 1006.02 -427.21 1006.03 -427.21C1024.06 -420.44 1041.35 -410.49 1057.61 -397.72L1057.61 -397.72C1074.61 -384.58 1088.76 -369.76 1099.45 -353.46L1099.45 -353.46C1107.73 -340.92 1114.64 -328.31 1120.03 -315.76C1120.09 -315.64 1120.14 -315.51 1120.18 -315.39C1120.48 -314.66 1121.3 -312.7 1121.92 -310.94C1121.94 -310.88 1121.97 -310.81 1122 -310.73C1122.04 -310.63 1122.1 -310.48 1122.16 -310.3C1123.25 -307.4 1124.21 -304.29 1125.24 -300.22C1125.24 -300.19 1125.25 -300.16 1125.26 -300.13C1128.09 -288.62 1129.63 -276.13 1130.06 -263.03C1130.06 -263.01 1130.06 -262.99 1130.06 -262.96C1130.09 -262.13 1130.8 -261.37 1131.75 -261.37C1132.68 -261.42 1133.38 -262.2 1133.36 -263.06L1133.36 -263.1C1133.17 -276.09 1131.79 -288.06 1129.37 -298.67C1129.06 -300.02 1128.94 -301.4 1129.01 -302.78C1129.62 -314.37 1132.68 -323.99 1139.32 -330.98C1145.45 -337.42 1152.84 -339.66 1157.66 -340.77L1158.59 -340.98L1158.68 -340.99C1163.9 -342.1 1170.15 -341.88 1177.92 -338.18C1178.17 -338.07 1178.42 -337.94 1178.66 -337.81C1192.08 -330.49 1202.46 -320.57 1208.55 -307.31C1214.51 -294.34 1215.66 -279.68 1213.51 -263.91C1213.49 -263.71 1213.47 -263.51 1213.45 -263.31C1213.44 -263.14 1213.44 -263.05 1213.44 -263.04L1213.44 -263.04C1214.19 -250.27 1212.31 -228.76 1201.76 -193.25C1201.67 -192.84 1201.56 -192.45 1201.45 -192.1C1201.39 -191.79 1201.42 -191.47 1201.56 -191.15C1201.72 -190.81 1201.96 -190.54 1202.23 -190.37L1202.35 -190.3L1202.37 -190.3C1202.41 -190.28 1202.5 -190.24 1202.71 -190.17C1203.54 -189.95 1204.42 -190.45 1204.66 -191.25L1204.67 -191.29C1213.39 -220.41 1217.17 -242.16 1217 -258.2L1217 -258.82C1217.1 -261.94 1218.17 -264.96 1220.06 -267.45C1223.64 -272.15 1227.79 -276.39 1232.33 -279.97L1233.24 -280.68L1233.52 -280.88C1236.84 -283.29 1240.55 -285.53 1244.51 -286.91C1248.27 -288.22 1253.71 -289.25 1259.45 -287.23L1260.01 -287.02L1260.05 -287.01C1264.17 -285.41 1274.2 -281.4 1281.16 -268.41C1287.67 -256.28 1290.37 -238.47 1287.08 -211.96C1287.08 -211.95 1287.08 -211.94 1287.08 -211.93C1285.69 -200.92 1283.32 -188.84 1280.08 -176.16C1279.99 -175.78 1279.87 -175.41 1279.75 -175.04C1279.45 -174.15 1279.24 -173.34 1278.75 -171.59L1278.75 -171.59C1278.35 -170.1 1277.9 -168.66 1277.56 -167.56L1277.55 -167.56C1274.28 -157.05 1270.91 -145.93 1270.34 -143.27C1270.33 -143.23 1270.32 -143.18 1270.31 -143.13C1270.24 -142.79 1270.28 -142.48 1270.42 -142.19C1270.58 -141.86 1270.85 -141.59 1271.18 -141.43C1271.19 -141.42 1271.2 -141.42 1271.21 -141.41C1271.17 -141.43 1271.29 -141.37 1271.63 -141.28C1272.45 -141.11 1273.37 -141.66 1273.58 -142.55L1273.58 -142.55C1274.13 -144.94 1276.5 -153.01 1280.69 -166.5L1280.76 -166.72C1281.02 -167.51 1281.15 -167.91 1281.24 -168.26C1282.39 -172.57 1285.39 -176.14 1289.43 -178.02C1290.05 -178.3 1290.35 -178.44 1290.61 -178.56L1291.64 -179.03L1291.88 -179.14C1303.34 -184.24 1314.81 -184.64 1326.47 -180.35C1326.78 -180.25 1327.01 -180.16 1327.12 -180.12C1327.28 -180.06 1327.42 -180 1327.54 -179.95C1328.19 -179.69 1328.84 -179.39 1329.47 -179.04L1329.55 -178.99C1332.5 -177.32 1334.67 -174.8 1335.93 -171.9C1335.93 -171.9 1335.93 -171.9 1335.94 -171.89C1336.59 -170.49 1337.11 -168.95 1337.5 -167.27C1338.23 -164.08 1338.49 -160.24 1338.15 -155.56C1338.14 -155.1 1338.1 -154.68 1338.06 -154.28C1337.11 -139.3 1330.2 -125.87 1322.7 -110.85L1322.7 -110.86C1316.97 -99.29 1310.06 -85.39 1303.36 -67.78C1303.32 -67.67 1303.28 -67.57 1303.24 -67.47C1302.77 -66.32 1302.24 -65.13 1301.91 -64.38C1301.17 -62.6 1301 -62.29 1300.68 -61.46C1300.53 -61.07 1300.36 -60.68 1300.18 -60.29C1296.19 -51.97 1293.89 -47.87 1292.13 -44.82L1291.3 -43.36C1291.28 -43.32 1291.25 -43.27 1291.22 -43.23L1291.09 -42.95C1290.76 -42.23 1291.04 -41.29 1291.8 -40.86L1291.8 -40.86C1292.57 -40.43 1293.58 -40.67 1294.06 -41.51L1294.37 -42.08L1294.56 -42.39C1295.51 -43.99 1297.41 -47.14 1300.21 -52.7L1300.52 -53.27C1303.78 -59.12 1310.56 -62.12 1317.12 -60.54C1317.42 -60.47 1317.68 -60.39 1317.87 -60.34C1318.01 -60.3 1318.12 -60.26 1318.22 -60.23C1319.03 -60 1319.81 -59.69 1320.57 -59.33C1325.71 -56.84 1328.24 -52.61 1329.42 -49.78C1330.6 -46.96 1331.02 -44.21 1331.2 -42.23C1331.56 -38.23 1331.19 -34.11 1330.81 -31.2C1330.81 -31.18 1330.81 -31.15 1330.8 -31.13C1328.47 -13.8 1319.26 5.78 1305.74 25.42C1305.74 25.43 1305.73 25.44 1305.72 25.46C1297.2 37.76 1286.56 46.75 1273.34 51.72C1267.21 54.03 1260.29 52.09 1256.25 46.93L1140.86 -100.48L1140.85 -100.5C1134.05 -109.21 1126.71 -117.25 1118.91 -124.65C1116.6 -126.81 1114.38 -128.85 1112.15 -130.8C1094.09 -146.5 1073.97 -158.88 1052.62 -167.83C1052.6 -167.84 1052.58 -167.85 1052.56 -167.85C1048.07 -169.76 1043.5 -171.48 1038.84 -173.07C1038.8 -173.08 1038.76 -173.09 1038.72 -173.1C1038.57 -173.15 1038.31 -173.22 1038.02 -173.32C1032.48 -175.14 1028.5 -179.99 1027.8 -185.78C1026.69 -194.96 1025.68 -204.38 1024.9 -213.99L1024.9 -214.01L1024.7 -216.47C1022.54 -242.69 1019.58 -277.12 1013.31 -304.11L1013.27 -304.31C1006.73 -334.37 996.68 -367.86 970.32 -399.63C968.42 -401.87 964.14 -406.89 960.5 -411.63C956.84 -416.38 956.37 -422.85 959.28 -428.08ZM1211.99 -258.02C1211.84 -257.72 1211.7 -257.44 1211.55 -257.18C1211.71 -257.46 1211.85 -257.74 1211.99 -258.02ZM1212.82 -260.12C1212.7 -259.75 1212.58 -259.39 1212.44 -259.05C1212.38 -258.89 1212.31 -258.73 1212.24 -258.58C1212.47 -259.1 1212.66 -259.62 1212.82 -260.12Z" fill="#E9F6FB" stroke="black" stroke-width="30" stroke-linejoin="round"/><path d="M1009.36 -206.13C1012.27 -211.36 1018.03 -214.35 1023.99 -213.74C1024.45 -213.7 1024.86 -213.64 1025.12 -213.61C1025.44 -213.56 1025.51 -213.56 1025.64 -213.54C1032.22 -212.73 1039.9 -210.56 1048.19 -207.55L1049.86 -206.94L1049.9 -206.92C1064.31 -201.51 1078.11 -193.57 1091.04 -183.41L1091.04 -183.41C1104.56 -172.96 1115.88 -161.13 1124.45 -148.05L1124.45 -148.05C1131.02 -138.11 1136.51 -128.09 1140.81 -118.08C1140.86 -117.96 1140.91 -117.84 1140.96 -117.72C1141.14 -117.28 1141.82 -115.65 1142.34 -114.17C1142.35 -114.15 1142.36 -114.12 1142.37 -114.09C1143.6 -120.6 1146.12 -126.35 1150.48 -130.94C1156.29 -137.05 1163.35 -138.85 1167.21 -139.69C1167.24 -139.7 1167.27 -139.71 1167.3 -139.71C1171.93 -140.7 1177.35 -140.48 1183.8 -137.56L1184.42 -137.27L1184.79 -137.09C1184.91 -137.03 1185.03 -136.96 1185.15 -136.9C1196.12 -130.92 1204.81 -122.69 1209.92 -111.56C1213.99 -102.71 1215.33 -93.02 1214.75 -82.84C1217.36 -86.02 1220.3 -88.9 1223.47 -91.41L1224.23 -92L1224.51 -92.2C1227.24 -94.18 1230.43 -96.13 1233.94 -97.36C1237.27 -98.52 1242.33 -99.51 1247.78 -97.6L1248.31 -97.41L1248.35 -97.39C1251.83 -96.04 1260.55 -92.53 1266.55 -81.36C1272.09 -71.03 1274.15 -56.34 1271.53 -35.3C1271.53 -35.3 1271.53 -35.29 1271.53 -35.28C1270.59 -27.79 1269.08 -19.71 1267.06 -11.26C1267.6 -11.6 1268.15 -11.9 1268.73 -12.17C1269.28 -12.42 1269.49 -12.52 1269.68 -12.61L1270.45 -12.96L1270.69 -13.07C1280.4 -17.39 1290.22 -17.74 1300.12 -14.12C1300.41 -14.02 1300.62 -13.94 1300.72 -13.9C1300.81 -13.87 1300.89 -13.84 1300.97 -13.8C1301.66 -13.54 1302.34 -13.22 1303 -12.85L1303.07 -12.81C1305.99 -11.16 1308.15 -8.67 1309.41 -5.81L1309.64 -5.3C1310.15 -4.12 1310.56 -2.86 1310.86 -1.53C1311.51 1.34 1311.72 4.65 1311.45 8.53C1311.43 8.92 1311.4 9.28 1311.37 9.62C1310.56 22.1 1304.8 33.21 1299.04 44.73L1299.04 44.73C1294.57 53.76 1289.24 64.49 1284.06 78.08C1284.02 78.19 1283.98 78.29 1283.94 78.4C1283.7 79 1283.43 79.61 1283.2 80.13C1286.07 78.93 1289.31 78.61 1292.51 79.38C1292.66 79.42 1292.8 79.45 1292.93 79.49C1293.05 79.52 1293.16 79.55 1293.26 79.58C1293.45 79.63 1293.6 79.68 1293.71 79.72C1294.45 79.94 1295.17 80.22 1295.87 80.56C1300.85 82.98 1303.28 87.07 1304.38 89.7C1305.48 92.34 1305.86 94.86 1306.01 96.58C1306.33 100.06 1306 103.55 1305.69 105.91C1305.69 105.93 1305.69 105.96 1305.68 105.98C1303.77 120.24 1296.25 136.04 1285.56 151.58C1285.55 151.59 1285.54 151.6 1285.54 151.61C1278.56 161.68 1269.75 169.18 1258.7 173.33C1252.57 175.64 1245.65 173.7 1241.61 168.54L1151.48 53.39L1151.46 53.38C1146.24 46.68 1140.6 40.51 1134.6 34.82C1132.83 33.17 1131.15 31.62 1129.47 30.16C1115.64 18.13 1100.22 8.65 1083.86 1.79C1083.84 1.78 1083.82 1.77 1083.8 1.77C1080.4 .32 1076.92 -.99 1073.36 -2.2C1073.29 -2.23 1073.19 -2.25 1073.08 -2.29C1072.98 -2.32 1072.85 -2.36 1072.7 -2.41C1067.17 -4.22 1063.18 -9.08 1062.48 -14.87C1061.62 -22.07 1060.82 -29.46 1060.21 -37.03L1060.21 -37.05L1060.05 -39.02C1058.35 -59.54 1056.06 -86.16 1051.23 -106.95L1051.19 -107.15C1046.12 -130.41 1038.43 -155.95 1018.36 -180.16C1016.9 -181.88 1013.49 -185.88 1010.57 -189.68L1010.24 -190.13C1006.89 -194.83 1006.53 -201.06 1009.36 -206.13ZM1293.25 79.59C1293.23 79.58 1293.22 79.58 1293.2 79.57C1293.18 79.57 1293.17 79.56 1293.15 79.56C1293.18 79.57 1293.22 79.58 1293.25 79.59ZM1073.13 -2.28C1073.14 -2.28 1073.16 -2.27 1073.17 -2.27C1073.03 -2.32 1072.89 -2.37 1072.76 -2.42C1072.9 -2.37 1073.02 -2.32 1073.13 -2.28Z" fill="#E9F6FB" stroke="black" stroke-width="30" stroke-linejoin="round"/><path d="M298.3 -46.46C292.31 -46.55 286.84 -43.06 284.39 -37.6C284.17 -37.11 283.99 -36.68 283.87 -36.38C283.73 -36.04 283.68 -35.91 283.61 -35.75L283.29 -35C280.09 -27.2 277.63 -17.12 275.68 -5.57C275.68 -5.56 275.68 -5.55 275.68 -5.53C272.53 13.46 272.49 33.41 275.43 53.87L275.43 53.87C278.31 75.17 284.06 94.84 292.84 112.24L292.84 112.24C299.55 125.68 307.03 137.97 315.2 148.92C315.28 149.02 315.36 149.13 315.44 149.23C315.93 149.85 317.21 151.55 318.43 152.96C318.47 153.01 318.52 153.07 318.57 153.13C318.63 153.22 318.74 153.34 318.86 153.49C320.83 155.88 323.04 158.27 326.05 161.19C326.07 161.21 326.1 161.24 326.12 161.26C334.67 169.46 344.71 177.05 355.85 183.97C355.87 183.98 355.88 183.99 355.9 184C356.61 184.44 356.91 185.44 356.44 186.26C355.94 187.04 354.91 187.25 354.17 186.81L354.13 186.79C342.99 180.13 333.3 172.95 325.33 165.55C324.32 164.61 323.18 163.81 321.94 163.18C311.61 157.91 301.75 155.75 292.38 158.01C283.73 160.1 278.1 165.38 274.73 169L274.08 169.7L274.02 169.77C270.45 173.73 267.51 179.26 266.83 187.84C266.81 188.11 266.8 188.39 266.79 188.66C266.42 203.94 269.81 217.9 278.25 229.8C286.51 241.45 298.63 249.77 313.36 255.79C313.54 255.88 313.73 255.96 313.91 256.04C314.07 256.12 314.14 256.16 314.15 256.17L314.15 256.17C324.83 263.2 344.4 272.33 380.43 280.95C380.84 281.08 381.22 281.18 381.58 281.26C381.88 281.36 382.14 281.54 382.34 281.83C382.57 282.13 382.68 282.48 382.69 282.8L382.68 282.94L382.68 282.96C382.68 283 382.67 283.09 382.62 283.31C382.4 284.14 381.52 284.66 380.71 284.46L380.67 284.45C351.1 277.45 330.37 269.84 316.57 261.67L316.02 261.37C313.27 259.89 310.13 259.31 307.02 259.7C301.16 260.45 295.42 261.93 290.05 264.06L288.98 264.5L288.66 264.64C284.91 266.31 281.12 268.4 277.94 271.14C274.92 273.75 271.32 277.94 270.2 283.92L270.1 284.5L270.09 284.55C269.41 288.92 267.87 299.61 275.63 312.13C282.89 323.84 296.96 335.08 321.57 345.48C321.57 345.49 321.58 345.49 321.59 345.49C331.83 349.8 343.47 353.79 356.07 357.33C356.45 357.43 356.82 357.52 357.21 357.6C358.13 357.78 358.93 358 360.69 358.45L360.69 358.45C362.18 358.85 363.66 359.19 364.78 359.44L364.79 359.44C375.52 361.85 386.83 364.49 389.42 365.33C389.46 365.35 389.51 365.36 389.55 365.38C389.89 365.48 390.13 365.67 390.32 365.94C390.52 366.25 390.62 366.62 390.6 366.98C390.6 366.99 390.6 367 390.6 367.01C390.6 366.97 390.6 367.11 390.5 367.44C390.24 368.24 389.3 368.76 388.43 368.5L388.43 368.5C386.08 367.78 377.9 365.8 364.13 362.68L363.9 362.63C363.09 362.46 362.68 362.37 362.33 362.28C358.03 361.12 353.43 361.93 349.79 364.49C349.23 364.88 348.97 365.07 348.73 365.25L347.81 365.9L347.59 366.05C337.44 373.43 331.37 383.16 329.25 395.41C329.18 395.73 329.14 395.97 329.12 396.08C329.09 396.24 329.08 396.4 329.06 396.53C328.95 397.22 328.89 397.93 328.89 398.65L328.89 398.75C328.85 402.14 329.95 405.28 331.83 407.82C331.83 407.82 331.84 407.82 331.84 407.83C332.72 409.1 333.8 410.32 335.06 411.49C337.46 413.72 340.65 415.87 344.87 417.91C345.28 418.13 345.66 418.31 346.03 418.47C359.48 425.14 374.56 425.87 391.32 426.89L391.31 426.89C404.2 427.7 419.69 428.68 438.29 431.68C438.4 431.69 438.51 431.71 438.62 431.73C439.85 431.89 441.15 432.03 441.96 432.12C443.87 432.36 444.23 432.37 445.1 432.51C445.52 432.58 445.94 432.63 446.36 432.66C455.57 433.37 460.26 433.43 463.79 433.43L465.46 433.44C465.51 433.44 465.57 433.44 465.62 433.44L465.93 433.46C466.71 433.54 467.39 434.25 467.38 435.12L467.38 435.13C467.37 436.01 466.65 436.76 465.69 436.75L465.04 436.74L464.68 436.74C462.81 436.77 459.14 436.84 452.93 436.49L452.27 436.46C445.58 436.37 439.6 440.74 437.68 447.21C437.59 447.51 437.53 447.77 437.48 447.96C437.45 448.1 437.42 448.22 437.4 448.31C437.2 449.13 437.07 449.96 437 450.8C436.59 456.5 438.99 460.81 440.84 463.24C442.7 465.68 444.87 467.42 446.5 468.56C449.78 470.87 453.53 472.61 456.24 473.74C456.26 473.75 456.29 473.76 456.31 473.77C472.48 480.41 494.05 482.22 517.81 480.34C517.83 480.34 517.84 480.33 517.85 480.33C532.77 479.11 545.87 474.39 556.79 465.43C561.85 461.27 563.63 454.3 561.18 448.23L491.22 274.6L491.21 274.57C487.06 264.33 483.77 253.95 481.26 243.5C480.55 240.42 479.89 237.47 479.32 234.57C474.75 211.08 474.09 187.47 477.02 164.5C477.02 164.48 477.02 164.46 477.02 164.44C477.62 159.6 478.42 154.78 479.37 149.94C479.38 149.91 479.39 149.87 479.4 149.83C479.44 149.67 479.5 149.41 479.56 149.11C480.76 143.41 478.54 137.53 473.88 134.03C466.48 128.48 458.83 122.9 450.9 117.42L450.88 117.4L448.85 116C427.22 101.02 398.89 81.24 378.64 62.32L378.49 62.18C355.73 41.48 331.75 16.04 317.42 -22.68C316.43 -25.43 314.22 -31.65 311.94 -37.18C309.65 -42.72 304.29 -46.37 298.3 -46.46ZM319.22 257.42C319.55 257.45 319.87 257.46 320.18 257.46C319.85 257.46 319.53 257.44 319.22 257.42ZM316.99 257.09C317.37 257.18 317.74 257.25 318.11 257.3C318.28 257.33 318.45 257.35 318.61 257.37C318.05 257.3 317.5 257.21 316.99 257.09Z" fill="#E9F6FB" stroke="black" stroke-width="30" stroke-linejoin="round"/><path d="M465.48 107.89C459.49 107.79 454.02 111.28 451.57 116.75C451.38 117.17 451.22 117.55 451.12 117.79C451 118.09 450.97 118.16 450.92 118.28C448.33 124.38 446.37 132.12 444.83 140.81L444.53 142.56L444.52 142.6C442 157.78 441.98 173.71 444.31 189.98L444.31 189.98C446.6 206.92 451.19 222.63 458.23 236.6L458.23 236.6C463.55 247.25 469.49 257.02 476 265.75C476.08 265.85 476.16 265.95 476.24 266.06C476.53 266.43 477.6 267.84 478.62 269.03C478.64 269.05 478.66 269.07 478.68 269.1C472.43 266.9 466.18 266.21 460.03 267.69C451.83 269.67 446.75 274.88 444.09 277.8C444.07 277.82 444.05 277.85 444.02 277.87C440.86 281.39 438.33 286.19 437.64 293.24L437.58 293.93L437.55 294.33C437.54 294.47 437.54 294.61 437.53 294.75C437.23 307.23 440.01 318.87 447.09 328.86C452.73 336.81 460.45 342.81 469.55 347.4C465.49 348.08 461.52 349.18 457.77 350.67L456.88 351.04L456.56 351.17C453.48 352.55 450.2 354.34 447.38 356.77C444.71 359.07 441.32 362.95 440.25 368.63L440.16 369.18L440.15 369.23C439.58 372.92 438.25 382.22 444.94 393C451.11 402.96 462.8 412.09 482.32 420.35C482.33 420.35 482.34 420.36 482.35 420.36C489.31 423.29 497.06 426.02 505.38 428.49C504.82 428.79 504.28 429.12 503.76 429.49C503.27 429.83 503.08 429.97 502.91 430.09L502.22 430.58L502 430.73C493.4 436.99 488.19 445.31 486.38 455.7C486.32 456 486.28 456.22 486.26 456.33C486.25 456.42 486.24 456.51 486.23 456.59C486.11 457.32 486.05 458.07 486.04 458.83L486.04 458.9C486.01 462.26 487.09 465.38 488.94 467.9L489.26 468.35C490.02 469.38 490.91 470.37 491.91 471.29C494.07 473.29 496.84 475.13 500.33 476.83C500.68 477.01 501 477.17 501.32 477.31C512.53 482.85 525.03 483.41 537.88 484.19L537.88 484.19C547.94 484.82 559.9 485.58 574.26 487.89C574.37 487.91 574.48 487.93 574.59 487.94C575.23 488.03 575.9 488.11 576.46 488.17C573.99 490.05 572.09 492.7 571.16 495.85C571.11 496.01 571.07 496.14 571.04 496.27C571.01 496.39 570.98 496.5 570.96 496.6C570.91 496.79 570.87 496.95 570.85 497.06C570.68 497.81 570.56 498.58 570.5 499.35C570.1 504.88 572.43 509.03 574.16 511.3C575.89 513.57 577.89 515.15 579.3 516.15C582.16 518.16 585.35 519.62 587.54 520.54C587.56 520.55 587.59 520.56 587.61 520.57C600.92 526.03 618.35 527.43 637.16 525.93C637.17 525.93 637.19 525.93 637.2 525.93C649.41 524.93 660.3 521.04 669.43 513.55C674.49 509.39 676.27 502.43 673.82 496.35L619.17 360.72L619.16 360.7C615.97 352.83 613.45 344.86 611.52 336.82C610.98 334.47 610.48 332.23 610.05 330.05C606.55 312.06 606.05 293.97 608.29 276.36C608.29 276.34 608.29 276.32 608.29 276.3C608.75 272.63 609.35 268.96 610.08 265.27C610.1 265.2 610.12 265.1 610.15 264.99C610.17 264.88 610.2 264.75 610.23 264.6C611.43 258.9 609.21 253.02 604.55 249.53C598.75 245.17 592.74 240.78 586.5 236.47L586.48 236.46L584.85 235.34C567.93 223.61 546.02 208.31 530.43 193.74L530.28 193.6C512.66 177.58 494.4 158.15 483.46 128.67C482.7 126.55 480.94 121.59 479.12 117.16L478.89 116.65C476.5 111.4 471.28 107.97 465.48 107.89ZM570.97 496.6C570.97 496.58 570.97 496.56 570.98 496.55C570.98 496.53 570.99 496.52 570.99 496.5C570.98 496.53 570.98 496.57 570.97 496.6ZM610.13 265.03C610.12 265.05 610.12 265.06 610.12 265.08C610.14 264.93 610.17 264.79 610.19 264.64C610.17 264.79 610.15 264.92 610.13 265.03Z" fill="#E9F6FB" stroke="black" stroke-width="30" stroke-linejoin="round"/><path d="M664.25 399.7C733.73 555.08 891.33 650.68 983.77 688.88C1002.23 696.51 1023 694.17 1040.3 684.18L1130.67 632.01L1221.04 579.83C1238.33 569.85 1250.75 553.03 1253.37 533.23C1266.51 434.07 1262.52 249.78 1162.7 111.92C1155.19 101.55 1147.84 92.23 1140.66 83.89C1093.59 95.39 990.77 145.35 928.64 184.35L886.32 208.79L844 233.22C779.16 267.52 684.48 331.59 651 366.6C654.62 376.99 659.02 388.01 664.25 399.7Z" fill="white"/><path d="M591.25 419.9L566.11 446.95C552.47 466.09 540.24 485.07 530.07 503.95C466.56 621.76 482.9 735.81 735.66 860.06L818.52 812.22C866.74 784.38 865.08 713.1 819.4 681.26C677.03 582.03 614.22 472.9 591.25 419.9Z" fill="white"/><path d="M1252.69 50.56L1216.69 58.8C1251.11 105.19 1314.21 214.16 1328.96 387.07C1333.69 442.55 1394.59 479.63 1442.81 451.79L1525.67 403.95C1544.45 122.93 1453.85 51.75 1320.07 47.84C1298.63 47.21 1276.07 48.32 1252.69 50.56Z" fill="white"/><path d="M591.25 419.9L566.11 446.95M735.66 860.06L818.52 812.22C866.74 784.38 865.08 713.1 819.4 681.26C677.04 582.03 614.22 472.9 591.25 419.9C591.25 419.9 471.99 157.05 710.03 142.36M566.11 446.95C334.44 308.34 122.5 696.13 668.76 945.64C682.4 951.88 694.38 962.33 701.88 975.32C729.76 1023.63 749.69 1058.14 763.91 1082.77C783.24 1116.24 826 1127.66 859.48 1108.34L1269.13 871.83L1678.78 635.31C1712.25 615.99 1723.74 573.24 1704.42 539.76C1690.2 515.14 1670.27 480.62 1642.38 432.32C1634.88 419.33 1631.82 403.73 1633.24 388.8C1690.28 -209.03 1248.48 -219.38 1252.69 50.56M566.11 446.95C552.47 466.09 540.24 485.07 530.07 503.95M1525.67 403.95L1442.81 451.79C1394.59 479.63 1333.69 442.55 1328.96 387.07C1314.21 214.16 1251.11 105.19 1216.69 58.8C1216.69 58.8 1048.68 -175.91 916.94 22.91C903.59 43.05 890.62 67.65 878.22 97.39C864.36 130.66 829.64 150.71 793.9 146.08C761.95 141.94 734.16 140.88 710.03 142.36M710.03 142.36C691.99 107.49 675.65 26.33 754.65 -19.28C833.65 -64.89 895.76 -10.16 916.94 22.91M735.66 860.06L712.63 873.36C694.47 883.85 672.43 885.88 653.31 877.27C511.98 813.59 430.87 702.35 408.09 651.05C388.72 612.07 364.36 526.45 412.47 501.18C441.34 486.02 476.67 480.96 530.07 503.95M735.66 860.06C482.9 735.81 466.56 621.76 530.07 503.95M651 366.6C684.48 331.59 779.16 267.52 844 233.22L886.32 208.79L928.64 184.35C990.77 145.35 1093.59 95.39 1140.66 83.89M844 233.22C761.33 197.91 587.43 184.4 651 366.6M651 366.6C654.62 376.99 659.02 388.01 664.25 399.7C733.73 555.08 891.33 650.68 983.77 688.88C1002.23 696.51 1023 694.17 1040.3 684.18L1130.67 632.01L1221.04 579.83C1238.33 569.85 1250.75 553.03 1253.37 533.23C1266.51 434.07 1262.52 249.78 1162.7 111.92C1155.19 101.55 1147.84 92.23 1140.66 83.89M1216.69 58.8L1252.69 50.56M1252.69 50.56C1276.07 48.32 1298.63 47.21 1320.07 47.84M1525.67 403.95L1548.7 390.65C1566.87 380.17 1579.65 362.1 1581.75 341.23C1597.27 187 1541.49 61.13 1508.45 15.75C1484.38 -20.51 1422.4 -84.42 1376.47 -55.39C1348.9 -37.97 1326.86 -9.9 1320.07 47.84M1525.67 403.95C1544.45 122.93 1453.85 51.75 1320.07 47.84M928.64 184.35C939.4 95.1 1014.65 -62.25 1140.66 83.89M748.34 -96C755.75 -121.56 740.72 -148.22 715.01 -155.11C689.67 -161.9 663.62 -146.86 656.83 -121.52C649.95 -95.81 665.52 -69.46 691.36 -63.1C716.11 -57.01 741.25 -71.52 748.34 -96Z" stroke="black" stroke-width="30"/><path fill-rule="evenodd" clip-rule="evenodd" d="M566.11 446.95C334.44 308.34 122.5 696.13 668.76 945.64C682.4 951.88 694.38 962.33 701.88 975.32C729.76 1023.63 749.69 1058.14 763.91 1082.77C783.24 1116.24 826 1127.66 859.48 1108.34L1269.13 871.83L1678.78 635.31C1712.25 615.99 1723.74 573.24 1704.42 539.76C1690.2 515.14 1670.27 480.62 1642.38 432.32C1634.88 419.33 1631.82 403.73 1633.24 388.8C1690.28 -209.03 1248.48 -219.38 1252.69 50.56C1276.07 48.32 1298.63 47.21 1320.07 47.84C1326.86 -9.9 1348.9 -37.97 1376.47 -55.39C1422.4 -84.42 1484.38 -20.51 1508.45 15.75C1541.49 61.13 1597.27 187 1581.75 341.23C1579.65 362.1 1566.87 380.17 1548.7 390.65L1525.67 403.95L1442.81 451.79C1394.59 479.63 1333.69 442.55 1328.96 387.07C1314.21 214.16 1251.11 105.19 1216.69 58.8C1216.69 58.8 1048.68 -175.91 916.94 22.91C903.59 43.05 890.62 67.65 878.22 97.39C864.36 130.66 829.64 150.71 793.9 146.08C761.95 141.94 734.16 140.88 710.03 142.36C471.99 157.05 591.25 419.9 591.25 419.9C614.22 472.9 677.03 582.03 819.4 681.26C865.08 713.1 866.74 784.38 818.52 812.22L735.66 860.06L712.63 873.36C694.47 883.85 672.43 885.88 653.31 877.27C511.98 813.59 430.87 702.35 408.09 651.05C388.72 612.07 364.36 526.45 412.47 501.18C441.34 486.02 476.67 480.96 530.07 503.95C540.24 485.07 552.47 466.09 566.11 446.95ZM1040.3 684.18C1023 694.17 1002.23 696.51 983.77 688.88C891.33 650.68 733.73 555.08 664.25 399.7C659.02 388.01 654.62 376.99 651 366.6C587.43 184.4 761.33 197.91 844 233.22L886.32 208.79L928.64 184.35C939.4 95.1 1014.65 -62.25 1140.66 83.89C1147.84 92.23 1155.19 101.55 1162.7 111.92C1262.52 249.78 1266.51 434.07 1253.37 533.23C1250.75 553.03 1238.33 569.85 1221.04 579.83L1130.67 632.01L1040.3 684.18Z" fill="#5BC8FB"/><path d="M710.03 142.36C734.16 140.88 761.95 141.94 793.9 146.08C829.64 150.71 864.36 130.66 878.22 97.39C890.62 67.65 903.59 43.05 916.94 22.91C895.76 -10.16 833.65 -64.89 754.65 -19.28C675.65 26.33 691.99 107.49 710.03 142.36Z" fill="#5BC8FB"/><path d="M735.64 -52.2L644.28 -74.69L669.13 -167.4L761.85 -142.56L735.64 -52.2Z" fill="#F35B5B"/><path d="M591.25 419.9L566.11 446.95M735.66 860.06L818.52 812.22C866.74 784.38 865.08 713.1 819.4 681.26C677.03 582.03 614.22 472.9 591.25 419.9C591.25 419.9 471.99 157.05 710.03 142.36C734.16 140.88 761.95 141.94 793.9 146.08C829.64 150.71 864.36 130.66 878.22 97.39C890.62 67.65 903.59 43.05 916.94 22.91C1048.68 -175.91 1216.69 58.8 1216.69 58.8C1251.11 105.19 1314.21 214.16 1328.96 387.07C1333.69 442.55 1394.59 479.63 1442.81 451.79L1525.67 403.95M566.11 446.95C334.44 308.34 122.5 696.13 668.76 945.64C682.4 951.88 694.38 962.33 701.88 975.32C729.76 1023.63 749.69 1058.14 763.91 1082.77C783.24 1116.24 826 1127.66 859.48 1108.34L1269.13 871.83L1678.78 635.31C1712.25 615.99 1723.74 573.24 1704.42 539.76C1690.2 515.14 1670.27 480.62 1642.38 432.32C1634.88 419.33 1631.82 403.73 1633.24 388.8C1690.28 -209.03 1248.48 -219.38 1252.69 50.56M566.11 446.95C552.47 466.09 540.24 485.07 530.07 503.95M710.03 142.36C691.99 107.49 675.65 26.33 754.65 -19.28C833.65 -64.89 895.76 -10.16 916.94 22.91M735.66 860.06L712.63 873.36C694.47 883.85 672.43 885.88 653.31 877.27C511.98 813.59 430.87 702.35 408.09 651.05C388.72 612.07 364.36 526.45 412.47 501.18C441.34 486.02 476.67 480.96 530.07 503.95M735.66 860.06C482.9 735.81 466.56 621.76 530.07 503.95M651 366.6C684.48 331.59 779.16 267.52 844 233.22L886.32 208.79L928.64 184.35C990.77 145.35 1093.59 95.39 1140.66 83.89M844 233.22C761.33 197.91 587.43 184.4 651 366.6M651 366.6C654.62 376.99 659.02 388.01 664.25 399.7C733.73 555.08 891.33 650.68 983.77 688.88C1002.23 696.51 1023 694.17 1040.3 684.18L1130.67 632.01L1221.04 579.83C1238.33 569.85 1250.75 553.03 1253.37 533.23C1266.51 434.07 1262.52 249.78 1162.7 111.92C1155.19 101.55 1147.84 92.23 1140.66 83.89M1216.69 58.8L1252.69 50.56M1252.69 50.56C1276.07 48.32 1298.63 47.21 1320.07 47.84M1525.67 403.95L1548.7 390.65C1566.87 380.17 1579.65 362.1 1581.75 341.23C1597.27 187 1541.49 61.13 1508.45 15.75C1484.38 -20.51 1422.4 -84.42 1376.47 -55.39C1348.9 -37.97 1326.86 -9.9 1320.07 47.84M1525.67 403.95C1544.45 122.93 1453.85 51.75 1320.07 47.84M928.64 184.35C939.4 95.1 1014.65 -62.25 1140.66 83.89M735.64 -52.2L644.28 -74.69L669.13 -167.4L761.85 -142.56L735.64 -52.2Z" stroke="black" stroke-width="30"/><path d="M1054.15 343.44L1030.53 335.33L917.95 400.33L916.95 428.97L1082.6 565.64C1086.92 567.07 1090.91 568.34 1094.54 569.44L1054.15 343.44Z" fill="#88E6F5"/><path d="M1094.54 569.44C1108.11 511.57 1130.1 353.94 1125.25 288.14C1121.87 285.79 1117.31 283 1111.93 279.94L1054.15 343.44L1094.54 569.44Z" fill="#88E6F5"/><path fill-rule="evenodd" clip-rule="evenodd" d="M921.78 270.2C902.66 280.67 865.65 305.85 846.58 329.03C840.38 349.71 834.39 416.96 835.21 448.1C835.28 450.82 835.4 453.27 835.58 455.38C886.66 490.11 1019.21 544.72 1082.6 565.64L916.95 428.97L917.95 400.33L1030.53 335.33L1010.33 234.49C980.72 239.42 940.41 258.88 921.78 270.2Z" fill="#88E6F5"/><path d="M1082.6 565.64C1019.21 544.72 886.66 490.11 835.58 455.38C835.4 453.27 835.28 450.82 835.21 448.1C834.39 416.96 840.38 349.71 846.58 329.03C865.65 305.85 902.66 280.67 921.78 270.2C940.41 258.88 980.72 239.42 1010.33 234.49C1029.61 239.05 1082.79 263.39 1111.93 279.94C1117.31 283 1121.87 285.79 1125.25 288.14C1130.1 353.94 1108.11 511.57 1094.54 569.44C1090.91 568.34 1086.92 567.07 1082.6 565.64ZM846.58 329.03L917.95 400.33M1094.54 569.44L1054.15 343.44M1010.33 234.49L1030.53 335.33M1030.53 335.33L1054.15 343.44M1030.53 335.33L917.95 400.33M1054.15 343.44L1111.93 279.94M917.95 400.33L916.95 428.97M916.95 428.97L835.21 448.1M916.95 428.97L1082.6 565.64" stroke="black" stroke-width="30" stroke-linecap="round" stroke-linejoin="round"/><path d="M1030.54 335.34L1010.33 234.5C989.02 238.04 962.17 249.12 941.85 259.27L1017.44 342.91L1030.54 335.34Z" fill="#5FD8F0"/><path d="M1010.33 234.49L1030.53 335.33L1054.15 343.44L1111.93 279.94C1082.79 263.39 1029.61 239.05 1010.33 234.49Z" fill="#5FD8F0"/><path d="M1054.15 343.44L1030.53 335.33L917.95 400.33L916.95 428.97L1082.6 565.64C1086.92 567.07 1090.91 568.34 1094.54 569.44L1054.15 343.44Z" fill="#5FD8F0"/><path d="M1094.54 569.44C1108.11 511.57 1130.1 353.94 1125.25 288.14C1121.87 285.79 1117.31 283 1111.93 279.94L1054.15 343.44L1094.54 569.44Z" fill="#5FD8F0"/><path d="M1082.6 565.64C1019.21 544.72 886.66 490.11 835.58 455.38C835.4 453.27 835.28 450.82 835.21 448.1C834.39 416.96 840.38 349.71 846.58 329.03C865.65 305.85 902.66 280.67 921.78 270.2C940.41 258.88 980.72 239.42 1010.33 234.49C1029.61 239.05 1082.79 263.39 1111.93 279.94C1117.31 283 1121.87 285.79 1125.25 288.14C1130.1 353.94 1108.11 511.57 1094.54 569.44C1090.91 568.34 1086.92 567.07 1082.6 565.64ZM846.58 329.03L917.95 400.33M1094.54 569.44L1054.15 343.44M1010.33 234.49L1030.53 335.33M1030.53 335.33L1054.15 343.44M1030.53 335.33L917.95 400.33M1054.15 343.44L1111.93 279.94M917.95 400.33L916.95 428.97M916.95 428.97L835.21 448.1M916.95 428.97L1082.6 565.64" stroke="black" stroke-width="30" stroke-linecap="round" stroke-linejoin="round"/><path d="M1054.15 343.44L1030.53 335.33L917.95 400.33L916.95 428.97L1082.6 565.64C1086.92 567.07 1090.91 568.34 1094.54 569.44L1054.15 343.44Z" fill="#88E6F5"/><path d="M1094.54 569.44C1108.11 511.57 1130.1 353.94 1125.25 288.14C1121.87 285.79 1117.31 283 1111.93 279.94L1054.15 343.44L1094.54 569.44Z" fill="#88E6F5"/><path fill-rule="evenodd" clip-rule="evenodd" d="M921.78 270.2C902.66 280.67 865.65 305.85 846.58 329.03C840.38 349.71 834.39 416.96 835.21 448.1C835.28 450.82 835.4 453.27 835.58 455.38C886.66 490.11 1019.21 544.72 1082.6 565.64L916.95 428.97L917.95 400.33L1030.53 335.33L1010.33 234.49C980.72 239.42 940.41 258.88 921.78 270.2Z" fill="#88E6F5"/><path d="M1082.6 565.64C1019.21 544.72 886.66 490.11 835.58 455.38C835.4 453.27 835.28 450.82 835.21 448.1C834.39 416.96 840.38 349.71 846.58 329.03C865.65 305.85 902.66 280.67 921.78 270.2C940.41 258.88 980.72 239.42 1010.33 234.49C1029.61 239.05 1082.79 263.39 1111.93 279.94C1117.31 283 1121.87 285.79 1125.25 288.14C1130.1 353.94 1108.11 511.57 1094.54 569.44C1090.91 568.34 1086.92 567.07 1082.6 565.64ZM846.58 329.03L917.95 400.33M1094.54 569.44L1054.15 343.44M1010.33 234.49L1030.53 335.33M1030.53 335.33L1054.15 343.44M1030.53 335.33L917.95 400.33M1054.15 343.44L1111.93 279.94M917.95 400.33L916.95 428.97M916.95 428.97L835.21 448.1M916.95 428.97L1082.6 565.64" stroke="black" stroke-width="30" stroke-linecap="round" stroke-linejoin="round"/><path d="M1030.54 335.34L1010.33 234.5C989.02 238.04 962.17 249.12 941.85 259.27L1017.44 342.91L1030.54 335.34Z" fill="#5FD8F0"/><path d="M1010.33 234.49L1030.53 335.33L1054.15 343.44L1111.93 279.94C1082.79 263.39 1029.61 239.05 1010.33 234.49Z" fill="#5FD8F0"/><path d="M1054.15 343.44L1030.53 335.33L917.95 400.33L916.95 428.97L1082.6 565.64C1086.92 567.07 1090.91 568.34 1094.54 569.44L1054.15 343.44Z" fill="#5FD8F0"/><path d="M1094.54 569.44C1108.11 511.57 1130.1 353.94 1125.25 288.14C1121.87 285.79 1117.31 283 1111.93 279.94L1054.15 343.44L1094.54 569.44Z" fill="#5FD8F0"/><path d="M1082.6 565.64C1019.21 544.72 886.66 490.11 835.58 455.38C835.4 453.27 835.28 450.82 835.21 448.1C834.39 416.96 840.38 349.71 846.58 329.03C865.65 305.85 902.66 280.67 921.78 270.2C940.41 258.88 980.72 239.42 1010.33 234.49C1029.61 239.05 1082.79 263.39 1111.93 279.94C1117.31 283 1121.87 285.79 1125.25 288.14C1130.1 353.94 1108.11 511.57 1094.54 569.44C1090.91 568.34 1086.92 567.07 1082.6 565.64ZM846.58 329.03L917.95 400.33M1094.54 569.44L1054.15 343.44M1010.33 234.49L1030.53 335.33M1030.53 335.33L1054.15 343.44M1030.53 335.33L917.95 400.33M1054.15 343.44L1111.93 279.94M917.95 400.33L916.95 428.97M916.95 428.97L835.21 448.1M916.95 428.97L1082.6 565.64" stroke="black" stroke-width="30" stroke-linecap="round" stroke-linejoin="round"/></g><defs><clipPath id="clip0_4368_3916"><rect width="3000" height="3000" fill="white" transform="translate(0 8.05) rotate(-.15)"/></clipPath></defs></svg>