<svg width="3009" height="3009" viewBox="0 0 3009 3009" fill="none" xmlns="http://www.w3.org/2000/svg"><g clip-path="url(#clip0_4368_3918)"><path d="M-98.07 285.76C-102.37 289.93 -103.78 296.26 -101.64 301.86C-101.45 302.36 -101.27 302.8 -101.15 303.09C-101.01 303.43 -100.95 303.56 -100.89 303.72L-100.58 304.47C-97.33 312.25 -91.94 321.12 -85.15 330.66C-85.14 330.67 -85.14 330.68 -85.13 330.69C-73.93 346.35 -59.84 360.48 -43.3 372.88L-43.3 372.88C-26.2 385.9 -8.23 395.73 10.29 401.83L10.29 401.83C24.54 406.6 38.51 410 52.03 411.96C52.16 411.98 52.29 412 52.42 412.01C53.2 412.11 55.31 412.4 57.18 412.53C57.24 412.54 57.31 412.55 57.39 412.56C57.5 412.57 57.66 412.59 57.85 412.61C60.93 412.9 64.19 413.03 68.38 412.97C68.41 412.97 68.44 412.96 68.47 412.96C80.32 412.72 92.79 410.98 105.56 408C105.58 408 105.6 407.99 105.62 407.99C106.43 407.8 107.35 408.29 107.59 409.2C107.79 410.11 107.22 410.99 106.39 411.2L106.34 411.21C93.75 414.38 81.83 416.15 70.96 416.56C69.57 416.61 68.2 416.85 66.89 417.28C55.85 420.86 47.35 426.31 42.32 434.53C37.68 442.12 37.44 449.84 37.61 454.78L37.65 455.73L37.66 455.82C37.94 461.15 39.77 467.13 45.35 473.68C45.53 473.89 45.71 474.1 45.9 474.3C56.45 485.37 68.72 492.83 83.1 495.28C97.17 497.67 111.63 494.99 126.3 488.83C126.49 488.77 126.68 488.7 126.87 488.62C127.03 488.56 127.11 488.54 127.13 488.54L127.13 488.54C139.66 485.96 159.94 478.58 191.52 459.2C191.89 459 192.24 458.8 192.55 458.6C192.83 458.46 193.14 458.41 193.49 458.46C193.86 458.52 194.19 458.69 194.42 458.91L194.52 459.01L194.53 459.02C194.55 459.05 194.62 459.13 194.74 459.32C195.16 460.06 194.91 461.05 194.2 461.48L194.16 461.5C168.3 477.46 148.26 486.74 132.73 490.72L132.13 490.89C129.14 491.79 126.5 493.6 124.59 496.08C120.97 500.75 117.95 505.86 115.67 511.17L115.22 512.23L115.09 512.55C113.62 516.38 112.42 520.55 112.11 524.73C111.82 528.71 112.24 534.22 115.67 539.24L116.01 539.73L116.04 539.77C118.65 543.34 125.12 551.98 139.47 555.35C152.87 558.5 170.77 556.49 195.53 546.45C195.53 546.45 195.54 546.44 195.55 546.44C205.83 542.25 216.89 536.84 228.3 530.42C228.64 530.24 228.97 530.03 229.29 529.82C230.07 529.29 230.8 528.88 232.36 527.96L232.36 527.96C233.7 527.19 234.98 526.38 235.95 525.76L235.95 525.76C245.25 519.88 255.12 513.74 257.54 512.51C257.58 512.49 257.63 512.46 257.67 512.44C257.98 512.28 258.29 512.24 258.61 512.3C258.97 512.38 259.3 512.57 259.54 512.83C259.55 512.84 259.56 512.85 259.56 512.86C259.53 512.83 259.63 512.93 259.8 513.24C260.18 513.99 259.88 515.01 259.07 515.45L259.07 515.45C256.91 516.6 249.72 520.98 237.79 528.51L237.59 528.64C236.9 529.1 236.54 529.32 236.22 529.5C232.36 531.72 229.69 535.55 228.92 539.94C228.81 540.61 228.75 540.93 228.7 541.22L228.52 542.33L228.47 542.59C226.51 554.99 229.09 566.16 236.26 576.32C236.44 576.59 236.58 576.79 236.65 576.89C236.74 577.02 236.84 577.14 236.92 577.25C237.34 577.81 237.79 578.36 238.3 578.87L238.37 578.94C240.74 581.36 243.74 582.8 246.86 583.27C246.87 583.27 246.87 583.27 246.88 583.27C248.4 583.54 250.02 583.65 251.74 583.59C255.01 583.46 258.79 582.72 263.22 581.18C263.66 581.05 264.06 580.91 264.43 580.76C278.66 575.98 289.84 565.82 302.41 554.69L302.41 554.69C312.09 546.16 323.74 535.89 339.01 524.86C339.1 524.8 339.19 524.73 339.28 524.66C340.26 523.92 341.28 523.09 341.92 522.58C343.44 521.4 343.7 521.16 344.42 520.64C344.76 520.39 345.09 520.13 345.41 519.85C352.43 513.84 355.79 510.56 358.28 508.07L359.47 506.9C359.51 506.86 359.54 506.82 359.58 506.78L359.81 506.58C360.43 506.08 361.41 506.11 362.02 506.73L362.02 506.73C362.64 507.36 362.66 508.4 361.97 509.07L361.51 509.53L361.25 509.78C359.95 511.13 357.4 513.77 352.76 517.92L352.28 518.36C347.48 523.02 346.34 530.35 349.56 536.27C349.71 536.55 349.85 536.78 349.95 536.95C350.02 537.07 350.09 537.17 350.14 537.26C350.58 537.98 351.08 538.66 351.63 539.3C355.36 543.62 360.11 544.97 363.13 545.38C366.17 545.79 368.94 545.48 370.89 545.14C374.85 544.46 378.73 543.03 381.44 541.91C381.47 541.9 381.49 541.89 381.52 541.88C397.64 535.15 414.18 521.18 429.65 503.04C429.66 503.03 429.67 503.02 429.68 503.01C439.36 491.59 445.28 479 446.67 464.93C447.31 458.41 443.64 452.23 437.61 449.67L265.36 376.36L265.34 376.35C255.16 372.04 245.5 367.03 236.33 361.41C233.65 359.74 231.1 358.12 228.65 356.48C208.81 343.1 191.65 326.87 177.47 308.55C177.46 308.54 177.44 308.52 177.43 308.51C174.43 304.66 171.59 300.69 168.84 296.6C168.82 296.57 168.8 296.54 168.78 296.5C168.7 296.36 168.56 296.14 168.39 295.87C165.2 291 159.48 288.4 153.71 289.23C144.55 290.54 135.2 292 125.71 293.73L125.69 293.74L123.26 294.18C97.37 298.88 63.35 304.93 35.66 305.87L35.45 305.87C4.72 307.33 -30.22 306.3 -67.74 289.06C-70.38 287.81 -76.34 284.97 -81.87 282.68C-87.4 280.38 -93.77 281.59 -98.07 285.76ZM131.6 485.84C131.85 485.62 132.09 485.41 132.3 485.19C132.07 485.42 131.83 485.64 131.6 485.84ZM129.79 487.18C130.12 486.98 130.43 486.76 130.72 486.54C130.86 486.44 131 486.33 131.13 486.23C130.68 486.59 130.23 486.9 129.79 487.18Z" fill="#E9F6FB" stroke="black" stroke-width="30" stroke-linejoin="round"/><path d="M129.28 276.68C124.98 280.85 123.58 287.19 125.71 292.78C125.87 293.22 126.03 293.6 126.13 293.84C126.25 294.14 126.28 294.2 126.33 294.33C128.82 300.48 132.9 307.33 137.96 314.56L138.98 316.01L139 316.05C147.96 328.57 159.21 339.84 172.36 349.7L172.36 349.7C185.96 360.06 200.31 367.92 215.17 372.82L215.17 372.82C226.46 376.59 237.57 379.3 248.34 380.87C248.47 380.88 248.6 380.9 248.73 380.92C249.21 380.98 250.96 381.22 252.52 381.33C252.55 381.34 252.57 381.34 252.6 381.34C246.63 384.21 241.73 388.14 238.43 393.53C234.03 400.73 234.12 408.01 234.3 411.96C234.3 411.99 234.31 412.02 234.31 412.05C234.56 416.78 236.16 421.96 240.66 427.43L241.1 427.96L241.37 428.27C241.46 428.37 241.56 428.47 241.65 428.57C250.26 437.62 260.46 443.88 272.53 445.93C282.14 447.57 291.85 446.36 301.52 443.16C299.13 446.51 297.1 450.1 295.51 453.81L295.13 454.7L295.01 455.02C293.8 458.17 292.75 461.76 292.47 465.46C292.21 468.98 292.56 474.13 295.81 478.89L296.14 479.35L296.17 479.39C298.37 482.4 304.01 489.92 316.36 492.82C327.77 495.5 342.5 493.68 362.14 485.71C362.14 485.71 362.15 485.71 362.16 485.7C369.15 482.85 376.57 479.3 384.2 475.17C384.01 475.77 383.87 476.39 383.75 477.02C383.65 477.61 383.62 477.84 383.58 478.04L383.44 478.88L383.39 479.14C381.74 489.64 383.94 499.22 390 507.85C390.17 508.1 390.3 508.28 390.36 508.37C390.42 508.44 390.47 508.51 390.52 508.58C390.96 509.18 391.44 509.75 391.97 510.3L392.02 510.35C394.38 512.75 397.34 514.19 400.43 514.66L400.98 514.75C402.25 514.94 403.58 515.01 404.94 514.96C407.88 514.85 411.14 514.19 414.81 512.92C415.18 512.81 415.52 512.68 415.84 512.56C427.69 508.55 436.92 500.11 446.56 491.57L446.56 491.57C454.12 484.91 463.12 476.98 474.9 468.47C475 468.4 475.08 468.34 475.17 468.27C475.69 467.88 476.22 467.46 476.66 467.11C476.24 470.19 476.77 473.4 478.34 476.29C478.42 476.43 478.49 476.56 478.55 476.67C478.62 476.78 478.68 476.88 478.73 476.96C478.83 477.13 478.92 477.27 478.98 477.36C479.39 478.02 479.85 478.64 480.35 479.23C483.98 483.42 488.56 484.7 491.39 485.09C494.22 485.47 496.75 485.18 498.45 484.88C501.89 484.29 505.18 483.06 507.38 482.16C507.4 482.15 507.43 482.14 507.45 482.13C520.73 476.59 534.04 465.25 546.28 450.89C546.29 450.88 546.3 450.87 546.31 450.86C554.23 441.52 559.19 431.07 560.34 419.32C560.98 412.8 557.32 406.61 551.29 404.05L416.74 346.79L416.72 346.78C408.9 343.47 401.47 339.62 394.43 335.29C392.38 334.02 390.45 332.79 388.6 331.55C373.4 321.3 360.26 308.86 349.39 294.83C349.38 294.82 349.37 294.8 349.36 294.79C347.08 291.87 344.91 288.85 342.82 285.72C342.78 285.66 342.73 285.57 342.67 285.48C342.61 285.38 342.54 285.27 342.45 285.14C339.27 280.26 333.54 277.67 327.77 278.5C320.59 279.52 313.24 280.67 305.78 282.03L305.75 282.04L303.82 282.4C283.55 286.07 257.25 290.74 235.91 291.46L235.71 291.47C211.93 292.6 185.27 291.78 156.69 278.66C154.66 277.7 149.9 275.43 145.48 273.6L144.96 273.39C139.55 271.38 133.44 272.64 129.28 276.68ZM478.73 476.95C478.73 476.94 478.71 476.92 478.7 476.91C478.7 476.89 478.69 476.88 478.68 476.86C478.7 476.89 478.72 476.92 478.73 476.95ZM342.68 285.52C342.69 285.54 342.7 285.55 342.71 285.56C342.62 285.44 342.54 285.32 342.45 285.2C342.54 285.32 342.62 285.43 342.68 285.52Z" fill="#E9F6FB" stroke="black" stroke-width="30" stroke-linejoin="round"/><path d="M1323.64 -412.89C1329.41 -414.53 1335.59 -412.58 1339.38 -407.93C1339.67 -407.57 1339.92 -407.24 1340.08 -407.04C1340.27 -406.78 1340.32 -406.72 1340.4 -406.62C1344.48 -401.39 1348.37 -394.43 1352.11 -386.43L1352.86 -384.82L1352.87 -384.78C1359.24 -370.76 1363.38 -355.39 1365.34 -339.07L1365.34 -339.07C1367.51 -322.12 1367.14 -305.75 1363.96 -290.44L1363.96 -290.44C1361.58 -278.77 1358.37 -267.8 1354.34 -257.68C1354.29 -257.56 1354.24 -257.44 1354.19 -257.32C1354 -256.88 1353.33 -255.24 1352.65 -253.83C1352.64 -253.81 1352.63 -253.78 1352.62 -253.76C1358.09 -257.49 1363.94 -259.77 1370.27 -259.94C1378.7 -260.15 1384.96 -256.43 1388.29 -254.3C1388.31 -254.28 1388.34 -254.26 1388.36 -254.25C1392.34 -251.66 1396.02 -247.68 1398.51 -241.06L1398.75 -240.41L1398.88 -240.02C1398.92 -239.89 1398.96 -239.76 1399 -239.63C1402.53 -227.64 1402.85 -215.69 1398.59 -204.2C1395.21 -195.06 1389.31 -187.26 1381.7 -180.48C1385.8 -180.88 1389.91 -180.84 1393.93 -180.37L1394.88 -180.25L1395.22 -180.2C1398.56 -179.67 1402.19 -178.79 1405.54 -177.17C1408.71 -175.64 1413 -172.76 1415.5 -167.56L1415.73 -167.05L1415.75 -167.01C1417.26 -163.59 1420.94 -154.94 1417.28 -142.8C1413.9 -131.58 1404.96 -119.74 1388.24 -106.71C1388.24 -106.71 1388.23 -106.7 1388.22 -106.69C1382.26 -102.07 1375.47 -97.42 1368.08 -92.88C1368.7 -92.73 1369.31 -92.56 1369.91 -92.34C1370.47 -92.13 1370.69 -92.05 1370.88 -91.97L1371.67 -91.68L1371.92 -91.59C1381.85 -87.77 1389.04 -81.08 1393.48 -71.51C1393.61 -71.24 1393.7 -71.04 1393.75 -70.94C1393.79 -70.86 1393.82 -70.77 1393.85 -70.69C1394.15 -70.02 1394.41 -69.32 1394.61 -68.58L1394.63 -68.51C1395.53 -65.27 1395.3 -61.98 1394.17 -59.07L1393.97 -58.55C1393.5 -57.35 1392.89 -56.18 1392.17 -55.02C1390.6 -52.53 1388.41 -50.04 1385.47 -47.49C1385.18 -47.23 1384.91 -46.99 1384.64 -46.78C1375.25 -38.52 1363.32 -34.75 1351.1 -30.67L1351.1 -30.67C1341.55 -27.45 1330.19 -23.63 1316.92 -17.67C1316.82 -17.63 1316.72 -17.58 1316.62 -17.54C1316.02 -17.29 1315.39 -17.04 1314.87 -16.84C1317.74 -15.66 1320.26 -13.59 1321.98 -10.79C1322.06 -10.65 1322.14 -10.53 1322.2 -10.42C1322.26 -10.31 1322.32 -10.21 1322.37 -10.12C1322.46 -9.94 1322.54 -9.8 1322.59 -9.7C1322.95 -9.02 1323.26 -8.31 1323.52 -7.58C1325.34 -2.34 1324.16 2.27 1323.07 4.91C1321.99 7.55 1320.47 9.6 1319.37 10.92C1317.13 13.61 1314.43 15.84 1312.55 17.29C1312.53 17.31 1312.5 17.33 1312.48 17.34C1301.05 26.07 1284.57 31.93 1266.01 35.35C1266 35.35 1265.99 35.36 1265.97 35.36C1253.92 37.55 1242.39 36.62 1231.64 31.74C1225.67 29.04 1222.15 22.77 1222.94 16.27L1240.63 -128.89L1240.63 -128.91C1241.67 -137.34 1242.05 -145.69 1241.83 -153.96C1241.75 -156.37 1241.65 -158.65 1241.5 -160.87C1240.22 -179.16 1236.03 -196.77 1229.31 -213.19C1229.3 -213.21 1229.29 -213.22 1229.28 -213.24C1227.9 -216.68 1226.36 -220.06 1224.7 -223.44C1224.67 -223.5 1224.62 -223.59 1224.57 -223.69C1224.52 -223.79 1224.45 -223.91 1224.38 -224.04C1221.75 -229.24 1222.37 -235.5 1225.97 -240.08C1230.45 -245.78 1235.12 -251.58 1240.03 -257.36L1240.05 -257.38L1241.32 -258.88C1254.64 -274.59 1271.83 -295.04 1283.13 -313.15L1283.24 -313.32C1296.11 -333.36 1308.72 -356.85 1311.65 -388.16C1311.83 -390.4 1312.25 -395.65 1312.87 -400.4L1312.95 -400.95C1313.91 -406.64 1318.06 -411.3 1323.64 -412.89ZM1322.36 -10.12C1322.35 -10.13 1322.34 -10.15 1322.33 -10.16C1322.32 -10.18 1322.31 -10.19 1322.31 -10.21C1322.32 -10.18 1322.34 -10.15 1322.36 -10.12ZM1224.6 -223.66C1224.61 -223.64 1224.61 -223.63 1224.62 -223.62C1224.56 -223.75 1224.49 -223.88 1224.43 -224.01C1224.49 -223.88 1224.55 -223.76 1224.6 -223.66Z" fill="#E9F6FB" stroke="black" stroke-width="30" stroke-linejoin="round"/><path d="M633.53 346.78C703.02 502.15 860.62 597.75 953.06 635.96C971.52 643.59 992.29 641.24 1009.59 631.25L1099.96 579.08L1190.33 526.91C1207.63 516.92 1220.04 500.11 1222.66 480.31C1235.8 381.14 1231.81 196.85 1131.99 59C1124.48 48.62 1117.13 39.3 1109.95 30.97C1062.88 42.47 960.06 92.43 897.94 131.43L855.61 155.86L813.29 180.3C748.45 214.6 653.77 278.67 620.29 313.67C623.91 324.06 628.31 335.09 633.53 346.78Z" fill="white"/><path d="M560.54 366.98L535.4 394.03C521.76 413.16 509.53 432.14 499.36 451.02C435.85 568.83 452.19 682.88 704.96 807.14L787.81 759.3C836.03 731.46 834.37 660.17 788.69 628.34C646.33 529.11 583.51 419.98 560.54 366.98Z" fill="white"/><path d="M1221.98 -2.37L1185.98 5.88C1220.4 52.27 1283.5 161.24 1298.25 334.14C1302.98 389.62 1363.89 426.7 1412.1 398.86L1494.96 351.03C1513.74 70 1423.14 -1.18 1289.36 -5.08C1267.92 -5.71 1245.37 -4.61 1221.98 -2.37Z" fill="white"/><path d="M560.54 366.98L535.4 394.03M704.96 807.14L787.81 759.3C836.03 731.46 834.37 660.17 788.69 628.34C646.33 529.11 583.51 419.98 560.54 366.98C560.54 366.98 441.28 104.12 679.33 89.44M535.4 394.03C303.73 255.42 91.8 643.21 638.05 892.72C651.7 898.95 663.67 909.41 671.17 922.4C699.06 970.7 718.98 1005.21 733.2 1029.84C752.52 1063.31 795.3 1074.74 828.77 1055.41L1238.42 818.9L1648.07 582.39C1681.54 563.06 1693.03 520.31 1673.71 486.84C1659.49 462.21 1639.56 427.7 1611.68 379.4C1604.17 366.41 1601.11 350.81 1602.53 335.88C1659.58 -261.95 1217.77 -272.3 1221.98 -2.37M535.4 394.03C521.76 413.16 509.53 432.14 499.36 451.02M1494.96 351.03L1412.1 398.86C1363.89 426.7 1302.98 389.62 1298.25 334.14C1283.5 161.24 1220.4 52.27 1185.98 5.88C1185.98 5.88 1017.97 -228.83 886.23 -30.02C872.88 -9.87 859.91 14.72 847.51 44.47C833.65 77.73 798.93 97.78 763.19 93.15C731.24 89.01 703.45 87.95 679.33 89.44M679.33 89.44C661.28 54.56 644.94 -26.59 723.94 -72.2C802.94 -117.81 865.05 -63.09 886.23 -30.02M704.96 807.14L681.92 820.43C663.76 830.92 641.73 832.96 622.6 824.34C481.27 760.66 400.16 649.42 377.38 598.13C358.01 559.15 333.65 473.52 381.76 448.25C410.63 433.09 445.96 428.04 499.36 451.02M704.96 807.14C452.19 682.88 435.85 568.83 499.36 451.02M620.29 313.67C653.77 278.67 748.45 214.6 813.29 180.3L855.61 155.86L897.94 131.43C960.06 92.43 1062.88 42.47 1109.95 30.97M813.29 180.3C730.62 144.98 556.72 131.48 620.29 313.67M620.29 313.67C623.91 324.06 628.31 335.09 633.53 346.78C703.02 502.15 860.62 597.75 953.06 635.96C971.52 643.59 992.29 641.24 1009.59 631.25L1099.96 579.08L1190.33 526.91C1207.63 516.92 1220.04 500.11 1222.66 480.31C1235.8 381.14 1231.81 196.85 1131.99 59C1124.48 48.62 1117.13 39.3 1109.95 30.97M1185.98 5.88L1221.98 -2.37M1221.98 -2.37C1245.37 -4.61 1267.92 -5.71 1289.36 -5.08M1494.96 351.03L1517.99 337.73C1536.16 327.24 1548.94 309.18 1551.04 288.31C1566.56 134.07 1510.78 8.21 1477.74 -37.17C1453.67 -73.43 1391.7 -137.34 1345.76 -108.31C1318.19 -90.89 1296.15 -62.82 1289.36 -5.08M1494.96 351.03C1513.74 70 1423.14 -1.18 1289.36 -5.08M897.94 131.43C908.69 42.18 983.94 -115.18 1109.95 30.97M717.63 -148.92C725.05 -174.48 710.01 -201.15 684.3 -208.03C658.96 -214.83 632.91 -199.79 626.12 -174.44C619.24 -148.74 634.81 -122.39 660.65 -116.02C685.4 -109.93 710.54 -124.45 717.63 -148.92Z" stroke="black" stroke-width="30"/><path fill-rule="evenodd" clip-rule="evenodd" d="M535.4 394.03C303.73 255.42 91.8 643.21 638.05 892.72C651.7 898.95 663.67 909.41 671.17 922.4C699.05 970.7 718.98 1005.21 733.2 1029.84C752.52 1063.31 795.3 1074.74 828.77 1055.41L1238.42 818.9L1648.07 582.39C1681.54 563.06 1693.03 520.31 1673.71 486.84C1659.49 462.21 1639.56 427.7 1611.67 379.4C1604.17 366.4 1601.11 350.81 1602.53 335.88C1659.58 -261.95 1217.77 -272.3 1221.98 -2.37C1245.37 -4.61 1267.92 -5.71 1289.36 -5.08C1296.15 -62.82 1318.19 -90.89 1345.76 -108.31C1391.69 -137.34 1453.67 -73.43 1477.74 -37.17C1510.78 8.21 1566.56 134.07 1551.04 288.31C1548.94 309.18 1536.16 327.24 1517.99 337.73L1494.96 351.03L1412.1 398.86C1363.89 426.7 1302.98 389.62 1298.25 334.14C1283.5 161.24 1220.4 52.27 1185.98 5.88C1185.98 5.88 1017.97 -228.83 886.23 -30.02C872.88 -9.87 859.91 14.72 847.51 44.47C833.65 77.73 798.93 97.78 763.19 93.15C731.24 89.01 703.45 87.95 679.33 89.44C441.28 104.12 560.54 366.98 560.54 366.98C583.5 419.98 646.33 529.11 788.69 628.34C834.37 660.17 836.03 731.46 787.81 759.3L704.96 807.14L681.92 820.43C663.76 830.92 641.73 832.96 622.6 824.34C481.27 760.66 400.16 649.42 377.38 598.13C358.01 559.15 333.65 473.52 381.76 448.25C410.63 433.09 445.96 428.04 499.36 451.02C509.53 432.14 521.76 413.16 535.4 394.03ZM1009.59 631.25C992.29 641.24 971.52 643.59 953.06 635.96C860.62 597.75 703.02 502.15 633.53 346.78C628.31 335.09 623.91 324.06 620.29 313.67C556.72 131.48 730.62 144.98 813.29 180.3L855.61 155.86L897.94 131.43C908.69 42.18 983.94 -115.18 1109.95 30.97C1117.13 39.3 1124.48 48.62 1131.99 59C1231.81 196.85 1235.8 381.14 1222.66 480.31C1220.04 500.11 1207.63 516.92 1190.33 526.91L1099.96 579.08L1009.59 631.25Z" fill="#5BC8FB"/><path d="M679.33 89.44C703.45 87.95 731.24 89.01 763.19 93.15C798.93 97.78 833.65 77.73 847.51 44.47C859.91 14.72 872.88 -9.87 886.23 -30.02C865.05 -63.09 802.94 -117.81 723.94 -72.2C644.94 -26.59 661.28 54.56 679.33 89.44Z" fill="#5BC8FB"/><path d="M704.93 -105.12L613.58 -127.61L638.42 -220.33L731.14 -195.49L704.93 -105.12Z" fill="#F35B5B"/><path d="M560.54 366.98L535.4 394.03M704.96 807.14L787.81 759.3C836.03 731.46 834.37 660.17 788.69 628.34C646.33 529.11 583.5 419.98 560.54 366.98C560.54 366.98 441.28 104.12 679.33 89.44C703.45 87.95 731.24 89.01 763.19 93.15C798.93 97.78 833.65 77.73 847.51 44.47C859.91 14.72 872.88 -9.87 886.23 -30.02C1017.97 -228.83 1185.98 5.88 1185.98 5.88C1220.4 52.27 1283.5 161.24 1298.25 334.14C1302.98 389.62 1363.89 426.7 1412.1 398.86L1494.96 351.03M535.4 394.03C303.73 255.42 91.8 643.21 638.05 892.72C651.7 898.95 663.67 909.41 671.17 922.4C699.05 970.7 718.98 1005.21 733.2 1029.84C752.52 1063.31 795.3 1074.74 828.77 1055.41L1238.42 818.9L1648.07 582.39C1681.54 563.06 1693.03 520.31 1673.71 486.84C1659.49 462.21 1639.56 427.7 1611.67 379.4C1604.17 366.4 1601.11 350.81 1602.53 335.88C1659.58 -261.95 1217.77 -272.3 1221.98 -2.37M535.4 394.03C521.76 413.16 509.53 432.14 499.36 451.02M679.33 89.44C661.28 54.56 644.94 -26.59 723.94 -72.2C802.94 -117.81 865.05 -63.09 886.23 -30.02M704.96 807.14L681.92 820.43C663.76 830.92 641.73 832.96 622.6 824.34C481.27 760.66 400.16 649.42 377.38 598.13C358.01 559.15 333.65 473.52 381.76 448.25C410.63 433.09 445.96 428.04 499.36 451.02M704.96 807.14C452.19 682.88 435.85 568.83 499.36 451.02M620.29 313.67C653.77 278.67 748.45 214.6 813.29 180.3L855.61 155.86L897.94 131.43C960.06 92.43 1062.88 42.47 1109.95 30.97M813.29 180.3C730.62 144.98 556.72 131.48 620.29 313.67M620.29 313.67C623.91 324.06 628.31 335.09 633.53 346.78C703.02 502.15 860.62 597.75 953.06 635.96C971.52 643.59 992.29 641.24 1009.59 631.25L1099.96 579.08L1190.33 526.91C1207.63 516.92 1220.04 500.11 1222.66 480.31C1235.8 381.14 1231.81 196.85 1131.99 59C1124.48 48.62 1117.13 39.3 1109.95 30.97M1185.98 5.88L1221.98 -2.37M1221.98 -2.37C1245.37 -4.61 1267.92 -5.71 1289.36 -5.08M1494.96 351.03L1517.99 337.73C1536.16 327.24 1548.94 309.18 1551.04 288.31C1566.56 134.07 1510.78 8.21 1477.74 -37.17C1453.67 -73.43 1391.7 -137.34 1345.76 -108.31C1318.19 -90.89 1296.15 -62.82 1289.36 -5.08M1494.96 351.03C1513.74 70 1423.14 -1.18 1289.36 -5.08M897.94 131.43C908.69 42.18 983.94 -115.18 1109.95 30.97M704.93 -105.12L613.58 -127.61L638.42 -220.33L731.14 -195.49L704.93 -105.12Z" stroke="black" stroke-width="30"/><path d="M1023.44 290.51L999.82 282.41L887.24 347.4L886.24 376.04L1051.89 512.72C1056.21 514.14 1060.2 515.41 1063.83 516.51L1023.44 290.51Z" fill="#88E6F5"/><path d="M1063.83 516.51C1077.4 458.64 1099.39 301.01 1094.54 235.22C1091.16 232.87 1086.6 230.08 1081.22 227.02L1023.44 290.51L1063.83 516.51Z" fill="#88E6F5"/><path fill-rule="evenodd" clip-rule="evenodd" d="M891.07 217.27C871.95 227.75 834.94 252.93 815.87 276.11C809.67 296.78 803.68 364.03 804.5 395.18C804.57 397.9 804.69 400.34 804.87 402.46C855.95 437.19 988.5 491.79 1051.89 512.72L886.24 376.04L887.24 347.4L999.82 282.41L979.62 181.56C950.01 186.49 909.7 205.95 891.07 217.27Z" fill="#88E6F5"/><path d="M1051.89 512.72C988.5 491.79 855.95 437.19 804.87 402.46C804.69 400.34 804.57 397.9 804.5 395.18C803.68 364.03 809.67 296.78 815.87 276.11C834.94 252.93 871.95 227.75 891.07 217.27C909.7 205.95 950.01 186.49 979.62 181.56C998.9 186.13 1052.08 210.47 1081.22 227.02C1086.6 230.08 1091.16 232.87 1094.54 235.22C1099.39 301.01 1077.4 458.64 1063.83 516.51C1060.2 515.41 1056.21 514.14 1051.89 512.72ZM815.87 276.11L887.24 347.4M1063.83 516.51L1023.44 290.51M979.62 181.56L999.82 282.41M999.82 282.41L1023.44 290.51M999.82 282.41L887.24 347.4M1023.44 290.51L1081.22 227.02M887.24 347.4L886.24 376.04M886.24 376.04L804.5 395.18M886.24 376.04L1051.89 512.72" stroke="black" stroke-width="30" stroke-linecap="round" stroke-linejoin="round"/><path d="M999.83 282.42L979.62 181.57C958.32 185.12 931.47 196.19 911.14 206.34L986.73 289.98L999.83 282.42Z" fill="#5FD8F0"/><path d="M979.62 181.56L999.82 282.41L1023.44 290.51L1081.22 227.02C1052.08 210.47 998.9 186.13 979.62 181.56Z" fill="#5FD8F0"/><path d="M1023.44 290.51L999.82 282.41L887.24 347.4L886.24 376.04L1051.89 512.72C1056.21 514.14 1060.2 515.41 1063.83 516.51L1023.44 290.51Z" fill="#5FD8F0"/><path d="M1063.83 516.51C1077.4 458.64 1099.39 301.01 1094.54 235.22C1091.16 232.87 1086.6 230.08 1081.22 227.02L1023.44 290.51L1063.83 516.51Z" fill="#5FD8F0"/><path d="M1051.89 512.72C988.5 491.79 855.95 437.19 804.87 402.46C804.69 400.34 804.57 397.9 804.5 395.18C803.68 364.03 809.67 296.78 815.87 276.11C834.94 252.93 871.95 227.75 891.07 217.27C909.7 205.95 950.01 186.49 979.62 181.56C998.9 186.13 1052.08 210.47 1081.22 227.02C1086.6 230.08 1091.16 232.87 1094.54 235.22C1099.39 301.01 1077.4 458.64 1063.83 516.51C1060.2 515.41 1056.21 514.14 1051.89 512.72ZM815.87 276.11L887.24 347.4M1063.83 516.51L1023.44 290.51M979.62 181.56L999.82 282.41M999.82 282.41L1023.44 290.51M999.82 282.41L887.24 347.4M1023.44 290.51L1081.22 227.02M887.24 347.4L886.24 376.04M886.24 376.04L804.5 395.18M886.24 376.04L1051.89 512.72" stroke="black" stroke-width="30" stroke-linecap="round" stroke-linejoin="round"/><path d="M1023.44 290.51L999.82 282.41L887.24 347.4L886.24 376.04L1051.89 512.72C1056.21 514.14 1060.2 515.41 1063.83 516.51L1023.44 290.51Z" fill="#88E6F5"/><path d="M1063.83 516.51C1077.4 458.64 1099.39 301.01 1094.54 235.22C1091.16 232.87 1086.6 230.08 1081.22 227.02L1023.44 290.51L1063.83 516.51Z" fill="#88E6F5"/><path fill-rule="evenodd" clip-rule="evenodd" d="M891.07 217.27C871.95 227.75 834.94 252.93 815.87 276.11C809.67 296.78 803.68 364.03 804.5 395.18C804.57 397.9 804.69 400.34 804.87 402.46C855.95 437.19 988.5 491.79 1051.89 512.72L886.24 376.04L887.24 347.4L999.82 282.41L979.62 181.56C950.01 186.49 909.7 205.95 891.07 217.27Z" fill="#88E6F5"/><path d="M1051.89 512.72C988.5 491.79 855.95 437.19 804.87 402.46C804.69 400.34 804.57 397.9 804.5 395.18C803.68 364.03 809.67 296.78 815.87 276.11C834.94 252.93 871.95 227.75 891.07 217.27C909.7 205.95 950.01 186.49 979.62 181.56C998.9 186.13 1052.08 210.47 1081.22 227.02C1086.6 230.08 1091.16 232.87 1094.54 235.22C1099.39 301.01 1077.4 458.64 1063.83 516.51C1060.2 515.41 1056.21 514.14 1051.89 512.72ZM815.87 276.11L887.24 347.4M1063.83 516.51L1023.44 290.51M979.62 181.56L999.82 282.41M999.82 282.41L1023.44 290.51M999.82 282.41L887.24 347.4M1023.44 290.51L1081.22 227.02M887.24 347.4L886.24 376.04M886.24 376.04L804.5 395.18M886.24 376.04L1051.89 512.72" stroke="black" stroke-width="30" stroke-linecap="round" stroke-linejoin="round"/><path d="M999.83 282.42L979.62 181.57C958.32 185.12 931.47 196.19 911.14 206.34L986.73 289.98L999.83 282.42Z" fill="#5FD8F0"/><path d="M979.62 181.56L999.82 282.41L1023.44 290.51L1081.22 227.02C1052.08 210.47 998.9 186.13 979.62 181.56Z" fill="#5FD8F0"/><path d="M1023.44 290.51L999.82 282.41L887.24 347.4L886.24 376.04L1051.89 512.72C1056.21 514.14 1060.2 515.41 1063.83 516.51L1023.44 290.51Z" fill="#5FD8F0"/><path d="M1063.83 516.51C1077.4 458.64 1099.39 301.01 1094.54 235.22C1091.16 232.87 1086.6 230.08 1081.22 227.02L1023.44 290.51L1063.83 516.51Z" fill="#5FD8F0"/><path d="M1051.89 512.72C988.5 491.79 855.95 437.19 804.87 402.46C804.69 400.34 804.57 397.9 804.5 395.18C803.68 364.03 809.67 296.78 815.87 276.11C834.94 252.93 871.95 227.75 891.07 217.27C909.7 205.95 950.01 186.49 979.62 181.56C998.9 186.13 1052.08 210.47 1081.22 227.02C1086.6 230.08 1091.16 232.87 1094.54 235.22C1099.39 301.01 1077.4 458.64 1063.83 516.51C1060.2 515.41 1056.21 514.14 1051.89 512.72ZM815.87 276.11L887.24 347.4M1063.83 516.51L1023.44 290.51M979.62 181.56L999.82 282.41M999.82 282.41L1023.44 290.51M999.82 282.41L887.24 347.4M1023.44 290.51L1081.22 227.02M887.24 347.4L886.24 376.04M886.24 376.04L804.5 395.18M886.24 376.04L1051.89 512.72" stroke="black" stroke-width="30" stroke-linecap="round" stroke-linejoin="round"/><path d="M1001.53 867.74C999.09 879.41 987.03 886.37 975.7 882.64L930.57 867.8C921.04 864.67 915.3 854.97 917.16 845.11L926.13 797.32C928.4 785.28 940.86 778.09 952.42 782.15L998.3 798.27C1007.76 801.59 1013.29 811.41 1011.24 821.23L1001.53 867.74Z" fill="#5BC8FB" stroke="black" stroke-width="30"/><path d="M1424.98 623.25C1422.54 634.93 1410.49 641.89 1399.16 638.16L1354.02 623.32C1344.49 620.19 1338.76 610.49 1340.61 600.63L1349.59 552.84C1351.85 540.8 1364.31 533.6 1375.87 537.67L1421.75 553.78C1431.21 557.11 1436.75 566.93 1434.7 576.74L1424.98 623.25Z" fill="#5BC8FB" stroke="black" stroke-width="30"/></g><defs><clipPath id="clip0_4368_3918"><rect width="3000" height="3000" fill="white" transform="translate(0 8.05) rotate(-.15)"/></clipPath></defs></svg>