<svg width="3009" height="3009" viewBox="0 0 3009 3009" fill="none" xmlns="http://www.w3.org/2000/svg">
<g clip-path="url(#clip0_4368_3918)">
<path d="M-98.071 285.761C-102.371 289.933 -103.775 296.264 -101.643 301.863C-101.455 302.358 -101.274 302.796 -101.15 303.091C-101.01 303.426 -100.955 303.556 -100.887 303.723L-100.579 304.472C-97.3304 312.252 -91.9433 321.115 -85.1527 330.661C-85.145 330.671 -85.1366 330.682 -85.1288 330.693C-73.9291 346.348 -59.8414 360.483 -43.2998 372.876L-43.2998 372.878C-26.2 385.899 -8.22644 395.734 10.2861 401.833L10.2861 401.835C24.5382 406.595 38.512 409.998 52.0323 411.962C52.1612 411.98 52.2912 411.998 52.4206 412.013C53.202 412.106 55.3116 412.398 57.1759 412.534C57.2398 412.542 57.3147 412.552 57.3925 412.561C57.5026 412.573 57.6598 412.588 57.8499 412.605C60.9312 412.904 64.1859 413.029 68.3839 412.966C68.4142 412.966 68.4447 412.965 68.475 412.965C80.3243 412.717 92.7914 410.98 105.559 408.002C105.579 407.997 105.6 407.992 105.62 407.987C106.431 407.795 107.349 408.29 107.594 409.205C107.794 410.11 107.216 410.991 106.386 411.197L106.341 411.208C93.7466 414.381 81.8257 416.152 70.9562 416.557C69.5731 416.609 68.2034 416.851 66.8869 417.278C55.849 420.858 47.3523 426.305 42.3222 434.53C37.6831 442.116 37.4362 449.836 37.6111 454.779L37.6507 455.729L37.6554 455.819C37.9372 461.148 39.7657 467.134 45.3523 473.684C45.5301 473.892 45.7136 474.096 45.9025 474.295C56.445 485.366 68.7155 492.828 83.0991 495.277C97.1729 497.674 111.628 494.989 126.304 488.835C126.493 488.767 126.681 488.696 126.867 488.62C127.033 488.565 127.113 488.544 127.125 488.541L127.125 488.54C139.655 485.961 159.944 478.581 191.518 459.197C191.893 458.998 192.236 458.797 192.547 458.6C192.831 458.458 193.142 458.409 193.49 458.463C193.863 458.521 194.185 458.686 194.421 458.909L194.516 459.008L194.528 459.021C194.554 459.051 194.617 459.128 194.74 459.317C195.165 460.06 194.909 461.045 194.2 461.48L194.159 461.505C168.297 477.462 148.263 486.741 132.727 490.724L132.125 490.892C129.138 491.792 126.5 493.602 124.586 496.077C120.968 500.755 117.949 505.859 115.665 511.167L115.218 512.231L115.091 512.553C113.623 516.384 112.42 520.55 112.111 524.733C111.817 528.707 112.236 534.217 115.67 539.243L116.012 539.728L116.041 539.767C118.654 543.336 125.12 551.98 139.466 555.349C152.871 558.497 170.772 556.493 195.526 546.451C195.534 546.448 195.543 546.444 195.551 546.441C205.833 542.248 216.887 536.836 228.3 530.425C228.638 530.235 228.969 530.031 229.292 529.815C230.073 529.293 230.802 528.881 232.362 527.959L232.362 527.958C233.697 527.189 234.978 526.376 235.953 525.759L235.953 525.758C245.254 519.875 255.119 513.743 257.543 512.507C257.584 512.486 257.626 512.464 257.667 512.443C257.984 512.278 258.286 512.241 258.609 512.304C258.969 512.375 259.302 512.565 259.539 512.834C259.547 512.843 259.555 512.852 259.563 512.861C259.534 512.827 259.629 512.93 259.797 513.235C260.175 513.986 259.885 515.015 259.073 515.447L259.074 515.447C256.907 516.601 249.725 520.978 237.788 528.514L237.591 528.641C236.895 529.095 236.538 529.322 236.224 529.502C232.36 531.724 229.685 535.549 228.922 539.94C228.806 540.608 228.752 540.929 228.704 541.221L228.517 542.328L228.472 542.59C226.514 554.986 229.095 566.162 236.257 576.321C236.436 576.593 236.577 576.793 236.646 576.889C236.742 577.021 236.836 577.142 236.919 577.25C237.335 577.814 237.793 578.357 238.298 578.871L238.367 578.941C240.741 581.36 243.74 582.805 246.861 583.268C246.866 583.269 246.87 583.271 246.875 583.272C248.395 583.544 250.02 583.649 251.744 583.585C255.014 583.462 258.79 582.722 263.219 581.185C263.659 581.053 264.063 580.909 264.432 580.765C278.661 575.975 289.844 565.818 302.407 554.692L302.407 554.693C312.092 546.159 323.736 535.893 339.009 524.861C339.1 524.796 339.19 524.73 339.279 524.663C340.263 523.917 341.28 523.09 341.919 522.576C343.442 521.4 343.698 521.156 344.418 520.637C344.761 520.39 345.094 520.128 345.414 519.853C352.426 513.838 355.786 510.562 358.276 508.069L359.471 506.896C359.508 506.859 359.544 506.821 359.581 506.784L359.814 506.578C360.425 506.079 361.41 506.106 362.02 506.728L362.02 506.729C362.636 507.359 362.66 508.399 361.972 509.075L361.51 509.528L361.255 509.783C359.952 511.126 357.405 513.774 352.759 517.916L352.283 518.359C347.482 523.025 346.34 530.346 349.562 536.274C349.713 536.551 349.848 536.782 349.952 536.953C350.024 537.071 350.091 537.174 350.145 537.258C350.58 537.978 351.076 538.66 351.626 539.297C355.356 543.616 360.105 544.967 363.135 545.377C366.166 545.787 368.936 545.482 370.894 545.142C374.851 544.455 378.729 543.029 381.443 541.913C381.467 541.903 381.492 541.892 381.516 541.882C397.643 535.147 414.176 521.18 429.649 503.04C429.658 503.03 429.667 503.019 429.676 503.008C439.359 491.591 445.283 478.995 446.665 464.934C447.306 458.413 443.64 452.231 437.611 449.665L265.363 376.363L265.34 376.353C255.164 372.042 245.5 367.032 236.332 361.412C233.652 359.743 231.101 358.123 228.647 356.479C208.808 343.1 191.647 326.868 177.469 308.554C177.456 308.538 177.443 308.522 177.431 308.506C174.431 304.663 171.587 300.695 168.843 296.6C168.825 296.57 168.803 296.536 168.782 296.5C168.697 296.361 168.558 296.136 168.386 295.873C165.199 290.996 159.477 288.405 153.709 289.229C144.55 290.537 135.196 291.995 125.713 293.73L125.686 293.735L123.259 294.183C97.3722 298.877 63.3526 304.928 35.6559 305.865L35.4507 305.873C4.72216 307.333 -30.2226 306.299 -67.7367 289.058C-70.3839 287.806 -76.3423 284.971 -81.8681 282.675C-87.4005 280.375 -93.7712 281.589 -98.071 285.761ZM131.598 485.842C131.851 485.623 132.086 485.407 132.302 485.194C132.07 485.423 131.834 485.638 131.598 485.842ZM129.786 487.184C130.118 486.975 130.43 486.761 130.724 486.543C130.863 486.439 130.998 486.335 131.129 486.23C130.682 486.586 130.234 486.903 129.786 487.184Z" fill="#E9F6FB" stroke="black" stroke-width="30" stroke-linejoin="round"/>
<path d="M129.28 276.682C124.98 280.854 123.576 287.185 125.707 292.784C125.874 293.221 126.032 293.602 126.131 293.841C126.255 294.138 126.284 294.205 126.334 294.327C128.818 300.477 132.904 307.33 137.957 314.561L138.981 316.014L139.005 316.047C147.963 328.568 159.206 339.839 172.36 349.698L172.36 349.7C185.959 360.055 200.314 367.924 215.167 372.82L215.167 372.821C226.463 376.594 237.569 379.301 248.344 380.866C248.473 380.885 248.602 380.903 248.732 380.918C249.208 380.975 250.959 381.216 252.52 381.334C252.547 381.337 252.575 381.34 252.603 381.343C246.635 384.211 241.73 388.137 238.43 393.534C234.029 400.731 234.118 408.012 234.303 411.959C234.304 411.989 234.305 412.019 234.307 412.049C234.557 416.783 236.165 421.963 240.657 427.431L241.101 427.961L241.371 428.27C241.463 428.372 241.556 428.472 241.65 428.571C250.265 437.619 260.459 443.878 272.532 445.934C282.137 447.57 291.845 446.358 301.521 443.164C299.133 446.514 297.104 450.097 295.506 453.812L295.134 454.696L295.007 455.017C293.8 458.168 292.745 461.756 292.471 465.465C292.211 468.979 292.558 474.128 295.813 478.891L296.137 479.351L296.166 479.39C298.371 482.401 304.015 489.918 316.362 492.817C327.77 495.496 342.496 493.682 362.137 485.714C362.145 485.711 362.155 485.707 362.163 485.703C369.154 482.852 376.567 479.302 384.201 475.17C384.015 475.774 383.865 476.393 383.755 477.023C383.653 477.61 383.615 477.843 383.582 478.044L383.44 478.88L383.395 479.143C381.736 489.645 383.939 499.221 390.002 507.846C390.169 508.097 390.299 508.281 390.363 508.369C390.417 508.444 390.472 508.515 390.523 508.583C390.956 509.18 391.439 509.753 391.972 510.296L392.025 510.349C394.377 512.746 397.344 514.188 400.434 514.664L400.978 514.754C402.254 514.944 403.578 515.009 404.939 514.958C407.876 514.848 411.136 514.192 414.809 512.921C415.18 512.808 415.525 512.685 415.843 512.563C427.687 508.554 436.921 500.11 446.561 491.572L446.561 491.573C454.124 484.909 463.115 476.983 474.904 468.468C474.995 468.403 475.085 468.337 475.174 468.27C475.69 467.879 476.218 467.459 476.657 467.106C476.238 470.187 476.772 473.404 478.342 476.291C478.417 476.43 478.488 476.556 478.552 476.666C478.616 476.776 478.675 476.875 478.727 476.961C478.83 477.13 478.918 477.268 478.978 477.361C479.388 478.017 479.847 478.642 480.354 479.229C483.975 483.421 488.559 484.703 491.387 485.086C494.218 485.469 496.749 485.178 498.45 484.883C501.893 484.285 505.182 483.065 507.377 482.162C507.402 482.152 507.426 482.143 507.451 482.132C520.725 476.588 534.038 465.245 546.281 450.893C546.29 450.882 546.299 450.871 546.309 450.86C554.231 441.519 559.188 431.069 560.342 419.317C560.983 412.796 557.318 406.614 551.289 404.048L416.74 346.789L416.718 346.78C408.899 343.468 401.474 339.616 394.429 335.293C392.381 334.017 390.45 332.789 388.603 331.551C373.403 321.299 360.256 308.864 349.394 294.833C349.381 294.817 349.369 294.801 349.357 294.786C347.079 291.868 344.914 288.849 342.818 285.723C342.779 285.659 342.727 285.575 342.668 285.479C342.608 285.383 342.535 285.268 342.452 285.142C339.266 280.264 333.542 277.673 327.774 278.497C320.593 279.523 313.242 280.668 305.779 282.033L305.752 282.038L303.817 282.396C283.552 286.07 257.247 290.739 235.913 291.461L235.707 291.469C211.926 292.599 185.27 291.777 156.693 278.659C154.655 277.696 149.904 275.434 145.482 273.596L144.961 273.39C139.554 271.375 133.445 272.64 129.28 276.682ZM478.734 476.954C478.725 476.939 478.715 476.923 478.705 476.907C478.697 476.893 478.69 476.878 478.682 476.864C478.699 476.894 478.716 476.924 478.734 476.954ZM342.68 285.521C342.689 285.535 342.698 285.548 342.706 285.56C342.624 285.439 342.54 285.318 342.454 285.199C342.542 285.321 342.618 285.43 342.68 285.521Z" fill="#E9F6FB" stroke="black" stroke-width="30" stroke-linejoin="round"/>
<path d="M1323.64 -412.888C1329.41 -414.526 1335.59 -412.576 1339.38 -407.931C1339.67 -407.568 1339.92 -407.241 1340.08 -407.035C1340.27 -406.779 1340.32 -406.721 1340.4 -406.616C1344.48 -401.39 1348.37 -394.425 1352.11 -386.434L1352.86 -384.82L1352.87 -384.783C1359.24 -370.764 1363.38 -355.392 1365.34 -339.071L1365.34 -339.07C1367.51 -322.116 1367.14 -305.749 1363.96 -290.439L1363.96 -290.438C1361.58 -278.768 1358.37 -267.797 1354.34 -257.683C1354.29 -257.562 1354.24 -257.441 1354.19 -257.321C1354 -256.881 1353.33 -255.244 1352.65 -253.833C1352.64 -253.808 1352.63 -253.782 1352.62 -253.756C1358.09 -257.491 1363.94 -259.775 1370.27 -259.935C1378.7 -260.148 1384.96 -256.43 1388.29 -254.297C1388.31 -254.28 1388.34 -254.264 1388.36 -254.248C1392.34 -251.665 1396.02 -247.682 1398.51 -241.058L1398.75 -240.408L1398.88 -240.02C1398.92 -239.889 1398.96 -239.759 1399 -239.628C1402.53 -227.643 1402.85 -215.685 1398.59 -204.202C1395.21 -195.065 1389.31 -187.265 1381.7 -180.481C1385.8 -180.875 1389.91 -180.84 1393.93 -180.367L1394.88 -180.247L1395.22 -180.196C1398.56 -179.666 1402.19 -178.786 1405.54 -177.169C1408.71 -175.637 1413 -172.762 1415.5 -167.561L1415.73 -167.051L1415.75 -167.006C1417.26 -163.591 1420.94 -154.945 1417.28 -142.802C1413.9 -131.583 1404.96 -119.737 1388.24 -106.712C1388.24 -106.706 1388.23 -106.7 1388.22 -106.694C1382.26 -102.066 1375.47 -97.4206 1368.08 -92.8753C1368.7 -92.7345 1369.31 -92.5555 1369.91 -92.3351C1370.47 -92.1299 1370.69 -92.0467 1370.88 -91.9744L1371.67 -91.6796L1371.92 -91.5868C1381.85 -87.7723 1389.04 -81.0767 1393.48 -71.5134C1393.61 -71.2441 1393.7 -71.0394 1393.75 -70.9396C1393.79 -70.855 1393.82 -70.7717 1393.85 -70.694C1394.15 -70.0201 1394.41 -69.3153 1394.61 -68.5828L1394.63 -68.5104C1395.53 -65.2743 1395.3 -61.9846 1394.17 -59.0697L1393.97 -58.5545C1393.5 -57.3539 1392.89 -56.1753 1392.17 -55.0218C1390.6 -52.5329 1388.41 -50.0385 1385.47 -47.4923C1385.18 -47.228 1384.91 -46.9909 1384.64 -46.776C1375.25 -38.5235 1363.32 -34.7487 1351.1 -30.6696L1351.1 -30.6689C1341.55 -27.4507 1330.19 -23.6271 1316.92 -17.6748C1316.82 -17.6292 1316.72 -17.5843 1316.62 -17.541C1316.02 -17.2891 1315.39 -17.0425 1314.87 -16.8379C1317.74 -15.6607 1320.26 -13.5896 1321.98 -10.7868C1322.06 -10.6519 1322.14 -10.5273 1322.2 -10.417C1322.26 -10.3067 1322.32 -10.2064 1322.37 -10.1181C1322.46 -9.94489 1322.54 -9.79918 1322.59 -9.70091C1322.95 -9.01794 1323.26 -8.30744 1323.52 -7.57548C1325.34 -2.34327 1324.16 2.26741 1323.07 4.90842C1321.99 7.5513 1320.47 9.59792 1319.37 10.9234C1317.13 13.6063 1314.43 15.8448 1312.55 17.2944C1312.53 17.3104 1312.5 17.3272 1312.48 17.3431C1301.05 26.0666 1284.57 31.9251 1266.01 35.3515C1266 35.354 1265.99 35.3564 1265.97 35.3589C1253.92 37.5493 1242.39 36.6169 1231.64 31.7408C1225.67 29.0352 1222.15 22.7699 1222.94 16.2658L1240.63 -128.886L1240.63 -128.91C1241.67 -137.337 1242.05 -145.694 1241.83 -153.956C1241.75 -156.368 1241.65 -158.654 1241.5 -160.873C1240.22 -179.162 1236.03 -196.766 1229.31 -213.188C1229.3 -213.207 1229.29 -213.225 1229.28 -213.244C1227.9 -216.675 1226.36 -220.06 1224.7 -223.438C1224.67 -223.504 1224.62 -223.59 1224.57 -223.69C1224.52 -223.79 1224.45 -223.91 1224.38 -224.045C1221.75 -229.244 1222.37 -235.496 1225.97 -240.079C1230.45 -245.785 1235.12 -251.579 1240.03 -257.359L1240.05 -257.38L1241.32 -258.877C1254.64 -274.59 1271.83 -295.036 1283.13 -313.152L1283.24 -313.325C1296.11 -333.355 1308.72 -356.851 1311.65 -388.159C1311.83 -390.405 1312.25 -395.651 1312.87 -400.399L1312.95 -400.953C1313.91 -406.644 1318.06 -411.301 1323.64 -412.888ZM1322.36 -10.1155C1322.35 -10.1312 1322.34 -10.1477 1322.33 -10.1638C1322.32 -10.1777 1322.31 -10.191 1322.31 -10.2053C1322.32 -10.1754 1322.34 -10.1455 1322.36 -10.1155ZM1224.6 -223.658C1224.61 -223.643 1224.61 -223.63 1224.62 -223.616C1224.56 -223.748 1224.49 -223.881 1224.43 -224.015C1224.49 -223.877 1224.55 -223.757 1224.6 -223.658Z" fill="#E9F6FB" stroke="black" stroke-width="30" stroke-linejoin="round"/>
<path d="M633.535 346.779C703.016 502.151 860.623 597.751 953.064 635.96C971.524 643.589 992.293 641.242 1009.59 631.255L1099.96 579.081L1190.33 526.907C1207.63 516.92 1220.04 500.107 1222.66 480.306C1235.8 381.145 1231.81 196.853 1131.99 58.9954C1124.48 48.6208 1117.13 39.3015 1109.95 30.969C1062.88 42.4657 960.061 92.4258 897.936 131.429L855.614 155.863L813.292 180.298C748.452 214.598 653.774 278.666 620.286 313.674C623.911 324.062 628.307 335.087 633.535 346.779Z" fill="white"/>
<path d="M560.538 366.976L535.402 394.027C521.765 413.161 509.534 432.142 499.355 451.025C435.854 568.833 452.194 682.883 704.956 807.136L787.813 759.298C836.033 731.459 834.371 660.173 788.692 628.336C646.326 529.108 583.506 419.978 560.538 366.976Z" fill="white"/>
<path d="M1221.98 -2.36706L1185.98 5.87599C1220.4 52.2678 1283.5 161.237 1298.25 334.143C1302.98 389.621 1363.89 426.703 1412.1 398.863L1494.96 351.026C1513.74 70.0009 1423.14 -1.17514 1289.36 -5.08479C1267.92 -5.71153 1245.37 -4.60983 1221.98 -2.36706Z" fill="white"/>
<path d="M560.538 366.976L535.402 394.027M704.956 807.136L787.813 759.298C836.033 731.459 834.371 660.173 788.692 628.336C646.326 529.108 583.506 419.978 560.538 366.976C560.538 366.976 441.277 104.122 679.326 89.4376M535.402 394.027C303.734 255.418 91.7951 643.207 638.05 892.719C651.695 898.952 663.669 909.407 671.169 922.398C699.056 970.701 718.981 1005.21 733.2 1029.84C752.525 1063.31 795.296 1074.74 828.768 1055.41L1238.42 818.9L1648.07 582.389C1681.54 563.063 1693.03 520.311 1673.71 486.838C1659.49 462.211 1639.56 427.698 1611.68 379.396C1604.17 366.406 1601.11 350.808 1602.53 335.875C1659.58 -261.952 1217.77 -272.301 1221.98 -2.36706M535.402 394.027C521.765 413.161 509.534 432.142 499.355 451.025M1494.96 351.026L1412.1 398.863C1363.89 426.703 1302.98 389.621 1298.25 334.143C1283.5 161.237 1220.4 52.2678 1185.98 5.87602C1185.98 5.87602 1017.97 -228.834 886.232 -30.0198C872.883 -9.87389 859.906 14.7234 847.513 44.4674C833.653 77.7348 798.933 97.7803 763.193 93.1498C731.238 89.0098 703.447 87.9496 679.326 89.4376M679.326 89.4376C661.28 54.5617 644.939 -26.593 723.939 -72.204C802.94 -117.815 865.052 -63.0858 886.232 -30.0198M704.956 807.136L681.924 820.434C663.76 830.92 641.725 832.957 622.603 824.341C481.272 760.662 400.158 649.422 377.377 598.126C358.009 559.149 333.651 473.52 381.761 448.252C410.627 433.091 445.957 428.038 499.355 451.025M704.956 807.136C452.194 682.883 435.854 568.833 499.355 451.025M620.286 313.674C653.774 278.666 748.452 214.598 813.292 180.298L855.614 155.863L897.936 131.429C960.061 92.4258 1062.88 42.4656 1109.95 30.969M813.292 180.298C730.621 144.984 556.723 131.476 620.286 313.674M620.286 313.674C623.911 324.062 628.307 335.087 633.535 346.779C703.016 502.151 860.623 597.751 953.064 635.96C971.524 643.589 992.293 641.242 1009.59 631.255L1099.96 579.081L1190.33 526.907C1207.63 516.92 1220.04 500.107 1222.66 480.306C1235.8 381.145 1231.81 196.853 1131.99 58.9954C1124.48 48.6208 1117.13 39.3016 1109.95 30.969M1185.98 5.87602L1221.98 -2.36706M1221.98 -2.36706C1245.37 -4.60982 1267.92 -5.7115 1289.36 -5.08481M1494.96 351.026L1517.99 337.728C1536.16 327.241 1548.94 309.177 1551.04 288.309C1566.56 134.072 1510.78 8.20569 1477.74 -37.171C1453.67 -73.4328 1391.7 -137.342 1345.76 -108.311C1318.19 -90.8929 1296.15 -62.8231 1289.36 -5.08481M1494.96 351.026C1513.74 70.0009 1423.14 -1.1751 1289.36 -5.08481M897.936 131.429C908.689 42.1767 983.94 -115.178 1109.95 30.969M717.634 -148.921C725.046 -174.483 710.013 -201.147 684.304 -208.035C658.962 -214.826 632.914 -199.787 626.124 -174.445C619.235 -148.736 634.81 -122.385 660.653 -116.023C685.396 -109.931 710.538 -124.447 717.634 -148.921Z" stroke="black" stroke-width="30.004"/>
<path fill-rule="evenodd" clip-rule="evenodd" d="M535.402 394.027C303.734 255.418 91.795 643.207 638.05 892.719C651.695 898.951 663.669 909.406 671.169 922.397C699.055 970.701 718.981 1005.21 733.2 1029.84C752.525 1063.31 795.296 1074.74 828.768 1055.41L1238.42 818.9L1648.07 582.389C1681.54 563.063 1693.03 520.311 1673.71 486.838C1659.49 462.211 1639.56 427.698 1611.67 379.396C1604.17 366.405 1601.11 350.808 1602.53 335.875C1659.58 -261.952 1217.77 -272.301 1221.98 -2.36712C1245.37 -4.60985 1267.92 -5.71156 1289.36 -5.08487C1296.15 -62.8231 1318.19 -90.893 1345.76 -108.311C1391.69 -137.342 1453.67 -73.4329 1477.74 -37.171C1510.78 8.20564 1566.56 134.072 1551.04 288.308C1548.94 309.177 1536.16 327.241 1517.99 337.728L1494.96 351.026L1412.1 398.863C1363.89 426.703 1302.98 389.621 1298.25 334.143C1283.5 161.236 1220.4 52.2678 1185.98 5.87602C1185.98 5.87602 1017.97 -228.834 886.232 -30.0198C872.883 -9.87388 859.906 14.7234 847.513 44.4673C833.653 77.7348 798.934 97.7802 763.193 93.1498C731.238 89.0098 703.447 87.9496 679.326 89.4376C441.277 104.122 560.538 366.976 560.538 366.976C583.505 419.978 646.326 529.107 788.692 628.335C834.371 660.173 836.033 731.459 787.813 759.298L704.956 807.136L681.924 820.434C663.76 830.92 641.725 832.957 622.603 824.341C481.272 760.662 400.158 649.422 377.377 598.125C358.009 559.149 333.651 473.52 381.761 448.252C410.627 433.091 445.957 428.038 499.355 451.025C509.534 432.142 521.765 413.161 535.402 394.027ZM1009.59 631.255C992.293 641.242 971.524 643.589 953.064 635.96C860.623 597.751 703.016 502.151 633.535 346.779C628.307 335.087 623.911 324.062 620.286 313.674C556.723 131.476 730.621 144.984 813.292 180.298L855.614 155.863L897.936 131.429C908.689 42.1767 983.94 -115.178 1109.95 30.9689C1117.13 39.3015 1124.48 48.6207 1131.99 58.9954C1231.81 196.853 1235.8 381.145 1222.66 480.306C1220.04 500.107 1207.63 516.92 1190.33 526.907L1099.96 579.081L1009.59 631.255Z" fill="#5BC8FB"/>
<path d="M679.326 89.4376C703.447 87.9496 731.238 89.0098 763.193 93.1498C798.934 97.7802 833.653 77.7348 847.513 44.4673C859.906 14.7234 872.883 -9.87388 886.232 -30.0198C865.051 -63.0858 802.94 -117.815 723.94 -72.2041C644.939 -26.5931 661.28 54.5616 679.326 89.4376Z" fill="#5BC8FB"/>
<path d="M704.935 -105.121L613.575 -127.613L638.419 -220.33L731.136 -195.487L704.935 -105.121Z" fill="#F35B5B"/>
<path d="M560.538 366.976L535.402 394.027M704.956 807.136L787.813 759.298C836.033 731.459 834.371 660.173 788.692 628.335C646.326 529.107 583.505 419.978 560.538 366.976C560.538 366.976 441.277 104.122 679.326 89.4376C703.447 87.9496 731.238 89.0098 763.193 93.1498C798.934 97.7802 833.653 77.7348 847.513 44.4673C859.906 14.7234 872.883 -9.8739 886.232 -30.0198C1017.97 -228.834 1185.98 5.87602 1185.98 5.87602C1220.4 52.2678 1283.5 161.236 1298.25 334.143C1302.98 389.621 1363.89 426.703 1412.1 398.863L1494.96 351.026M535.402 394.027C303.734 255.418 91.795 643.206 638.05 892.719C651.695 898.951 663.669 909.406 671.169 922.397C699.055 970.701 718.981 1005.21 733.2 1029.84C752.525 1063.31 795.296 1074.74 828.768 1055.41L1238.42 818.9L1648.07 582.389C1681.54 563.063 1693.03 520.311 1673.71 486.838C1659.49 462.211 1639.56 427.698 1611.67 379.396C1604.17 366.405 1601.11 350.808 1602.53 335.875C1659.58 -261.952 1217.77 -272.301 1221.98 -2.36712M535.402 394.027C521.765 413.161 509.534 432.142 499.355 451.025M679.326 89.4376C661.28 54.5616 644.939 -26.5931 723.94 -72.2041C802.94 -117.815 865.051 -63.0858 886.232 -30.0198M704.956 807.136L681.924 820.434C663.76 830.92 641.725 832.956 622.603 824.341C481.272 760.662 400.158 649.422 377.377 598.125C358.009 559.149 333.651 473.52 381.761 448.252C410.627 433.091 445.957 428.038 499.355 451.025M704.956 807.136C452.194 682.883 435.854 568.833 499.355 451.025M620.286 313.674C653.774 278.666 748.452 214.598 813.292 180.298L855.614 155.863L897.936 131.429C960.061 92.4257 1062.88 42.4656 1109.95 30.9689M813.292 180.298C730.621 144.984 556.723 131.476 620.286 313.674M620.286 313.674C623.911 324.062 628.307 335.087 633.535 346.779C703.016 502.151 860.623 597.751 953.064 635.96C971.524 643.589 992.293 641.242 1009.59 631.255L1099.96 579.081L1190.33 526.907C1207.63 516.92 1220.04 500.107 1222.66 480.306C1235.8 381.145 1231.81 196.853 1131.99 58.9954C1124.48 48.6207 1117.13 39.3015 1109.95 30.9689M1185.98 5.87602L1221.98 -2.36712M1221.98 -2.36712C1245.37 -4.60988 1267.92 -5.71156 1289.36 -5.08487M1494.96 351.026L1517.99 337.728C1536.16 327.241 1548.94 309.177 1551.04 288.308C1566.56 134.072 1510.78 8.20562 1477.74 -37.171C1453.67 -73.4329 1391.7 -137.342 1345.76 -108.311C1318.19 -90.8929 1296.15 -62.8231 1289.36 -5.08487M1494.96 351.026C1513.74 70.0008 1423.14 -1.17517 1289.36 -5.08487M897.936 131.429C908.689 42.1767 983.94 -115.178 1109.95 30.9689M704.935 -105.121L613.575 -127.613L638.419 -220.33L731.136 -195.487L704.935 -105.121Z" stroke="black" stroke-width="30.004"/>
<path d="M1023.44 290.515L999.822 282.407L887.242 347.405L886.239 376.042L1051.89 512.719C1056.21 514.145 1060.2 515.414 1063.83 516.511L1023.44 290.515Z" fill="#88E6F5"/>
<path d="M1063.83 516.511C1077.4 458.645 1099.39 301.011 1094.54 235.218C1091.16 232.866 1086.6 230.076 1081.22 227.019L1023.44 290.515L1063.83 516.511Z" fill="#88E6F5"/>
<path fill-rule="evenodd" clip-rule="evenodd" d="M891.068 217.272C871.95 227.746 834.94 252.928 815.87 276.106C809.673 296.781 803.684 364.034 804.499 395.177C804.57 397.898 804.694 400.344 804.873 402.459C855.948 437.185 988.497 491.79 1051.89 512.719L886.239 376.042L887.242 347.405L999.822 282.407L979.619 181.565C950.011 186.491 909.698 205.952 891.068 217.272Z" fill="#88E6F5"/>
<path d="M1051.89 512.719C988.497 491.79 855.948 437.185 804.873 402.459C804.694 400.344 804.57 397.898 804.499 395.177C803.684 364.034 809.673 296.781 815.87 276.106C834.94 252.928 871.95 227.746 891.068 217.272C909.698 205.952 950.011 186.491 979.619 181.565C998.899 186.128 1052.08 210.466 1081.22 227.019C1086.6 230.076 1091.16 232.866 1094.54 235.218C1099.39 301.011 1077.4 458.645 1063.83 516.511C1060.2 515.414 1056.21 514.145 1051.89 512.719ZM815.87 276.106L887.242 347.405M1063.83 516.511L1023.44 290.515M979.619 181.565L999.822 282.407M999.822 282.407L1023.44 290.515M999.822 282.407L887.242 347.405M1023.44 290.515L1081.22 227.019M887.242 347.405L886.239 376.042M886.239 376.042L804.499 395.177M886.239 376.042L1051.89 512.719" stroke="black" stroke-width="30" stroke-linecap="round" stroke-linejoin="round"/>
<path d="M999.826 282.417L979.622 181.575C958.316 185.12 931.465 196.192 911.141 206.34L986.726 289.98L999.826 282.417Z" fill="#5FD8F0"/>
<path d="M979.619 181.565L999.822 282.407L1023.44 290.515L1081.22 227.019C1052.08 210.466 998.899 186.128 979.619 181.565Z" fill="#5FD8F0"/>
<path d="M1023.44 290.515L999.822 282.407L887.242 347.405L886.239 376.042L1051.89 512.719C1056.21 514.145 1060.2 515.414 1063.83 516.511L1023.44 290.515Z" fill="#5FD8F0"/>
<path d="M1063.83 516.511C1077.4 458.645 1099.39 301.011 1094.54 235.218C1091.16 232.866 1086.6 230.076 1081.22 227.019L1023.44 290.515L1063.83 516.511Z" fill="#5FD8F0"/>
<path d="M1051.89 512.719C988.497 491.79 855.948 437.185 804.873 402.459C804.694 400.344 804.57 397.898 804.499 395.177C803.684 364.034 809.673 296.781 815.87 276.106C834.94 252.928 871.95 227.746 891.068 217.272C909.698 205.952 950.011 186.491 979.619 181.565C998.899 186.128 1052.08 210.466 1081.22 227.019C1086.6 230.076 1091.16 232.866 1094.54 235.218C1099.39 301.011 1077.4 458.645 1063.83 516.511C1060.2 515.414 1056.21 514.145 1051.89 512.719ZM815.87 276.106L887.242 347.405M1063.83 516.511L1023.44 290.515M979.619 181.565L999.822 282.407M999.822 282.407L1023.44 290.515M999.822 282.407L887.242 347.405M1023.44 290.515L1081.22 227.019M887.242 347.405L886.239 376.042M886.239 376.042L804.499 395.177M886.239 376.042L1051.89 512.719" stroke="black" stroke-width="30" stroke-linecap="round" stroke-linejoin="round"/>
<path d="M1023.44 290.515L999.822 282.407L887.242 347.405L886.239 376.042L1051.89 512.719C1056.21 514.145 1060.2 515.414 1063.83 516.511L1023.44 290.515Z" fill="#88E6F5"/>
<path d="M1063.83 516.511C1077.4 458.645 1099.39 301.011 1094.54 235.218C1091.16 232.866 1086.6 230.076 1081.22 227.019L1023.44 290.515L1063.83 516.511Z" fill="#88E6F5"/>
<path fill-rule="evenodd" clip-rule="evenodd" d="M891.068 217.272C871.95 227.746 834.94 252.928 815.87 276.106C809.673 296.781 803.684 364.034 804.499 395.177C804.57 397.898 804.694 400.344 804.873 402.459C855.948 437.185 988.497 491.79 1051.89 512.719L886.239 376.042L887.242 347.405L999.822 282.407L979.619 181.565C950.011 186.491 909.698 205.952 891.068 217.272Z" fill="#88E6F5"/>
<path d="M1051.89 512.719C988.497 491.79 855.948 437.185 804.873 402.459C804.694 400.344 804.57 397.898 804.499 395.177C803.684 364.034 809.673 296.781 815.87 276.106C834.94 252.928 871.95 227.746 891.068 217.272C909.698 205.952 950.011 186.491 979.619 181.565C998.899 186.128 1052.08 210.466 1081.22 227.019C1086.6 230.076 1091.16 232.866 1094.54 235.218C1099.39 301.011 1077.4 458.645 1063.83 516.511C1060.2 515.414 1056.21 514.145 1051.89 512.719ZM815.87 276.106L887.242 347.405M1063.83 516.511L1023.44 290.515M979.619 181.565L999.822 282.407M999.822 282.407L1023.44 290.515M999.822 282.407L887.242 347.405M1023.44 290.515L1081.22 227.019M887.242 347.405L886.239 376.042M886.239 376.042L804.499 395.177M886.239 376.042L1051.89 512.719" stroke="black" stroke-width="30" stroke-linecap="round" stroke-linejoin="round"/>
<path d="M999.826 282.417L979.622 181.575C958.316 185.12 931.465 196.192 911.141 206.34L986.726 289.98L999.826 282.417Z" fill="#5FD8F0"/>
<path d="M979.619 181.565L999.822 282.407L1023.44 290.515L1081.22 227.019C1052.08 210.466 998.899 186.128 979.619 181.565Z" fill="#5FD8F0"/>
<path d="M1023.44 290.515L999.822 282.407L887.242 347.405L886.239 376.042L1051.89 512.719C1056.21 514.145 1060.2 515.414 1063.83 516.511L1023.44 290.515Z" fill="#5FD8F0"/>
<path d="M1063.83 516.511C1077.4 458.645 1099.39 301.011 1094.54 235.218C1091.16 232.866 1086.6 230.076 1081.22 227.019L1023.44 290.515L1063.83 516.511Z" fill="#5FD8F0"/>
<path d="M1051.89 512.719C988.497 491.79 855.948 437.185 804.873 402.459C804.694 400.344 804.57 397.898 804.499 395.177C803.684 364.034 809.673 296.781 815.87 276.106C834.94 252.928 871.95 227.746 891.068 217.272C909.698 205.952 950.011 186.491 979.619 181.565C998.899 186.128 1052.08 210.466 1081.22 227.019C1086.6 230.076 1091.16 232.866 1094.54 235.218C1099.39 301.011 1077.4 458.645 1063.83 516.511C1060.2 515.414 1056.21 514.145 1051.89 512.719ZM815.87 276.106L887.242 347.405M1063.83 516.511L1023.44 290.515M979.619 181.565L999.822 282.407M999.822 282.407L1023.44 290.515M999.822 282.407L887.242 347.405M1023.44 290.515L1081.22 227.019M887.242 347.405L886.239 376.042M886.239 376.042L804.499 395.177M886.239 376.042L1051.89 512.719" stroke="black" stroke-width="30" stroke-linecap="round" stroke-linejoin="round"/>
<path d="M1001.53 867.735C999.088 879.412 987.035 886.371 975.703 882.645L930.565 867.804C921.039 864.671 915.305 854.968 917.156 845.112L926.134 797.323C928.397 785.28 940.859 778.085 952.42 782.147L998.296 798.266C1007.76 801.59 1013.29 811.408 1011.24 821.225L1001.53 867.735Z" fill="#5BC8FB" stroke="black" stroke-width="30.004"/>
<path d="M1424.98 623.255C1422.54 634.931 1410.49 641.89 1399.16 638.164L1354.02 623.323C1344.49 620.191 1338.76 610.487 1340.61 600.631L1349.59 552.842C1351.85 540.799 1364.31 533.604 1375.87 537.666L1421.75 553.785C1431.21 557.11 1436.75 566.927 1434.7 576.744L1424.98 623.255Z" fill="#5BC8FB" stroke="black" stroke-width="30.004"/>
</g>
<defs>
<clipPath id="clip0_4368_3918">
<rect width="3000" height="3000" fill="white" transform="translate(0 8.055) rotate(-0.153839)"/>
</clipPath>
</defs>
</svg>
