<svg width="3009" height="3009" viewBox="0 0 3009 3009" fill="none" xmlns="http://www.w3.org/2000/svg"><g clip-path="url(#clip0_4368_3920)"><path d="M1772.28 304.63C1778.07 303.1 1784.22 305.16 1787.92 309.88C1788.21 310.24 1788.45 310.58 1788.6 310.78C1788.79 311.04 1788.84 311.1 1788.92 311.21C1792.9 316.51 1796.66 323.55 1800.25 331.6L1800.97 333.23L1800.98 333.27C1807.09 347.4 1810.94 362.85 1812.6 379.2L1812.6 379.2C1814.46 396.2 1813.79 412.55 1810.32 427.8L1810.33 427.8C1807.73 439.43 1804.32 450.34 1800.1 460.37C1800.05 460.5 1800 460.62 1799.94 460.73C1799.75 461.17 1799.05 462.8 1798.34 464.2C1798.33 464.22 1798.32 464.25 1798.31 464.27C1803.85 460.64 1809.74 458.46 1816.07 458.42C1824.5 458.36 1830.69 462.19 1833.98 464.39C1834 464.4 1834.03 464.42 1834.05 464.44C1837.98 467.09 1841.59 471.14 1843.95 477.81L1844.18 478.47L1844.31 478.86C1844.35 478.99 1844.38 479.12 1844.42 479.25C1847.72 491.3 1847.83 503.26 1843.36 514.66C1839.81 523.74 1833.76 531.43 1826.03 538.07C1830.13 537.75 1834.25 537.86 1838.26 538.41L1839.2 538.55L1839.55 538.6C1842.87 539.2 1846.48 540.14 1849.8 541.82C1852.95 543.41 1857.18 546.37 1859.58 551.61L1859.81 552.13L1859.83 552.17C1861.27 555.61 1864.8 564.33 1860.91 576.4C1857.32 587.55 1848.17 599.23 1831.21 611.95C1831.2 611.95 1831.19 611.96 1831.18 611.96C1825.14 616.48 1818.27 621 1810.79 625.41C1811.4 625.56 1812.01 625.75 1812.61 625.98C1813.16 626.2 1813.38 626.28 1813.57 626.36L1814.36 626.67L1814.61 626.77C1824.46 630.76 1831.53 637.59 1835.79 647.23C1835.92 647.51 1836.01 647.71 1836.05 647.82C1836.1 647.92 1836.14 648.02 1836.18 648.12C1836.45 648.78 1836.69 649.47 1836.87 650.19L1836.89 650.26C1837.73 653.51 1837.43 656.8 1836.25 659.69L1836.04 660.2C1835.55 661.39 1834.92 662.56 1834.18 663.7C1832.57 666.16 1830.32 668.61 1827.34 671.11C1827.05 671.37 1826.77 671.6 1826.5 671.81C1816.95 679.88 1804.96 683.44 1792.67 687.29L1792.67 687.29C1783.06 690.33 1771.63 693.94 1758.25 699.65C1758.15 699.69 1758.05 699.74 1757.94 699.78C1757.34 700.02 1756.71 700.25 1756.18 700.45C1759.04 701.68 1761.52 703.8 1763.18 706.63C1763.26 706.77 1763.33 706.89 1763.39 707C1763.46 707.12 1763.51 707.22 1763.56 707.31C1763.65 707.48 1763.72 707.63 1763.77 707.73C1764.12 708.42 1764.42 709.13 1764.66 709.87C1766.38 715.13 1765.12 719.72 1763.99 722.34C1762.85 724.97 1761.3 726.98 1760.17 728.29C1757.88 730.93 1755.14 733.12 1753.23 734.53C1753.21 734.55 1753.19 734.56 1753.17 734.58C1741.57 743.09 1724.98 748.64 1706.37 751.73C1706.36 751.73 1706.35 751.73 1706.33 751.73C1694.24 753.7 1682.73 752.55 1672.07 747.48C1666.15 744.66 1662.75 738.34 1663.66 731.85L1684.03 587.05L1684.03 587.02C1685.23 578.62 1685.76 570.27 1685.69 562C1685.65 559.59 1685.6 557.3 1685.49 555.08C1684.55 536.77 1680.68 519.09 1674.27 502.55C1674.26 502.53 1674.25 502.51 1674.25 502.49C1672.92 499.04 1671.45 495.63 1669.86 492.22C1669.82 492.15 1669.78 492.06 1669.72 491.96C1669.67 491.86 1669.61 491.74 1669.55 491.6C1667.01 486.36 1667.75 480.12 1671.43 475.6C1676.01 469.98 1680.78 464.27 1685.8 458.58L1685.82 458.56L1687.13 457.09C1700.73 441.63 1718.3 421.5 1729.93 403.6L1730.04 403.43C1743.28 383.63 1756.33 360.37 1759.83 329.11C1760.06 326.86 1760.57 321.64 1761.28 316.92L1761.37 316.36C1762.43 310.69 1766.67 306.11 1772.28 304.63ZM1763.55 707.31C1763.54 707.29 1763.53 707.27 1763.52 707.26C1763.52 707.25 1763.51 707.25 1763.51 707.24C1763.52 707.26 1763.53 707.28 1763.55 707.31Z" fill="#E9F6FB" stroke="black" stroke-width="30" stroke-linejoin="round"/><path d="M519.64 1025.85C515.34 1030.02 513.94 1036.35 516.07 1041.95C516.24 1042.39 516.39 1042.77 516.49 1043.01C516.62 1043.31 516.65 1043.37 516.7 1043.5C519.18 1049.64 523.27 1056.5 528.32 1063.73L529.34 1065.18L529.37 1065.21C538.33 1077.74 549.57 1089.01 562.72 1098.87L562.72 1098.87C576.32 1109.22 590.68 1117.09 605.53 1121.99L605.53 1121.99C616.83 1125.76 627.93 1128.47 638.71 1130.03C638.84 1130.05 638.97 1130.07 639.09 1130.09C639.57 1130.14 641.32 1130.38 642.88 1130.5C642.91 1130.5 642.94 1130.51 642.97 1130.51C637 1133.38 632.09 1137.31 628.79 1142.7C624.39 1149.9 624.48 1157.18 624.66 1161.13C624.67 1161.16 624.67 1161.19 624.67 1161.22C624.92 1165.95 626.53 1171.13 631.02 1176.6L631.46 1177.13L631.73 1177.44C631.83 1177.54 631.92 1177.64 632.01 1177.74C640.63 1186.79 650.82 1193.05 662.89 1195.1C672.5 1196.74 682.21 1195.53 691.88 1192.33C689.5 1195.68 687.47 1199.27 685.87 1202.98L685.5 1203.86L685.37 1204.19C684.16 1207.34 683.11 1210.92 682.83 1214.63C682.57 1218.15 682.92 1223.3 686.17 1228.06L686.5 1228.52L686.53 1228.56C688.73 1231.57 694.38 1239.09 706.72 1241.99C718.13 1244.66 732.86 1242.85 752.5 1234.88C752.51 1234.88 752.52 1234.87 752.52 1234.87C759.52 1232.02 766.93 1228.47 774.56 1224.34C774.38 1224.94 774.23 1225.56 774.12 1226.19C774.01 1226.78 773.98 1227.01 773.94 1227.21L773.8 1228.05L773.76 1228.31C772.1 1238.81 774.3 1248.39 780.36 1257.01C780.53 1257.26 780.66 1257.45 780.73 1257.54C780.78 1257.61 780.84 1257.68 780.88 1257.75C781.32 1258.35 781.8 1258.92 782.33 1259.46L782.39 1259.52C784.74 1261.91 787.71 1263.36 790.8 1263.83L791.34 1263.92C792.62 1264.11 793.94 1264.18 795.3 1264.13C798.24 1264.02 801.5 1263.36 805.17 1262.09C805.54 1261.98 805.89 1261.85 806.21 1261.73C818.05 1257.72 827.28 1249.28 836.92 1240.74L836.92 1240.74C844.49 1234.08 853.48 1226.15 865.27 1217.64C865.36 1217.57 865.45 1217.51 865.54 1217.44C866.05 1217.05 866.58 1216.63 867.02 1216.27C866.6 1219.35 867.13 1222.57 868.7 1225.46C868.78 1225.6 868.85 1225.72 868.91 1225.83C868.98 1225.94 869.04 1226.04 869.09 1226.13C869.19 1226.3 869.28 1226.44 869.34 1226.53C869.75 1227.19 870.21 1227.81 870.72 1228.4C874.34 1232.59 878.92 1233.87 881.75 1234.25C884.58 1234.64 887.11 1234.35 888.81 1234.05C892.25 1233.45 895.54 1232.23 897.74 1231.33C897.76 1231.32 897.79 1231.31 897.81 1231.3C911.09 1225.76 924.4 1214.41 936.64 1200.06C936.65 1200.05 936.66 1200.04 936.67 1200.03C944.59 1190.69 949.55 1180.24 950.7 1168.48C951.35 1161.96 947.68 1155.78 941.65 1153.22L807.1 1095.96L807.08 1095.95C799.26 1092.64 791.84 1088.78 784.79 1084.46C782.74 1083.19 780.81 1081.96 778.97 1080.72C763.76 1070.47 750.62 1058.03 739.76 1044C739.74 1043.99 739.73 1043.97 739.72 1043.95C737.44 1041.04 735.28 1038.02 733.18 1034.89C733.14 1034.83 733.09 1034.74 733.03 1034.65C732.97 1034.55 732.9 1034.44 732.82 1034.31C729.63 1029.43 723.9 1026.84 718.14 1027.67C710.96 1028.69 703.6 1029.84 696.14 1031.2L696.11 1031.21L694.18 1031.56C673.91 1035.24 647.61 1039.91 626.27 1040.63L626.07 1040.64C602.29 1041.77 575.63 1040.94 547.05 1027.83C545.02 1026.86 540.27 1024.6 535.84 1022.76L535.32 1022.56C529.92 1020.54 523.81 1021.81 519.64 1025.85ZM869.1 1226.12C869.09 1226.11 869.08 1226.09 869.07 1226.08C869.06 1226.06 869.05 1226.05 869.04 1226.03C869.06 1226.06 869.08 1226.09 869.1 1226.12ZM733.04 1034.69C733.05 1034.7 733.06 1034.72 733.07 1034.73C732.99 1034.61 732.9 1034.49 732.82 1034.37C732.9 1034.49 732.98 1034.6 733.04 1034.69Z" fill="#E9F6FB" stroke="black" stroke-width="30" stroke-linejoin="round"/><path d="M53.86 555.72C49.56 559.89 48.16 566.23 50.29 571.82C50.48 572.32 50.66 572.76 50.78 573.05C50.92 573.39 50.98 573.52 51.05 573.68L51.36 574.43C54.6 582.21 59.99 591.08 66.78 600.62C66.79 600.63 66.8 600.64 66.81 600.65C78.01 616.31 92.09 630.44 108.64 642.84L108.64 642.84C125.73 655.86 143.71 665.7 162.22 671.79L162.22 671.8C176.47 676.56 190.45 679.96 203.97 681.92C204.1 681.94 204.23 681.96 204.36 681.97C205.14 682.07 207.25 682.36 209.11 682.5C209.18 682.5 209.25 682.51 209.33 682.52C209.44 682.53 209.59 682.55 209.78 682.57C212.87 682.87 216.12 682.99 220.32 682.93C220.35 682.93 220.38 682.93 220.41 682.92C232.26 682.68 244.73 680.94 257.49 677.96C257.51 677.96 257.54 677.95 257.56 677.95C258.37 677.76 259.29 678.25 259.53 679.17C259.73 680.07 259.15 680.95 258.32 681.16L258.28 681.17C245.68 684.34 233.76 686.11 222.89 686.52C221.51 686.57 220.14 686.81 218.82 687.24C207.78 690.82 199.29 696.27 194.26 704.49C189.62 712.08 189.37 719.8 189.55 724.74L189.59 725.69L189.59 725.78C189.87 731.11 191.7 737.09 197.29 743.64C197.47 743.85 197.65 744.06 197.84 744.26C208.38 755.33 220.65 762.79 235.03 765.24C249.11 767.63 263.56 764.95 278.24 758.8C278.43 758.73 278.62 758.66 278.8 758.58C278.97 758.53 279.05 758.5 279.06 758.5L279.06 758.5C291.59 755.92 311.88 748.54 343.45 729.16C343.83 728.96 344.17 728.76 344.48 728.56C344.77 728.42 345.08 728.37 345.43 728.42C345.8 728.48 346.12 728.65 346.36 728.87L346.45 728.97L346.46 728.98C346.49 729.01 346.55 729.09 346.68 729.28C347.1 730.02 346.84 731.01 346.13 731.44L346.09 731.47C320.23 747.42 300.2 756.7 284.66 760.68L284.06 760.85C281.07 761.75 278.44 763.56 276.52 766.04C272.9 770.72 269.88 775.82 267.6 781.13L267.15 782.19L267.03 782.51C265.56 786.35 264.36 790.51 264.05 794.69C263.75 798.67 264.17 804.18 267.61 809.2L267.95 809.69L267.98 809.73C270.59 813.3 277.06 821.94 291.4 825.31C304.81 828.46 322.71 826.45 347.46 816.41C347.47 816.41 347.48 816.4 347.49 816.4C357.77 812.21 368.82 806.8 380.24 800.39C380.57 800.2 380.9 799.99 381.23 799.78C382.01 799.25 382.74 798.84 384.3 797.92L384.3 797.92C385.63 797.15 386.91 796.34 387.89 795.72L387.89 795.72C397.19 789.84 407.05 783.7 409.48 782.47C409.52 782.45 409.56 782.42 409.6 782.4C409.92 782.24 410.22 782.2 410.54 782.26C410.9 782.34 411.24 782.53 411.48 782.79C411.48 782.8 411.49 782.81 411.5 782.82C411.47 782.79 411.56 782.89 411.73 783.2C412.11 783.95 411.82 784.98 411.01 785.41L411.01 785.41C408.84 786.56 401.66 790.94 389.72 798.48L389.53 798.6C388.83 799.06 388.47 799.28 388.16 799.46C384.3 801.68 381.62 805.51 380.86 809.9C380.74 810.57 380.69 810.89 380.64 811.18L380.45 812.29L380.41 812.55C378.45 824.95 381.03 836.12 388.19 846.28C388.37 846.55 388.51 846.75 388.58 846.85C388.68 846.98 388.77 847.1 388.85 847.21C389.27 847.77 389.73 848.32 390.23 848.83L390.3 848.9C392.68 851.32 395.68 852.77 398.8 853.23C398.8 853.23 398.81 853.23 398.81 853.23C400.33 853.5 401.95 853.61 403.68 853.54C406.95 853.42 410.73 852.68 415.15 851.15C415.59 851.01 416 850.87 416.37 850.73C430.6 845.94 441.78 835.78 454.34 824.65L454.34 824.65C464.03 816.12 475.67 805.85 490.94 794.82C491.04 794.76 491.13 794.69 491.21 794.62C492.2 793.88 493.21 793.05 493.85 792.54C495.38 791.36 495.63 791.12 496.35 790.6C496.7 790.35 497.03 790.09 497.35 789.81C504.36 783.8 507.72 780.52 510.21 778.03L511.41 776.86C511.44 776.82 511.48 776.78 511.52 776.75L511.75 776.54C512.36 776.04 513.35 776.07 513.96 776.69L513.96 776.69C514.57 777.32 514.6 778.36 513.91 779.04L513.45 779.49L513.19 779.74C511.89 781.09 509.34 783.74 504.69 787.88L504.22 788.32C499.42 792.99 498.27 800.31 501.5 806.24C501.65 806.51 501.78 806.74 501.89 806.91C501.96 807.03 502.03 807.13 502.08 807.22C502.51 807.94 503.01 808.62 503.56 809.26C507.29 813.58 512.04 814.93 515.07 815.34C518.1 815.75 520.87 815.44 522.83 815.1C526.79 814.42 530.66 812.99 533.38 811.87C533.4 811.86 533.43 811.85 533.45 811.84C549.58 805.11 566.11 791.14 581.58 773C581.59 772.99 581.6 772.98 581.61 772.97C591.29 761.55 597.22 748.96 598.6 734.89C599.24 728.37 595.58 722.19 589.55 719.63L417.3 646.32L417.27 646.31C407.1 642 397.44 636.99 388.27 631.37C385.59 629.7 383.04 628.08 380.58 626.44C360.74 613.06 343.58 596.83 329.4 578.51C329.39 578.5 329.38 578.48 329.37 578.47C326.37 574.62 323.52 570.66 320.78 566.56C320.76 566.53 320.74 566.5 320.72 566.46C320.63 566.32 320.49 566.1 320.32 565.83C317.13 560.96 311.41 558.37 305.64 559.19C296.49 560.5 287.13 561.96 277.65 563.69L277.62 563.7L275.19 564.14C249.31 568.84 215.29 574.89 187.59 575.83L187.39 575.83C156.66 577.29 121.71 576.26 84.2 559.02C81.55 557.77 75.59 554.93 70.07 552.64C64.53 550.34 58.16 551.55 53.86 555.72ZM283.53 755.8C283.79 755.58 284.02 755.37 284.24 755.15C284 755.38 283.77 755.6 283.53 755.8ZM281.72 757.14C282.05 756.94 282.37 756.72 282.66 756.5C282.8 756.4 282.93 756.29 283.06 756.19C282.62 756.55 282.17 756.86 281.72 757.14Z" fill="#E9F6FB" stroke="black" stroke-width="30" stroke-linejoin="round"/><path d="M281.21 546.64C276.92 550.82 275.51 557.15 277.64 562.75C277.81 563.18 277.97 563.56 278.07 563.8C278.19 564.1 278.22 564.17 278.27 564.29C280.75 570.44 284.84 577.29 289.89 584.52L290.92 585.98L290.94 586.01C299.9 598.53 311.14 609.8 324.3 619.66L324.3 619.66C337.89 630.02 352.25 637.88 367.1 642.78L367.1 642.78C378.4 646.55 389.5 649.26 400.28 650.83C400.41 650.85 400.54 650.86 400.67 650.88C401.14 650.94 402.89 651.18 404.45 651.29C404.48 651.3 404.51 651.3 404.54 651.3C398.57 654.17 393.67 658.1 390.37 663.5C385.96 670.69 386.05 677.97 386.24 681.92C386.24 681.95 386.24 681.98 386.24 682.01C386.49 686.74 388.1 691.92 392.59 697.39L393.04 697.92L393.31 698.23C393.4 698.33 393.49 698.43 393.58 698.53C402.2 707.58 412.39 713.84 424.47 715.89C434.07 717.53 443.78 716.32 453.46 713.13C451.07 716.48 449.04 720.06 447.44 723.77L447.07 724.66L446.94 724.98C445.74 728.13 444.68 731.72 444.41 735.43C444.15 738.94 444.49 744.09 447.75 748.85L448.07 749.31L448.1 749.35C450.31 752.36 455.95 759.88 468.3 762.78C479.7 765.46 494.43 763.64 514.07 755.67C514.08 755.67 514.09 755.67 514.1 755.66C521.09 752.81 528.5 749.26 536.14 745.13C535.95 745.74 535.8 746.35 535.69 746.98C535.59 747.57 535.55 747.8 535.52 748L535.38 748.84L535.33 749.1C533.67 759.61 535.87 769.18 541.94 777.81C542.1 778.06 542.23 778.24 542.3 778.33C542.35 778.4 542.41 778.48 542.46 778.54C542.89 779.14 543.37 779.71 543.91 780.26L543.96 780.31C546.31 782.71 549.28 784.15 552.37 784.63L552.91 784.72C554.19 784.9 555.51 784.97 556.87 784.92C559.81 784.81 563.07 784.15 566.74 782.88C567.12 782.77 567.46 782.65 567.78 782.52C579.62 778.51 588.86 770.07 598.5 761.53L598.5 761.53C606.06 754.87 615.05 746.94 626.84 738.43C626.93 738.36 627.02 738.3 627.11 738.23C627.63 737.84 628.15 737.42 628.59 737.07C628.17 740.15 628.71 743.37 630.28 746.25C630.35 746.39 630.42 746.52 630.49 746.63C630.55 746.74 630.61 746.84 630.66 746.92C630.76 747.09 630.85 747.23 630.91 747.32C631.32 747.98 631.78 748.6 632.29 749.19C635.91 753.38 640.49 754.66 643.32 755.05C646.15 755.43 648.68 755.14 650.38 754.84C653.83 754.25 657.12 753.03 659.31 752.12C659.34 752.11 659.36 752.1 659.39 752.09C672.66 746.55 685.97 735.21 698.22 720.85C698.23 720.84 698.23 720.83 698.24 720.82C706.17 711.48 711.12 701.03 712.28 689.28C712.92 682.76 709.25 676.58 703.22 674.01L568.67 616.75L568.65 616.74C560.83 613.43 553.41 609.58 546.36 605.25C544.32 603.98 542.38 602.75 540.54 601.51C525.34 591.26 512.19 578.83 501.33 564.79C501.32 564.78 501.3 564.76 501.29 564.75C499.01 561.83 496.85 558.81 494.75 555.68C494.71 555.62 494.66 555.54 494.6 555.44C494.54 555.34 494.47 555.23 494.39 555.1C491.2 550.23 485.48 547.63 479.71 548.46C472.53 549.48 465.18 550.63 457.71 551.99L457.69 552L455.75 552.36C435.49 556.03 409.18 560.7 387.85 561.42L387.64 561.43C363.86 562.56 337.2 561.74 308.63 548.62C306.59 547.66 301.84 545.39 297.42 543.56L296.9 543.35C291.49 541.34 285.38 542.6 281.21 546.64ZM630.67 746.91C630.66 746.9 630.65 746.88 630.64 746.87C630.63 746.85 630.63 746.84 630.62 746.83C630.63 746.86 630.65 746.88 630.67 746.91ZM494.62 555.48C494.62 555.5 494.63 555.51 494.64 555.52C494.56 555.4 494.48 555.28 494.39 555.16C494.48 555.28 494.55 555.39 494.62 555.48Z" fill="#E9F6FB" stroke="black" stroke-width="30" stroke-linejoin="round"/><path d="M1597.12 -335.28C1602.88 -336.91 1609.06 -334.96 1612.85 -330.32C1613.18 -329.91 1613.47 -329.53 1613.66 -329.28C1613.88 -328.99 1613.97 -328.88 1614.08 -328.73L1614.57 -328.09C1619.69 -321.39 1624.67 -312.29 1629.54 -301.64C1629.55 -301.63 1629.55 -301.61 1629.56 -301.6C1637.52 -284.07 1642.71 -264.81 1645.18 -244.29L1645.18 -244.28C1647.9 -222.97 1647.43 -202.48 1643.46 -183.4L1643.46 -183.4C1640.46 -168.68 1636.42 -154.87 1631.36 -142.18C1631.31 -142.06 1631.26 -141.94 1631.21 -141.82C1630.9 -141.1 1630.1 -139.13 1629.28 -137.44C1629.26 -137.38 1629.23 -137.31 1629.2 -137.24C1629.15 -137.14 1629.09 -137 1629.01 -136.82C1627.72 -134 1626.21 -131.12 1624.05 -127.52C1624.04 -127.49 1624.02 -127.47 1624.01 -127.44C1617.87 -117.3 1610.13 -107.38 1601.17 -97.81C1601.15 -97.79 1601.14 -97.78 1601.12 -97.76C1600.55 -97.16 1600.52 -96.11 1601.19 -95.44C1601.87 -94.82 1602.93 -94.88 1603.52 -95.49L1603.55 -95.53C1612.6 -104.85 1620.09 -114.29 1625.88 -123.5C1626.61 -124.67 1627.51 -125.73 1628.54 -126.66C1637.15 -134.43 1646.12 -139.06 1655.76 -139.31C1664.65 -139.53 1671.46 -135.89 1675.65 -133.26L1676.45 -132.75L1676.53 -132.71C1681 -129.8 1685.27 -125.22 1688.15 -117.11C1688.24 -116.85 1688.33 -116.59 1688.4 -116.33C1692.72 -101.66 1693.05 -87.3 1687.98 -73.62C1683.02 -60.23 1673.46 -49.06 1660.8 -39.43C1660.64 -39.3 1660.49 -39.17 1660.33 -39.05C1660.2 -38.93 1660.14 -38.87 1660.13 -38.86L1660.13 -38.86C1651.63 -29.3 1635.1 -15.42 1602.52 2.23C1602.16 2.46 1601.82 2.65 1601.49 2.83C1601.23 3 1601.03 3.25 1600.9 3.57C1600.76 3.93 1600.75 4.29 1600.82 4.6L1600.86 4.73L1600.87 4.75C1600.88 4.79 1600.91 4.88 1601.01 5.08C1601.45 5.82 1602.43 6.09 1603.16 5.7L1603.2 5.67C1629.95 -8.74 1648 -21.46 1659.22 -32.92L1659.67 -33.36C1661.94 -35.49 1664.83 -36.87 1667.93 -37.29C1673.79 -38.09 1679.72 -38.15 1685.46 -37.47L1686.6 -37.33L1686.94 -37.28C1690.99 -36.63 1695.2 -35.59 1698.98 -33.77C1702.57 -32.04 1707.13 -28.92 1709.77 -23.43L1710.02 -22.89L1710.04 -22.85C1711.82 -18.8 1716.07 -8.88 1711.82 5.23C1707.84 18.41 1697.16 32.91 1676.08 49.33C1676.08 49.34 1676.07 49.34 1676.06 49.35C1667.29 56.15 1657.08 63.02 1645.82 69.7C1645.48 69.9 1645.14 70.08 1644.79 70.25C1643.95 70.67 1643.23 71.1 1641.65 71.99L1641.65 71.99C1640.32 72.76 1638.97 73.46 1637.95 74L1637.95 73.99C1628.2 79.11 1617.96 84.59 1615.68 86.07C1615.64 86.09 1615.6 86.12 1615.56 86.14C1615.26 86.33 1615.08 86.58 1614.97 86.89C1614.85 87.24 1614.85 87.62 1614.96 87.96C1614.97 87.97 1614.97 87.98 1614.97 87.99C1614.96 87.95 1615 88.09 1615.18 88.38C1615.64 89.09 1616.68 89.35 1617.46 88.86L1617.46 88.86C1619.54 87.56 1626.92 83.53 1639.42 76.96L1639.63 76.85C1640.37 76.48 1640.74 76.28 1641.06 76.1C1644.91 73.87 1649.56 73.46 1653.75 75C1654.38 75.23 1654.69 75.34 1654.96 75.45L1656.02 75.84L1656.27 75.93C1667.98 80.43 1676.37 88.26 1681.58 99.54C1681.73 99.83 1681.83 100.05 1681.88 100.16C1681.95 100.31 1682.01 100.45 1682.06 100.58C1682.34 101.22 1682.58 101.89 1682.77 102.58L1682.8 102.68C1683.71 105.94 1683.46 109.26 1682.3 112.2C1682.3 112.2 1682.3 112.21 1682.3 112.21C1681.77 113.66 1681.05 115.12 1680.13 116.58C1678.39 119.36 1675.86 122.25 1672.32 125.32C1671.98 125.64 1671.66 125.91 1671.35 126.16C1660.08 136.09 1645.7 140.7 1629.78 146.01L1629.78 146.01C1617.55 150.13 1602.83 155.09 1585.64 162.8C1585.54 162.84 1585.44 162.89 1585.34 162.93C1584.2 163.41 1582.97 163.88 1582.21 164.17C1580.43 164.9 1580.09 165 1579.28 165.37C1578.9 165.54 1578.5 165.7 1578.1 165.84C1569.39 168.9 1564.87 170.18 1561.47 171.09L1559.85 171.53C1559.8 171.55 1559.75 171.56 1559.7 171.57L1559.41 171.67C1558.67 171.95 1558.2 172.82 1558.43 173.66L1558.44 173.66C1558.67 174.51 1559.56 175.05 1560.49 174.79L1561.11 174.62L1561.46 174.52C1563.28 174.06 1566.84 173.18 1572.75 171.23L1573.38 171.04C1579.82 169.22 1586.73 171.89 1590.25 177.64C1590.42 177.91 1590.55 178.14 1590.64 178.32C1590.71 178.44 1590.77 178.55 1590.81 178.64C1591.22 179.38 1591.56 180.15 1591.84 180.94C1593.71 186.33 1592.51 191.12 1591.35 193.95C1590.19 196.78 1588.54 199.02 1587.26 200.55C1584.69 203.63 1581.52 206.28 1579.19 208.07C1579.17 208.09 1579.15 208.1 1579.13 208.12C1565.23 218.72 1544.87 226.05 1521.43 230.38C1521.41 230.38 1521.4 230.39 1521.38 230.39C1506.66 233.07 1492.79 231.9 1479.92 226.06C1473.95 223.36 1470.43 217.09 1471.22 210.59L1493.86 24.77L1493.87 24.74C1495.22 13.77 1495.71 2.9 1495.43 -7.85C1495.33 -11 1495.2 -14.02 1495 -16.97C1493.33 -40.84 1487.86 -63.82 1479.09 -85.26C1479.08 -85.27 1479.07 -85.29 1479.06 -85.31C1477.24 -89.83 1475.22 -94.28 1473.05 -98.7C1473.03 -98.73 1473.01 -98.77 1472.99 -98.81C1472.91 -98.95 1472.79 -99.18 1472.65 -99.46C1470.01 -104.66 1470.63 -110.91 1474.23 -115.5C1479.94 -122.77 1485.88 -130.15 1492.13 -137.49L1492.14 -137.51L1493.75 -139.39C1510.75 -159.46 1533 -185.9 1547.66 -209.41L1547.77 -209.59C1564.4 -235.47 1580.98 -266.25 1584.81 -307.36C1585.04 -310.28 1585.57 -316.85 1586.34 -322.79C1587.12 -328.73 1591.35 -333.64 1597.12 -335.28ZM1655.56 -36.34C1655.24 -36.23 1654.94 -36.13 1654.64 -36.05C1654.96 -36.14 1655.26 -36.23 1655.56 -36.34ZM1657.63 -37.23C1657.28 -37.05 1656.94 -36.89 1656.6 -36.74C1656.44 -36.67 1656.28 -36.61 1656.13 -36.55C1656.66 -36.76 1657.16 -36.99 1657.63 -37.23Z" fill="#E9F6FB" stroke="black" stroke-width="30" stroke-linejoin="round"/><path d="M1475.58 -142.93C1481.34 -144.56 1487.53 -142.62 1491.31 -137.97C1491.61 -137.61 1491.86 -137.28 1492.01 -137.07C1492.21 -136.82 1492.25 -136.76 1492.33 -136.66C1496.42 -131.43 1500.31 -124.46 1504.04 -116.47L1504.79 -114.86L1504.81 -114.82C1511.17 -100.8 1515.31 -85.43 1517.27 -69.11L1517.27 -69.11C1519.44 -52.15 1519.08 -35.79 1515.89 -20.48L1515.89 -20.48C1513.51 -8.81 1510.31 2.16 1506.27 12.28C1506.22 12.4 1506.18 12.52 1506.12 12.64C1505.94 13.08 1505.27 14.72 1504.59 16.13C1504.58 16.15 1504.57 16.18 1504.56 16.21C1510.02 12.47 1515.88 10.19 1522.2 10.03C1530.63 9.81 1536.89 13.53 1540.22 15.66C1540.25 15.68 1540.27 15.7 1540.3 15.71C1544.27 18.3 1547.95 22.28 1550.44 28.9L1550.68 29.55L1550.81 29.94C1550.85 30.07 1550.9 30.2 1550.93 30.33C1554.46 42.32 1554.79 54.28 1550.53 65.76C1547.14 74.9 1541.24 82.7 1533.64 89.48C1537.73 89.09 1541.85 89.12 1545.87 89.59L1546.82 89.71L1547.16 89.77C1550.49 90.3 1554.13 91.18 1557.47 92.79C1560.65 94.32 1564.93 97.2 1567.43 102.4L1567.67 102.91L1567.69 102.95C1569.19 106.37 1572.88 115.02 1569.22 127.16C1565.83 138.38 1556.9 150.22 1540.18 163.25C1540.17 163.25 1540.16 163.26 1540.16 163.27C1534.19 167.9 1527.41 172.54 1520.01 177.09C1520.63 177.23 1521.24 177.41 1521.84 177.63C1522.4 177.83 1522.62 177.91 1522.81 177.99L1523.61 178.28L1523.86 178.37C1533.78 182.19 1540.97 188.88 1545.41 198.45C1545.55 198.72 1545.64 198.92 1545.68 199.02C1545.72 199.11 1545.76 199.19 1545.79 199.27C1546.09 199.94 1546.34 200.65 1546.55 201.38L1546.57 201.45C1547.47 204.69 1547.23 207.98 1546.1 210.89L1545.91 211.41C1545.43 212.61 1544.83 213.79 1544.1 214.94C1542.54 217.43 1540.34 219.92 1537.4 222.47C1537.12 222.73 1536.84 222.97 1536.58 223.19C1527.18 231.44 1515.25 235.21 1503.04 239.29L1503.04 239.29C1493.49 242.51 1482.13 246.33 1468.86 252.29C1468.76 252.33 1468.65 252.38 1468.55 252.42C1467.96 252.67 1467.33 252.92 1466.8 253.12C1469.68 254.3 1472.2 256.37 1473.91 259.17C1474 259.31 1474.07 259.43 1474.13 259.54C1474.2 259.65 1474.25 259.75 1474.3 259.84C1474.4 260.02 1474.47 260.16 1474.52 260.26C1474.89 260.94 1475.2 261.65 1475.45 262.38C1477.27 267.62 1476.09 272.23 1475.01 274.87C1473.92 277.51 1472.41 279.56 1471.3 280.88C1469.06 283.57 1466.36 285.81 1464.48 287.25C1464.46 287.27 1464.44 287.29 1464.42 287.3C1452.98 296.03 1436.5 301.89 1417.95 305.31C1417.94 305.31 1417.92 305.32 1417.91 305.32C1405.86 307.51 1394.33 306.58 1383.57 301.7C1377.61 299 1374.08 292.73 1374.88 286.23L1392.56 141.07L1392.57 141.05C1393.61 132.62 1393.98 124.27 1393.76 116C1393.68 113.59 1393.58 111.31 1393.44 109.09C1392.16 90.8 1387.96 73.19 1381.24 56.77C1381.23 56.75 1381.23 56.74 1381.22 56.72C1379.83 53.29 1378.3 49.9 1376.64 46.52C1376.6 46.46 1376.56 46.37 1376.5 46.27C1376.45 46.17 1376.39 46.05 1376.32 45.92C1373.69 40.72 1374.31 34.47 1377.9 29.88C1382.38 24.18 1387.05 18.38 1391.96 12.6L1391.98 12.58L1393.26 11.08C1406.57 -4.63 1423.77 -25.08 1435.06 -43.19L1435.17 -43.36C1448.04 -63.39 1460.66 -86.89 1463.58 -118.2C1463.77 -120.44 1464.19 -125.69 1464.81 -130.44L1464.89 -130.99C1465.85 -136.68 1470 -141.34 1475.58 -142.93ZM1474.29 259.85C1474.28 259.83 1474.28 259.81 1474.27 259.8C1474.26 259.78 1474.25 259.77 1474.24 259.76C1474.26 259.79 1474.28 259.81 1474.29 259.85ZM1376.53 46.3C1376.54 46.32 1376.55 46.33 1376.55 46.35C1376.49 46.21 1376.43 46.08 1376.37 45.95C1376.43 46.08 1376.49 46.2 1376.53 46.3Z" fill="#E9F6FB" stroke="black" stroke-width="30" stroke-linejoin="round"/><path d="M730.47 521.48C799.95 676.85 957.56 772.45 1050 810.65C1068.46 818.28 1089.23 815.94 1106.53 805.95L1196.89 753.78L1287.26 701.6C1304.56 691.62 1316.98 674.8 1319.6 655C1332.73 555.84 1328.74 371.55 1228.93 233.69C1221.41 223.32 1214.07 214 1206.88 205.66C1159.82 217.16 1057 267.12 994.87 306.12L952.55 330.56L910.23 354.99C845.39 389.29 750.71 453.36 717.22 488.37C720.85 498.76 725.24 509.78 730.47 521.48Z" fill="white"/><path d="M657.47 541.67L632.34 568.72C618.7 587.86 606.47 606.84 596.29 625.72C532.79 743.53 549.13 857.58 801.89 981.83L884.75 933.99C932.97 906.15 931.31 834.87 885.63 803.03C743.26 703.8 680.44 594.67 657.47 541.67Z" fill="white"/><path d="M1318.91 172.33L1282.92 180.57C1317.33 226.96 1380.43 335.93 1395.18 508.84C1399.92 564.32 1460.82 601.4 1509.04 573.56L1591.9 525.72C1610.67 244.7 1520.07 173.52 1386.3 169.61C1364.85 168.98 1342.3 170.09 1318.91 172.33Z" fill="white"/><path d="M657.47 541.67L632.34 568.72M801.89 981.83L884.75 933.99C932.97 906.15 931.31 834.87 885.63 803.03C743.26 703.8 680.44 594.67 657.47 541.67C657.47 541.67 538.21 278.82 776.26 264.13M632.34 568.72C400.67 430.11 188.73 817.9 734.99 1067.41C748.63 1073.65 760.6 1084.1 768.1 1097.09C795.99 1145.4 815.92 1179.91 830.13 1204.54C849.46 1238.01 892.23 1249.43 925.7 1230.11L1335.35 993.6L1745 757.08C1778.48 737.76 1789.97 695.01 1770.64 661.53C1756.42 636.91 1736.5 602.39 1708.61 554.09C1701.11 541.1 1698.04 525.5 1699.47 510.57C1756.51 -87.26 1314.71 -97.61 1318.91 172.33M632.34 568.72C618.7 587.86 606.47 606.84 596.29 625.72M1591.9 525.72L1509.04 573.56C1460.82 601.4 1399.92 564.32 1395.18 508.84C1380.43 335.93 1317.33 226.96 1282.92 180.57C1282.92 180.57 1114.91 -54.14 983.17 144.68C969.82 164.82 956.84 189.42 944.45 219.16C930.59 252.43 895.87 272.48 860.13 267.85C828.17 263.7 800.38 262.64 776.26 264.13M776.26 264.13C758.22 229.26 741.87 148.1 820.87 102.49C899.88 56.88 961.99 111.61 983.17 144.68M801.89 981.83L778.86 995.13C760.7 1005.62 738.66 1007.65 719.54 999.04C578.21 935.36 497.09 824.12 474.31 772.82C454.94 733.84 430.59 648.22 478.7 622.95C507.56 607.79 542.89 602.73 596.29 625.72M801.89 981.83C549.13 857.58 532.79 743.53 596.29 625.72M717.22 488.37C750.71 453.36 845.39 389.29 910.23 354.99L952.55 330.56L994.87 306.12C1057 267.12 1159.82 217.16 1206.88 205.66M910.23 354.99C827.56 319.68 653.66 306.17 717.22 488.37M717.22 488.37C720.85 498.76 725.24 509.78 730.47 521.48C799.95 676.85 957.56 772.45 1050 810.65C1068.46 818.28 1089.23 815.94 1106.53 805.95L1196.89 753.78L1287.26 701.6C1304.56 691.62 1316.98 674.8 1319.6 655C1332.73 555.84 1328.74 371.55 1228.93 233.69C1221.41 223.32 1214.07 214 1206.88 205.66M1282.92 180.57L1318.91 172.33M1318.91 172.33C1342.3 170.09 1364.85 168.98 1386.3 169.61M1591.9 525.72L1614.93 512.42C1633.09 501.94 1645.87 483.87 1647.97 463C1663.49 308.77 1607.71 182.9 1574.68 137.52C1550.61 101.26 1488.63 37.35 1442.69 66.38C1415.13 83.8 1393.09 111.87 1386.3 169.61M1591.9 525.72C1610.67 244.7 1520.07 173.52 1386.3 169.61M994.87 306.12C1005.62 216.87 1080.88 59.52 1206.88 205.66M814.57 25.77C821.98 .21 806.95 -26.45 781.24 -33.34C755.9 -40.13 729.85 -25.09 723.06 .25C716.17 25.96 731.74 52.31 757.59 58.67C782.33 64.76 807.47 50.25 814.57 25.77Z" stroke="black" stroke-width="30"/><path fill-rule="evenodd" clip-rule="evenodd" d="M632.34 568.72C400.67 430.11 188.73 817.9 734.99 1067.41C748.63 1073.65 760.6 1084.1 768.1 1097.09C795.99 1145.4 815.92 1179.91 830.13 1204.54C849.46 1238.01 892.23 1249.43 925.7 1230.11L1335.35 993.6L1745 757.08C1778.48 737.76 1789.97 695.01 1770.64 661.53C1756.42 636.91 1736.5 602.39 1708.61 554.09C1701.11 541.1 1698.04 525.5 1699.47 510.57C1756.51 -87.26 1314.71 -97.61 1318.91 172.33C1342.3 170.09 1364.85 168.98 1386.3 169.61C1393.09 111.87 1415.13 83.8 1442.69 66.38C1488.63 37.35 1550.61 101.26 1574.68 137.52C1607.71 182.9 1663.49 308.77 1647.97 463C1645.87 483.87 1633.09 501.94 1614.93 512.42L1591.9 525.72L1509.04 573.56C1460.82 601.4 1399.92 564.32 1395.18 508.84C1380.43 335.93 1317.33 226.96 1282.92 180.57C1282.92 180.57 1114.91 -54.14 983.17 144.68C969.82 164.82 956.84 189.42 944.45 219.16C930.59 252.43 895.87 272.48 860.13 267.85C828.17 263.7 800.38 262.64 776.26 264.13C538.21 278.82 657.47 541.67 657.47 541.67C680.44 594.67 743.26 703.8 885.63 803.03C931.31 834.87 932.97 906.15 884.75 933.99L801.89 981.83L778.86 995.13C760.7 1005.62 738.66 1007.65 719.54 999.04C578.21 935.36 497.09 824.12 474.31 772.82C454.94 733.84 430.59 648.22 478.7 622.95C507.56 607.79 542.89 602.73 596.29 625.72C606.47 606.84 618.7 587.86 632.34 568.72ZM1106.53 805.95C1089.23 815.94 1068.46 818.28 1050 810.65C957.56 772.45 799.95 676.85 730.47 521.48C725.24 509.78 720.85 498.76 717.22 488.37C653.66 306.17 827.56 319.68 910.23 354.99L952.55 330.56L994.87 306.12C1005.62 216.87 1080.88 59.52 1206.88 205.66C1214.07 214 1221.41 223.32 1228.93 233.69C1328.74 371.55 1332.73 555.84 1319.6 655C1316.98 674.8 1304.56 691.62 1287.26 701.6L1196.89 753.78L1106.53 805.95Z" fill="#5BC8FB"/><path d="M776.26 264.13C800.38 262.64 828.17 263.7 860.13 267.85C895.87 272.48 930.59 252.43 944.45 219.16C956.84 189.42 969.82 164.82 983.17 144.68C961.99 111.61 899.88 56.88 820.87 102.49C741.87 148.1 758.22 229.26 776.26 264.13Z" fill="#5BC8FB"/><path d="M801.87 69.57L710.51 47.08L735.35 -45.63L828.07 -20.79L801.87 69.57Z" fill="#F35B5B"/><path d="M657.47 541.67L632.34 568.72M801.89 981.83L884.75 933.99C932.97 906.15 931.31 834.87 885.63 803.03C743.26 703.8 680.44 594.67 657.47 541.67C657.47 541.67 538.21 278.82 776.26 264.13C800.38 262.64 828.17 263.7 860.13 267.85C895.87 272.48 930.59 252.43 944.45 219.16C956.84 189.42 969.82 164.82 983.17 144.68C1114.91 -54.14 1282.92 180.57 1282.92 180.57C1317.33 226.96 1380.43 335.93 1395.18 508.84C1399.92 564.32 1460.82 601.4 1509.04 573.56L1591.9 525.72M632.34 568.72C400.67 430.11 188.73 817.9 734.99 1067.41C748.63 1073.65 760.6 1084.1 768.1 1097.09C795.99 1145.4 815.92 1179.91 830.13 1204.54C849.46 1238.01 892.23 1249.43 925.7 1230.11L1335.35 993.6L1745 757.08C1778.48 737.76 1789.97 695.01 1770.64 661.53C1756.42 636.91 1736.5 602.39 1708.61 554.09C1701.11 541.1 1698.04 525.5 1699.47 510.57C1756.51 -87.26 1314.71 -97.61 1318.91 172.33M632.34 568.72C618.7 587.86 606.47 606.84 596.29 625.72M776.26 264.13C758.22 229.26 741.87 148.1 820.87 102.49C899.88 56.88 961.99 111.61 983.17 144.68M801.89 981.83L778.86 995.13C760.7 1005.62 738.66 1007.65 719.54 999.04C578.21 935.36 497.09 824.12 474.31 772.82C454.94 733.84 430.59 648.22 478.7 622.95C507.56 607.79 542.89 602.73 596.29 625.72M801.89 981.83C549.13 857.58 532.79 743.53 596.29 625.72M717.22 488.37C750.71 453.36 845.39 389.29 910.23 354.99L952.55 330.56L994.87 306.12C1057 267.12 1159.82 217.16 1206.88 205.66M910.23 354.99C827.56 319.68 653.66 306.17 717.22 488.37M717.22 488.37C720.85 498.76 725.24 509.78 730.47 521.48C799.95 676.85 957.56 772.45 1050 810.65C1068.46 818.28 1089.23 815.94 1106.53 805.95L1196.89 753.78L1287.26 701.6C1304.56 691.62 1316.98 674.8 1319.6 655C1332.73 555.84 1328.74 371.55 1228.93 233.69C1221.41 223.32 1214.07 214 1206.88 205.66M1282.92 180.57L1318.91 172.33M1318.91 172.33C1342.3 170.09 1364.85 168.98 1386.3 169.61M1591.9 525.72L1614.93 512.42C1633.09 501.94 1645.87 483.87 1647.97 463C1663.49 308.77 1607.71 182.9 1574.68 137.52C1550.61 101.26 1488.63 37.35 1442.69 66.38C1415.13 83.8 1393.09 111.87 1386.3 169.61M1591.9 525.72C1610.67 244.7 1520.07 173.52 1386.3 169.61M994.87 306.12C1005.62 216.87 1080.88 59.52 1206.88 205.66M801.87 69.57L710.51 47.08L735.35 -45.63L828.07 -20.79L801.87 69.57Z" stroke="black" stroke-width="30"/><path d="M1120.38 465.21L1096.76 457.1L984.18 522.1L983.17 550.74L1148.82 687.41C1153.14 688.84 1157.14 690.11 1160.77 691.21L1120.38 465.21Z" fill="#88E6F5"/><path d="M1160.77 691.21C1174.33 633.34 1196.32 475.71 1191.48 409.91C1188.1 407.56 1183.54 404.77 1178.16 401.71L1120.38 465.21L1160.77 691.21Z" fill="#88E6F5"/><path fill-rule="evenodd" clip-rule="evenodd" d="M988 391.97C968.88 402.44 931.88 427.62 912.8 450.8C906.61 471.48 900.62 538.73 901.43 569.87C901.5 572.59 901.63 575.04 901.81 577.15C952.88 611.88 1085.43 666.49 1148.82 687.41L983.17 550.74L984.18 522.1L1096.76 457.1L1076.55 356.26C1046.95 361.19 1006.63 380.65 988 391.97Z" fill="#88E6F5"/><path d="M1148.82 687.41C1085.43 666.49 952.88 611.88 901.81 577.15C901.63 575.04 901.5 572.59 901.43 569.87C900.62 538.73 906.61 471.48 912.8 450.8C931.88 427.62 968.88 402.44 988 391.97C1006.63 380.65 1046.95 361.19 1076.55 356.26C1095.83 360.82 1149.01 385.16 1178.16 401.71C1183.54 404.77 1188.1 407.56 1191.48 409.91C1196.32 475.71 1174.33 633.34 1160.77 691.21C1157.14 690.11 1153.14 688.84 1148.82 687.41ZM912.8 450.8L984.18 522.1M1160.77 691.21L1120.38 465.21M1076.55 356.26L1096.76 457.1M1096.76 457.1L1120.38 465.21M1096.76 457.1L984.18 522.1M1120.38 465.21L1178.16 401.71M984.18 522.1L983.17 550.74M983.17 550.74L901.43 569.87M983.17 550.74L1148.82 687.41" stroke="black" stroke-width="30" stroke-linecap="round" stroke-linejoin="round"/><path d="M1096.76 457.11L1076.56 356.27C1055.25 359.81 1028.4 370.89 1008.08 381.04L1083.66 464.68L1096.76 457.11Z" fill="#5FD8F0"/><path d="M1076.55 356.26L1096.76 457.1L1120.38 465.21L1178.16 401.71C1149.01 385.16 1095.83 360.82 1076.55 356.26Z" fill="#5FD8F0"/><path d="M1120.38 465.21L1096.76 457.1L984.18 522.1L983.17 550.74L1148.82 687.41C1153.14 688.84 1157.14 690.11 1160.77 691.21L1120.38 465.21Z" fill="#5FD8F0"/><path d="M1160.77 691.21C1174.33 633.34 1196.32 475.71 1191.48 409.91C1188.1 407.56 1183.54 404.77 1178.16 401.71L1120.38 465.21L1160.77 691.21Z" fill="#5FD8F0"/><path d="M1148.82 687.41C1085.43 666.49 952.88 611.88 901.81 577.15C901.63 575.04 901.5 572.59 901.43 569.87C900.62 538.73 906.61 471.48 912.8 450.8C931.88 427.62 968.88 402.44 988 391.97C1006.63 380.65 1046.95 361.19 1076.55 356.26C1095.83 360.82 1149.01 385.16 1178.16 401.71C1183.54 404.77 1188.1 407.56 1191.48 409.91C1196.32 475.71 1174.33 633.34 1160.77 691.21C1157.14 690.11 1153.14 688.84 1148.82 687.41ZM912.8 450.8L984.18 522.1M1160.77 691.21L1120.38 465.21M1076.55 356.26L1096.76 457.1M1096.76 457.1L1120.38 465.21M1096.76 457.1L984.18 522.1M1120.38 465.21L1178.16 401.71M984.18 522.1L983.17 550.74M983.17 550.74L901.43 569.87M983.17 550.74L1148.82 687.41" stroke="black" stroke-width="30" stroke-linecap="round" stroke-linejoin="round"/><path d="M1120.38 465.21L1096.76 457.1L984.18 522.1L983.17 550.74L1148.82 687.41C1153.14 688.84 1157.14 690.11 1160.77 691.21L1120.38 465.21Z" fill="#88E6F5"/><path d="M1160.77 691.21C1174.33 633.34 1196.32 475.71 1191.48 409.91C1188.1 407.56 1183.54 404.77 1178.16 401.71L1120.38 465.21L1160.77 691.21Z" fill="#88E6F5"/><path fill-rule="evenodd" clip-rule="evenodd" d="M988 391.97C968.88 402.44 931.88 427.62 912.8 450.8C906.61 471.48 900.62 538.73 901.43 569.87C901.5 572.59 901.63 575.04 901.81 577.15C952.88 611.88 1085.43 666.49 1148.82 687.41L983.17 550.74L984.18 522.1L1096.76 457.1L1076.55 356.26C1046.95 361.19 1006.63 380.65 988 391.97Z" fill="#88E6F5"/><path d="M1148.82 687.41C1085.43 666.49 952.88 611.88 901.81 577.15C901.63 575.04 901.5 572.59 901.43 569.87C900.62 538.73 906.61 471.48 912.8 450.8C931.88 427.62 968.88 402.44 988 391.97C1006.63 380.65 1046.95 361.19 1076.55 356.26C1095.83 360.82 1149.01 385.16 1178.16 401.71C1183.54 404.77 1188.1 407.56 1191.48 409.91C1196.32 475.71 1174.33 633.34 1160.77 691.21C1157.14 690.11 1153.14 688.84 1148.82 687.41ZM912.8 450.8L984.18 522.1M1160.77 691.21L1120.38 465.21M1076.55 356.26L1096.76 457.1M1096.76 457.1L1120.38 465.21M1096.76 457.1L984.18 522.1M1120.38 465.21L1178.16 401.71M984.18 522.1L983.17 550.74M983.17 550.74L901.43 569.87M983.17 550.74L1148.82 687.41" stroke="black" stroke-width="30" stroke-linecap="round" stroke-linejoin="round"/><path d="M1096.76 457.11L1076.56 356.27C1055.25 359.81 1028.4 370.89 1008.08 381.04L1083.66 464.68L1096.76 457.11Z" fill="#5FD8F0"/><path d="M1076.55 356.26L1096.76 457.1L1120.38 465.21L1178.16 401.71C1149.01 385.16 1095.83 360.82 1076.55 356.26Z" fill="#5FD8F0"/><path d="M1120.38 465.21L1096.76 457.1L984.18 522.1L983.17 550.74L1148.82 687.41C1153.14 688.84 1157.14 690.11 1160.77 691.21L1120.38 465.21Z" fill="#5FD8F0"/><path d="M1160.77 691.21C1174.33 633.34 1196.32 475.71 1191.48 409.91C1188.1 407.56 1183.54 404.77 1178.16 401.71L1120.38 465.21L1160.77 691.21Z" fill="#5FD8F0"/><path d="M1148.82 687.41C1085.43 666.49 952.88 611.88 901.81 577.15C901.63 575.04 901.5 572.59 901.43 569.87C900.62 538.73 906.61 471.48 912.8 450.8C931.88 427.62 968.88 402.44 988 391.97C1006.63 380.65 1046.95 361.19 1076.55 356.26C1095.83 360.82 1149.01 385.16 1178.16 401.71C1183.54 404.77 1188.1 407.56 1191.48 409.91C1196.32 475.71 1174.33 633.34 1160.77 691.21C1157.14 690.11 1153.14 688.84 1148.82 687.41ZM912.8 450.8L984.18 522.1M1160.77 691.21L1120.38 465.21M1076.55 356.26L1096.76 457.1M1096.76 457.1L1120.38 465.21M1096.76 457.1L984.18 522.1M1120.38 465.21L1178.16 401.71M984.18 522.1L983.17 550.74M983.17 550.74L901.43 569.87M983.17 550.74L1148.82 687.41" stroke="black" stroke-width="30" stroke-linecap="round" stroke-linejoin="round"/><path d="M1007.11 1095.17C1004.67 1106.85 992.62 1113.81 981.28 1110.08L936.15 1095.24C926.62 1092.11 920.89 1082.41 922.74 1072.55L931.72 1024.76C933.98 1012.72 946.44 1005.52 958 1009.58L1003.88 1025.7C1013.34 1029.03 1018.87 1038.85 1016.82 1048.66L1007.11 1095.17Z" fill="#5BC8FB"/><path d="M1007.11 1095.17C1004.67 1106.85 992.62 1113.81 981.28 1110.08L936.15 1095.24C926.62 1092.11 920.89 1082.41 922.74 1072.55L931.72 1024.76C933.98 1012.72 946.44 1005.52 958 1009.58L1003.88 1025.7C1013.34 1029.03 1018.87 1038.85 1016.82 1048.66L1007.11 1095.17Z" stroke="black" stroke-width="30"/><path d="M1305.61 942.09L1163.61 948.83L1239.1 826.88L1382.46 822.48L1305.61 942.09Z" fill="#55E748" stroke="black" stroke-width="30"/><path d="M1613.27 745.21C1610.83 756.88 1598.78 763.84 1587.44 760.12L1542.31 745.28C1532.78 742.14 1527.05 732.44 1528.9 722.58L1537.88 674.8C1540.14 662.75 1552.6 655.56 1564.16 659.62L1610.04 675.74C1619.5 679.06 1625.04 688.88 1622.98 698.7L1613.27 745.21Z" fill="#5BC8FB"/><path d="M1613.27 745.21C1610.83 756.88 1598.78 763.84 1587.44 760.12L1542.31 745.28C1532.78 742.14 1527.05 732.44 1528.9 722.58L1537.88 674.8C1540.14 662.75 1552.6 655.56 1564.16 659.62L1610.04 675.74C1619.5 679.06 1625.04 688.88 1622.98 698.7L1613.27 745.21Z" stroke="black" stroke-width="30"/></g><defs><clipPath id="clip0_4368_3920"><rect width="3000" height="3000" fill="white" transform="translate(0 8.05) rotate(-.15)"/></clipPath></defs></svg>