<svg width="3009" height="3009" viewBox="0 0 3009 3009" fill="none" xmlns="http://www.w3.org/2000/svg"><g clip-path="url(#clip0_4368_4161)"><path d="M1671.88 114.75C1677.67 113.22 1683.82 115.28 1687.52 120C1687.81 120.36 1688.05 120.7 1688.2 120.91C1688.39 121.17 1688.44 121.22 1688.52 121.33C1692.5 126.63 1696.26 133.67 1699.85 141.72L1700.57 143.35L1700.58 143.39C1706.69 157.52 1710.54 172.97 1712.2 189.32L1712.2 189.32C1714.06 206.32 1713.39 222.67 1709.92 237.92L1709.92 237.92C1707.33 249.55 1703.92 260.46 1699.7 270.5C1699.65 270.62 1699.6 270.74 1699.54 270.85C1699.35 271.29 1698.65 272.92 1697.94 274.32C1697.93 274.35 1697.92 274.37 1697.91 274.39C1703.45 270.76 1709.34 268.58 1715.67 268.54C1724.1 268.48 1730.29 272.31 1733.58 274.51C1733.6 274.52 1733.63 274.54 1733.65 274.56C1737.58 277.21 1741.19 281.26 1743.55 287.93L1743.78 288.59L1743.9 288.98C1743.94 289.11 1743.98 289.24 1744.02 289.37C1747.32 301.42 1747.43 313.38 1742.96 324.79C1739.41 333.86 1733.36 341.55 1725.63 348.19C1729.73 347.87 1733.85 347.98 1737.85 348.53L1738.8 348.67L1739.14 348.73C1742.47 349.32 1746.08 350.26 1749.4 351.94C1752.55 353.53 1756.78 356.49 1759.18 361.73L1759.41 362.25L1759.43 362.29C1760.87 365.73 1764.39 374.45 1760.51 386.52C1756.92 397.68 1747.76 409.35 1730.81 422.07C1730.8 422.07 1730.79 422.08 1730.78 422.08C1724.73 426.6 1717.87 431.12 1710.39 435.53C1711 435.68 1711.61 435.87 1712.21 436.1C1712.76 436.32 1712.98 436.4 1713.17 436.48L1713.96 436.79L1714.21 436.89C1724.06 440.88 1731.13 447.71 1735.39 457.35C1735.52 457.63 1735.61 457.83 1735.65 457.94C1735.7 458.04 1735.74 458.15 1735.78 458.24C1736.05 458.9 1736.29 459.59 1736.47 460.31L1736.49 460.38C1737.33 463.63 1737.03 466.92 1735.85 469.81L1735.64 470.32C1735.15 471.51 1734.52 472.68 1733.78 473.82C1732.17 476.28 1729.92 478.74 1726.94 481.23C1726.65 481.49 1726.36 481.72 1726.1 481.93C1716.55 490 1704.55 493.56 1692.27 497.41L1692.27 497.41C1682.66 500.45 1671.23 504.06 1657.85 509.77C1657.75 509.81 1657.65 509.86 1657.54 509.9C1656.94 510.14 1656.31 510.38 1655.78 510.57C1658.64 511.8 1661.12 513.92 1662.78 516.75C1662.86 516.89 1662.93 517.01 1662.99 517.13C1663.06 517.24 1663.11 517.34 1663.16 517.43C1663.25 517.6 1663.32 517.75 1663.37 517.85C1663.72 518.54 1664.02 519.25 1664.26 519.99C1665.98 525.25 1664.72 529.84 1663.58 532.46C1662.45 535.09 1660.9 537.1 1659.77 538.41C1657.48 541.05 1654.74 543.24 1652.83 544.65C1652.81 544.67 1652.79 544.68 1652.77 544.7C1641.17 553.21 1624.58 558.76 1605.97 561.85C1605.96 561.85 1605.94 561.85 1605.93 561.85C1593.84 563.82 1582.33 562.67 1571.67 557.6C1565.75 554.79 1562.35 548.46 1563.26 541.97L1583.63 397.17L1583.63 397.14C1584.83 388.74 1585.36 380.39 1585.29 372.12C1585.25 369.71 1585.2 367.42 1585.09 365.2C1584.15 346.89 1580.28 329.21 1573.87 312.67C1573.86 312.65 1573.85 312.63 1573.84 312.62C1572.52 309.16 1571.05 305.75 1569.45 302.34C1569.42 302.27 1569.37 302.18 1569.32 302.08C1569.27 301.98 1569.21 301.86 1569.15 301.73C1566.61 296.48 1567.34 290.24 1571.03 285.72C1575.61 280.1 1580.38 274.39 1585.4 268.71L1585.42 268.69L1586.73 267.21C1600.33 251.75 1617.9 231.62 1629.52 213.72L1629.64 213.55C1642.88 193.75 1655.93 170.49 1659.43 139.23C1659.66 136.98 1660.17 131.76 1660.88 127.04L1660.97 126.48C1662.03 120.81 1666.27 116.23 1671.88 114.75ZM1663.15 517.43C1663.14 517.41 1663.13 517.4 1663.12 517.38C1663.12 517.37 1663.11 517.37 1663.11 517.36C1663.12 517.38 1663.13 517.4 1663.15 517.43Z" fill="#E9F6FB" stroke="black" stroke-width="30" stroke-linejoin="round"/><path d="M419.24 835.97C414.94 840.14 413.54 846.47 415.67 852.07C415.83 852.51 415.99 852.89 416.09 853.13C416.22 853.42 416.25 853.49 416.3 853.61C418.78 859.76 422.87 866.62 427.92 873.85L428.94 875.3L428.97 875.33C437.93 887.85 449.17 899.13 462.32 908.98L462.32 908.99C475.92 919.34 490.28 927.21 505.13 932.11L505.13 932.11C516.42 935.88 527.53 938.59 538.31 940.15C538.43 940.17 538.56 940.19 538.69 940.2C539.17 940.26 540.92 940.5 542.48 940.62C542.51 940.62 542.54 940.63 542.57 940.63C536.6 943.5 531.69 947.42 528.39 952.82C523.99 960.02 524.08 967.3 524.26 971.24C524.27 971.27 524.27 971.3 524.27 971.34C524.52 976.07 526.13 981.25 530.62 986.72L531.06 987.25L531.33 987.56C531.42 987.66 531.52 987.76 531.61 987.86C540.23 996.9 550.42 1003.16 562.49 1005.22C572.1 1006.86 581.81 1005.64 591.48 1002.45C589.1 1005.8 587.07 1009.38 585.47 1013.1L585.1 1013.98L584.97 1014.3C583.76 1017.45 582.71 1021.04 582.43 1024.75C582.17 1028.26 582.52 1033.41 585.77 1038.18L586.1 1038.64L586.13 1038.67C588.33 1041.69 593.98 1049.2 606.32 1052.1C617.73 1054.78 632.46 1052.97 652.1 1045C652.11 1045 652.12 1044.99 652.13 1044.99C659.12 1042.14 666.53 1038.59 674.16 1034.46C673.98 1035.06 673.83 1035.68 673.72 1036.31C673.62 1036.9 673.58 1037.13 673.54 1037.33L673.4 1038.17L673.36 1038.43C671.7 1048.93 673.9 1058.51 679.96 1067.13C680.13 1067.38 680.26 1067.57 680.32 1067.65C680.38 1067.73 680.43 1067.8 680.49 1067.87C680.92 1068.47 681.4 1069.04 681.93 1069.58L681.99 1069.63C684.34 1072.03 687.3 1073.47 690.4 1073.95L690.94 1074.04C692.22 1074.23 693.54 1074.29 694.9 1074.24C697.84 1074.13 701.1 1073.48 704.77 1072.21C705.14 1072.09 705.49 1071.97 705.8 1071.85C717.65 1067.84 726.88 1059.4 736.52 1050.86L736.52 1050.86C744.09 1044.19 753.08 1036.27 764.87 1027.75C764.96 1027.69 765.05 1027.62 765.13 1027.56C765.65 1027.16 766.18 1026.74 766.62 1026.39C766.2 1029.47 766.73 1032.69 768.3 1035.58C768.38 1035.72 768.45 1035.84 768.51 1035.95C768.58 1036.06 768.64 1036.16 768.69 1036.25C768.79 1036.41 768.88 1036.55 768.94 1036.65C769.35 1037.3 769.81 1037.93 770.32 1038.51C773.94 1042.71 778.52 1043.99 781.35 1044.37C784.18 1044.75 786.71 1044.46 788.41 1044.17C791.86 1043.57 795.14 1042.35 797.34 1041.45C797.36 1041.44 797.39 1041.43 797.41 1041.42C810.69 1035.87 824 1024.53 836.24 1010.18C836.25 1010.17 836.26 1010.16 836.27 1010.15C844.19 1000.8 849.15 990.35 850.3 978.6C850.95 972.08 847.28 965.9 841.25 963.33L706.7 906.07L706.68 906.07C698.86 902.75 691.44 898.9 684.39 894.58C682.34 893.3 680.41 892.07 678.56 890.84C663.37 880.58 650.22 868.15 639.36 854.12C639.34 854.1 639.33 854.09 639.32 854.07C637.04 851.15 634.88 848.13 632.78 845.01C632.74 844.94 632.69 844.86 632.63 844.76C632.57 844.67 632.5 844.55 632.41 844.43C629.23 839.55 623.5 836.96 617.74 837.78C610.55 838.81 603.2 839.95 595.74 841.32L595.71 841.32L593.78 841.68C573.51 845.36 547.21 850.02 525.87 850.75L525.67 850.75C501.89 851.88 475.23 851.06 446.65 837.95C444.62 836.98 439.87 834.72 435.44 832.88L434.92 832.67C429.51 830.66 423.41 831.92 419.24 835.97ZM768.7 1036.24C768.69 1036.22 768.68 1036.21 768.67 1036.19C768.66 1036.18 768.65 1036.16 768.64 1036.15C768.66 1036.18 768.68 1036.21 768.7 1036.24ZM632.64 844.81C632.65 844.82 632.66 844.83 632.67 844.85C632.59 844.72 632.5 844.6 632.42 844.48C632.5 844.61 632.58 844.72 632.64 844.81Z" fill="#E9F6FB" stroke="black" stroke-width="30" stroke-linejoin="round"/><path d="M751.51 1036.89L477.01 730.26L701.3 704.6L674.55 497.34L884.43 531.92L888.59 212.54L1167.29 368.7L1242.29 169.64L1408.4 296.44L1542.77 115.03L1672.63 505.87C1736.64 489.64 1752.27 560.7 1692.84 565.27C1501.96 579.96 920.9 915.97 791.34 1085.76C760.62 1126.02 708.14 1086.12 751.51 1036.89Z" fill="#F8DA62"/><path d="M751.51 1036.89L477.01 730.26L701.3 704.6L674.55 497.34L884.43 531.92L888.59 212.54L1167.29 368.7L1242.29 169.64L1408.4 296.44L1542.77 115.03L1672.63 505.87M751.51 1036.89C990.26 794.03 1401.7 574.52 1672.63 505.87M751.51 1036.89C708.14 1086.12 760.62 1126.02 791.34 1085.76C920.9 915.97 1501.96 579.96 1692.84 565.27C1752.28 560.7 1736.64 489.64 1672.63 505.87" stroke="black" stroke-width="30" stroke-linejoin="round"/><path d="M1279.66 114.19C1293.65 138.42 1285.34 169.4 1261.11 183.39C1236.88 197.38 1205.9 189.08 1191.91 164.85C1177.92 140.62 1186.22 109.63 1210.45 95.64C1234.68 81.65 1265.67 89.95 1279.66 114.19Z" fill="#FFF6CC" stroke="black" stroke-width="30"/><path d="M925.47 175.11C939.46 199.34 931.16 230.32 906.93 244.31C882.7 258.3 851.71 250 837.72 225.77C823.73 201.54 832.03 170.55 856.26 156.56C880.5 142.57 911.48 150.88 925.47 175.11Z" fill="#FFF6CC" stroke="black" stroke-width="30"/><path d="M695.37 451.52C709.36 475.75 701.06 506.74 676.83 520.73C652.6 534.72 621.61 526.41 607.63 502.18C593.63 477.95 601.94 446.97 626.17 432.98C650.4 418.99 681.38 427.29 695.37 451.52Z" fill="#FFF6CC" stroke="black" stroke-width="30"/><path d="M515.56 695.71C529.55 719.94 521.25 750.92 497.01 764.91C472.78 778.9 441.8 770.6 427.81 746.37C413.82 722.14 422.12 691.15 446.35 677.17C470.58 663.18 501.57 671.48 515.56 695.71Z" fill="#FFF6CC" stroke="black" stroke-width="30"/><path d="M1589.92 75.43C1603.91 99.66 1595.6 130.64 1571.37 144.63C1547.14 158.62 1516.16 150.32 1502.17 126.09C1488.18 101.86 1496.48 70.87 1520.71 56.88C1544.94 42.89 1575.93 51.2 1589.92 75.43Z" fill="#FFF6CC" stroke="black" stroke-width="30"/><path d="M1046.59 505.24C1044.58 495.77 1055.87 489.25 1063.07 495.73L1098.79 527.9C1102.01 530.8 1106.73 531.29 1110.48 529.13L1152.11 505.09C1160.5 500.25 1170.19 508.97 1166.25 517.82L1146.7 561.74C1144.93 565.69 1145.92 570.34 1149.14 573.24L1184.87 605.4C1192.06 611.88 1186.76 623.79 1177.13 622.78L1129.32 617.75C1125.01 617.3 1120.9 619.67 1119.14 623.63L1099.59 667.55C1095.65 676.4 1082.68 675.03 1080.67 665.56L1070.68 618.54C1069.77 614.3 1066.25 611.12 1061.94 610.67L1014.13 605.65C1004.5 604.63 1001.79 591.88 1010.18 587.04L1051.81 563C1055.56 560.84 1057.49 556.5 1056.59 552.26L1046.59 505.24Z" fill="#FFF6CC" stroke="black" stroke-width="30" stroke-linejoin="round"/><path d="M1363.11 363.26C1363.62 353.58 1376.21 350.21 1381.48 358.33L1407.66 398.65C1410.02 402.28 1414.46 403.99 1418.64 402.86L1465.07 390.42C1474.43 387.91 1481.53 398.85 1475.43 406.37L1445.18 443.73C1442.45 447.1 1442.21 451.84 1444.57 455.47L1470.75 495.79C1476.02 503.91 1467.82 514.04 1458.78 510.57L1413.9 493.34C1409.85 491.79 1405.27 493.02 1402.54 496.39L1372.29 533.74C1366.19 541.27 1354.03 536.6 1354.53 526.93L1357.05 478.92C1357.28 474.6 1354.69 470.62 1350.65 469.06L1305.77 451.84C1296.72 448.36 1297.41 435.35 1306.76 432.84L1353.2 420.4C1357.38 419.28 1360.37 415.59 1360.59 411.26L1363.11 363.26Z" fill="#FFF6CC" stroke="black" stroke-width="30" stroke-linejoin="round"/><path d="M781.85 698.85C773.22 694.45 764 703.67 768.4 712.3L790.22 755.13C792.19 758.99 791.45 763.68 788.38 766.74L754.39 800.73C747.54 807.58 753.46 819.2 763.03 817.68L810.51 810.16C814.78 809.48 819.01 811.64 820.98 815.5L842.8 858.33C847.2 866.96 860.08 864.92 861.59 855.36L869.11 807.88C869.79 803.6 873.14 800.24 877.42 799.56L924.9 792.04C934.47 790.53 936.51 777.65 927.88 773.26L885.05 751.43C881.19 749.47 879.03 745.24 879.71 740.96L887.23 693.48C888.75 683.91 877.13 677.99 870.28 684.84L836.29 718.83C833.23 721.9 828.54 722.64 824.68 720.67L781.85 698.85Z" fill="#FFF6CC" stroke="black" stroke-width="30" stroke-linejoin="round"/></g><defs><clipPath id="clip0_4368_4161"><rect width="3000" height="3000" fill="white" transform="translate(0 8.05) rotate(-.15)"/></clipPath></defs></svg>