<svg width="3009" height="3009" viewBox="0 0 3009 3009" fill="none" xmlns="http://www.w3.org/2000/svg"><g clip-path="url(#clip0_4368_4163)"><path d="M745.3 1033.49L470.79 726.86L695.08 701.2L713.95 572.95L878.21 528.52L909.74 256.55L1161.08 365.3L1281.69 245.26L1402.19 293.04L1536.55 111.63L1666.41 502.47C1730.42 486.25 1746.06 557.3 1686.63 561.88C1495.74 576.56 914.69 912.57 785.13 1082.36C754.4 1122.62 701.92 1082.72 745.3 1033.49Z" fill="#F8DA62"/><path d="M745.3 1033.49L470.79 726.86L695.08 701.2L713.95 572.95L878.21 528.52L909.74 256.55L1161.08 365.3L1281.69 245.26L1402.19 293.04L1536.55 111.63L1666.41 502.47M745.3 1033.49C984.04 790.63 1395.49 571.12 1666.41 502.47M745.3 1033.49C701.92 1082.72 754.4 1122.62 785.13 1082.36C914.69 912.57 1495.74 576.56 1686.63 561.88C1746.06 557.3 1730.42 486.25 1666.41 502.47" stroke="black" stroke-width="30" stroke-linejoin="round"/><path d="M946.63 219.12C960.62 243.35 952.32 274.33 928.09 288.32C903.85 302.31 872.87 294.01 858.88 269.78C844.89 245.55 853.19 214.57 877.42 200.58C901.65 186.59 932.64 194.89 946.63 219.12Z" fill="#FFF6CC" stroke="black" stroke-width="30"/><path d="M509.34 692.31C523.33 716.54 515.03 747.53 490.8 761.51C466.57 775.5 435.59 767.2 421.6 742.97C407.61 718.74 415.91 687.76 440.14 673.77C464.37 659.78 495.35 668.08 509.34 692.31Z" fill="#FFF6CC" stroke="black" stroke-width="30"/><path d="M1583.7 72.03C1597.69 96.26 1589.39 127.24 1565.16 141.23C1540.93 155.22 1509.94 146.92 1495.95 122.69C1481.96 98.46 1490.27 67.48 1514.5 53.49C1538.73 39.5 1569.71 47.8 1583.7 72.03Z" fill="#FFF6CC" stroke="black" stroke-width="30"/><path d="M1040.38 501.85C1038.37 492.37 1049.65 485.85 1056.85 492.33L1092.58 524.5C1095.8 527.4 1100.52 527.9 1104.27 525.73L1145.9 501.69C1154.29 496.85 1163.98 505.57 1160.04 514.42L1140.48 558.34C1138.72 562.29 1139.71 566.94 1142.93 569.84L1178.65 602C1185.85 608.48 1180.55 620.39 1170.91 619.38L1123.11 614.35C1118.8 613.9 1114.69 616.27 1112.93 620.23L1093.37 664.15C1089.43 673 1076.47 671.63 1074.46 662.16L1064.46 615.14C1063.56 610.9 1060.03 607.73 1055.73 607.27L1007.92 602.25C998.28 601.24 995.57 588.49 1003.96 583.64L1045.59 559.61C1049.35 557.44 1051.28 553.1 1050.38 548.87L1040.38 501.85Z" fill="#FFF6CC" stroke="black" stroke-width="30" stroke-linejoin="round"/></g><defs><clipPath id="clip0_4368_4163"><rect width="3000" height="3000" fill="white" transform="translate(0 8.05) rotate(-.15)"/></clipPath></defs></svg>