<svg width="3009" height="3009" viewBox="0 0 3009 3009" fill="none" xmlns="http://www.w3.org/2000/svg">
<g clip-path="url(#clip0_4368_4165)">
<path d="M745.576 1030.44L471.075 723.812L695.365 698.152L701.419 547.717L878.494 525.472L905.457 245.595L1161.36 362.247L1269.16 220.018L1402.47 289.992L1536.83 108.582L1666.69 499.414C1730.7 483.193 1746.34 554.25 1686.91 558.823C1496.02 573.512 914.969 909.522 785.408 1079.3C754.682 1119.57 702.201 1079.67 745.576 1030.44Z" fill="#F8DA62"/>
<path d="M745.576 1030.44L471.075 723.812L695.365 698.152L701.419 547.717L878.494 525.472L905.457 245.595L1161.36 362.247L1269.16 220.018L1402.47 289.992L1536.83 108.582L1666.69 499.414M745.576 1030.44C984.323 787.575 1395.77 568.067 1666.69 499.414M745.576 1030.44C702.201 1079.67 754.682 1119.57 785.408 1079.3C914.969 909.522 1496.02 573.512 1686.91 558.823C1746.34 554.25 1730.7 483.193 1666.69 499.414" stroke="black" stroke-width="30" stroke-linejoin="round"/>
<path d="M1304.03 160.229C1318.02 184.46 1309.72 215.444 1285.49 229.433C1261.25 243.423 1230.27 235.121 1216.28 210.89C1202.29 186.659 1210.59 155.675 1234.82 141.685C1259.06 127.696 1290.04 135.998 1304.03 160.229Z" fill="#FFF6CC" stroke="black" stroke-width="30"/>
<path d="M942.348 208.166C956.338 232.397 948.035 263.381 923.804 277.371C899.573 291.361 868.589 283.058 854.6 258.827C840.61 234.597 848.912 203.613 873.143 189.623C897.374 175.633 928.358 183.935 942.348 208.166Z" fill="#FFF6CC" stroke="black" stroke-width="30"/>
<path d="M719.746 497.565C733.735 521.795 725.433 552.78 701.202 566.769C676.971 580.759 645.987 572.457 631.998 548.226C618.008 523.995 626.31 493.011 650.541 479.021C674.772 465.031 705.756 473.334 719.746 497.565Z" fill="#FFF6CC" stroke="black" stroke-width="30"/>
<path d="M509.623 689.256C523.613 713.487 515.311 744.471 491.08 758.461C466.849 772.45 435.865 764.148 421.875 739.917C407.886 715.686 416.188 684.702 440.419 670.713C464.65 656.723 495.634 665.025 509.623 689.256Z" fill="#FFF6CC" stroke="black" stroke-width="30"/>
<path d="M1583.98 68.9747C1597.97 93.2057 1589.67 124.19 1565.44 138.179C1541.21 152.169 1510.22 143.867 1496.23 119.636C1482.24 95.4051 1490.55 64.4211 1514.78 50.4313C1539.01 36.4416 1569.99 44.7437 1583.98 68.9747Z" fill="#FFF6CC" stroke="black" stroke-width="30"/>
<path d="M847.593 721.679C837.919 721.172 834.545 708.582 842.67 703.306L882.986 677.124C886.619 674.765 888.32 670.334 887.199 666.15L874.757 619.716C872.25 610.359 883.181 603.26 890.709 609.356L928.068 639.609C931.435 642.335 936.174 642.584 939.807 640.224L980.124 614.042C988.248 608.766 998.377 616.969 994.906 626.013L977.678 670.891C976.126 674.936 977.354 679.52 980.721 682.247L1018.08 712.499C1025.61 718.595 1020.94 730.764 1011.26 730.257L963.257 727.741C958.931 727.514 954.951 730.099 953.398 734.143L936.171 779.022C932.699 788.066 919.683 787.384 917.176 778.026L904.734 731.593C903.613 727.408 899.925 724.422 895.598 724.195L847.593 721.679Z" fill="#FFF6CC" stroke="black" stroke-width="30" stroke-linejoin="round"/>
<path d="M1355.33 428.538C1359.73 419.907 1350.51 410.691 1341.88 415.088L1299.05 436.912C1295.19 438.879 1290.5 438.137 1287.43 435.073L1253.44 401.082C1246.59 394.232 1234.98 400.149 1236.5 409.717L1244.02 457.197C1244.69 461.476 1242.54 465.704 1238.68 467.671L1195.85 489.495C1187.22 493.893 1189.25 506.767 1198.82 508.282L1246.3 515.802C1250.58 516.48 1253.94 519.836 1254.61 524.115L1262.13 571.594C1263.65 581.162 1276.52 583.201 1280.92 574.57L1302.75 531.738C1304.71 527.878 1308.94 525.723 1313.22 526.401L1360.7 533.921C1370.27 535.436 1376.18 523.823 1369.33 516.973L1335.34 482.981C1332.28 479.918 1331.54 475.23 1333.5 471.37L1355.33 428.538Z" fill="#FFF6CC" stroke="black" stroke-width="30" stroke-linejoin="round"/>
</g>
<defs>
<clipPath id="clip0_4368_4165">
<rect width="3000" height="3000" fill="white" transform="translate(0 8.055) rotate(-0.153839)"/>
</clipPath>
</defs>
</svg>
