<svg width="3009" height="3009" viewBox="0 0 3009 3009" fill="none" xmlns="http://www.w3.org/2000/svg"><g clip-path="url(#clip0_4368_4165)"><path d="M745.58 1030.44L471.07 723.81L695.37 698.15L701.42 547.72L878.49 525.47L905.46 245.59L1161.36 362.25L1269.16 220.02L1402.47 289.99L1536.83 108.58L1666.69 499.41C1730.7 483.19 1746.34 554.25 1686.91 558.82C1496.02 573.51 914.97 909.52 785.41 1079.3C754.68 1119.57 702.2 1079.67 745.58 1030.44Z" fill="#F8DA62"/><path d="M745.58 1030.44L471.07 723.81L695.37 698.15L701.42 547.72L878.49 525.47L905.46 245.59L1161.36 362.25L1269.16 220.02L1402.47 289.99L1536.83 108.58L1666.69 499.41M745.58 1030.44C984.32 787.58 1395.77 568.07 1666.69 499.41M745.58 1030.44C702.2 1079.67 754.68 1119.57 785.41 1079.3C914.97 909.52 1496.02 573.51 1686.91 558.82C1746.34 554.25 1730.7 483.19 1666.69 499.41" stroke="black" stroke-width="30" stroke-linejoin="round"/><path d="M1304.03 160.23C1318.02 184.46 1309.72 215.44 1285.49 229.43C1261.25 243.42 1230.27 235.12 1216.28 210.89C1202.29 186.66 1210.59 155.68 1234.82 141.69C1259.06 127.7 1290.04 136 1304.03 160.23Z" fill="#FFF6CC" stroke="black" stroke-width="30"/><path d="M942.35 208.17C956.34 232.4 948.03 263.38 923.8 277.37C899.57 291.36 868.59 283.06 854.6 258.83C840.61 234.6 848.91 203.61 873.14 189.62C897.37 175.63 928.36 183.94 942.35 208.17Z" fill="#FFF6CC" stroke="black" stroke-width="30"/><path d="M719.75 497.56C733.74 521.79 725.43 552.78 701.2 566.77C676.97 580.76 645.99 572.46 632 548.23C618.01 524 626.31 493.01 650.54 479.02C674.77 465.03 705.76 473.33 719.75 497.56Z" fill="#FFF6CC" stroke="black" stroke-width="30"/><path d="M509.62 689.26C523.61 713.49 515.31 744.47 491.08 758.46C466.85 772.45 435.87 764.15 421.88 739.92C407.89 715.69 416.19 684.7 440.42 670.71C464.65 656.72 495.63 665.02 509.62 689.26Z" fill="#FFF6CC" stroke="black" stroke-width="30"/><path d="M1583.98 68.97C1597.97 93.21 1589.67 124.19 1565.44 138.18C1541.21 152.17 1510.22 143.87 1496.23 119.64C1482.24 95.41 1490.55 64.42 1514.78 50.43C1539.01 36.44 1569.99 44.74 1583.98 68.97Z" fill="#FFF6CC" stroke="black" stroke-width="30"/><path d="M847.59 721.68C837.92 721.17 834.54 708.58 842.67 703.31L882.99 677.12C886.62 674.76 888.32 670.33 887.2 666.15L874.76 619.72C872.25 610.36 883.18 603.26 890.71 609.36L928.07 639.61C931.43 642.34 936.17 642.58 939.81 640.22L980.12 614.04C988.25 608.77 998.38 616.97 994.91 626.01L977.68 670.89C976.13 674.94 977.35 679.52 980.72 682.25L1018.08 712.5C1025.61 718.6 1020.94 730.76 1011.26 730.26L963.26 727.74C958.93 727.51 954.95 730.1 953.4 734.14L936.17 779.02C932.7 788.07 919.68 787.38 917.18 778.03L904.73 731.59C903.61 727.41 899.92 724.42 895.6 724.2L847.59 721.68Z" fill="#FFF6CC" stroke="black" stroke-width="30" stroke-linejoin="round"/><path d="M1355.33 428.54C1359.73 419.91 1350.51 410.69 1341.88 415.09L1299.05 436.91C1295.19 438.88 1290.5 438.14 1287.43 435.07L1253.44 401.08C1246.59 394.23 1234.98 400.15 1236.5 409.72L1244.02 457.2C1244.69 461.48 1242.54 465.7 1238.68 467.67L1195.85 489.5C1187.22 493.89 1189.25 506.77 1198.82 508.28L1246.3 515.8C1250.58 516.48 1253.94 519.84 1254.61 524.12L1262.13 571.59C1263.65 581.16 1276.52 583.2 1280.92 574.57L1302.75 531.74C1304.71 527.88 1308.94 525.72 1313.22 526.4L1360.7 533.92C1370.27 535.44 1376.18 523.82 1369.33 516.97L1335.34 482.98C1332.28 479.92 1331.54 475.23 1333.5 471.37L1355.33 428.54Z" fill="#FFF6CC" stroke="black" stroke-width="30" stroke-linejoin="round"/></g><defs><clipPath id="clip0_4368_4165"><rect width="3000" height="3000" fill="white" transform="translate(0 8.05) rotate(-.15)"/></clipPath></defs></svg>