<svg xmlns="http://www.w3.org/2000/svg"><symbol id="default" viewBox="0 0 3000 3000"><path fill="#f7e3a2" d="M1011.55 2616.24h-6.42c24.5 8.75 50.75 12.83 79.33 12.83 63.58 0 120.16-21.58 170.04-64.75-22.17 8.17-44.33 3.21-66.5-14.87-38.21 31.21-78.46 51.33-121.04 60.66-18.08 4.08-36.46 6.13-55.41 6.13m8.17-98.29c-7.88 0-15.17-.583-22.46-1.46 6.71 47.83 30.04 79.04 69.42 93.92 42.58-9.33 82.83-29.46 121.04-60.67 4.96-4.38 10.21-8.75 15.17-13.42-42.58 22.75-79.33 11.67-110.25-33.83-23.04 10.21-47.25 15.46-72.92 15.46m131.54-53.37c2.04-2.04 4.37-3.79 6.42-6.13 5.54-4.96 10.5-10.21 15.46-15.46 18.96-21 33.54-43.75 44.33-68.83l-70.58-4.96c-1.17 31.21.292 63 4.38 95.37m-328.41 35.58c11.38-32.67 31.5-56.29 60.37-71.46-13.71-30.04-18.08-63.58-13.71-101.21-24.21-1.46-48.71 11.67-72.92 39.37-2.92 49.29 5.83 93.92 26.25 133.29m113.46-6.71c-25.96 20.71-41.12 49.58-45.79 86.33 32.37 23.04 70.58 35.29 114.62 36.17h6.42c18.96 0 37.33-2.04 55.41-5.83-39.67-14.88-62.71-46.08-69.42-93.92-23.04-2.63-43.46-10.21-61.25-22.75m-40.54-42.29c1.75 2.63 3.5 4.96 5.54 7.58 10.21 14.29 21.88 25.96 35 34.71 17.79 12.25 38.21 20.12 60.96 23.04 7.29.876 14.58 1.46 22.46 1.46 25.38 0 49.87-5.25 73.21-15.17 13.13-5.83 25.96-13.13 38.5-22.17-15.17 4.08-30.63 5.83-46.67 5.83-49.87 0-89.25-19.54-118.12-58.62-5.54-7.58-10.21-15.46-14.29-23.63-24.21-.291-42.87 15.46-56.58 46.96m0 0c-4.67-7.29-8.75-14.88-12.25-22.46-28.87 15.17-49 38.79-60.37 71.46 5.83 11.08 12.54 21.87 20.12 32.37 14 18.96 29.75 34.71 47.25 47.25 4.67-36.75 19.83-65.62 45.79-86.33-13.13-9.04-24.79-20.71-35-34.71-2.04-2.63-3.79-4.96-5.54-7.58m-19.54-158.96c7-27.42 18.67-52.79 34.42-75.83-25.08 13.71-47.83 11.67-67.67-6.13-21 36.46-35.29 76.42-42.29 119.58-2.04 12.54-3.5 24.79-4.08 36.75 24.5-27.71 48.71-40.83 72.92-39.37.291-3.79.875-7.29 1.46-11.08a316.18 316.18 0 0 1 5.25-23.92m59.79 1.46c-17.5-18.96-37.33-19.25-59.79-1.17a316.18 316.18 0 0 0-5.25 23.92c-.583 3.79-1.17 7.29-1.46 11.08-4.38 37.62 0 71.46 13.71 101.21 3.5 7.58 7.58 15.17 12.25 22.46 13.71-31.5 32.67-47.25 56.87-47.25-16.33-32.08-21.87-68.83-16.33-110.25m107.33-174.12c-18.38 4.38-36.17 11.38-53.08 21.58-14.87 8.75-29.17 19.54-42.87 32.67-14 13.42-26.54 27.71-37.04 42.87-15.75 23.04-27.42 48.42-34.42 75.83 22.46-18.08 42.58-17.5 59.79 1.17.292-2.63.584-5.25 1.17-7.88 9.04-55.42 34.42-102.67 75.83-141.75 10.21-9.33 20.42-17.5 30.63-24.5m-53.08 21.58-19.83-60.08c-21 12.54-41.41 28-61.54 46.67-26.54 25.37-48.71 52.79-65.92 82.54 19.83 17.79 42.58 19.83 67.67 6.13 10.5-15.17 22.75-29.46 37.04-42.87 13.71-12.83 28-23.63 42.58-32.38m95.08-26.54c4.08 0 8.17 0 11.96.292-9.92-20.71-8.46-44.33 4.67-70.87-46.38.583-90.12 12.83-131.25 37.04l19.54 60.08c16.92-10.21 34.71-17.21 53.08-21.58 13.71-3.21 27.71-4.96 42-4.96m417.66 334.83c-23.33-2.63-42-9.63-56-21-5.25 28.29-24.79 51.04-58.04 67.96 20.13 21.29 45.79 35 77.29 40.83 39.96-9.04 52.21-38.5 36.75-87.79m-299.83 86.92c1.17-1.46 2.63-2.63 3.79-3.79 18.37-17.21 34.71-35.87 48.71-55.41 7.29-10.21 13.71-20.42 19.83-30.92-28.88 23.04-63 22.17-102.67-2.92-4.96 5.25-9.92 10.5-15.46 15.46-2.04 2.04-4.38 4.08-6.42 6.13-6.42 5.54-12.83 10.79-19.54 15.75-12.54 9.04-25.37 16.62-38.5 22.17 31.21 45.21 67.96 56.29 110.25 33.54m51.33 28c5.83-5.25 11.67-10.79 17.5-16.33 17.5-17.5 32.67-36.46 44.92-56.29-23.04 10.5-43.46 5.83-61.25-14.58-14 19.54-30.33 38.21-48.71 55.41a23.31 23.31 0 0 0-3.79 3.79c-5.25 4.67-10.21 9.04-15.17 13.42 22.17 18.08 44.33 23.04 66.5 14.58m87.79-172.08c1.75 10.21 3.79 19.83 6.42 28.58 8.75 31.21 22.17 56.29 40.25 75.25 33.54-16.92 52.79-39.67 58.04-67.96-17.5-14-27.71-34.71-31.21-61.83-13.42 22.75-37.92 31.5-73.5 25.96m78.17-101.21c-25.67 14.29-53.66 15.17-84.58 3.21-.875 36.75 1.17 69.42 6.13 98 35.58 5.25 60.08-3.21 73.5-25.96-2.33-21-.583-46.08 4.96-75.25m-81.67-77.87c37.92 7.29 64.75 3.21 80.5-11.96-7-63-28.58-106.16-64.75-129.5 2.33 29.46-14.29 51.04-49.87 64.46 18.96 17.5 30.33 43.17 34.12 77m-23.33 116.96c1.46-8.17 2.33-16.33 3.21-24.5-26.54 25.37-56 34.71-88.08 28-3.21 14.29-7.58 27.71-13.13 40.83-10.79 25.08-25.37 47.83-44.33 68.83 39.37 25.08 73.5 25.96 102.67 2.92 19.54-35.58 32.96-74.08 39.67-116.08m23.92-111.42c1.75 21.88.583 46.96-3.5 75.54 30.92 11.96 58.91 11.08 84.58-3.21 2.04-33.54 1.75-63.29-1.17-89.83-15.75 15.17-42.58 19.25-80.5 11.96.292 1.75.584 3.79.584 5.54m-105.29 97.42c1.46-8.75 2.33-17.21 2.92-25.67l-80.79-4.67c-5.25 27.13-8.46 55.12-9.33 83.42l70.58 4.96c5.54-13.12 9.92-26.54 13.13-40.83 1.46-5.54 2.63-11.38 3.5-17.21m-4.08-90.71c5.83 20.13 8.17 41.71 7 65.04-.584 8.46-1.46 16.92-2.92 25.67-.875 5.83-2.04 11.67-3.5 17.21 32.08 6.71 61.54-2.33 88.08-28 4.38-46.66-1.17-88.67-16.92-126.58-7 29.75-30.92 45.21-71.75 46.66m-25.96-51.62a117.57 117.57 0 0 0-7.58-9.33c-18.67 39.08-32.08 79.62-40.54 121.62l80.79 4.67c1.17-23.33-1.17-45.21-7-65.04-5.25-18.96-14-36.17-25.67-51.92m100.62-37.33c-11.38-10.21-25.37-17.5-42-21.88l10.5 13.13c.876 1.17 2.04 2.63 2.92 3.79 10.5 14.88 19.25 30.63 25.96 47.25 15.46 37.91 21 80.21 16.92 126.58-.875 8.17-1.75 16.33-3.21 24.5-6.71 42-20.12 80.5-39.96 116.08-6.13 10.5-12.54 21-19.83 30.92 17.79 20.42 38.21 25.08 61.25 14.58 13.71-22.17 24.21-45.5 31.5-70.58-2.63-9.04-4.67-18.67-6.42-28.58-5.25-28.58-7.29-61.25-6.13-98 4.08-28.58 5.25-53.66 3.5-75.54-.291-1.75-.291-3.79-.583-5.54-4.08-33.83-15.46-59.5-34.42-76.71m-72.33-51.04c-11.38-9.04-23.62-16.33-36.46-22.17-26.83-12.83-57.46-19.25-91.29-19.25h-2.62c-13.13 26.54-14.58 50.17-4.67 70.87 32.37 2.04 60.08 13.12 82.83 32.96 36.17-12.83 53.66-33.54 52.21-62.41m30.33 29.17c-9.33-11.08-19.25-20.71-30.04-29.46 1.17 28.88-16.04 49.87-52.21 62.71 5.83 4.96 11.08 10.21 16.33 16.33 2.63 2.92 4.96 6.13 7.58 9.33 11.67 16.04 20.42 33.25 25.96 51.62 40.83-1.46 64.75-16.92 72.04-46.67-6.71-16.63-15.46-32.38-25.96-47.25-.875-1.46-2.04-2.62-2.92-3.79-3.79-4.08-7.29-8.46-10.79-12.83m-30.33-29.17c10.79 8.46 20.71 18.38 30.04 29.46 16.63 4.38 30.63 11.67 42 21.87 35.87-14 52.5-35.58 50.16-64.75-37.33-24.21-90.12-27.12-158.37-9.04 12.54 5.83 24.79 13.42 36.17 22.46z"></path><path d="M1084.47 2643.95c-29.17 0-56.87-4.38-82.25-13.13-45.79-1.46-86.04-14.58-120.17-38.79-.292 0-.292-.293-.583-.293-18.67-13.42-35.58-30.33-50.46-50.46a248.94 248.94 0 0 1-21.29-34.42c-21.58-41.42-30.92-88.96-28-140.58v-.292c.583-12.25 2.04-25.08 4.38-38.21 7.29-44.92 22.17-86.62 44.04-124.54 0-.29.29-.29.29-.582 17.79-30.92 40.83-59.79 68.54-85.75 20.71-19.25 42-35.58 64.17-48.41.292 0 .292-.292.58-.292 43.17-25.08 89.83-38.21 138.25-38.79h2.63c33.83 0 65.04 6.13 92.46 18.08 69.71-17.79 125.41-13.71 165.08 11.96 39.96 25.67 63.87 72.92 71.46 140v.292c2.92 27.12 3.5 58.04 1.17 91.87 0 .584 0 1.17-.292 1.75v.292c-5.54 27.42-7 51.04-4.67 70.58 2.92 23.62 11.37 40.83 25.96 52.5 11.96 9.63 28.29 15.46 48.71 17.79 5.83.583 10.5 4.67 12.25 10.21 9.92 31.5 9.33 56.87-1.17 75.54-9.04 15.46-24.5 25.96-46.37 30.92-2.04.583-4.08.583-5.83 0-34.42-6.42-63-21.58-85.17-45.21-11.38-12.25-21.29-26.83-29.46-43.46-5.54 12.54-11.96 24.79-19.25 36.46-12.83 20.71-28.87 40.54-47.25 58.92a487.29 487.29 0 0 1-17.79 16.92c-.292.29-.584.58-.875.58-51.92 45.5-112.29 68.54-179.08 68.54zm103.83-75.83c-25.96 19.83-52.79 35-80.79 45.5 21.58-2.04 42.29-6.71 62.12-14.29 14-5.25 27.71-12.25 40.83-20.42-7.58-2.33-14.88-6.12-22.17-10.79zm-183.16 33.54h6.42c4.08 0 7.88 0 11.96-.292-19.54-17.5-32.67-41.71-38.79-72.04-16.92-3.21-32.67-9.04-46.96-17.5-16.62 16.04-26.83 36.17-31.5 61.25 28.29 18.08 61.54 27.71 98.87 28.58zm10.21-69.12c8.17 30.63 25.67 51.33 52.79 62.71 27.13-6.42 53.96-18.08 79.33-34.12-19.54-3.79-39.96-15.46-59.5-40.54-21.87 8.17-44.62 12.25-68.25 12.25-1.46-.292-2.92-.292-4.38-.292zm196.58 15.46c16.33 8.17 28.58 5.54 35 3.5 4.96-4.38 9.92-9.33 14.58-14 8.46-8.46 16.33-17.5 23.92-26.54-9.62-1.46-18.96-5.54-27.71-12.25-12.25 15.46-25.67 30.33-40.54 44.33l-.584.58c-.875.88-1.75 1.46-2.63 2.33l-1.46 1.46c0 .292-.292.58-.583.58zm-373.04-49c4.67 8.46 9.92 16.92 15.75 24.79 8.17 11.08 16.63 20.71 25.96 29.46 6.42-23.04 17.21-42.58 32.96-58.91-8.75-7.88-16.92-16.92-24.5-27.13-1.75-2.63-3.79-4.96-5.54-7.58-.291-.292-.291-.583-.583-.583-2.04-3.21-4.08-6.42-5.83-9.63-16.92 11.96-29.46 28.29-38.21 49.58zm276.5 8.75c10.5 11.96 21.29 19.83 32.67 23.33 14 4.38 29.17 2.04 46.37-6.71l2.92-2.92c14.87-14 28.58-29.17 40.25-44.92-3.21.292-6.71.292-9.92.292-16.63-.583-34.13-5.83-52.21-15.75-2.63 2.63-5.25 5.25-8.17 7.88-2.33 2.04-4.38 4.08-6.71 6.13-6.71 5.83-13.71 11.38-20.71 16.33-7.58 6.71-16.04 11.96-24.5 16.33zm298.08-8.75c14.87 11.38 32.08 18.96 52.5 23.33 11.96-3.21 20.12-8.46 24.5-16.33 5.54-9.92 6.12-24.5 1.17-43.46-13.42-2.33-25.67-6.13-36.17-11.67-8.17 18.67-22.17 34.71-42 48.12zm-414.16 2.92c6.42.875 13.42 1.46 20.42 1.46 12.83 0 25.67-1.46 38.21-4.38-42-6.13-76.71-27.12-102.96-62.71-4.08-5.54-7.58-11.08-11.08-16.92-8.46 1.75-20.42 8.17-31.5 30.33 0 .291.29.291.29.583 9.33 12.83 19.83 23.33 31.5 31.5 16.33 10.79 34.71 17.5 55.12 20.12zm275.62-26.83c9.92 7.88 20.42 9.33 32.38 4.96 11.08-18.67 20.13-38.5 26.54-59.21-2.04-8.17-4.08-16.63-5.54-25.67v-.583a464.12 464.12 0 0 1-4.38-30.92c-7.88 31.5-19.54 61.54-35 89.25 0 .291-.291.58-.291.58-4.67 7.29-9.04 14.58-13.71 21.58zm87.79-58.04c7 24.21 16.63 44.62 29.46 60.66 20.42-12.25 33.25-26.83 38.5-44.33-10.21-10.21-18.08-22.75-23.04-37.33-4.67 3.21-9.92 5.54-15.46 7.58-9.33 3.21-20.12 4.96-31.79 4.96.874 2.92 1.46 5.83 2.33 8.46zm-396.95-19.25c3.79 7.29 8.17 14.58 13.13 21.29 26.25 35.29 60.96 52.79 106.46 52.79 13.71 0 27.12-1.75 40.25-4.96 3.5-2.63 7-5.25 10.5-8.17a625.98 625.98 0 0 1-3.79-89.83c.875-28.87 4.38-57.75 9.63-85.46v-.584c7.88-39.96 20.42-78.75 37.33-116.08-2.63-2.63-5.54-5.25-8.46-7.88-20.71-17.79-44.92-27.42-74.37-29.46h-.292c-3.5-.292-7.29-.292-10.79-.292-12.25 0-24.5 1.46-36.17 4.08-9.04 6.13-17.79 13.42-26.25 21.58-39.08 36.75-63 81.67-71.75 133.29a516.89 516.89 0 0 0-.875 7.29v.584c-4.96 38.21 0 72.33 14.88 101.5.291 0 .291 0 .583.29zm-154.87-25.08c-1.46 32.96 2.92 63.87 12.83 92.17 10.79-17.21 24.5-31.5 41.42-42.29-8.75-24.21-12.83-50.75-11.38-79.04-14 3.79-28.29 13.42-42.87 29.17zm384.7 66.21c11.96 5.54 23.04 8.75 33.25 9.04 12.83.291 24.5-3.5 35.58-11.67 16.62-30.04 28.29-63.29 35-98.58-18.38 9.63-37.63 13.71-58.04 11.96a256.57 256.57 0 0 1-10.5 29.75c0 .29-.292.58-.292.58-8.75 21.29-20.71 40.83-35 58.91zm-34.71-53.96c0 15.75.583 31.79 1.75 47.83 12.83-14 23.63-29.46 32.37-45.5l-34.12-2.33zm-276.79-55.71c-4.08 34.12 0 64.75 11.67 91.87 4.67-6.42 9.63-11.96 14.88-16.33 6.42-5.25 13.42-9.33 20.71-11.67-10.79-28.29-14.29-59.5-10.79-93.62-10.79-8.75-20.71-6.13-31.79 1.75a174.44 174.44 0 0 0-3.5 17.79c-.292 2.92-.876 6.42-1.17 10.21 0-.292 0-.292 0 0zm470.74 49.87c29.17 1.75 40.83-9.04 45.79-16.33-1.17-14.58-.875-30.92 1.46-48.71-16.33 4.08-33.83 4.08-51.62 0 0 23.63 1.46 45.5 4.38 65.04zm-192.79-23.33 45.79 3.21c3.5-9.33 6.42-18.96 8.46-28.87v-.292c1.17-5.25 2.33-10.5 3.21-16.04.583-3.21.875-6.42 1.46-9.62l-52.79-2.92c-2.92 17.79-4.96 36.17-6.13 54.54zM847.93 2231.83a338.66 338.66 0 0 0-32.37 98.29c13.71-9.33 27.42-15.17 41.42-16.92 1.46-8.46 3.21-16.63 5.25-24.5 4.38-16.92 10.5-33.25 18.08-48.71-11.38 0-22.17-2.63-32.37-8.17zm400.16 89.25c20.12.583 38.79-6.71 56.58-22.17 2.33-29.75.292-57.75-6.13-83.71-10.5 10.79-26.54 19.83-50.46 23.33 3.21 16.63 4.38 34.42 3.5 53.08v.292c-.584 8.75-1.75 17.79-2.92 26.83v.291c-.292.29-.583 1.17-.583 2.04zm103.83-36.75c19.83 5.54 37.62 4.67 54.54-2.62 1.17-19.83 1.17-38.79.292-56-14 5.25-31.5 6.71-51.91 4.67.583 16.63-.292 34.71-2.92 53.96zm-177.91-11.96 48.71 2.92c-.291-16.04-2.63-31.5-6.71-45.5-3.79-12.83-9.33-25.08-16.33-36.46-10.79 25.38-19.25 51.92-25.67 79.04zm-266.29-7.88c6.13 0 12.25 1.17 18.08 3.79 7.29-33.25 20.71-63.58 39.67-91l-7.88 7c-13.42 12.54-25.08 26.25-35 40.54-8.75 12.54-16.04 25.96-21.88 40.25 2.33-.292 4.67-.583 7-.583zm-45.21-58.04c11.67 6.42 23.92 5.83 38.21-1.17 10.5-14.88 23.04-29.17 36.75-42.29 11.38-10.79 23.33-20.13 35.58-28.29l-10.21-31.5c-14.87 9.92-29.46 21.88-43.75 35-22.17 21-41.12 44.04-56.58 68.25zm345.33-51.63c2.63 3.21 5.54 6.71 8.17 10.21 10.21 14 18.38 29.17 24.5 44.92 32.08-3.5 42.29-17.79 46.37-30.33-6.13-13.71-13.71-27.12-22.46-39.67l-2.63-3.5-.292-.291c-3.21-4.08-6.42-8.46-9.63-12.25-2.92-3.5-6.12-7-9.04-10.21-5.54 13.71-16.33 27.42-36.46 38.79 0 .876.58 1.46 1.46 2.33zm144.08 45.79c23.33 3.21 40.83 1.46 51.92-5.54-5.83-41.71-18.67-73.5-38.5-95.08-4.96 14.58-16.04 29.46-37.04 41.42 11.96 15.75 19.54 35.58 23.62 59.21zm-244.12-99.17c28.58 3.5 53.66 13.42 75.25 30.04 27.13-11.67 33.83-26.54 34.71-38.79-8.75-6.42-18.38-11.96-28-16.33-23.04-10.79-49.58-16.62-78.46-17.5-6.13 15.75-7.58 29.75-3.5 42.58zm-119.58-13.42 10.5 32.08c13.42-6.42 27.12-11.38 41.41-14.58a201.94 201.94 0 0 1 37.33-5.25c-2.33-12.83-1.17-26.25 2.92-40.25-32.08 2.92-62.71 12.25-92.17 28zm282.62 13.71c13.71 4.08 25.96 10.21 36.16 17.79 25.96-11.96 32.08-27.12 32.96-39.37-26.25-14.29-61.54-18.08-104.71-10.79 2.04 1.46 4.08 2.92 5.83 4.37 0 0 .292 0 .292.29 10.5 8.17 20.42 17.5 29.46 27.71z"></path></symbol><symbol id="body" viewBox="0 0 3000 3000"><path fill="#f7e3a2" d="M1011.55 2616.24h-6.42c24.5 8.75 50.75 12.83 79.33 12.83 63.58 0 120.16-21.58 170.04-64.75-22.17 8.17-44.33 3.21-66.5-14.87-38.21 31.21-78.46 51.33-121.04 60.66-18.08 4.08-36.46 6.13-55.41 6.13m8.17-98.29c-7.88 0-15.17-.583-22.46-1.46 6.71 47.83 30.04 79.04 69.42 93.92 42.58-9.33 82.83-29.46 121.04-60.67 4.96-4.38 10.21-8.75 15.17-13.42-42.58 22.75-79.33 11.67-110.25-33.83-23.04 10.21-47.25 15.46-72.92 15.46m131.54-53.37c2.04-2.04 4.37-3.79 6.42-6.13 5.54-4.96 10.5-10.21 15.46-15.46 18.96-21 33.54-43.75 44.33-68.83l-70.58-4.96c-1.17 31.21.292 63 4.38 95.37m-328.41 35.58c11.38-32.67 31.5-56.29 60.37-71.46-13.71-30.04-18.08-63.58-13.71-101.21-24.21-1.46-48.71 11.67-72.92 39.37-2.92 49.29 5.83 93.92 26.25 133.29m113.46-6.71c-25.96 20.71-41.12 49.58-45.79 86.33 32.37 23.04 70.58 35.29 114.62 36.17h6.42c18.96 0 37.33-2.04 55.41-5.83-39.67-14.88-62.71-46.08-69.42-93.92-23.04-2.63-43.46-10.21-61.25-22.75m-40.54-42.29c1.75 2.63 3.5 4.96 5.54 7.58 10.21 14.29 21.88 25.96 35 34.71 17.79 12.25 38.21 20.12 60.96 23.04 7.29.876 14.58 1.46 22.46 1.46 25.38 0 49.87-5.25 73.21-15.17 13.13-5.83 25.96-13.13 38.5-22.17-15.17 4.08-30.63 5.83-46.67 5.83-49.87 0-89.25-19.54-118.12-58.62-5.54-7.58-10.21-15.46-14.29-23.63-24.21-.291-42.87 15.46-56.58 46.96m0 0c-4.67-7.29-8.75-14.88-12.25-22.46-28.87 15.17-49 38.79-60.37 71.46 5.83 11.08 12.54 21.87 20.12 32.37 14 18.96 29.75 34.71 47.25 47.25 4.67-36.75 19.83-65.62 45.79-86.33-13.13-9.04-24.79-20.71-35-34.71-2.04-2.63-3.79-4.96-5.54-7.58m-19.54-158.96c7-27.42 18.67-52.79 34.42-75.83-25.08 13.71-47.83 11.67-67.67-6.13-21 36.46-35.29 76.42-42.29 119.58-2.04 12.54-3.5 24.79-4.08 36.75 24.5-27.71 48.71-40.83 72.92-39.37.291-3.79.875-7.29 1.46-11.08a316.18 316.18 0 0 1 5.25-23.92m59.79 1.46c-17.5-18.96-37.33-19.25-59.79-1.17a316.18 316.18 0 0 0-5.25 23.92c-.583 3.79-1.17 7.29-1.46 11.08-4.38 37.62 0 71.46 13.71 101.21 3.5 7.58 7.58 15.17 12.25 22.46 13.71-31.5 32.67-47.25 56.87-47.25-16.33-32.08-21.87-68.83-16.33-110.25m107.33-174.12c-18.38 4.38-36.17 11.38-53.08 21.58-14.87 8.75-29.17 19.54-42.87 32.67-14 13.42-26.54 27.71-37.04 42.87-15.75 23.04-27.42 48.42-34.42 75.83 22.46-18.08 42.58-17.5 59.79 1.17.292-2.63.584-5.25 1.17-7.88 9.04-55.42 34.42-102.67 75.83-141.75 10.21-9.33 20.42-17.5 30.63-24.5m-53.08 21.58-19.83-60.08c-21 12.54-41.41 28-61.54 46.67-26.54 25.37-48.71 52.79-65.92 82.54 19.83 17.79 42.58 19.83 67.67 6.13 10.5-15.17 22.75-29.46 37.04-42.87 13.71-12.83 28-23.63 42.58-32.38m95.08-26.54c4.08 0 8.17 0 11.96.292-9.92-20.71-8.46-44.33 4.67-70.87-46.38.583-90.12 12.83-131.25 37.04l19.54 60.08c16.92-10.21 34.71-17.21 53.08-21.58 13.71-3.21 27.71-4.96 42-4.96m417.66 334.83c-23.33-2.63-42-9.63-56-21-5.25 28.29-24.79 51.04-58.04 67.96 20.13 21.29 45.79 35 77.29 40.83 39.96-9.04 52.21-38.5 36.75-87.79m-299.83 86.92c1.17-1.46 2.63-2.63 3.79-3.79 18.37-17.21 34.71-35.87 48.71-55.41 7.29-10.21 13.71-20.42 19.83-30.92-28.88 23.04-63 22.17-102.67-2.92-4.96 5.25-9.92 10.5-15.46 15.46-2.04 2.04-4.38 4.08-6.42 6.13-6.42 5.54-12.83 10.79-19.54 15.75-12.54 9.04-25.37 16.62-38.5 22.17 31.21 45.21 67.96 56.29 110.25 33.54m51.33 28c5.83-5.25 11.67-10.79 17.5-16.33 17.5-17.5 32.67-36.46 44.92-56.29-23.04 10.5-43.46 5.83-61.25-14.58-14 19.54-30.33 38.21-48.71 55.41a23.31 23.31 0 0 0-3.79 3.79c-5.25 4.67-10.21 9.04-15.17 13.42 22.17 18.08 44.33 23.04 66.5 14.58m87.79-172.08c1.75 10.21 3.79 19.83 6.42 28.58 8.75 31.21 22.17 56.29 40.25 75.25 33.54-16.92 52.79-39.67 58.04-67.96-17.5-14-27.71-34.71-31.21-61.83-13.42 22.75-37.92 31.5-73.5 25.96m78.17-101.21c-25.67 14.29-53.66 15.17-84.58 3.21-.875 36.75 1.17 69.42 6.13 98 35.58 5.25 60.08-3.21 73.5-25.96-2.33-21-.583-46.08 4.96-75.25m-81.67-77.87c37.92 7.29 64.75 3.21 80.5-11.96-7-63-28.58-106.16-64.75-129.5 2.33 29.46-14.29 51.04-49.87 64.46 18.96 17.5 30.33 43.17 34.12 77m-23.33 116.96c1.46-8.17 2.33-16.33 3.21-24.5-26.54 25.37-56 34.71-88.08 28-3.21 14.29-7.58 27.71-13.13 40.83-10.79 25.08-25.37 47.83-44.33 68.83 39.37 25.08 73.5 25.96 102.67 2.92 19.54-35.58 32.96-74.08 39.67-116.08m23.92-111.42c1.75 21.88.583 46.96-3.5 75.54 30.92 11.96 58.91 11.08 84.58-3.21 2.04-33.54 1.75-63.29-1.17-89.83-15.75 15.17-42.58 19.25-80.5 11.96.292 1.75.584 3.79.584 5.54m-105.29 97.42c1.46-8.75 2.33-17.21 2.92-25.67l-80.79-4.67c-5.25 27.13-8.46 55.12-9.33 83.42l70.58 4.96c5.54-13.12 9.92-26.54 13.13-40.83 1.46-5.54 2.63-11.38 3.5-17.21m-4.08-90.71c5.83 20.13 8.17 41.71 7 65.04-.584 8.46-1.46 16.92-2.92 25.67-.875 5.83-2.04 11.67-3.5 17.21 32.08 6.71 61.54-2.33 88.08-28 4.38-46.66-1.17-88.67-16.92-126.58-7 29.75-30.92 45.21-71.75 46.66m-25.96-51.62a117.57 117.57 0 0 0-7.58-9.33c-18.67 39.08-32.08 79.62-40.54 121.62l80.79 4.67c1.17-23.33-1.17-45.21-7-65.04-5.25-18.96-14-36.17-25.67-51.92m100.62-37.33c-11.38-10.21-25.37-17.5-42-21.88l10.5 13.13c.876 1.17 2.04 2.63 2.92 3.79 10.5 14.88 19.25 30.63 25.96 47.25 15.46 37.91 21 80.21 16.92 126.58-.875 8.17-1.75 16.33-3.21 24.5-6.71 42-20.12 80.5-39.96 116.08-6.13 10.5-12.54 21-19.83 30.92 17.79 20.42 38.21 25.08 61.25 14.58 13.71-22.17 24.21-45.5 31.5-70.58-2.63-9.04-4.67-18.67-6.42-28.58-5.25-28.58-7.29-61.25-6.13-98 4.08-28.58 5.25-53.66 3.5-75.54-.291-1.75-.291-3.79-.583-5.54-4.08-33.83-15.46-59.5-34.42-76.71m-72.33-51.04c-11.38-9.04-23.62-16.33-36.46-22.17-26.83-12.83-57.46-19.25-91.29-19.25h-2.62c-13.13 26.54-14.58 50.17-4.67 70.87 32.37 2.04 60.08 13.12 82.83 32.96 36.17-12.83 53.66-33.54 52.21-62.41m30.33 29.17c-9.33-11.08-19.25-20.71-30.04-29.46 1.17 28.88-16.04 49.87-52.21 62.71 5.83 4.96 11.08 10.21 16.33 16.33 2.63 2.92 4.96 6.13 7.58 9.33 11.67 16.04 20.42 33.25 25.96 51.62 40.83-1.46 64.75-16.92 72.04-46.67-6.71-16.63-15.46-32.38-25.96-47.25-.875-1.46-2.04-2.62-2.92-3.79-3.79-4.08-7.29-8.46-10.79-12.83m-30.33-29.17c10.79 8.46 20.71 18.38 30.04 29.46 16.63 4.38 30.63 11.67 42 21.87 35.87-14 52.5-35.58 50.16-64.75-37.33-24.21-90.12-27.12-158.37-9.04 12.54 5.83 24.79 13.42 36.17 22.46z"></path><path d="M1084.47 2643.95c-29.17 0-56.87-4.38-82.25-13.13-45.79-1.46-86.04-14.58-120.17-38.79-.292 0-.292-.293-.583-.293-18.67-13.42-35.58-30.33-50.46-50.46a248.94 248.94 0 0 1-21.29-34.42c-21.58-41.42-30.92-88.96-28-140.58v-.292c.583-12.25 2.04-25.08 4.38-38.21 7.29-44.92 22.17-86.62 44.04-124.54 0-.29.29-.29.29-.582 17.79-30.92 40.83-59.79 68.54-85.75 20.71-19.25 42-35.58 64.17-48.41.292 0 .292-.292.58-.292 43.17-25.08 89.83-38.21 138.25-38.79h2.63c33.83 0 65.04 6.13 92.46 18.08 69.71-17.79 125.41-13.71 165.08 11.96 39.96 25.67 63.87 72.92 71.46 140v.292c2.92 27.12 3.5 58.04 1.17 91.87 0 .584 0 1.17-.292 1.75v.292c-5.54 27.42-7 51.04-4.67 70.58 2.92 23.62 11.37 40.83 25.96 52.5 11.96 9.63 28.29 15.46 48.71 17.79 5.83.583 10.5 4.67 12.25 10.21 9.92 31.5 9.33 56.87-1.17 75.54-9.04 15.46-24.5 25.96-46.37 30.92-2.04.583-4.08.583-5.83 0-34.42-6.42-63-21.58-85.17-45.21-11.38-12.25-21.29-26.83-29.46-43.46-5.54 12.54-11.96 24.79-19.25 36.46-12.83 20.71-28.87 40.54-47.25 58.92a487.29 487.29 0 0 1-17.79 16.92c-.292.29-.584.58-.875.58-51.92 45.5-112.29 68.54-179.08 68.54zm103.83-75.83c-25.96 19.83-52.79 35-80.79 45.5 21.58-2.04 42.29-6.71 62.12-14.29 14-5.25 27.71-12.25 40.83-20.42-7.58-2.33-14.88-6.12-22.17-10.79zm-183.16 33.54h6.42c4.08 0 7.88 0 11.96-.292-19.54-17.5-32.67-41.71-38.79-72.04-16.92-3.21-32.67-9.04-46.96-17.5-16.62 16.04-26.83 36.17-31.5 61.25 28.29 18.08 61.54 27.71 98.87 28.58zm10.21-69.12c8.17 30.63 25.67 51.33 52.79 62.71 27.13-6.42 53.96-18.08 79.33-34.12-19.54-3.79-39.96-15.46-59.5-40.54-21.87 8.17-44.62 12.25-68.25 12.25-1.46-.292-2.92-.292-4.38-.292zm196.58 15.46c16.33 8.17 28.58 5.54 35 3.5 4.96-4.38 9.92-9.33 14.58-14 8.46-8.46 16.33-17.5 23.92-26.54-9.62-1.46-18.96-5.54-27.71-12.25-12.25 15.46-25.67 30.33-40.54 44.33l-.584.58c-.875.88-1.75 1.46-2.63 2.33l-1.46 1.46c0 .292-.292.58-.583.58zm-373.04-49c4.67 8.46 9.92 16.92 15.75 24.79 8.17 11.08 16.63 20.71 25.96 29.46 6.42-23.04 17.21-42.58 32.96-58.91-8.75-7.88-16.92-16.92-24.5-27.13-1.75-2.63-3.79-4.96-5.54-7.58-.291-.292-.291-.583-.583-.583-2.04-3.21-4.08-6.42-5.83-9.63-16.92 11.96-29.46 28.29-38.21 49.58zm276.5 8.75c10.5 11.96 21.29 19.83 32.67 23.33 14 4.38 29.17 2.04 46.37-6.71l2.92-2.92c14.87-14 28.58-29.17 40.25-44.92-3.21.292-6.71.292-9.92.292-16.63-.583-34.13-5.83-52.21-15.75-2.63 2.63-5.25 5.25-8.17 7.88-2.33 2.04-4.38 4.08-6.71 6.13-6.71 5.83-13.71 11.38-20.71 16.33-7.58 6.71-16.04 11.96-24.5 16.33zm298.08-8.75c14.87 11.38 32.08 18.96 52.5 23.33 11.96-3.21 20.12-8.46 24.5-16.33 5.54-9.92 6.12-24.5 1.17-43.46-13.42-2.33-25.67-6.13-36.17-11.67-8.17 18.67-22.17 34.71-42 48.12zm-414.16 2.92c6.42.875 13.42 1.46 20.42 1.46 12.83 0 25.67-1.46 38.21-4.38-42-6.13-76.71-27.12-102.96-62.71-4.08-5.54-7.58-11.08-11.08-16.92-8.46 1.75-20.42 8.17-31.5 30.33 0 .291.29.291.29.583 9.33 12.83 19.83 23.33 31.5 31.5 16.33 10.79 34.71 17.5 55.12 20.12zm275.62-26.83c9.92 7.88 20.42 9.33 32.38 4.96 11.08-18.67 20.13-38.5 26.54-59.21-2.04-8.17-4.08-16.63-5.54-25.67v-.583a464.12 464.12 0 0 1-4.38-30.92c-7.88 31.5-19.54 61.54-35 89.25 0 .291-.291.58-.291.58-4.67 7.29-9.04 14.58-13.71 21.58zm87.79-58.04c7 24.21 16.63 44.62 29.46 60.66 20.42-12.25 33.25-26.83 38.5-44.33-10.21-10.21-18.08-22.75-23.04-37.33-4.67 3.21-9.92 5.54-15.46 7.58-9.33 3.21-20.12 4.96-31.79 4.96.874 2.92 1.46 5.83 2.33 8.46zm-396.95-19.25c3.79 7.29 8.17 14.58 13.13 21.29 26.25 35.29 60.96 52.79 106.46 52.79 13.71 0 27.12-1.75 40.25-4.96 3.5-2.63 7-5.25 10.5-8.17a625.98 625.98 0 0 1-3.79-89.83c.875-28.87 4.38-57.75 9.63-85.46v-.584c7.88-39.96 20.42-78.75 37.33-116.08-2.63-2.63-5.54-5.25-8.46-7.88-20.71-17.79-44.92-27.42-74.37-29.46h-.292c-3.5-.292-7.29-.292-10.79-.292-12.25 0-24.5 1.46-36.17 4.08-9.04 6.13-17.79 13.42-26.25 21.58-39.08 36.75-63 81.67-71.75 133.29a516.89 516.89 0 0 0-.875 7.29v.584c-4.96 38.21 0 72.33 14.88 101.5.291 0 .291 0 .583.29zm-154.87-25.08c-1.46 32.96 2.92 63.87 12.83 92.17 10.79-17.21 24.5-31.5 41.42-42.29-8.75-24.21-12.83-50.75-11.38-79.04-14 3.79-28.29 13.42-42.87 29.17zm384.7 66.21c11.96 5.54 23.04 8.75 33.25 9.04 12.83.291 24.5-3.5 35.58-11.67 16.62-30.04 28.29-63.29 35-98.58-18.38 9.63-37.63 13.71-58.04 11.96a256.57 256.57 0 0 1-10.5 29.75c0 .29-.292.58-.292.58-8.75 21.29-20.71 40.83-35 58.91zm-34.71-53.96c0 15.75.583 31.79 1.75 47.83 12.83-14 23.63-29.46 32.37-45.5l-34.12-2.33zm-276.79-55.71c-4.08 34.12 0 64.75 11.67 91.87 4.67-6.42 9.63-11.96 14.88-16.33 6.42-5.25 13.42-9.33 20.71-11.67-10.79-28.29-14.29-59.5-10.79-93.62-10.79-8.75-20.71-6.13-31.79 1.75a174.44 174.44 0 0 0-3.5 17.79c-.292 2.92-.876 6.42-1.17 10.21 0-.292 0-.292 0 0zm470.74 49.87c29.17 1.75 40.83-9.04 45.79-16.33-1.17-14.58-.875-30.92 1.46-48.71-16.33 4.08-33.83 4.08-51.62 0 0 23.63 1.46 45.5 4.38 65.04zm-192.79-23.33 45.79 3.21c3.5-9.33 6.42-18.96 8.46-28.87v-.292c1.17-5.25 2.33-10.5 3.21-16.04.583-3.21.875-6.42 1.46-9.62l-52.79-2.92c-2.92 17.79-4.96 36.17-6.13 54.54zM847.93 2231.83a338.66 338.66 0 0 0-32.37 98.29c13.71-9.33 27.42-15.17 41.42-16.92 1.46-8.46 3.21-16.63 5.25-24.5 4.38-16.92 10.5-33.25 18.08-48.71-11.38 0-22.17-2.63-32.37-8.17zm400.16 89.25c20.12.583 38.79-6.71 56.58-22.17 2.33-29.75.292-57.75-6.13-83.71-10.5 10.79-26.54 19.83-50.46 23.33 3.21 16.63 4.38 34.42 3.5 53.08v.292c-.584 8.75-1.75 17.79-2.92 26.83v.291c-.292.29-.583 1.17-.583 2.04zm103.83-36.75c19.83 5.54 37.62 4.67 54.54-2.62 1.17-19.83 1.17-38.79.292-56-14 5.25-31.5 6.71-51.91 4.67.583 16.63-.292 34.71-2.92 53.96zm-177.91-11.96 48.71 2.92c-.291-16.04-2.63-31.5-6.71-45.5-3.79-12.83-9.33-25.08-16.33-36.46-10.79 25.38-19.25 51.92-25.67 79.04zm-266.29-7.88c6.13 0 12.25 1.17 18.08 3.79 7.29-33.25 20.71-63.58 39.67-91l-7.88 7c-13.42 12.54-25.08 26.25-35 40.54-8.75 12.54-16.04 25.96-21.88 40.25 2.33-.292 4.67-.583 7-.583zm-45.21-58.04c11.67 6.42 23.92 5.83 38.21-1.17 10.5-14.88 23.04-29.17 36.75-42.29 11.38-10.79 23.33-20.13 35.58-28.29l-10.21-31.5c-14.87 9.92-29.46 21.88-43.75 35-22.17 21-41.12 44.04-56.58 68.25zm345.33-51.63c2.63 3.21 5.54 6.71 8.17 10.21 10.21 14 18.38 29.17 24.5 44.92 32.08-3.5 42.29-17.79 46.37-30.33-6.13-13.71-13.71-27.12-22.46-39.67l-2.63-3.5-.292-.291c-3.21-4.08-6.42-8.46-9.63-12.25-2.92-3.5-6.12-7-9.04-10.21-5.54 13.71-16.33 27.42-36.46 38.79 0 .876.58 1.46 1.46 2.33zm144.08 45.79c23.33 3.21 40.83 1.46 51.92-5.54-5.83-41.71-18.67-73.5-38.5-95.08-4.96 14.58-16.04 29.46-37.04 41.42 11.96 15.75 19.54 35.58 23.62 59.21zm-244.12-99.17c28.58 3.5 53.66 13.42 75.25 30.04 27.13-11.67 33.83-26.54 34.71-38.79-8.75-6.42-18.38-11.96-28-16.33-23.04-10.79-49.58-16.62-78.46-17.5-6.13 15.75-7.58 29.75-3.5 42.58zm-119.58-13.42 10.5 32.08c13.42-6.42 27.12-11.38 41.41-14.58a201.94 201.94 0 0 1 37.33-5.25c-2.33-12.83-1.17-26.25 2.92-40.25-32.08 2.92-62.71 12.25-92.17 28zm282.62 13.71c13.71 4.08 25.96 10.21 36.16 17.79 25.96-11.96 32.08-27.12 32.96-39.37-26.25-14.29-61.54-18.08-104.71-10.79 2.04 1.46 4.08 2.92 5.83 4.37 0 0 .292 0 .292.29 10.5 8.17 20.42 17.5 29.46 27.71z"></path></symbol><symbol id="left" viewBox="0 0 3000 3000"><path fill="#f7e3a2" d="M1011.55 2616.24h-6.42c24.5 8.75 50.75 12.83 79.33 12.83 63.58 0 120.16-21.58 170.04-64.75-22.17 8.17-44.33 3.21-66.5-14.87-38.21 31.21-78.46 51.33-121.04 60.66-18.08 4.08-36.46 6.13-55.41 6.13m8.17-98.29c-7.88 0-15.17-.583-22.46-1.46 6.71 47.83 30.04 79.04 69.42 93.92 42.58-9.33 82.83-29.46 121.04-60.67 4.96-4.38 10.21-8.75 15.17-13.42-42.58 22.75-79.33 11.67-110.25-33.83-23.04 10.21-47.25 15.46-72.92 15.46m131.54-53.37c2.04-2.04 4.37-3.79 6.42-6.13 5.54-4.96 10.5-10.21 15.46-15.46 18.96-21 33.54-43.75 44.33-68.83l-70.58-4.96c-1.17 31.21.292 63 4.38 95.37m-328.41 35.58c11.38-32.67 31.5-56.29 60.37-71.46-13.71-30.04-18.08-63.58-13.71-101.21-24.21-1.46-48.71 11.67-72.92 39.37-2.92 49.29 5.83 93.92 26.25 133.29m113.46-6.71c-25.96 20.71-41.12 49.58-45.79 86.33 32.37 23.04 70.58 35.29 114.62 36.17h6.42c18.96 0 37.33-2.04 55.41-5.83-39.67-14.88-62.71-46.08-69.42-93.92-23.04-2.63-43.46-10.21-61.25-22.75m-40.54-42.29c1.75 2.63 3.5 4.96 5.54 7.58 10.21 14.29 21.88 25.96 35 34.71 17.79 12.25 38.21 20.12 60.96 23.04 7.29.876 14.58 1.46 22.46 1.46 25.38 0 49.87-5.25 73.21-15.17 13.13-5.83 25.96-13.13 38.5-22.17-15.17 4.08-30.63 5.83-46.67 5.83-49.87 0-89.25-19.54-118.12-58.62-5.54-7.58-10.21-15.46-14.29-23.63-24.21-.291-42.87 15.46-56.58 46.96m0 0c-4.67-7.29-8.75-14.88-12.25-22.46-28.87 15.17-49 38.79-60.37 71.46 5.83 11.08 12.54 21.87 20.12 32.37 14 18.96 29.75 34.71 47.25 47.25 4.67-36.75 19.83-65.62 45.79-86.33-13.13-9.04-24.79-20.71-35-34.71-2.04-2.63-3.79-4.96-5.54-7.58m-19.54-158.96c7-27.42 18.67-52.79 34.42-75.83-25.08 13.71-47.83 11.67-67.67-6.13-21 36.46-35.29 76.42-42.29 119.58-2.04 12.54-3.5 24.79-4.08 36.75 24.5-27.71 48.71-40.83 72.92-39.37.291-3.79.875-7.29 1.46-11.08a316.18 316.18 0 0 1 5.25-23.92m59.79 1.46c-17.5-18.96-37.33-19.25-59.79-1.17a316.18 316.18 0 0 0-5.25 23.92c-.583 3.79-1.17 7.29-1.46 11.08-4.38 37.62 0 71.46 13.71 101.21 3.5 7.58 7.58 15.17 12.25 22.46 13.71-31.5 32.67-47.25 56.87-47.25-16.33-32.08-21.87-68.83-16.33-110.25m107.33-174.12c-18.38 4.38-36.17 11.38-53.08 21.58-14.87 8.75-29.17 19.54-42.87 32.67-14 13.42-26.54 27.71-37.04 42.87-15.75 23.04-27.42 48.42-34.42 75.83 22.46-18.08 42.58-17.5 59.79 1.17.292-2.63.584-5.25 1.17-7.88 9.04-55.42 34.42-102.67 75.83-141.75 10.21-9.33 20.42-17.5 30.63-24.5m-53.08 21.58-19.83-60.08c-21 12.54-41.41 28-61.54 46.67-26.54 25.37-48.71 52.79-65.92 82.54 19.83 17.79 42.58 19.83 67.67 6.13 10.5-15.17 22.75-29.46 37.04-42.87 13.71-12.83 28-23.63 42.58-32.38m95.08-26.54c4.08 0 8.17 0 11.96.292-9.92-20.71-8.46-44.33 4.67-70.87-46.38.583-90.12 12.83-131.25 37.04l19.54 60.08c16.92-10.21 34.71-17.21 53.08-21.58 13.71-3.21 27.71-4.96 42-4.96m417.66 334.83c-23.33-2.63-42-9.63-56-21-5.25 28.29-24.79 51.04-58.04 67.96 20.13 21.29 45.79 35 77.29 40.83 39.96-9.04 52.21-38.5 36.75-87.79m-299.83 86.92c1.17-1.46 2.63-2.63 3.79-3.79 18.37-17.21 34.71-35.87 48.71-55.41 7.29-10.21 13.71-20.42 19.83-30.92-28.88 23.04-63 22.17-102.67-2.92-4.96 5.25-9.92 10.5-15.46 15.46-2.04 2.04-4.38 4.08-6.42 6.13-6.42 5.54-12.83 10.79-19.54 15.75-12.54 9.04-25.37 16.62-38.5 22.17 31.21 45.21 67.96 56.29 110.25 33.54m51.33 28c5.83-5.25 11.67-10.79 17.5-16.33 17.5-17.5 32.67-36.46 44.92-56.29-23.04 10.5-43.46 5.83-61.25-14.58-14 19.54-30.33 38.21-48.71 55.41a23.31 23.31 0 0 0-3.79 3.79c-5.25 4.67-10.21 9.04-15.17 13.42 22.17 18.08 44.33 23.04 66.5 14.58m87.79-172.08c1.75 10.21 3.79 19.83 6.42 28.58 8.75 31.21 22.17 56.29 40.25 75.25 33.54-16.92 52.79-39.67 58.04-67.96-17.5-14-27.71-34.71-31.21-61.83-13.42 22.75-37.92 31.5-73.5 25.96m78.17-101.21c-25.67 14.29-53.66 15.17-84.58 3.21-.875 36.75 1.17 69.42 6.13 98 35.58 5.25 60.08-3.21 73.5-25.96-2.33-21-.583-46.08 4.96-75.25m-81.67-77.87c37.92 7.29 64.75 3.21 80.5-11.96-7-63-28.58-106.16-64.75-129.5 2.33 29.46-14.29 51.04-49.87 64.46 18.96 17.5 30.33 43.17 34.12 77m-23.33 116.96c1.46-8.17 2.33-16.33 3.21-24.5-26.54 25.37-56 34.71-88.08 28-3.21 14.29-7.58 27.71-13.13 40.83-10.79 25.08-25.37 47.83-44.33 68.83 39.37 25.08 73.5 25.96 102.67 2.92 19.54-35.58 32.96-74.08 39.67-116.08m23.92-111.42c1.75 21.88.583 46.96-3.5 75.54 30.92 11.96 58.91 11.08 84.58-3.21 2.04-33.54 1.75-63.29-1.17-89.83-15.75 15.17-42.58 19.25-80.5 11.96.292 1.75.584 3.79.584 5.54m-105.29 97.42c1.46-8.75 2.33-17.21 2.92-25.67l-80.79-4.67c-5.25 27.13-8.46 55.12-9.33 83.42l70.58 4.96c5.54-13.12 9.92-26.54 13.13-40.83 1.46-5.54 2.63-11.38 3.5-17.21m-4.08-90.71c5.83 20.13 8.17 41.71 7 65.04-.584 8.46-1.46 16.92-2.92 25.67-.875 5.83-2.04 11.67-3.5 17.21 32.08 6.71 61.54-2.33 88.08-28 4.38-46.66-1.17-88.67-16.92-126.58-7 29.75-30.92 45.21-71.75 46.66m-25.96-51.62a117.57 117.57 0 0 0-7.58-9.33c-18.67 39.08-32.08 79.62-40.54 121.62l80.79 4.67c1.17-23.33-1.17-45.21-7-65.04-5.25-18.96-14-36.17-25.67-51.92m100.62-37.33c-11.38-10.21-25.37-17.5-42-21.88l10.5 13.13c.876 1.17 2.04 2.63 2.92 3.79 10.5 14.88 19.25 30.63 25.96 47.25 15.46 37.91 21 80.21 16.92 126.58-.875 8.17-1.75 16.33-3.21 24.5-6.71 42-20.12 80.5-39.96 116.08-6.13 10.5-12.54 21-19.83 30.92 17.79 20.42 38.21 25.08 61.25 14.58 13.71-22.17 24.21-45.5 31.5-70.58-2.63-9.04-4.67-18.67-6.42-28.58-5.25-28.58-7.29-61.25-6.13-98 4.08-28.58 5.25-53.66 3.5-75.54-.291-1.75-.291-3.79-.583-5.54-4.08-33.83-15.46-59.5-34.42-76.71m-72.33-51.04c-11.38-9.04-23.62-16.33-36.46-22.17-26.83-12.83-57.46-19.25-91.29-19.25h-2.62c-13.13 26.54-14.58 50.17-4.67 70.87 32.37 2.04 60.08 13.12 82.83 32.96 36.17-12.83 53.66-33.54 52.21-62.41m30.33 29.17c-9.33-11.08-19.25-20.71-30.04-29.46 1.17 28.88-16.04 49.87-52.21 62.71 5.83 4.96 11.08 10.21 16.33 16.33 2.63 2.92 4.96 6.13 7.58 9.33 11.67 16.04 20.42 33.25 25.96 51.62 40.83-1.46 64.75-16.92 72.04-46.67-6.71-16.63-15.46-32.38-25.96-47.25-.875-1.46-2.04-2.62-2.92-3.79-3.79-4.08-7.29-8.46-10.79-12.83m-30.33-29.17c10.79 8.46 20.71 18.38 30.04 29.46 16.63 4.38 30.63 11.67 42 21.87 35.87-14 52.5-35.58 50.16-64.75-37.33-24.21-90.12-27.12-158.37-9.04 12.54 5.83 24.79 13.42 36.17 22.46z"></path><path d="M1084.47 2643.95c-29.17 0-56.87-4.38-82.25-13.13-45.79-1.46-86.04-14.58-120.17-38.79-.292 0-.292-.293-.583-.293-18.67-13.42-35.58-30.33-50.46-50.46a248.94 248.94 0 0 1-21.29-34.42c-21.58-41.42-30.92-88.96-28-140.58v-.292c.583-12.25 2.04-25.08 4.38-38.21 7.29-44.92 22.17-86.62 44.04-124.54 0-.29.29-.29.29-.582 17.79-30.92 40.83-59.79 68.54-85.75 20.71-19.25 42-35.58 64.17-48.41.292 0 .292-.292.58-.292 43.17-25.08 89.83-38.21 138.25-38.79h2.63c33.83 0 65.04 6.13 92.46 18.08 69.71-17.79 125.41-13.71 165.08 11.96 39.96 25.67 63.87 72.92 71.46 140v.292c2.92 27.12 3.5 58.04 1.17 91.87 0 .584 0 1.17-.292 1.75v.292c-5.54 27.42-7 51.04-4.67 70.58 2.92 23.62 11.37 40.83 25.96 52.5 11.96 9.63 28.29 15.46 48.71 17.79 5.83.583 10.5 4.67 12.25 10.21 9.92 31.5 9.33 56.87-1.17 75.54-9.04 15.46-24.5 25.96-46.37 30.92-2.04.583-4.08.583-5.83 0-34.42-6.42-63-21.58-85.17-45.21-11.38-12.25-21.29-26.83-29.46-43.46-5.54 12.54-11.96 24.79-19.25 36.46-12.83 20.71-28.87 40.54-47.25 58.92a487.29 487.29 0 0 1-17.79 16.92c-.292.29-.584.58-.875.58-51.92 45.5-112.29 68.54-179.08 68.54zm103.83-75.83c-25.96 19.83-52.79 35-80.79 45.5 21.58-2.04 42.29-6.71 62.12-14.29 14-5.25 27.71-12.25 40.83-20.42-7.58-2.33-14.88-6.12-22.17-10.79zm-183.16 33.54h6.42c4.08 0 7.88 0 11.96-.292-19.54-17.5-32.67-41.71-38.79-72.04-16.92-3.21-32.67-9.04-46.96-17.5-16.62 16.04-26.83 36.17-31.5 61.25 28.29 18.08 61.54 27.71 98.87 28.58zm10.21-69.12c8.17 30.63 25.67 51.33 52.79 62.71 27.13-6.42 53.96-18.08 79.33-34.12-19.54-3.79-39.96-15.46-59.5-40.54-21.87 8.17-44.62 12.25-68.25 12.25-1.46-.292-2.92-.292-4.38-.292zm196.58 15.46c16.33 8.17 28.58 5.54 35 3.5 4.96-4.38 9.92-9.33 14.58-14 8.46-8.46 16.33-17.5 23.92-26.54-9.62-1.46-18.96-5.54-27.71-12.25-12.25 15.46-25.67 30.33-40.54 44.33l-.584.58c-.875.88-1.75 1.46-2.63 2.33l-1.46 1.46c0 .292-.292.58-.583.58zm-373.04-49c4.67 8.46 9.92 16.92 15.75 24.79 8.17 11.08 16.63 20.71 25.96 29.46 6.42-23.04 17.21-42.58 32.96-58.91-8.75-7.88-16.92-16.92-24.5-27.13-1.75-2.63-3.79-4.96-5.54-7.58-.291-.292-.291-.583-.583-.583-2.04-3.21-4.08-6.42-5.83-9.63-16.92 11.96-29.46 28.29-38.21 49.58zm276.5 8.75c10.5 11.96 21.29 19.83 32.67 23.33 14 4.38 29.17 2.04 46.37-6.71l2.92-2.92c14.87-14 28.58-29.17 40.25-44.92-3.21.292-6.71.292-9.92.292-16.63-.583-34.13-5.83-52.21-15.75-2.63 2.63-5.25 5.25-8.17 7.88-2.33 2.04-4.38 4.08-6.71 6.13-6.71 5.83-13.71 11.38-20.71 16.33-7.58 6.71-16.04 11.96-24.5 16.33zm298.08-8.75c14.87 11.38 32.08 18.96 52.5 23.33 11.96-3.21 20.12-8.46 24.5-16.33 5.54-9.92 6.12-24.5 1.17-43.46-13.42-2.33-25.67-6.13-36.17-11.67-8.17 18.67-22.17 34.71-42 48.12zm-414.16 2.92c6.42.875 13.42 1.46 20.42 1.46 12.83 0 25.67-1.46 38.21-4.38-42-6.13-76.71-27.12-102.96-62.71-4.08-5.54-7.58-11.08-11.08-16.92-8.46 1.75-20.42 8.17-31.5 30.33 0 .291.29.291.29.583 9.33 12.83 19.83 23.33 31.5 31.5 16.33 10.79 34.71 17.5 55.12 20.12zm275.62-26.83c9.92 7.88 20.42 9.33 32.38 4.96 11.08-18.67 20.13-38.5 26.54-59.21-2.04-8.17-4.08-16.63-5.54-25.67v-.583a464.12 464.12 0 0 1-4.38-30.92c-7.88 31.5-19.54 61.54-35 89.25 0 .291-.291.58-.291.58-4.67 7.29-9.04 14.58-13.71 21.58zm87.79-58.04c7 24.21 16.63 44.62 29.46 60.66 20.42-12.25 33.25-26.83 38.5-44.33-10.21-10.21-18.08-22.75-23.04-37.33-4.67 3.21-9.92 5.54-15.46 7.58-9.33 3.21-20.12 4.96-31.79 4.96.874 2.92 1.46 5.83 2.33 8.46zm-396.95-19.25c3.79 7.29 8.17 14.58 13.13 21.29 26.25 35.29 60.96 52.79 106.46 52.79 13.71 0 27.12-1.75 40.25-4.96 3.5-2.63 7-5.25 10.5-8.17a625.98 625.98 0 0 1-3.79-89.83c.875-28.87 4.38-57.75 9.63-85.46v-.584c7.88-39.96 20.42-78.75 37.33-116.08-2.63-2.63-5.54-5.25-8.46-7.88-20.71-17.79-44.92-27.42-74.37-29.46h-.292c-3.5-.292-7.29-.292-10.79-.292-12.25 0-24.5 1.46-36.17 4.08-9.04 6.13-17.79 13.42-26.25 21.58-39.08 36.75-63 81.67-71.75 133.29a516.89 516.89 0 0 0-.875 7.29v.584c-4.96 38.21 0 72.33 14.88 101.5.291 0 .291 0 .583.29zm-154.87-25.08c-1.46 32.96 2.92 63.87 12.83 92.17 10.79-17.21 24.5-31.5 41.42-42.29-8.75-24.21-12.83-50.75-11.38-79.04-14 3.79-28.29 13.42-42.87 29.17zm384.7 66.21c11.96 5.54 23.04 8.75 33.25 9.04 12.83.291 24.5-3.5 35.58-11.67 16.62-30.04 28.29-63.29 35-98.58-18.38 9.63-37.63 13.71-58.04 11.96a256.57 256.57 0 0 1-10.5 29.75c0 .29-.292.58-.292.58-8.75 21.29-20.71 40.83-35 58.91zm-34.71-53.96c0 15.75.583 31.79 1.75 47.83 12.83-14 23.63-29.46 32.37-45.5l-34.12-2.33zm-276.79-55.71c-4.08 34.12 0 64.75 11.67 91.87 4.67-6.42 9.63-11.96 14.88-16.33 6.42-5.25 13.42-9.33 20.71-11.67-10.79-28.29-14.29-59.5-10.79-93.62-10.79-8.75-20.71-6.13-31.79 1.75a174.44 174.44 0 0 0-3.5 17.79c-.292 2.92-.876 6.42-1.17 10.21 0-.292 0-.292 0 0zm470.74 49.87c29.17 1.75 40.83-9.04 45.79-16.33-1.17-14.58-.875-30.92 1.46-48.71-16.33 4.08-33.83 4.08-51.62 0 0 23.63 1.46 45.5 4.38 65.04zm-192.79-23.33 45.79 3.21c3.5-9.33 6.42-18.96 8.46-28.87v-.292c1.17-5.25 2.33-10.5 3.21-16.04.583-3.21.875-6.42 1.46-9.62l-52.79-2.92c-2.92 17.79-4.96 36.17-6.13 54.54zM847.93 2231.83a338.66 338.66 0 0 0-32.37 98.29c13.71-9.33 27.42-15.17 41.42-16.92 1.46-8.46 3.21-16.63 5.25-24.5 4.38-16.92 10.5-33.25 18.08-48.71-11.38 0-22.17-2.63-32.37-8.17zm400.16 89.25c20.12.583 38.79-6.71 56.58-22.17 2.33-29.75.292-57.75-6.13-83.71-10.5 10.79-26.54 19.83-50.46 23.33 3.21 16.63 4.38 34.42 3.5 53.08v.292c-.584 8.75-1.75 17.79-2.92 26.83v.291c-.292.29-.583 1.17-.583 2.04zm103.83-36.75c19.83 5.54 37.62 4.67 54.54-2.62 1.17-19.83 1.17-38.79.292-56-14 5.25-31.5 6.71-51.91 4.67.583 16.63-.292 34.71-2.92 53.96zm-177.91-11.96 48.71 2.92c-.291-16.04-2.63-31.5-6.71-45.5-3.79-12.83-9.33-25.08-16.33-36.46-10.79 25.38-19.25 51.92-25.67 79.04zm-266.29-7.88c6.13 0 12.25 1.17 18.08 3.79 7.29-33.25 20.71-63.58 39.67-91l-7.88 7c-13.42 12.54-25.08 26.25-35 40.54-8.75 12.54-16.04 25.96-21.88 40.25 2.33-.292 4.67-.583 7-.583zm-45.21-58.04c11.67 6.42 23.92 5.83 38.21-1.17 10.5-14.88 23.04-29.17 36.75-42.29 11.38-10.79 23.33-20.13 35.58-28.29l-10.21-31.5c-14.87 9.92-29.46 21.88-43.75 35-22.17 21-41.12 44.04-56.58 68.25zm345.33-51.63c2.63 3.21 5.54 6.71 8.17 10.21 10.21 14 18.38 29.17 24.5 44.92 32.08-3.5 42.29-17.79 46.37-30.33-6.13-13.71-13.71-27.12-22.46-39.67l-2.63-3.5-.292-.291c-3.21-4.08-6.42-8.46-9.63-12.25-2.92-3.5-6.12-7-9.04-10.21-5.54 13.71-16.33 27.42-36.46 38.79 0 .876.58 1.46 1.46 2.33zm144.08 45.79c23.33 3.21 40.83 1.46 51.92-5.54-5.83-41.71-18.67-73.5-38.5-95.08-4.96 14.58-16.04 29.46-37.04 41.42 11.96 15.75 19.54 35.58 23.62 59.21zm-244.12-99.17c28.58 3.5 53.66 13.42 75.25 30.04 27.13-11.67 33.83-26.54 34.71-38.79-8.75-6.42-18.38-11.96-28-16.33-23.04-10.79-49.58-16.62-78.46-17.5-6.13 15.75-7.58 29.75-3.5 42.58zm-119.58-13.42 10.5 32.08c13.42-6.42 27.12-11.38 41.41-14.58a201.94 201.94 0 0 1 37.33-5.25c-2.33-12.83-1.17-26.25 2.92-40.25-32.08 2.92-62.71 12.25-92.17 28zm282.62 13.71c13.71 4.08 25.96 10.21 36.16 17.79 25.96-11.96 32.08-27.12 32.96-39.37-26.25-14.29-61.54-18.08-104.71-10.79 2.04 1.46 4.08 2.92 5.83 4.37 0 0 .292 0 .292.29 10.5 8.17 20.42 17.5 29.46 27.71z"></path></symbol><symbol id="right" viewBox="0 0 3000 3000"><path fill="#f7e3a2" d="M1011.55 2616.24h-6.42c24.5 8.75 50.75 12.83 79.33 12.83 63.58 0 120.16-21.58 170.04-64.75-22.17 8.17-44.33 3.21-66.5-14.87-38.21 31.21-78.46 51.33-121.04 60.66-18.08 4.08-36.46 6.13-55.41 6.13m8.17-98.29c-7.88 0-15.17-.583-22.46-1.46 6.71 47.83 30.04 79.04 69.42 93.92 42.58-9.33 82.83-29.46 121.04-60.67 4.96-4.38 10.21-8.75 15.17-13.42-42.58 22.75-79.33 11.67-110.25-33.83-23.04 10.21-47.25 15.46-72.92 15.46m131.54-53.37c2.04-2.04 4.37-3.79 6.42-6.13 5.54-4.96 10.5-10.21 15.46-15.46 18.96-21 33.54-43.75 44.33-68.83l-70.58-4.96c-1.17 31.21.292 63 4.38 95.37m-328.41 35.58c11.38-32.67 31.5-56.29 60.37-71.46-13.71-30.04-18.08-63.58-13.71-101.21-24.21-1.46-48.71 11.67-72.92 39.37-2.92 49.29 5.83 93.92 26.25 133.29m113.46-6.71c-25.96 20.71-41.12 49.58-45.79 86.33 32.37 23.04 70.58 35.29 114.62 36.17h6.42c18.96 0 37.33-2.04 55.41-5.83-39.67-14.88-62.71-46.08-69.42-93.92-23.04-2.63-43.46-10.21-61.25-22.75m-40.54-42.29c1.75 2.63 3.5 4.96 5.54 7.58 10.21 14.29 21.88 25.96 35 34.71 17.79 12.25 38.21 20.12 60.96 23.04 7.29.876 14.58 1.46 22.46 1.46 25.38 0 49.87-5.25 73.21-15.17 13.13-5.83 25.96-13.13 38.5-22.17-15.17 4.08-30.63 5.83-46.67 5.83-49.87 0-89.25-19.54-118.12-58.62-5.54-7.58-10.21-15.46-14.29-23.63-24.21-.291-42.87 15.46-56.58 46.96m0 0c-4.67-7.29-8.75-14.88-12.25-22.46-28.87 15.17-49 38.79-60.37 71.46 5.83 11.08 12.54 21.87 20.12 32.37 14 18.96 29.75 34.71 47.25 47.25 4.67-36.75 19.83-65.62 45.79-86.33-13.13-9.04-24.79-20.71-35-34.71-2.04-2.63-3.79-4.96-5.54-7.58m-19.54-158.96c7-27.42 18.67-52.79 34.42-75.83-25.08 13.71-47.83 11.67-67.67-6.13-21 36.46-35.29 76.42-42.29 119.58-2.04 12.54-3.5 24.79-4.08 36.75 24.5-27.71 48.71-40.83 72.92-39.37.291-3.79.875-7.29 1.46-11.08a316.18 316.18 0 0 1 5.25-23.92m59.79 1.46c-17.5-18.96-37.33-19.25-59.79-1.17a316.18 316.18 0 0 0-5.25 23.92c-.583 3.79-1.17 7.29-1.46 11.08-4.38 37.62 0 71.46 13.71 101.21 3.5 7.58 7.58 15.17 12.25 22.46 13.71-31.5 32.67-47.25 56.87-47.25-16.33-32.08-21.87-68.83-16.33-110.25m107.33-174.12c-18.38 4.38-36.17 11.38-53.08 21.58-14.87 8.75-29.17 19.54-42.87 32.67-14 13.42-26.54 27.71-37.04 42.87-15.75 23.04-27.42 48.42-34.42 75.83 22.46-18.08 42.58-17.5 59.79 1.17.292-2.63.584-5.25 1.17-7.88 9.04-55.42 34.42-102.67 75.83-141.75 10.21-9.33 20.42-17.5 30.63-24.5m-53.08 21.58-19.83-60.08c-21 12.54-41.41 28-61.54 46.67-26.54 25.37-48.71 52.79-65.92 82.54 19.83 17.79 42.58 19.83 67.67 6.13 10.5-15.17 22.75-29.46 37.04-42.87 13.71-12.83 28-23.63 42.58-32.38m95.08-26.54c4.08 0 8.17 0 11.96.292-9.92-20.71-8.46-44.33 4.67-70.87-46.38.583-90.12 12.83-131.25 37.04l19.54 60.08c16.92-10.21 34.71-17.21 53.08-21.58 13.71-3.21 27.71-4.96 42-4.96m417.66 334.83c-23.33-2.63-42-9.63-56-21-5.25 28.29-24.79 51.04-58.04 67.96 20.13 21.29 45.79 35 77.29 40.83 39.96-9.04 52.21-38.5 36.75-87.79m-299.83 86.92c1.17-1.46 2.63-2.63 3.79-3.79 18.37-17.21 34.71-35.87 48.71-55.41 7.29-10.21 13.71-20.42 19.83-30.92-28.88 23.04-63 22.17-102.67-2.92-4.96 5.25-9.92 10.5-15.46 15.46-2.04 2.04-4.38 4.08-6.42 6.13-6.42 5.54-12.83 10.79-19.54 15.75-12.54 9.04-25.37 16.62-38.5 22.17 31.21 45.21 67.96 56.29 110.25 33.54m51.33 28c5.83-5.25 11.67-10.79 17.5-16.33 17.5-17.5 32.67-36.46 44.92-56.29-23.04 10.5-43.46 5.83-61.25-14.58-14 19.54-30.33 38.21-48.71 55.41a23.31 23.31 0 0 0-3.79 3.79c-5.25 4.67-10.21 9.04-15.17 13.42 22.17 18.08 44.33 23.04 66.5 14.58m87.79-172.08c1.75 10.21 3.79 19.83 6.42 28.58 8.75 31.21 22.17 56.29 40.25 75.25 33.54-16.92 52.79-39.67 58.04-67.96-17.5-14-27.71-34.71-31.21-61.83-13.42 22.75-37.92 31.5-73.5 25.96m78.17-101.21c-25.67 14.29-53.66 15.17-84.58 3.21-.875 36.75 1.17 69.42 6.13 98 35.58 5.25 60.08-3.21 73.5-25.96-2.33-21-.583-46.08 4.96-75.25m-81.67-77.87c37.92 7.29 64.75 3.21 80.5-11.96-7-63-28.58-106.16-64.75-129.5 2.33 29.46-14.29 51.04-49.87 64.46 18.96 17.5 30.33 43.17 34.12 77m-23.33 116.96c1.46-8.17 2.33-16.33 3.21-24.5-26.54 25.37-56 34.71-88.08 28-3.21 14.29-7.58 27.71-13.13 40.83-10.79 25.08-25.37 47.83-44.33 68.83 39.37 25.08 73.5 25.96 102.67 2.92 19.54-35.58 32.96-74.08 39.67-116.08m23.92-111.42c1.75 21.88.583 46.96-3.5 75.54 30.92 11.96 58.91 11.08 84.58-3.21 2.04-33.54 1.75-63.29-1.17-89.83-15.75 15.17-42.58 19.25-80.5 11.96.292 1.75.584 3.79.584 5.54m-105.29 97.42c1.46-8.75 2.33-17.21 2.92-25.67l-80.79-4.67c-5.25 27.13-8.46 55.12-9.33 83.42l70.58 4.96c5.54-13.12 9.92-26.54 13.13-40.83 1.46-5.54 2.63-11.38 3.5-17.21m-4.08-90.71c5.83 20.13 8.17 41.71 7 65.04-.584 8.46-1.46 16.92-2.92 25.67-.875 5.83-2.04 11.67-3.5 17.21 32.08 6.71 61.54-2.33 88.08-28 4.38-46.66-1.17-88.67-16.92-126.58-7 29.75-30.92 45.21-71.75 46.66m-25.96-51.62a117.57 117.57 0 0 0-7.58-9.33c-18.67 39.08-32.08 79.62-40.54 121.62l80.79 4.67c1.17-23.33-1.17-45.21-7-65.04-5.25-18.96-14-36.17-25.67-51.92m100.62-37.33c-11.38-10.21-25.37-17.5-42-21.88l10.5 13.13c.876 1.17 2.04 2.63 2.92 3.79 10.5 14.88 19.25 30.63 25.96 47.25 15.46 37.91 21 80.21 16.92 126.58-.875 8.17-1.75 16.33-3.21 24.5-6.71 42-20.12 80.5-39.96 116.08-6.13 10.5-12.54 21-19.83 30.92 17.79 20.42 38.21 25.08 61.25 14.58 13.71-22.17 24.21-45.5 31.5-70.58-2.63-9.04-4.67-18.67-6.42-28.58-5.25-28.58-7.29-61.25-6.13-98 4.08-28.58 5.25-53.66 3.5-75.54-.291-1.75-.291-3.79-.583-5.54-4.08-33.83-15.46-59.5-34.42-76.71m-72.33-51.04c-11.38-9.04-23.62-16.33-36.46-22.17-26.83-12.83-57.46-19.25-91.29-19.25h-2.62c-13.13 26.54-14.58 50.17-4.67 70.87 32.37 2.04 60.08 13.12 82.83 32.96 36.17-12.83 53.66-33.54 52.21-62.41m30.33 29.17c-9.33-11.08-19.25-20.71-30.04-29.46 1.17 28.88-16.04 49.87-52.21 62.71 5.83 4.96 11.08 10.21 16.33 16.33 2.63 2.92 4.96 6.13 7.58 9.33 11.67 16.04 20.42 33.25 25.96 51.62 40.83-1.46 64.75-16.92 72.04-46.67-6.71-16.63-15.46-32.38-25.96-47.25-.875-1.46-2.04-2.62-2.92-3.79-3.79-4.08-7.29-8.46-10.79-12.83m-30.33-29.17c10.79 8.46 20.71 18.38 30.04 29.46 16.63 4.38 30.63 11.67 42 21.87 35.87-14 52.5-35.58 50.16-64.75-37.33-24.21-90.12-27.12-158.37-9.04 12.54 5.83 24.79 13.42 36.17 22.46z"></path><path d="M1084.47 2643.95c-29.17 0-56.87-4.38-82.25-13.13-45.79-1.46-86.04-14.58-120.17-38.79-.292 0-.292-.293-.583-.293-18.67-13.42-35.58-30.33-50.46-50.46a248.94 248.94 0 0 1-21.29-34.42c-21.58-41.42-30.92-88.96-28-140.58v-.292c.583-12.25 2.04-25.08 4.38-38.21 7.29-44.92 22.17-86.62 44.04-124.54 0-.29.29-.29.29-.582 17.79-30.92 40.83-59.79 68.54-85.75 20.71-19.25 42-35.58 64.17-48.41.292 0 .292-.292.58-.292 43.17-25.08 89.83-38.21 138.25-38.79h2.63c33.83 0 65.04 6.13 92.46 18.08 69.71-17.79 125.41-13.71 165.08 11.96 39.96 25.67 63.87 72.92 71.46 140v.292c2.92 27.12 3.5 58.04 1.17 91.87 0 .584 0 1.17-.292 1.75v.292c-5.54 27.42-7 51.04-4.67 70.58 2.92 23.62 11.37 40.83 25.96 52.5 11.96 9.63 28.29 15.46 48.71 17.79 5.83.583 10.5 4.67 12.25 10.21 9.92 31.5 9.33 56.87-1.17 75.54-9.04 15.46-24.5 25.96-46.37 30.92-2.04.583-4.08.583-5.83 0-34.42-6.42-63-21.58-85.17-45.21-11.38-12.25-21.29-26.83-29.46-43.46-5.54 12.54-11.96 24.79-19.25 36.46-12.83 20.71-28.87 40.54-47.25 58.92a487.29 487.29 0 0 1-17.79 16.92c-.292.29-.584.58-.875.58-51.92 45.5-112.29 68.54-179.08 68.54zm103.83-75.83c-25.96 19.83-52.79 35-80.79 45.5 21.58-2.04 42.29-6.71 62.12-14.29 14-5.25 27.71-12.25 40.83-20.42-7.58-2.33-14.88-6.12-22.17-10.79zm-183.16 33.54h6.42c4.08 0 7.88 0 11.96-.292-19.54-17.5-32.67-41.71-38.79-72.04-16.92-3.21-32.67-9.04-46.96-17.5-16.62 16.04-26.83 36.17-31.5 61.25 28.29 18.08 61.54 27.71 98.87 28.58zm10.21-69.12c8.17 30.63 25.67 51.33 52.79 62.71 27.13-6.42 53.96-18.08 79.33-34.12-19.54-3.79-39.96-15.46-59.5-40.54-21.87 8.17-44.62 12.25-68.25 12.25-1.46-.292-2.92-.292-4.38-.292zm196.58 15.46c16.33 8.17 28.58 5.54 35 3.5 4.96-4.38 9.92-9.33 14.58-14 8.46-8.46 16.33-17.5 23.92-26.54-9.62-1.46-18.96-5.54-27.71-12.25-12.25 15.46-25.67 30.33-40.54 44.33l-.584.58c-.875.88-1.75 1.46-2.63 2.33l-1.46 1.46c0 .292-.292.58-.583.58zm-373.04-49c4.67 8.46 9.92 16.92 15.75 24.79 8.17 11.08 16.63 20.71 25.96 29.46 6.42-23.04 17.21-42.58 32.96-58.91-8.75-7.88-16.92-16.92-24.5-27.13-1.75-2.63-3.79-4.96-5.54-7.58-.291-.292-.291-.583-.583-.583-2.04-3.21-4.08-6.42-5.83-9.63-16.92 11.96-29.46 28.29-38.21 49.58zm276.5 8.75c10.5 11.96 21.29 19.83 32.67 23.33 14 4.38 29.17 2.04 46.37-6.71l2.92-2.92c14.87-14 28.58-29.17 40.25-44.92-3.21.292-6.71.292-9.92.292-16.63-.583-34.13-5.83-52.21-15.75-2.63 2.63-5.25 5.25-8.17 7.88-2.33 2.04-4.38 4.08-6.71 6.13-6.71 5.83-13.71 11.38-20.71 16.33-7.58 6.71-16.04 11.96-24.5 16.33zm298.08-8.75c14.87 11.38 32.08 18.96 52.5 23.33 11.96-3.21 20.12-8.46 24.5-16.33 5.54-9.92 6.12-24.5 1.17-43.46-13.42-2.33-25.67-6.13-36.17-11.67-8.17 18.67-22.17 34.71-42 48.12zm-414.16 2.92c6.42.875 13.42 1.46 20.42 1.46 12.83 0 25.67-1.46 38.21-4.38-42-6.13-76.71-27.12-102.96-62.71-4.08-5.54-7.58-11.08-11.08-16.92-8.46 1.75-20.42 8.17-31.5 30.33 0 .291.29.291.29.583 9.33 12.83 19.83 23.33 31.5 31.5 16.33 10.79 34.71 17.5 55.12 20.12zm275.62-26.83c9.92 7.88 20.42 9.33 32.38 4.96 11.08-18.67 20.13-38.5 26.54-59.21-2.04-8.17-4.08-16.63-5.54-25.67v-.583a464.12 464.12 0 0 1-4.38-30.92c-7.88 31.5-19.54 61.54-35 89.25 0 .291-.291.58-.291.58-4.67 7.29-9.04 14.58-13.71 21.58zm87.79-58.04c7 24.21 16.63 44.62 29.46 60.66 20.42-12.25 33.25-26.83 38.5-44.33-10.21-10.21-18.08-22.75-23.04-37.33-4.67 3.21-9.92 5.54-15.46 7.58-9.33 3.21-20.12 4.96-31.79 4.96.874 2.92 1.46 5.83 2.33 8.46zm-396.95-19.25c3.79 7.29 8.17 14.58 13.13 21.29 26.25 35.29 60.96 52.79 106.46 52.79 13.71 0 27.12-1.75 40.25-4.96 3.5-2.63 7-5.25 10.5-8.17a625.98 625.98 0 0 1-3.79-89.83c.875-28.87 4.38-57.75 9.63-85.46v-.584c7.88-39.96 20.42-78.75 37.33-116.08-2.63-2.63-5.54-5.25-8.46-7.88-20.71-17.79-44.92-27.42-74.37-29.46h-.292c-3.5-.292-7.29-.292-10.79-.292-12.25 0-24.5 1.46-36.17 4.08-9.04 6.13-17.79 13.42-26.25 21.58-39.08 36.75-63 81.67-71.75 133.29a516.89 516.89 0 0 0-.875 7.29v.584c-4.96 38.21 0 72.33 14.88 101.5.291 0 .291 0 .583.29zm-154.87-25.08c-1.46 32.96 2.92 63.87 12.83 92.17 10.79-17.21 24.5-31.5 41.42-42.29-8.75-24.21-12.83-50.75-11.38-79.04-14 3.79-28.29 13.42-42.87 29.17zm384.7 66.21c11.96 5.54 23.04 8.75 33.25 9.04 12.83.291 24.5-3.5 35.58-11.67 16.62-30.04 28.29-63.29 35-98.58-18.38 9.63-37.63 13.71-58.04 11.96a256.57 256.57 0 0 1-10.5 29.75c0 .29-.292.58-.292.58-8.75 21.29-20.71 40.83-35 58.91zm-34.71-53.96c0 15.75.583 31.79 1.75 47.83 12.83-14 23.63-29.46 32.37-45.5l-34.12-2.33zm-276.79-55.71c-4.08 34.12 0 64.75 11.67 91.87 4.67-6.42 9.63-11.96 14.88-16.33 6.42-5.25 13.42-9.33 20.71-11.67-10.79-28.29-14.29-59.5-10.79-93.62-10.79-8.75-20.71-6.13-31.79 1.75a174.44 174.44 0 0 0-3.5 17.79c-.292 2.92-.876 6.42-1.17 10.21 0-.292 0-.292 0 0zm470.74 49.87c29.17 1.75 40.83-9.04 45.79-16.33-1.17-14.58-.875-30.92 1.46-48.71-16.33 4.08-33.83 4.08-51.62 0 0 23.63 1.46 45.5 4.38 65.04zm-192.79-23.33 45.79 3.21c3.5-9.33 6.42-18.96 8.46-28.87v-.292c1.17-5.25 2.33-10.5 3.21-16.04.583-3.21.875-6.42 1.46-9.62l-52.79-2.92c-2.92 17.79-4.96 36.17-6.13 54.54zM847.93 2231.83a338.66 338.66 0 0 0-32.37 98.29c13.71-9.33 27.42-15.17 41.42-16.92 1.46-8.46 3.21-16.63 5.25-24.5 4.38-16.92 10.5-33.25 18.08-48.71-11.38 0-22.17-2.63-32.37-8.17zm400.16 89.25c20.12.583 38.79-6.71 56.58-22.17 2.33-29.75.292-57.75-6.13-83.71-10.5 10.79-26.54 19.83-50.46 23.33 3.21 16.63 4.38 34.42 3.5 53.08v.292c-.584 8.75-1.75 17.79-2.92 26.83v.291c-.292.29-.583 1.17-.583 2.04zm103.83-36.75c19.83 5.54 37.62 4.67 54.54-2.62 1.17-19.83 1.17-38.79.292-56-14 5.25-31.5 6.71-51.91 4.67.583 16.63-.292 34.71-2.92 53.96zm-177.91-11.96 48.71 2.92c-.291-16.04-2.63-31.5-6.71-45.5-3.79-12.83-9.33-25.08-16.33-36.46-10.79 25.38-19.25 51.92-25.67 79.04zm-266.29-7.88c6.13 0 12.25 1.17 18.08 3.79 7.29-33.25 20.71-63.58 39.67-91l-7.88 7c-13.42 12.54-25.08 26.25-35 40.54-8.75 12.54-16.04 25.96-21.88 40.25 2.33-.292 4.67-.583 7-.583zm-45.21-58.04c11.67 6.42 23.92 5.83 38.21-1.17 10.5-14.88 23.04-29.17 36.75-42.29 11.38-10.79 23.33-20.13 35.58-28.29l-10.21-31.5c-14.87 9.92-29.46 21.88-43.75 35-22.17 21-41.12 44.04-56.58 68.25zm345.33-51.63c2.63 3.21 5.54 6.71 8.17 10.21 10.21 14 18.38 29.17 24.5 44.92 32.08-3.5 42.29-17.79 46.37-30.33-6.13-13.71-13.71-27.12-22.46-39.67l-2.63-3.5-.292-.291c-3.21-4.08-6.42-8.46-9.63-12.25-2.92-3.5-6.12-7-9.04-10.21-5.54 13.71-16.33 27.42-36.46 38.79 0 .876.58 1.46 1.46 2.33zm144.08 45.79c23.33 3.21 40.83 1.46 51.92-5.54-5.83-41.71-18.67-73.5-38.5-95.08-4.96 14.58-16.04 29.46-37.04 41.42 11.96 15.75 19.54 35.58 23.62 59.21zm-244.12-99.17c28.58 3.5 53.66 13.42 75.25 30.04 27.13-11.67 33.83-26.54 34.71-38.79-8.75-6.42-18.38-11.96-28-16.33-23.04-10.79-49.58-16.62-78.46-17.5-6.13 15.75-7.58 29.75-3.5 42.58zm-119.58-13.42 10.5 32.08c13.42-6.42 27.12-11.38 41.41-14.58a201.94 201.94 0 0 1 37.33-5.25c-2.33-12.83-1.17-26.25 2.92-40.25-32.08 2.92-62.71 12.25-92.17 28zm282.62 13.71c13.71 4.08 25.96 10.21 36.16 17.79 25.96-11.96 32.08-27.12 32.96-39.37-26.25-14.29-61.54-18.08-104.71-10.79 2.04 1.46 4.08 2.92 5.83 4.37 0 0 .292 0 .292.29 10.5 8.17 20.42 17.5 29.46 27.71z"></path></symbol></svg>