<svg width="3009" height="3009" viewBox="0 0 3009 3009" fill="none" xmlns="http://www.w3.org/2000/svg"><g clip-path="url(#clip0_4368_3929)"><path d="M1696.55 145.28C1702.35 143.75 1708.49 145.82 1712.19 150.53C1712.48 150.9 1712.72 151.23 1712.88 151.44C1713.07 151.7 1713.11 151.76 1713.19 151.87C1717.17 157.17 1720.94 164.2 1724.52 172.26L1725.24 173.89L1725.26 173.93C1731.36 188.06 1735.22 203.5 1736.88 219.86L1736.88 219.86C1738.73 236.85 1738.07 253.21 1734.6 268.46L1734.6 268.46C1732 280.08 1728.59 290.99 1724.37 301.03C1724.32 301.15 1724.27 301.27 1724.22 301.39C1724.02 301.83 1723.32 303.46 1722.61 304.86C1722.6 304.88 1722.59 304.9 1722.58 304.93C1728.12 301.29 1734.01 299.12 1740.34 299.07C1748.78 299.02 1754.97 302.85 1758.25 305.04C1758.28 305.06 1758.3 305.08 1758.33 305.09C1762.25 307.75 1765.86 311.8 1768.23 318.47L1768.45 319.12L1768.58 319.51C1768.62 319.64 1768.66 319.78 1768.69 319.91C1772 331.96 1772.1 343.92 1767.63 355.32C1764.08 364.39 1758.03 372.08 1750.3 378.73C1754.41 378.41 1758.52 378.52 1762.53 379.07L1763.48 379.2L1763.82 379.26C1767.14 379.85 1770.76 380.8 1774.08 382.48C1777.22 384.07 1781.45 387.02 1783.85 392.27L1784.08 392.78L1784.1 392.83C1785.54 396.27 1789.07 404.98 1785.18 417.06C1781.59 428.21 1772.44 439.89 1755.48 452.6C1755.47 452.61 1755.46 452.61 1755.46 452.62C1749.41 457.14 1742.54 461.66 1735.06 466.06C1735.68 466.22 1736.29 466.41 1736.88 466.64C1737.44 466.85 1737.66 466.94 1737.85 467.02L1738.64 467.33L1738.88 467.42C1748.73 471.42 1755.8 478.25 1760.06 487.89C1760.19 488.16 1760.28 488.37 1760.33 488.47C1760.37 488.58 1760.41 488.68 1760.45 488.78C1760.73 489.44 1760.96 490.13 1761.14 490.84L1761.16 490.92C1762 494.17 1761.71 497.45 1760.52 500.35L1760.32 500.86C1759.82 502.05 1759.19 503.22 1758.45 504.36C1756.84 506.82 1754.6 509.27 1751.61 511.76C1751.32 512.02 1751.04 512.25 1750.77 512.46C1741.22 520.54 1729.23 524.09 1716.94 527.95L1716.94 527.95C1707.33 530.99 1695.9 534.6 1682.53 540.31C1682.42 540.35 1682.32 540.39 1682.22 540.43C1681.62 540.67 1680.98 540.91 1680.46 541.11C1683.31 542.34 1685.79 544.45 1687.46 547.29C1687.54 547.42 1687.61 547.55 1687.67 547.66C1687.73 547.77 1687.78 547.87 1687.83 547.96C1687.92 548.14 1687.99 548.28 1688.04 548.38C1688.39 549.07 1688.69 549.79 1688.93 550.52C1690.66 555.79 1689.39 560.38 1688.26 563C1687.13 565.62 1685.57 567.64 1684.44 568.94C1682.15 571.59 1679.41 573.77 1677.5 575.19C1677.48 575.2 1677.46 575.22 1677.44 575.24C1665.84 583.75 1649.26 589.3 1630.65 592.38C1630.63 592.38 1630.62 592.39 1630.6 592.39C1618.52 594.36 1607.01 593.21 1596.34 588.14C1590.43 585.32 1587.02 578.99 1587.93 572.5L1608.3 427.7L1608.31 427.68C1609.5 419.27 1610.03 410.92 1609.96 402.66C1609.93 400.25 1609.87 397.96 1609.76 395.74C1608.82 377.43 1604.96 359.75 1598.54 343.21C1598.53 343.19 1598.53 343.17 1598.52 343.15C1597.19 339.69 1595.72 336.28 1594.13 332.87C1594.09 332.81 1594.05 332.72 1594 332.62C1593.95 332.52 1593.88 332.4 1593.82 332.26C1591.28 327.01 1592.02 320.77 1595.7 316.26C1600.28 310.64 1605.06 304.93 1610.08 299.24L1610.09 299.22L1611.4 297.75C1625 282.28 1642.57 262.16 1654.2 244.25L1654.31 244.08C1667.55 224.29 1680.6 201.03 1684.11 169.77C1684.33 167.51 1684.85 162.29 1685.55 157.57L1685.64 157.02C1686.71 151.35 1690.94 146.77 1696.55 145.28ZM1687.82 547.96C1687.81 547.95 1687.8 547.93 1687.8 547.92C1687.79 547.91 1687.79 547.9 1687.78 547.89C1687.79 547.92 1687.81 547.94 1687.82 547.96Z" fill="#E9F6FB" stroke="black" stroke-width="30" stroke-linejoin="round"/><path d="M443.92 866.5C439.62 870.67 438.21 877 440.34 882.61C440.51 883.04 440.67 883.42 440.77 883.66C440.89 883.96 440.92 884.02 440.97 884.15C443.45 890.3 447.54 897.15 452.59 904.38L453.62 905.83L453.64 905.87C462.6 918.39 473.84 929.66 487 939.52L487 939.52C500.59 949.88 514.95 957.75 529.8 962.64L529.8 962.64C541.1 966.41 552.2 969.12 562.98 970.69C563.11 970.71 563.24 970.72 563.37 970.74C563.84 970.79 565.59 971.04 567.15 971.15C567.18 971.16 567.21 971.16 567.24 971.16C561.27 974.03 556.37 977.96 553.07 983.35C548.66 990.55 548.75 997.83 548.94 1001.78C548.94 1001.81 548.94 1001.84 548.94 1001.87C549.19 1006.6 550.8 1011.78 555.29 1017.25L555.74 1017.78L556.01 1018.09C556.1 1018.19 556.19 1018.29 556.28 1018.39C564.9 1027.44 575.09 1033.7 587.17 1035.75C596.77 1037.39 606.48 1036.18 616.16 1032.98C613.77 1036.33 611.74 1039.92 610.14 1043.63L609.77 1044.52L609.64 1044.84C608.43 1047.99 607.38 1051.58 607.11 1055.29C606.85 1058.8 607.19 1063.95 610.45 1068.71L610.77 1069.17L610.8 1069.21C613.01 1072.22 618.65 1079.74 631 1082.64C642.4 1085.32 657.13 1083.5 676.77 1075.53C676.78 1075.53 676.79 1075.53 676.8 1075.52C683.79 1072.67 691.2 1069.12 698.84 1064.99C698.65 1065.59 698.5 1066.21 698.39 1066.84C698.29 1067.43 698.25 1067.66 698.22 1067.86L698.08 1068.7L698.03 1068.96C696.37 1079.47 698.57 1089.04 704.64 1097.67C704.8 1097.92 704.93 1098.1 705 1098.19C705.05 1098.26 705.11 1098.34 705.16 1098.4C705.59 1099 706.07 1099.57 706.61 1100.12L706.66 1100.17C709.01 1102.57 711.98 1104.01 715.07 1104.48L715.61 1104.57C716.89 1104.76 718.21 1104.83 719.57 1104.78C722.51 1104.67 725.77 1104.01 729.44 1102.74C729.82 1102.63 730.16 1102.51 730.48 1102.38C742.32 1098.37 751.56 1089.93 761.2 1081.39L761.2 1081.39C768.76 1074.73 777.75 1066.8 789.54 1058.29C789.63 1058.22 789.72 1058.16 789.81 1058.09C790.33 1057.7 790.85 1057.28 791.29 1056.93C790.87 1060.01 791.41 1063.22 792.98 1066.11C793.05 1066.25 793.12 1066.38 793.19 1066.49C793.25 1066.6 793.31 1066.7 793.36 1066.78C793.47 1066.95 793.55 1067.09 793.61 1067.18C794.02 1067.84 794.48 1068.46 794.99 1069.05C798.61 1073.24 803.19 1074.52 806.02 1074.91C808.85 1075.29 811.38 1075 813.09 1074.7C816.53 1074.11 819.82 1072.89 822.01 1071.98C822.04 1071.97 822.06 1071.96 822.09 1071.95C835.36 1066.41 848.67 1055.07 860.92 1040.71C860.92 1040.7 860.93 1040.69 860.94 1040.68C868.87 1031.34 873.82 1020.89 874.98 1009.14C875.62 1002.62 871.95 996.43 865.92 993.87L731.38 936.61L731.35 936.6C723.53 933.29 716.11 929.44 709.06 925.11C707.02 923.84 705.09 922.61 703.24 921.37C688.04 911.12 674.89 898.68 664.03 884.65C664.02 884.64 664 884.62 663.99 884.61C661.71 881.69 659.55 878.67 657.45 875.54C657.41 875.48 657.36 875.39 657.3 875.3C657.24 875.2 657.17 875.09 657.09 874.96C653.9 870.08 648.18 867.49 642.41 868.32C635.23 869.34 627.88 870.49 620.41 871.85L620.39 871.86L618.45 872.22C598.19 875.89 571.88 880.56 550.55 881.28L550.34 881.29C526.56 882.42 499.9 881.6 471.33 868.48C469.29 867.52 464.54 865.25 460.12 863.42L459.6 863.21C454.19 861.2 448.08 862.46 443.92 866.5ZM793.37 1066.77C793.36 1066.76 793.35 1066.74 793.34 1066.73C793.33 1066.71 793.33 1066.7 793.32 1066.68C793.33 1066.71 793.35 1066.74 793.37 1066.77ZM657.32 875.34C657.32 875.36 657.33 875.37 657.34 875.38C657.26 875.26 657.17 875.14 657.09 875.02C657.18 875.14 657.25 875.25 657.32 875.34Z" fill="#E9F6FB" stroke="black" stroke-width="30" stroke-linejoin="round"/><path d="M-33.69 385.88C-37.99 390.05 -39.4 396.38 -37.27 401.98C-37.08 402.48 -36.9 402.92 -36.77 403.21C-36.63 403.55 -36.58 403.68 -36.51 403.84L-36.2 404.59C-32.95 412.37 -27.57 421.24 -20.78 430.78C-20.77 430.79 -20.76 430.8 -20.75 430.81C-9.55 446.47 4.54 460.6 21.08 473L21.08 473C38.18 486.02 56.15 495.86 74.66 501.95L74.66 501.96C88.92 506.72 102.89 510.12 116.41 512.08C116.54 512.1 116.67 512.12 116.8 512.13C117.58 512.23 119.69 512.52 121.55 512.65C121.62 512.66 121.69 512.67 121.77 512.68C121.88 512.69 122.04 512.71 122.23 512.73C125.31 513.02 128.56 513.15 132.76 513.09C132.79 513.09 132.82 513.09 132.85 513.09C144.7 512.84 157.17 511.1 169.94 508.12C169.96 508.12 169.98 508.11 170 508.11C170.81 507.92 171.73 508.41 171.97 509.33C172.17 510.23 171.59 511.11 170.76 511.32L170.72 511.33C158.12 514.5 146.2 516.27 135.33 516.68C133.95 516.73 132.58 516.97 131.26 517.4C120.23 520.98 111.73 526.43 106.7 534.65C102.06 542.24 101.81 549.96 101.99 554.9L102.03 555.85L102.03 555.94C102.31 561.27 104.14 567.25 109.73 573.8C109.91 574.01 110.09 574.22 110.28 574.42C120.82 585.49 133.09 592.95 147.48 595.4C161.55 597.79 176.01 595.11 190.68 588.96C190.87 588.89 191.06 588.82 191.25 588.74C191.41 588.69 191.49 588.66 191.5 588.66L191.5 588.66C204.03 586.08 224.32 578.7 255.9 559.32C256.27 559.12 256.61 558.92 256.93 558.72C257.21 558.58 257.52 558.53 257.87 558.58C258.24 558.64 258.56 558.81 258.8 559.03L258.89 559.13L258.9 559.14C258.93 559.17 259 559.25 259.12 559.44C259.54 560.18 259.29 561.17 258.58 561.6L258.54 561.63C232.67 577.58 212.64 586.86 197.1 590.85L196.5 591.01C193.51 591.91 190.88 593.72 188.96 596.2C185.35 600.88 182.33 605.98 180.04 611.29L179.59 612.35L179.47 612.67C178 616.5 176.8 620.67 176.49 624.85C176.19 628.83 176.61 634.34 180.05 639.36L180.39 639.85L180.42 639.89C183.03 643.46 189.5 652.1 203.84 655.47C217.25 658.62 235.15 656.61 259.9 646.57C259.91 646.57 259.92 646.57 259.93 646.56C270.21 642.37 281.26 636.96 292.68 630.55C293.02 630.36 293.35 630.15 293.67 629.94C294.45 629.41 295.18 629 296.74 628.08L296.74 628.08C298.07 627.31 299.36 626.5 300.33 625.88L300.33 625.88C309.63 620 319.5 613.86 321.92 612.63C321.96 612.61 322 612.59 322.04 612.56C322.36 612.4 322.66 612.36 322.99 612.43C323.35 612.5 323.68 612.69 323.92 612.96C323.93 612.96 323.93 612.97 323.94 612.98C323.91 612.95 324.01 613.05 324.17 613.36C324.55 614.11 324.26 615.14 323.45 615.57L323.45 615.57C321.28 616.72 314.1 621.1 302.17 628.63L301.97 628.76C301.27 629.22 300.92 629.44 300.6 629.62C296.74 631.85 294.06 635.67 293.3 640.06C293.18 640.73 293.13 641.05 293.08 641.34L292.89 642.45L292.85 642.71C290.89 655.11 293.47 666.28 300.63 676.44C300.81 676.71 300.95 676.91 301.02 677.01C301.12 677.14 301.21 677.26 301.3 677.37C301.71 677.93 302.17 678.48 302.68 678.99L302.74 679.06C305.12 681.48 308.12 682.93 311.24 683.39C311.24 683.39 311.25 683.39 311.25 683.39C312.77 683.66 314.4 683.77 316.12 683.71C319.39 683.58 323.17 682.84 327.6 681.31C328.04 681.17 328.44 681.03 328.81 680.89C343.04 676.1 354.22 665.94 366.78 654.81L366.78 654.81C376.47 646.28 388.11 636.01 403.39 624.98C403.48 624.92 403.57 624.85 403.66 624.78C404.64 624.04 405.66 623.21 406.3 622.7C407.82 621.52 408.07 621.28 408.8 620.76C409.14 620.51 409.47 620.25 409.79 619.97C416.8 613.96 420.16 610.68 422.65 608.19L423.85 607.02C423.88 606.98 423.92 606.94 423.96 606.9L424.19 606.7C424.8 606.2 425.79 606.23 426.4 606.85L426.4 606.85C427.01 607.48 427.04 608.52 426.35 609.2L425.89 609.65L425.63 609.9C424.33 611.25 421.78 613.89 417.14 618.04L416.66 618.48C411.86 623.15 410.72 630.47 413.94 636.39C414.09 636.67 414.23 636.9 414.33 637.07C414.4 637.19 414.47 637.29 414.52 637.38C414.96 638.1 415.45 638.78 416 639.42C419.73 643.74 424.48 645.09 427.51 645.5C430.54 645.91 433.31 645.6 435.27 645.26C439.23 644.58 443.11 643.15 445.82 642.03C445.85 642.02 445.87 642.01 445.89 642C462.02 635.27 478.55 621.3 494.03 603.16C494.04 603.15 494.04 603.14 494.05 603.13C503.74 591.71 509.66 579.12 511.04 565.05C511.68 558.53 508.02 552.35 501.99 549.79L329.74 476.48L329.72 476.47C319.54 472.16 309.88 467.15 300.71 461.53C298.03 459.86 295.48 458.24 293.02 456.6C273.19 443.22 256.02 426.99 241.85 408.68C241.83 408.66 241.82 408.64 241.81 408.63C238.81 404.78 235.96 400.82 233.22 396.72C233.2 396.69 233.18 396.66 233.16 396.62C233.07 396.48 232.94 396.26 232.76 395.99C229.58 391.12 223.85 388.53 218.09 389.35C208.93 390.66 199.57 392.12 190.09 393.85L190.06 393.86L187.64 394.3C161.75 399 127.73 405.05 100.03 405.99L99.83 405.99C69.1 407.45 34.15 406.42 -3.36 389.18C-6.01 387.93 -11.96 385.09 -17.49 382.8C-23.02 380.5 -29.39 381.71 -33.69 385.88ZM195.98 585.96C196.23 585.74 196.46 585.53 196.68 585.32C196.45 585.54 196.21 585.76 195.98 585.96ZM194.16 587.3C194.5 587.1 194.81 586.88 195.1 586.66C195.24 586.56 195.38 586.46 195.51 586.35C195.06 586.71 194.61 587.02 194.16 587.3Z" fill="#E9F6FB" stroke="black" stroke-width="30" stroke-linejoin="round"/><path d="M193.66 376.81C189.36 380.98 187.95 387.31 190.09 392.91C190.25 393.35 190.41 393.73 190.51 393.97C190.63 394.26 190.66 394.33 190.71 394.45C193.2 400.6 197.28 407.45 202.33 414.69L203.36 416.14L203.38 416.17C212.34 428.69 223.58 439.96 236.74 449.82L236.74 449.82C250.34 460.18 264.69 468.05 279.54 472.94L279.54 472.95C290.84 476.72 301.95 479.43 312.72 480.99C312.85 481.01 312.98 481.03 313.11 481.04C313.59 481.1 315.34 481.34 316.9 481.46C316.92 481.46 316.95 481.46 316.98 481.47C311.01 484.34 306.11 488.26 302.81 493.66C298.41 500.86 298.5 508.14 298.68 512.08C298.68 512.11 298.68 512.14 298.68 512.17C298.94 516.91 300.54 522.09 305.03 527.56L305.48 528.09L305.75 528.39C305.84 528.5 305.93 528.6 306.03 528.7C314.64 537.74 324.84 544 336.91 546.06C346.51 547.7 356.22 546.48 365.9 543.29C363.51 546.64 361.48 550.22 359.88 553.94L359.51 554.82L359.38 555.14C358.18 558.29 357.12 561.88 356.85 565.59C356.59 569.1 356.94 574.25 360.19 579.02L360.51 579.48L360.54 579.51C362.75 582.53 368.39 590.04 380.74 592.94C392.15 595.62 406.87 593.81 426.51 585.84C426.52 585.84 426.53 585.83 426.54 585.83C433.53 582.98 440.94 579.43 448.58 575.29C448.39 575.9 448.24 576.52 448.13 577.15C448.03 577.74 447.99 577.97 447.96 578.17L447.82 579L447.77 579.27C446.11 589.77 448.32 599.35 454.38 607.97C454.55 608.22 454.68 608.41 454.74 608.49C454.8 608.57 454.85 608.64 454.9 608.71C455.33 609.3 455.82 609.88 456.35 610.42L456.4 610.47C458.75 612.87 461.72 614.31 464.81 614.79L465.36 614.88C466.63 615.07 467.95 615.13 469.32 615.08C472.25 614.97 475.51 614.32 479.19 613.05C479.56 612.93 479.9 612.81 480.22 612.69C492.06 608.68 501.3 600.24 510.94 591.7L510.94 591.7C518.5 585.03 527.49 577.11 539.28 568.59C539.37 568.53 539.46 568.46 539.55 568.39C540.07 568 540.6 567.58 541.03 567.23C540.62 570.31 541.15 573.53 542.72 576.42C542.79 576.55 542.87 576.68 542.93 576.79C542.99 576.9 543.05 577 543.11 577.09C543.21 577.25 543.3 577.39 543.36 577.49C543.76 578.14 544.23 578.77 544.73 579.35C548.35 583.55 552.94 584.83 555.76 585.21C558.6 585.59 561.13 585.3 562.83 585.01C566.27 584.41 569.56 583.19 571.75 582.29C571.78 582.28 571.8 582.27 571.83 582.26C585.1 576.71 598.42 565.37 610.66 551.02C610.67 551.01 610.68 551 610.69 550.99C618.61 541.64 623.57 531.19 624.72 519.44C625.36 512.92 621.7 506.74 615.67 504.17L481.12 446.91L481.1 446.9C473.28 443.59 465.85 439.74 458.81 435.42C456.76 434.14 454.83 432.91 452.98 431.68C437.78 421.42 424.63 408.99 413.77 394.96C413.76 394.94 413.75 394.93 413.73 394.91C411.46 391.99 409.29 388.97 407.2 385.85C407.16 385.78 407.11 385.7 407.05 385.6C406.99 385.51 406.91 385.39 406.83 385.27C403.64 380.39 397.92 377.8 392.15 378.62C384.97 379.65 377.62 380.79 370.16 382.16L370.13 382.16L368.19 382.52C347.93 386.19 321.63 390.86 300.29 391.59L300.08 391.59C276.3 392.72 249.65 391.9 221.07 378.78C219.03 377.82 214.28 375.56 209.86 373.72L209.34 373.51C203.93 371.5 197.82 372.76 193.66 376.81ZM543.11 577.08C543.1 577.06 543.09 577.05 543.08 577.03C543.08 577.02 543.07 577 543.06 576.99C543.08 577.02 543.09 577.05 543.11 577.08ZM407.06 385.65C407.07 385.66 407.07 385.67 407.08 385.69C407 385.56 406.92 385.44 406.83 385.32C406.92 385.45 407 385.56 407.06 385.65Z" fill="#E9F6FB" stroke="black" stroke-width="30" stroke-linejoin="round"/><path d="M1509.56 -505.11C1515.32 -506.75 1521.51 -504.8 1525.29 -500.15C1525.62 -499.74 1525.91 -499.37 1526.11 -499.11C1526.33 -498.83 1526.41 -498.71 1526.52 -498.57L1527.02 -497.93C1532.13 -491.23 1537.11 -482.13 1541.98 -471.48C1541.99 -471.46 1542 -471.45 1542 -471.44C1549.96 -453.91 1555.16 -434.64 1557.62 -414.12L1557.62 -414.12C1560.35 -392.8 1559.88 -372.32 1555.9 -353.24L1555.9 -353.24C1552.9 -338.51 1548.86 -324.71 1543.8 -312.02C1543.75 -311.9 1543.7 -311.78 1543.65 -311.66C1543.34 -310.93 1542.54 -308.96 1541.72 -307.28C1541.7 -307.22 1541.67 -307.15 1541.64 -307.08C1541.6 -306.98 1541.53 -306.83 1541.45 -306.66C1540.17 -303.84 1538.65 -300.96 1536.5 -297.36C1536.48 -297.33 1536.46 -297.3 1536.45 -297.28C1530.31 -287.14 1522.57 -277.21 1513.61 -267.64C1513.59 -267.63 1513.58 -267.61 1513.56 -267.6C1512.99 -266.99 1512.96 -265.95 1513.63 -265.28C1514.32 -264.65 1515.37 -264.71 1515.96 -265.33L1515.99 -265.36C1525.04 -274.68 1532.53 -284.12 1538.32 -293.33C1539.05 -294.5 1539.95 -295.57 1540.98 -296.5C1549.6 -304.26 1558.56 -308.9 1568.2 -309.14C1577.09 -309.37 1583.9 -305.72 1588.09 -303.1L1588.9 -302.59L1588.97 -302.54C1593.45 -299.63 1597.71 -295.06 1600.59 -286.94C1600.69 -286.69 1600.77 -286.42 1600.85 -286.16C1605.16 -271.5 1605.49 -257.14 1600.42 -243.46C1595.46 -230.07 1585.91 -218.89 1573.24 -209.26C1573.09 -209.13 1572.93 -209 1572.77 -208.88C1572.64 -208.76 1572.58 -208.71 1572.57 -208.7L1572.57 -208.7C1564.08 -199.14 1547.54 -185.25 1514.96 -167.6C1514.61 -167.38 1514.26 -167.18 1513.93 -167.01C1513.67 -166.84 1513.47 -166.59 1513.34 -166.26C1513.21 -165.91 1513.19 -165.55 1513.26 -165.23L1513.3 -165.1L1513.31 -165.08C1513.32 -165.05 1513.36 -164.95 1513.46 -164.75C1513.89 -164.01 1514.87 -163.74 1515.6 -164.14L1515.64 -164.16C1542.39 -178.58 1560.45 -191.29 1571.66 -202.75L1572.11 -203.19C1574.38 -205.33 1577.27 -206.71 1580.37 -207.13C1586.23 -207.92 1592.16 -207.99 1597.9 -207.31L1599.04 -207.16L1599.39 -207.11C1603.44 -206.47 1607.65 -205.43 1611.42 -203.6C1615.01 -201.87 1619.58 -198.75 1622.21 -193.27L1622.46 -192.73L1622.48 -192.68C1624.26 -188.64 1628.52 -178.71 1624.26 -164.61C1620.28 -151.42 1609.6 -136.92 1588.53 -120.51C1588.52 -120.5 1588.51 -120.49 1588.5 -120.49C1579.73 -113.68 1569.52 -106.81 1558.26 -100.14C1557.93 -99.94 1557.58 -99.75 1557.24 -99.58C1556.39 -99.17 1555.67 -98.74 1554.09 -97.85L1554.09 -97.85C1552.76 -97.08 1551.41 -96.38 1550.39 -95.84L1550.39 -95.84C1540.65 -90.73 1530.4 -85.25 1528.12 -83.77C1528.08 -83.74 1528.04 -83.72 1528 -83.69C1527.7 -83.5 1527.52 -83.26 1527.41 -82.95C1527.29 -82.6 1527.29 -82.22 1527.41 -81.88C1527.41 -81.87 1527.41 -81.85 1527.42 -81.84C1527.4 -81.88 1527.44 -81.75 1527.62 -81.45C1528.09 -80.75 1529.12 -80.49 1529.9 -80.97L1529.9 -80.97C1531.98 -82.27 1539.37 -86.3 1551.86 -92.87L1552.07 -92.98C1552.81 -93.36 1553.19 -93.55 1553.5 -93.73C1557.35 -95.97 1562 -96.37 1566.19 -94.84C1566.83 -94.61 1567.13 -94.49 1567.41 -94.39L1568.46 -94L1568.71 -93.9C1580.42 -89.4 1588.81 -81.58 1594.03 -70.3C1594.17 -70.01 1594.28 -69.78 1594.32 -69.68C1594.39 -69.53 1594.45 -69.38 1594.5 -69.26C1594.78 -68.62 1595.02 -67.95 1595.22 -67.25L1595.24 -67.16C1596.15 -63.89 1595.9 -60.57 1594.74 -57.64C1594.74 -57.63 1594.74 -57.63 1594.74 -57.63C1594.21 -56.17 1593.49 -54.71 1592.57 -53.25C1590.83 -50.48 1588.31 -47.58 1584.76 -44.51C1584.43 -44.2 1584.1 -43.92 1583.79 -43.67C1572.53 -33.75 1558.14 -29.14 1542.22 -23.82L1542.22 -23.82C1529.99 -19.7 1515.28 -14.75 1498.09 -7.04C1497.98 -6.99 1497.88 -6.95 1497.78 -6.91C1496.64 -6.43 1495.42 -5.96 1494.65 -5.66C1492.87 -4.93 1492.53 -4.83 1491.72 -4.47C1491.34 -4.29 1490.95 -4.14 1490.55 -4C1481.83 -.93 1477.31 .34 1473.91 1.25L1472.3 1.7C1472.25 1.71 1472.2 1.72 1472.15 1.74L1471.85 1.84C1471.11 2.12 1470.64 2.98 1470.88 3.82L1470.88 3.82C1471.12 4.67 1472 5.21 1472.93 4.95L1473.56 4.78L1473.91 4.69C1475.72 4.23 1479.29 3.35 1485.2 1.4L1485.82 1.2C1492.26 -.62 1499.17 2.05 1502.69 7.81C1502.86 8.07 1502.99 8.31 1503.09 8.48C1503.15 8.6 1503.21 8.71 1503.25 8.8C1503.66 9.54 1504 10.31 1504.28 11.1C1506.15 16.49 1504.95 21.28 1503.79 24.11C1502.63 26.94 1500.98 29.19 1499.71 30.71C1497.13 33.8 1493.96 36.44 1491.64 38.23C1491.62 38.25 1491.59 38.27 1491.57 38.28C1477.68 48.88 1457.31 56.22 1433.87 60.55C1433.86 60.55 1433.84 60.55 1433.83 60.55C1419.1 63.23 1405.23 62.06 1392.36 56.23C1386.39 53.52 1382.87 47.26 1383.66 40.75L1406.31 -145.07L1406.31 -145.09C1407.66 -156.06 1408.16 -166.94 1407.87 -177.69C1407.77 -180.84 1407.64 -183.86 1407.44 -186.81C1405.78 -210.68 1400.3 -233.66 1391.53 -255.09C1391.52 -255.11 1391.51 -255.13 1391.51 -255.15C1389.68 -259.67 1387.66 -264.12 1385.49 -268.54C1385.47 -268.57 1385.45 -268.61 1385.43 -268.64C1385.36 -268.79 1385.23 -269.02 1385.09 -269.3C1382.46 -274.5 1383.08 -280.75 1386.67 -285.33C1392.38 -292.61 1398.32 -299.98 1404.57 -307.33L1404.59 -307.35L1406.19 -309.22C1423.2 -329.3 1445.45 -355.73 1460.11 -379.25L1460.22 -379.42C1476.85 -405.31 1493.42 -436.08 1497.25 -477.19C1497.49 -480.11 1498.01 -486.69 1498.79 -492.62C1499.56 -498.56 1503.8 -503.48 1509.56 -505.11ZM1568 -206.17C1567.68 -206.06 1567.38 -205.97 1567.09 -205.89C1567.4 -205.97 1567.71 -206.07 1568 -206.17ZM1570.07 -207.07C1569.72 -206.89 1569.38 -206.72 1569.04 -206.58C1568.88 -206.51 1568.73 -206.45 1568.57 -206.38C1569.1 -206.59 1569.6 -206.82 1570.07 -207.07Z" fill="#E9F6FB" stroke="black" stroke-width="30" stroke-linejoin="round"/><path d="M1388.02 -312.76C1393.78 -314.4 1399.97 -312.45 1403.75 -307.8C1404.05 -307.44 1404.3 -307.11 1404.46 -306.91C1404.65 -306.65 1404.7 -306.59 1404.78 -306.49C1408.86 -301.26 1412.75 -294.3 1416.49 -286.31L1417.23 -284.69L1417.25 -284.65C1423.62 -270.63 1427.75 -255.26 1429.72 -238.94L1429.72 -238.94C1431.89 -221.99 1431.52 -205.62 1428.34 -190.31L1428.34 -190.31C1425.96 -178.64 1422.75 -167.67 1418.72 -157.55C1418.67 -157.43 1418.62 -157.31 1418.57 -157.19C1418.38 -156.75 1417.71 -155.12 1417.03 -153.7C1417.02 -153.68 1417.01 -153.65 1417 -153.63C1422.47 -157.36 1428.32 -159.65 1434.64 -159.81C1443.08 -160.02 1449.34 -156.3 1452.66 -154.17C1452.69 -154.15 1452.71 -154.14 1452.74 -154.12C1456.71 -151.54 1460.4 -147.55 1462.89 -140.93L1463.12 -140.28L1463.26 -139.89C1463.3 -139.76 1463.34 -139.63 1463.38 -139.5C1466.9 -127.51 1467.23 -115.56 1462.97 -104.07C1459.59 -94.94 1453.68 -87.14 1446.08 -80.35C1450.17 -80.75 1454.29 -80.71 1458.31 -80.24L1459.26 -80.12L1459.6 -80.07C1462.93 -79.54 1466.57 -78.66 1469.92 -77.04C1473.09 -75.51 1477.38 -72.63 1479.87 -67.43L1480.11 -66.92L1480.13 -66.88C1481.63 -63.46 1485.32 -54.82 1481.66 -42.67C1478.28 -31.45 1469.34 -19.61 1452.62 -6.58C1452.61 -6.58 1452.61 -6.57 1452.6 -6.57C1446.63 -1.94 1439.85 2.71 1432.46 7.25C1433.07 7.39 1433.68 7.57 1434.28 7.79C1434.84 8 1435.06 8.08 1435.26 8.15L1436.05 8.45L1436.3 8.54C1446.22 12.36 1453.42 19.05 1457.85 28.62C1457.99 28.88 1458.08 29.09 1458.13 29.19C1458.17 29.27 1458.2 29.36 1458.23 29.43C1458.53 30.11 1458.79 30.81 1458.99 31.55L1459.01 31.62C1459.91 34.85 1459.68 38.14 1458.54 41.06L1458.35 41.57C1457.88 42.78 1457.27 43.95 1456.55 45.11C1454.98 47.6 1452.78 50.09 1449.85 52.64C1449.56 52.9 1449.28 53.14 1449.02 53.35C1439.63 61.61 1427.7 65.38 1415.48 69.46L1415.48 69.46C1405.93 72.68 1394.57 76.5 1381.3 82.45C1381.2 82.5 1381.1 82.54 1381 82.59C1380.4 82.84 1379.77 83.09 1379.25 83.29C1382.12 84.47 1384.64 86.54 1386.36 89.34C1386.44 89.48 1386.51 89.6 1386.58 89.71C1386.64 89.82 1386.7 89.92 1386.75 90.01C1386.84 90.18 1386.92 90.33 1386.97 90.43C1387.33 91.11 1387.64 91.82 1387.9 92.55C1389.72 97.79 1388.53 102.4 1387.45 105.04C1386.37 107.68 1384.85 109.73 1383.74 111.05C1381.5 113.73 1378.8 115.97 1376.92 117.42C1376.9 117.44 1376.88 117.46 1376.86 117.47C1365.42 126.2 1348.94 132.05 1330.39 135.48C1330.38 135.48 1330.36 135.49 1330.35 135.49C1318.3 137.68 1306.77 136.75 1296.02 131.87C1290.05 129.16 1286.53 122.9 1287.32 116.39L1305.01 -28.76L1305.01 -28.78C1306.05 -37.21 1306.43 -45.56 1306.21 -53.83C1306.12 -56.24 1306.03 -58.52 1305.88 -60.74C1304.6 -79.03 1300.4 -96.64 1293.68 -113.06C1293.68 -113.08 1293.67 -113.1 1293.66 -113.11C1292.27 -116.55 1290.74 -119.93 1289.08 -123.31C1289.05 -123.38 1289 -123.46 1288.95 -123.56C1288.89 -123.66 1288.83 -123.78 1288.76 -123.92C1286.13 -129.12 1286.75 -135.37 1290.35 -139.95C1294.83 -145.66 1299.49 -151.45 1304.41 -157.23L1304.42 -157.25L1305.7 -158.75C1319.02 -174.46 1336.21 -194.91 1347.5 -213.02L1347.61 -213.2C1360.48 -233.23 1373.1 -256.72 1376.03 -288.03C1376.21 -290.28 1376.63 -295.52 1377.25 -300.27L1377.33 -300.82C1378.29 -306.51 1382.44 -311.17 1388.02 -312.76ZM1386.74 90.01C1386.73 90 1386.72 89.98 1386.71 89.97C1386.7 89.95 1386.69 89.94 1386.68 89.92C1386.7 89.95 1386.72 89.98 1386.74 90.01ZM1288.98 -123.53C1288.98 -123.51 1288.99 -123.5 1289 -123.49C1288.93 -123.62 1288.87 -123.75 1288.81 -123.89C1288.87 -123.75 1288.93 -123.63 1288.98 -123.53Z" fill="#E9F6FB" stroke="black" stroke-width="30" stroke-linejoin="round"/><path d="M1141.22 63.6C1240.3 200.44 1244.96 383.02 1232.18 482.69C1229.46 503.92 1216.15 521.93 1197.62 532.63L1109.19 583.69L1020.76 634.74C1002.23 645.44 979.98 647.96 960.23 639.71C867.52 600.94 711.73 505.61 642.77 351.38C637.54 339.69 633.14 328.67 629.52 318.28C663 283.27 757.68 219.2 822.52 184.9L864.85 160.47L907.17 136.03C969.29 97.03 1072.11 47.07 1119.18 35.57C1126.36 43.91 1133.71 53.23 1141.22 63.6Z" fill="#CC1A1C"/><path d="M1195.21 10.48L1231.21 2.24C1254.6 0 1277.15 -1.11 1298.59 -.48C1432.37 3.43 1522.97 74.61 1504.19 355.63L1429.36 398.84C1377.69 428.67 1312.37 388.84 1306.63 329.46C1290.46 161.94 1229.01 56.04 1195.21 10.48Z" fill="#CC1A1C"/><path d="M544.63 398.63L569.77 371.58C592.32 423.63 653.31 529.8 790.3 627.57C838.86 662.22 840.69 738.71 789.02 768.53L714.19 811.74C461.43 687.49 445.08 573.44 508.59 455.63C518.76 436.75 531 417.77 544.63 398.63Z" fill="#CC1A1C"/><path d="M1195.21 10.48L1231.21 2.24M1504.19 355.63L1429.36 398.84C1377.69 428.67 1312.37 388.84 1306.63 329.46C1290.46 161.94 1229.01 56.04 1195.21 10.48C1195.21 10.48 1027.2 -224.23 895.46 -25.41C882.74 -6.22 870.36 17.01 858.5 44.89C843.39 80.42 806.25 101.86 767.92 97.19C737.85 93.52 711.54 92.63 688.56 94.04C450.51 108.73 569.77 371.58 569.77 371.58C592.32 423.63 653.31 529.8 790.3 627.57C838.86 662.22 840.69 738.71 789.02 768.53L714.19 811.74M1231.21 2.24C1227.01 -267.45 1667.99 -257.37 1611.92 338.83C1610.41 354.83 1613.7 371.53 1621.74 385.44C1647.61 430.26 1666.58 463.1 1680.46 487.14C1701.16 523.01 1688.83 568.79 1652.97 589.49L1247.65 823.51L842.33 1057.52C806.46 1078.22 760.65 1066.01 739.95 1030.15C726.07 1006.11 707.11 973.26 681.23 928.45C673.2 914.53 660.38 903.33 645.77 896.63C101.42 647.1 313.18 260.15 544.63 398.63M1231.21 2.24C1254.6 0 1277.15 -1.11 1298.59 -.48M1504.19 355.63L1525.18 343.52C1544.64 332.28 1558.35 312.92 1560.5 290.55C1575.22 137.39 1519.84 12.58 1486.97 -32.57C1462.9 -68.83 1400.93 -132.74 1354.99 -103.71C1327.42 -86.29 1305.38 -58.22 1298.59 -.48M1504.19 355.63C1522.97 74.61 1432.37 3.43 1298.59 -.48M1119.18 35.57C1072.11 47.07 969.29 97.03 907.17 136.03L864.85 160.47L822.52 184.9C757.68 219.2 663 283.27 629.52 318.28M629.52 318.28C633.14 328.67 637.54 339.69 642.77 351.38C711.73 505.61 867.52 600.94 960.23 639.71C979.98 647.96 1002.23 645.44 1020.76 634.74L1109.19 583.69L1197.62 532.63C1216.15 521.93 1229.46 503.92 1232.18 482.69C1244.96 383.02 1240.3 200.44 1141.22 63.6C1133.71 53.23 1126.36 43.91 1119.18 35.57C993.17 -110.57 917.92 46.78 907.17 136.03M569.77 371.58L544.63 398.63M544.63 398.63C531 417.77 518.76 436.75 508.59 455.63M714.19 811.74L693.2 823.86C673.74 835.09 650.11 837.29 629.67 827.96C489.67 764.13 409.27 653.76 386.61 602.73C367.24 563.75 342.88 478.13 390.99 452.86C419.86 437.7 455.19 432.64 508.59 455.63M714.19 811.74C461.43 687.49 445.08 573.44 508.59 455.63M822.52 184.9C739.85 149.59 565.95 136.08 629.52 318.28" stroke="black" stroke-width="30"/><path fill-rule="evenodd" clip-rule="evenodd" d="M544.63 398.63C313.18 260.15 101.42 647.1 645.77 896.64C660.38 903.34 673.2 914.53 681.23 928.45C707.11 973.26 726.07 1006.11 739.95 1030.15C760.65 1066.01 806.46 1078.23 842.33 1057.52L1247.65 823.51L1652.97 589.5C1688.83 568.79 1701.16 523.01 1680.46 487.15C1666.58 463.11 1647.61 430.26 1621.74 385.45C1613.7 371.53 1610.41 354.83 1611.92 338.83C1667.99 -257.36 1227.01 -267.44 1231.21 2.24C1254.6 0 1277.15 -1.1 1298.59 -.48C1305.38 -58.21 1327.42 -86.28 1354.99 -103.7C1400.93 -132.73 1462.9 -68.82 1486.97 -32.56C1519.84 12.58 1575.22 137.39 1560.5 290.55C1558.35 312.92 1544.64 332.28 1525.18 343.52L1504.19 355.63L1429.36 398.84C1377.69 428.67 1312.37 388.85 1306.63 329.47C1290.46 161.94 1229.01 56.04 1195.21 10.48C1195.21 10.48 1027.2 -224.23 895.46 -25.41C882.74 -6.22 870.36 17.02 858.5 44.89C843.39 80.43 806.25 101.87 767.92 97.19C737.85 93.52 711.54 92.63 688.56 94.05C450.51 108.73 569.77 371.58 569.77 371.58C592.32 423.63 653.3 529.8 790.3 627.57C838.86 662.22 840.69 738.71 789.02 768.54L714.19 811.74L693.2 823.86C673.74 835.09 650.11 837.29 629.67 827.97C489.67 764.13 409.27 653.77 386.61 602.73C367.24 563.76 342.88 478.13 390.99 452.86C419.86 437.7 455.19 432.65 508.59 455.63C518.76 436.75 531 417.77 544.63 398.63ZM1020.76 634.74C1002.23 645.44 979.98 647.97 960.23 639.71C867.52 600.94 711.73 505.61 642.77 351.39C637.54 339.69 633.14 328.67 629.52 318.28C565.95 136.08 739.85 149.59 822.52 184.91L864.84 160.47L907.17 136.04C917.92 46.78 993.17 -110.57 1119.18 35.58C1126.36 43.91 1133.71 53.23 1141.22 63.6C1240.3 200.44 1244.96 383.03 1232.18 482.7C1229.46 503.92 1216.15 521.94 1197.62 532.64L1109.19 583.69L1020.76 634.74Z" fill="#FBEA5B"/><path d="M569.77 371.58L544.63 398.63M714.19 811.74L789.02 768.54C840.69 738.71 838.86 662.22 790.3 627.57C653.3 529.8 592.32 423.63 569.77 371.58C569.77 371.58 450.51 108.73 688.56 94.05C711.54 92.63 737.85 93.52 767.92 97.19C806.25 101.87 843.39 80.43 858.5 44.89C870.36 17.02 882.74 -6.22 895.46 -25.41C1027.2 -224.23 1195.21 10.48 1195.21 10.48C1229.01 56.04 1290.46 161.94 1306.63 329.47C1312.37 388.85 1377.69 428.67 1429.36 398.84L1504.19 355.63M544.63 398.63C313.18 260.15 101.42 647.1 645.77 896.64C660.38 903.34 673.2 914.53 681.23 928.45C707.11 973.26 726.07 1006.11 739.95 1030.15C760.65 1066.01 806.46 1078.23 842.33 1057.52L1247.65 823.51L1652.97 589.5C1688.83 568.79 1701.16 523.01 1680.46 487.15C1666.58 463.11 1647.61 430.26 1621.74 385.45C1613.7 371.53 1610.41 354.83 1611.92 338.83C1667.99 -257.36 1227.01 -267.44 1231.21 2.24M544.63 398.63C531 417.77 518.76 436.75 508.59 455.63M714.19 811.74L693.2 823.86C673.74 835.09 650.11 837.29 629.67 827.97C489.67 764.13 409.27 653.77 386.61 602.73C367.24 563.76 342.88 478.13 390.99 452.86C419.86 437.7 455.19 432.65 508.59 455.63M714.19 811.74C461.42 687.49 445.08 573.44 508.59 455.63M629.52 318.28C663 283.27 757.68 219.21 822.52 184.91L864.84 160.47L907.17 136.04C969.29 97.03 1072.11 47.07 1119.18 35.58M1119.18 35.58C1126.36 43.91 1133.71 53.23 1141.22 63.6C1240.3 200.44 1244.96 383.03 1232.18 482.7C1229.46 503.92 1216.15 521.94 1197.62 532.64L1109.19 583.69L1020.76 634.74C1002.23 645.44 979.98 647.97 960.23 639.71C867.52 600.94 711.73 505.61 642.77 351.39C637.54 339.69 633.14 328.67 629.52 318.28C565.95 136.08 739.85 149.59 822.52 184.91M1195.21 10.48L1231.21 2.24M1231.21 2.24C1254.6 0 1277.15 -1.1 1298.59 -.48M1504.19 355.63L1525.18 343.52C1544.64 332.28 1558.35 312.92 1560.5 290.55C1575.22 137.39 1519.84 12.58 1486.97 -32.56C1462.9 -68.82 1400.93 -132.73 1354.99 -103.7C1327.42 -86.28 1305.38 -58.21 1298.59 -.48M1504.19 355.63C1522.97 74.61 1432.37 3.43 1298.59 -.48M907.17 136.04C917.92 46.78 993.17 -110.57 1119.18 35.58" stroke="black" stroke-width="30"/><path d="M883.64 943.2C881.2 954.87 869.14 961.83 857.81 958.11L812.67 943.26C803.15 940.13 797.41 930.43 799.26 920.57L808.24 872.78C810.5 860.74 822.97 853.54 834.53 857.61L880.4 873.73C889.87 877.05 895.4 886.87 893.35 896.69L883.64 943.2Z" fill="#55E748"/><path d="M883.64 943.2C881.2 954.87 869.14 961.83 857.81 958.11L812.67 943.26C803.15 940.13 797.41 930.43 799.26 920.57L808.24 872.78C810.5 860.74 822.97 853.54 834.53 857.61L880.4 873.73C889.87 877.05 895.4 886.87 893.35 896.69L883.64 943.2Z" stroke="black" stroke-width="30"/><path d="M1089.79 843.42L1006.76 816.12L1023.28 728.22L1107.67 757.87L1089.79 843.42Z" fill="#55E748"/><path d="M1089.79 843.42L1006.76 816.12L1023.28 728.22L1107.67 757.87L1089.79 843.42Z" stroke="black" stroke-width="30"/><path d="M1343.83 696.76L1260.8 669.46L1277.31 581.55L1361.7 611.2L1343.83 696.76Z" fill="#55E748"/><path d="M1343.83 696.76L1260.8 669.46L1277.31 581.55L1361.7 611.2L1343.83 696.76Z" stroke="black" stroke-width="30"/><path d="M1559.14 553.2C1556.7 564.87 1544.64 571.83 1533.31 568.11L1488.17 553.26C1478.65 550.13 1472.91 540.43 1474.77 530.57L1483.74 482.78C1486.01 470.74 1498.47 463.55 1510.03 467.61L1555.91 483.73C1565.37 487.05 1570.9 496.87 1568.85 506.69L1559.14 553.2Z" fill="#55E748"/><path d="M1559.14 553.2C1556.7 564.87 1544.64 571.83 1533.31 568.11L1488.17 553.26C1478.65 550.13 1472.91 540.43 1474.77 530.57L1483.74 482.78C1486.01 470.74 1498.47 463.55 1510.03 467.61L1555.91 483.73C1565.37 487.05 1570.9 496.87 1568.85 506.69L1559.14 553.2Z" stroke="black" stroke-width="30"/><path d="M1041.72 466.83L925.36 401.04L925.21 265.02L1042.92 333.17L1041.72 466.83Z" fill="#55E748"/><path d="M1041.72 466.83L925.36 401.04L925.21 265.02L1042.92 333.17L1041.72 466.83Z" stroke="black" stroke-width="30"/><path d="M736.29 700.36L631.27 692.16L570.82 603.44L677.77 612.77L736.29 700.36Z" fill="#FBEA5B" stroke="black" stroke-width="30"/><path d="M1396.68 319.07L1442.09 224.02L1395.48 127.31L1350.08 224.6L1396.68 319.07Z" fill="#FBEA5B" stroke="black" stroke-width="30"/><path d="M830.11 -93.48L792.24 34.72L662.29 3.42L624.77 -127.33L711.25 -105.57L735.64 -191.33L830.11 -93.48Z" fill="#55E748" stroke="black" stroke-width="30"/></g><defs><clipPath id="clip0_4368_3929"><rect width="3000" height="3000" fill="white" transform="translate(0 8.05) rotate(-.15)"/></clipPath></defs></svg>