<svg width="3009" height="3009" viewBox="0 0 3009 3009" fill="none" xmlns="http://www.w3.org/2000/svg"><g clip-path="url(#clip0_4368_3927)"><path d="M209.2 813.34C204.9 817.51 203.5 823.84 205.63 829.44C205.82 829.93 206 830.37 206.12 830.66C206.26 831 206.32 831.13 206.38 831.3L206.69 832.05C209.94 839.83 215.33 848.69 222.12 858.24C222.13 858.25 222.13 858.26 222.14 858.27C233.34 873.92 247.43 888.06 263.97 900.45L263.97 900.45C281.07 913.47 299.05 923.31 317.56 929.41L317.56 929.41C331.81 934.17 345.78 937.57 359.3 939.54C359.43 939.55 359.56 939.57 359.69 939.59C360.47 939.68 362.58 939.97 364.45 940.11C364.51 940.12 364.59 940.13 364.66 940.13C364.77 940.15 364.93 940.16 365.12 940.18C368.2 940.48 371.46 940.6 375.66 940.54C375.69 940.54 375.72 940.54 375.75 940.54C387.6 940.29 400.06 938.55 412.83 935.58C412.85 935.57 412.87 935.57 412.89 935.56C413.7 935.37 414.62 935.86 414.87 936.78C415.07 937.68 414.49 938.57 413.66 938.77L413.61 938.78C401.02 941.96 389.1 943.73 378.23 944.13C376.85 944.18 375.48 944.43 374.16 944.85C363.12 948.43 354.62 953.88 349.59 962.1C344.95 969.69 344.71 977.41 344.88 982.35L344.92 983.3L344.93 983.39C345.21 988.72 347.04 994.71 352.62 1001.26C352.8 1001.47 352.99 1001.67 353.17 1001.87C363.72 1012.94 375.99 1020.4 390.37 1022.85C404.44 1025.25 418.9 1022.56 433.57 1016.41C433.76 1016.34 433.95 1016.27 434.14 1016.19C434.3 1016.14 434.38 1016.12 434.4 1016.12L434.4 1016.11C446.93 1013.54 467.22 1006.16 498.79 986.77C499.16 986.57 499.51 986.37 499.82 986.17C500.1 986.03 500.41 985.98 500.76 986.04C501.13 986.1 501.46 986.26 501.69 986.48L501.79 986.58L501.8 986.6C501.83 986.63 501.89 986.7 502.01 986.89C502.44 987.63 502.18 988.62 501.47 989.05L501.43 989.08C475.57 1005.04 455.54 1014.31 440 1018.3L439.4 1018.47C436.41 1019.37 433.77 1021.18 431.86 1023.65C428.24 1028.33 425.22 1033.43 422.94 1038.74L422.49 1039.81L422.36 1040.13C420.89 1043.96 419.69 1048.12 419.38 1052.31C419.09 1056.28 419.51 1061.79 422.94 1066.82L423.28 1067.3L423.31 1067.34C425.93 1070.91 432.39 1079.55 446.74 1082.92C460.14 1086.07 478.04 1084.07 502.8 1074.03C502.81 1074.02 502.81 1074.02 502.82 1074.02C513.1 1069.82 524.16 1064.41 535.57 1058C535.91 1057.81 536.24 1057.61 536.56 1057.39C537.35 1056.87 538.07 1056.46 539.63 1055.53L539.63 1055.53C540.97 1054.76 542.25 1053.95 543.22 1053.33L543.22 1053.33C552.52 1047.45 562.39 1041.32 564.81 1040.08C564.86 1040.06 564.9 1040.04 564.94 1040.02C565.25 1039.85 565.56 1039.82 565.88 1039.88C566.24 1039.95 566.57 1040.14 566.81 1040.41C566.82 1040.42 566.83 1040.43 566.84 1040.44C566.8 1040.4 566.9 1040.5 567.07 1040.81C567.45 1041.56 567.16 1042.59 566.35 1043.02L566.35 1043.02C564.18 1044.17 557 1048.55 545.06 1056.09L544.86 1056.22C544.17 1056.67 543.81 1056.9 543.5 1057.08C539.63 1059.3 536.96 1063.12 536.19 1067.51C536.08 1068.18 536.02 1068.5 535.98 1068.8L535.79 1069.9L535.74 1070.16C533.79 1082.56 536.37 1093.74 543.53 1103.9C543.71 1104.17 543.85 1104.37 543.92 1104.46C544.01 1104.6 544.11 1104.72 544.19 1104.82C544.61 1105.39 545.07 1105.93 545.57 1106.45L545.64 1106.52C548.01 1108.93 551.01 1110.38 554.13 1110.84C554.14 1110.84 554.14 1110.84 554.15 1110.85C555.67 1111.12 557.29 1111.22 559.01 1111.16C562.29 1111.04 566.06 1110.3 570.49 1108.76C570.93 1108.63 571.34 1108.48 571.7 1108.34C585.93 1103.55 597.12 1093.39 609.68 1082.27L609.68 1082.27C619.36 1073.73 631.01 1063.47 646.28 1052.44C646.37 1052.37 646.46 1052.3 646.55 1052.24C647.53 1051.49 648.55 1050.66 649.19 1050.15C650.71 1048.97 650.97 1048.73 651.69 1048.21C652.03 1047.96 652.37 1047.7 652.69 1047.43C659.7 1041.41 663.06 1038.14 665.55 1035.64L666.74 1034.47C666.78 1034.43 666.82 1034.4 666.85 1034.36L667.09 1034.15C667.7 1033.65 668.68 1033.68 669.29 1034.3L669.29 1034.3C669.91 1034.93 669.93 1035.97 669.24 1036.65L668.78 1037.1L668.53 1037.36C667.22 1038.7 664.68 1041.35 660.03 1045.49L659.55 1045.93C654.75 1050.6 653.61 1057.92 656.83 1063.85C656.98 1064.13 657.12 1064.36 657.22 1064.53C657.3 1064.65 657.36 1064.75 657.42 1064.83C657.85 1065.55 658.35 1066.23 658.9 1066.87C662.63 1071.19 667.38 1072.54 670.41 1072.95C673.44 1073.36 676.21 1073.06 678.17 1072.72C682.12 1072.03 686 1070.6 688.72 1069.49C688.74 1069.48 688.76 1069.47 688.79 1069.46C704.91 1062.72 721.45 1048.75 736.92 1030.61C736.93 1030.6 736.94 1030.59 736.95 1030.58C746.63 1019.17 752.55 1006.57 753.94 992.51C754.58 985.99 750.91 979.8 744.88 977.24L572.63 903.94L572.61 903.93C562.44 899.62 552.77 894.61 543.6 888.99C540.92 887.32 538.37 885.7 535.92 884.05C516.08 870.67 498.92 854.44 484.74 836.13C484.73 836.11 484.71 836.1 484.7 836.08C481.7 832.24 478.86 828.27 476.12 824.17C476.1 824.14 476.07 824.11 476.05 824.07C475.97 823.93 475.83 823.71 475.66 823.45C472.47 818.57 466.75 815.98 460.98 816.8C451.82 818.11 442.47 819.57 432.98 821.3L432.96 821.31L430.53 821.76C404.64 826.45 370.62 832.5 342.93 833.44L342.72 833.45C311.99 834.91 277.05 833.87 239.53 816.63C236.89 815.38 230.93 812.55 225.4 810.25C219.87 807.95 213.5 809.16 209.2 813.34ZM438.87 1013.42C439.12 1013.2 439.36 1012.98 439.57 1012.77C439.34 1013 439.11 1013.21 438.87 1013.42ZM437.06 1014.76C437.39 1014.55 437.7 1014.33 438 1014.12C438.13 1014.01 438.27 1013.91 438.4 1013.8C437.95 1014.16 437.5 1014.48 437.06 1014.76Z" fill="#E9F6FB" stroke="black" stroke-width="30" stroke-linejoin="round"/><path d="M436.55 804.26C432.25 808.43 430.85 814.76 432.98 820.36C433.14 820.8 433.3 821.18 433.4 821.41C433.53 821.71 433.56 821.78 433.61 821.9C436.09 828.05 440.18 834.9 445.23 842.13L446.25 843.59L446.28 843.62C455.24 856.14 466.48 867.41 479.63 877.27L479.63 877.27C493.23 887.63 507.59 895.5 522.44 900.39L522.44 900.39C533.74 904.17 544.84 906.88 555.62 908.44C555.75 908.46 555.87 908.48 556 908.49C556.48 908.55 558.23 908.79 559.79 908.91C559.82 908.91 559.85 908.91 559.88 908.92C553.91 911.78 549 915.71 545.7 921.11C541.3 928.3 541.39 935.59 541.58 939.53C541.58 939.56 541.58 939.59 541.58 939.62C541.83 944.36 543.44 949.54 547.93 955L548.37 955.54L548.64 955.85C548.73 955.95 548.83 956.05 548.92 956.15C557.54 965.19 567.73 971.45 579.8 973.51C589.41 975.14 599.12 973.93 608.79 970.74C606.4 974.09 604.38 977.67 602.78 981.39L602.4 982.27L602.28 982.59C601.07 985.74 600.02 989.33 599.74 993.04C599.48 996.55 599.83 1001.7 603.09 1006.47L603.41 1006.93L603.44 1006.96C605.64 1009.98 611.29 1017.49 623.63 1020.39C635.04 1023.07 649.77 1021.26 669.41 1013.29C669.42 1013.28 669.43 1013.28 669.43 1013.28C676.43 1010.43 683.84 1006.88 691.47 1002.74C691.29 1003.35 691.14 1003.97 691.03 1004.6C690.92 1005.18 690.89 1005.42 690.85 1005.62L690.71 1006.45L690.67 1006.72C689.01 1017.22 691.21 1026.8 697.27 1035.42C697.44 1035.67 697.57 1035.85 697.63 1035.94C697.69 1036.02 697.74 1036.09 697.79 1036.16C698.23 1036.75 698.71 1037.33 699.24 1037.87L699.3 1037.92C701.65 1040.32 704.62 1041.76 707.71 1042.24L708.25 1042.33C709.53 1042.52 710.85 1042.58 712.21 1042.53C715.15 1042.42 718.41 1041.77 722.08 1040.5C722.45 1040.38 722.8 1040.26 723.12 1040.14C734.96 1036.13 744.19 1027.68 753.83 1019.15L753.83 1019.15C761.4 1012.48 770.39 1004.56 782.18 996.04C782.27 995.98 782.36 995.91 782.45 995.84C782.96 995.45 783.49 995.03 783.93 994.68C783.51 997.76 784.04 1000.98 785.61 1003.87C785.69 1004 785.76 1004.13 785.82 1004.24C785.89 1004.35 785.95 1004.45 786 1004.54C786.1 1004.7 786.19 1004.84 786.25 1004.93C786.66 1005.59 787.12 1006.22 787.63 1006.8C791.25 1011 795.83 1012.28 798.66 1012.66C801.49 1013.04 804.02 1012.75 805.72 1012.46C809.16 1011.86 812.45 1010.64 814.65 1009.74C814.67 1009.73 814.7 1009.72 814.72 1009.71C828 1004.16 841.31 992.82 853.55 978.47C853.56 978.46 853.57 978.45 853.58 978.43C861.5 969.09 866.46 958.64 867.61 946.89C868.25 940.37 864.59 934.19 858.56 931.62L724.01 874.36L723.99 874.35C716.17 871.04 708.75 867.19 701.7 862.87C699.65 861.59 697.72 860.36 695.87 859.13C680.67 848.87 667.53 836.44 656.66 822.41C656.65 822.39 656.64 822.38 656.63 822.36C654.35 819.44 652.19 816.42 650.09 813.3C650.05 813.23 650 813.15 649.94 813.05C649.88 812.96 649.81 812.84 649.72 812.72C646.54 807.84 640.81 805.25 635.05 806.07C627.87 807.1 620.51 808.24 613.05 809.61L613.02 809.61L611.09 809.97C590.82 813.64 564.52 818.31 543.18 819.03L542.98 819.04C519.2 820.17 492.54 819.35 463.96 806.23C461.93 805.27 457.18 803.01 452.75 801.17L452.23 800.97C446.83 798.95 440.72 800.21 436.55 804.26ZM786.01 1004.53C786 1004.51 785.99 1004.5 785.98 1004.48C785.97 1004.47 785.96 1004.45 785.95 1004.44C785.97 1004.47 785.99 1004.5 786.01 1004.53ZM649.95 813.1C649.96 813.11 649.97 813.12 649.98 813.13C649.89 813.01 649.81 812.89 649.73 812.77C649.81 812.89 649.89 813 649.95 813.1Z" fill="#E9F6FB" stroke="black" stroke-width="30" stroke-linejoin="round"/><path d="M1752.45 -77.66C1758.22 -79.3 1764.4 -77.35 1768.18 -72.7C1768.52 -72.29 1768.81 -71.92 1769 -71.66C1769.22 -71.37 1769.31 -71.26 1769.42 -71.12L1769.91 -70.48C1775.03 -63.77 1780.01 -54.68 1784.88 -44.02C1784.88 -44.01 1784.89 -44 1784.89 -43.99C1792.85 -26.46 1798.05 -7.19 1800.51 13.33L1800.51 13.33C1803.24 34.65 1802.77 55.13 1798.8 74.22L1798.8 74.22C1795.79 88.94 1791.75 102.74 1786.69 115.43C1786.65 115.56 1786.6 115.68 1786.55 115.8C1786.23 116.52 1785.43 118.49 1784.62 120.17C1784.59 120.23 1784.57 120.3 1784.53 120.38C1784.49 120.48 1784.42 120.62 1784.34 120.79C1783.06 123.61 1781.54 126.49 1779.39 130.1C1779.37 130.12 1779.36 130.15 1779.34 130.18C1773.2 140.31 1765.47 150.24 1756.5 159.81C1756.49 159.82 1756.47 159.84 1756.46 159.85C1755.89 160.46 1755.86 161.5 1756.53 162.17C1757.21 162.8 1758.26 162.74 1758.86 162.12L1758.89 162.09C1767.93 152.77 1775.43 143.33 1781.21 134.12C1781.95 132.95 1782.84 131.88 1783.87 130.96C1792.49 123.19 1801.46 118.55 1811.09 118.31C1819.98 118.08 1826.79 121.73 1830.99 124.35L1831.79 124.86L1831.87 124.91C1836.34 127.82 1840.61 132.4 1843.49 140.51C1843.58 140.77 1843.66 141.03 1843.74 141.29C1848.06 155.96 1848.39 170.31 1843.32 184C1838.35 197.38 1828.8 208.56 1816.13 218.19C1815.98 218.32 1815.82 218.45 1815.67 218.57C1815.54 218.69 1815.48 218.75 1815.47 218.76L1815.47 218.76C1806.97 228.32 1790.43 242.2 1757.86 259.85C1757.5 260.07 1757.15 260.27 1756.83 260.44C1756.56 260.62 1756.36 260.86 1756.24 261.19C1756.1 261.54 1756.08 261.9 1756.16 262.22L1756.2 262.35L1756.2 262.37C1756.21 262.41 1756.25 262.5 1756.35 262.7C1756.78 263.44 1757.76 263.71 1758.49 263.31L1758.54 263.29C1785.29 248.87 1803.34 236.16 1814.56 224.7L1815 224.26C1817.28 222.13 1820.16 220.75 1823.26 220.32C1829.12 219.53 1835.05 219.47 1840.79 220.14L1841.94 220.29L1842.28 220.34C1846.33 220.98 1850.54 222.03 1854.32 223.85C1857.91 225.58 1862.47 228.7 1865.1 234.19L1865.35 234.72L1865.37 234.77C1867.16 238.82 1871.41 248.74 1867.16 262.85C1863.18 276.03 1852.49 290.53 1831.42 306.95C1831.41 306.95 1831.41 306.96 1831.4 306.96C1822.63 313.77 1812.41 320.64 1801.15 327.32C1800.82 327.52 1800.48 327.7 1800.13 327.87C1799.29 328.29 1798.57 328.71 1796.99 329.6L1796.99 329.6C1795.65 330.37 1794.31 331.08 1793.29 331.61L1793.29 331.61C1783.54 336.73 1773.3 342.2 1771.01 343.68C1770.98 343.71 1770.94 343.73 1770.9 343.76C1770.6 343.95 1770.41 344.19 1770.31 344.51C1770.19 344.85 1770.19 345.24 1770.3 345.58C1770.3 345.59 1770.31 345.6 1770.31 345.61C1770.3 345.57 1770.34 345.7 1770.52 346C1770.98 346.7 1772.02 346.97 1772.8 346.48L1772.8 346.48C1774.88 345.18 1782.26 341.15 1794.75 334.58L1794.96 334.47C1795.7 334.1 1796.08 333.9 1796.39 333.72C1800.25 331.48 1804.9 331.08 1809.08 332.61C1809.72 332.85 1810.02 332.96 1810.3 333.07L1811.35 333.46L1811.6 333.55C1823.32 338.05 1831.71 345.88 1836.92 357.16C1837.07 357.45 1837.17 357.67 1837.22 357.78C1837.29 357.93 1837.34 358.07 1837.4 358.19C1837.68 358.84 1837.92 359.51 1838.11 360.2L1838.14 360.29C1839.04 363.56 1838.8 366.88 1837.64 369.81C1837.63 369.82 1837.63 369.82 1837.63 369.83C1837.11 371.28 1836.39 372.74 1835.47 374.2C1833.73 376.97 1831.2 379.87 1827.65 382.94C1827.32 383.25 1826.99 383.53 1826.68 383.78C1815.42 393.71 1801.03 398.31 1785.12 403.63L1785.12 403.63C1772.88 407.75 1758.17 412.7 1740.98 420.41C1740.88 420.46 1740.78 420.5 1740.67 420.55C1739.54 421.03 1738.31 421.49 1737.55 421.79C1735.77 422.52 1735.43 422.62 1734.62 422.99C1734.23 423.16 1733.84 423.32 1733.44 423.46C1724.73 426.52 1720.21 427.79 1716.8 428.7L1715.19 429.15C1715.14 429.17 1715.09 429.18 1715.04 429.19L1714.74 429.29C1714.01 429.57 1713.54 430.44 1713.77 431.27L1713.77 431.27C1714.01 432.12 1714.9 432.66 1715.83 432.41L1716.45 432.23L1716.8 432.14C1718.61 431.68 1722.18 430.8 1728.09 428.85L1728.71 428.66C1735.15 426.83 1742.06 429.5 1745.59 435.26C1745.75 435.53 1745.88 435.76 1745.98 435.94C1746.05 436.06 1746.1 436.17 1746.15 436.25C1746.55 436.99 1746.9 437.76 1747.17 438.56C1749.05 443.95 1747.84 448.74 1746.69 451.56C1745.52 454.39 1743.87 456.64 1742.6 458.17C1740.03 461.25 1736.85 463.9 1734.53 465.69C1734.51 465.7 1734.49 465.72 1734.47 465.74C1720.57 476.33 1700.21 483.67 1676.76 488C1676.75 488 1676.74 488 1676.72 488.01C1661.99 490.68 1648.12 489.52 1635.25 483.68C1629.29 480.98 1625.77 474.71 1626.56 468.21L1649.2 282.38L1649.2 282.36C1650.56 271.39 1651.05 260.52 1650.77 249.77C1650.66 246.61 1650.54 243.59 1650.34 240.65C1648.67 216.78 1643.19 193.8 1634.42 172.36C1634.42 172.34 1634.41 172.32 1634.4 172.31C1632.57 167.78 1630.56 163.34 1628.38 158.91C1628.37 158.88 1628.35 158.85 1628.33 158.81C1628.25 158.67 1628.12 158.44 1627.98 158.16C1625.35 152.96 1625.97 146.71 1629.57 142.12C1635.28 134.84 1641.22 127.47 1647.46 120.13L1647.48 120.11L1649.08 118.23C1666.09 98.16 1688.34 71.72 1703 48.2L1703.11 48.03C1719.74 22.15 1736.32 -8.63 1740.14 -49.74C1740.38 -52.66 1740.91 -59.24 1741.68 -65.17C1742.45 -71.11 1746.69 -76.02 1752.45 -77.66ZM1810.89 221.28C1810.58 221.39 1810.27 221.49 1809.98 221.57C1810.3 221.48 1810.6 221.38 1810.89 221.28ZM1812.96 220.38C1812.62 220.56 1812.27 220.73 1811.94 220.87C1811.78 220.94 1811.62 221.01 1811.47 221.07C1812 220.86 1812.5 220.63 1812.96 220.38Z" fill="#E9F6FB" stroke="black" stroke-width="30" stroke-linejoin="round"/><path d="M1630.92 114.69C1636.68 113.05 1642.86 115 1646.65 119.65C1646.94 120.01 1647.19 120.34 1647.35 120.54C1647.55 120.8 1647.59 120.86 1647.67 120.96C1651.75 126.19 1655.65 133.15 1659.38 141.14L1660.13 142.76L1660.14 142.79C1666.51 156.81 1670.65 172.19 1672.61 188.51L1672.61 188.51C1674.78 205.46 1674.42 221.83 1671.23 237.14L1671.23 237.14C1668.85 248.81 1665.64 259.78 1661.61 269.89C1661.56 270.02 1661.51 270.14 1661.46 270.26C1661.27 270.7 1660.61 272.33 1659.93 273.75C1659.92 273.77 1659.91 273.8 1659.89 273.82C1665.36 270.09 1671.21 267.8 1677.54 267.64C1685.97 267.43 1692.23 271.15 1695.56 273.28C1695.58 273.3 1695.61 273.31 1695.63 273.33C1699.61 275.91 1703.29 279.9 1705.78 286.52L1706.02 287.17L1706.15 287.56C1706.19 287.69 1706.23 287.82 1706.27 287.95C1709.8 299.94 1710.12 311.89 1705.87 323.38C1702.48 332.51 1696.58 340.31 1688.97 347.1C1693.07 346.7 1697.19 346.74 1701.2 347.21L1702.15 347.33L1702.5 347.38C1705.83 347.91 1709.46 348.79 1712.81 350.41C1715.98 351.94 1720.27 354.82 1722.77 360.02L1723 360.53L1723.02 360.57C1724.53 363.99 1728.22 372.63 1724.55 384.78C1721.17 396 1712.24 407.84 1695.51 420.87C1695.51 420.87 1695.5 420.88 1695.49 420.88C1689.53 425.51 1682.75 430.16 1675.35 434.7C1675.97 434.84 1676.58 435.02 1677.18 435.24C1677.74 435.45 1677.96 435.53 1678.15 435.6L1678.94 435.9L1679.19 435.99C1689.12 439.81 1696.31 446.5 1700.75 456.06C1700.88 456.33 1700.98 456.54 1701.02 456.64C1701.06 456.72 1701.09 456.81 1701.13 456.88C1701.43 457.56 1701.68 458.26 1701.89 459L1701.91 459.07C1702.8 462.3 1702.57 465.59 1701.44 468.51L1701.24 469.02C1700.77 470.22 1700.16 471.4 1699.44 472.56C1697.88 475.05 1695.68 477.54 1692.74 480.09C1692.46 480.35 1692.18 480.59 1691.91 480.8C1682.52 489.06 1670.59 492.83 1658.38 496.91L1658.38 496.91C1648.82 500.13 1637.46 503.95 1624.2 509.9C1624.09 509.95 1623.99 509.99 1623.89 510.04C1623.29 510.29 1622.66 510.54 1622.14 510.74C1625.02 511.92 1627.54 513.99 1629.25 516.79C1629.33 516.93 1629.41 517.05 1629.47 517.16C1629.53 517.27 1629.59 517.37 1629.64 517.46C1629.73 517.63 1629.81 517.78 1629.86 517.88C1630.22 518.56 1630.53 519.27 1630.79 520C1632.61 525.24 1631.43 529.85 1630.35 532.49C1629.26 535.13 1627.74 537.18 1626.64 538.5C1624.4 541.18 1621.7 543.42 1619.82 544.87C1619.8 544.89 1619.78 544.9 1619.76 544.92C1608.32 553.64 1591.84 559.5 1573.29 562.93C1573.27 562.93 1573.26 562.93 1573.24 562.94C1561.19 565.13 1549.67 564.2 1538.91 559.32C1532.94 556.61 1529.42 550.35 1530.21 543.84L1547.9 398.69L1547.9 398.67C1548.94 390.24 1549.32 381.88 1549.1 373.62C1549.02 371.21 1548.92 368.92 1548.77 366.7C1547.49 348.42 1543.3 330.81 1536.58 314.39C1536.57 314.37 1536.56 314.35 1536.56 314.33C1535.17 310.9 1533.64 307.52 1531.98 304.14C1531.94 304.07 1531.89 303.99 1531.84 303.89C1531.79 303.79 1531.72 303.67 1531.66 303.53C1529.03 298.33 1529.64 292.08 1533.24 287.5C1537.72 281.79 1542.39 276 1547.3 270.22L1547.32 270.2L1548.6 268.7C1561.91 252.99 1579.11 232.54 1590.4 214.43L1590.51 214.25C1603.38 194.22 1615.99 170.73 1618.92 139.42C1619.11 137.17 1619.52 131.93 1620.14 127.18L1620.22 126.63C1621.18 120.93 1625.33 116.28 1630.92 114.69ZM1629.63 517.46C1629.62 517.45 1629.61 517.43 1629.6 517.41C1629.6 517.4 1629.59 517.39 1629.58 517.37C1629.59 517.4 1629.61 517.43 1629.63 517.46ZM1531.87 303.92C1531.88 303.94 1531.88 303.95 1531.89 303.96C1531.83 303.83 1531.76 303.7 1531.7 303.56C1531.77 303.7 1531.82 303.82 1531.87 303.92Z" fill="#E9F6FB" stroke="black" stroke-width="30" stroke-linejoin="round"/><path d="M648.16 367.47C725.71 540.89 913.05 639.85 997.02 667.65L1114.58 599.77L1232.14 531.9C1250.05 445.28 1258.02 233.56 1146.62 79.69C1139.1 69.31 1131.76 60 1124.57 51.66C1077.51 63.16 974.68 113.12 912.56 152.12L870.24 176.56L827.92 200.99C763.08 235.29 668.4 299.36 634.91 334.37C638.53 344.76 642.93 355.78 648.16 367.47Z" fill="#7600ED"/><path d="M575.16 387.67L550.03 414.72C536.39 433.86 524.16 452.84 513.98 471.72C450.48 589.53 466.82 703.58 719.58 827.83L914.73 715.16C691.98 603 603.42 452.87 575.16 387.67Z" fill="#7600ED"/><path d="M1236.6 18.33L1200.61 26.57C1242.94 83.64 1328.68 235.4 1314.44 484.39L1509.59 371.72C1528.36 90.7 1437.76 19.52 1303.99 15.61C1282.54 14.98 1259.99 16.08 1236.6 18.33Z" fill="#7600ED"/><path d="M575.16 387.67L550.03 414.72M719.58 827.83L914.73 715.16C691.98 603 603.42 452.87 575.16 387.67C575.16 387.67 455.9 124.82 693.95 110.13C732.64 107.75 780.76 111.91 840.37 124.83C858.99 66.75 879.45 22.99 900.86 -9.33C1032.6 -208.14 1200.61 26.57 1200.61 26.57C1242.94 83.64 1328.68 235.4 1314.44 484.39L1509.59 371.72M550.03 414.72C315.37 274.32 100.95 673.99 674.19 923C774.64 1096.99 782.79 1111.09 782.79 1111.09L1253.04 839.6L1723.3 568.09C1723.3 568.09 1715.16 553.99 1614.7 380C1685.67 -240.94 1232.34 -255.09 1236.6 18.33M550.03 414.72C536.39 433.86 524.16 452.84 513.98 471.72M719.58 827.83L667.85 857.69C507.56 797.25 416.38 673.71 392 618.82C372.63 579.84 348.27 494.21 396.39 468.95C425.25 453.79 460.58 448.73 513.98 471.72M719.58 827.83C466.82 703.58 450.48 589.53 513.98 471.72M634.91 334.37C668.4 299.36 763.08 235.29 827.92 200.99L870.24 176.56L912.56 152.12C974.68 113.12 1077.51 63.16 1124.57 51.66M1124.57 51.66C1131.76 60 1139.1 69.31 1146.62 79.69C1258.02 233.56 1250.05 445.28 1232.14 531.9L1114.58 599.77L997.02 667.65C913.05 639.85 725.71 540.89 648.16 367.47C642.93 355.78 638.53 344.76 634.91 334.37C571.35 152.17 745.25 165.68 827.92 200.99M1200.61 26.57L1236.6 18.33M1236.6 18.33C1259.99 16.08 1282.54 14.98 1303.99 15.61M1509.59 371.72L1561.31 341.86C1589.12 172.82 1527.72 32.08 1492.37 -16.48C1468.3 -52.74 1406.32 -116.65 1360.38 -87.62C1332.82 -70.2 1310.78 -42.13 1303.99 15.61M1509.59 371.72C1528.36 90.7 1437.76 19.52 1303.99 15.61M912.56 152.12C923.31 62.87 998.57 -94.48 1124.57 51.66" stroke="black" stroke-width="30"/><path fill-rule="evenodd" clip-rule="evenodd" d="M550.03 414.73C315.37 274.33 100.96 674 674.2 923C774.64 1096.99 782.79 1111.1 782.79 1111.1L1253.05 839.6L1723.3 568.1C1723.3 568.1 1715.16 553.99 1614.7 380C1685.67 -240.94 1232.34 -255.09 1236.6 18.33C1259.99 16.09 1282.54 14.99 1303.99 15.61C1310.78 -42.12 1332.82 -70.19 1360.38 -87.61C1406.32 -116.64 1468.3 -52.73 1492.37 -16.47C1527.72 32.09 1589.12 172.82 1561.32 341.86L1509.59 371.72L1314.44 484.39C1328.69 235.41 1242.95 83.64 1200.61 26.57C1200.61 26.57 1032.6 -208.14 900.86 -9.32C879.45 22.99 859 66.75 840.38 124.83C780.77 111.92 732.64 107.75 693.95 110.14C455.9 124.82 575.16 387.67 575.16 387.67C603.42 452.88 691.98 603.01 914.73 715.16L719.58 827.83L667.86 857.7C507.56 797.26 416.38 673.72 392 618.82C372.64 579.85 348.28 494.22 396.39 468.95C425.25 453.79 460.58 448.74 513.98 471.72C524.16 452.84 536.39 433.86 550.03 414.73ZM997.02 667.65C913.05 639.85 725.71 540.89 648.16 367.48C642.93 355.79 638.54 344.76 634.91 334.37C571.35 152.18 745.25 165.68 827.92 201L870.24 176.56L912.56 152.13C923.32 62.87 998.57 -94.48 1124.57 51.67C1131.76 60 1139.11 69.32 1146.62 79.69C1258.03 233.56 1250.06 445.28 1232.15 531.9L1114.59 599.78L997.02 667.65Z" fill="#FBEA5B"/><path d="M805.89 65.11L689.53 -.69L689.38 -136.71L807.09 -68.56L805.89 65.11Z" fill="#55E748"/><path d="M575.16 387.67L550.03 414.73M719.58 827.83L914.73 715.16C691.98 603.01 603.42 452.88 575.16 387.67C575.16 387.67 455.9 124.82 693.95 110.14C732.64 107.75 780.77 111.92 840.38 124.83C859 66.75 879.45 22.99 900.86 -9.32C1032.6 -208.14 1200.61 26.57 1200.61 26.57C1242.95 83.64 1328.69 235.41 1314.44 484.39L1509.59 371.72M550.03 414.73C315.37 274.33 100.96 674 674.2 923C774.64 1096.99 782.79 1111.1 782.79 1111.1L1253.05 839.6L1723.3 568.1C1723.3 568.1 1715.16 553.99 1614.7 380C1685.67 -240.94 1232.34 -255.09 1236.6 18.33M550.03 414.73C536.39 433.86 524.16 452.84 513.98 471.72M719.58 827.83L667.86 857.7C507.56 797.26 416.38 673.72 392 618.82C372.64 579.85 348.28 494.22 396.39 468.95C425.25 453.79 460.58 448.74 513.98 471.72M719.58 827.83C466.82 703.58 450.48 589.53 513.98 471.72M634.91 334.37C668.4 299.36 763.08 235.3 827.92 201L870.24 176.56L912.56 152.13C974.69 113.12 1077.51 63.16 1124.57 51.67M1124.57 51.67C1131.76 60 1139.11 69.32 1146.62 79.69C1258.03 233.56 1250.06 445.28 1232.15 531.9L1114.59 599.78L997.02 667.65C913.05 639.85 725.71 540.89 648.16 367.48C642.93 355.79 638.54 344.76 634.91 334.37C571.35 152.18 745.25 165.68 827.92 201M1200.61 26.57L1236.6 18.33M1236.6 18.33C1259.99 16.09 1282.54 14.99 1303.99 15.61M1509.59 371.72L1561.32 341.86C1589.12 172.82 1527.72 32.09 1492.37 -16.47C1468.3 -52.73 1406.32 -116.64 1360.38 -87.61C1332.82 -70.19 1310.78 -42.12 1303.99 15.61M1509.59 371.72C1528.36 90.7 1437.76 19.52 1303.99 15.61M912.56 152.13C923.32 62.87 998.57 -94.48 1124.57 51.67M805.89 65.11L689.53 -.69L689.38 -136.71L807.09 -68.56L805.89 65.11Z" stroke="black" stroke-width="30"/><path d="M884.46 981.18L801.42 953.88L817.94 865.97L902.33 895.63L884.46 981.18Z" fill="#55E748"/><path d="M884.46 981.18L801.42 953.88L817.94 865.97L902.33 895.63L884.46 981.18Z" stroke="black" stroke-width="30"/><path d="M1095.19 859.51L1012.16 832.21L1028.67 744.3L1113.06 773.96L1095.19 859.51Z" fill="#55E748"/><path d="M1095.19 859.51L1012.16 832.21L1028.67 744.3L1113.06 773.96L1095.19 859.51Z" stroke="black" stroke-width="30"/><path d="M1349.22 712.85L1266.19 685.55L1282.71 597.64L1367.1 627.29L1349.22 712.85Z" fill="#55E748"/><path d="M1349.22 712.85L1266.19 685.55L1282.71 597.64L1367.1 627.29L1349.22 712.85Z" stroke="black" stroke-width="30"/><path d="M1559.96 591.18L1476.93 563.88L1493.44 475.97L1577.83 505.63L1559.96 591.18Z" fill="#55E748"/><path d="M1559.96 591.18L1476.93 563.88L1493.44 475.97L1577.83 505.63L1559.96 591.18Z" stroke="black" stroke-width="30"/></g><defs><clipPath id="clip0_4368_3927"><rect width="3000" height="3000" fill="white" transform="translate(0 8.05) rotate(-.15)"/></clipPath></defs></svg>