<svg width="3009" height="3009" viewBox="0 0 3009 3009" fill="none" xmlns="http://www.w3.org/2000/svg">
<g clip-path="url(#clip0_4368_3927)">
<path d="M209.201 813.335C204.901 817.507 203.497 823.838 205.629 829.437C205.817 829.932 205.998 830.37 206.122 830.665C206.261 831 206.317 831.13 206.385 831.298L206.693 832.046C209.941 839.826 215.328 848.689 222.119 858.235C222.127 858.246 222.135 858.257 222.143 858.268C233.343 873.923 247.43 888.057 263.972 900.451L263.972 900.452C281.072 913.473 299.045 923.308 317.558 929.408L317.558 929.409C331.81 934.169 345.784 937.572 359.304 939.536C359.433 939.555 359.563 939.572 359.692 939.587C360.474 939.68 362.583 939.973 364.448 940.108C364.512 940.116 364.586 940.127 364.664 940.135C364.774 940.147 364.932 940.162 365.122 940.179C368.203 940.478 371.458 940.603 375.656 940.541C375.686 940.54 375.716 940.539 375.747 940.539C387.596 940.291 400.063 938.554 412.831 935.576C412.851 935.571 412.872 935.566 412.892 935.561C413.703 935.369 414.621 935.864 414.866 936.779C415.066 937.684 414.488 938.565 413.658 938.771L413.613 938.783C401.018 941.955 389.097 943.726 378.228 944.131C376.845 944.183 375.475 944.426 374.159 944.853C363.121 948.433 354.624 953.879 349.594 962.104C344.955 969.691 344.708 977.41 344.883 982.353L344.922 983.304L344.927 983.393C345.209 988.723 347.037 994.708 352.624 1001.26C352.802 1001.47 352.985 1001.67 353.174 1001.87C363.717 1012.94 375.987 1020.4 390.371 1022.85C404.445 1025.25 418.9 1022.56 433.575 1016.41C433.764 1016.34 433.952 1016.27 434.139 1016.19C434.304 1016.14 434.385 1016.12 434.397 1016.12L434.397 1016.11C446.927 1013.54 467.216 1006.16 498.79 986.771C499.164 986.572 499.508 986.372 499.819 986.174C500.102 986.032 500.414 985.983 500.761 986.037C501.135 986.095 501.456 986.26 501.692 986.483L501.788 986.582L501.8 986.596C501.826 986.625 501.889 986.702 502.012 986.891C502.437 987.634 502.181 988.619 501.472 989.054L501.431 989.079C475.568 1005.04 455.535 1014.31 439.999 1018.3L439.397 1018.47C436.41 1019.37 433.772 1021.18 431.857 1023.65C428.24 1028.33 425.221 1033.43 422.937 1038.74L422.49 1039.81L422.362 1040.13C420.895 1043.96 419.692 1048.12 419.383 1052.31C419.089 1056.28 419.507 1061.79 422.942 1066.82L423.284 1067.3L423.312 1067.34C425.926 1070.91 432.392 1079.55 446.737 1082.92C460.143 1086.07 478.044 1084.07 502.797 1074.03C502.806 1074.02 502.814 1074.02 502.823 1074.02C513.104 1069.82 524.159 1064.41 535.572 1058C535.91 1057.81 536.241 1057.61 536.564 1057.39C537.345 1056.87 538.074 1056.46 539.634 1055.53L539.634 1055.53C540.968 1054.76 542.25 1053.95 543.224 1053.33L543.224 1053.33C552.525 1047.45 562.39 1041.32 564.814 1040.08C564.856 1040.06 564.897 1040.04 564.939 1040.02C565.255 1039.85 565.558 1039.82 565.881 1039.88C566.241 1039.95 566.574 1040.14 566.811 1040.41C566.819 1040.42 566.827 1040.43 566.835 1040.44C566.805 1040.4 566.901 1040.5 567.068 1040.81C567.447 1041.56 567.157 1042.59 566.345 1043.02L566.346 1043.02C564.179 1044.17 556.997 1048.55 545.06 1056.09L544.863 1056.22C544.167 1056.67 543.809 1056.9 543.496 1057.08C539.632 1059.3 536.956 1063.12 536.194 1067.51C536.078 1068.18 536.024 1068.5 535.976 1068.8L535.788 1069.9L535.744 1070.16C533.786 1082.56 536.367 1093.74 543.529 1103.9C543.708 1104.17 543.849 1104.37 543.918 1104.46C544.013 1104.6 544.108 1104.72 544.191 1104.82C544.607 1105.39 545.065 1105.93 545.57 1106.45L545.638 1106.52C548.013 1108.93 551.011 1110.38 554.132 1110.84C554.137 1110.84 554.142 1110.84 554.147 1110.85C555.667 1111.12 557.292 1111.22 559.015 1111.16C562.286 1111.04 566.061 1110.3 570.491 1108.76C570.93 1108.63 571.335 1108.48 571.704 1108.34C585.933 1103.55 597.116 1093.39 609.678 1082.27L609.678 1082.27C619.364 1073.73 631.008 1063.47 646.281 1052.44C646.372 1052.37 646.461 1052.3 646.55 1052.24C647.535 1051.49 648.551 1050.66 649.19 1050.15C650.714 1048.97 650.97 1048.73 651.689 1048.21C652.032 1047.96 652.365 1047.7 652.686 1047.43C659.697 1041.41 663.057 1038.14 665.548 1035.64L666.742 1034.47C666.78 1034.43 666.815 1034.4 666.852 1034.36L667.086 1034.15C667.697 1033.65 668.682 1033.68 669.291 1034.3L669.292 1034.3C669.908 1034.93 669.932 1035.97 669.243 1036.65L668.781 1037.1L668.527 1037.36C667.224 1038.7 664.676 1041.35 660.031 1045.49L659.555 1045.93C654.753 1050.6 653.612 1057.92 656.834 1063.85C656.984 1064.13 657.12 1064.36 657.224 1064.53C657.296 1064.65 657.363 1064.75 657.417 1064.83C657.852 1065.55 658.347 1066.23 658.898 1066.87C662.628 1071.19 667.376 1072.54 670.406 1072.95C673.438 1073.36 676.208 1073.06 678.166 1072.72C682.123 1072.03 686.001 1070.6 688.715 1069.49C688.739 1069.48 688.763 1069.47 688.788 1069.46C704.914 1062.72 721.447 1048.75 736.921 1030.61C736.93 1030.6 736.939 1030.59 736.948 1030.58C746.631 1019.17 752.555 1006.57 753.937 992.509C754.578 985.988 750.912 979.805 744.882 977.239L572.635 903.937L572.612 903.927C562.436 899.616 552.771 894.606 543.604 888.986C540.924 887.318 538.372 885.697 535.919 884.054C516.08 870.674 498.918 854.443 484.74 836.128C484.728 836.113 484.715 836.096 484.703 836.08C481.703 832.237 478.859 828.269 476.115 824.174C476.096 824.144 476.075 824.11 476.053 824.074C475.969 823.935 475.829 823.71 475.658 823.447C472.471 818.57 466.748 815.979 460.981 816.803C451.822 818.111 442.468 819.569 432.984 821.304L432.957 821.309L430.531 821.757C404.644 826.451 370.624 832.503 342.928 833.439L342.722 833.447C311.994 834.907 277.049 833.873 239.535 816.633C236.888 815.38 230.929 812.546 225.404 810.249C219.871 807.95 213.501 809.163 209.201 813.335ZM438.87 1013.42C439.123 1013.2 439.358 1012.98 439.574 1012.77C439.342 1013 439.106 1013.21 438.87 1013.42ZM437.058 1014.76C437.389 1014.55 437.702 1014.33 437.996 1014.12C438.135 1014.01 438.269 1013.91 438.4 1013.8C437.954 1014.16 437.505 1014.48 437.058 1014.76Z" fill="#E9F6FB" stroke="black" stroke-width="30" stroke-linejoin="round"/>
<path d="M436.552 804.256C432.252 808.428 430.847 814.759 432.979 820.359C433.145 820.796 433.303 821.177 433.403 821.415C433.527 821.712 433.556 821.779 433.605 821.902C436.09 828.051 440.176 834.904 445.228 842.135L446.253 843.588L446.277 843.621C455.235 856.143 466.477 867.414 479.632 877.272L479.632 877.274C493.231 887.629 507.586 895.499 522.438 900.394L522.438 900.395C533.735 904.168 544.841 906.875 555.616 908.44C555.745 908.459 555.874 908.477 556.004 908.492C556.48 908.549 558.23 908.79 559.792 908.908C559.818 908.911 559.846 908.914 559.875 908.918C553.906 911.785 549.002 915.712 545.702 921.108C541.301 928.305 541.39 935.586 541.575 939.533C541.576 939.563 541.577 939.594 541.579 939.624C541.829 944.357 543.436 949.537 547.928 955.005L548.372 955.536L548.643 955.845C548.734 955.946 548.828 956.046 548.922 956.146C557.537 965.193 567.731 971.453 579.804 973.509C589.409 975.145 599.116 973.932 608.793 970.738C606.405 974.088 604.376 977.672 602.778 981.386L602.405 982.27L602.279 982.592C601.072 985.742 600.017 989.33 599.743 993.039C599.483 996.554 599.829 1001.7 603.085 1006.47L603.409 1006.93L603.437 1006.96C605.642 1009.98 611.286 1017.49 623.634 1020.39C635.041 1023.07 649.768 1021.26 669.409 1013.29C669.417 1013.28 669.426 1013.28 669.435 1013.28C676.426 1010.43 683.839 1006.88 691.473 1002.74C691.287 1003.35 691.136 1003.97 691.027 1004.6C690.925 1005.18 690.887 1005.42 690.854 1005.62L690.711 1006.45L690.667 1006.72C689.008 1017.22 691.211 1026.8 697.274 1035.42C697.44 1035.67 697.57 1035.85 697.634 1035.94C697.689 1036.02 697.744 1036.09 697.795 1036.16C698.228 1036.75 698.711 1037.33 699.244 1037.87L699.296 1037.92C701.649 1040.32 704.615 1041.76 707.706 1042.24L708.25 1042.33C709.526 1042.52 710.849 1042.58 712.211 1042.53C715.148 1042.42 718.407 1041.77 722.081 1040.5C722.452 1040.38 722.796 1040.26 723.115 1040.14C734.959 1036.13 744.193 1027.68 753.832 1019.15L753.832 1019.15C761.396 1012.48 770.387 1004.56 782.176 996.043C782.266 995.977 782.356 995.911 782.445 995.844C782.962 995.453 783.489 995.033 783.929 994.681C783.51 997.761 784.044 1000.98 785.613 1003.87C785.689 1004 785.76 1004.13 785.824 1004.24C785.888 1004.35 785.946 1004.45 785.999 1004.54C786.101 1004.7 786.19 1004.84 786.25 1004.93C786.659 1005.59 787.119 1006.22 787.625 1006.8C791.247 1011 795.83 1012.28 798.659 1012.66C801.489 1013.04 804.021 1012.75 805.722 1012.46C809.165 1011.86 812.454 1010.64 814.649 1009.74C814.673 1009.73 814.698 1009.72 814.722 1009.71C827.996 1004.16 841.31 992.82 853.553 978.467C853.562 978.456 853.571 978.445 853.58 978.435C861.502 969.094 866.459 958.644 867.614 946.891C868.255 940.37 864.589 934.188 858.56 931.622L724.012 874.364L723.989 874.354C716.171 871.042 708.746 867.19 701.701 862.867C699.653 861.591 697.722 860.363 695.874 859.125C680.675 848.873 667.527 836.438 656.665 822.407C656.653 822.391 656.641 822.376 656.628 822.36C654.351 819.442 652.186 816.423 650.09 813.297C650.051 813.233 649.999 813.149 649.939 813.053C649.879 812.957 649.807 812.843 649.724 812.716C646.537 807.838 640.814 805.248 635.046 806.072C627.865 807.097 620.513 808.242 613.051 809.608L613.024 809.612L611.088 809.97C590.824 813.644 564.519 818.314 543.184 819.035L542.979 819.043C519.198 820.173 492.542 819.351 463.965 806.234C461.927 805.27 457.175 803.008 452.754 801.17L452.233 800.965C446.826 798.949 440.717 800.214 436.552 804.256ZM786.006 1004.53C785.997 1004.51 785.986 1004.5 785.977 1004.48C785.969 1004.47 785.962 1004.45 785.954 1004.44C785.971 1004.47 785.988 1004.5 786.006 1004.53ZM649.952 813.096C649.961 813.109 649.969 813.122 649.978 813.135C649.895 813.013 649.812 812.892 649.726 812.773C649.814 812.895 649.89 813.004 649.952 813.096Z" fill="#E9F6FB" stroke="black" stroke-width="30" stroke-linejoin="round"/>
<path d="M1752.45 -77.6596C1758.22 -79.2971 1764.4 -77.3476 1768.18 -72.702C1768.52 -72.2913 1768.81 -71.9158 1769 -71.6612C1769.22 -71.3726 1769.31 -71.2596 1769.42 -71.1169L1769.91 -70.4758C1775.03 -63.7725 1780.01 -54.6758 1784.88 -44.0221C1784.88 -44.01 1784.89 -43.9973 1784.89 -43.9851C1792.85 -26.4583 1798.05 -7.19078 1800.51 13.3314L1800.51 13.3321C1803.24 34.6515 1802.77 55.1345 1798.8 74.2166L1798.8 74.2173C1795.79 88.9401 1791.75 102.743 1786.69 115.434C1786.65 115.555 1786.6 115.676 1786.55 115.796C1786.23 116.519 1785.43 118.492 1784.62 120.175C1784.59 120.234 1784.57 120.304 1784.53 120.376C1784.49 120.477 1784.42 120.621 1784.34 120.794C1783.06 123.612 1781.54 126.493 1779.39 130.097C1779.37 130.123 1779.36 130.149 1779.34 130.175C1773.2 140.313 1765.47 150.242 1756.5 159.81C1756.49 159.825 1756.47 159.84 1756.46 159.855C1755.89 160.461 1755.86 161.504 1756.53 162.174C1757.21 162.799 1758.26 162.739 1758.86 162.123L1758.89 162.09C1767.93 152.769 1775.43 143.331 1781.21 134.12C1781.95 132.948 1782.84 131.883 1783.87 130.957C1792.49 123.188 1801.46 118.552 1811.09 118.309C1819.98 118.085 1826.79 121.731 1830.99 124.353L1831.79 124.863L1831.87 124.912C1836.34 127.821 1840.61 132.397 1843.49 140.51C1843.58 140.768 1843.66 141.029 1843.74 141.292C1848.06 155.958 1848.39 170.315 1843.32 183.997C1838.35 197.383 1828.8 208.559 1816.13 218.192C1815.98 218.321 1815.82 218.448 1815.67 218.572C1815.54 218.688 1815.48 218.747 1815.47 218.756L1815.47 218.756C1806.97 228.317 1790.43 242.198 1757.86 259.85C1757.5 260.075 1757.15 260.272 1756.83 260.443C1756.56 260.617 1756.36 260.863 1756.24 261.19C1756.1 261.543 1756.08 261.904 1756.16 262.22L1756.2 262.352L1756.2 262.369C1756.21 262.406 1756.25 262.499 1756.35 262.7C1756.78 263.44 1757.76 263.711 1758.49 263.314L1758.54 263.291C1785.29 248.872 1803.34 236.162 1814.56 224.699L1815 224.261C1817.28 222.125 1820.16 220.745 1823.26 220.325C1829.12 219.531 1835.05 219.468 1840.79 220.144L1841.94 220.289L1842.28 220.34C1846.33 220.984 1850.54 222.026 1854.32 223.849C1857.91 225.582 1862.47 228.7 1865.1 234.186L1865.35 234.725L1865.37 234.77C1867.16 238.817 1871.41 248.739 1867.16 262.847C1863.18 276.031 1852.49 290.531 1831.42 306.948C1831.41 306.953 1831.41 306.959 1831.4 306.965C1822.63 313.772 1812.41 320.64 1801.15 327.318C1800.82 327.516 1800.48 327.701 1800.13 327.872C1799.29 328.287 1798.57 328.713 1796.99 329.603L1796.99 329.602C1795.65 330.374 1794.31 331.077 1793.29 331.612L1793.29 331.612C1783.54 336.725 1773.3 342.203 1771.01 343.684C1770.98 343.709 1770.94 343.734 1770.9 343.759C1770.6 343.951 1770.41 344.195 1770.31 344.506C1770.19 344.853 1770.19 345.236 1770.3 345.577C1770.3 345.588 1770.31 345.6 1770.31 345.611C1770.3 345.568 1770.34 345.703 1770.52 346C1770.98 346.703 1772.02 346.966 1772.8 346.479L1772.8 346.48C1774.88 345.18 1782.26 341.149 1794.75 334.58L1794.96 334.472C1795.7 334.097 1796.08 333.901 1796.39 333.719C1800.25 331.484 1804.9 331.079 1809.08 332.614C1809.72 332.848 1810.02 332.962 1810.3 333.066L1811.35 333.457L1811.6 333.55C1823.32 338.052 1831.71 345.875 1836.92 357.157C1837.07 357.448 1837.17 357.671 1837.22 357.778C1837.29 357.927 1837.34 358.069 1837.4 358.195C1837.68 358.837 1837.92 359.506 1838.11 360.2L1838.14 360.294C1839.04 363.559 1838.8 366.879 1837.64 369.814C1837.63 369.818 1837.63 369.823 1837.63 369.828C1837.11 371.281 1836.39 372.74 1835.47 374.2C1833.73 376.972 1831.2 379.871 1827.65 382.939C1827.32 383.254 1826.99 383.531 1826.68 383.78C1815.42 393.707 1801.03 398.313 1785.12 403.629L1785.12 403.63C1772.88 407.751 1758.17 412.702 1740.98 420.413C1740.88 420.459 1740.78 420.504 1740.67 420.547C1739.54 421.027 1738.31 421.494 1737.55 421.79C1735.77 422.521 1735.43 422.621 1734.62 422.985C1734.23 423.159 1733.84 423.316 1733.44 423.456C1724.73 426.52 1720.21 427.792 1716.8 428.703L1715.19 429.151C1715.14 429.165 1715.09 429.176 1715.04 429.19L1714.74 429.289C1714.01 429.569 1713.54 430.435 1713.77 431.274L1713.77 431.275C1714.01 432.124 1714.9 432.664 1715.83 432.406L1716.45 432.233L1716.8 432.14C1718.61 431.682 1722.18 430.8 1728.09 428.848L1728.71 428.657C1735.15 426.832 1742.06 429.504 1745.59 435.259C1745.75 435.527 1745.88 435.76 1745.98 435.936C1746.05 436.057 1746.1 436.167 1746.15 436.255C1746.55 436.992 1746.9 437.762 1747.17 438.557C1749.05 443.947 1747.84 448.735 1746.69 451.564C1745.52 454.395 1743.87 456.641 1742.6 458.166C1740.03 461.25 1736.85 463.896 1734.53 465.688C1734.51 465.704 1734.49 465.72 1734.47 465.735C1720.57 476.334 1700.21 483.669 1676.76 487.999C1676.75 488.001 1676.74 488.004 1676.72 488.006C1661.99 490.684 1648.12 489.516 1635.25 483.682C1629.29 480.977 1625.77 474.711 1626.56 468.206L1649.2 282.385L1649.2 282.36C1650.56 271.392 1651.05 260.517 1650.77 249.767C1650.66 246.612 1650.54 243.593 1650.34 240.646C1648.67 216.775 1643.19 193.797 1634.42 172.361C1634.42 172.343 1634.41 172.323 1634.4 172.305C1632.57 167.785 1630.56 163.338 1628.38 158.914C1628.37 158.883 1628.35 158.848 1628.33 158.811C1628.25 158.668 1628.12 158.435 1627.98 158.155C1625.35 152.956 1625.97 146.705 1629.57 142.122C1635.28 134.845 1641.22 127.472 1647.46 120.127L1647.48 120.106L1649.08 118.229C1666.09 98.1571 1688.34 71.721 1703 48.2032L1703.11 48.0297C1719.74 22.148 1736.32 -8.63204 1740.14 -49.7406C1740.38 -52.6592 1740.91 -59.2368 1741.68 -65.1705C1742.45 -71.1115 1746.69 -76.0219 1752.45 -77.6596ZM1810.89 221.28C1810.58 221.39 1810.27 221.485 1809.98 221.566C1810.3 221.479 1810.6 221.383 1810.89 221.28ZM1812.96 220.382C1812.62 220.565 1812.27 220.728 1811.94 220.874C1811.78 220.943 1811.62 221.007 1811.47 221.068C1812 220.859 1812.5 220.629 1812.96 220.382Z" fill="#E9F6FB" stroke="black" stroke-width="30" stroke-linejoin="round"/>
<path d="M1630.92 114.69C1636.68 113.053 1642.86 115.002 1646.65 119.648C1646.94 120.01 1647.19 120.338 1647.35 120.543C1647.55 120.799 1647.59 120.858 1647.67 120.962C1651.75 126.188 1655.65 133.153 1659.38 141.144L1660.13 142.758L1660.14 142.795C1666.51 156.814 1670.65 172.186 1672.61 188.507L1672.61 188.508C1674.78 205.462 1674.42 221.829 1671.23 237.139L1671.23 237.14C1668.85 248.81 1665.64 259.781 1661.61 269.895C1661.56 270.016 1661.51 270.137 1661.46 270.257C1661.27 270.697 1660.61 272.334 1659.93 273.745C1659.92 273.77 1659.91 273.796 1659.89 273.822C1665.36 270.087 1671.21 267.803 1677.54 267.643C1685.97 267.431 1692.23 271.148 1695.56 273.281C1695.58 273.298 1695.61 273.314 1695.63 273.33C1699.61 275.913 1703.29 279.896 1705.78 286.52L1706.02 287.17L1706.15 287.559C1706.19 287.689 1706.23 287.819 1706.27 287.951C1709.8 299.935 1710.12 311.893 1705.87 323.377C1702.48 332.513 1696.58 340.313 1688.97 347.097C1693.07 346.704 1697.19 346.738 1701.2 347.211L1702.15 347.331L1702.5 347.382C1705.83 347.912 1709.46 348.792 1712.81 350.409C1715.98 351.942 1720.27 354.816 1722.77 360.017L1723 360.527L1723.02 360.572C1724.53 363.987 1728.22 372.633 1724.55 384.776C1721.17 395.995 1712.24 407.841 1695.51 420.867C1695.51 420.872 1695.5 420.878 1695.49 420.884C1689.53 425.513 1682.75 430.158 1675.35 434.703C1675.97 434.844 1676.58 435.023 1677.18 435.243C1677.74 435.448 1677.96 435.531 1678.15 435.604L1678.94 435.899L1679.19 435.991C1689.12 439.806 1696.31 446.501 1700.75 456.065C1700.88 456.334 1700.98 456.539 1701.02 456.639C1701.06 456.723 1701.09 456.806 1701.13 456.884C1701.43 457.558 1701.68 458.263 1701.89 458.995L1701.91 459.068C1702.8 462.304 1702.57 465.593 1701.44 468.508L1701.24 469.024C1700.77 470.224 1700.16 471.403 1699.44 472.556C1697.88 475.045 1695.68 477.54 1692.74 480.086C1692.46 480.35 1692.18 480.587 1691.91 480.802C1682.52 489.055 1670.59 492.829 1658.38 496.909L1658.38 496.909C1648.82 500.127 1637.46 503.951 1624.2 509.903C1624.09 509.949 1623.99 509.994 1623.89 510.037C1623.29 510.289 1622.66 510.536 1622.14 510.74C1625.02 511.917 1627.54 513.989 1629.25 516.791C1629.33 516.926 1629.41 517.051 1629.47 517.161C1629.53 517.271 1629.59 517.372 1629.64 517.46C1629.73 517.633 1629.81 517.779 1629.86 517.877C1630.22 518.56 1630.53 519.271 1630.79 520.003C1632.61 525.235 1631.43 529.846 1630.35 532.487C1629.26 535.129 1627.74 537.176 1626.64 538.502C1624.4 541.184 1621.7 543.423 1619.82 544.872C1619.8 544.889 1619.78 544.905 1619.76 544.921C1608.32 553.645 1591.84 559.503 1573.29 562.93C1573.27 562.932 1573.26 562.935 1573.24 562.937C1561.19 565.127 1549.67 564.195 1538.91 559.319C1532.94 556.613 1529.42 550.348 1530.21 543.844L1547.9 398.692L1547.9 398.668C1548.94 390.241 1549.32 381.884 1549.1 373.622C1549.02 371.21 1548.92 368.924 1548.77 366.705C1547.49 348.416 1543.3 330.812 1536.58 314.39C1536.57 314.371 1536.56 314.353 1536.56 314.334C1535.17 310.903 1533.64 307.518 1531.98 304.14C1531.94 304.074 1531.89 303.988 1531.84 303.888C1531.79 303.788 1531.72 303.668 1531.66 303.533C1529.03 298.334 1529.64 292.082 1533.24 287.499C1537.72 281.793 1542.39 275.999 1547.3 270.219L1547.32 270.198L1548.6 268.701C1561.91 252.988 1579.11 232.542 1590.4 214.427L1590.51 214.253C1603.38 194.223 1615.99 170.727 1618.92 139.419C1619.11 137.173 1619.52 131.927 1620.14 127.179L1620.22 126.625C1621.18 120.934 1625.33 116.277 1630.92 114.69ZM1629.63 517.463C1629.62 517.447 1629.61 517.43 1629.6 517.414C1629.6 517.4 1629.59 517.387 1629.58 517.373C1629.59 517.403 1629.61 517.433 1629.63 517.463ZM1531.87 303.92C1531.88 303.935 1531.88 303.949 1531.89 303.962C1531.83 303.83 1531.76 303.697 1531.7 303.563C1531.77 303.701 1531.82 303.821 1531.87 303.92Z" fill="#E9F6FB" stroke="black" stroke-width="30" stroke-linejoin="round"/>
<path d="M648.16 367.473C725.711 540.891 913.048 639.848 997.023 667.649L1114.58 599.775L1232.14 531.901C1250.05 445.277 1258.02 233.56 1146.62 79.6897C1139.1 69.315 1131.76 59.9958 1124.57 51.6632C1077.51 63.1598 974.685 113.12 912.56 152.123L870.239 176.557L827.917 200.992C763.077 235.292 668.398 299.36 634.911 334.369C638.535 344.757 642.931 355.781 648.16 367.473Z" fill="#7600ED"/>
<path d="M575.162 387.67L550.026 414.721C536.389 433.855 524.159 452.836 513.98 471.72C450.478 589.527 466.819 703.577 719.58 827.83L914.731 715.16C691.976 603.004 603.416 452.871 575.162 387.67Z" fill="#7600ED"/>
<path d="M1236.6 18.3271L1200.61 26.5702C1242.94 83.6385 1328.68 235.401 1314.44 484.39L1509.59 371.72C1528.36 90.6952 1437.76 19.5191 1303.99 15.6094C1282.54 14.9827 1259.99 16.0843 1236.6 18.3271Z" fill="#7600ED"/>
<path d="M575.163 387.67L550.026 414.721M719.58 827.83L914.731 715.16C691.976 603.004 603.416 452.871 575.163 387.67C575.163 387.67 455.901 124.816 693.95 110.132C732.638 107.745 780.765 111.914 840.374 124.831C858.993 66.7487 879.446 22.9861 900.856 -9.32561C1032.6 -208.14 1200.61 26.5702 1200.61 26.5702C1242.94 83.6385 1328.68 235.401 1314.44 484.39L1509.59 371.72M550.026 414.721C315.371 274.325 100.955 673.992 674.193 922.998C774.642 1096.99 782.791 1111.09 782.791 1111.09L1253.04 839.595L1723.3 568.094C1723.3 568.094 1715.16 553.985 1614.7 379.997C1685.67 -240.944 1232.34 -255.089 1236.6 18.3271M550.026 414.721C536.389 433.855 524.159 452.836 513.98 471.72M719.58 827.83L667.854 857.694C507.561 797.254 416.38 673.714 392.002 618.82C372.633 579.843 348.275 494.215 396.386 468.946C425.252 453.785 460.581 448.733 513.98 471.72M719.58 827.83C466.819 703.577 450.478 589.527 513.98 471.72M634.911 334.369C668.398 299.36 763.077 235.292 827.917 200.992L870.239 176.557L912.56 152.123C974.685 113.12 1077.51 63.1599 1124.57 51.6632M1124.57 51.6632C1131.76 59.9958 1139.1 69.315 1146.62 79.6896C1258.02 233.56 1250.05 445.277 1232.14 531.901L1114.58 599.775L997.023 667.649C913.048 639.848 725.711 540.891 648.16 367.473C642.931 355.781 638.535 344.757 634.911 334.369C571.347 152.171 745.246 165.678 827.917 200.992M1200.61 26.5702L1236.6 18.3271M1236.6 18.3271C1259.99 16.0844 1282.54 14.9827 1303.99 15.6094M1509.59 371.72L1561.31 341.855C1589.12 172.818 1527.72 32.0824 1492.37 -16.4768C1468.3 -52.7387 1406.32 -116.647 1360.38 -87.6169C1332.82 -70.1987 1310.78 -42.1289 1303.99 15.6094M1509.59 371.72C1528.36 90.6952 1437.76 19.5191 1303.99 15.6094M912.56 152.123C923.313 62.8709 998.565 -94.4837 1124.57 51.6632" stroke="black" stroke-width="30.004"/>
<path fill-rule="evenodd" clip-rule="evenodd" d="M550.029 414.725C315.373 274.329 100.957 673.996 674.195 923.002C774.644 1096.99 782.793 1111.1 782.793 1111.1L1253.05 839.598L1723.3 568.098C1723.3 568.098 1715.16 553.988 1614.7 380.001C1685.67 -240.94 1232.34 -255.085 1236.6 18.3311C1259.99 16.0883 1282.54 14.9867 1303.99 15.6134C1310.78 -42.1249 1332.82 -70.1947 1360.38 -87.6129C1406.32 -116.643 1468.3 -52.7346 1492.37 -16.4728C1527.72 32.0864 1589.12 172.822 1561.32 341.859L1509.59 371.724L1314.44 484.394C1328.69 235.405 1242.95 83.6424 1200.61 26.5742C1200.61 26.5742 1032.6 -208.136 900.859 -9.32148C879.448 22.9902 858.995 66.7529 840.377 124.835C780.767 111.918 732.641 107.749 693.953 110.136C455.903 124.821 575.165 387.674 575.165 387.674C603.418 452.875 691.978 603.008 914.733 715.164L719.583 827.834L667.856 857.698C507.563 797.258 416.382 673.718 392.004 618.824C372.636 579.847 348.278 494.219 396.388 468.95C425.254 453.789 460.583 448.737 513.982 471.724C524.161 452.84 536.391 433.859 550.029 414.725ZM997.025 667.652C913.051 639.852 725.713 540.895 648.162 367.478C642.933 355.785 638.537 344.761 634.913 334.373C571.349 152.175 745.248 165.682 827.919 200.996L870.241 176.561L912.563 152.127C923.316 62.8749 998.567 -94.4797 1124.57 51.6671C1131.76 59.9998 1139.11 69.319 1146.62 79.6936C1258.03 233.564 1250.06 445.281 1232.15 531.905L1114.59 599.779L997.025 667.652Z" fill="#FBEA5B"/>
<path d="M805.892 65.1066L689.533 -0.686926L689.376 -136.705L807.093 -68.5605L805.892 65.1066Z" fill="#55E748"/>
<path d="M575.165 387.674L550.029 414.725M719.583 827.834L914.733 715.164C691.978 603.008 603.418 452.875 575.165 387.674C575.165 387.674 455.903 124.821 693.953 110.136C732.641 107.749 780.767 111.918 840.377 124.835C858.995 66.7529 879.448 22.9902 900.859 -9.3215C1032.6 -208.136 1200.61 26.5742 1200.61 26.5742C1242.95 83.6425 1328.69 235.405 1314.44 484.394L1509.59 371.724M550.029 414.725C315.373 274.329 100.957 673.996 674.195 923.002C774.644 1096.99 782.793 1111.1 782.793 1111.1L1253.05 839.598L1723.3 568.098C1723.3 568.098 1715.16 553.988 1614.7 380.001C1685.67 -240.94 1232.34 -255.085 1236.6 18.3311M550.029 414.725C536.391 433.859 524.161 452.84 513.982 471.724M719.583 827.834L667.856 857.698C507.563 797.258 416.382 673.718 392.004 618.824C372.636 579.847 348.278 494.219 396.388 468.95C425.254 453.789 460.583 448.737 513.982 471.724M719.583 827.834C466.821 703.581 450.481 589.531 513.982 471.724M634.913 334.373C668.401 299.364 763.079 235.296 827.919 200.996L870.241 176.561L912.563 152.127C974.688 113.124 1077.51 63.1638 1124.57 51.6672M1124.57 51.6672C1131.76 59.9998 1139.11 69.319 1146.62 79.6936C1258.03 233.564 1250.06 445.281 1232.15 531.905L1114.59 599.779L997.025 667.652C913.051 639.852 725.713 540.895 648.162 367.478C642.933 355.785 638.537 344.761 634.913 334.373C571.349 152.175 745.248 165.682 827.919 200.996M1200.61 26.5742L1236.6 18.3311M1236.6 18.3311C1259.99 16.0884 1282.54 14.9867 1303.99 15.6134M1509.59 371.724L1561.32 341.859C1589.12 172.822 1527.72 32.0864 1492.37 -16.4728C1468.3 -52.7346 1406.32 -116.643 1360.38 -87.6129C1332.82 -70.1946 1310.78 -42.1249 1303.99 15.6134M1509.59 371.724C1528.36 90.6991 1437.76 19.5231 1303.99 15.6134M912.563 152.127C923.316 62.8749 998.567 -94.4797 1124.57 51.6672M805.892 65.1066L689.533 -0.686919L689.376 -136.705L807.093 -68.5605L805.892 65.1066Z" stroke="black" stroke-width="30.004"/>
<path d="M884.455 981.182L801.424 953.882L817.939 865.973L902.328 895.625L884.455 981.182Z" fill="#55E748"/>
<path d="M884.455 981.182L801.424 953.882L817.939 865.973L902.328 895.625L884.455 981.182Z" stroke="black" stroke-width="30.004"/>
<path d="M1095.19 859.514L1012.16 832.214L1028.67 744.305L1113.06 773.957L1095.19 859.514Z" fill="#55E748"/>
<path d="M1095.19 859.514L1012.16 832.214L1028.67 744.305L1113.06 773.957L1095.19 859.514Z" stroke="black" stroke-width="30.004"/>
<path d="M1349.22 712.85L1266.19 685.55L1282.71 597.641L1367.1 627.293L1349.22 712.85Z" fill="#55E748"/>
<path d="M1349.22 712.85L1266.19 685.55L1282.71 597.641L1367.1 627.293L1349.22 712.85Z" stroke="black" stroke-width="30.004"/>
<path d="M1559.96 591.182L1476.93 563.882L1493.44 475.973L1577.83 505.625L1559.96 591.182Z" fill="#55E748"/>
<path d="M1559.96 591.182L1476.93 563.882L1493.44 475.973L1577.83 505.625L1559.96 591.182Z" stroke="black" stroke-width="30.004"/>
</g>
<defs>
<clipPath id="clip0_4368_3927">
<rect width="3000" height="3000" fill="white" transform="translate(0 8.055) rotate(-0.153839)"/>
</clipPath>
</defs>
</svg>
