<svg width="3009" height="3009" viewBox="0 0 3009 3009" fill="none" xmlns="http://www.w3.org/2000/svg">
<g clip-path="url(#clip0_4368_3925)">
<path d="M945.322 -458.194C948.239 -463.427 953.991 -466.422 959.95 -465.813C960.478 -465.759 960.948 -465.697 961.265 -465.654C961.625 -465.606 961.765 -465.586 961.944 -465.564L962.747 -465.46C971.103 -464.336 981.058 -461.426 992.036 -457.337C992.048 -457.333 992.061 -457.328 992.074 -457.323C1010.09 -450.557 1027.39 -440.607 1043.65 -427.837L1043.65 -427.837C1060.65 -414.69 1074.8 -399.874 1085.49 -383.571C1093.77 -371.037 1100.68 -358.421 1106.07 -345.869C1106.12 -345.75 1106.17 -345.628 1106.22 -345.507C1106.51 -344.777 1107.34 -342.815 1107.96 -341.049C1107.98 -340.989 1108.01 -340.92 1108.04 -340.847C1108.08 -340.731 1108.15 -340.559 1108.22 -340.35C1109.3 -337.47 1110.26 -334.375 1111.28 -330.335C1111.28 -330.305 1111.29 -330.276 1111.3 -330.246C1114.12 -318.737 1115.67 -306.245 1116.1 -293.141C1116.1 -293.121 1116.1 -293.099 1116.1 -293.079C1116.13 -292.245 1116.84 -291.487 1117.79 -291.487C1118.72 -291.528 1119.42 -292.314 1119.4 -293.17L1119.4 -293.216C1119.21 -306.202 1117.83 -318.176 1115.41 -328.78C1115.1 -330.129 1114.98 -331.515 1115.05 -332.897C1115.65 -344.485 1118.72 -354.102 1125.36 -361.09C1131.49 -367.534 1138.88 -369.771 1143.7 -370.881L1144.63 -371.089L1144.71 -371.107C1149.94 -372.215 1156.19 -371.997 1163.96 -368.297C1164.21 -368.179 1164.45 -368.054 1164.7 -367.923C1178.12 -360.605 1188.5 -350.684 1194.59 -337.425C1200.55 -324.451 1201.7 -309.793 1199.55 -294.025C1199.53 -293.825 1199.51 -293.625 1199.49 -293.425C1199.48 -293.252 1199.48 -293.169 1199.48 -293.155L1199.48 -293.155C1200.23 -280.385 1198.35 -258.878 1187.8 -223.365C1187.71 -222.95 1187.6 -222.565 1187.49 -222.212C1187.43 -221.902 1187.46 -221.588 1187.6 -221.267C1187.75 -220.922 1188 -220.654 1188.27 -220.484L1188.39 -220.417L1188.41 -220.408C1188.45 -220.391 1188.54 -220.35 1188.75 -220.281C1189.58 -220.062 1190.46 -220.565 1190.7 -221.362L1190.71 -221.408C1199.43 -250.519 1203.21 -272.271 1203.04 -288.309L1203.04 -288.934C1203.14 -292.052 1204.2 -295.069 1206.1 -297.559C1209.68 -302.264 1213.83 -306.501 1218.37 -310.081L1219.28 -310.788L1219.56 -310.994C1222.88 -313.403 1226.59 -315.644 1230.55 -317.025C1234.31 -318.338 1239.74 -319.359 1245.49 -317.342L1246.04 -317.138L1246.09 -317.12C1250.21 -315.52 1260.24 -311.511 1267.2 -298.527C1273.71 -286.392 1276.41 -268.583 1273.12 -242.074C1273.12 -242.065 1273.12 -242.056 1273.12 -242.046C1271.73 -231.03 1269.36 -218.952 1266.12 -206.268C1266.02 -205.892 1265.91 -205.52 1265.79 -205.152C1265.49 -204.263 1265.28 -203.452 1264.79 -201.706L1264.79 -201.706C1264.39 -200.218 1263.94 -198.77 1263.59 -197.669L1263.59 -197.669C1260.32 -187.162 1256.95 -176.046 1256.38 -173.385C1256.37 -173.339 1256.36 -173.293 1256.35 -173.248C1256.27 -172.899 1256.32 -172.597 1256.46 -172.302C1256.6 -172.014 1256.83 -171.769 1257.1 -171.606L1257.21 -171.54L1257.25 -171.524C1257.21 -171.544 1257.33 -171.479 1257.67 -171.396C1258.49 -171.225 1259.41 -171.771 1259.62 -172.667L1259.62 -172.666C1260.17 -175.058 1262.54 -183.128 1266.73 -196.609L1266.8 -196.831C1267.06 -197.622 1267.19 -198.026 1267.28 -198.376C1268.43 -202.683 1271.43 -206.257 1275.47 -208.13C1276.09 -208.416 1276.38 -208.55 1276.65 -208.672L1277.67 -209.14L1277.92 -209.251C1289.38 -214.349 1300.84 -214.75 1312.5 -210.465C1312.82 -210.361 1313.05 -210.274 1313.16 -210.232C1313.31 -210.174 1313.46 -210.114 1313.58 -210.062C1314.23 -209.806 1314.88 -209.504 1315.5 -209.149L1315.59 -209.101C1318.54 -207.434 1320.71 -204.912 1321.97 -202.017C1321.97 -202.012 1321.97 -202.008 1321.97 -202.004C1322.63 -200.606 1323.15 -199.064 1323.54 -197.382C1324.26 -194.191 1324.53 -190.353 1324.19 -185.676C1324.18 -185.218 1324.14 -184.79 1324.1 -184.396C1323.15 -169.413 1316.24 -155.982 1308.74 -140.967L1308.74 -140.968C1303.01 -129.403 1296.1 -115.499 1289.4 -97.8911C1289.36 -97.787 1289.32 -97.6831 1289.28 -97.5798C1288.81 -96.4358 1288.28 -95.2396 1287.95 -94.4897C1287.2 -92.7141 1287.04 -92.4033 1286.72 -91.5735C1286.57 -91.1782 1286.4 -90.7894 1286.22 -90.4081C1282.22 -82.0791 1279.93 -77.9858 1278.17 -74.9348L1277.34 -73.4776C1277.32 -73.4336 1277.29 -73.3909 1277.27 -73.3472L1277.12 -73.0619C1276.8 -72.3422 1277.08 -71.3988 1277.84 -70.972L1277.84 -70.9715C1278.61 -70.5393 1279.62 -70.7857 1280.09 -71.6255L1280.41 -72.1892L1280.59 -72.501C1281.55 -74.1072 1283.45 -77.2533 1286.25 -82.8122L1286.55 -83.3871C1289.82 -89.2323 1296.6 -92.2309 1303.16 -90.6528C1303.46 -90.5791 1303.72 -90.5068 1303.91 -90.4504C1304.05 -90.4117 1304.16 -90.374 1304.26 -90.3438C1305.06 -90.1094 1305.85 -89.8074 1306.61 -89.4408C1311.75 -86.9554 1314.28 -82.7185 1315.46 -79.898C1316.64 -77.0758 1317.06 -74.3214 1317.24 -72.3421C1317.6 -68.3421 1317.23 -64.2269 1316.85 -61.3167C1316.85 -61.2906 1316.85 -61.2646 1316.84 -61.2385C1314.51 -43.9179 1305.3 -24.3334 1291.78 -4.69262C1291.77 -4.68104 1291.77 -4.66954 1291.76 -4.65798C1283.24 7.65011 1272.6 16.6326 1259.38 21.6064C1253.25 23.9131 1246.33 21.9722 1242.29 16.8125L1126.9 -130.594L1126.89 -130.613C1120.08 -139.33 1112.74 -147.372 1104.94 -154.775C1102.63 -156.928 1100.41 -158.971 1098.19 -160.912C1080.13 -176.613 1060.01 -188.988 1038.65 -197.943C1038.64 -197.951 1038.62 -197.959 1038.6 -197.967C1034.11 -199.87 1029.54 -201.59 1024.87 -203.181C1024.84 -203.191 1024.8 -203.203 1024.76 -203.214C1024.61 -203.26 1024.35 -203.336 1024.06 -203.434C1018.52 -205.25 1014.53 -210.107 1013.84 -215.892C1012.73 -225.077 1011.72 -234.49 1010.94 -244.099L1010.94 -244.126L1010.74 -246.586C1008.58 -272.806 1005.62 -307.232 999.352 -334.228L999.307 -334.428C992.765 -364.487 982.721 -397.974 956.359 -429.747C954.464 -431.98 950.184 -437.002 946.535 -441.745C942.882 -446.494 942.405 -452.961 945.322 -458.194ZM1198.03 -288.148C1197.89 -287.843 1197.74 -287.556 1197.59 -287.288C1197.75 -287.576 1197.9 -287.863 1198.03 -288.148ZM1198.85 -290.223C1198.74 -289.853 1198.61 -289.499 1198.48 -289.163C1198.42 -289.002 1198.35 -288.846 1198.28 -288.693C1198.51 -289.212 1198.7 -289.723 1198.85 -290.223Z" fill="#E9F6FB" stroke="black" stroke-width="30" stroke-linejoin="round"/>
<path d="M995.396 -236.239C998.313 -241.472 1004.06 -244.468 1010.02 -243.858C1010.49 -243.811 1010.9 -243.756 1011.16 -243.722C1011.47 -243.679 1011.55 -243.668 1011.68 -243.652C1018.26 -242.844 1025.94 -240.67 1034.23 -237.662L1035.9 -237.048L1035.94 -237.034C1050.35 -231.622 1064.15 -223.679 1077.07 -213.525L1077.08 -213.525C1090.6 -203.07 1101.91 -191.24 1110.49 -178.161L1110.49 -178.162C1117.06 -168.226 1122.55 -158.199 1126.85 -148.197C1126.9 -148.077 1126.95 -147.957 1127 -147.836C1127.17 -147.39 1127.86 -145.755 1128.38 -144.274C1128.39 -144.252 1128.4 -144.229 1128.41 -144.205C1129.63 -150.713 1132.16 -156.467 1136.52 -161.052C1142.33 -167.165 1149.39 -168.964 1153.25 -169.807C1153.27 -169.813 1153.3 -169.82 1153.33 -169.827C1157.97 -170.81 1163.39 -170.598 1169.83 -167.674L1170.46 -167.383L1170.83 -167.201C1170.95 -167.139 1171.07 -167.075 1171.19 -167.01C1182.16 -161.03 1190.85 -152.804 1195.96 -141.674C1200.02 -132.819 1201.37 -123.129 1200.78 -112.956C1203.4 -116.129 1206.34 -119.016 1209.51 -121.522L1210.27 -122.11L1210.55 -122.315C1213.28 -124.297 1216.47 -126.245 1219.98 -127.469C1223.31 -128.63 1228.37 -129.628 1233.82 -127.716L1234.34 -127.522L1234.39 -127.504C1237.87 -126.154 1246.59 -122.648 1252.59 -111.472C1258.13 -101.146 1260.19 -86.4517 1257.57 -65.418C1257.57 -65.4088 1257.57 -65.399 1257.57 -65.3898C1256.63 -57.8995 1255.11 -49.8201 1253.1 -41.3766C1253.63 -41.7129 1254.19 -42.0187 1254.77 -42.2877C1255.31 -42.5376 1255.53 -42.6343 1255.72 -42.7184L1256.49 -43.0724L1256.73 -43.1834C1266.44 -47.5037 1276.26 -47.8548 1286.16 -44.2303C1286.45 -44.1345 1286.66 -44.0559 1286.76 -44.017C1286.85 -43.9841 1286.93 -43.9493 1287.01 -43.9179C1287.7 -43.6539 1288.38 -43.3358 1289.04 -42.9618L1289.1 -42.9248C1292.03 -41.2724 1294.19 -38.7805 1295.45 -35.9183L1295.68 -35.4166C1296.19 -34.233 1296.6 -32.9714 1296.9 -31.6432C1297.55 -28.7774 1297.76 -25.4593 1297.49 -21.5819C1297.47 -21.1945 1297.44 -20.8301 1297.41 -20.4909C1296.6 -8.0129 1290.83 3.09193 1285.08 14.6131L1285.08 14.6128C1280.6 23.6432 1275.28 34.3792 1270.1 47.9706C1270.06 48.0749 1270.02 48.1793 1269.98 48.2827C1269.74 48.8825 1269.47 49.5004 1269.24 50.0162C1272.11 48.8142 1275.35 48.497 1278.55 49.2654C1278.7 49.3024 1278.84 49.3382 1278.96 49.3714C1279.09 49.4046 1279.2 49.4359 1279.29 49.4643C1279.48 49.5199 1279.64 49.5698 1279.75 49.6039C1280.49 49.8295 1281.21 50.1116 1281.91 50.4491C1286.89 52.8619 1289.32 56.9577 1290.42 59.5908C1291.52 62.2257 1291.9 64.7461 1292.05 66.4656C1292.36 69.946 1292.04 73.4383 1291.73 75.7927C1291.73 75.8188 1291.73 75.8453 1291.72 75.8714C1289.8 90.128 1282.29 105.924 1271.6 121.464C1271.59 121.476 1271.58 121.487 1271.57 121.499C1264.6 131.569 1255.79 139.061 1244.74 143.219C1238.61 145.525 1231.69 143.585 1227.65 138.425L1137.51 23.2813L1137.5 23.2617C1132.28 16.5671 1126.63 10.3917 1120.64 4.70548C1118.87 3.05758 1117.19 1.51081 1115.51 0.0463274C1101.68 -11.982 1086.26 -21.463 1069.9 -28.3235C1069.88 -28.3312 1069.86 -28.339 1069.84 -28.3468C1066.44 -29.7916 1062.96 -31.1016 1059.4 -32.3172C1059.32 -32.3383 1059.23 -32.3668 1059.12 -32.3998C1059.01 -32.4329 1058.88 -32.4726 1058.74 -32.5197C1053.2 -34.3357 1049.22 -39.1939 1048.52 -44.9785C1047.66 -52.1804 1046.86 -59.5774 1046.25 -67.139L1046.24 -67.1662L1046.09 -69.1284C1044.39 -89.6535 1042.09 -116.271 1037.27 -137.065L1037.22 -137.265C1032.16 -160.534 1024.46 -186.075 1004.39 -210.289C1002.92 -212.017 999.519 -216.007 996.609 -219.79L996.275 -220.24C992.929 -224.942 992.57 -231.17 995.396 -236.239Z" fill="#E9F6FB" stroke="black" stroke-width="30" stroke-linejoin="round"/>
<path d="M284.338 -76.5699C278.347 -76.6602 272.877 -73.1771 270.425 -67.7109C270.208 -67.2273 270.027 -66.7892 269.905 -66.493C269.767 -66.1571 269.714 -66.0261 269.644 -65.8596L269.333 -65.1124C266.128 -57.314 263.67 -47.2379 261.722 -35.6864C261.72 -35.6733 261.718 -35.6596 261.716 -35.6464C258.566 -16.6572 258.533 3.29892 261.466 23.7591L261.465 23.76C264.349 45.0591 270.103 64.7231 278.881 82.1267C285.593 95.5704 293.067 107.858 301.238 118.807C301.316 118.911 301.396 119.015 301.477 119.117C301.963 119.735 303.248 121.434 304.47 122.848C304.51 122.899 304.556 122.959 304.605 123.021C304.682 123.117 304.799 123.258 304.943 123.428C306.899 125.801 309.1 128.177 312.09 131.079C312.112 131.1 312.134 131.121 312.156 131.142C320.71 139.346 330.753 146.933 341.888 153.856C341.905 153.867 341.923 153.878 341.941 153.888C342.651 154.326 342.95 155.325 342.476 156.145C341.977 156.927 340.946 157.141 340.213 156.7L340.173 156.676C329.024 150.013 319.342 142.837 311.37 135.437C310.356 134.496 309.215 133.699 307.983 133.07C297.646 127.796 287.787 125.639 278.414 127.899C269.769 129.983 264.136 135.267 260.765 138.885L260.121 139.586L260.06 139.652C256.491 143.62 253.552 149.145 252.87 157.727C252.849 158 252.834 158.274 252.828 158.548C252.454 173.832 255.854 187.784 264.293 199.687C272.55 211.334 284.67 219.657 299.399 225.682C299.58 225.767 299.763 225.85 299.949 225.928C300.103 226.006 300.175 226.048 300.187 226.055L300.188 226.054C310.871 233.09 330.435 242.218 366.466 250.837C366.873 250.962 367.259 251.063 367.62 251.144C367.92 251.244 368.175 251.43 368.383 251.713C368.606 252.018 368.716 252.362 368.725 252.687L368.723 252.825L368.722 252.843C368.719 252.883 368.71 252.982 368.663 253.201C368.438 254.027 367.56 254.543 366.752 254.349L366.705 254.338C337.134 247.334 316.407 239.729 302.605 231.559L302.06 231.253C299.312 229.777 296.167 229.192 293.062 229.588C287.197 230.338 281.453 231.812 276.085 233.95L275.016 234.387L274.699 234.524C270.952 236.196 267.156 238.291 263.979 241.03C260.961 243.632 257.36 247.825 256.235 253.807L256.134 254.392L256.127 254.439C255.451 258.811 253.911 269.495 261.673 282.021C268.926 293.726 283.001 304.967 307.605 315.37C307.613 315.374 307.622 315.377 307.63 315.381C317.865 319.686 329.509 323.676 342.112 327.213C342.486 327.318 342.864 327.408 343.244 327.483C344.166 327.666 344.973 327.891 346.728 328.343L346.729 328.341C348.217 328.741 349.697 329.072 350.822 329.325L350.823 329.324C361.56 331.741 372.872 334.38 375.459 335.221C375.504 335.235 375.548 335.249 375.593 335.263C375.934 335.37 376.174 335.558 376.357 335.832C376.536 336.098 376.636 336.414 376.643 336.729L376.641 336.864L376.638 336.9C376.641 336.855 376.636 336.995 376.539 337.329C376.275 338.128 375.343 338.65 374.463 338.382L374.463 338.383C372.115 337.666 363.942 335.682 350.172 332.571L349.944 332.521C349.13 332.35 348.717 332.258 348.367 332.164C344.065 331.002 339.468 331.815 335.824 334.381C335.268 334.772 335.004 334.961 334.764 335.133L333.849 335.782L333.632 335.937C323.485 343.315 317.407 353.04 315.286 365.283C315.22 365.607 315.178 365.852 315.159 365.969C315.133 366.13 315.114 366.283 315.096 366.418C314.991 367.111 314.932 367.819 314.925 368.54L314.924 368.637C314.893 372.026 315.991 375.169 317.871 377.703C317.874 377.707 317.876 377.712 317.879 377.716C318.761 378.983 319.835 380.206 321.1 381.379C323.499 383.605 326.692 385.752 330.911 387.798C331.315 388.015 331.703 388.198 332.066 388.358C345.514 395.032 360.603 395.758 377.354 396.773L377.353 396.774C390.237 397.589 405.73 398.563 424.33 401.562C424.44 401.58 424.55 401.597 424.66 401.612C425.884 401.781 427.188 401.915 428.003 402.003C429.911 402.249 430.265 402.258 431.141 402.401C431.558 402.468 431.978 402.518 432.4 402.55C441.611 403.254 446.303 403.314 449.827 403.312L451.501 403.327C451.552 403.328 451.602 403.326 451.652 403.326L451.971 403.345C452.755 403.425 453.432 404.141 453.422 405.011L453.422 405.012C453.412 405.893 452.694 406.645 451.729 406.636L451.082 406.63L450.721 406.631C448.851 406.658 445.177 406.73 438.964 406.373L438.313 406.35C431.619 406.254 425.634 410.624 423.72 417.094C423.631 417.396 423.564 417.657 423.517 417.851C423.484 417.985 423.459 418.104 423.438 418.202C423.237 419.019 423.105 419.851 423.043 420.691C422.627 426.382 425.029 430.696 426.882 433.128C428.735 435.562 430.91 437.304 432.535 438.448C435.819 440.76 439.569 442.495 442.278 443.624C442.302 443.634 442.326 443.644 442.351 443.654C458.517 450.295 480.083 452.11 503.851 450.224C503.865 450.223 503.879 450.222 503.893 450.221C518.813 448.994 531.909 444.277 542.828 435.311C547.893 431.153 549.672 424.19 547.223 418.112L477.258 244.482L477.249 244.459C473.1 234.211 469.808 223.83 467.299 213.369C466.585 210.299 465.927 207.353 465.356 204.46C460.788 180.971 460.13 157.359 463.055 134.383C463.058 134.363 463.06 134.343 463.063 134.323C463.659 129.484 464.453 124.667 465.409 119.831C465.417 119.797 465.426 119.758 465.436 119.717C465.475 119.559 465.536 119.302 465.6 118.995C466.795 113.293 464.581 107.413 459.92 103.917C452.519 98.3664 444.873 92.7826 436.941 87.3039L436.918 87.2881L434.885 85.8893C413.262 70.9036 384.927 51.1272 364.68 32.2048L364.529 32.0657C341.768 11.3697 317.79 -14.0711 303.454 -52.7887C302.468 -55.546 300.259 -61.7638 297.976 -67.295C295.69 -72.8328 290.328 -76.4794 284.338 -76.5699ZM305.245 227.308C305.583 227.333 305.907 227.347 306.214 227.349C305.884 227.346 305.561 227.331 305.245 227.308ZM303.039 226.979C303.417 227.065 303.786 227.134 304.144 227.187C304.315 227.212 304.483 227.233 304.649 227.252C304.087 227.188 303.55 227.095 303.039 226.979Z" fill="#E9F6FB" stroke="black" stroke-width="30" stroke-linejoin="round"/>
<path d="M451.518 77.7715C445.527 77.6812 440.057 81.1643 437.605 86.6305C437.413 87.0576 437.256 87.4393 437.158 87.6782C437.035 87.9763 437.008 88.0442 436.957 88.1656C434.365 94.2708 432.409 102.006 430.869 110.691L430.565 112.444L430.559 112.484C428.039 127.672 428.019 143.592 430.35 159.864L430.349 159.865C432.642 176.803 437.228 192.519 444.269 206.482L444.268 206.483C449.588 217.139 455.527 226.907 462.039 235.632C462.117 235.737 462.196 235.841 462.276 235.943C462.574 236.32 463.645 237.734 464.668 238.923C464.683 238.942 464.698 238.962 464.714 238.981C458.466 236.788 452.221 236.097 446.071 237.58C437.87 239.557 432.785 244.768 430.125 247.689C430.104 247.712 430.083 247.734 430.063 247.756C426.894 251.28 424.367 256.08 423.677 263.123L423.616 263.812L423.589 264.221C423.581 264.358 423.576 264.495 423.573 264.632C423.267 277.121 426.049 288.755 433.132 298.746C438.768 306.695 446.489 312.701 455.59 317.285C451.533 317.965 447.564 319.065 443.807 320.561L442.919 320.923L442.602 321.061C439.521 322.435 436.238 324.226 433.421 326.655C430.752 328.956 427.357 332.842 426.291 338.512L426.195 339.066L426.187 339.114C425.617 342.802 424.293 352.108 430.974 362.89C437.146 372.85 448.842 381.98 468.364 390.235C468.373 390.238 468.382 390.242 468.39 390.246C475.349 393.173 483.101 395.904 491.422 398.381C490.863 398.676 490.318 399.007 489.795 399.375C489.309 399.718 489.118 399.856 488.952 399.975L488.26 400.466L488.042 400.62C479.443 406.873 474.229 415.202 472.418 425.588C472.358 425.883 472.32 426.106 472.303 426.214C472.288 426.305 472.278 426.394 472.265 426.477C472.15 427.206 472.086 427.953 472.079 428.713L472.078 428.788C472.047 432.147 473.125 435.264 474.974 437.786L475.295 438.233C476.062 439.271 476.952 440.252 477.951 441.179C480.106 443.178 482.875 445.019 486.371 446.718C486.713 446.9 487.043 447.057 487.355 447.196C498.565 452.736 511.065 453.294 523.919 454.073L523.918 454.074C533.978 454.71 545.94 455.463 560.297 457.779C560.407 457.797 560.518 457.813 560.629 457.829C561.27 457.917 561.94 457.993 562.5 458.055C560.026 459.936 558.128 462.589 557.196 465.74C557.151 465.891 557.113 466.03 557.08 466.153C557.047 466.276 557.019 466.388 556.995 466.486C556.948 466.678 556.913 466.839 556.89 466.947C556.715 467.701 556.598 468.468 556.542 469.241C556.138 474.766 558.473 478.913 560.202 481.184C561.933 483.456 563.928 485.041 565.34 486.035C568.197 488.046 571.385 489.51 573.576 490.423C573.6 490.434 573.625 490.444 573.649 490.454C586.956 495.92 604.39 497.314 623.196 495.822C623.21 495.821 623.224 495.819 623.238 495.818C635.445 494.815 646.34 490.931 655.466 483.437C660.53 479.279 662.31 472.316 659.861 466.239L605.209 330.61L605.2 330.588C602.013 322.718 599.487 314.743 597.562 306.705C597.016 304.354 596.519 302.121 596.088 299.939C592.59 281.942 592.086 263.852 594.326 246.25C594.329 246.23 594.331 246.211 594.334 246.191C594.787 242.517 595.39 238.851 596.119 235.159C596.136 235.086 596.159 234.989 596.185 234.879C596.21 234.769 596.24 234.637 596.271 234.489C597.467 228.787 595.251 222.908 590.59 219.412C584.787 215.059 578.779 210.671 572.537 206.36L572.515 206.344L570.893 205.228C553.966 193.497 532.064 178.198 516.468 163.623L516.317 163.484C498.698 147.463 480.426 128.028 469.495 98.5333C468.732 96.3995 466.977 91.4581 465.156 87.0464L464.933 86.5326C462.535 81.2839 457.321 77.8591 451.518 77.7715Z" fill="#E9F6FB" stroke="black" stroke-width="30" stroke-linejoin="round"/>
<path d="M650.21 369.467C727.761 542.885 915.098 641.841 999.073 669.642L1116.63 601.768L1234.19 533.895C1252.11 447.27 1260.07 235.553 1148.67 81.683C1141.15 71.3083 1133.81 61.9891 1126.62 53.6565C1079.56 65.1532 976.736 115.113 914.611 154.116L872.289 178.551L829.967 202.985C765.127 237.286 670.449 301.353 636.961 336.362C640.585 346.75 644.981 357.774 650.21 369.467Z" fill="#7600ED"/>
<path d="M577.213 389.663L552.076 416.714C538.439 435.849 526.209 454.829 516.03 473.713C452.528 591.52 468.869 705.57 721.63 829.823L916.781 717.153C694.026 604.997 605.466 454.864 577.213 389.663Z" fill="#7600ED"/>
<path d="M1238.65 20.3204L1202.66 28.5636C1244.99 85.6318 1330.73 237.394 1316.49 486.383L1511.64 373.713C1530.41 92.6884 1439.81 21.5124 1306.04 17.6027C1284.59 16.976 1262.04 18.0777 1238.65 20.3204Z" fill="#7600ED"/>
<path d="M577.213 389.663L552.076 416.714M577.213 389.663C577.213 389.663 457.951 126.81 696 112.125M577.213 389.663C605.466 454.864 694.026 604.997 916.781 717.153L721.63 829.823M552.076 416.714C317.421 276.318 103.005 675.986 676.243 924.991C776.692 1098.98 784.841 1113.09 784.841 1113.09L1255.09 841.588L1725.35 570.087C1725.35 570.087 1717.21 555.978 1616.75 381.991C1687.72 -238.951 1234.39 -253.095 1238.65 20.3204M552.076 416.714C538.439 435.849 526.209 454.829 516.03 473.713M696 112.125C734.689 109.739 782.815 113.907 842.424 126.824C861.043 68.742 881.496 24.9795 902.907 -7.33227M696 112.125C677.955 77.2492 661.614 -3.90552 740.614 -49.5165C819.615 -95.1276 881.726 -40.3983 902.907 -7.33227M721.63 829.823L669.904 859.688C509.611 799.248 418.43 675.707 394.052 620.813C374.684 581.836 350.326 496.208 398.436 470.94C427.302 455.778 462.631 450.726 516.03 473.713M721.63 829.823C468.869 705.57 452.528 591.52 516.03 473.713M829.967 202.985L872.289 178.551L914.611 154.116M829.967 202.985C747.296 167.672 573.397 154.164 636.961 336.362M829.967 202.985C765.127 237.286 670.449 301.353 636.961 336.362M636.961 336.362C640.585 346.75 644.981 357.774 650.21 369.467C727.761 542.885 915.098 641.841 999.073 669.642L1116.63 601.768L1234.19 533.895C1252.11 447.27 1260.07 235.553 1148.67 81.683C1141.15 71.3083 1133.81 61.9891 1126.62 53.6565M1202.66 28.5636L1238.65 20.3204M1202.66 28.5636C1202.66 28.5636 1034.65 -206.147 902.907 -7.33227M1202.66 28.5636C1244.99 85.6318 1330.73 237.394 1316.49 486.383L1511.64 373.713M1238.65 20.3204C1262.04 18.0777 1284.59 16.976 1306.04 17.6027M1511.64 373.713L1563.36 343.849C1591.17 174.811 1529.77 34.0757 1494.42 -14.4835C1470.35 -50.7453 1408.37 -114.654 1362.43 -85.6236C1334.87 -68.2054 1312.83 -40.1355 1306.04 17.6027M1511.64 373.713C1530.41 92.6884 1439.81 21.5124 1306.04 17.6027M914.611 154.116C925.364 64.8642 1000.61 -92.4903 1126.62 53.6565M914.611 154.116C976.736 115.113 1079.56 65.1532 1126.62 53.6565M721.61 -82.4335L630.25 -104.926L655.093 -197.643L747.81 -172.799L721.61 -82.4335Z" stroke="black" stroke-width="30.004"/>
<path fill-rule="evenodd" clip-rule="evenodd" d="M552.076 416.714C317.421 276.318 103.005 675.986 676.243 924.991C776.692 1098.98 784.841 1113.09 784.841 1113.09L1255.09 841.588L1725.35 570.087C1725.35 570.087 1717.21 555.978 1616.75 381.991C1687.72 -238.951 1234.39 -253.096 1238.65 20.3204C1262.04 18.0777 1284.59 16.976 1306.04 17.6027C1312.83 -40.1356 1334.87 -68.2053 1362.43 -85.6236C1408.37 -114.654 1470.35 -50.7453 1494.42 -14.4835C1529.77 34.0757 1591.17 174.811 1563.36 343.849L1511.64 373.713L1316.49 486.383C1330.73 237.394 1244.99 85.6318 1202.66 28.5635C1202.66 28.5635 1034.65 -206.147 902.907 -7.33227C881.496 24.9795 861.043 68.742 842.424 126.824C782.815 113.907 734.689 109.739 696 112.125C457.951 126.81 577.213 389.663 577.213 389.663C605.466 454.864 694.026 604.997 916.781 717.153L721.63 829.823L669.904 859.688C509.611 799.248 418.43 675.707 394.052 620.813C374.684 581.836 350.326 496.208 398.436 470.94C427.302 455.778 462.631 450.726 516.03 473.713C526.209 454.829 538.439 435.849 552.076 416.714ZM999.073 669.642C915.098 641.841 727.761 542.885 650.21 369.467C644.981 357.774 640.585 346.75 636.961 336.362C573.397 154.164 747.296 167.672 829.967 202.985L872.289 178.551L914.611 154.116C925.364 64.8642 1000.61 -92.4904 1126.62 53.6565C1133.81 61.9891 1141.15 71.3083 1148.67 81.683C1260.08 235.553 1252.11 447.27 1234.19 533.895L1116.63 601.768L999.073 669.642Z" fill="#FBEA5B"/>
<path d="M696 112.125C734.689 109.739 782.815 113.907 842.424 126.824C861.043 68.742 881.496 24.9795 902.907 -7.33227C881.726 -40.3983 819.615 -95.1276 740.614 -49.5165C661.614 -3.90552 677.955 77.2492 696 112.125Z" fill="#FBEA5B"/>
<path d="M721.61 -82.4335L630.25 -104.926L655.093 -197.643L747.81 -172.799L721.61 -82.4335Z" fill="#55E748"/>
<path d="M577.213 389.663L552.076 416.714M577.213 389.663C577.213 389.663 457.951 126.81 696 112.125M577.213 389.663C605.466 454.864 694.026 604.997 916.781 717.153L721.63 829.823M552.076 416.714C317.421 276.318 103.005 675.986 676.243 924.991C776.692 1098.98 784.841 1113.09 784.841 1113.09L1255.09 841.588L1725.35 570.087C1725.35 570.087 1717.21 555.978 1616.75 381.991C1687.72 -238.951 1234.39 -253.096 1238.65 20.3204M552.076 416.714C538.439 435.849 526.209 454.829 516.03 473.713M696 112.125C734.689 109.739 782.815 113.907 842.424 126.824C861.043 68.742 881.496 24.9795 902.907 -7.33227M696 112.125C677.955 77.2492 661.614 -3.90552 740.614 -49.5165C819.615 -95.1276 881.726 -40.3983 902.907 -7.33227M721.63 829.823L669.904 859.688C509.611 799.248 418.43 675.707 394.052 620.813C374.684 581.836 350.326 496.208 398.436 470.94C427.302 455.778 462.631 450.726 516.03 473.713M721.63 829.823C468.869 705.57 452.528 591.52 516.03 473.713M829.967 202.985L872.289 178.551L914.611 154.116M829.967 202.985C747.296 167.672 573.397 154.164 636.961 336.362M829.967 202.985C765.127 237.286 670.449 301.353 636.961 336.362M636.961 336.362C640.585 346.75 644.981 357.774 650.21 369.467C727.761 542.885 915.098 641.841 999.073 669.642L1116.63 601.768L1234.19 533.895C1252.11 447.27 1260.08 235.553 1148.67 81.683C1141.15 71.3083 1133.81 61.9891 1126.62 53.6565M1202.66 28.5635L1238.65 20.3204M1202.66 28.5635C1202.66 28.5635 1034.65 -206.147 902.907 -7.33227M1202.66 28.5635C1244.99 85.6318 1330.73 237.394 1316.49 486.383L1511.64 373.713M1238.65 20.3204C1262.04 18.0777 1284.59 16.976 1306.04 17.6027M1511.64 373.713L1563.36 343.849C1591.17 174.811 1529.77 34.0757 1494.42 -14.4835C1470.35 -50.7453 1408.37 -114.654 1362.43 -85.6236C1334.87 -68.2053 1312.83 -40.1356 1306.04 17.6027M1511.64 373.713C1530.41 92.6884 1439.81 21.5124 1306.04 17.6027M914.611 154.116C925.364 64.8642 1000.61 -92.4904 1126.62 53.6565M914.611 154.116C976.736 115.113 1079.56 65.1531 1126.62 53.6565M721.61 -82.4335L630.25 -104.926L655.093 -197.643L747.81 -172.799L721.61 -82.4335Z" stroke="black" stroke-width="30.004"/>
<path d="M1009.87 309.473L1118.21 310.443L1065.71 403.294L1064.75 509.972L970.438 456.645L864.774 456.764L918.549 363.86L918.432 256.537L1009.87 309.473Z" fill="#55E748" stroke="black" stroke-width="30"/>
</g>
<defs>
<clipPath id="clip0_4368_3925">
<rect width="3000" height="3000" fill="white" transform="translate(0 8.055) rotate(-0.153839)"/>
</clipPath>
</defs>
</svg>
