<svg width="3009" height="3009" viewBox="0 0 3009 3009" fill="none" xmlns="http://www.w3.org/2000/svg"><g clip-path="url(#clip0_4368_3925)"><path d="M949.32 -460.19C952.24 -465.43 957.99 -468.42 963.95 -467.81C964.48 -467.76 964.95 -467.7 965.26 -467.65C965.63 -467.61 965.76 -467.59 965.94 -467.56L966.75 -467.46C975.1 -466.34 985.06 -463.43 996.04 -459.34C996.05 -459.33 996.06 -459.33 996.07 -459.32C1014.09 -452.56 1031.39 -442.61 1047.65 -429.84L1047.65 -429.84C1064.65 -416.69 1078.8 -401.88 1089.48 -385.57L1089.49 -385.57C1097.77 -373.04 1104.68 -360.42 1110.07 -347.87C1110.12 -347.75 1110.17 -347.63 1110.22 -347.51C1110.51 -346.78 1111.34 -344.81 1111.96 -343.05C1111.98 -342.99 1112.01 -342.92 1112.04 -342.85C1112.08 -342.74 1112.13 -342.6 1112.2 -342.42C1113.29 -339.52 1114.25 -336.41 1115.28 -332.33C1115.28 -332.31 1115.29 -332.28 1115.3 -332.25C1118.12 -320.74 1119.67 -308.25 1120.1 -295.14C1120.1 -295.12 1120.1 -295.1 1120.1 -295.08C1120.13 -294.25 1120.84 -293.49 1121.79 -293.49C1122.72 -293.53 1123.42 -294.31 1123.4 -295.17L1123.4 -295.22C1123.21 -308.2 1121.83 -320.18 1119.41 -330.78C1119.1 -332.13 1118.98 -333.51 1119.05 -334.9C1119.65 -346.49 1122.72 -356.1 1129.36 -363.09C1135.49 -369.53 1142.88 -371.77 1147.7 -372.88L1148.63 -373.09L1148.71 -373.11C1153.94 -374.21 1160.19 -374 1167.96 -370.3C1168.21 -370.18 1168.45 -370.05 1168.7 -369.92C1182.12 -362.61 1192.5 -352.68 1198.59 -339.43C1204.55 -326.45 1205.7 -311.79 1203.55 -296.02C1203.53 -295.82 1203.51 -295.63 1203.49 -295.43C1203.48 -295.25 1203.48 -295.17 1203.48 -295.15L1203.48 -295.15C1204.23 -282.38 1202.35 -260.88 1191.8 -225.36C1191.7 -224.95 1191.6 -224.56 1191.49 -224.21C1191.43 -223.9 1191.46 -223.59 1191.6 -223.27C1191.75 -222.92 1192 -222.65 1192.27 -222.48L1192.39 -222.42L1192.41 -222.41C1192.44 -222.39 1192.54 -222.35 1192.75 -222.28C1193.58 -222.06 1194.46 -222.56 1194.7 -223.36L1194.71 -223.41C1203.43 -252.52 1207.21 -274.27 1207.04 -290.31L1207.04 -290.93C1207.14 -294.05 1208.2 -297.07 1210.1 -299.56C1213.68 -304.26 1217.83 -308.5 1222.37 -312.08L1223.28 -312.79L1223.56 -312.99C1226.88 -315.4 1230.59 -317.64 1234.55 -319.02C1238.31 -320.34 1243.74 -321.36 1249.49 -319.34L1250.04 -319.14L1250.09 -319.12C1254.21 -317.52 1264.24 -313.51 1271.2 -300.53C1277.71 -288.39 1280.41 -270.58 1277.12 -244.07C1277.12 -244.06 1277.12 -244.06 1277.11 -244.05C1275.73 -233.03 1273.36 -220.95 1270.12 -208.27C1270.02 -207.89 1269.91 -207.52 1269.79 -207.15C1269.49 -206.26 1269.28 -205.45 1268.79 -203.71L1268.79 -203.71C1268.39 -202.22 1267.94 -200.77 1267.59 -199.67L1267.59 -199.67C1264.32 -189.16 1260.95 -178.05 1260.38 -175.38C1260.37 -175.34 1260.36 -175.29 1260.35 -175.25C1260.27 -174.9 1260.32 -174.6 1260.46 -174.3C1260.62 -173.97 1260.89 -173.7 1261.21 -173.54C1261.22 -173.53 1261.24 -173.53 1261.25 -173.52C1261.21 -173.54 1261.33 -173.48 1261.67 -173.4C1262.49 -173.22 1263.41 -173.77 1263.62 -174.67L1263.62 -174.67C1264.17 -177.06 1266.54 -185.13 1270.73 -198.61L1270.8 -198.83C1271.06 -199.62 1271.19 -200.03 1271.28 -200.38C1272.43 -204.68 1275.43 -208.26 1279.47 -210.13C1280.09 -210.41 1280.38 -210.55 1280.65 -210.67L1281.67 -211.14L1281.92 -211.25C1293.38 -216.35 1304.85 -216.75 1316.51 -212.46C1316.82 -212.36 1317.05 -212.27 1317.16 -212.23C1317.31 -212.17 1317.46 -212.11 1317.58 -212.06C1318.23 -211.81 1318.88 -211.5 1319.5 -211.15L1319.59 -211.1C1322.54 -209.43 1324.71 -206.91 1325.97 -204.02C1325.97 -204.01 1325.97 -204.01 1325.97 -204C1326.63 -202.61 1327.15 -201.06 1327.54 -199.38C1328.26 -196.19 1328.53 -192.35 1328.19 -187.68C1328.18 -187.22 1328.14 -186.79 1328.1 -186.4C1327.15 -171.41 1320.24 -157.98 1312.74 -142.97L1312.74 -142.97C1307.01 -131.4 1300.1 -117.5 1293.4 -99.89C1293.36 -99.79 1293.32 -99.68 1293.28 -99.58C1292.81 -98.44 1292.28 -97.24 1291.95 -96.49C1291.2 -94.71 1291.03 -94.4 1290.72 -93.57C1290.57 -93.18 1290.4 -92.79 1290.22 -92.41C1286.22 -84.08 1283.93 -79.99 1282.17 -76.93L1281.34 -75.48C1281.32 -75.43 1281.29 -75.39 1281.26 -75.34L1281.12 -75.06C1280.8 -74.34 1281.08 -73.4 1281.84 -72.97L1281.84 -72.97C1282.61 -72.54 1283.62 -72.79 1284.09 -73.63L1284.41 -74.19L1284.59 -74.5C1285.55 -76.11 1287.45 -79.25 1290.25 -84.81L1290.55 -85.39C1293.82 -91.23 1300.6 -94.23 1307.16 -92.65C1307.46 -92.58 1307.72 -92.51 1307.91 -92.45C1308.04 -92.41 1308.16 -92.37 1308.26 -92.34C1309.06 -92.11 1309.85 -91.81 1310.61 -91.44C1315.75 -88.96 1318.28 -84.72 1319.46 -81.9C1320.64 -79.08 1321.06 -76.32 1321.24 -74.34C1321.6 -70.34 1321.23 -66.23 1320.85 -63.32C1320.85 -63.29 1320.85 -63.26 1320.84 -63.24C1318.51 -45.92 1309.3 -26.33 1295.78 -6.69C1295.77 -6.68 1295.77 -6.67 1295.76 -6.66C1287.24 5.65 1276.6 14.63 1263.38 19.61C1257.25 21.91 1250.33 19.97 1246.29 14.81L1130.9 -132.59L1130.88 -132.61C1124.09 -141.33 1116.75 -149.37 1108.95 -156.77C1106.64 -158.92 1104.41 -160.97 1102.19 -162.91C1084.13 -178.61 1064.01 -190.99 1042.65 -199.94C1042.64 -199.95 1042.62 -199.96 1042.6 -199.97C1038.11 -201.87 1033.54 -203.59 1028.87 -205.18C1028.84 -205.19 1028.8 -205.2 1028.76 -205.21C1028.61 -205.26 1028.35 -205.34 1028.05 -205.43C1022.52 -207.25 1018.53 -212.11 1017.84 -217.89C1016.73 -227.08 1015.72 -236.49 1014.94 -246.1L1014.94 -246.13L1014.74 -248.59C1012.58 -274.81 1009.62 -309.23 1003.35 -336.23L1003.31 -336.43C996.76 -366.49 986.72 -399.97 960.36 -431.75C958.46 -433.98 954.18 -439 950.53 -443.75C946.88 -448.49 946.4 -454.96 949.32 -460.19ZM1202.03 -290.14C1201.88 -289.83 1201.73 -289.55 1201.59 -289.29C1201.75 -289.57 1201.89 -289.86 1202.03 -290.14ZM1202.86 -292.23C1202.74 -291.86 1202.61 -291.5 1202.48 -291.16C1202.42 -291 1202.35 -290.84 1202.28 -290.69C1202.51 -291.21 1202.7 -291.73 1202.86 -292.23Z" fill="#E9F6FB" stroke="black" stroke-width="30" stroke-linejoin="round"/><path d="M999.4 -238.24C1002.31 -243.47 1008.06 -246.47 1014.02 -245.86C1014.49 -245.81 1014.9 -245.76 1015.15 -245.72C1015.47 -245.68 1015.55 -245.67 1015.68 -245.65C1022.26 -244.84 1029.94 -242.67 1038.23 -239.66L1039.9 -239.05L1039.94 -239.03C1054.35 -233.62 1068.15 -225.68 1081.07 -215.53L1081.08 -215.53C1094.6 -205.07 1105.91 -193.24 1114.49 -180.16L1114.49 -180.16C1121.06 -170.23 1126.55 -160.2 1130.85 -150.2C1130.9 -150.08 1130.95 -149.96 1131 -149.84C1131.17 -149.39 1131.86 -147.76 1132.38 -146.28C1132.39 -146.26 1132.4 -146.23 1132.41 -146.21C1133.63 -152.71 1136.16 -158.47 1140.52 -163.05C1146.33 -169.16 1153.38 -170.96 1157.25 -171.81C1157.27 -171.81 1157.3 -171.82 1157.33 -171.83C1161.97 -172.81 1167.39 -172.6 1173.83 -169.67L1174.46 -169.38L1174.83 -169.2C1174.95 -169.14 1175.07 -169.07 1175.19 -169.01C1186.16 -163.03 1194.85 -154.8 1199.96 -143.67C1204.02 -134.82 1205.37 -125.13 1204.78 -114.96C1207.4 -118.13 1210.34 -121.02 1213.51 -123.52L1214.27 -124.11L1214.55 -124.31C1217.28 -126.3 1220.47 -128.25 1223.98 -129.47C1227.31 -130.63 1232.37 -131.63 1237.82 -129.72L1238.34 -129.52L1238.39 -129.5C1241.87 -128.15 1250.59 -124.65 1256.59 -113.47C1262.13 -103.15 1264.19 -88.45 1261.57 -67.42C1261.57 -67.41 1261.57 -67.4 1261.57 -67.39C1260.63 -59.9 1259.11 -51.82 1257.1 -43.38C1257.63 -43.71 1258.19 -44.02 1258.77 -44.29C1259.31 -44.54 1259.53 -44.63 1259.72 -44.72L1260.49 -45.07L1260.73 -45.18C1270.44 -49.5 1280.26 -49.85 1290.16 -46.23C1290.45 -46.13 1290.66 -46.06 1290.76 -46.02C1290.85 -45.98 1290.93 -45.95 1291.01 -45.92C1291.7 -45.65 1292.38 -45.34 1293.04 -44.96L1293.1 -44.92C1296.03 -43.27 1298.19 -40.78 1299.45 -37.92L1299.68 -37.42C1300.19 -36.23 1300.6 -34.97 1300.9 -33.64C1301.55 -30.78 1301.76 -27.46 1301.49 -23.58C1301.47 -23.19 1301.44 -22.83 1301.41 -22.49C1300.6 -10.01 1294.83 1.09 1289.08 12.61L1289.08 12.61C1284.6 21.64 1279.28 32.38 1274.1 45.97C1274.06 46.07 1274.02 46.18 1273.98 46.28C1273.74 46.88 1273.47 47.5 1273.24 48.02C1276.11 46.81 1279.35 46.5 1282.55 47.27C1282.7 47.3 1282.84 47.34 1282.96 47.37C1283.09 47.41 1283.2 47.44 1283.29 47.46C1283.48 47.52 1283.64 47.57 1283.75 47.6C1284.49 47.83 1285.21 48.11 1285.91 48.45C1290.89 50.86 1293.32 54.96 1294.42 57.59C1295.52 60.23 1295.9 62.75 1296.05 64.47C1296.36 67.95 1296.04 71.44 1295.73 73.79C1295.73 73.82 1295.73 73.85 1295.72 73.87C1293.8 88.13 1286.29 103.92 1275.6 119.46C1275.59 119.48 1275.58 119.49 1275.57 119.5C1268.6 129.57 1259.79 137.06 1248.74 141.22C1242.6 143.53 1235.69 141.59 1231.65 136.43L1141.51 21.28L1141.5 21.26C1136.28 14.57 1130.63 8.39 1124.64 2.71C1122.87 1.06 1121.19 -.49 1119.51 -1.95C1105.68 -13.98 1090.26 -23.46 1073.9 -30.32C1073.88 -30.33 1073.86 -30.34 1073.84 -30.35C1070.44 -31.79 1066.96 -33.1 1063.4 -34.32C1063.32 -34.34 1063.23 -34.37 1063.12 -34.4C1063.01 -34.43 1062.88 -34.47 1062.74 -34.52C1057.2 -36.34 1053.22 -41.19 1052.52 -46.98C1051.66 -54.18 1050.86 -61.58 1050.25 -69.14L1050.24 -69.17L1050.09 -71.13C1048.39 -91.65 1046.09 -118.27 1041.27 -139.06L1041.22 -139.26C1036.16 -162.53 1028.47 -188.06 1008.4 -212.27C1006.94 -213.99 1003.53 -218 1000.61 -221.79L1000.28 -222.24C996.93 -226.94 996.57 -233.17 999.4 -238.24ZM1283.29 47.47C1283.27 47.47 1283.25 47.46 1283.24 47.46C1283.22 47.45 1283.2 47.45 1283.19 47.45C1283.22 47.46 1283.26 47.46 1283.29 47.47ZM1063.17 -34.4C1063.18 -34.39 1063.2 -34.39 1063.21 -34.38C1063.07 -34.43 1062.93 -34.48 1062.8 -34.53C1062.94 -34.48 1063.06 -34.43 1063.17 -34.4Z" fill="#E9F6FB" stroke="black" stroke-width="30" stroke-linejoin="round"/><path d="M288.34 -78.57C282.35 -78.66 276.88 -75.18 274.43 -69.71C274.21 -69.23 274.03 -68.79 273.9 -68.5C273.77 -68.16 273.71 -68.03 273.64 -67.86L273.33 -67.12C270.13 -59.32 267.67 -49.24 265.72 -37.69C265.72 -37.68 265.72 -37.66 265.72 -37.65C262.57 -18.66 262.53 1.3 265.47 21.76L265.46 21.76C268.35 43.05 274.1 62.72 282.88 80.12L282.88 80.12C289.59 93.57 297.07 105.85 305.24 116.8C305.32 116.91 305.4 117.01 305.48 117.11C305.96 117.73 307.25 119.43 308.47 120.84C308.51 120.89 308.56 120.95 308.61 121.02C308.67 121.1 308.77 121.22 308.9 121.37C310.86 123.76 313.08 126.15 316.09 129.07C316.11 129.1 316.13 129.12 316.16 129.14C324.71 137.34 334.75 144.93 345.89 151.85C345.9 151.86 345.92 151.87 345.94 151.88C346.65 152.32 346.95 153.32 346.48 154.14C345.98 154.92 344.95 155.14 344.21 154.7L344.17 154.67C333.02 148.01 323.34 140.83 315.37 133.43C314.36 132.49 313.21 131.69 311.98 131.07C301.65 125.79 291.79 123.64 282.41 125.89C273.77 127.98 268.14 133.26 264.76 136.88L264.12 137.58L264.06 137.65C260.49 141.62 257.55 147.14 256.87 155.72C256.85 156 256.83 156.27 256.83 156.54C256.45 171.83 259.85 185.78 268.29 197.68C276.55 209.33 288.67 217.65 303.4 223.68C303.58 223.76 303.76 223.85 303.95 223.92C304.11 224 304.18 224.04 304.19 224.05L304.19 224.05C314.87 231.09 334.44 240.22 370.47 248.83C370.88 248.96 371.26 249.06 371.62 249.14C371.92 249.24 372.18 249.43 372.38 249.71C372.61 250.01 372.72 250.36 372.73 250.68L372.72 250.82L372.72 250.84C372.72 250.88 372.71 250.98 372.66 251.2C372.44 252.02 371.56 252.54 370.75 252.34L370.7 252.33C341.13 245.33 320.41 237.72 306.61 229.56L306.06 229.25C303.31 227.77 300.17 227.19 297.06 227.58C291.2 228.33 285.45 229.81 280.08 231.95L279.02 232.38L278.7 232.52C274.95 234.19 271.16 236.29 267.98 239.03C264.96 241.63 261.36 245.82 260.24 251.8L260.13 252.39L260.13 252.44C259.45 256.81 257.91 267.49 265.67 280.02C272.93 291.72 287 302.96 311.61 313.37C311.61 313.37 311.62 313.37 311.63 313.38C321.87 317.68 333.51 321.67 346.11 325.21C346.49 325.31 346.86 325.4 347.24 325.48C348.17 325.66 348.97 325.89 350.73 326.34L350.73 326.34C352.22 326.74 353.7 327.07 354.82 327.32L354.82 327.32C365.56 329.74 376.87 332.38 379.46 333.22C379.5 333.23 379.55 333.25 379.59 333.26C379.93 333.37 380.17 333.55 380.36 333.83C380.56 334.13 380.66 334.5 380.64 334.86C380.64 334.87 380.64 334.88 380.64 334.9C380.64 334.85 380.64 334.99 380.54 335.33C380.27 336.12 379.34 336.65 378.46 336.38L378.46 336.38C376.12 335.66 367.94 333.68 354.17 330.57L353.94 330.52C353.13 330.35 352.72 330.25 352.37 330.16C348.06 329 343.47 329.81 339.82 332.38C339.27 332.77 339 332.96 338.76 333.13L337.85 333.78L337.63 333.93C327.48 341.31 321.4 351.04 319.29 363.29C319.22 363.61 319.18 363.85 319.16 363.96C319.13 364.13 319.11 364.28 319.1 364.41C318.99 365.11 318.93 365.81 318.93 366.54L318.92 366.63C318.89 370.02 319.99 373.17 321.87 375.7C321.87 375.7 321.88 375.71 321.88 375.71C322.76 376.98 323.83 378.2 325.1 379.38C327.5 381.6 330.69 383.75 334.91 385.79C335.31 386.01 335.7 386.19 336.07 386.35C349.51 393.03 364.6 393.75 381.35 394.77L381.35 394.77C394.24 395.58 409.73 396.56 428.33 399.56C428.44 399.58 428.55 399.59 428.66 399.61C429.88 399.78 431.19 399.91 432 400C433.91 400.25 434.26 400.25 435.14 400.4C435.56 400.46 435.98 400.51 436.4 400.55C445.61 401.25 450.3 401.31 453.83 401.31L455.5 401.32C455.55 401.32 455.61 401.32 455.66 401.32L455.97 401.34C456.75 401.42 457.43 402.14 457.42 403.01L457.42 403.01C457.41 403.89 456.69 404.64 455.73 404.63L455.08 404.63L454.72 404.63C452.85 404.65 449.18 404.73 442.96 404.37L442.31 404.35C435.62 404.25 429.63 408.62 427.72 415.09C427.63 415.39 427.56 415.65 427.52 415.85C427.48 415.98 427.46 416.1 427.44 416.2C427.24 417.01 427.11 417.85 427.04 418.69C426.63 424.38 429.03 428.69 430.88 431.12C432.74 433.56 434.91 435.3 436.54 436.44C439.82 438.76 443.57 440.49 446.28 441.62C446.3 441.63 446.33 441.64 446.35 441.65C462.52 448.29 484.08 450.11 507.85 448.22C507.87 448.22 507.88 448.22 507.89 448.22C522.81 446.99 535.91 442.27 546.83 433.31C551.89 429.15 553.67 422.19 551.22 416.11L481.26 242.48L481.25 242.46C477.1 232.21 473.81 221.84 471.3 211.38C470.59 208.3 469.93 205.35 469.36 202.46C464.79 178.97 464.13 155.35 467.06 132.38C467.06 132.36 467.06 132.34 467.06 132.32C467.66 127.48 468.45 122.66 469.41 117.83C469.42 117.79 469.43 117.75 469.44 117.71C469.48 117.56 469.54 117.3 469.6 116.99C470.8 111.29 468.58 105.41 463.92 101.91C456.52 96.36 448.87 90.78 440.94 85.3L440.92 85.28L438.88 83.89C417.26 68.9 388.93 49.12 368.68 30.2L368.53 30.06C345.77 9.37 321.79 -16.08 307.45 -54.79C306.47 -57.55 304.26 -63.77 301.98 -69.3C299.69 -74.84 294.33 -78.48 288.34 -78.57ZM309.26 225.31C309.59 225.33 309.91 225.34 310.21 225.35C309.89 225.34 309.57 225.33 309.26 225.31ZM307.03 224.97C307.41 225.06 307.78 225.13 308.14 225.18C308.32 225.21 308.49 225.23 308.65 225.25C308.08 225.18 307.54 225.09 307.03 224.97Z" fill="#E9F6FB" stroke="black" stroke-width="30" stroke-linejoin="round"/><path d="M455.52 75.77C449.53 75.68 444.06 79.16 441.61 84.63C441.41 85.05 441.26 85.44 441.16 85.67C441.04 85.97 441.01 86.04 440.96 86.16C438.37 92.27 436.41 100 434.87 108.69L434.56 110.44L434.56 110.48C432.04 125.67 432.02 141.59 434.35 157.86L434.35 157.86C436.64 174.8 441.23 190.51 448.27 204.48L448.27 204.48C453.59 215.14 459.53 224.9 466.04 233.63C466.12 233.73 466.2 233.84 466.28 233.94C466.57 234.32 467.64 235.72 468.66 236.91C468.68 236.93 468.69 236.96 468.71 236.98C462.46 234.78 456.22 234.09 450.07 235.58C441.87 237.55 436.79 242.76 434.12 245.69C434.1 245.71 434.08 245.73 434.06 245.75C430.89 249.28 428.37 254.08 427.68 261.12L427.62 261.81L427.59 262.22C427.58 262.35 427.58 262.49 427.57 262.63C427.27 275.12 430.05 286.75 437.13 296.74C442.77 304.69 450.49 310.7 459.59 315.28C455.53 315.96 451.56 317.06 447.81 318.56L446.92 318.92L446.6 319.06C443.52 320.43 440.24 322.22 437.42 324.65C434.75 326.95 431.36 330.84 430.29 336.51L430.19 337.06L430.19 337.11C429.62 340.8 428.29 350.11 434.97 360.89C441.15 370.85 452.84 379.98 472.36 388.23C472.37 388.23 472.38 388.24 472.39 388.24C479.35 391.17 487.1 393.9 495.42 396.38C494.86 396.67 494.32 397 493.8 397.37C493.31 397.71 493.12 397.85 492.95 397.97L492.26 398.46L492.04 398.62C483.44 404.87 478.23 413.2 476.42 423.58C476.36 423.88 476.32 424.1 476.3 424.21C476.29 424.3 476.28 424.39 476.26 424.47C476.15 425.2 476.09 425.95 476.08 426.71L476.08 426.78C476.05 430.14 477.13 433.26 478.97 435.78L479.3 436.23C480.06 437.27 480.95 438.25 481.95 439.18C484.11 441.17 486.88 443.01 490.37 444.71C490.71 444.9 491.04 445.05 491.36 445.19C502.56 450.73 515.07 451.29 527.92 452.07L527.92 452.07C537.98 452.71 549.94 453.46 564.3 455.77C564.41 455.79 564.52 455.81 564.63 455.82C565.27 455.91 565.94 455.99 566.5 456.05C564.02 457.93 562.13 460.58 561.2 463.74C561.15 463.89 561.11 464.03 561.08 464.15C561.05 464.27 561.02 464.38 561 464.48C560.95 464.68 560.91 464.83 560.89 464.94C560.72 465.7 560.6 466.46 560.54 467.24C560.14 472.76 562.47 476.91 564.2 479.18C565.93 481.45 567.93 483.04 569.34 484.03C572.2 486.04 575.38 487.51 577.58 488.42C577.6 488.43 577.63 488.44 577.65 488.45C590.96 493.92 608.39 495.31 627.2 493.82C627.21 493.82 627.22 493.82 627.24 493.81C639.45 492.81 650.34 488.93 659.47 481.43C664.53 477.27 666.31 470.31 663.86 464.24L609.21 328.61L609.2 328.58C606.01 320.71 603.49 312.74 601.56 304.7C601.02 302.35 600.52 300.12 600.09 297.94C596.59 279.94 596.09 261.85 598.33 244.25C598.33 244.23 598.33 244.21 598.33 244.19C598.79 240.51 599.39 236.85 600.12 233.16C600.14 233.08 600.16 232.99 600.18 232.88C600.21 232.77 600.24 232.63 600.27 232.49C601.47 226.78 599.25 220.9 594.59 217.41C588.79 213.06 582.78 208.67 576.54 204.36L576.51 204.34L574.89 203.22C557.97 191.49 536.06 176.19 520.47 161.62L520.32 161.48C502.7 145.46 484.44 126.03 473.5 96.55C472.74 94.43 470.98 89.47 469.16 85.04L468.93 84.53C466.54 79.28 461.32 75.86 455.52 75.77ZM561 464.48C561.01 464.47 561.01 464.45 561.02 464.43C561.02 464.41 561.03 464.4 561.03 464.38C561.02 464.42 561.01 464.45 561 464.48ZM600.16 232.91C600.16 232.93 600.16 232.95 600.15 232.96C600.18 232.82 600.21 232.67 600.23 232.53C600.21 232.68 600.18 232.81 600.16 232.91Z" fill="#E9F6FB" stroke="black" stroke-width="30" stroke-linejoin="round"/><path d="M654.21 367.47C731.76 540.88 919.1 639.84 1003.07 667.64L1120.63 599.77L1238.19 531.89C1256.11 445.27 1264.07 233.55 1152.67 79.68C1145.15 69.31 1137.81 59.99 1130.62 51.66C1083.56 63.15 980.74 113.11 918.61 152.12L876.29 176.55L833.97 200.99C769.13 235.29 674.45 299.35 640.96 334.36C644.59 344.75 648.98 355.77 654.21 367.47Z" fill="#7600ED"/><path d="M581.21 387.66L556.08 414.71C542.44 433.85 530.21 452.83 520.03 471.71C456.53 589.52 472.87 703.57 725.63 827.82L920.78 715.15C698.03 603 609.47 452.86 581.21 387.66Z" fill="#7600ED"/><path d="M1242.65 18.32L1206.66 26.56C1248.99 83.63 1334.73 235.39 1320.49 484.38L1515.64 371.71C1534.41 90.69 1443.81 19.51 1310.04 15.6C1288.59 14.98 1266.04 16.08 1242.65 18.32Z" fill="#7600ED"/><path d="M581.21 387.66L556.08 414.71M725.63 827.82L920.78 715.15C698.03 603 609.47 452.86 581.21 387.66C581.21 387.66 461.95 124.81 700 110.13C738.69 107.74 786.82 111.91 846.42 124.82C865.04 66.74 885.5 22.98 906.91 -9.33C1038.65 -208.15 1206.66 26.56 1206.66 26.56C1248.99 83.63 1334.73 235.39 1320.49 484.38L1515.64 371.71M556.08 414.71C321.42 274.32 107 673.99 680.24 922.99C780.69 1096.98 788.84 1111.09 788.84 1111.09L1259.09 839.59L1729.35 568.09C1729.35 568.09 1721.21 553.98 1620.75 379.99C1691.72 -240.95 1238.39 -255.09 1242.65 18.32M556.08 414.71C542.44 433.85 530.21 452.83 520.03 471.71M700 110.13C681.96 75.25 665.61 -5.91 744.61 -51.52C823.62 -97.13 885.73 -42.4 906.91 -9.33M725.63 827.82L673.9 857.69C513.61 797.25 422.43 673.71 398.05 618.81C378.68 579.84 354.33 494.21 402.44 468.94C431.3 453.78 466.63 448.73 520.03 471.71M725.63 827.82C472.87 703.57 456.53 589.52 520.03 471.71M640.96 334.36C674.45 299.35 769.13 235.29 833.97 200.99L876.29 176.55L918.61 152.12C980.74 113.11 1083.56 63.15 1130.62 51.66M1130.62 51.66C1137.81 59.99 1145.15 69.31 1152.67 79.68C1264.07 233.55 1256.11 445.27 1238.19 531.89L1120.63 599.77L1003.07 667.64C919.1 639.84 731.76 540.88 654.21 367.47C648.98 355.77 644.59 344.75 640.96 334.36C577.4 152.16 751.3 165.67 833.97 200.99M1206.66 26.56L1242.65 18.32M1242.65 18.32C1266.04 16.08 1288.59 14.98 1310.04 15.6M1515.64 371.71L1567.36 341.85C1595.17 172.81 1533.77 32.08 1498.42 -16.48C1474.35 -52.75 1412.37 -116.65 1366.43 -87.62C1338.87 -70.21 1316.83 -42.14 1310.04 15.6M1515.64 371.71C1534.41 90.69 1443.81 19.51 1310.04 15.6M918.61 152.12C929.36 62.86 1004.61 -94.49 1130.62 51.66M725.61 -84.43L634.25 -106.93L659.09 -199.64L751.81 -174.8L725.61 -84.43Z" stroke="black" stroke-width="30"/><path fill-rule="evenodd" clip-rule="evenodd" d="M556.08 414.71C321.42 274.32 107 673.99 680.24 922.99C780.69 1096.98 788.84 1111.09 788.84 1111.09L1259.09 839.59L1729.35 568.09C1729.35 568.09 1721.21 553.98 1620.75 379.99C1691.72 -240.95 1238.39 -255.1 1242.65 18.32C1266.04 16.08 1288.59 14.98 1310.04 15.6C1316.83 -42.14 1338.87 -70.21 1366.43 -87.62C1412.37 -116.65 1474.35 -52.75 1498.42 -16.48C1533.77 32.08 1595.17 172.81 1567.36 341.85L1515.64 371.71L1320.49 484.38C1334.73 235.39 1248.99 83.63 1206.66 26.56C1206.66 26.56 1038.65 -208.15 906.91 -9.33C885.5 22.98 865.04 66.74 846.42 124.82C786.82 111.91 738.69 107.74 700 110.13C461.95 124.81 581.21 387.66 581.21 387.66C609.47 452.86 698.03 603 920.78 715.15L725.63 827.82L673.9 857.69C513.61 797.25 422.43 673.71 398.05 618.81C378.68 579.84 354.33 494.21 402.44 468.94C431.3 453.78 466.63 448.73 520.03 471.71C530.21 452.83 542.44 433.85 556.08 414.71ZM1003.07 667.64C919.1 639.84 731.76 540.88 654.21 367.47C648.98 355.77 644.59 344.75 640.96 334.36C577.4 152.16 751.3 165.67 833.97 200.99L876.29 176.55L918.61 152.12C929.36 62.86 1004.61 -94.49 1130.62 51.66C1137.81 59.99 1145.15 69.31 1152.67 79.68C1264.08 233.55 1256.11 445.27 1238.19 531.89L1120.63 599.77L1003.07 667.64Z" fill="#FBEA5B"/><path d="M700 110.13C738.69 107.74 786.82 111.91 846.42 124.82C865.04 66.74 885.5 22.98 906.91 -9.33C885.73 -42.4 823.62 -97.13 744.61 -51.52C665.61 -5.91 681.96 75.25 700 110.13Z" fill="#FBEA5B"/><path d="M725.61 -84.43L634.25 -106.93L659.09 -199.64L751.81 -174.8L725.61 -84.43Z" fill="#55E748"/><path d="M581.21 387.66L556.08 414.71M725.63 827.82L920.78 715.15C698.03 603 609.47 452.86 581.21 387.66C581.21 387.66 461.95 124.81 700 110.13M556.08 414.71C321.42 274.32 107 673.99 680.24 922.99C780.69 1096.98 788.84 1111.09 788.84 1111.09L1259.09 839.59L1729.35 568.09C1729.35 568.09 1721.21 553.98 1620.75 379.99C1691.72 -240.95 1238.39 -255.1 1242.65 18.32M556.08 414.71C542.44 433.85 530.21 452.83 520.03 471.71M1515.64 371.71L1320.49 484.38C1334.73 235.39 1248.99 83.63 1206.66 26.56C1206.66 26.56 1038.65 -208.15 906.91 -9.33C885.5 22.98 865.04 66.74 846.42 124.82C786.82 111.91 738.69 107.74 700 110.13M700 110.13C681.96 75.25 665.61 -5.91 744.61 -51.52C823.62 -97.13 885.73 -42.4 906.91 -9.33M725.63 827.82L673.9 857.69C513.61 797.25 422.43 673.71 398.05 618.81C378.68 579.84 354.33 494.21 402.44 468.94C431.3 453.78 466.63 448.73 520.03 471.71M725.63 827.82C472.87 703.57 456.53 589.52 520.03 471.71M640.96 334.36C674.45 299.35 769.13 235.29 833.97 200.99L876.29 176.55L918.61 152.12C980.74 113.11 1083.56 63.15 1130.62 51.66M1130.62 51.66C1137.81 59.99 1145.15 69.31 1152.67 79.68C1264.08 233.55 1256.11 445.27 1238.19 531.89L1120.63 599.77L1003.07 667.64C919.1 639.84 731.76 540.88 654.21 367.47C648.98 355.77 644.59 344.75 640.96 334.36C577.4 152.16 751.3 165.67 833.97 200.99M1206.66 26.56L1242.65 18.32M1242.65 18.32C1266.04 16.08 1288.59 14.98 1310.04 15.6M1515.64 371.71L1567.36 341.85C1595.17 172.81 1533.77 32.08 1498.42 -16.48C1474.35 -52.75 1412.37 -116.65 1366.43 -87.62C1338.87 -70.21 1316.83 -42.14 1310.04 15.6M1515.64 371.71C1534.41 90.69 1443.81 19.51 1310.04 15.6M918.61 152.12C929.36 62.86 1004.61 -94.49 1130.62 51.66M725.61 -84.43L634.25 -106.93L659.09 -199.64L751.81 -174.8L725.61 -84.43Z" stroke="black" stroke-width="30"/><path d="M1013.87 307.47L1122.21 308.44L1069.71 401.29L1068.75 507.97L974.44 454.64L868.77 454.76L922.55 361.86L922.43 254.54L1013.87 307.47Z" fill="#55E748" stroke="black" stroke-width="30"/><path d="M889.84 981.56L806.8 954.26L823.32 866.35L907.71 896L889.84 981.56Z" fill="#55E748"/><path d="M889.84 981.56L806.8 954.26L823.32 866.35L907.71 896L889.84 981.56Z" stroke="black" stroke-width="30"/><path d="M1100.57 859.89L1017.54 832.59L1034.05 744.68L1118.44 774.34L1100.57 859.89Z" fill="#55E748"/><path d="M1100.57 859.89L1017.54 832.59L1034.05 744.68L1118.44 774.34L1100.57 859.89Z" stroke="black" stroke-width="30"/><path d="M1354.6 713.23L1271.57 685.93L1288.09 598.02L1372.48 627.67L1354.6 713.23Z" fill="#55E748"/><path d="M1354.6 713.23L1271.57 685.93L1288.09 598.02L1372.48 627.67L1354.6 713.23Z" stroke="black" stroke-width="30"/><path d="M1565.34 591.56L1482.31 564.26L1498.82 476.35L1583.21 506L1565.34 591.56Z" fill="#55E748"/><path d="M1565.34 591.56L1482.31 564.26L1498.82 476.35L1583.21 506L1565.34 591.56Z" stroke="black" stroke-width="30"/></g><defs><clipPath id="clip0_4368_3925"><rect width="3000" height="3000" fill="white" transform="translate(0 8.05) rotate(-.15)"/></clipPath></defs></svg>