<svg xmlns="http://www.w3.org/2000/svg"><symbol id="default" viewBox="0 0 3000 3000"><path fill="#6B956C" d="M792.22 337.6c-4.96 12.83-13.12 31.21-24.5 54.25-14 29.17-23.63 49.58-28.88 61.25-23.62 53.96-39.37 105.58-47.25 155.75-4.38-4.38-15.75-15.17-34.12-32.08-22.17-20.42-35-31.5-38.21-32.67 4.96 37.92 9.92 74.67 14.88 109.67 9.92 69.42 16.92 108.79 21.29 118.41-30.33-.875-58.62-7.88-85.17-20.71 14.29 61.83 45.79 135.33 94.79 220.2-11.08 4.08-31.79 13.71-62.71 28.59-33.25 16.04-53.08 26.54-59.79 31.49 11.67 9.63 58.92 33.55 141.46 71.17 14.29 6.42 27.71 12.54 40.54 17.79-10.21 5.54-23.33 13.13-39.67 22.17-39.37 21.58-59.79 32.96-61.25 33.54 1.46 5.83 10.5 13.12 27.42 21.58 14 7.29 34.71 16.04 62.42 26.25 10.21 3.79 25.96 7.88 46.67 12.25-6.13 14.29-12.25 29.75-18.67 46.08-8.17 21.29-13.12 32.67-14.58 33.84v9.04c5.54.87 32.08 2.33 79.62 4.37 28 1.17 48.42 2.34 61.25 3.21 9.04.58 14.29.88 16.04 1.17h7.29c-1.75-5.54-6.71-26.25-14.29-62.42-.583-4.08-3.21-16.04-8.46-35.58-4.96-19.54-9.04-38.21-11.96-56.58-2.92-18.09-4.38-28-4.38-30.04-8.46-96.25 15.75-183.75 72.33-261.92 53.37-73.21 118.99-133 197.45-178.79 77.29-45.5 159.83-76.71 248.21-93.33 62.12-12.25 124.24-21.87 186.37-29.46 33.83-60.96 69.12-103.25 105.29-126.87 18.37-11.96 37.62-23.63 57.74-35-1.45 0-5.83-.875-13.41-2.33-7.58-1.46-15.17-2.63-22.75-2.63-11.38 0-28.29 2.04-51.33 6.13-22.75 4.08-34.71 6.13-35.29 6.13-3.5 0-6.42-.875-9.05-2.63-3.5-2.33-5.25-5.54-5.25-9.63 0-14.58 11.09-34.42 33.25-59.79 6.13-7 15.46-17.5 28.59-31.5 11.08-12.54 19.54-22.75 25.08-30.92h-9.63c-42.29 4.08-91.58 14.88-148.16 32.67-48.42 16.63-73.79 25.08-76.71 25.08-4.37 0-7-.875-8.16-2.63-1.75-2.63-2.63-9.04-2.63-19.25 0-21.58 6.71-51.62 20.42-90.71 6.71-19.54 13.71-38.5 20.41-56.87 0-2.33-.29-3.79-1.16-4.08l-1.17.29h-9.62c-63.29 18.08-135.92 51.91-217.58 100.91-20.71 12.25-45.79 28-75.25 47.25-20.42 13.42-31.5 19.83-32.67 19.83-9.91 0-16.62-6.42-20.41-19.25-3.21-11.08-4.67-30.33-4.67-57.46 0-16.92.88-31.5 2.33-44.04 1.46-12.54 2.34-19.54 2.34-20.71-6.13 3.21-21.59 14-46.09 32.96-33.25 25.37-61.83 50.46-86.04 75.25-29.75 30.04-55.12 65.33-76.12 105.87-10.79 20.71-16.33 31.5-17.21 32.67-4.96 8.17-9.33 12.25-14 12.25-6.42 0-20.13-21-41.71-62.71-10.5-21.29-21.87-43.46-33.54-66.79Zm653.33 203c2.62-45.21 20.12-84.87 52.79-119-32.38 34.12-50.17 73.79-52.79 119ZM703.85 897.59c22.46 43.46 53.08 74.96 92.17 94.21-38.79-18.96-69.71-50.46-92.17-94.21Z"></path><path fill="#000" d="M891.39 1348.79h-7.58c-.875 0-1.46 0-2.33-.29-.292 0-2.92-.29-14.88-.88-12.83-.87-33.54-1.75-61.25-2.91-63.87-2.92-77-4.09-81.37-4.67-7-1.17-12.25-7.29-12.25-14.29v-9.04c0-3.21 1.17-6.42 2.92-8.75.88-1.75 3.79-7.88 12.54-30.34 4.08-10.49 8.17-20.7 11.96-30.33-13.12-3.21-23.62-6.12-31.5-9.04-28.29-10.5-49.29-19.54-63.87-26.83-21.87-11.09-32.37-20.42-35-30.92-1.75-6.71 1.75-13.71 7.88-16.62 1.75-.88 11.96-6.42 60.37-32.96 4.96-2.63 9.33-5.25 13.71-7.58-4.38-2.05-9.04-4.09-13.42-6.13-112.58-51.62-136.5-66.5-144.66-73.5-3.5-2.91-5.25-7-5.25-11.37 0-4.38 2.33-8.46 5.83-11.38 4.67-3.79 16.33-11.08 62.41-32.95 20.42-9.92 36.46-17.21 48.12-22.46-44.92-79.92-74.37-150.5-88.08-209.71-1.17-5.54.88-11.08 5.25-14.58 4.38-3.5 10.5-4.08 15.46-1.75 18.38 9.04 38.21 14.88 59.21 17.79-3.79-17.21-8.75-46.96-16.33-100.04-4.96-35-9.92-72.04-14.88-109.96-.583-5.25 1.46-10.5 5.83-13.71 4.38-3.21 9.92-3.79 14.58-1.46 2.92 1.46 7 3.21 42 35.29 5.54 5.25 10.5 9.63 14.88 13.71 9.04-42.87 23.63-87.21 43.46-132.41 5.25-11.67 14.87-32.37 29.17-61.54 11.08-23.04 19.25-40.83 23.92-53.37 2.04-5.25 7.29-9.04 12.83-9.33 5.83-.292 11.08 2.92 13.71 7.87 11.67 23.04 23.04 45.5 33.83 66.79 15.46 30.33 24.5 44.33 29.46 50.75.29-.292.29-.583.58-.875.58-1.17 3.79-7 16.92-32.38 21.58-41.41 48.12-78.17 78.46-109.37 24.5-25.08 53.95-50.75 87.5-76.71 34.13-25.96 44.04-32.08 48.42-34.42 4.37-2.33 9.92-2.04 14.29.58 4.38 2.63 7 7.29 7 12.54 0 1.17 0 2.92-2.33 22.46-1.46 11.67-2.34 25.96-2.34 42.29 0 32.38 2.34 46.96 4.09 53.67 1.46 5.25 2.91 7.29 4.37 8.17 3.5-2.04 11.09-6.71 26.83-16.92 29.46-19.25 54.84-35.29 75.55-47.54 82.54-49.29 156.91-84 221.07-102.66 1.46-.292 2.63-.584 4.09-.584h7.87c2.63-.583 5.54-.291 7.88.58 4.08 1.46 10.5 5.83 10.5 17.79 0 1.75-.29 3.5-.88 4.96-6.71 18.08-13.71 37.33-20.41 56.58-13.13 37.33-19.55 66.21-19.55 86.04v5.83c8.17-2.33 26.25-8.46 67.96-22.75h.29c57.17-17.79 107.92-29.17 151.08-33.25h11.09c5.54 0 10.5 2.92 12.83 7.88 2.62 4.67 2.33 10.5-.88 14.87-5.83 8.75-14.58 19.54-26.24 32.38v.291c-12.84 13.71-22.17 24.21-28 31.21-22.75 25.96-28.3 40.25-29.17 47.54 3.21-.584 11.67-2.04 32.37-5.54 23.92-4.38 41.71-6.42 53.96-6.42 8.46 0 17.21.88 25.96 2.92 7.87 1.75 10.21 2.04 10.79 2.04 6.42.29 11.96 4.67 13.42 10.79 1.75 6.42-1.17 13.13-7 16.33-19.84 11.38-39.09 23.04-56.88 34.71-34.12 22.17-67.95 63.29-100.62 121.62-2.33 4.08-6.42 6.71-11.08 7.29-61.54 7.29-123.96 17.21-185.5 29.17-86.33 16.33-168 47.25-243.54 91.58-76.41 44.62-141.16 103.54-193.08 175-27.13 37.62-46.67 77.58-58.33 119.58-11.67 41.71-15.46 86.33-11.38 132.71v.29c0 .87.58 5.54 4.38 29.17 2.92 17.49 6.71 35.87 11.67 54.83 6.42 24.79 8.17 32.96 8.46 36.75 9.92 45.79 12.83 57.45 13.71 60.08 1.46 4.37.88 9.33-2.04 13.12-1.75 2.34-6.13 4.67-10.79 4.67Zm-146.41-36.46c11.37.59 30.33 1.75 62.12 3.21 28 1.17 48.71 2.33 61.54 3.21 1.46 0 2.63.29 3.79.29-2.04-9.33-5.25-23.33-9.63-43.75 0-.58-.292-.87-.292-1.46-.292-1.45-1.17-7.87-7.88-33.54-5.25-19.83-9.33-39.37-12.25-57.75-4.38-26.83-4.67-30.04-4.67-31.5-8.75-99.45 16.63-190.74 74.96-271.53 54.25-74.67 122.21-136.21 201.83-182.87 78.17-46.08 163.33-78.17 252.58-95.08 59.5-11.67 120.17-21.29 180.25-28.58 33.83-59.21 69.7-101.5 106.45-125.41 6.71-4.38 13.42-8.75 20.13-12.83-9.92.88-23.33 2.63-39.38 5.54-35.58 6.42-36.16 6.42-37.91 6.42-6.42 0-12.25-1.75-17.21-4.96-7.58-4.96-11.67-12.54-11.67-21.87 0-18.67 11.67-40.83 36.75-69.42 6.13-7 15.75-17.79 28.59-31.79 1.16-1.17 2.04-2.33 3.2-3.5-35.58 5.25-75.83 14.88-120.45 28.88-74.67 25.96-77.58 25.96-81.38 25.96-9.33 0-16.33-3.21-20.41-9.04v-.291c-3.5-5.54-4.96-13.42-4.96-27.13 0-23.33 7-54.54 21.29-95.37 4.38-12.83 9.04-25.67 13.42-37.92-58.92 18.67-126.58 50.75-201.25 95.67-20.41 12.25-45.5 28-74.66 46.96-34.13 22.46-35.88 22.46-40.84 22.46-9.62 0-27.12-3.79-34.41-30.04-3.5-12.54-5.25-32.67-5.25-61.54 0-12.83.58-24.5 1.16-34.71-5.25 3.79-11.66 8.75-19.25 14.58-32.37 24.79-60.95 49.87-84.58 73.79-28 28-52.79 62.42-72.92 101.5-16.33 31.5-17.21 32.96-17.5 33.54v.292c-11.67 19.25-22.75 19.25-26.25 19.25-12.54 0-23.92-10.5-54.54-70.58-6.42-12.54-13.13-25.67-19.83-39.08-3.5 7.88-7.88 16.63-12.54 26.25-14 28.87-23.63 49.58-28.58 60.96-23.33 51.91-39.08 102.96-46.67 151.66-.875 5.54-4.67 9.92-9.92 11.67-5.25 1.75-11.8.29-14.88-3.5-4.38-4.38-15.75-14.88-33.83-31.5-3.21-2.92-6.42-5.83-9.04-8.17 3.21 24.79 6.71 49 9.92 72.33 13.13 92.17 18.38 110.54 20.13 114.04 2.33 4.67 1.75 9.92-.875 14.29-2.92 4.38-7.58 6.71-12.54 6.71a224.56 224.56 0 0 1-63-10.79c16.33 54.25 44.91 117.54 85.75 188.41 2.04 3.79 2.63 8.17 1.17 12.25-1.46 4.08-4.67 7.29-8.46 8.75-10.5 4.08-31.21 13.42-61.54 28-17.21 8.17-29.17 14.29-37.92 18.67 18.67 10.21 53.67 27.71 119.29 57.75 14 6.41 27.42 12.25 39.96 17.5 5.25 2.04 8.75 7 9.04 12.54.29 5.54-2.63 10.79-7.58 13.71-10.21 5.54-23.62 13.12-39.96 22.16-21 11.67-34.71 19.25-44.04 24.21 2.63 1.46 5.83 3.21 9.63 5.25 13.42 7 33.83 15.46 60.96 25.67 9.63 3.5 24.5 7.58 44.62 11.66 4.38.88 7.88 3.5 9.92 7.59 2.04 3.79 2.33 8.45.58 12.54a1067.33 1067.33 0 0 0-18.38 45.79c-4.38 10.21-7.58 18.08-9.92 23.62Zm974.73-902.98h.29-.29Zm-923.4 597.32c-2.04 0-4.38-.58-6.42-1.46-41.71-20.7-74.96-54.54-98.87-100.91-3.79-7.29-.875-16.04 6.42-19.54 7.29-3.79 16.04-.875 19.54 6.42 21 40.54 49.87 70 85.75 88.08 7.29 3.5 10.21 12.25 6.71 19.54-2.63 4.96-7.88 7.87-13.13 7.87Zm58.33-279.99c-4.08 0-8.46-1.75-11.38-5.25-17.79-21.58-33.25-53.08-45.79-93.62-2.33-7.58 2.04-15.75 9.62-18.38 7.58-2.33 15.75 2.04 18.38 9.63 11.38 37.04 25.08 65.04 40.54 83.71 5.25 6.13 4.38 15.46-2.04 20.42-2.92 2.33-6.13 3.5-9.33 3.5Zm195.12-45.79c-5.83 0-11.66-3.79-13.7-9.62-27.42-75.54-35.88-152.25-25.09-227.79 1.17-7.88 8.46-13.42 16.63-12.25 7.87 1.17 13.41 8.46 12.25 16.62-10.21 70.87-2.34 142.62 23.62 213.79 2.63 7.58-1.17 16.04-8.75 18.67-1.75.29-3.5.58-4.96.58Zm232.46-93.33c-7.29 0-13.42-5.54-14.59-12.83-10.79-86.33 7.88-164.21 55.71-231.29 4.67-6.71 13.71-8.17 20.42-3.5 6.71 4.67 8.16 13.71 3.5 20.42-21.59 30.62-37.04 63.58-45.21 98.58-8.46 35-10.21 72.62-5.25 112.29.88 7.88-4.67 15.17-12.54 16.33h-2.04Zm163.62-32.37h-.88c-8.16-.584-14.29-7.29-13.7-15.46 2.62-48.71 21.87-91.87 56.87-128.33 5.54-5.83 14.87-5.83 20.71-.292 5.83 5.54 5.83 14.88.29 20.71-30.62 31.79-46.67 67.67-49 109.66-.29 7.58-6.71 13.71-14.29 13.71Z"></path></symbol><symbol id="body" viewBox="0 0 3000 3000"><path fill="#6B956C" d="M792.22 337.6c-4.96 12.83-13.12 31.21-24.5 54.25-14 29.17-23.63 49.58-28.88 61.25-23.62 53.96-39.37 105.58-47.25 155.75-4.38-4.38-15.75-15.17-34.12-32.08-22.17-20.42-35-31.5-38.21-32.67 4.96 37.92 9.92 74.67 14.88 109.67 9.92 69.42 16.92 108.79 21.29 118.41-30.33-.875-58.62-7.88-85.17-20.71 14.29 61.83 45.79 135.33 94.79 220.2-11.08 4.08-31.79 13.71-62.71 28.59-33.25 16.04-53.08 26.54-59.79 31.49 11.67 9.63 58.92 33.55 141.46 71.17 14.29 6.42 27.71 12.54 40.54 17.79-10.21 5.54-23.33 13.13-39.67 22.17-39.37 21.58-59.79 32.96-61.25 33.54 1.46 5.83 10.5 13.12 27.42 21.58 14 7.29 34.71 16.04 62.42 26.25 10.21 3.79 25.96 7.88 46.67 12.25-6.13 14.29-12.25 29.75-18.67 46.08-8.17 21.29-13.12 32.67-14.58 33.84v9.04c5.54.87 32.08 2.33 79.62 4.37 28 1.17 48.42 2.34 61.25 3.21 9.04.58 14.29.88 16.04 1.17h7.29c-1.75-5.54-6.71-26.25-14.29-62.42-.583-4.08-3.21-16.04-8.46-35.58-4.96-19.54-9.04-38.21-11.96-56.58-2.92-18.09-4.38-28-4.38-30.04-8.46-96.25 15.75-183.75 72.33-261.92 53.37-73.21 118.99-133 197.45-178.79 77.29-45.5 159.83-76.71 248.21-93.33 62.12-12.25 124.24-21.87 186.37-29.46 33.83-60.96 69.12-103.25 105.29-126.87 18.37-11.96 37.62-23.63 57.74-35-1.45 0-5.83-.875-13.41-2.33-7.58-1.46-15.17-2.63-22.75-2.63-11.38 0-28.29 2.04-51.33 6.13-22.75 4.08-34.71 6.13-35.29 6.13-3.5 0-6.42-.875-9.05-2.63-3.5-2.33-5.25-5.54-5.25-9.63 0-14.58 11.09-34.42 33.25-59.79 6.13-7 15.46-17.5 28.59-31.5 11.08-12.54 19.54-22.75 25.08-30.92h-9.63c-42.29 4.08-91.58 14.88-148.16 32.67-48.42 16.63-73.79 25.08-76.71 25.08-4.37 0-7-.875-8.16-2.63-1.75-2.63-2.63-9.04-2.63-19.25 0-21.58 6.71-51.62 20.42-90.71 6.71-19.54 13.71-38.5 20.41-56.87 0-2.33-.29-3.79-1.16-4.08l-1.17.29h-9.62c-63.29 18.08-135.92 51.91-217.58 100.91-20.71 12.25-45.79 28-75.25 47.25-20.42 13.42-31.5 19.83-32.67 19.83-9.91 0-16.62-6.42-20.41-19.25-3.21-11.08-4.67-30.33-4.67-57.46 0-16.92.88-31.5 2.33-44.04 1.46-12.54 2.34-19.54 2.34-20.71-6.13 3.21-21.59 14-46.09 32.96-33.25 25.37-61.83 50.46-86.04 75.25-29.75 30.04-55.12 65.33-76.12 105.87-10.79 20.71-16.33 31.5-17.21 32.67-4.96 8.17-9.33 12.25-14 12.25-6.42 0-20.13-21-41.71-62.71-10.5-21.29-21.87-43.46-33.54-66.79Zm653.33 203c2.62-45.21 20.12-84.87 52.79-119-32.38 34.12-50.17 73.79-52.79 119ZM703.85 897.59c22.46 43.46 53.08 74.96 92.17 94.21-38.79-18.96-69.71-50.46-92.17-94.21Z"></path><path fill="#000" d="M891.39 1348.79h-7.58c-.875 0-1.46 0-2.33-.29-.292 0-2.92-.29-14.88-.88-12.83-.87-33.54-1.75-61.25-2.91-63.87-2.92-77-4.09-81.37-4.67-7-1.17-12.25-7.29-12.25-14.29v-9.04c0-3.21 1.17-6.42 2.92-8.75.88-1.75 3.79-7.88 12.54-30.34 4.08-10.49 8.17-20.7 11.96-30.33-13.12-3.21-23.62-6.12-31.5-9.04-28.29-10.5-49.29-19.54-63.87-26.83-21.87-11.09-32.37-20.42-35-30.92-1.75-6.71 1.75-13.71 7.88-16.62 1.75-.88 11.96-6.42 60.37-32.96 4.96-2.63 9.33-5.25 13.71-7.58-4.38-2.05-9.04-4.09-13.42-6.13-112.58-51.62-136.5-66.5-144.66-73.5-3.5-2.91-5.25-7-5.25-11.37 0-4.38 2.33-8.46 5.83-11.38 4.67-3.79 16.33-11.08 62.41-32.95 20.42-9.92 36.46-17.21 48.12-22.46-44.92-79.92-74.37-150.5-88.08-209.71-1.17-5.54.88-11.08 5.25-14.58 4.38-3.5 10.5-4.08 15.46-1.75 18.38 9.04 38.21 14.88 59.21 17.79-3.79-17.21-8.75-46.96-16.33-100.04-4.96-35-9.92-72.04-14.88-109.96-.583-5.25 1.46-10.5 5.83-13.71 4.38-3.21 9.92-3.79 14.58-1.46 2.92 1.46 7 3.21 42 35.29 5.54 5.25 10.5 9.63 14.88 13.71 9.04-42.87 23.63-87.21 43.46-132.41 5.25-11.67 14.87-32.37 29.17-61.54 11.08-23.04 19.25-40.83 23.92-53.37 2.04-5.25 7.29-9.04 12.83-9.33 5.83-.292 11.08 2.92 13.71 7.87 11.67 23.04 23.04 45.5 33.83 66.79 15.46 30.33 24.5 44.33 29.46 50.75.29-.292.29-.583.58-.875.58-1.17 3.79-7 16.92-32.38 21.58-41.41 48.12-78.17 78.46-109.37 24.5-25.08 53.95-50.75 87.5-76.71 34.13-25.96 44.04-32.08 48.42-34.42 4.37-2.33 9.92-2.04 14.29.58 4.38 2.63 7 7.29 7 12.54 0 1.17 0 2.92-2.33 22.46-1.46 11.67-2.34 25.96-2.34 42.29 0 32.38 2.34 46.96 4.09 53.67 1.46 5.25 2.91 7.29 4.37 8.17 3.5-2.04 11.09-6.71 26.83-16.92 29.46-19.25 54.84-35.29 75.55-47.54 82.54-49.29 156.91-84 221.07-102.66 1.46-.292 2.63-.584 4.09-.584h7.87c2.63-.583 5.54-.291 7.88.58 4.08 1.46 10.5 5.83 10.5 17.79 0 1.75-.29 3.5-.88 4.96-6.71 18.08-13.71 37.33-20.41 56.58-13.13 37.33-19.55 66.21-19.55 86.04v5.83c8.17-2.33 26.25-8.46 67.96-22.75h.29c57.17-17.79 107.92-29.17 151.08-33.25h11.09c5.54 0 10.5 2.92 12.83 7.88 2.62 4.67 2.33 10.5-.88 14.87-5.83 8.75-14.58 19.54-26.24 32.38v.291c-12.84 13.71-22.17 24.21-28 31.21-22.75 25.96-28.3 40.25-29.17 47.54 3.21-.584 11.67-2.04 32.37-5.54 23.92-4.38 41.71-6.42 53.96-6.42 8.46 0 17.21.88 25.96 2.92 7.87 1.75 10.21 2.04 10.79 2.04 6.42.29 11.96 4.67 13.42 10.79 1.75 6.42-1.17 13.13-7 16.33-19.84 11.38-39.09 23.04-56.88 34.71-34.12 22.17-67.95 63.29-100.62 121.62-2.33 4.08-6.42 6.71-11.08 7.29-61.54 7.29-123.96 17.21-185.5 29.17-86.33 16.33-168 47.25-243.54 91.58-76.41 44.62-141.16 103.54-193.08 175-27.13 37.62-46.67 77.58-58.33 119.58-11.67 41.71-15.46 86.33-11.38 132.71v.29c0 .87.58 5.54 4.38 29.17 2.92 17.49 6.71 35.87 11.67 54.83 6.42 24.79 8.17 32.96 8.46 36.75 9.92 45.79 12.83 57.45 13.71 60.08 1.46 4.37.88 9.33-2.04 13.12-1.75 2.34-6.13 4.67-10.79 4.67Zm-146.41-36.46c11.37.59 30.33 1.75 62.12 3.21 28 1.17 48.71 2.33 61.54 3.21 1.46 0 2.63.29 3.79.29-2.04-9.33-5.25-23.33-9.63-43.75 0-.58-.292-.87-.292-1.46-.292-1.45-1.17-7.87-7.88-33.54-5.25-19.83-9.33-39.37-12.25-57.75-4.38-26.83-4.67-30.04-4.67-31.5-8.75-99.45 16.63-190.74 74.96-271.53 54.25-74.67 122.21-136.21 201.83-182.87 78.17-46.08 163.33-78.17 252.58-95.08 59.5-11.67 120.17-21.29 180.25-28.58 33.83-59.21 69.7-101.5 106.45-125.41 6.71-4.38 13.42-8.75 20.13-12.83-9.92.88-23.33 2.63-39.38 5.54-35.58 6.42-36.16 6.42-37.91 6.42-6.42 0-12.25-1.75-17.21-4.96-7.58-4.96-11.67-12.54-11.67-21.87 0-18.67 11.67-40.83 36.75-69.42 6.13-7 15.75-17.79 28.59-31.79 1.16-1.17 2.04-2.33 3.2-3.5-35.58 5.25-75.83 14.88-120.45 28.88-74.67 25.96-77.58 25.96-81.38 25.96-9.33 0-16.33-3.21-20.41-9.04v-.291c-3.5-5.54-4.96-13.42-4.96-27.13 0-23.33 7-54.54 21.29-95.37 4.38-12.83 9.04-25.67 13.42-37.92-58.92 18.67-126.58 50.75-201.25 95.67-20.41 12.25-45.5 28-74.66 46.96-34.13 22.46-35.88 22.46-40.84 22.46-9.62 0-27.12-3.79-34.41-30.04-3.5-12.54-5.25-32.67-5.25-61.54 0-12.83.58-24.5 1.16-34.71-5.25 3.79-11.66 8.75-19.25 14.58-32.37 24.79-60.95 49.87-84.58 73.79-28 28-52.79 62.42-72.92 101.5-16.33 31.5-17.21 32.96-17.5 33.54v.292c-11.67 19.25-22.75 19.25-26.25 19.25-12.54 0-23.92-10.5-54.54-70.58-6.42-12.54-13.13-25.67-19.83-39.08-3.5 7.88-7.88 16.63-12.54 26.25-14 28.87-23.63 49.58-28.58 60.96-23.33 51.91-39.08 102.96-46.67 151.66-.875 5.54-4.67 9.92-9.92 11.67-5.25 1.75-11.8.29-14.88-3.5-4.38-4.38-15.75-14.88-33.83-31.5-3.21-2.92-6.42-5.83-9.04-8.17 3.21 24.79 6.71 49 9.92 72.33 13.13 92.17 18.38 110.54 20.13 114.04 2.33 4.67 1.75 9.92-.875 14.29-2.92 4.38-7.58 6.71-12.54 6.71a224.56 224.56 0 0 1-63-10.79c16.33 54.25 44.91 117.54 85.75 188.41 2.04 3.79 2.63 8.17 1.17 12.25-1.46 4.08-4.67 7.29-8.46 8.75-10.5 4.08-31.21 13.42-61.54 28-17.21 8.17-29.17 14.29-37.92 18.67 18.67 10.21 53.67 27.71 119.29 57.75 14 6.41 27.42 12.25 39.96 17.5 5.25 2.04 8.75 7 9.04 12.54.29 5.54-2.63 10.79-7.58 13.71-10.21 5.54-23.62 13.12-39.96 22.16-21 11.67-34.71 19.25-44.04 24.21 2.63 1.46 5.83 3.21 9.63 5.25 13.42 7 33.83 15.46 60.96 25.67 9.63 3.5 24.5 7.58 44.62 11.66 4.38.88 7.88 3.5 9.92 7.59 2.04 3.79 2.33 8.45.58 12.54a1067.33 1067.33 0 0 0-18.38 45.79c-4.38 10.21-7.58 18.08-9.92 23.62Zm974.73-902.98h.29-.29Zm-923.4 597.32c-2.04 0-4.38-.58-6.42-1.46-41.71-20.7-74.96-54.54-98.87-100.91-3.79-7.29-.875-16.04 6.42-19.54 7.29-3.79 16.04-.875 19.54 6.42 21 40.54 49.87 70 85.75 88.08 7.29 3.5 10.21 12.25 6.71 19.54-2.63 4.96-7.88 7.87-13.13 7.87Zm58.33-279.99c-4.08 0-8.46-1.75-11.38-5.25-17.79-21.58-33.25-53.08-45.79-93.62-2.33-7.58 2.04-15.75 9.62-18.38 7.58-2.33 15.75 2.04 18.38 9.63 11.38 37.04 25.08 65.04 40.54 83.71 5.25 6.13 4.38 15.46-2.04 20.42-2.92 2.33-6.13 3.5-9.33 3.5Zm195.12-45.79c-5.83 0-11.66-3.79-13.7-9.62-27.42-75.54-35.88-152.25-25.09-227.79 1.17-7.88 8.46-13.42 16.63-12.25 7.87 1.17 13.41 8.46 12.25 16.62-10.21 70.87-2.34 142.62 23.62 213.79 2.63 7.58-1.17 16.04-8.75 18.67-1.75.29-3.5.58-4.96.58Zm232.46-93.33c-7.29 0-13.42-5.54-14.59-12.83-10.79-86.33 7.88-164.21 55.71-231.29 4.67-6.71 13.71-8.17 20.42-3.5 6.71 4.67 8.16 13.71 3.5 20.42-21.59 30.62-37.04 63.58-45.21 98.58-8.46 35-10.21 72.62-5.25 112.29.88 7.88-4.67 15.17-12.54 16.33h-2.04Zm163.62-32.37h-.88c-8.16-.584-14.29-7.29-13.7-15.46 2.62-48.71 21.87-91.87 56.87-128.33 5.54-5.83 14.87-5.83 20.71-.292 5.83 5.54 5.83 14.88.29 20.71-30.62 31.79-46.67 67.67-49 109.66-.29 7.58-6.71 13.71-14.29 13.71Z"></path></symbol><symbol id="left" viewBox="0 0 3000 3000"><path fill="#6B956C" d="M792.22 337.6c-4.96 12.83-13.12 31.21-24.5 54.25-14 29.17-23.63 49.58-28.88 61.25-23.62 53.96-39.37 105.58-47.25 155.75-4.38-4.38-15.75-15.17-34.12-32.08-22.17-20.42-35-31.5-38.21-32.67 4.96 37.92 9.92 74.67 14.88 109.67 9.92 69.42 16.92 108.79 21.29 118.41-30.33-.875-58.62-7.88-85.17-20.71 14.29 61.83 45.79 135.33 94.79 220.2-11.08 4.08-31.79 13.71-62.71 28.59-33.25 16.04-53.08 26.54-59.79 31.49 11.67 9.63 58.92 33.55 141.46 71.17 14.29 6.42 27.71 12.54 40.54 17.79-10.21 5.54-23.33 13.13-39.67 22.17-39.37 21.58-59.79 32.96-61.25 33.54 1.46 5.83 10.5 13.12 27.42 21.58 14 7.29 34.71 16.04 62.42 26.25 10.21 3.79 25.96 7.88 46.67 12.25-6.13 14.29-12.25 29.75-18.67 46.08-8.17 21.29-13.12 32.67-14.58 33.84v9.04c5.54.87 32.08 2.33 79.62 4.37 28 1.17 48.42 2.34 61.25 3.21 9.04.58 14.29.88 16.04 1.17h7.29c-1.75-5.54-6.71-26.25-14.29-62.42-.583-4.08-3.21-16.04-8.46-35.58-4.96-19.54-9.04-38.21-11.96-56.58-2.92-18.09-4.38-28-4.38-30.04-8.46-96.25 15.75-183.75 72.33-261.92 53.37-73.21 118.99-133 197.45-178.79 77.29-45.5 159.83-76.71 248.21-93.33 62.12-12.25 124.24-21.87 186.37-29.46 33.83-60.96 69.12-103.25 105.29-126.87 18.37-11.96 37.62-23.63 57.74-35-1.45 0-5.83-.875-13.41-2.33-7.58-1.46-15.17-2.63-22.75-2.63-11.38 0-28.29 2.04-51.33 6.13-22.75 4.08-34.71 6.13-35.29 6.13-3.5 0-6.42-.875-9.05-2.63-3.5-2.33-5.25-5.54-5.25-9.63 0-14.58 11.09-34.42 33.25-59.79 6.13-7 15.46-17.5 28.59-31.5 11.08-12.54 19.54-22.75 25.08-30.92h-9.63c-42.29 4.08-91.58 14.88-148.16 32.67-48.42 16.63-73.79 25.08-76.71 25.08-4.37 0-7-.875-8.16-2.63-1.75-2.63-2.63-9.04-2.63-19.25 0-21.58 6.71-51.62 20.42-90.71 6.71-19.54 13.71-38.5 20.41-56.87 0-2.33-.29-3.79-1.16-4.08l-1.17.29h-9.62c-63.29 18.08-135.92 51.91-217.58 100.91-20.71 12.25-45.79 28-75.25 47.25-20.42 13.42-31.5 19.83-32.67 19.83-9.91 0-16.62-6.42-20.41-19.25-3.21-11.08-4.67-30.33-4.67-57.46 0-16.92.88-31.5 2.33-44.04 1.46-12.54 2.34-19.54 2.34-20.71-6.13 3.21-21.59 14-46.09 32.96-33.25 25.37-61.83 50.46-86.04 75.25-29.75 30.04-55.12 65.33-76.12 105.87-10.79 20.71-16.33 31.5-17.21 32.67-4.96 8.17-9.33 12.25-14 12.25-6.42 0-20.13-21-41.71-62.71-10.5-21.29-21.87-43.46-33.54-66.79Zm653.33 203c2.62-45.21 20.12-84.87 52.79-119-32.38 34.12-50.17 73.79-52.79 119ZM703.85 897.59c22.46 43.46 53.08 74.96 92.17 94.21-38.79-18.96-69.71-50.46-92.17-94.21Z"></path><path fill="#000" d="M891.39 1348.79h-7.58c-.875 0-1.46 0-2.33-.29-.292 0-2.92-.29-14.88-.88-12.83-.87-33.54-1.75-61.25-2.91-63.87-2.92-77-4.09-81.37-4.67-7-1.17-12.25-7.29-12.25-14.29v-9.04c0-3.21 1.17-6.42 2.92-8.75.88-1.75 3.79-7.88 12.54-30.34 4.08-10.49 8.17-20.7 11.96-30.33-13.12-3.21-23.62-6.12-31.5-9.04-28.29-10.5-49.29-19.54-63.87-26.83-21.87-11.09-32.37-20.42-35-30.92-1.75-6.71 1.75-13.71 7.88-16.62 1.75-.88 11.96-6.42 60.37-32.96 4.96-2.63 9.33-5.25 13.71-7.58-4.38-2.05-9.04-4.09-13.42-6.13-112.58-51.62-136.5-66.5-144.66-73.5-3.5-2.91-5.25-7-5.25-11.37 0-4.38 2.33-8.46 5.83-11.38 4.67-3.79 16.33-11.08 62.41-32.95 20.42-9.92 36.46-17.21 48.12-22.46-44.92-79.92-74.37-150.5-88.08-209.71-1.17-5.54.88-11.08 5.25-14.58 4.38-3.5 10.5-4.08 15.46-1.75 18.38 9.04 38.21 14.88 59.21 17.79-3.79-17.21-8.75-46.96-16.33-100.04-4.96-35-9.92-72.04-14.88-109.96-.583-5.25 1.46-10.5 5.83-13.71 4.38-3.21 9.92-3.79 14.58-1.46 2.92 1.46 7 3.21 42 35.29 5.54 5.25 10.5 9.63 14.88 13.71 9.04-42.87 23.63-87.21 43.46-132.41 5.25-11.67 14.87-32.37 29.17-61.54 11.08-23.04 19.25-40.83 23.92-53.37 2.04-5.25 7.29-9.04 12.83-9.33 5.83-.292 11.08 2.92 13.71 7.87 11.67 23.04 23.04 45.5 33.83 66.79 15.46 30.33 24.5 44.33 29.46 50.75.29-.292.29-.583.58-.875.58-1.17 3.79-7 16.92-32.38 21.58-41.41 48.12-78.17 78.46-109.37 24.5-25.08 53.95-50.75 87.5-76.71 34.13-25.96 44.04-32.08 48.42-34.42 4.37-2.33 9.92-2.04 14.29.58 4.38 2.63 7 7.29 7 12.54 0 1.17 0 2.92-2.33 22.46-1.46 11.67-2.34 25.96-2.34 42.29 0 32.38 2.34 46.96 4.09 53.67 1.46 5.25 2.91 7.29 4.37 8.17 3.5-2.04 11.09-6.71 26.83-16.92 29.46-19.25 54.84-35.29 75.55-47.54 82.54-49.29 156.91-84 221.07-102.66 1.46-.292 2.63-.584 4.09-.584h7.87c2.63-.583 5.54-.291 7.88.58 4.08 1.46 10.5 5.83 10.5 17.79 0 1.75-.29 3.5-.88 4.96-6.71 18.08-13.71 37.33-20.41 56.58-13.13 37.33-19.55 66.21-19.55 86.04v5.83c8.17-2.33 26.25-8.46 67.96-22.75h.29c57.17-17.79 107.92-29.17 151.08-33.25h11.09c5.54 0 10.5 2.92 12.83 7.88 2.62 4.67 2.33 10.5-.88 14.87-5.83 8.75-14.58 19.54-26.24 32.38v.291c-12.84 13.71-22.17 24.21-28 31.21-22.75 25.96-28.3 40.25-29.17 47.54 3.21-.584 11.67-2.04 32.37-5.54 23.92-4.38 41.71-6.42 53.96-6.42 8.46 0 17.21.88 25.96 2.92 7.87 1.75 10.21 2.04 10.79 2.04 6.42.29 11.96 4.67 13.42 10.79 1.75 6.42-1.17 13.13-7 16.33-19.84 11.38-39.09 23.04-56.88 34.71-34.12 22.17-67.95 63.29-100.62 121.62-2.33 4.08-6.42 6.71-11.08 7.29-61.54 7.29-123.96 17.21-185.5 29.17-86.33 16.33-168 47.25-243.54 91.58-76.41 44.62-141.16 103.54-193.08 175-27.13 37.62-46.67 77.58-58.33 119.58-11.67 41.71-15.46 86.33-11.38 132.71v.29c0 .87.58 5.54 4.38 29.17 2.92 17.49 6.71 35.87 11.67 54.83 6.42 24.79 8.17 32.96 8.46 36.75 9.92 45.79 12.83 57.45 13.71 60.08 1.46 4.37.88 9.33-2.04 13.12-1.75 2.34-6.13 4.67-10.79 4.67Zm-146.41-36.46c11.37.59 30.33 1.75 62.12 3.21 28 1.17 48.71 2.33 61.54 3.21 1.46 0 2.63.29 3.79.29-2.04-9.33-5.25-23.33-9.63-43.75 0-.58-.292-.87-.292-1.46-.292-1.45-1.17-7.87-7.88-33.54-5.25-19.83-9.33-39.37-12.25-57.75-4.38-26.83-4.67-30.04-4.67-31.5-8.75-99.45 16.63-190.74 74.96-271.53 54.25-74.67 122.21-136.21 201.83-182.87 78.17-46.08 163.33-78.17 252.58-95.08 59.5-11.67 120.17-21.29 180.25-28.58 33.83-59.21 69.7-101.5 106.45-125.41 6.71-4.38 13.42-8.75 20.13-12.83-9.92.88-23.33 2.63-39.38 5.54-35.58 6.42-36.16 6.42-37.91 6.42-6.42 0-12.25-1.75-17.21-4.96-7.58-4.96-11.67-12.54-11.67-21.87 0-18.67 11.67-40.83 36.75-69.42 6.13-7 15.75-17.79 28.59-31.79 1.16-1.17 2.04-2.33 3.2-3.5-35.58 5.25-75.83 14.88-120.45 28.88-74.67 25.96-77.58 25.96-81.38 25.96-9.33 0-16.33-3.21-20.41-9.04v-.291c-3.5-5.54-4.96-13.42-4.96-27.13 0-23.33 7-54.54 21.29-95.37 4.38-12.83 9.04-25.67 13.42-37.92-58.92 18.67-126.58 50.75-201.25 95.67-20.41 12.25-45.5 28-74.66 46.96-34.13 22.46-35.88 22.46-40.84 22.46-9.62 0-27.12-3.79-34.41-30.04-3.5-12.54-5.25-32.67-5.25-61.54 0-12.83.58-24.5 1.16-34.71-5.25 3.79-11.66 8.75-19.25 14.58-32.37 24.79-60.95 49.87-84.58 73.79-28 28-52.79 62.42-72.92 101.5-16.33 31.5-17.21 32.96-17.5 33.54v.292c-11.67 19.25-22.75 19.25-26.25 19.25-12.54 0-23.92-10.5-54.54-70.58-6.42-12.54-13.13-25.67-19.83-39.08-3.5 7.88-7.88 16.63-12.54 26.25-14 28.87-23.63 49.58-28.58 60.96-23.33 51.91-39.08 102.96-46.67 151.66-.875 5.54-4.67 9.92-9.92 11.67-5.25 1.75-11.8.29-14.88-3.5-4.38-4.38-15.75-14.88-33.83-31.5-3.21-2.92-6.42-5.83-9.04-8.17 3.21 24.79 6.71 49 9.92 72.33 13.13 92.17 18.38 110.54 20.13 114.04 2.33 4.67 1.75 9.92-.875 14.29-2.92 4.38-7.58 6.71-12.54 6.71a224.56 224.56 0 0 1-63-10.79c16.33 54.25 44.91 117.54 85.75 188.41 2.04 3.79 2.63 8.17 1.17 12.25-1.46 4.08-4.67 7.29-8.46 8.75-10.5 4.08-31.21 13.42-61.54 28-17.21 8.17-29.17 14.29-37.92 18.67 18.67 10.21 53.67 27.71 119.29 57.75 14 6.41 27.42 12.25 39.96 17.5 5.25 2.04 8.75 7 9.04 12.54.29 5.54-2.63 10.79-7.58 13.71-10.21 5.54-23.62 13.12-39.96 22.16-21 11.67-34.71 19.25-44.04 24.21 2.63 1.46 5.83 3.21 9.63 5.25 13.42 7 33.83 15.46 60.96 25.67 9.63 3.5 24.5 7.58 44.62 11.66 4.38.88 7.88 3.5 9.92 7.59 2.04 3.79 2.33 8.45.58 12.54a1067.33 1067.33 0 0 0-18.38 45.79c-4.38 10.21-7.58 18.08-9.92 23.62Zm974.73-902.98h.29-.29Zm-923.4 597.32c-2.04 0-4.38-.58-6.42-1.46-41.71-20.7-74.96-54.54-98.87-100.91-3.79-7.29-.875-16.04 6.42-19.54 7.29-3.79 16.04-.875 19.54 6.42 21 40.54 49.87 70 85.75 88.08 7.29 3.5 10.21 12.25 6.71 19.54-2.63 4.96-7.88 7.87-13.13 7.87Zm58.33-279.99c-4.08 0-8.46-1.75-11.38-5.25-17.79-21.58-33.25-53.08-45.79-93.62-2.33-7.58 2.04-15.75 9.62-18.38 7.58-2.33 15.75 2.04 18.38 9.63 11.38 37.04 25.08 65.04 40.54 83.71 5.25 6.13 4.38 15.46-2.04 20.42-2.92 2.33-6.13 3.5-9.33 3.5Zm195.12-45.79c-5.83 0-11.66-3.79-13.7-9.62-27.42-75.54-35.88-152.25-25.09-227.79 1.17-7.88 8.46-13.42 16.63-12.25 7.87 1.17 13.41 8.46 12.25 16.62-10.21 70.87-2.34 142.62 23.62 213.79 2.63 7.58-1.17 16.04-8.75 18.67-1.75.29-3.5.58-4.96.58Zm232.46-93.33c-7.29 0-13.42-5.54-14.59-12.83-10.79-86.33 7.88-164.21 55.71-231.29 4.67-6.71 13.71-8.17 20.42-3.5 6.71 4.67 8.16 13.71 3.5 20.42-21.59 30.62-37.04 63.58-45.21 98.58-8.46 35-10.21 72.62-5.25 112.29.88 7.88-4.67 15.17-12.54 16.33h-2.04Zm163.62-32.37h-.88c-8.16-.584-14.29-7.29-13.7-15.46 2.62-48.71 21.87-91.87 56.87-128.33 5.54-5.83 14.87-5.83 20.71-.292 5.83 5.54 5.83 14.88.29 20.71-30.62 31.79-46.67 67.67-49 109.66-.29 7.58-6.71 13.71-14.29 13.71Z"></path></symbol><symbol id="right" viewBox="0 0 3000 3000"><path fill="#6B956C" d="M792.22 337.6c-4.96 12.83-13.12 31.21-24.5 54.25-14 29.17-23.63 49.58-28.88 61.25-23.62 53.96-39.37 105.58-47.25 155.75-4.38-4.38-15.75-15.17-34.12-32.08-22.17-20.42-35-31.5-38.21-32.67 4.96 37.92 9.92 74.67 14.88 109.67 9.92 69.42 16.92 108.79 21.29 118.41-30.33-.875-58.62-7.88-85.17-20.71 14.29 61.83 45.79 135.33 94.79 220.2-11.08 4.08-31.79 13.71-62.71 28.59-33.25 16.04-53.08 26.54-59.79 31.49 11.67 9.63 58.92 33.55 141.46 71.17 14.29 6.42 27.71 12.54 40.54 17.79-10.21 5.54-23.33 13.13-39.67 22.17-39.37 21.58-59.79 32.96-61.25 33.54 1.46 5.83 10.5 13.12 27.42 21.58 14 7.29 34.71 16.04 62.42 26.25 10.21 3.79 25.96 7.88 46.67 12.25-6.13 14.29-12.25 29.75-18.67 46.08-8.17 21.29-13.12 32.67-14.58 33.84v9.04c5.54.87 32.08 2.33 79.62 4.37 28 1.17 48.42 2.34 61.25 3.21 9.04.58 14.29.88 16.04 1.17h7.29c-1.75-5.54-6.71-26.25-14.29-62.42-.583-4.08-3.21-16.04-8.46-35.58-4.96-19.54-9.04-38.21-11.96-56.58-2.92-18.09-4.38-28-4.38-30.04-8.46-96.25 15.75-183.75 72.33-261.92 53.37-73.21 118.99-133 197.45-178.79 77.29-45.5 159.83-76.71 248.21-93.33 62.12-12.25 124.24-21.87 186.37-29.46 33.83-60.96 69.12-103.25 105.29-126.87 18.37-11.96 37.62-23.63 57.74-35-1.45 0-5.83-.875-13.41-2.33-7.58-1.46-15.17-2.63-22.75-2.63-11.38 0-28.29 2.04-51.33 6.13-22.75 4.08-34.71 6.13-35.29 6.13-3.5 0-6.42-.875-9.05-2.63-3.5-2.33-5.25-5.54-5.25-9.63 0-14.58 11.09-34.42 33.25-59.79 6.13-7 15.46-17.5 28.59-31.5 11.08-12.54 19.54-22.75 25.08-30.92h-9.63c-42.29 4.08-91.58 14.88-148.16 32.67-48.42 16.63-73.79 25.08-76.71 25.08-4.37 0-7-.875-8.16-2.63-1.75-2.63-2.63-9.04-2.63-19.25 0-21.58 6.71-51.62 20.42-90.71 6.71-19.54 13.71-38.5 20.41-56.87 0-2.33-.29-3.79-1.16-4.08l-1.17.29h-9.62c-63.29 18.08-135.92 51.91-217.58 100.91-20.71 12.25-45.79 28-75.25 47.25-20.42 13.42-31.5 19.83-32.67 19.83-9.91 0-16.62-6.42-20.41-19.25-3.21-11.08-4.67-30.33-4.67-57.46 0-16.92.88-31.5 2.33-44.04 1.46-12.54 2.34-19.54 2.34-20.71-6.13 3.21-21.59 14-46.09 32.96-33.25 25.37-61.83 50.46-86.04 75.25-29.75 30.04-55.12 65.33-76.12 105.87-10.79 20.71-16.33 31.5-17.21 32.67-4.96 8.17-9.33 12.25-14 12.25-6.42 0-20.13-21-41.71-62.71-10.5-21.29-21.87-43.46-33.54-66.79Zm653.33 203c2.62-45.21 20.12-84.87 52.79-119-32.38 34.12-50.17 73.79-52.79 119ZM703.85 897.59c22.46 43.46 53.08 74.96 92.17 94.21-38.79-18.96-69.71-50.46-92.17-94.21Z"></path><path fill="#000" d="M891.39 1348.79h-7.58c-.875 0-1.46 0-2.33-.29-.292 0-2.92-.29-14.88-.88-12.83-.87-33.54-1.75-61.25-2.91-63.87-2.92-77-4.09-81.37-4.67-7-1.17-12.25-7.29-12.25-14.29v-9.04c0-3.21 1.17-6.42 2.92-8.75.88-1.75 3.79-7.88 12.54-30.34 4.08-10.49 8.17-20.7 11.96-30.33-13.12-3.21-23.62-6.12-31.5-9.04-28.29-10.5-49.29-19.54-63.87-26.83-21.87-11.09-32.37-20.42-35-30.92-1.75-6.71 1.75-13.71 7.88-16.62 1.75-.88 11.96-6.42 60.37-32.96 4.96-2.63 9.33-5.25 13.71-7.58-4.38-2.05-9.04-4.09-13.42-6.13-112.58-51.62-136.5-66.5-144.66-73.5-3.5-2.91-5.25-7-5.25-11.37 0-4.38 2.33-8.46 5.83-11.38 4.67-3.79 16.33-11.08 62.41-32.95 20.42-9.92 36.46-17.21 48.12-22.46-44.92-79.92-74.37-150.5-88.08-209.71-1.17-5.54.88-11.08 5.25-14.58 4.38-3.5 10.5-4.08 15.46-1.75 18.38 9.04 38.21 14.88 59.21 17.79-3.79-17.21-8.75-46.96-16.33-100.04-4.96-35-9.92-72.04-14.88-109.96-.583-5.25 1.46-10.5 5.83-13.71 4.38-3.21 9.92-3.79 14.58-1.46 2.92 1.46 7 3.21 42 35.29 5.54 5.25 10.5 9.63 14.88 13.71 9.04-42.87 23.63-87.21 43.46-132.41 5.25-11.67 14.87-32.37 29.17-61.54 11.08-23.04 19.25-40.83 23.92-53.37 2.04-5.25 7.29-9.04 12.83-9.33 5.83-.292 11.08 2.92 13.71 7.87 11.67 23.04 23.04 45.5 33.83 66.79 15.46 30.33 24.5 44.33 29.46 50.75.29-.292.29-.583.58-.875.58-1.17 3.79-7 16.92-32.38 21.58-41.41 48.12-78.17 78.46-109.37 24.5-25.08 53.95-50.75 87.5-76.71 34.13-25.96 44.04-32.08 48.42-34.42 4.37-2.33 9.92-2.04 14.29.58 4.38 2.63 7 7.29 7 12.54 0 1.17 0 2.92-2.33 22.46-1.46 11.67-2.34 25.96-2.34 42.29 0 32.38 2.34 46.96 4.09 53.67 1.46 5.25 2.91 7.29 4.37 8.17 3.5-2.04 11.09-6.71 26.83-16.92 29.46-19.25 54.84-35.29 75.55-47.54 82.54-49.29 156.91-84 221.07-102.66 1.46-.292 2.63-.584 4.09-.584h7.87c2.63-.583 5.54-.291 7.88.58 4.08 1.46 10.5 5.83 10.5 17.79 0 1.75-.29 3.5-.88 4.96-6.71 18.08-13.71 37.33-20.41 56.58-13.13 37.33-19.55 66.21-19.55 86.04v5.83c8.17-2.33 26.25-8.46 67.96-22.75h.29c57.17-17.79 107.92-29.17 151.08-33.25h11.09c5.54 0 10.5 2.92 12.83 7.88 2.62 4.67 2.33 10.5-.88 14.87-5.83 8.75-14.58 19.54-26.24 32.38v.291c-12.84 13.71-22.17 24.21-28 31.21-22.75 25.96-28.3 40.25-29.17 47.54 3.21-.584 11.67-2.04 32.37-5.54 23.92-4.38 41.71-6.42 53.96-6.42 8.46 0 17.21.88 25.96 2.92 7.87 1.75 10.21 2.04 10.79 2.04 6.42.29 11.96 4.67 13.42 10.79 1.75 6.42-1.17 13.13-7 16.33-19.84 11.38-39.09 23.04-56.88 34.71-34.12 22.17-67.95 63.29-100.62 121.62-2.33 4.08-6.42 6.71-11.08 7.29-61.54 7.29-123.96 17.21-185.5 29.17-86.33 16.33-168 47.25-243.54 91.58-76.41 44.62-141.16 103.54-193.08 175-27.13 37.62-46.67 77.58-58.33 119.58-11.67 41.71-15.46 86.33-11.38 132.71v.29c0 .87.58 5.54 4.38 29.17 2.92 17.49 6.71 35.87 11.67 54.83 6.42 24.79 8.17 32.96 8.46 36.75 9.92 45.79 12.83 57.45 13.71 60.08 1.46 4.37.88 9.33-2.04 13.12-1.75 2.34-6.13 4.67-10.79 4.67Zm-146.41-36.46c11.37.59 30.33 1.75 62.12 3.21 28 1.17 48.71 2.33 61.54 3.21 1.46 0 2.63.29 3.79.29-2.04-9.33-5.25-23.33-9.63-43.75 0-.58-.292-.87-.292-1.46-.292-1.45-1.17-7.87-7.88-33.54-5.25-19.83-9.33-39.37-12.25-57.75-4.38-26.83-4.67-30.04-4.67-31.5-8.75-99.45 16.63-190.74 74.96-271.53 54.25-74.67 122.21-136.21 201.83-182.87 78.17-46.08 163.33-78.17 252.58-95.08 59.5-11.67 120.17-21.29 180.25-28.58 33.83-59.21 69.7-101.5 106.45-125.41 6.71-4.38 13.42-8.75 20.13-12.83-9.92.88-23.33 2.63-39.38 5.54-35.58 6.42-36.16 6.42-37.91 6.42-6.42 0-12.25-1.75-17.21-4.96-7.58-4.96-11.67-12.54-11.67-21.87 0-18.67 11.67-40.83 36.75-69.42 6.13-7 15.75-17.79 28.59-31.79 1.16-1.17 2.04-2.33 3.2-3.5-35.58 5.25-75.83 14.88-120.45 28.88-74.67 25.96-77.58 25.96-81.38 25.96-9.33 0-16.33-3.21-20.41-9.04v-.291c-3.5-5.54-4.96-13.42-4.96-27.13 0-23.33 7-54.54 21.29-95.37 4.38-12.83 9.04-25.67 13.42-37.92-58.92 18.67-126.58 50.75-201.25 95.67-20.41 12.25-45.5 28-74.66 46.96-34.13 22.46-35.88 22.46-40.84 22.46-9.62 0-27.12-3.79-34.41-30.04-3.5-12.54-5.25-32.67-5.25-61.54 0-12.83.58-24.5 1.16-34.71-5.25 3.79-11.66 8.75-19.25 14.58-32.37 24.79-60.95 49.87-84.58 73.79-28 28-52.79 62.42-72.92 101.5-16.33 31.5-17.21 32.96-17.5 33.54v.292c-11.67 19.25-22.75 19.25-26.25 19.25-12.54 0-23.92-10.5-54.54-70.58-6.42-12.54-13.13-25.67-19.83-39.08-3.5 7.88-7.88 16.63-12.54 26.25-14 28.87-23.63 49.58-28.58 60.96-23.33 51.91-39.08 102.96-46.67 151.66-.875 5.54-4.67 9.92-9.92 11.67-5.25 1.75-11.8.29-14.88-3.5-4.38-4.38-15.75-14.88-33.83-31.5-3.21-2.92-6.42-5.83-9.04-8.17 3.21 24.79 6.71 49 9.92 72.33 13.13 92.17 18.38 110.54 20.13 114.04 2.33 4.67 1.75 9.92-.875 14.29-2.92 4.38-7.58 6.71-12.54 6.71a224.56 224.56 0 0 1-63-10.79c16.33 54.25 44.91 117.54 85.75 188.41 2.04 3.79 2.63 8.17 1.17 12.25-1.46 4.08-4.67 7.29-8.46 8.75-10.5 4.08-31.21 13.42-61.54 28-17.21 8.17-29.17 14.29-37.92 18.67 18.67 10.21 53.67 27.71 119.29 57.75 14 6.41 27.42 12.25 39.96 17.5 5.25 2.04 8.75 7 9.04 12.54.29 5.54-2.63 10.79-7.58 13.71-10.21 5.54-23.62 13.12-39.96 22.16-21 11.67-34.71 19.25-44.04 24.21 2.63 1.46 5.83 3.21 9.63 5.25 13.42 7 33.83 15.46 60.96 25.67 9.63 3.5 24.5 7.58 44.62 11.66 4.38.88 7.88 3.5 9.92 7.59 2.04 3.79 2.33 8.45.58 12.54a1067.33 1067.33 0 0 0-18.38 45.79c-4.38 10.21-7.58 18.08-9.92 23.62Zm974.73-902.98h.29-.29Zm-923.4 597.32c-2.04 0-4.38-.58-6.42-1.46-41.71-20.7-74.96-54.54-98.87-100.91-3.79-7.29-.875-16.04 6.42-19.54 7.29-3.79 16.04-.875 19.54 6.42 21 40.54 49.87 70 85.75 88.08 7.29 3.5 10.21 12.25 6.71 19.54-2.63 4.96-7.88 7.87-13.13 7.87Zm58.33-279.99c-4.08 0-8.46-1.75-11.38-5.25-17.79-21.58-33.25-53.08-45.79-93.62-2.33-7.58 2.04-15.75 9.62-18.38 7.58-2.33 15.75 2.04 18.38 9.63 11.38 37.04 25.08 65.04 40.54 83.71 5.25 6.13 4.38 15.46-2.04 20.42-2.92 2.33-6.13 3.5-9.33 3.5Zm195.12-45.79c-5.83 0-11.66-3.79-13.7-9.62-27.42-75.54-35.88-152.25-25.09-227.79 1.17-7.88 8.46-13.42 16.63-12.25 7.87 1.17 13.41 8.46 12.25 16.62-10.21 70.87-2.34 142.62 23.62 213.79 2.63 7.58-1.17 16.04-8.75 18.67-1.75.29-3.5.58-4.96.58Zm232.46-93.33c-7.29 0-13.42-5.54-14.59-12.83-10.79-86.33 7.88-164.21 55.71-231.29 4.67-6.71 13.71-8.17 20.42-3.5 6.71 4.67 8.16 13.71 3.5 20.42-21.59 30.62-37.04 63.58-45.21 98.58-8.46 35-10.21 72.62-5.25 112.29.88 7.88-4.67 15.17-12.54 16.33h-2.04Zm163.62-32.37h-.88c-8.16-.584-14.29-7.29-13.7-15.46 2.62-48.71 21.87-91.87 56.87-128.33 5.54-5.83 14.87-5.83 20.71-.292 5.83 5.54 5.83 14.88.29 20.71-30.62 31.79-46.67 67.67-49 109.66-.29 7.58-6.71 13.71-14.29 13.71Z"></path></symbol></svg>