<svg xmlns="http://www.w3.org/2000/svg"><symbol id="default" viewBox="0 0 3000 3000"><path fill="#f6c799" d="M1059.68 1940.46c-85.46-28.58-165.08-21.58-238.87 21-73.5 42.58-119.29 107.92-137.37 196.29-18.08 88.67-3.21 174.41 44.62 257.25 3.21 5.83 6.71 11.67 10.21 17.5 19.83 31.5 43.46 60.66 71.17 87.5 27.71 26.83 61.83 49 102.08 66.21 40.83 17.21 82.25 16.33 124.25-2.63.58-.292 1.46-.875 2.04-1.17 23.04-13.42 38.21-32.96 44.92-58.91 4.38-16.63 4.96-32.38.88-47.54-2.92-14-7-27.42-12.25-40.54-3.79-9.04-4.38-17.79-2.33-25.67 4.38-15.75 13.42-27.71 27.42-35.87 11.38-6.71 23.33-9.04 35.58-7.58 2.92.58 5.83 1.17 9.04 1.75 1.17.29 2.63.88 4.08 1.46 31.79 5.54 61.83 0 90.71-16.63 32.37-18.96 53.67-46.37 63.29-82.25 5.25-19.83 6.13-38.79 3.21-57.46-2.04-8.46-4.38-16.92-7-25.67-8.46-26.83-20.13-53.37-35.29-79.62-47.54-83.12-114.33-138.83-200.37-167.41m-145.25 96.25c1.17-6.42 1.75-10.79 2.04-13.42.58-4.38 0-7.88-1.75-10.5-.291-.583-1.46-2.33-3.79-5.54-2.33-3.21-3.79-4.96-4.38-5.54-3.21-5.54-3.5-12.25-.875-19.54 2.63-7.29 7.58-12.83 14.87-16.92 3.79-2.33 8.75-3.5 14.88-3.79 5.83 0 12.25.88 18.67 2.63 6.71 2.04 13.13 4.96 18.67 9.04 6.13 4.08 10.79 9.04 14.29 15.17 14.29 21.29 22.17 33.25 23.63 35.58 1.17 2.04 2.04 3.79 2.63 5.83 2.92 5.54 4.96 10.21 6.42 14.58 4.67 14.58 2.04 25.08-8.17 30.92-2.33 1.17-5.83 2.04-10.21 2.33-4.38.58-6.71.88-7.29 1.17-1.46.58-3.5 3.21-6.42 7.58-3.21 4.67-6.71 7.88-9.92 9.63-2.63 1.46-5.83 2.33-9.92 3.21-4.67.58-9.33.58-14.29-.292-12.54-2.33-22.75-9.92-30.04-22.46 0 0-.292-.291-.292-.583-7.29-12.54-10.21-25.67-8.75-39.08m328.99 151.96c14.29 17.79 20.71 36.75 19.25 56.58-1.46 19.83-10.5 34.71-26.83 44.04-6.13 3.5-13.71 4.38-22.75 2.92-9.62-1.75-16.33-6.13-20.12-12.25-2.92-5.25-5.25-10.21-6.71-15.17-.584-2.63-1.17-6.71-2.63-12.54-.875-5.54-2.04-9.92-3.21-13.42-1.75-5.54-4.67-11.38-8.46-17.5-6.71-11.08-10.21-21.29-10.21-30.04-.292-11.67 4.96-20.42 15.75-26.54 8.17-4.67 17.5-6.42 28.29-4.96 10.79 1.17 23.33 10.79 37.63 28.88m-287.29-28.88c4.08-2.63 9.33-4.08 15.17-4.37 6.71-.584 13.13.29 19.83 2.04 16.33 4.38 28.58 13.71 37.04 28.29.58.88 1.46 2.63 2.33 4.96 1.17 2.92 1.75 4.96 2.04 5.83 2.33 5.83 4.38 9.92 5.83 12.54 1.17 2.33 3.5 4.38 6.71 6.42 2.92 2.04 5.25 4.38 6.71 7.29 2.33 4.08 2.63 9.63.88 16.33-1.75 7.29-5.25 12.54-9.92 15.75-3.79 2.33-6.42 4.96-8.17 8.17-.875 1.75-1.75 4.67-2.63 8.46-.875 3.5-2.04 6.42-3.5 8.46-2.04 2.92-5.54 5.83-9.92 8.75-3.5 2.04-8.17 3.21-13.71 3.5-5.54.29-11.08-.292-16.62-1.75-13.42-2.92-22.46-9.04-27.42-17.79-3.21-5.83-5.25-11.38-6.13-16.62-.584-3.5-.584-7.58.29-12.25.88-5.83 1.46-9.92 1.17-11.67.29-4.96-.875-9.62-3.21-14.29-4.96-11.08-7.88-21.88-8.17-31.5-.291-13.12 3.5-21.87 11.38-26.54m-95.67-86.92c21.88 24.21 32.96 44.63 33.54 61.25.88 17.21-5.25 29.46-18.37 36.75-6.13 3.5-13.42 5.25-21.58 5.54-8.17.29-16.33-.875-24.5-3.5-8.17-2.92-15.46-6.71-22.17-11.38-7-4.96-12.25-10.5-15.75-16.92-2.92-4.96-4.67-9.04-5.25-11.96-.583-1.75-.875-4.08-.583-6.71.29-2.63.29-5.25-.292-7.58-1.17-3.79-3.21-8.75-6.42-14.88-4.38-8.46-6.71-15.75-7-21.88-.583-10.21 3.5-17.79 12.54-23.04 4.67-2.63 10.21-4.67 16.33-6.13 6.71-1.46 13.13-1.75 19.83-1.17 15.75 1.46 28 7.29 37.33 18.08l2.33 3.5m-56.87 157.21c3.5 1.46 8.46 4.67 14.29 9.04 16.92 11.96 22.46 29.46 16.04 52.21-.875 3.79-1.46 7.29-.875 9.92 0 1.75.88 3.79 2.04 6.42.58 1.17 2.04 3.5 4.38 7.29 4.38 6.71 6.42 11.96 6.71 15.75.29 6.71-1.46 13.13-5.25 19.25-3.5 6.12-8.17 10.79-13.71 14-11.08 6.42-22.17 5.83-33.25-2.33-3.5-2.33-7-5.83-10.5-9.92-3.5-4.08-5.54-6.42-6.42-7.29-5.54-4.96-10.5-8.46-14.88-10.79-2.04-.875-5.25-1.75-9.33-2.63-3.5-.874-6.13-2.04-8.17-3.79-2.92-2.33-6.13-6.42-9.63-12.54-4.08-7.58-4.96-16.62-2.04-27.12a45.71 45.71 0 0 1 5.25-12.25c2.04-3.5 4.38-6.13 6.71-7.58 3.5-2.04 7.58-2.92 11.67-2.33 2.63.58 4.8.58 4.96.29 2.04 0 4.08-.583 5.54-1.75 1.75-.875 3.21-2.92 4.38-6.12.29-.584 1.17-3.79 3.21-9.63 1.17-4.08 2.63-7.58 4.38-10.21 2.04-3.5 4.38-6.13 7.58-7.58 4.67-2.63 10.5-2.92 16.92-.291m95.96 183.46c7.58-16.63 19.25-27.13 35.29-31.5 16.04-4.38 31.5-1.17 46.67 9.33 14.87 10.5 25.08 25.67 30.04 44.92 5.25 19.25 4.08 37.33-3.5 53.96-7.58 16.92-19.54 27.42-35.58 31.79-16.04 4.08-31.79.88-46.67-9.62-14.87-10.79-24.79-25.67-30.33-44.92-4.96-19.25-3.79-37.33 4.08-53.96z"></path><path fill="#62c9e2" d="M817.89 2239.12c-5.83-4.67-10.79-7.58-14.29-9.04-6.42-2.63-12.25-2.33-17.5.88-3.21 1.46-5.54 4.08-7.58 7.58-1.46 2.63-2.92 6.13-4.37 10.21-2.04 5.83-2.92 9.04-3.21 9.63-1.17 2.92-2.63 4.96-4.38 6.13-1.75 1.17-3.5 1.75-5.54 1.75-.875.29-2.33 0-4.96-.292-4.08-.583-8.17.29-11.67 2.33-2.63 1.46-4.96 4.08-6.71 7.58-2.33 3.5-4.08 7.58-5.25 12.25-2.63 10.5-2.04 19.54 2.04 27.12 3.5 6.13 6.71 10.5 9.62 12.54 2.04 1.75 4.67 2.92 8.17 3.79 4.38.88 7.29 1.75 9.33 2.63 4.67 2.04 9.63 5.83 14.88 10.79.88.88 3.21 3.21 6.42 7.29 3.5 4.38 7.29 7.58 10.5 9.92 11.08 7.88 22.17 8.75 33.25 2.33 5.54-3.21 10.21-7.88 13.71-14 3.79-6.13 5.54-12.54 5.25-19.25-.292-3.79-2.33-9.04-6.71-15.75-2.33-3.79-3.79-6.12-4.38-7.29-1.17-2.63-2.04-4.67-2.04-6.42-.292-2.92 0-6.12.88-9.92 7-23.33 1.46-40.54-15.46-52.79z"></path><path fill="#fff968" d="M894.01 2134.12c-.583-16.92-11.96-37.33-33.54-61.25l-2.33-4.08c-9.33-10.79-21.58-16.62-37.33-18.08-6.71-.583-13.12-.291-19.83 1.17-6.13 1.46-11.67 3.5-16.33 6.13-9.04 5.25-13.12 13.12-12.54 23.4.29 6.13 2.63 13.42 7 21.88 3.21 6.12 5.25 11.08 6.42 14.87.58 2.33.58 4.96.29 7.58 0 2.63.29 4.96.58 6.71.58 3.21 2.33 7 5.25 11.96 3.79 6.42 9.04 11.96 15.75 16.92 6.71 4.67 14 8.46 22.17 11.38 8.46 2.63 16.63 3.79 24.5 3.5 8.17-.292 15.46-2.04 21.58-5.54 13.12-6.71 19.25-18.96 18.37-36.17z"></path><path fill="#6d924d" d="M971.6 2155.41c-6.13.58-11.08 2.04-15.17 4.37-8.17 4.67-11.67 13.42-11.08 26.25.29 9.92 3.21 20.42 8.17 31.5 2.33 4.67 3.21 9.33 3.21 14.29.29 2.04-.291 5.83-1.17 11.67-.584 4.67-.584 8.75-.292 12.25.88 5.25 2.92 10.79 6.13 16.63 4.96 8.75 14.29 14.58 27.42 17.79 5.54 1.46 11.08 2.04 16.63 1.75 5.54-.29 9.92-1.46 13.71-3.5 4.38-2.63 7.88-5.54 9.92-8.75 1.46-2.33 2.33-4.96 3.5-8.46.88-3.79 1.75-6.71 2.63-8.46 1.46-3.21 4.08-5.83 8.17-8.17 4.96-3.21 8.17-8.46 9.92-15.75 1.75-7 1.46-12.54-.875-16.33-1.75-2.92-3.79-5.25-6.71-7.29-3.21-2.04-5.54-4.08-6.71-6.42-1.46-2.63-3.5-7-5.83-12.54-.292-.875-.875-2.92-2.04-5.83-.875-2.33-1.75-3.79-2.33-4.96-8.46-14.58-20.71-23.92-37.04-28.29-7-1.75-13.42-2.33-20.13-1.75z"></path><path fill="#a582e5" d="M1262.67 2245.54c1.46-19.83-4.96-38.79-19.25-56.58-14.58-18.08-27.12-28-37.62-29.17-10.79-1.46-20.13.29-28.29 4.96-10.79 6.13-16.04 14.87-15.75 26.54 0 8.75 3.5 18.96 10.21 30.04 4.08 6.13 6.71 11.96 8.46 17.5 1.17 3.5 2.33 8.17 3.21 13.42a611.02 611.02 0 0 0 2.63 12.54c1.46 4.67 3.79 9.63 6.71 15.17 3.79 6.42 10.5 10.5 20.12 12.25 9.04 1.75 16.63.58 22.75-2.92 16.33-9.04 25.38-23.92 26.83-43.75z"></path><path fill="#ef6868" d="M916.47 2023c-.292 2.63-.875 7.29-2.04 13.42-1.46 13.42 1.46 26.54 8.75 39.37 0 .292.29.29.29.58 7.29 12.83 17.5 20.13 30.04 22.46 4.96.88 9.63.88 14.29.29 4.08-.875 7.29-1.75 9.92-3.21 3.5-2.04 6.71-5.25 9.92-9.63 2.92-4.38 5.25-7 6.42-7.58.29 0 2.92-.584 7.29-1.17 4.37-.583 7.87-1.17 10.21-2.33 10.21-5.83 12.83-16.33 8.17-30.92-1.46-4.38-3.5-9.04-6.42-14.58-.875-2.04-1.75-3.79-2.63-5.83-1.17-2.33-9.04-14.29-23.63-35.58-3.5-6.13-8.17-11.08-14.29-15.17-5.54-4.08-11.67-7-18.67-9.04-6.42-1.75-12.83-2.63-18.67-2.63-6.13.29-11.08 1.46-14.88 3.79-7.29 4.08-12.25 9.62-14.87 16.92-2.63 7.29-2.33 14 .875 19.54.29.58 1.75 2.33 4.38 5.54 2.33 3.21 3.5 4.96 3.79 5.54 1.75 2.33 2.33 5.83 1.75 10.21z"></path><path d="M970.43 2613.03c-21.58 0-43.16-4.37-64.17-13.42-42-17.79-77.87-41.12-106.75-69.12-28.58-27.42-53.08-57.75-73.5-90.12-3.79-5.83-7.29-12.25-10.79-18.37-49.58-85.46-65.04-175.29-46.37-267.16 19.25-92.17 67.67-161.58 144.66-205.91 77-44.33 161.58-51.91 250.83-22.17 88.96 29.46 159.25 87.79 208.83 173.25 15.46 27.12 27.71 55.12 36.46 82.83 2.92 8.75 5.25 17.5 7.29 26.54 0 .292.29.58.29 1.17 3.21 20.42 2.04 42-3.5 63.58-10.5 39.96-34.12 70.58-70 91.29-31.79 18.37-65.62 24.5-100.33 18.37-.291 0-.875 0-1.17-.292-4.08-.874-8.46-2.04-12.54-2.92h-.291c-8.75-.875-16.92 1.17-25.08 5.83-10.79 6.42-17.5 15.17-20.71 27.13-1.17 4.96-.583 10.21 1.75 16.62 5.54 13.71 9.63 28 12.83 42.58 4.38 17.5 3.79 35.87-1.17 54.54-7.87 29.75-25.37 52.5-51.91 67.67l-2.04 1.17c-.292.29-.875.29-1.17.58-23.92 10.79-47.83 16.33-71.46 16.33zm-11.08-675.2c-7.58 0-14.87.29-22.17.88-37.33 3.5-74.08 15.17-109.08 35.29-34.71 20.13-63.29 46.08-84.87 76.71-21.58 30.92-37.04 67.96-45.79 109.96-8.75 42.29-9.33 84.58-2.33 125.42 7 40.83 22.46 81.96 45.5 121.62 0 0 0 .292.29.29 2.92 5.54 6.42 11.38 9.92 16.92 18.96 30.33 42.29 58.92 68.83 84.58 26.25 25.38 59.21 46.67 97.71 63 37.04 15.75 73.5 14.88 111.71-2.33l1.46-.875c19.83-11.38 32.37-27.71 38.21-49.87 3.79-14.29 4.08-27.42.88-40.25v-.583c-2.63-13.13-6.42-25.67-11.38-37.92-4.96-11.96-5.83-23.92-2.92-35 5.25-19.54 16.92-34.71 34.12-44.91 14.29-8.17 29.17-11.38 44.92-9.33h.875l9.63 1.75c.291 0 .875.29 1.17.29 1.17.29 2.33.88 3.79 1.17 28 4.67 53.96-.292 79.62-15.17 29.17-16.92 47.83-41.13 56.29-73.5 4.67-17.5 5.54-34.42 2.92-50.75-2.04-7.88-4.08-16.04-6.71-23.92-8.17-25.67-19.54-51.62-34.12-77-23.04-39.67-50.75-73.21-82.83-99.75-31.79-26.54-68.83-46.96-109.96-60.66-32.67-10.5-64.75-16.04-95.67-16.04zm-.291 600.82c-14.29 0-28.29-4.67-41.71-14.29-17.79-12.83-29.75-30.63-35.87-53.08-6.13-22.75-4.38-44.04 4.67-63.87 9.33-20.71 24.5-34.13 44.63-39.67 20.42-5.54 40.25-1.46 58.91 11.67 17.79 12.54 29.75 30.63 35.87 53.37 6.13 22.46 4.38 44.04-4.38 63.87-9.62 21-24.5 34.12-44.91 39.67h-.292c-5.54 1.46-11.38 2.33-16.92 2.33zm13.42-16.63zm-23.92-127.45c-3.21 0-6.42.58-9.92 1.46-11.67 3.21-20.12 10.79-25.67 23.62v.292c-6.42 13.42-7.29 28-2.92 44.04 4.38 16.04 12.54 28 24.5 36.75 11.37 8.17 22.75 10.5 34.41 7.58 11.67-3.21 20.13-11.08 25.96-23.62 6.13-13.71 7-28 2.92-44.04-4.38-16.33-12.25-28.29-24.5-37.04-8.46-6.13-16.63-9.04-24.79-9.04z"></path></symbol><symbol id="body" viewBox="0 0 3000 3000"><path fill="#f6c799" d="M1059.68 1940.46c-85.46-28.58-165.08-21.58-238.87 21-73.5 42.58-119.29 107.92-137.37 196.29-18.08 88.67-3.21 174.41 44.62 257.25 3.21 5.83 6.71 11.67 10.21 17.5 19.83 31.5 43.46 60.66 71.17 87.5 27.71 26.83 61.83 49 102.08 66.21 40.83 17.21 82.25 16.33 124.25-2.63.58-.292 1.46-.875 2.04-1.17 23.04-13.42 38.21-32.96 44.92-58.91 4.38-16.63 4.96-32.38.88-47.54-2.92-14-7-27.42-12.25-40.54-3.79-9.04-4.38-17.79-2.33-25.67 4.38-15.75 13.42-27.71 27.42-35.87 11.38-6.71 23.33-9.04 35.58-7.58 2.92.58 5.83 1.17 9.04 1.75 1.17.29 2.63.88 4.08 1.46 31.79 5.54 61.83 0 90.71-16.63 32.37-18.96 53.67-46.37 63.29-82.25 5.25-19.83 6.13-38.79 3.21-57.46-2.04-8.46-4.38-16.92-7-25.67-8.46-26.83-20.13-53.37-35.29-79.62-47.54-83.12-114.33-138.83-200.37-167.41m-145.25 96.25c1.17-6.42 1.75-10.79 2.04-13.42.58-4.38 0-7.88-1.75-10.5-.291-.583-1.46-2.33-3.79-5.54-2.33-3.21-3.79-4.96-4.38-5.54-3.21-5.54-3.5-12.25-.875-19.54 2.63-7.29 7.58-12.83 14.87-16.92 3.79-2.33 8.75-3.5 14.88-3.79 5.83 0 12.25.88 18.67 2.63 6.71 2.04 13.13 4.96 18.67 9.04 6.13 4.08 10.79 9.04 14.29 15.17 14.29 21.29 22.17 33.25 23.63 35.58 1.17 2.04 2.04 3.79 2.63 5.83 2.92 5.54 4.96 10.21 6.42 14.58 4.67 14.58 2.04 25.08-8.17 30.92-2.33 1.17-5.83 2.04-10.21 2.33-4.38.58-6.71.88-7.29 1.17-1.46.58-3.5 3.21-6.42 7.58-3.21 4.67-6.71 7.88-9.92 9.63-2.63 1.46-5.83 2.33-9.92 3.21-4.67.58-9.33.58-14.29-.292-12.54-2.33-22.75-9.92-30.04-22.46 0 0-.292-.291-.292-.583-7.29-12.54-10.21-25.67-8.75-39.08m328.99 151.96c14.29 17.79 20.71 36.75 19.25 56.58-1.46 19.83-10.5 34.71-26.83 44.04-6.13 3.5-13.71 4.38-22.75 2.92-9.62-1.75-16.33-6.13-20.12-12.25-2.92-5.25-5.25-10.21-6.71-15.17-.584-2.63-1.17-6.71-2.63-12.54-.875-5.54-2.04-9.92-3.21-13.42-1.75-5.54-4.67-11.38-8.46-17.5-6.71-11.08-10.21-21.29-10.21-30.04-.292-11.67 4.96-20.42 15.75-26.54 8.17-4.67 17.5-6.42 28.29-4.96 10.79 1.17 23.33 10.79 37.63 28.88m-287.29-28.88c4.08-2.63 9.33-4.08 15.17-4.37 6.71-.584 13.13.29 19.83 2.04 16.33 4.38 28.58 13.71 37.04 28.29.58.88 1.46 2.63 2.33 4.96 1.17 2.92 1.75 4.96 2.04 5.83 2.33 5.83 4.38 9.92 5.83 12.54 1.17 2.33 3.5 4.38 6.71 6.42 2.92 2.04 5.25 4.38 6.71 7.29 2.33 4.08 2.63 9.63.88 16.33-1.75 7.29-5.25 12.54-9.92 15.75-3.79 2.33-6.42 4.96-8.17 8.17-.875 1.75-1.75 4.67-2.63 8.46-.875 3.5-2.04 6.42-3.5 8.46-2.04 2.92-5.54 5.83-9.92 8.75-3.5 2.04-8.17 3.21-13.71 3.5-5.54.29-11.08-.292-16.62-1.75-13.42-2.92-22.46-9.04-27.42-17.79-3.21-5.83-5.25-11.38-6.13-16.62-.584-3.5-.584-7.58.29-12.25.88-5.83 1.46-9.92 1.17-11.67.29-4.96-.875-9.62-3.21-14.29-4.96-11.08-7.88-21.88-8.17-31.5-.291-13.12 3.5-21.87 11.38-26.54m-95.67-86.92c21.88 24.21 32.96 44.63 33.54 61.25.88 17.21-5.25 29.46-18.37 36.75-6.13 3.5-13.42 5.25-21.58 5.54-8.17.29-16.33-.875-24.5-3.5-8.17-2.92-15.46-6.71-22.17-11.38-7-4.96-12.25-10.5-15.75-16.92-2.92-4.96-4.67-9.04-5.25-11.96-.583-1.75-.875-4.08-.583-6.71.29-2.63.29-5.25-.292-7.58-1.17-3.79-3.21-8.75-6.42-14.88-4.38-8.46-6.71-15.75-7-21.88-.583-10.21 3.5-17.79 12.54-23.04 4.67-2.63 10.21-4.67 16.33-6.13 6.71-1.46 13.13-1.75 19.83-1.17 15.75 1.46 28 7.29 37.33 18.08l2.33 3.5m-56.87 157.21c3.5 1.46 8.46 4.67 14.29 9.04 16.92 11.96 22.46 29.46 16.04 52.21-.875 3.79-1.46 7.29-.875 9.92 0 1.75.88 3.79 2.04 6.42.58 1.17 2.04 3.5 4.38 7.29 4.38 6.71 6.42 11.96 6.71 15.75.29 6.71-1.46 13.13-5.25 19.25-3.5 6.12-8.17 10.79-13.71 14-11.08 6.42-22.17 5.83-33.25-2.33-3.5-2.33-7-5.83-10.5-9.92-3.5-4.08-5.54-6.42-6.42-7.29-5.54-4.96-10.5-8.46-14.88-10.79-2.04-.875-5.25-1.75-9.33-2.63-3.5-.874-6.13-2.04-8.17-3.79-2.92-2.33-6.13-6.42-9.63-12.54-4.08-7.58-4.96-16.62-2.04-27.12a45.71 45.71 0 0 1 5.25-12.25c2.04-3.5 4.38-6.13 6.71-7.58 3.5-2.04 7.58-2.92 11.67-2.33 2.63.58 4.8.58 4.96.29 2.04 0 4.08-.583 5.54-1.75 1.75-.875 3.21-2.92 4.38-6.12.29-.584 1.17-3.79 3.21-9.63 1.17-4.08 2.63-7.58 4.38-10.21 2.04-3.5 4.38-6.13 7.58-7.58 4.67-2.63 10.5-2.92 16.92-.291m95.96 183.46c7.58-16.63 19.25-27.13 35.29-31.5 16.04-4.38 31.5-1.17 46.67 9.33 14.87 10.5 25.08 25.67 30.04 44.92 5.25 19.25 4.08 37.33-3.5 53.96-7.58 16.92-19.54 27.42-35.58 31.79-16.04 4.08-31.79.88-46.67-9.62-14.87-10.79-24.79-25.67-30.33-44.92-4.96-19.25-3.79-37.33 4.08-53.96z"></path><path fill="#62c9e2" d="M817.89 2239.12c-5.83-4.67-10.79-7.58-14.29-9.04-6.42-2.63-12.25-2.33-17.5.88-3.21 1.46-5.54 4.08-7.58 7.58-1.46 2.63-2.92 6.13-4.37 10.21-2.04 5.83-2.92 9.04-3.21 9.63-1.17 2.92-2.63 4.96-4.38 6.13-1.75 1.17-3.5 1.75-5.54 1.75-.875.29-2.33 0-4.96-.292-4.08-.583-8.17.29-11.67 2.33-2.63 1.46-4.96 4.08-6.71 7.58-2.33 3.5-4.08 7.58-5.25 12.25-2.63 10.5-2.04 19.54 2.04 27.12 3.5 6.13 6.71 10.5 9.62 12.54 2.04 1.75 4.67 2.92 8.17 3.79 4.38.88 7.29 1.75 9.33 2.63 4.67 2.04 9.63 5.83 14.88 10.79.88.88 3.21 3.21 6.42 7.29 3.5 4.38 7.29 7.58 10.5 9.92 11.08 7.88 22.17 8.75 33.25 2.33 5.54-3.21 10.21-7.88 13.71-14 3.79-6.13 5.54-12.54 5.25-19.25-.292-3.79-2.33-9.04-6.71-15.75-2.33-3.79-3.79-6.12-4.38-7.29-1.17-2.63-2.04-4.67-2.04-6.42-.292-2.92 0-6.12.88-9.92 7-23.33 1.46-40.54-15.46-52.79z"></path><path fill="#fff968" d="M894.01 2134.12c-.583-16.92-11.96-37.33-33.54-61.25l-2.33-4.08c-9.33-10.79-21.58-16.62-37.33-18.08-6.71-.583-13.12-.291-19.83 1.17-6.13 1.46-11.67 3.5-16.33 6.13-9.04 5.25-13.12 13.12-12.54 23.4.29 6.13 2.63 13.42 7 21.88 3.21 6.12 5.25 11.08 6.42 14.87.58 2.33.58 4.96.29 7.58 0 2.63.29 4.96.58 6.71.58 3.21 2.33 7 5.25 11.96 3.79 6.42 9.04 11.96 15.75 16.92 6.71 4.67 14 8.46 22.17 11.38 8.46 2.63 16.63 3.79 24.5 3.5 8.17-.292 15.46-2.04 21.58-5.54 13.12-6.71 19.25-18.96 18.37-36.17z"></path><path fill="#6d924d" d="M971.6 2155.41c-6.13.58-11.08 2.04-15.17 4.37-8.17 4.67-11.67 13.42-11.08 26.25.29 9.92 3.21 20.42 8.17 31.5 2.33 4.67 3.21 9.33 3.21 14.29.29 2.04-.291 5.83-1.17 11.67-.584 4.67-.584 8.75-.292 12.25.88 5.25 2.92 10.79 6.13 16.63 4.96 8.75 14.29 14.58 27.42 17.79 5.54 1.46 11.08 2.04 16.63 1.75 5.54-.29 9.92-1.46 13.71-3.5 4.38-2.63 7.88-5.54 9.92-8.75 1.46-2.33 2.33-4.96 3.5-8.46.88-3.79 1.75-6.71 2.63-8.46 1.46-3.21 4.08-5.83 8.17-8.17 4.96-3.21 8.17-8.46 9.92-15.75 1.75-7 1.46-12.54-.875-16.33-1.75-2.92-3.79-5.25-6.71-7.29-3.21-2.04-5.54-4.08-6.71-6.42-1.46-2.63-3.5-7-5.83-12.54-.292-.875-.875-2.92-2.04-5.83-.875-2.33-1.75-3.79-2.33-4.96-8.46-14.58-20.71-23.92-37.04-28.29-7-1.75-13.42-2.33-20.13-1.75z"></path><path fill="#a582e5" d="M1262.67 2245.54c1.46-19.83-4.96-38.79-19.25-56.58-14.58-18.08-27.12-28-37.62-29.17-10.79-1.46-20.13.29-28.29 4.96-10.79 6.13-16.04 14.87-15.75 26.54 0 8.75 3.5 18.96 10.21 30.04 4.08 6.13 6.71 11.96 8.46 17.5 1.17 3.5 2.33 8.17 3.21 13.42a611.02 611.02 0 0 0 2.63 12.54c1.46 4.67 3.79 9.63 6.71 15.17 3.79 6.42 10.5 10.5 20.12 12.25 9.04 1.75 16.63.58 22.75-2.92 16.33-9.04 25.38-23.92 26.83-43.75z"></path><path fill="#ef6868" d="M916.47 2023c-.292 2.63-.875 7.29-2.04 13.42-1.46 13.42 1.46 26.54 8.75 39.37 0 .292.29.29.29.58 7.29 12.83 17.5 20.13 30.04 22.46 4.96.88 9.63.88 14.29.29 4.08-.875 7.29-1.75 9.92-3.21 3.5-2.04 6.71-5.25 9.92-9.63 2.92-4.38 5.25-7 6.42-7.58.29 0 2.92-.584 7.29-1.17 4.37-.583 7.87-1.17 10.21-2.33 10.21-5.83 12.83-16.33 8.17-30.92-1.46-4.38-3.5-9.04-6.42-14.58-.875-2.04-1.75-3.79-2.63-5.83-1.17-2.33-9.04-14.29-23.63-35.58-3.5-6.13-8.17-11.08-14.29-15.17-5.54-4.08-11.67-7-18.67-9.04-6.42-1.75-12.83-2.63-18.67-2.63-6.13.29-11.08 1.46-14.88 3.79-7.29 4.08-12.25 9.62-14.87 16.92-2.63 7.29-2.33 14 .875 19.54.29.58 1.75 2.33 4.38 5.54 2.33 3.21 3.5 4.96 3.79 5.54 1.75 2.33 2.33 5.83 1.75 10.21z"></path><path d="M970.43 2613.03c-21.58 0-43.16-4.37-64.17-13.42-42-17.79-77.87-41.12-106.75-69.12-28.58-27.42-53.08-57.75-73.5-90.12-3.79-5.83-7.29-12.25-10.79-18.37-49.58-85.46-65.04-175.29-46.37-267.16 19.25-92.17 67.67-161.58 144.66-205.91 77-44.33 161.58-51.91 250.83-22.17 88.96 29.46 159.25 87.79 208.83 173.25 15.46 27.12 27.71 55.12 36.46 82.83 2.92 8.75 5.25 17.5 7.29 26.54 0 .292.29.58.29 1.17 3.21 20.42 2.04 42-3.5 63.58-10.5 39.96-34.12 70.58-70 91.29-31.79 18.37-65.62 24.5-100.33 18.37-.291 0-.875 0-1.17-.292-4.08-.874-8.46-2.04-12.54-2.92h-.291c-8.75-.875-16.92 1.17-25.08 5.83-10.79 6.42-17.5 15.17-20.71 27.13-1.17 4.96-.583 10.21 1.75 16.62 5.54 13.71 9.63 28 12.83 42.58 4.38 17.5 3.79 35.87-1.17 54.54-7.87 29.75-25.37 52.5-51.91 67.67l-2.04 1.17c-.292.29-.875.29-1.17.58-23.92 10.79-47.83 16.33-71.46 16.33zm-11.08-675.2c-7.58 0-14.87.29-22.17.88-37.33 3.5-74.08 15.17-109.08 35.29-34.71 20.13-63.29 46.08-84.87 76.71-21.58 30.92-37.04 67.96-45.79 109.96-8.75 42.29-9.33 84.58-2.33 125.42 7 40.83 22.46 81.96 45.5 121.62 0 0 0 .292.29.29 2.92 5.54 6.42 11.38 9.92 16.92 18.96 30.33 42.29 58.92 68.83 84.58 26.25 25.38 59.21 46.67 97.71 63 37.04 15.75 73.5 14.88 111.71-2.33l1.46-.875c19.83-11.38 32.37-27.71 38.21-49.87 3.79-14.29 4.08-27.42.88-40.25v-.583c-2.63-13.13-6.42-25.67-11.38-37.92-4.96-11.96-5.83-23.92-2.92-35 5.25-19.54 16.92-34.71 34.12-44.91 14.29-8.17 29.17-11.38 44.92-9.33h.875l9.63 1.75c.291 0 .875.29 1.17.29 1.17.29 2.33.88 3.79 1.17 28 4.67 53.96-.292 79.62-15.17 29.17-16.92 47.83-41.13 56.29-73.5 4.67-17.5 5.54-34.42 2.92-50.75-2.04-7.88-4.08-16.04-6.71-23.92-8.17-25.67-19.54-51.62-34.12-77-23.04-39.67-50.75-73.21-82.83-99.75-31.79-26.54-68.83-46.96-109.96-60.66-32.67-10.5-64.75-16.04-95.67-16.04zm-.291 600.82c-14.29 0-28.29-4.67-41.71-14.29-17.79-12.83-29.75-30.63-35.87-53.08-6.13-22.75-4.38-44.04 4.67-63.87 9.33-20.71 24.5-34.13 44.63-39.67 20.42-5.54 40.25-1.46 58.91 11.67 17.79 12.54 29.75 30.63 35.87 53.37 6.13 22.46 4.38 44.04-4.38 63.87-9.62 21-24.5 34.12-44.91 39.67h-.292c-5.54 1.46-11.38 2.33-16.92 2.33zm13.42-16.63zm-23.92-127.45c-3.21 0-6.42.58-9.92 1.46-11.67 3.21-20.12 10.79-25.67 23.62v.292c-6.42 13.42-7.29 28-2.92 44.04 4.38 16.04 12.54 28 24.5 36.75 11.37 8.17 22.75 10.5 34.41 7.58 11.67-3.21 20.13-11.08 25.96-23.62 6.13-13.71 7-28 2.92-44.04-4.38-16.33-12.25-28.29-24.5-37.04-8.46-6.13-16.63-9.04-24.79-9.04z"></path></symbol><symbol id="left" viewBox="0 0 3000 3000"><path fill="#f6c799" d="M1059.68 1940.46c-85.46-28.58-165.08-21.58-238.87 21-73.5 42.58-119.29 107.92-137.37 196.29-18.08 88.67-3.21 174.41 44.62 257.25 3.21 5.83 6.71 11.67 10.21 17.5 19.83 31.5 43.46 60.66 71.17 87.5 27.71 26.83 61.83 49 102.08 66.21 40.83 17.21 82.25 16.33 124.25-2.63.58-.292 1.46-.875 2.04-1.17 23.04-13.42 38.21-32.96 44.92-58.91 4.38-16.63 4.96-32.38.88-47.54-2.92-14-7-27.42-12.25-40.54-3.79-9.04-4.38-17.79-2.33-25.67 4.38-15.75 13.42-27.71 27.42-35.87 11.38-6.71 23.33-9.04 35.58-7.58 2.92.58 5.83 1.17 9.04 1.75 1.17.29 2.63.88 4.08 1.46 31.79 5.54 61.83 0 90.71-16.63 32.37-18.96 53.67-46.37 63.29-82.25 5.25-19.83 6.13-38.79 3.21-57.46-2.04-8.46-4.38-16.92-7-25.67-8.46-26.83-20.13-53.37-35.29-79.62-47.54-83.12-114.33-138.83-200.37-167.41m-145.25 96.25c1.17-6.42 1.75-10.79 2.04-13.42.58-4.38 0-7.88-1.75-10.5-.291-.583-1.46-2.33-3.79-5.54-2.33-3.21-3.79-4.96-4.38-5.54-3.21-5.54-3.5-12.25-.875-19.54 2.63-7.29 7.58-12.83 14.87-16.92 3.79-2.33 8.75-3.5 14.88-3.79 5.83 0 12.25.88 18.67 2.63 6.71 2.04 13.13 4.96 18.67 9.04 6.13 4.08 10.79 9.04 14.29 15.17 14.29 21.29 22.17 33.25 23.63 35.58 1.17 2.04 2.04 3.79 2.63 5.83 2.92 5.54 4.96 10.21 6.42 14.58 4.67 14.58 2.04 25.08-8.17 30.92-2.33 1.17-5.83 2.04-10.21 2.33-4.38.58-6.71.88-7.29 1.17-1.46.58-3.5 3.21-6.42 7.58-3.21 4.67-6.71 7.88-9.92 9.63-2.63 1.46-5.83 2.33-9.92 3.21-4.67.58-9.33.58-14.29-.292-12.54-2.33-22.75-9.92-30.04-22.46 0 0-.292-.291-.292-.583-7.29-12.54-10.21-25.67-8.75-39.08m328.99 151.96c14.29 17.79 20.71 36.75 19.25 56.58-1.46 19.83-10.5 34.71-26.83 44.04-6.13 3.5-13.71 4.38-22.75 2.92-9.62-1.75-16.33-6.13-20.12-12.25-2.92-5.25-5.25-10.21-6.71-15.17-.584-2.63-1.17-6.71-2.63-12.54-.875-5.54-2.04-9.92-3.21-13.42-1.75-5.54-4.67-11.38-8.46-17.5-6.71-11.08-10.21-21.29-10.21-30.04-.292-11.67 4.96-20.42 15.75-26.54 8.17-4.67 17.5-6.42 28.29-4.96 10.79 1.17 23.33 10.79 37.63 28.88m-287.29-28.88c4.08-2.63 9.33-4.08 15.17-4.37 6.71-.584 13.13.29 19.83 2.04 16.33 4.38 28.58 13.71 37.04 28.29.58.88 1.46 2.63 2.33 4.96 1.17 2.92 1.75 4.96 2.04 5.83 2.33 5.83 4.38 9.92 5.83 12.54 1.17 2.33 3.5 4.38 6.71 6.42 2.92 2.04 5.25 4.38 6.71 7.29 2.33 4.08 2.63 9.63.88 16.33-1.75 7.29-5.25 12.54-9.92 15.75-3.79 2.33-6.42 4.96-8.17 8.17-.875 1.75-1.75 4.67-2.63 8.46-.875 3.5-2.04 6.42-3.5 8.46-2.04 2.92-5.54 5.83-9.92 8.75-3.5 2.04-8.17 3.21-13.71 3.5-5.54.29-11.08-.292-16.62-1.75-13.42-2.92-22.46-9.04-27.42-17.79-3.21-5.83-5.25-11.38-6.13-16.62-.584-3.5-.584-7.58.29-12.25.88-5.83 1.46-9.92 1.17-11.67.29-4.96-.875-9.62-3.21-14.29-4.96-11.08-7.88-21.88-8.17-31.5-.291-13.12 3.5-21.87 11.38-26.54m-95.67-86.92c21.88 24.21 32.96 44.63 33.54 61.25.88 17.21-5.25 29.46-18.37 36.75-6.13 3.5-13.42 5.25-21.58 5.54-8.17.29-16.33-.875-24.5-3.5-8.17-2.92-15.46-6.71-22.17-11.38-7-4.96-12.25-10.5-15.75-16.92-2.92-4.96-4.67-9.04-5.25-11.96-.583-1.75-.875-4.08-.583-6.71.29-2.63.29-5.25-.292-7.58-1.17-3.79-3.21-8.75-6.42-14.88-4.38-8.46-6.71-15.75-7-21.88-.583-10.21 3.5-17.79 12.54-23.04 4.67-2.63 10.21-4.67 16.33-6.13 6.71-1.46 13.13-1.75 19.83-1.17 15.75 1.46 28 7.29 37.33 18.08l2.33 3.5m-56.87 157.21c3.5 1.46 8.46 4.67 14.29 9.04 16.92 11.96 22.46 29.46 16.04 52.21-.875 3.79-1.46 7.29-.875 9.92 0 1.75.88 3.79 2.04 6.42.58 1.17 2.04 3.5 4.38 7.29 4.38 6.71 6.42 11.96 6.71 15.75.29 6.71-1.46 13.13-5.25 19.25-3.5 6.12-8.17 10.79-13.71 14-11.08 6.42-22.17 5.83-33.25-2.33-3.5-2.33-7-5.83-10.5-9.92-3.5-4.08-5.54-6.42-6.42-7.29-5.54-4.96-10.5-8.46-14.88-10.79-2.04-.875-5.25-1.75-9.33-2.63-3.5-.874-6.13-2.04-8.17-3.79-2.92-2.33-6.13-6.42-9.63-12.54-4.08-7.58-4.96-16.62-2.04-27.12a45.71 45.71 0 0 1 5.25-12.25c2.04-3.5 4.38-6.13 6.71-7.58 3.5-2.04 7.58-2.92 11.67-2.33 2.63.58 4.8.58 4.96.29 2.04 0 4.08-.583 5.54-1.75 1.75-.875 3.21-2.92 4.38-6.12.29-.584 1.17-3.79 3.21-9.63 1.17-4.08 2.63-7.58 4.38-10.21 2.04-3.5 4.38-6.13 7.58-7.58 4.67-2.63 10.5-2.92 16.92-.291m95.96 183.46c7.58-16.63 19.25-27.13 35.29-31.5 16.04-4.38 31.5-1.17 46.67 9.33 14.87 10.5 25.08 25.67 30.04 44.92 5.25 19.25 4.08 37.33-3.5 53.96-7.58 16.92-19.54 27.42-35.58 31.79-16.04 4.08-31.79.88-46.67-9.62-14.87-10.79-24.79-25.67-30.33-44.92-4.96-19.25-3.79-37.33 4.08-53.96z"></path><path fill="#62c9e2" d="M817.89 2239.12c-5.83-4.67-10.79-7.58-14.29-9.04-6.42-2.63-12.25-2.33-17.5.88-3.21 1.46-5.54 4.08-7.58 7.58-1.46 2.63-2.92 6.13-4.37 10.21-2.04 5.83-2.92 9.04-3.21 9.63-1.17 2.92-2.63 4.96-4.38 6.13-1.75 1.17-3.5 1.75-5.54 1.75-.875.29-2.33 0-4.96-.292-4.08-.583-8.17.29-11.67 2.33-2.63 1.46-4.96 4.08-6.71 7.58-2.33 3.5-4.08 7.58-5.25 12.25-2.63 10.5-2.04 19.54 2.04 27.12 3.5 6.13 6.71 10.5 9.62 12.54 2.04 1.75 4.67 2.92 8.17 3.79 4.38.88 7.29 1.75 9.33 2.63 4.67 2.04 9.63 5.83 14.88 10.79.88.88 3.21 3.21 6.42 7.29 3.5 4.38 7.29 7.58 10.5 9.92 11.08 7.88 22.17 8.75 33.25 2.33 5.54-3.21 10.21-7.88 13.71-14 3.79-6.13 5.54-12.54 5.25-19.25-.292-3.79-2.33-9.04-6.71-15.75-2.33-3.79-3.79-6.12-4.38-7.29-1.17-2.63-2.04-4.67-2.04-6.42-.292-2.92 0-6.12.88-9.92 7-23.33 1.46-40.54-15.46-52.79z"></path><path fill="#fff968" d="M894.01 2134.12c-.583-16.92-11.96-37.33-33.54-61.25l-2.33-4.08c-9.33-10.79-21.58-16.62-37.33-18.08-6.71-.583-13.12-.291-19.83 1.17-6.13 1.46-11.67 3.5-16.33 6.13-9.04 5.25-13.12 13.12-12.54 23.4.29 6.13 2.63 13.42 7 21.88 3.21 6.12 5.25 11.08 6.42 14.87.58 2.33.58 4.96.29 7.58 0 2.63.29 4.96.58 6.71.58 3.21 2.33 7 5.25 11.96 3.79 6.42 9.04 11.96 15.75 16.92 6.71 4.67 14 8.46 22.17 11.38 8.46 2.63 16.63 3.79 24.5 3.5 8.17-.292 15.46-2.04 21.58-5.54 13.12-6.71 19.25-18.96 18.37-36.17z"></path><path fill="#6d924d" d="M971.6 2155.41c-6.13.58-11.08 2.04-15.17 4.37-8.17 4.67-11.67 13.42-11.08 26.25.29 9.92 3.21 20.42 8.17 31.5 2.33 4.67 3.21 9.33 3.21 14.29.29 2.04-.291 5.83-1.17 11.67-.584 4.67-.584 8.75-.292 12.25.88 5.25 2.92 10.79 6.13 16.63 4.96 8.75 14.29 14.58 27.42 17.79 5.54 1.46 11.08 2.04 16.63 1.75 5.54-.29 9.92-1.46 13.71-3.5 4.38-2.63 7.88-5.54 9.92-8.75 1.46-2.33 2.33-4.96 3.5-8.46.88-3.79 1.75-6.71 2.63-8.46 1.46-3.21 4.08-5.83 8.17-8.17 4.96-3.21 8.17-8.46 9.92-15.75 1.75-7 1.46-12.54-.875-16.33-1.75-2.92-3.79-5.25-6.71-7.29-3.21-2.04-5.54-4.08-6.71-6.42-1.46-2.63-3.5-7-5.83-12.54-.292-.875-.875-2.92-2.04-5.83-.875-2.33-1.75-3.79-2.33-4.96-8.46-14.58-20.71-23.92-37.04-28.29-7-1.75-13.42-2.33-20.13-1.75z"></path><path fill="#a582e5" d="M1262.67 2245.54c1.46-19.83-4.96-38.79-19.25-56.58-14.58-18.08-27.12-28-37.62-29.17-10.79-1.46-20.13.29-28.29 4.96-10.79 6.13-16.04 14.87-15.75 26.54 0 8.75 3.5 18.96 10.21 30.04 4.08 6.13 6.71 11.96 8.46 17.5 1.17 3.5 2.33 8.17 3.21 13.42a611.02 611.02 0 0 0 2.63 12.54c1.46 4.67 3.79 9.63 6.71 15.17 3.79 6.42 10.5 10.5 20.12 12.25 9.04 1.75 16.63.58 22.75-2.92 16.33-9.04 25.38-23.92 26.83-43.75z"></path><path fill="#ef6868" d="M916.47 2023c-.292 2.63-.875 7.29-2.04 13.42-1.46 13.42 1.46 26.54 8.75 39.37 0 .292.29.29.29.58 7.29 12.83 17.5 20.13 30.04 22.46 4.96.88 9.63.88 14.29.29 4.08-.875 7.29-1.75 9.92-3.21 3.5-2.04 6.71-5.25 9.92-9.63 2.92-4.38 5.25-7 6.42-7.58.29 0 2.92-.584 7.29-1.17 4.37-.583 7.87-1.17 10.21-2.33 10.21-5.83 12.83-16.33 8.17-30.92-1.46-4.38-3.5-9.04-6.42-14.58-.875-2.04-1.75-3.79-2.63-5.83-1.17-2.33-9.04-14.29-23.63-35.58-3.5-6.13-8.17-11.08-14.29-15.17-5.54-4.08-11.67-7-18.67-9.04-6.42-1.75-12.83-2.63-18.67-2.63-6.13.29-11.08 1.46-14.88 3.79-7.29 4.08-12.25 9.62-14.87 16.92-2.63 7.29-2.33 14 .875 19.54.29.58 1.75 2.33 4.38 5.54 2.33 3.21 3.5 4.96 3.79 5.54 1.75 2.33 2.33 5.83 1.75 10.21z"></path><path d="M970.43 2613.03c-21.58 0-43.16-4.37-64.17-13.42-42-17.79-77.87-41.12-106.75-69.12-28.58-27.42-53.08-57.75-73.5-90.12-3.79-5.83-7.29-12.25-10.79-18.37-49.58-85.46-65.04-175.29-46.37-267.16 19.25-92.17 67.67-161.58 144.66-205.91 77-44.33 161.58-51.91 250.83-22.17 88.96 29.46 159.25 87.79 208.83 173.25 15.46 27.12 27.71 55.12 36.46 82.83 2.92 8.75 5.25 17.5 7.29 26.54 0 .292.29.58.29 1.17 3.21 20.42 2.04 42-3.5 63.58-10.5 39.96-34.12 70.58-70 91.29-31.79 18.37-65.62 24.5-100.33 18.37-.291 0-.875 0-1.17-.292-4.08-.874-8.46-2.04-12.54-2.92h-.291c-8.75-.875-16.92 1.17-25.08 5.83-10.79 6.42-17.5 15.17-20.71 27.13-1.17 4.96-.583 10.21 1.75 16.62 5.54 13.71 9.63 28 12.83 42.58 4.38 17.5 3.79 35.87-1.17 54.54-7.87 29.75-25.37 52.5-51.91 67.67l-2.04 1.17c-.292.29-.875.29-1.17.58-23.92 10.79-47.83 16.33-71.46 16.33zm-11.08-675.2c-7.58 0-14.87.29-22.17.88-37.33 3.5-74.08 15.17-109.08 35.29-34.71 20.13-63.29 46.08-84.87 76.71-21.58 30.92-37.04 67.96-45.79 109.96-8.75 42.29-9.33 84.58-2.33 125.42 7 40.83 22.46 81.96 45.5 121.62 0 0 0 .292.29.29 2.92 5.54 6.42 11.38 9.92 16.92 18.96 30.33 42.29 58.92 68.83 84.58 26.25 25.38 59.21 46.67 97.71 63 37.04 15.75 73.5 14.88 111.71-2.33l1.46-.875c19.83-11.38 32.37-27.71 38.21-49.87 3.79-14.29 4.08-27.42.88-40.25v-.583c-2.63-13.13-6.42-25.67-11.38-37.92-4.96-11.96-5.83-23.92-2.92-35 5.25-19.54 16.92-34.71 34.12-44.91 14.29-8.17 29.17-11.38 44.92-9.33h.875l9.63 1.75c.291 0 .875.29 1.17.29 1.17.29 2.33.88 3.79 1.17 28 4.67 53.96-.292 79.62-15.17 29.17-16.92 47.83-41.13 56.29-73.5 4.67-17.5 5.54-34.42 2.92-50.75-2.04-7.88-4.08-16.04-6.71-23.92-8.17-25.67-19.54-51.62-34.12-77-23.04-39.67-50.75-73.21-82.83-99.75-31.79-26.54-68.83-46.96-109.96-60.66-32.67-10.5-64.75-16.04-95.67-16.04zm-.291 600.82c-14.29 0-28.29-4.67-41.71-14.29-17.79-12.83-29.75-30.63-35.87-53.08-6.13-22.75-4.38-44.04 4.67-63.87 9.33-20.71 24.5-34.13 44.63-39.67 20.42-5.54 40.25-1.46 58.91 11.67 17.79 12.54 29.75 30.63 35.87 53.37 6.13 22.46 4.38 44.04-4.38 63.87-9.62 21-24.5 34.12-44.91 39.67h-.292c-5.54 1.46-11.38 2.33-16.92 2.33zm13.42-16.63zm-23.92-127.45c-3.21 0-6.42.58-9.92 1.46-11.67 3.21-20.12 10.79-25.67 23.62v.292c-6.42 13.42-7.29 28-2.92 44.04 4.38 16.04 12.54 28 24.5 36.75 11.37 8.17 22.75 10.5 34.41 7.58 11.67-3.21 20.13-11.08 25.96-23.62 6.13-13.71 7-28 2.92-44.04-4.38-16.33-12.25-28.29-24.5-37.04-8.46-6.13-16.63-9.04-24.79-9.04z"></path></symbol><symbol id="right" viewBox="0 0 3000 3000"><path fill="#f6c799" d="M1059.68 1940.46c-85.46-28.58-165.08-21.58-238.87 21-73.5 42.58-119.29 107.92-137.37 196.29-18.08 88.67-3.21 174.41 44.62 257.25 3.21 5.83 6.71 11.67 10.21 17.5 19.83 31.5 43.46 60.66 71.17 87.5 27.71 26.83 61.83 49 102.08 66.21 40.83 17.21 82.25 16.33 124.25-2.63.58-.292 1.46-.875 2.04-1.17 23.04-13.42 38.21-32.96 44.92-58.91 4.38-16.63 4.96-32.38.88-47.54-2.92-14-7-27.42-12.25-40.54-3.79-9.04-4.38-17.79-2.33-25.67 4.38-15.75 13.42-27.71 27.42-35.87 11.38-6.71 23.33-9.04 35.58-7.58 2.92.58 5.83 1.17 9.04 1.75 1.17.29 2.63.88 4.08 1.46 31.79 5.54 61.83 0 90.71-16.63 32.37-18.96 53.67-46.37 63.29-82.25 5.25-19.83 6.13-38.79 3.21-57.46-2.04-8.46-4.38-16.92-7-25.67-8.46-26.83-20.13-53.37-35.29-79.62-47.54-83.12-114.33-138.83-200.37-167.41m-145.25 96.25c1.17-6.42 1.75-10.79 2.04-13.42.58-4.38 0-7.88-1.75-10.5-.291-.583-1.46-2.33-3.79-5.54-2.33-3.21-3.79-4.96-4.38-5.54-3.21-5.54-3.5-12.25-.875-19.54 2.63-7.29 7.58-12.83 14.87-16.92 3.79-2.33 8.75-3.5 14.88-3.79 5.83 0 12.25.88 18.67 2.63 6.71 2.04 13.13 4.96 18.67 9.04 6.13 4.08 10.79 9.04 14.29 15.17 14.29 21.29 22.17 33.25 23.63 35.58 1.17 2.04 2.04 3.79 2.63 5.83 2.92 5.54 4.96 10.21 6.42 14.58 4.67 14.58 2.04 25.08-8.17 30.92-2.33 1.17-5.83 2.04-10.21 2.33-4.38.58-6.71.88-7.29 1.17-1.46.58-3.5 3.21-6.42 7.58-3.21 4.67-6.71 7.88-9.92 9.63-2.63 1.46-5.83 2.33-9.92 3.21-4.67.58-9.33.58-14.29-.292-12.54-2.33-22.75-9.92-30.04-22.46 0 0-.292-.291-.292-.583-7.29-12.54-10.21-25.67-8.75-39.08m328.99 151.96c14.29 17.79 20.71 36.75 19.25 56.58-1.46 19.83-10.5 34.71-26.83 44.04-6.13 3.5-13.71 4.38-22.75 2.92-9.62-1.75-16.33-6.13-20.12-12.25-2.92-5.25-5.25-10.21-6.71-15.17-.584-2.63-1.17-6.71-2.63-12.54-.875-5.54-2.04-9.92-3.21-13.42-1.75-5.54-4.67-11.38-8.46-17.5-6.71-11.08-10.21-21.29-10.21-30.04-.292-11.67 4.96-20.42 15.75-26.54 8.17-4.67 17.5-6.42 28.29-4.96 10.79 1.17 23.33 10.79 37.63 28.88m-287.29-28.88c4.08-2.63 9.33-4.08 15.17-4.37 6.71-.584 13.13.29 19.83 2.04 16.33 4.38 28.58 13.71 37.04 28.29.58.88 1.46 2.63 2.33 4.96 1.17 2.92 1.75 4.96 2.04 5.83 2.33 5.83 4.38 9.92 5.83 12.54 1.17 2.33 3.5 4.38 6.71 6.42 2.92 2.04 5.25 4.38 6.71 7.29 2.33 4.08 2.63 9.63.88 16.33-1.75 7.29-5.25 12.54-9.92 15.75-3.79 2.33-6.42 4.96-8.17 8.17-.875 1.75-1.75 4.67-2.63 8.46-.875 3.5-2.04 6.42-3.5 8.46-2.04 2.92-5.54 5.83-9.92 8.75-3.5 2.04-8.17 3.21-13.71 3.5-5.54.29-11.08-.292-16.62-1.75-13.42-2.92-22.46-9.04-27.42-17.79-3.21-5.83-5.25-11.38-6.13-16.62-.584-3.5-.584-7.58.29-12.25.88-5.83 1.46-9.92 1.17-11.67.29-4.96-.875-9.62-3.21-14.29-4.96-11.08-7.88-21.88-8.17-31.5-.291-13.12 3.5-21.87 11.38-26.54m-95.67-86.92c21.88 24.21 32.96 44.63 33.54 61.25.88 17.21-5.25 29.46-18.37 36.75-6.13 3.5-13.42 5.25-21.58 5.54-8.17.29-16.33-.875-24.5-3.5-8.17-2.92-15.46-6.71-22.17-11.38-7-4.96-12.25-10.5-15.75-16.92-2.92-4.96-4.67-9.04-5.25-11.96-.583-1.75-.875-4.08-.583-6.71.29-2.63.29-5.25-.292-7.58-1.17-3.79-3.21-8.75-6.42-14.88-4.38-8.46-6.71-15.75-7-21.88-.583-10.21 3.5-17.79 12.54-23.04 4.67-2.63 10.21-4.67 16.33-6.13 6.71-1.46 13.13-1.75 19.83-1.17 15.75 1.46 28 7.29 37.33 18.08l2.33 3.5m-56.87 157.21c3.5 1.46 8.46 4.67 14.29 9.04 16.92 11.96 22.46 29.46 16.04 52.21-.875 3.79-1.46 7.29-.875 9.92 0 1.75.88 3.79 2.04 6.42.58 1.17 2.04 3.5 4.38 7.29 4.38 6.71 6.42 11.96 6.71 15.75.29 6.71-1.46 13.13-5.25 19.25-3.5 6.12-8.17 10.79-13.71 14-11.08 6.42-22.17 5.83-33.25-2.33-3.5-2.33-7-5.83-10.5-9.92-3.5-4.08-5.54-6.42-6.42-7.29-5.54-4.96-10.5-8.46-14.88-10.79-2.04-.875-5.25-1.75-9.33-2.63-3.5-.874-6.13-2.04-8.17-3.79-2.92-2.33-6.13-6.42-9.63-12.54-4.08-7.58-4.96-16.62-2.04-27.12a45.71 45.71 0 0 1 5.25-12.25c2.04-3.5 4.38-6.13 6.71-7.58 3.5-2.04 7.58-2.92 11.67-2.33 2.63.58 4.8.58 4.96.29 2.04 0 4.08-.583 5.54-1.75 1.75-.875 3.21-2.92 4.38-6.12.29-.584 1.17-3.79 3.21-9.63 1.17-4.08 2.63-7.58 4.38-10.21 2.04-3.5 4.38-6.13 7.58-7.58 4.67-2.63 10.5-2.92 16.92-.291m95.96 183.46c7.58-16.63 19.25-27.13 35.29-31.5 16.04-4.38 31.5-1.17 46.67 9.33 14.87 10.5 25.08 25.67 30.04 44.92 5.25 19.25 4.08 37.33-3.5 53.96-7.58 16.92-19.54 27.42-35.58 31.79-16.04 4.08-31.79.88-46.67-9.62-14.87-10.79-24.79-25.67-30.33-44.92-4.96-19.25-3.79-37.33 4.08-53.96z"></path><path fill="#62c9e2" d="M817.89 2239.12c-5.83-4.67-10.79-7.58-14.29-9.04-6.42-2.63-12.25-2.33-17.5.88-3.21 1.46-5.54 4.08-7.58 7.58-1.46 2.63-2.92 6.13-4.37 10.21-2.04 5.83-2.92 9.04-3.21 9.63-1.17 2.92-2.63 4.96-4.38 6.13-1.75 1.17-3.5 1.75-5.54 1.75-.875.29-2.33 0-4.96-.292-4.08-.583-8.17.29-11.67 2.33-2.63 1.46-4.96 4.08-6.71 7.58-2.33 3.5-4.08 7.58-5.25 12.25-2.63 10.5-2.04 19.54 2.04 27.12 3.5 6.13 6.71 10.5 9.62 12.54 2.04 1.75 4.67 2.92 8.17 3.79 4.38.88 7.29 1.75 9.33 2.63 4.67 2.04 9.63 5.83 14.88 10.79.88.88 3.21 3.21 6.42 7.29 3.5 4.38 7.29 7.58 10.5 9.92 11.08 7.88 22.17 8.75 33.25 2.33 5.54-3.21 10.21-7.88 13.71-14 3.79-6.13 5.54-12.54 5.25-19.25-.292-3.79-2.33-9.04-6.71-15.75-2.33-3.79-3.79-6.12-4.38-7.29-1.17-2.63-2.04-4.67-2.04-6.42-.292-2.92 0-6.12.88-9.92 7-23.33 1.46-40.54-15.46-52.79z"></path><path fill="#fff968" d="M894.01 2134.12c-.583-16.92-11.96-37.33-33.54-61.25l-2.33-4.08c-9.33-10.79-21.58-16.62-37.33-18.08-6.71-.583-13.12-.291-19.83 1.17-6.13 1.46-11.67 3.5-16.33 6.13-9.04 5.25-13.12 13.12-12.54 23.4.29 6.13 2.63 13.42 7 21.88 3.21 6.12 5.25 11.08 6.42 14.87.58 2.33.58 4.96.29 7.58 0 2.63.29 4.96.58 6.71.58 3.21 2.33 7 5.25 11.96 3.79 6.42 9.04 11.96 15.75 16.92 6.71 4.67 14 8.46 22.17 11.38 8.46 2.63 16.63 3.79 24.5 3.5 8.17-.292 15.46-2.04 21.58-5.54 13.12-6.71 19.25-18.96 18.37-36.17z"></path><path fill="#6d924d" d="M971.6 2155.41c-6.13.58-11.08 2.04-15.17 4.37-8.17 4.67-11.67 13.42-11.08 26.25.29 9.92 3.21 20.42 8.17 31.5 2.33 4.67 3.21 9.33 3.21 14.29.29 2.04-.291 5.83-1.17 11.67-.584 4.67-.584 8.75-.292 12.25.88 5.25 2.92 10.79 6.13 16.63 4.96 8.75 14.29 14.58 27.42 17.79 5.54 1.46 11.08 2.04 16.63 1.75 5.54-.29 9.92-1.46 13.71-3.5 4.38-2.63 7.88-5.54 9.92-8.75 1.46-2.33 2.33-4.96 3.5-8.46.88-3.79 1.75-6.71 2.63-8.46 1.46-3.21 4.08-5.83 8.17-8.17 4.96-3.21 8.17-8.46 9.92-15.75 1.75-7 1.46-12.54-.875-16.33-1.75-2.92-3.79-5.25-6.71-7.29-3.21-2.04-5.54-4.08-6.71-6.42-1.46-2.63-3.5-7-5.83-12.54-.292-.875-.875-2.92-2.04-5.83-.875-2.33-1.75-3.79-2.33-4.96-8.46-14.58-20.71-23.92-37.04-28.29-7-1.75-13.42-2.33-20.13-1.75z"></path><path fill="#a582e5" d="M1262.67 2245.54c1.46-19.83-4.96-38.79-19.25-56.58-14.58-18.08-27.12-28-37.62-29.17-10.79-1.46-20.13.29-28.29 4.96-10.79 6.13-16.04 14.87-15.75 26.54 0 8.75 3.5 18.96 10.21 30.04 4.08 6.13 6.71 11.96 8.46 17.5 1.17 3.5 2.33 8.17 3.21 13.42a611.02 611.02 0 0 0 2.63 12.54c1.46 4.67 3.79 9.63 6.71 15.17 3.79 6.42 10.5 10.5 20.12 12.25 9.04 1.75 16.63.58 22.75-2.92 16.33-9.04 25.38-23.92 26.83-43.75z"></path><path fill="#ef6868" d="M916.47 2023c-.292 2.63-.875 7.29-2.04 13.42-1.46 13.42 1.46 26.54 8.75 39.37 0 .292.29.29.29.58 7.29 12.83 17.5 20.13 30.04 22.46 4.96.88 9.63.88 14.29.29 4.08-.875 7.29-1.75 9.92-3.21 3.5-2.04 6.71-5.25 9.92-9.63 2.92-4.38 5.25-7 6.42-7.58.29 0 2.92-.584 7.29-1.17 4.37-.583 7.87-1.17 10.21-2.33 10.21-5.83 12.83-16.33 8.17-30.92-1.46-4.38-3.5-9.04-6.42-14.58-.875-2.04-1.75-3.79-2.63-5.83-1.17-2.33-9.04-14.29-23.63-35.58-3.5-6.13-8.17-11.08-14.29-15.17-5.54-4.08-11.67-7-18.67-9.04-6.42-1.75-12.83-2.63-18.67-2.63-6.13.29-11.08 1.46-14.88 3.79-7.29 4.08-12.25 9.62-14.87 16.92-2.63 7.29-2.33 14 .875 19.54.29.58 1.75 2.33 4.38 5.54 2.33 3.21 3.5 4.96 3.79 5.54 1.75 2.33 2.33 5.83 1.75 10.21z"></path><path d="M970.43 2613.03c-21.58 0-43.16-4.37-64.17-13.42-42-17.79-77.87-41.12-106.75-69.12-28.58-27.42-53.08-57.75-73.5-90.12-3.79-5.83-7.29-12.25-10.79-18.37-49.58-85.46-65.04-175.29-46.37-267.16 19.25-92.17 67.67-161.58 144.66-205.91 77-44.33 161.58-51.91 250.83-22.17 88.96 29.46 159.25 87.79 208.83 173.25 15.46 27.12 27.71 55.12 36.46 82.83 2.92 8.75 5.25 17.5 7.29 26.54 0 .292.29.58.29 1.17 3.21 20.42 2.04 42-3.5 63.58-10.5 39.96-34.12 70.58-70 91.29-31.79 18.37-65.62 24.5-100.33 18.37-.291 0-.875 0-1.17-.292-4.08-.874-8.46-2.04-12.54-2.92h-.291c-8.75-.875-16.92 1.17-25.08 5.83-10.79 6.42-17.5 15.17-20.71 27.13-1.17 4.96-.583 10.21 1.75 16.62 5.54 13.71 9.63 28 12.83 42.58 4.38 17.5 3.79 35.87-1.17 54.54-7.87 29.75-25.37 52.5-51.91 67.67l-2.04 1.17c-.292.29-.875.29-1.17.58-23.92 10.79-47.83 16.33-71.46 16.33zm-11.08-675.2c-7.58 0-14.87.29-22.17.88-37.33 3.5-74.08 15.17-109.08 35.29-34.71 20.13-63.29 46.08-84.87 76.71-21.58 30.92-37.04 67.96-45.79 109.96-8.75 42.29-9.33 84.58-2.33 125.42 7 40.83 22.46 81.96 45.5 121.62 0 0 0 .292.29.29 2.92 5.54 6.42 11.38 9.92 16.92 18.96 30.33 42.29 58.92 68.83 84.58 26.25 25.38 59.21 46.67 97.71 63 37.04 15.75 73.5 14.88 111.71-2.33l1.46-.875c19.83-11.38 32.37-27.71 38.21-49.87 3.79-14.29 4.08-27.42.88-40.25v-.583c-2.63-13.13-6.42-25.67-11.38-37.92-4.96-11.96-5.83-23.92-2.92-35 5.25-19.54 16.92-34.71 34.12-44.91 14.29-8.17 29.17-11.38 44.92-9.33h.875l9.63 1.75c.291 0 .875.29 1.17.29 1.17.29 2.33.88 3.79 1.17 28 4.67 53.96-.292 79.62-15.17 29.17-16.92 47.83-41.13 56.29-73.5 4.67-17.5 5.54-34.42 2.92-50.75-2.04-7.88-4.08-16.04-6.71-23.92-8.17-25.67-19.54-51.62-34.12-77-23.04-39.67-50.75-73.21-82.83-99.75-31.79-26.54-68.83-46.96-109.96-60.66-32.67-10.5-64.75-16.04-95.67-16.04zm-.291 600.82c-14.29 0-28.29-4.67-41.71-14.29-17.79-12.83-29.75-30.63-35.87-53.08-6.13-22.75-4.38-44.04 4.67-63.87 9.33-20.71 24.5-34.13 44.63-39.67 20.42-5.54 40.25-1.46 58.91 11.67 17.79 12.54 29.75 30.63 35.87 53.37 6.13 22.46 4.38 44.04-4.38 63.87-9.62 21-24.5 34.12-44.91 39.67h-.292c-5.54 1.46-11.38 2.33-16.92 2.33zm13.42-16.63zm-23.92-127.45c-3.21 0-6.42.58-9.92 1.46-11.67 3.21-20.12 10.79-25.67 23.62v.292c-6.42 13.42-7.29 28-2.92 44.04 4.38 16.04 12.54 28 24.5 36.75 11.37 8.17 22.75 10.5 34.41 7.58 11.67-3.21 20.13-11.08 25.96-23.62 6.13-13.71 7-28 2.92-44.04-4.38-16.33-12.25-28.29-24.5-37.04-8.46-6.13-16.63-9.04-24.79-9.04z"></path></symbol></svg>