<svg width="3009" height="3009" viewBox="0 0 3009 3009" fill="none" xmlns="http://www.w3.org/2000/svg"><g clip-path="url(#clip0_4368_3910)"><path d="M656.98 397.83C729.68 560.42 898.89 657.55 988.95 691.97C999.61 696.04 1011.49 694.74 1021.38 689.04L1123.4 630.13L1225.42 571.23C1235.31 565.52 1242.37 555.88 1244.17 544.61C1259.4 449.42 1259.88 254.31 1155.43 110.05C1147.92 99.67 1140.57 90.36 1133.39 82.02C1086.33 93.52 983.5 143.48 921.38 182.48L879.05 206.92L836.73 231.35C771.89 265.65 677.22 329.72 643.73 364.73C647.35 375.12 651.75 386.14 656.98 397.83Z" fill="#D6C7E4"/><path d="M583.98 418.03L558.84 445.08C545.21 464.21 532.98 483.19 522.8 502.08C459.3 619.89 475.63 733.94 728.4 858.19L859.38 782.57C886.93 766.66 885.88 726.14 858.67 709.64C683.12 603.22 609.31 476.49 583.98 418.03Z" fill="#D6C7E4"/><path d="M1245.42 48.69L1209.42 56.93C1247.38 108.1 1320.23 235.39 1324.62 440.63C1325.3 472.44 1359.87 493.61 1387.42 477.7L1518.4 402.08C1537.18 121.05 1446.58 49.88 1312.8 45.97C1291.36 45.34 1268.81 46.44 1245.42 48.69Z" fill="#D6C7E4"/><path d="M583.98 418.03L558.84 445.08M728.4 858.19L859.38 782.57C886.93 766.66 885.88 726.14 858.67 709.64C683.12 603.22 609.31 476.49 583.98 418.03C583.98 418.03 464.72 155.18 702.77 140.49C733.43 138.6 770.01 140.82 813.55 148.26C833.85 151.73 853.86 140.17 861.01 120.86C876.34 79.44 892.71 46.64 909.67 21.03C1041.41 -177.78 1209.42 56.93 1209.42 56.93C1247.38 108.1 1320.23 235.39 1324.62 440.63C1325.3 472.44 1359.87 493.61 1387.42 477.7L1518.4 402.08M558.84 445.08C325.89 305.71 112.89 698.56 670.62 947.9C678.45 951.4 685.38 957.46 689.66 964.88C732.2 1038.55 757.1 1081.7 771.63 1106.86C782.67 1125.99 807.11 1132.5 826.24 1121.46L1261.86 869.95L1697.48 618.45C1716.61 607.4 1723.18 582.99 1712.14 563.86C1697.61 538.69 1672.7 495.55 1630.17 421.88C1625.88 414.46 1624.1 405.42 1624.98 396.9C1687.91 -210.78 1241.19 -222.74 1245.42 48.69M558.84 445.08C545.21 464.21 532.98 483.19 522.8 502.08M728.4 858.19L693.07 878.59C682.69 884.58 670.12 885.68 659.06 881.05C509.68 818.51 424.29 702.03 400.82 649.18C381.45 610.2 357.09 524.57 405.2 499.31C434.07 484.14 469.4 479.09 522.8 502.08M728.4 858.19C475.63 733.94 459.3 619.89 522.8 502.08M643.73 364.73C677.22 329.72 771.89 265.65 836.73 231.35L879.05 206.92L921.38 182.48C983.5 143.48 1086.33 93.52 1133.39 82.02M836.73 231.35C754.06 196.04 580.16 182.53 643.73 364.73M643.73 364.73C647.35 375.12 651.75 386.14 656.98 397.83C729.68 560.42 898.89 657.55 988.95 691.97C999.61 696.04 1011.49 694.74 1021.38 689.04L1123.4 630.13L1225.42 571.23C1235.31 565.52 1242.37 555.88 1244.17 544.61C1259.4 449.42 1259.88 254.31 1155.43 110.05C1147.92 99.67 1140.57 90.36 1133.39 82.02M1209.42 56.93L1245.42 48.69M1245.42 48.69C1268.81 46.44 1291.36 45.34 1312.8 45.97M1518.4 402.08L1553.73 381.68C1564.11 375.69 1571.35 365.35 1572.87 353.46C1593.4 192.83 1535.22 60.63 1501.18 13.88C1477.11 -22.38 1415.14 -86.29 1369.2 -57.26C1341.63 -39.84 1319.59 -11.77 1312.8 45.97M1518.4 402.08C1537.18 121.06 1446.58 49.88 1312.8 45.97M921.38 182.48C932.13 93.23 1007.38 -64.12 1133.39 82.02" stroke="black" stroke-width="30"/><path fill-rule="evenodd" clip-rule="evenodd" d="M558.84 445.08C325.89 305.71 112.89 698.56 670.62 947.9C678.45 951.4 685.38 957.46 689.66 964.88C732.2 1038.55 757.1 1081.7 771.63 1106.86C782.67 1125.99 807.11 1132.5 826.24 1121.46L1261.86 869.95L1697.48 618.45C1716.61 607.4 1723.18 582.99 1712.14 563.86C1697.61 538.69 1672.7 495.55 1630.17 421.88C1625.88 414.46 1624.1 405.42 1624.98 396.9C1687.91 -210.78 1241.19 -222.74 1245.42 48.69C1268.81 46.44 1291.36 45.34 1312.8 45.97C1319.59 -11.77 1341.63 -39.84 1369.2 -57.26C1415.14 -86.29 1477.11 -22.38 1501.18 13.88C1535.22 60.63 1593.4 192.83 1572.87 353.46C1571.35 365.35 1564.11 375.69 1553.73 381.68L1518.4 402.08L1387.42 477.7C1359.87 493.61 1325.3 472.44 1324.62 440.63C1320.23 235.39 1247.38 108.1 1209.42 56.93C1209.42 56.93 1041.41 -177.78 909.67 21.03C892.71 46.64 876.34 79.44 861.01 120.86C853.86 140.17 833.85 151.73 813.55 148.26C770.01 140.82 733.43 138.6 702.77 140.49C464.72 155.18 583.98 418.03 583.98 418.03C609.31 476.49 683.12 603.22 858.67 709.64C885.88 726.14 886.93 766.66 859.38 782.57L728.4 858.19L693.07 878.59C682.69 884.58 670.12 885.68 659.06 881.05C509.68 818.51 424.29 702.03 400.82 649.18C381.45 610.2 357.09 524.57 405.2 499.31C434.07 484.14 469.4 479.09 522.8 502.08C532.98 483.19 545.21 464.21 558.84 445.08ZM1021.38 689.04C1011.49 694.74 999.61 696.04 988.95 691.97C898.89 657.55 729.68 560.42 656.98 397.83C651.75 386.14 647.35 375.12 643.73 364.73C580.16 182.53 754.06 196.04 836.73 231.35L879.05 206.92L921.38 182.48C932.13 93.23 1007.38 -64.12 1133.39 82.02C1140.57 90.36 1147.92 99.67 1155.43 110.05C1259.88 254.31 1259.4 449.42 1244.17 544.61C1242.37 555.88 1235.31 565.52 1225.42 571.23L1123.4 630.13L1021.38 689.04Z" fill="#C0C0C0"/><path d="M583.98 418.03L558.84 445.08M728.4 858.19L859.38 782.57C886.93 766.66 885.88 726.14 858.67 709.64C683.12 603.22 609.31 476.49 583.98 418.03C583.98 418.03 464.72 155.18 702.77 140.49C733.43 138.6 770.01 140.82 813.55 148.26C833.85 151.73 853.86 140.17 861.01 120.86C876.34 79.44 892.71 46.64 909.67 21.03C1041.41 -177.78 1209.42 56.93 1209.42 56.93C1247.38 108.1 1320.23 235.39 1324.62 440.63C1325.3 472.44 1359.87 493.61 1387.42 477.7L1518.4 402.08M558.84 445.08C325.89 305.71 112.89 698.56 670.62 947.9C678.45 951.4 685.38 957.46 689.66 964.88C732.2 1038.55 757.1 1081.7 771.63 1106.86C782.67 1125.99 807.11 1132.5 826.24 1121.46L1261.86 869.95L1697.48 618.45C1716.61 607.4 1723.18 582.99 1712.14 563.86C1697.61 538.69 1672.7 495.55 1630.17 421.88C1625.88 414.46 1624.1 405.42 1624.98 396.9C1687.91 -210.78 1241.19 -222.74 1245.42 48.69M558.84 445.08C545.21 464.21 532.98 483.19 522.8 502.08M728.4 858.19L693.07 878.59C682.69 884.58 670.12 885.68 659.06 881.05C509.68 818.51 424.29 702.03 400.82 649.18C381.45 610.2 357.09 524.57 405.2 499.31C434.07 484.14 469.4 479.09 522.8 502.08M728.4 858.19C475.63 733.94 459.3 619.89 522.8 502.08M643.73 364.73C677.22 329.72 771.89 265.65 836.73 231.35L879.05 206.92L921.38 182.48C983.5 143.48 1086.33 93.52 1133.39 82.02M836.73 231.35C754.06 196.04 580.16 182.53 643.73 364.73M643.73 364.73C647.35 375.12 651.75 386.14 656.98 397.83C729.68 560.42 898.89 657.55 988.95 691.97C999.61 696.04 1011.49 694.74 1021.38 689.04L1123.4 630.13L1225.42 571.23C1235.31 565.52 1242.37 555.88 1244.17 544.61C1259.4 449.42 1259.88 254.31 1155.43 110.05C1147.92 99.67 1140.57 90.36 1133.39 82.02M1209.42 56.93L1245.42 48.69M1245.42 48.69C1268.81 46.44 1291.36 45.34 1312.8 45.97M1518.4 402.08L1553.73 381.68C1564.11 375.69 1571.35 365.35 1572.87 353.46C1593.4 192.83 1535.22 60.63 1501.18 13.88C1477.11 -22.38 1415.14 -86.29 1369.2 -57.26C1341.63 -39.84 1319.59 -11.77 1312.8 45.97M1518.4 402.08C1537.18 121.06 1446.58 49.88 1312.8 45.97M921.38 182.48C932.13 93.23 1007.38 -64.12 1133.39 82.02" stroke="black" stroke-width="30"/><path d="M811.73 90.3L695.37 24.5L695.21 -111.52L812.93 -43.37L811.73 90.3Z" fill="#55E748"/><path d="M811.73 90.3L695.37 24.5L695.21 -111.52L812.93 -43.37L811.73 90.3Z" stroke="black" stroke-width="30"/><path d="M1023.87 916.88C1021.43 928.56 1009.38 935.52 998.05 931.79L952.91 916.95C943.38 913.82 937.65 904.12 939.5 894.26L948.48 846.47C950.74 834.43 963.2 827.23 974.76 831.29L1020.64 847.41C1030.1 850.74 1035.64 860.56 1033.59 870.37L1023.87 916.88Z" fill="#5BC8FB" stroke="black" stroke-width="30"/><path d="M1447.32 672.4C1444.88 684.08 1432.83 691.04 1421.5 687.31L1376.36 672.47C1366.83 669.34 1361.1 659.64 1362.95 649.78L1371.93 601.99C1374.19 589.95 1386.65 582.75 1398.22 586.82L1444.09 602.93C1453.55 606.26 1459.09 616.08 1457.04 625.89L1447.32 672.4Z" fill="#5BC8FB" stroke="black" stroke-width="30"/><path d="M1015.8 496L887 531.75L790.71 435.69L922.13 400.63L1015.8 496Z" fill="#55E748"/><path d="M1015.8 496L887 531.75L790.71 435.69L922.13 400.63L1015.8 496Z" stroke="black" stroke-width="30"/><path d="M1061.03 469.88L1156.4 376.21L1121.34 244.79L1025.28 341.08L1061.03 469.88Z" fill="#55E748"/><path d="M1061.03 469.88L1156.4 376.21L1121.34 244.79L1025.28 341.08L1061.03 469.88Z" stroke="black" stroke-width="30"/></g><defs><clipPath id="clip0_4368_3910"><rect width="3000" height="3000" fill="white" transform="translate(0 8.05) rotate(-.15)"/></clipPath></defs></svg>