<svg width="3009" height="3009" viewBox="0 0 3009 3009" fill="none" xmlns="http://www.w3.org/2000/svg">
<g clip-path="url(#clip0_4368_3913)">
<path d="M1816.53 293.324C1822.32 291.793 1828.47 293.856 1832.17 298.57C1832.45 298.938 1832.7 299.271 1832.85 299.479C1833.04 299.739 1833.09 299.798 1833.16 299.904C1837.15 305.205 1840.91 312.241 1844.5 320.299L1845.22 321.927L1845.23 321.964C1851.34 336.098 1855.19 351.544 1856.85 367.899L1856.85 367.9C1858.71 384.891 1858.04 401.249 1854.57 416.497L1854.57 416.498C1851.98 428.122 1848.57 439.032 1844.35 449.07C1844.3 449.19 1844.25 449.31 1844.19 449.429C1844 449.866 1843.3 451.497 1842.59 452.897C1842.58 452.919 1842.57 452.942 1842.56 452.965C1848.09 449.331 1853.99 447.155 1860.31 447.113C1868.75 447.056 1874.94 450.888 1878.23 453.083C1878.25 453.1 1878.28 453.116 1878.3 453.133C1882.23 455.789 1885.84 459.839 1888.2 466.508L1888.43 467.162L1888.55 467.553C1888.59 467.684 1888.63 467.816 1888.67 467.948C1891.97 479.996 1892.08 491.957 1887.61 503.36C1884.05 512.432 1878.01 520.122 1870.28 526.764C1874.38 526.446 1878.5 526.557 1882.5 527.105L1883.45 527.243L1883.79 527.299C1887.12 527.891 1890.73 528.838 1894.05 530.517C1897.2 532.107 1901.43 535.06 1903.83 540.307L1904.06 540.821L1904.07 540.866C1905.52 544.309 1909.04 553.022 1905.16 565.095C1901.57 576.249 1892.41 587.928 1875.46 600.642C1875.45 600.648 1875.44 600.654 1875.43 600.659C1869.38 605.177 1862.52 609.695 1855.04 614.103C1855.65 614.255 1856.26 614.445 1856.86 614.677C1857.41 614.892 1857.63 614.98 1857.82 615.056L1858.61 615.365L1858.86 615.462C1868.71 619.46 1875.78 626.287 1880.04 635.931C1880.17 636.203 1880.26 636.41 1880.3 636.511C1880.34 636.596 1880.37 636.679 1880.4 636.757C1880.69 637.437 1880.93 638.146 1881.12 638.882L1881.14 638.955C1881.98 642.222 1881.68 645.523 1880.48 648.426C1879.96 649.781 1879.27 651.106 1878.42 652.396C1876.81 654.858 1874.57 657.314 1871.58 659.808C1871.29 660.065 1871.01 660.294 1870.74 660.502C1861.2 668.579 1849.2 672.132 1836.92 675.984L1836.92 675.985C1827.31 679.026 1815.88 682.639 1802.5 688.345C1802.4 688.389 1802.3 688.432 1802.19 688.473C1801.59 688.714 1800.96 688.949 1800.43 689.144C1803.29 690.374 1805.77 692.491 1807.43 695.324C1807.51 695.461 1807.58 695.586 1807.64 695.697C1807.7 695.809 1807.76 695.911 1807.81 696C1807.9 696.175 1807.97 696.323 1808.02 696.422C1808.37 697.112 1808.67 697.828 1808.91 698.565C1810.63 703.829 1809.37 708.418 1808.23 711.038C1807.1 713.66 1805.55 715.679 1804.42 716.983C1802.13 719.624 1799.39 721.813 1797.48 723.227C1797.46 723.243 1797.44 723.259 1797.42 723.275C1785.82 731.785 1769.23 737.338 1750.62 740.421C1750.61 740.423 1750.59 740.425 1750.58 740.428C1738.49 742.395 1726.98 741.249 1716.32 736.175C1710.4 733.36 1707 727.031 1707.91 720.542L1728.28 575.742L1728.28 575.718C1729.48 567.312 1730.01 558.964 1729.94 550.698C1729.9 548.286 1729.85 545.998 1729.74 543.777C1728.8 525.467 1724.93 507.789 1718.52 491.245C1718.51 491.226 1718.5 491.208 1718.49 491.189C1717.17 487.733 1715.7 484.32 1714.1 480.912C1714.07 480.845 1714.02 480.757 1713.97 480.657C1713.92 480.556 1713.86 480.435 1713.79 480.299C1711.26 475.053 1711.99 468.813 1715.68 464.297C1720.26 458.675 1725.03 452.968 1730.05 447.28L1730.07 447.259L1731.38 445.786C1744.98 430.322 1762.55 410.197 1774.17 392.294L1774.29 392.122C1787.53 372.329 1800.58 349.064 1804.08 317.805C1804.31 315.55 1804.82 310.332 1805.53 305.611L1805.62 305.059C1806.68 299.387 1810.92 294.807 1816.53 293.324Z" fill="#E9F6FB" stroke="black" stroke-width="30" stroke-linejoin="round"/>
<path d="M477.288 1064.54C472.988 1068.72 471.583 1075.05 473.715 1080.65C473.881 1081.08 474.04 1081.47 474.139 1081.7C474.263 1082 474.292 1082.07 474.342 1082.19C476.826 1088.34 480.913 1095.19 485.965 1102.42L486.989 1103.88L487.013 1103.91C495.971 1116.43 507.214 1127.7 520.368 1137.56L520.368 1137.56C533.967 1147.92 548.322 1155.79 563.175 1160.68L563.175 1160.68C574.471 1164.46 585.577 1167.16 596.352 1168.73C596.481 1168.75 596.611 1168.77 596.74 1168.78C597.217 1168.84 598.974 1169.08 600.538 1169.2C600.562 1169.2 600.587 1169.2 600.612 1169.21C594.643 1172.07 589.738 1176 586.438 1181.4C582.037 1188.59 582.126 1195.88 582.311 1199.82C582.312 1199.85 582.313 1199.88 582.315 1199.91C582.565 1204.65 584.173 1209.83 588.665 1215.29L589.109 1215.82L589.379 1216.13C589.471 1216.24 589.564 1216.34 589.658 1216.43C598.273 1225.48 608.467 1231.74 620.54 1233.8C630.145 1235.43 639.853 1234.22 649.529 1231.03C647.141 1234.38 645.112 1237.96 643.514 1241.68L643.142 1242.56L643.015 1242.88C641.808 1246.03 640.753 1249.62 640.479 1253.33C640.219 1256.84 640.566 1261.99 643.821 1266.75L644.145 1267.21L644.174 1267.25C646.379 1270.26 652.023 1277.78 664.37 1280.68C675.778 1283.36 690.504 1281.55 710.145 1273.58C710.154 1273.57 710.163 1273.57 710.171 1273.57C717.162 1270.72 724.575 1267.17 732.209 1263.03C732.023 1263.64 731.872 1264.26 731.763 1264.89C731.661 1265.47 731.623 1265.71 731.59 1265.91L731.448 1266.74L731.403 1267.01C729.744 1277.51 731.947 1287.08 738.01 1295.71C738.177 1295.96 738.308 1296.14 738.372 1296.23C738.426 1296.31 738.481 1296.38 738.531 1296.45C738.965 1297.04 739.447 1297.62 739.98 1298.16L740.033 1298.21C742.386 1300.61 745.352 1302.05 748.443 1302.53L748.986 1302.62C750.262 1302.81 751.586 1302.87 752.947 1302.82C755.885 1302.71 759.144 1302.05 762.818 1300.78C763.188 1300.67 763.533 1300.55 763.851 1300.43C775.695 1296.42 784.929 1287.97 794.569 1279.43L794.569 1279.44C802.132 1272.77 811.123 1264.85 822.912 1256.33C823.003 1256.27 823.093 1256.2 823.182 1256.13C823.699 1255.74 824.226 1255.32 824.665 1254.97C824.246 1258.05 824.78 1261.27 826.349 1264.15C826.424 1264.29 826.495 1264.42 826.559 1264.53C826.623 1264.64 826.682 1264.74 826.734 1264.82C826.837 1264.99 826.926 1265.13 826.986 1265.22C827.396 1265.88 827.855 1266.51 828.362 1267.09C831.983 1271.28 836.567 1272.57 839.395 1272.95C842.226 1273.33 844.757 1273.04 846.458 1272.75C849.901 1272.15 853.19 1270.93 855.385 1270.03C855.41 1270.02 855.435 1270.01 855.459 1270C868.733 1264.45 882.046 1253.11 894.289 1238.76C894.298 1238.75 894.307 1238.73 894.317 1238.72C902.239 1229.38 907.196 1218.93 908.35 1207.18C908.991 1200.66 905.326 1194.48 899.297 1191.91L764.748 1134.65L764.726 1134.64C756.908 1131.33 749.482 1127.48 742.437 1123.16C740.389 1121.88 738.459 1120.65 736.611 1119.41C721.411 1109.16 708.264 1096.73 697.402 1082.7C697.389 1082.68 697.377 1082.66 697.365 1082.65C695.087 1079.73 692.922 1076.71 690.826 1073.59C690.787 1073.52 690.735 1073.44 690.675 1073.34C690.615 1073.25 690.543 1073.13 690.461 1073C687.274 1068.13 681.55 1065.54 675.782 1066.36C668.601 1067.39 661.25 1068.53 653.787 1069.9L653.76 1069.9L651.825 1070.26C631.56 1073.93 605.255 1078.6 583.921 1079.32L583.716 1079.33C559.929 1080.46 533.266 1079.64 504.681 1066.51C502.632 1065.54 497.897 1063.29 493.49 1061.46L492.969 1061.25C487.562 1059.24 481.453 1060.5 477.288 1064.54Z" fill="#E9F6FB" stroke="black" stroke-width="30" stroke-linejoin="round"/>
<path d="M758.164 587.434C830.871 750.021 1000.08 847.157 1090.13 881.567C1100.8 885.641 1112.68 884.345 1122.57 878.638L1224.59 819.736L1326.61 760.833C1336.49 755.127 1343.56 745.482 1345.36 734.212C1360.59 639.017 1361.07 443.91 1256.62 299.651C1249.11 289.276 1241.76 279.957 1234.57 271.624C1187.51 283.121 1084.69 333.081 1022.56 372.084L980.242 396.518L937.921 420.953C873.081 455.253 778.402 519.321 744.915 554.329C748.539 564.718 752.935 575.742 758.164 587.434Z" fill="#D6C7E4"/>
<path d="M685.166 607.631L660.03 634.682C646.393 653.816 634.163 672.797 623.984 691.681C560.482 809.488 576.822 923.538 829.584 1047.79L960.567 972.168C988.121 956.26 987.064 915.741 959.856 899.246C784.31 792.824 710.498 666.089 685.166 607.631Z" fill="#D6C7E4"/>
<path d="M1346.6 238.288L1310.61 246.531C1348.57 297.698 1421.42 424.988 1425.81 630.227C1426.49 662.037 1461.05 683.212 1488.61 667.304L1619.59 591.681C1638.36 310.656 1547.76 239.48 1413.99 235.57C1392.55 234.944 1369.99 236.045 1346.6 238.288Z" fill="#D6C7E4"/>
<path d="M685.166 607.631L660.03 634.682M685.166 607.631C685.166 607.631 565.905 344.777 803.954 330.093C834.615 328.201 871.203 330.427 914.737 337.861C935.037 341.328 955.049 329.774 962.197 310.46C977.526 269.041 993.892 236.242 1010.86 210.635C1142.6 11.821 1310.61 246.531 1310.61 246.531M685.166 607.631C710.498 666.089 784.31 792.824 959.856 899.246C987.064 915.741 988.121 956.26 960.567 972.168L829.584 1047.79M660.03 634.682C427.082 495.307 214.081 888.165 771.808 1137.5C779.633 1141 786.564 1147.06 790.85 1154.48C833.382 1228.16 858.291 1271.3 872.819 1296.46C883.863 1315.59 908.297 1322.11 927.424 1311.06L1363.05 1059.56L1798.67 808.049C1817.8 797.005 1824.37 772.587 1813.33 753.459C1798.8 728.296 1773.89 685.152 1731.36 611.481C1727.07 604.058 1725.29 595.025 1726.17 586.499C1789.1 -21.1738 1342.38 -33.1383 1346.6 238.288M660.03 634.682C646.393 653.816 634.163 672.797 623.984 691.681M829.584 1047.79L794.254 1068.19C783.875 1074.18 771.303 1075.28 760.248 1070.65C610.87 1008.11 525.477 891.632 502.006 838.781C482.637 799.804 458.279 714.176 506.39 688.907C535.256 673.746 570.585 668.694 623.984 691.681M829.584 1047.79C576.822 923.538 560.482 809.488 623.984 691.681M937.921 420.953L980.242 396.518L1022.56 372.084M937.921 420.953C855.25 385.639 681.351 372.131 744.915 554.329M937.921 420.953C873.081 455.253 778.402 519.321 744.915 554.329M744.915 554.329C748.539 564.718 752.935 575.742 758.164 587.434C830.871 750.021 1000.08 847.157 1090.13 881.567C1100.8 885.641 1112.68 884.345 1122.57 878.638L1224.59 819.736L1326.61 760.833C1336.49 755.127 1343.56 745.482 1345.36 734.212C1360.59 639.017 1361.07 443.91 1256.62 299.651C1249.11 289.276 1241.76 279.957 1234.57 271.624M1310.61 246.531L1346.6 238.288M1310.61 246.531C1348.57 297.698 1421.42 424.988 1425.81 630.227C1426.49 662.037 1461.05 683.212 1488.61 667.304L1619.59 591.681M1346.6 238.288C1369.99 236.045 1392.55 234.944 1413.99 235.57M1619.59 591.681L1654.92 571.283C1665.3 565.291 1672.54 554.952 1674.06 543.064C1694.59 382.431 1636.41 250.236 1602.37 203.484C1578.3 167.222 1516.32 103.314 1470.39 132.344C1442.82 149.762 1420.78 177.832 1413.99 235.57M1619.59 591.681C1638.36 310.656 1547.76 239.48 1413.99 235.57M1022.56 372.084C1033.32 282.832 1108.57 125.477 1234.57 271.624M1022.56 372.084C1084.69 333.081 1187.51 283.121 1234.57 271.624" stroke="black" stroke-width="30.004"/>
<path d="M1164.08 705.388C1164.05 709.197 1159.94 711.571 1156.62 709.696L1050.18 649.512C1048.61 648.625 1047.64 646.965 1047.64 645.165L1047.5 520.743C1047.5 516.889 1051.67 514.479 1055 516.41L1162.69 578.745C1164.24 579.647 1165.2 581.317 1165.18 583.117L1164.08 705.388Z" fill="#F35B5B"/>
<path d="M1164.08 705.388C1164.05 709.197 1159.94 711.571 1156.62 709.696L1050.18 649.512C1048.61 648.625 1047.64 646.965 1047.64 645.165L1047.5 520.743C1047.5 516.889 1051.67 514.479 1055 516.41L1162.69 578.745C1164.24 579.647 1165.2 581.317 1165.18 583.117L1164.08 705.388Z" stroke="black" stroke-width="30.004"/>
<path fill-rule="evenodd" clip-rule="evenodd" d="M660.03 634.682C427.082 495.307 214.081 888.165 771.807 1137.5C779.633 1141 786.564 1147.06 790.849 1154.48C833.382 1228.16 858.291 1271.3 872.819 1296.46C883.863 1315.59 908.297 1322.11 927.424 1311.06L1363.05 1059.56L1798.67 808.049C1817.8 797.005 1824.37 772.587 1813.33 753.459C1798.8 728.296 1773.89 685.152 1731.35 611.481C1727.07 604.058 1725.29 595.025 1726.17 586.499C1789.1 -21.1738 1342.38 -33.1383 1346.6 238.288C1369.99 236.045 1392.55 234.944 1413.99 235.57C1420.78 177.832 1442.82 149.762 1470.39 132.344C1516.32 103.314 1578.3 167.222 1602.37 203.484C1636.41 250.236 1694.59 382.431 1674.06 543.064C1672.54 554.952 1665.3 565.291 1654.92 571.283L1619.59 591.681L1488.61 667.304C1461.05 683.212 1426.49 662.037 1425.81 630.227C1421.42 424.988 1348.57 297.698 1310.61 246.531C1310.61 246.531 1142.6 11.8211 1010.86 210.635C993.892 236.242 977.526 269.041 962.197 310.46C955.049 329.774 935.037 341.328 914.737 337.861C871.203 330.427 834.615 328.201 803.954 330.093C565.905 344.777 685.166 607.631 685.166 607.631C710.498 666.089 784.31 792.824 959.856 899.246C987.064 915.741 988.121 956.26 960.567 972.168L829.584 1047.79L794.254 1068.19C783.875 1074.18 771.303 1075.28 760.248 1070.65C610.87 1008.11 525.477 891.632 502.006 838.781C482.637 799.804 458.279 714.176 506.39 688.907C535.256 673.746 570.585 668.694 623.984 691.681C634.163 672.797 646.393 653.816 660.03 634.682ZM1122.57 878.638C1112.68 884.345 1100.8 885.641 1090.13 881.567C1000.08 847.157 830.871 750.021 758.164 587.434C752.935 575.742 748.539 564.717 744.915 554.329C681.351 372.131 855.25 385.639 937.921 420.953L980.242 396.518L1022.56 372.084C1033.32 282.832 1108.57 125.477 1234.57 271.624C1241.76 279.957 1249.11 289.276 1256.62 299.651C1361.07 443.91 1360.59 639.017 1345.36 734.212C1343.56 745.482 1336.49 755.127 1326.61 760.833L1224.59 819.736L1122.57 878.638Z" fill="#C0C0C0"/>
<path d="M685.166 607.631L660.03 634.682M685.166 607.631C685.166 607.631 565.905 344.777 803.954 330.093C834.615 328.201 871.203 330.427 914.737 337.861C935.037 341.328 955.049 329.774 962.197 310.46C977.526 269.041 993.892 236.242 1010.86 210.635C1142.6 11.8211 1310.61 246.531 1310.61 246.531M685.166 607.631C710.498 666.089 784.31 792.824 959.856 899.246C987.064 915.741 988.121 956.26 960.567 972.168L829.584 1047.79M660.03 634.682C427.082 495.307 214.081 888.165 771.807 1137.5C779.633 1141 786.564 1147.06 790.849 1154.48C833.382 1228.16 858.291 1271.3 872.819 1296.46C883.863 1315.59 908.297 1322.11 927.424 1311.06L1363.05 1059.56L1798.67 808.049C1817.8 797.005 1824.37 772.587 1813.33 753.459C1798.8 728.296 1773.89 685.152 1731.35 611.481C1727.07 604.058 1725.29 595.025 1726.17 586.499C1789.1 -21.1738 1342.38 -33.1383 1346.6 238.288M660.03 634.682C646.393 653.816 634.163 672.797 623.984 691.681M829.584 1047.79L794.254 1068.19C783.875 1074.18 771.303 1075.28 760.248 1070.65C610.87 1008.11 525.477 891.632 502.006 838.781C482.637 799.804 458.279 714.176 506.39 688.907C535.256 673.746 570.585 668.694 623.984 691.681M829.584 1047.79C576.822 923.538 560.482 809.488 623.984 691.681M937.921 420.953L980.242 396.518L1022.56 372.084M937.921 420.953C855.25 385.639 681.351 372.131 744.915 554.329M937.921 420.953C873.081 455.253 778.402 519.321 744.915 554.329M744.915 554.329C748.539 564.717 752.935 575.742 758.164 587.434C830.871 750.021 1000.08 847.157 1090.13 881.567C1100.8 885.641 1112.68 884.345 1122.57 878.638L1224.59 819.736L1326.61 760.833C1336.49 755.127 1343.56 745.482 1345.36 734.212C1360.59 639.017 1361.07 443.91 1256.62 299.651C1249.11 289.276 1241.76 279.957 1234.57 271.624M1310.61 246.531L1346.6 238.288M1310.61 246.531C1348.57 297.698 1421.42 424.988 1425.81 630.227C1426.49 662.037 1461.05 683.212 1488.61 667.304L1619.59 591.681M1346.6 238.288C1369.99 236.045 1392.55 234.944 1413.99 235.57M1619.59 591.681L1654.92 571.283C1665.3 565.291 1672.54 554.952 1674.06 543.064C1694.59 382.431 1636.41 250.236 1602.37 203.484C1578.3 167.222 1516.32 103.314 1470.39 132.344C1442.82 149.762 1420.78 177.832 1413.99 235.57M1619.59 591.681C1638.36 310.656 1547.76 239.48 1413.99 235.57M1022.56 372.084C1033.32 282.832 1108.57 125.477 1234.57 271.624M1022.56 372.084C1084.69 333.081 1187.51 283.121 1234.57 271.624" stroke="black" stroke-width="30.004"/>
<path d="M1033.7 1159.23C1031.26 1170.9 1019.21 1177.86 1007.88 1174.14L962.742 1159.3C953.215 1156.16 947.481 1146.46 949.333 1136.6L958.311 1088.82C960.574 1076.77 973.036 1069.58 984.597 1073.64L1030.47 1089.76C1039.93 1093.08 1045.47 1102.9 1043.42 1112.72L1033.7 1159.23Z" fill="#5BC8FB"/>
<path d="M1033.7 1159.23C1031.26 1170.9 1019.21 1177.86 1007.88 1174.14L962.742 1159.3C953.215 1156.16 947.481 1146.46 949.333 1136.6L958.311 1088.82C960.574 1076.77 973.036 1069.58 984.597 1073.64L1030.47 1089.76C1039.93 1093.08 1045.47 1102.9 1043.42 1112.72L1033.7 1159.23Z" stroke="black" stroke-width="30.004"/>
<path d="M1332.21 1006.14L1190.21 1012.89L1265.69 890.931L1409.05 886.537L1332.21 1006.14Z" fill="#55E748" stroke="black" stroke-width="30.004"/>
<path d="M1639.86 809.262C1637.42 820.939 1625.37 827.898 1614.04 824.172L1568.9 809.331C1559.38 806.199 1553.64 796.495 1555.49 786.639L1564.47 738.85C1566.73 726.807 1579.2 719.612 1590.76 723.674L1636.63 739.793C1646.09 743.118 1651.63 752.935 1649.58 762.752L1639.86 809.262Z" fill="#5BC8FB"/>
<path d="M1639.86 809.262C1637.42 820.939 1625.37 827.898 1614.04 824.172L1568.9 809.331C1559.38 806.199 1553.64 796.495 1555.49 786.639L1564.47 738.85C1566.73 726.807 1579.2 719.612 1590.76 723.674L1636.63 739.793C1646.09 743.118 1651.63 752.935 1649.58 762.752L1639.86 809.262Z" stroke="black" stroke-width="30.004"/>
<path d="M845.965 927.843C848.284 931.314 845.58 935.93 841.419 935.605L749.057 928.397C747.544 928.279 746.167 927.481 745.313 926.228L692.153 848.202C689.779 844.717 692.519 840.039 696.719 840.405L790.777 848.606C792.288 848.738 793.658 849.548 794.5 850.81L845.965 927.843Z" fill="#F35B5B"/>
<path d="M845.965 927.843C848.284 931.314 845.58 935.93 841.419 935.605L749.057 928.397C747.544 928.279 746.167 927.481 745.313 926.228L692.153 848.202C689.779 844.717 692.519 840.039 696.719 840.405L790.777 848.606C792.288 848.738 793.658 849.548 794.5 850.81L845.965 927.843Z" stroke="black" stroke-width="30.004"/>
<path d="M1507.52 545.884C1509.37 549.628 1514.72 549.595 1516.52 545.828L1556.45 462.236C1557.11 460.867 1557.11 459.276 1556.45 457.91L1515.46 372.858C1513.62 369.06 1508.2 369.094 1506.42 372.915L1466.49 458.471C1465.85 459.846 1465.87 461.437 1466.54 462.798L1507.52 545.884Z" fill="#F35B5B"/>
<path d="M1507.52 545.884C1509.37 549.628 1514.72 549.595 1516.52 545.828L1556.45 462.236C1557.11 460.867 1557.11 459.276 1556.45 457.91L1515.46 372.858C1513.62 369.06 1508.2 369.094 1506.42 372.915L1466.49 458.471C1465.85 459.846 1465.87 461.437 1466.54 462.798L1507.52 545.884Z" stroke="black" stroke-width="30.004"/>
<path d="M782.957 248.598L912.913 279.899L950.784 151.703L856.313 53.8452L831.919 139.612L745.445 117.855L782.957 248.598Z" fill="#55E748" stroke="black" stroke-width="30"/>
</g>
<defs>
<clipPath id="clip0_4368_3913">
<rect width="3000" height="3000" fill="white" transform="translate(0 8.055) rotate(-0.153839)"/>
</clipPath>
</defs>
</svg>
