<svg width="3009" height="3009" viewBox="0 0 3009 3009" fill="none" xmlns="http://www.w3.org/2000/svg">
<g clip-path="url(#clip0_4368_3910)">
<path d="M752.976 549.833C825.684 712.419 994.892 809.555 1084.95 843.965C1095.61 848.039 1107.49 846.744 1117.38 841.037L1219.4 782.134L1321.42 723.232C1331.31 717.525 1338.37 707.881 1340.17 696.61C1355.4 601.415 1355.88 406.309 1251.43 262.049C1243.92 251.674 1236.57 242.355 1229.39 234.023C1182.33 245.519 1079.5 295.479 1017.38 334.482L975.055 358.917L932.733 383.351C867.893 417.652 773.215 481.719 739.727 516.728C743.351 527.116 747.747 538.14 752.976 549.833Z" fill="#D6C7E4"/>
<path d="M679.979 570.029L654.843 597.08C641.206 616.215 628.975 635.195 618.796 654.079C555.295 771.886 571.635 885.936 824.397 1010.19L955.38 934.566C982.934 918.658 981.876 878.139 954.669 861.645C779.122 755.223 705.311 628.488 679.979 570.029Z" fill="#D6C7E4"/>
<path d="M1341.42 200.686L1305.42 208.93C1343.38 260.097 1416.23 387.387 1420.62 592.626C1421.3 624.435 1455.87 645.611 1483.42 629.702L1614.4 554.079C1633.18 273.055 1542.58 201.878 1408.8 197.969C1387.36 197.342 1364.81 198.444 1341.42 200.686Z" fill="#D6C7E4"/>
<path d="M679.979 570.029L654.843 597.08M679.979 570.029C679.979 570.029 560.717 307.176 798.767 292.491C829.427 290.6 866.015 292.825 909.549 300.26C929.849 303.726 949.862 292.172 957.01 272.858C972.338 231.44 988.705 198.641 1005.67 173.034C1137.41 -25.7806 1305.42 208.93 1305.42 208.93M679.979 570.029C705.311 628.488 779.122 755.223 954.669 861.645C981.876 878.139 982.934 918.658 955.38 934.566L824.397 1010.19M654.843 597.08C421.895 457.706 208.893 850.564 766.62 1099.9C774.445 1103.4 781.376 1109.46 785.662 1116.88C828.195 1190.55 853.104 1233.7 867.632 1258.86C878.675 1277.99 903.11 1284.5 922.237 1273.46L1357.86 1021.95L1793.48 770.447C1812.61 759.404 1819.18 734.985 1808.14 715.857C1793.61 690.694 1768.7 647.551 1726.17 573.88C1721.88 566.456 1720.1 557.423 1720.98 548.897C1783.91 -58.7753 1337.19 -70.7398 1341.42 200.686M654.843 597.08C641.206 616.215 628.975 635.195 618.796 654.079M824.397 1010.19L789.067 1030.59C778.688 1036.58 766.115 1037.68 755.06 1033.05C605.683 970.513 520.289 854.03 496.818 801.179C477.45 762.202 453.092 676.574 501.202 651.306C530.068 636.144 565.397 631.092 618.796 654.079M824.397 1010.19C571.635 885.936 555.295 771.886 618.796 654.079M932.733 383.351L975.055 358.917L1017.38 334.482M932.733 383.351C850.062 348.038 676.163 334.53 739.727 516.728M932.733 383.351C867.893 417.652 773.215 481.719 739.727 516.728M739.727 516.728C743.351 527.116 747.747 538.14 752.976 549.833C825.684 712.419 994.892 809.555 1084.95 843.965C1095.61 848.039 1107.49 846.744 1117.38 841.037L1219.4 782.134L1321.42 723.232C1331.31 717.525 1338.37 707.881 1340.17 696.61C1355.4 601.415 1355.88 406.309 1251.43 262.049C1243.92 251.674 1236.57 242.355 1229.39 234.023M1305.42 208.93L1341.42 200.686M1305.42 208.93C1343.38 260.097 1416.23 387.387 1420.62 592.626C1421.3 624.435 1455.87 645.611 1483.42 629.702L1614.4 554.079M1341.42 200.686C1364.81 198.444 1387.36 197.342 1408.8 197.969M1614.4 554.079L1649.73 533.682C1660.11 527.689 1667.35 517.35 1668.87 505.462C1689.4 344.829 1631.22 212.634 1597.18 165.883C1573.11 129.621 1511.14 65.712 1465.2 94.7424C1437.63 112.161 1415.59 140.23 1408.8 197.969M1614.4 554.079C1633.18 273.055 1542.58 201.878 1408.8 197.969M1017.38 334.482C1028.13 245.23 1103.38 87.8757 1229.39 234.023M1017.38 334.482C1079.5 295.479 1182.33 245.519 1229.39 234.023" stroke="black" stroke-width="30.004"/>
<path fill-rule="evenodd" clip-rule="evenodd" d="M654.843 597.08C421.894 457.706 208.893 850.564 766.62 1099.9C774.445 1103.4 781.376 1109.46 785.662 1116.88C828.195 1190.55 853.104 1233.7 867.632 1258.86C878.675 1277.99 903.11 1284.5 922.237 1273.46L1357.86 1021.95L1793.48 770.447C1812.61 759.404 1819.18 734.985 1808.14 715.858C1793.61 690.694 1768.7 647.551 1726.17 573.88C1721.88 566.456 1720.1 557.423 1720.98 548.897C1783.91 -58.7753 1337.19 -70.7398 1341.42 200.686C1364.81 198.444 1387.36 197.342 1408.8 197.969C1415.59 140.23 1437.63 112.161 1465.2 94.7424C1511.14 65.712 1573.11 129.621 1597.18 165.883C1631.22 212.634 1689.4 344.829 1668.87 505.462C1667.35 517.351 1660.11 527.689 1649.73 533.682L1614.4 554.079L1483.42 629.702C1455.87 645.611 1421.3 624.435 1420.62 592.626C1416.23 387.387 1343.38 260.097 1305.42 208.93C1305.42 208.93 1137.41 -25.7805 1005.67 173.034C988.705 198.641 972.338 231.44 957.01 272.858C949.862 292.172 929.849 303.726 909.549 300.26C866.015 292.825 829.427 290.6 798.767 292.491C560.717 307.176 679.979 570.029 679.979 570.029C705.31 628.488 779.122 755.223 954.669 861.645C981.876 878.139 982.934 918.658 955.38 934.566L824.397 1010.19L789.067 1030.59C778.688 1036.58 766.115 1037.68 755.06 1033.05C605.683 970.513 520.289 854.03 496.818 801.179C477.45 762.202 453.092 676.574 501.202 651.306C530.068 636.144 565.397 631.092 618.796 654.079C628.975 635.195 641.206 616.215 654.843 597.08ZM1117.38 841.037C1107.49 846.744 1095.61 848.039 1084.95 843.965C994.892 809.555 825.684 712.419 752.976 549.833C747.747 538.14 743.351 527.116 739.727 516.728C676.163 334.53 850.062 348.038 932.733 383.351L975.055 358.917L1017.38 334.482C1028.13 245.23 1103.38 87.8757 1229.39 234.023C1236.57 242.355 1243.92 251.674 1251.43 262.049C1355.88 406.309 1355.4 601.415 1340.17 696.61C1338.37 707.881 1331.31 717.525 1321.42 723.232L1219.4 782.134L1117.38 841.037Z" fill="#C0C0C0"/>
<path d="M679.979 570.029L654.843 597.08M679.979 570.029C679.979 570.029 560.717 307.176 798.767 292.491C829.427 290.6 866.015 292.825 909.549 300.26C929.849 303.726 949.862 292.172 957.01 272.858C972.338 231.44 988.705 198.641 1005.67 173.034C1137.41 -25.7805 1305.42 208.93 1305.42 208.93M679.979 570.029C705.31 628.488 779.122 755.223 954.669 861.645C981.876 878.139 982.934 918.658 955.38 934.566L824.397 1010.19M654.843 597.08C421.894 457.706 208.893 850.564 766.62 1099.9C774.445 1103.4 781.376 1109.46 785.662 1116.88C828.195 1190.55 853.104 1233.7 867.632 1258.86C878.675 1277.99 903.11 1284.5 922.237 1273.46L1357.86 1021.95L1793.48 770.447C1812.61 759.404 1819.18 734.985 1808.14 715.858C1793.61 690.694 1768.7 647.551 1726.17 573.88C1721.88 566.456 1720.1 557.423 1720.98 548.897C1783.91 -58.7753 1337.19 -70.7398 1341.42 200.686M654.843 597.08C641.206 616.215 628.975 635.195 618.796 654.079M824.397 1010.19L789.067 1030.59C778.688 1036.58 766.115 1037.68 755.06 1033.05C605.683 970.513 520.289 854.03 496.818 801.179C477.45 762.202 453.092 676.574 501.202 651.306C530.068 636.144 565.397 631.092 618.796 654.079M824.397 1010.19C571.635 885.936 555.295 771.886 618.796 654.079M932.733 383.351L975.055 358.917L1017.38 334.482M932.733 383.351C850.062 348.038 676.163 334.53 739.727 516.728M932.733 383.351C867.893 417.652 773.215 481.719 739.727 516.728M739.727 516.728C743.351 527.116 747.747 538.14 752.976 549.833C825.684 712.419 994.892 809.555 1084.95 843.965C1095.61 848.039 1107.49 846.744 1117.38 841.037L1219.4 782.134L1321.42 723.232C1331.31 717.525 1338.37 707.881 1340.17 696.61C1355.4 601.415 1355.88 406.309 1251.43 262.049C1243.92 251.674 1236.57 242.355 1229.39 234.023M1305.42 208.93L1341.42 200.686M1305.42 208.93C1343.38 260.097 1416.23 387.387 1420.62 592.626C1421.3 624.435 1455.87 645.611 1483.42 629.702L1614.4 554.079M1341.42 200.686C1364.81 198.444 1387.36 197.342 1408.8 197.969M1614.4 554.079L1649.73 533.682C1660.11 527.689 1667.35 517.351 1668.87 505.462C1689.4 344.829 1631.22 212.634 1597.18 165.883C1573.11 129.621 1511.14 65.712 1465.2 94.7424C1437.63 112.161 1415.59 140.23 1408.8 197.969M1614.4 554.079C1633.18 273.055 1542.58 201.878 1408.8 197.969M1017.38 334.482C1028.13 245.23 1103.38 87.8757 1229.39 234.023M1017.38 334.482C1079.5 295.479 1182.33 245.519 1229.39 234.023" stroke="black" stroke-width="30.004"/>
<path d="M907.725 242.297L791.365 176.504L791.209 40.4854L908.926 108.63L907.725 242.297Z" fill="#55E748"/>
<path d="M907.725 242.297L791.365 176.504L791.209 40.4854L908.926 108.63L907.725 242.297Z" stroke="black" stroke-width="30.004"/>
<path d="M1119.87 1068.88C1117.43 1080.56 1105.38 1087.52 1094.05 1083.79L1048.91 1068.95C1039.38 1065.82 1033.65 1056.12 1035.5 1046.26L1044.48 998.471C1046.74 986.428 1059.2 979.233 1070.76 983.295L1116.64 999.414C1126.1 1002.74 1131.64 1012.56 1129.59 1022.37L1119.87 1068.88Z" fill="#5BC8FB" stroke="black" stroke-width="30.004"/>
<path d="M1543.32 824.403C1540.88 836.08 1528.83 843.039 1517.5 839.313L1472.36 824.472C1462.83 821.339 1457.1 811.636 1458.95 801.78L1467.93 753.991C1470.19 741.948 1482.65 734.752 1494.22 738.815L1540.09 754.934C1549.55 758.258 1555.09 768.076 1553.04 777.893L1543.32 824.403Z" fill="#5BC8FB" stroke="black" stroke-width="30.004"/>
<path d="M1111.8 647.999L982.998 683.754L886.708 587.686L1018.13 552.633L1111.8 647.999Z" fill="#55E748"/>
<path d="M1111.8 647.999L982.998 683.754L886.708 587.686L1018.13 552.633L1111.8 647.999Z" stroke="black" stroke-width="30.004"/>
<path d="M1157.03 621.881L1252.4 528.213L1217.34 396.789L1121.28 493.079L1157.03 621.881Z" fill="#55E748"/>
<path d="M1157.03 621.881L1252.4 528.213L1217.34 396.789L1121.28 493.079L1157.03 621.881Z" stroke="black" stroke-width="30.004"/>
</g>
<defs>
<clipPath id="clip0_4368_3910">
<rect width="3000" height="3000" fill="white" transform="translate(0 8.055) rotate(-0.153839)"/>
</clipPath>
</defs>
</svg>
