<svg width="3009" height="3009" viewBox="0 0 3009 3009" fill="none" xmlns="http://www.w3.org/2000/svg">
<g clip-path="url(#clip0_4368_3913)">
<path d="M1720.53 141.324C1726.32 139.793 1732.47 141.856 1736.17 146.57C1736.45 146.939 1736.7 147.271 1736.85 147.479C1737.04 147.739 1737.09 147.799 1737.16 147.904C1741.15 153.205 1744.91 160.241 1748.5 168.299L1749.22 169.927L1749.23 169.964C1755.34 184.098 1759.19 199.544 1760.85 215.899L1760.85 215.9C1762.71 232.891 1762.04 249.249 1758.57 264.497L1758.57 264.498C1755.98 276.122 1752.57 287.032 1748.35 297.07C1748.3 297.19 1748.25 297.31 1748.19 297.429C1748 297.866 1747.3 299.497 1746.59 300.897C1746.58 300.919 1746.57 300.942 1746.56 300.965C1752.09 297.331 1757.99 295.155 1764.31 295.113C1772.75 295.056 1778.94 298.888 1782.23 301.083C1782.25 301.1 1782.28 301.116 1782.3 301.133C1786.23 303.789 1789.84 307.839 1792.2 314.508L1792.43 315.162L1792.55 315.553C1792.59 315.684 1792.63 315.816 1792.67 315.948C1795.97 327.996 1796.08 339.957 1791.61 351.36C1788.05 360.432 1782.01 368.122 1774.28 374.764C1778.38 374.446 1782.5 374.557 1786.5 375.105L1787.45 375.242L1787.79 375.299C1791.12 375.891 1794.73 376.838 1798.05 378.517C1801.2 380.107 1805.43 383.06 1807.83 388.307L1808.06 388.821L1808.07 388.866C1809.52 392.309 1813.04 401.022 1809.16 413.095C1805.57 424.249 1796.41 435.928 1779.46 448.642C1779.45 448.648 1779.44 448.654 1779.43 448.659C1773.38 453.177 1766.52 457.695 1759.04 462.103C1759.65 462.255 1760.26 462.446 1760.86 462.677C1761.41 462.892 1761.63 462.98 1761.82 463.056L1762.61 463.365L1762.86 463.462C1772.71 467.459 1779.78 474.285 1784.04 483.927C1784.17 484.201 1784.26 484.409 1784.3 484.51C1784.35 484.617 1784.39 484.72 1784.42 484.816C1784.7 485.477 1784.94 486.167 1785.12 486.882L1785.14 486.955C1785.98 490.207 1785.68 493.492 1784.5 496.385L1784.29 496.897C1783.8 498.088 1783.17 499.256 1782.42 500.396C1780.81 502.855 1778.57 505.309 1775.59 507.801C1775.3 508.061 1775.01 508.292 1774.74 508.502C1765.2 516.579 1753.2 520.132 1740.92 523.984L1740.92 523.985C1731.31 527.026 1719.88 530.639 1706.5 536.345C1706.4 536.389 1706.3 536.432 1706.19 536.473C1705.59 536.714 1704.96 536.949 1704.43 537.144C1707.29 538.374 1709.77 540.491 1711.43 543.325C1711.51 543.462 1711.58 543.588 1711.64 543.699C1711.7 543.811 1711.76 543.912 1711.81 544.001C1711.9 544.176 1711.97 544.323 1712.02 544.422C1712.37 545.112 1712.67 545.828 1712.91 546.565C1714.63 551.829 1713.37 556.418 1712.23 559.038C1711.1 561.66 1709.55 563.679 1708.42 564.983C1706.13 567.624 1703.39 569.813 1701.48 571.227C1701.46 571.243 1701.44 571.259 1701.42 571.275C1689.82 579.785 1673.23 585.338 1654.62 588.421C1654.61 588.423 1654.59 588.425 1654.58 588.428C1642.49 590.395 1630.98 589.249 1620.32 584.175C1614.4 581.36 1611 575.031 1611.91 568.542L1632.28 423.742L1632.28 423.718C1633.48 415.312 1634.01 406.964 1633.94 398.698C1633.9 396.286 1633.85 393.998 1633.74 391.777C1632.8 373.467 1628.93 355.789 1622.52 339.245C1622.51 339.226 1622.5 339.208 1622.49 339.189C1621.17 335.733 1619.7 332.32 1618.1 328.912C1618.07 328.845 1618.02 328.757 1617.97 328.657C1617.92 328.556 1617.86 328.435 1617.79 328.299C1615.26 323.053 1615.99 316.813 1619.68 312.297C1624.26 306.675 1629.03 300.968 1634.05 295.28L1634.07 295.259L1635.38 293.786C1648.98 278.322 1666.55 258.197 1678.17 240.294L1678.29 240.122C1691.53 220.329 1704.58 197.064 1708.08 165.805C1708.31 163.55 1708.82 158.332 1709.53 153.611L1709.62 153.059C1710.68 147.387 1714.92 142.807 1720.53 141.324ZM1711.79 544.001C1711.79 543.986 1711.78 543.971 1711.77 543.956C1711.77 543.948 1711.76 543.94 1711.76 543.932C1711.77 543.955 1711.78 543.978 1711.79 544.001Z" fill="#E9F6FB" stroke="black" stroke-width="30" stroke-linejoin="round"/>
<path d="M381.288 912.545C376.988 916.717 375.584 923.048 377.715 928.648C377.882 929.085 378.04 929.466 378.139 929.704C378.263 930.001 378.292 930.068 378.342 930.191C380.826 936.34 384.913 943.193 389.965 950.424L390.989 951.877L391.013 951.91C399.971 964.432 411.214 975.703 424.368 985.561L424.368 985.563C437.967 995.918 452.322 1003.79 467.175 1008.68L467.175 1008.68C478.471 1012.46 489.577 1015.16 500.352 1016.73C500.481 1016.75 500.611 1016.77 500.74 1016.78C501.216 1016.84 502.967 1017.08 504.528 1017.2C504.555 1017.2 504.583 1017.2 504.611 1017.21C498.643 1020.07 493.738 1024 490.438 1029.4C486.037 1036.59 486.126 1043.88 486.311 1047.82C486.312 1047.85 486.313 1047.88 486.315 1047.91C486.565 1052.65 488.173 1057.83 492.665 1063.29L493.109 1063.82L493.379 1064.13C493.471 1064.24 493.564 1064.34 493.658 1064.43C502.273 1073.48 512.467 1079.74 524.54 1081.8C534.145 1083.43 543.853 1082.22 553.529 1079.03C551.141 1082.38 549.112 1085.96 547.514 1089.68L547.142 1090.56L547.015 1090.88C545.808 1094.03 544.753 1097.62 544.479 1101.33C544.219 1104.84 544.566 1109.99 547.821 1114.75L548.145 1115.21L548.174 1115.25C550.379 1118.26 556.023 1125.78 568.37 1128.68C579.778 1131.36 594.504 1129.55 614.145 1121.58C614.154 1121.57 614.163 1121.57 614.171 1121.57C621.162 1118.72 628.575 1115.17 636.209 1111.03C636.023 1111.64 635.873 1112.26 635.763 1112.89C635.661 1113.47 635.623 1113.71 635.59 1113.91L635.448 1114.74L635.403 1115.01C633.744 1125.51 635.947 1135.08 642.01 1143.71C642.177 1143.96 642.307 1144.14 642.371 1144.23C642.425 1144.31 642.481 1144.38 642.531 1144.45C642.965 1145.04 643.447 1145.62 643.98 1146.16L644.033 1146.21C646.386 1148.61 649.352 1150.05 652.443 1150.53L652.986 1150.62C654.262 1150.81 655.586 1150.87 656.947 1150.82C659.885 1150.71 663.144 1150.05 666.818 1148.78C667.188 1148.67 667.533 1148.55 667.851 1148.43C679.695 1144.42 688.929 1135.97 698.569 1127.43L698.569 1127.44C706.132 1120.77 715.123 1112.85 726.912 1104.33C727.003 1104.27 727.093 1104.2 727.182 1104.13C727.698 1103.74 728.226 1103.32 728.665 1102.97C728.246 1106.05 728.78 1109.27 730.35 1112.15C730.425 1112.29 730.496 1112.42 730.56 1112.53C730.624 1112.64 730.683 1112.74 730.735 1112.82C730.838 1112.99 730.926 1113.13 730.986 1113.22C731.396 1113.88 731.855 1114.51 732.362 1115.09C735.983 1119.28 740.567 1120.57 743.395 1120.95C746.226 1121.33 748.757 1121.04 750.458 1120.75C753.901 1120.15 757.19 1118.93 759.385 1118.03C759.41 1118.02 759.435 1118.01 759.459 1118C772.733 1112.45 786.046 1101.11 798.289 1086.76C798.298 1086.75 798.307 1086.73 798.317 1086.72C806.239 1077.38 811.196 1066.93 812.35 1055.18C812.991 1048.66 809.326 1042.48 803.297 1039.91L668.748 982.653L668.726 982.643C660.908 979.332 653.482 975.479 646.437 971.156C644.389 969.88 642.459 968.652 640.611 967.414C625.411 957.162 612.264 944.727 601.402 930.696C601.389 930.68 601.377 930.665 601.365 930.649C599.087 927.731 596.922 924.712 594.826 921.586C594.787 921.522 594.735 921.438 594.676 921.343C594.616 921.246 594.543 921.132 594.461 921.005C591.274 916.127 585.55 913.537 579.782 914.361C572.601 915.386 565.25 916.531 557.787 917.897L557.76 917.901L555.825 918.259C535.56 921.933 509.255 926.603 487.921 927.324L487.716 927.332C463.934 928.462 437.278 927.64 408.701 914.523C406.663 913.559 401.912 911.297 397.49 909.459L396.969 909.254C391.562 907.238 385.453 908.503 381.288 912.545ZM730.742 1112.82C730.733 1112.8 730.723 1112.79 730.713 1112.77C730.705 1112.76 730.699 1112.74 730.69 1112.73C730.707 1112.76 730.725 1112.79 730.742 1112.82ZM594.688 921.385C594.697 921.398 594.706 921.411 594.714 921.424C594.632 921.302 594.548 921.181 594.462 921.062C594.551 921.184 594.626 921.293 594.688 921.385Z" fill="#E9F6FB" stroke="black" stroke-width="30" stroke-linejoin="round"/>
<path d="M662.164 435.434C734.871 598.021 904.079 695.157 994.134 729.567C1004.8 733.641 1016.68 732.345 1026.57 726.638L1128.59 667.736L1230.61 608.833C1240.49 603.127 1247.56 593.482 1249.36 582.212C1264.59 487.017 1265.07 291.91 1160.62 147.651C1153.11 137.276 1145.76 127.957 1138.57 119.624C1091.51 131.121 988.689 181.081 926.564 220.084L884.242 244.518L841.921 268.953C777.081 303.253 682.402 367.321 648.915 402.329C652.539 412.718 656.935 423.742 662.164 435.434Z" fill="#D6C7E4"/>
<path d="M589.166 455.631L564.03 482.682C550.393 501.816 538.163 520.797 527.984 539.681C464.482 657.488 480.822 771.538 733.584 895.791L864.567 820.168C892.121 804.26 891.064 763.741 863.856 747.246C688.31 640.824 614.498 514.089 589.166 455.631Z" fill="#D6C7E4"/>
<path d="M1250.6 86.288L1214.61 94.5311C1252.57 145.698 1325.42 272.988 1329.81 478.227C1330.49 510.037 1365.05 531.212 1392.61 515.304L1523.59 439.681C1542.36 158.656 1451.76 87.48 1317.99 83.5703C1296.55 82.9436 1273.99 84.0453 1250.6 86.288Z" fill="#D6C7E4"/>
<path d="M589.166 455.631L564.03 482.682M733.584 895.791L864.567 820.168C892.121 804.26 891.064 763.741 863.856 747.246C688.31 640.824 614.498 514.089 589.166 455.631C589.166 455.631 469.905 192.777 707.954 178.093C738.615 176.201 775.203 178.427 818.737 185.861C839.037 189.328 859.049 177.774 866.197 158.46C881.526 117.041 897.892 84.2424 914.861 58.6353C1046.6 -140.179 1214.61 94.5311 1214.61 94.5311C1252.57 145.698 1325.42 272.988 1329.81 478.227C1330.49 510.037 1365.05 531.212 1392.61 515.304L1523.59 439.681M564.03 482.682C331.082 343.307 118.081 736.165 675.808 985.499C683.633 988.998 690.564 995.059 694.85 1002.48C737.382 1076.16 762.291 1119.3 776.819 1144.46C787.863 1163.59 812.297 1170.11 831.424 1159.06L1267.05 907.555L1702.67 656.049C1721.8 645.005 1728.37 620.587 1717.33 601.459C1702.8 576.296 1677.89 533.152 1635.36 459.481C1631.07 452.058 1629.29 443.025 1630.17 434.499C1693.1 -173.174 1246.38 -185.138 1250.6 86.288M564.03 482.682C550.393 501.816 538.163 520.797 527.984 539.681M733.584 895.791L698.254 916.189C687.875 922.181 675.303 923.28 664.248 918.652C514.87 856.115 429.477 739.632 406.006 686.781C386.637 647.804 362.279 562.176 410.39 536.907C439.256 521.746 474.585 516.694 527.984 539.681M733.584 895.791C480.822 771.538 464.482 657.488 527.984 539.681M648.915 402.329C682.402 367.321 777.081 303.253 841.921 268.953L884.242 244.518L926.564 220.084C988.689 181.081 1091.51 131.121 1138.57 119.624M841.921 268.953C759.25 233.639 585.351 220.131 648.915 402.329M648.915 402.329C652.539 412.718 656.935 423.742 662.164 435.434C734.871 598.021 904.079 695.157 994.134 729.567C1004.8 733.641 1016.68 732.345 1026.57 726.638L1128.59 667.736L1230.61 608.833C1240.49 603.127 1247.56 593.482 1249.36 582.212C1264.59 487.017 1265.07 291.91 1160.62 147.651C1153.11 137.276 1145.76 127.957 1138.57 119.624M1214.61 94.5311L1250.6 86.288M1250.6 86.288C1273.99 84.0453 1296.55 82.9436 1317.99 83.5703M1523.59 439.681L1558.92 419.283C1569.3 413.291 1576.54 402.952 1578.06 391.064C1598.59 230.431 1540.41 98.236 1506.37 51.4841C1482.3 15.2222 1420.32 -48.6864 1374.39 -19.656C1346.82 -2.2378 1324.78 25.832 1317.99 83.5703M1523.59 439.681C1542.36 158.656 1451.76 87.48 1317.99 83.5703M926.564 220.084C937.317 130.832 1012.57 -26.5228 1138.57 119.624" stroke="black" stroke-width="30.004"/>
<path d="M1068.08 553.388C1068.05 557.197 1063.94 559.571 1060.62 557.696L954.182 497.512C952.615 496.625 951.645 494.965 951.643 493.165L951.5 368.743C951.495 364.889 955.669 362.479 959.005 364.41L1066.69 426.745C1068.24 427.647 1069.2 429.317 1069.18 431.117L1068.08 553.388Z" fill="#F35B5B"/>
<path d="M1068.08 553.388C1068.05 557.197 1063.94 559.571 1060.62 557.696L954.182 497.512C952.615 496.625 951.645 494.965 951.643 493.165L951.5 368.743C951.495 364.889 955.669 362.479 959.005 364.41L1066.69 426.745C1068.24 427.647 1069.2 429.317 1069.18 431.117L1068.08 553.388Z" stroke="black" stroke-width="30.004"/>
<path fill-rule="evenodd" clip-rule="evenodd" d="M564.03 482.682C331.082 343.307 118.081 736.165 675.807 985.499C683.633 988.998 690.564 995.059 694.849 1002.48C737.382 1076.16 762.291 1119.3 776.819 1144.46C787.863 1163.59 812.297 1170.11 831.425 1159.06L1267.05 907.556L1702.67 656.049C1721.8 645.006 1728.37 620.587 1717.33 601.459C1702.8 576.296 1677.89 533.152 1635.35 459.481C1631.07 452.058 1629.29 443.025 1630.17 434.499C1693.1 -173.174 1246.38 -185.138 1250.6 86.288C1273.99 84.0452 1296.55 82.9436 1317.99 83.5702C1324.78 25.832 1346.82 -2.23774 1374.39 -19.656C1420.32 -48.6864 1482.3 15.2222 1506.37 51.4841C1540.41 98.236 1598.59 230.431 1578.06 391.064C1576.54 402.952 1569.3 413.291 1558.92 419.283L1523.59 439.681L1392.61 515.304C1365.05 531.212 1330.49 510.037 1329.81 478.227C1325.42 272.988 1252.57 145.698 1214.61 94.5312C1214.61 94.5312 1046.6 -140.179 914.86 58.6353C897.892 84.2425 881.526 117.041 866.197 158.46C859.049 177.774 839.037 189.328 818.737 185.861C775.203 178.427 738.615 176.201 707.954 178.093C469.905 192.777 589.166 455.631 589.166 455.631C614.498 514.089 688.31 640.824 863.856 747.246C891.064 763.741 892.121 804.26 864.567 820.168L733.584 895.791L698.254 916.189C687.875 922.181 675.303 923.28 664.248 918.652C514.87 856.115 429.477 739.632 406.006 686.781C386.637 647.804 362.279 562.176 410.39 536.907C439.256 521.746 474.585 516.694 527.984 539.681C538.163 520.797 550.393 501.816 564.03 482.682ZM1026.57 726.638C1016.68 732.345 1004.8 733.641 994.134 729.567C904.079 695.157 734.871 598.021 662.164 435.434C656.935 423.742 652.539 412.717 648.915 402.329C585.351 220.131 759.25 233.639 841.921 268.953L884.242 244.518L926.564 220.084C937.317 130.832 1012.57 -26.5228 1138.57 119.624C1145.76 127.957 1153.11 137.276 1160.62 147.651C1265.07 291.91 1264.59 487.017 1249.36 582.212C1247.56 593.482 1240.49 603.127 1230.61 608.833L1128.59 667.736L1026.57 726.638Z" fill="#C0C0C0"/>
<path d="M589.166 455.631L564.03 482.682M733.584 895.791L864.567 820.168C892.121 804.26 891.064 763.741 863.856 747.246C688.31 640.824 614.498 514.089 589.166 455.631C589.166 455.631 469.905 192.777 707.954 178.093C738.615 176.201 775.203 178.427 818.737 185.861C839.037 189.328 859.049 177.774 866.197 158.46C881.526 117.041 897.892 84.2425 914.86 58.6353C1046.6 -140.179 1214.61 94.5312 1214.61 94.5312C1252.57 145.698 1325.42 272.988 1329.81 478.227C1330.49 510.037 1365.05 531.212 1392.61 515.304L1523.59 439.681M564.03 482.682C331.082 343.307 118.081 736.165 675.807 985.499C683.633 988.998 690.564 995.059 694.849 1002.48C737.382 1076.16 762.291 1119.3 776.819 1144.46C787.863 1163.59 812.297 1170.11 831.424 1159.06L1267.05 907.555L1702.67 656.049C1721.8 645.005 1728.37 620.587 1717.33 601.459C1702.8 576.296 1677.89 533.152 1635.35 459.481C1631.07 452.058 1629.29 443.025 1630.17 434.499C1693.1 -173.174 1246.38 -185.138 1250.6 86.288M564.03 482.682C550.393 501.816 538.163 520.797 527.984 539.681M733.584 895.791L698.254 916.189C687.875 922.181 675.303 923.28 664.248 918.652C514.87 856.115 429.477 739.632 406.006 686.781C386.637 647.804 362.279 562.176 410.39 536.907C439.256 521.746 474.585 516.694 527.984 539.681M733.584 895.791C480.822 771.538 464.482 657.488 527.984 539.681M648.915 402.329C682.402 367.321 777.081 303.253 841.921 268.953L884.242 244.518L926.564 220.084C988.689 181.081 1091.51 131.121 1138.57 119.624M841.921 268.953C759.25 233.639 585.351 220.131 648.915 402.329M648.915 402.329C652.539 412.717 656.935 423.742 662.164 435.434C734.871 598.021 904.079 695.157 994.134 729.567C1004.8 733.641 1016.68 732.345 1026.57 726.638L1128.59 667.736L1230.61 608.833C1240.49 603.127 1247.56 593.482 1249.36 582.212C1264.59 487.017 1265.07 291.91 1160.62 147.651C1153.11 137.276 1145.76 127.957 1138.57 119.624M1214.61 94.5312L1250.6 86.288M1250.6 86.288C1273.99 84.0453 1296.55 82.9436 1317.99 83.5703M1523.59 439.681L1558.92 419.283C1569.3 413.291 1576.54 402.952 1578.06 391.064C1598.59 230.431 1540.41 98.236 1506.37 51.4841C1482.3 15.2223 1420.32 -48.6864 1374.39 -19.656C1346.82 -2.23777 1324.78 25.832 1317.99 83.5703M1523.59 439.681C1542.36 158.656 1451.76 87.48 1317.99 83.5703M926.564 220.084C937.317 130.832 1012.57 -26.5228 1138.57 119.624" stroke="black" stroke-width="30.004"/>
<path d="M937.704 1007.23C935.265 1018.9 923.212 1025.86 911.88 1022.14L866.742 1007.3C857.215 1004.16 851.481 994.46 853.333 984.604L862.311 936.815C864.574 924.772 877.036 917.577 888.597 921.639L934.473 937.758C943.934 941.082 949.471 950.9 947.42 960.717L937.704 1007.23Z" fill="#5BC8FB"/>
<path d="M937.704 1007.23C935.265 1018.9 923.212 1025.86 911.88 1022.14L866.742 1007.3C857.215 1004.16 851.481 994.46 853.333 984.604L862.311 936.815C864.574 924.772 877.036 917.577 888.597 921.639L934.473 937.758C943.934 941.082 949.471 950.9 947.42 960.717L937.704 1007.23Z" stroke="black" stroke-width="30.004"/>
<path d="M1236.21 854.141L1094.21 860.886L1169.69 738.931L1313.05 734.537L1236.21 854.141Z" fill="#55E748" stroke="black" stroke-width="30.004"/>
<path d="M1543.86 657.262C1541.42 668.939 1529.37 675.898 1518.04 672.172L1472.9 657.331C1463.38 654.199 1457.64 644.495 1459.49 634.639L1468.47 586.85C1470.73 574.807 1483.2 567.612 1494.76 571.674L1540.63 587.793C1550.09 591.118 1555.63 600.935 1553.58 610.752L1543.86 657.262Z" fill="#5BC8FB"/>
<path d="M1543.86 657.262C1541.42 668.939 1529.37 675.898 1518.04 672.172L1472.9 657.331C1463.38 654.199 1457.64 644.495 1459.49 634.639L1468.47 586.85C1470.73 574.807 1483.2 567.612 1494.76 571.674L1540.63 587.793C1550.09 591.118 1555.63 600.935 1553.58 610.752L1543.86 657.262Z" stroke="black" stroke-width="30.004"/>
<path d="M749.965 775.843C752.284 779.314 749.58 783.93 745.419 783.605L653.057 776.397C651.544 776.279 650.167 775.481 649.313 774.228L596.153 696.202C593.779 692.717 596.519 688.039 600.719 688.405L694.777 696.606C696.288 696.738 697.658 697.548 698.5 698.81L749.965 775.843Z" fill="#F35B5B"/>
<path d="M749.965 775.843C752.284 779.314 749.58 783.93 745.419 783.605L653.057 776.397C651.544 776.279 650.167 775.481 649.313 774.228L596.153 696.202C593.779 692.717 596.519 688.039 600.719 688.405L694.777 696.606C696.288 696.738 697.658 697.548 698.5 698.81L749.965 775.843Z" stroke="black" stroke-width="30.004"/>
<path d="M1411.52 393.884C1413.37 397.628 1418.72 397.595 1420.52 393.828L1460.45 310.236C1461.11 308.867 1461.11 307.276 1460.45 305.91L1419.46 220.858C1417.62 217.06 1412.2 217.094 1410.42 220.915L1370.49 306.471C1369.85 307.846 1369.87 309.437 1370.54 310.798L1411.52 393.884Z" fill="#F35B5B"/>
<path d="M1411.52 393.884C1413.37 397.628 1418.72 397.595 1420.52 393.828L1460.45 310.236C1461.11 308.867 1461.11 307.276 1460.45 305.91L1419.46 220.858C1417.62 217.06 1412.2 217.094 1410.42 220.915L1370.49 306.471C1369.85 307.846 1369.87 309.437 1370.54 310.798L1411.52 393.884Z" stroke="black" stroke-width="30.004"/>
<path d="M686.957 96.5979L816.913 127.899L854.784 -0.296692L760.313 -98.1548L735.919 -12.388L649.445 -34.1455L686.957 96.5979Z" fill="#55E748" stroke="black" stroke-width="30"/>
</g>
<defs>
<clipPath id="clip0_4368_3913">
<rect width="3000" height="3000" fill="white" transform="translate(0 8.055) rotate(-0.153839)"/>
</clipPath>
</defs>
</svg>
