<svg width="3009" height="3009" viewBox="0 0 3009 3009" fill="none" xmlns="http://www.w3.org/2000/svg">
<g clip-path="url(#clip0_4368_3907)">
<path d="M653.372 392.915C726.079 555.501 895.287 652.637 985.342 687.047C996.004 691.121 1007.89 689.826 1017.77 684.119L1119.8 625.216L1221.82 566.314C1231.7 560.607 1238.77 550.963 1240.57 539.692C1255.8 444.497 1256.28 249.391 1151.83 105.131C1144.32 94.7564 1136.97 85.4371 1129.78 77.1045C1082.72 88.6012 979.897 138.561 917.772 177.564L875.45 201.999L833.129 226.433C768.289 260.734 673.61 324.801 640.123 359.81C643.747 370.198 648.143 381.222 653.372 392.915Z" fill="#D6C7E4"/>
<path d="M580.374 413.111L555.238 440.162C541.601 459.297 529.371 478.277 519.192 497.161C455.69 614.968 472.03 729.018 724.792 853.272L855.775 777.649C883.329 761.74 882.272 721.221 855.064 704.727C679.518 598.305 605.706 471.57 580.374 413.111Z" fill="#D6C7E4"/>
<path d="M1241.81 43.7685L1205.82 52.0116C1243.78 103.179 1316.63 230.469 1321.02 435.708C1321.7 467.517 1356.26 488.693 1383.82 472.784L1514.8 397.161C1533.57 116.137 1442.97 44.9605 1309.2 41.0508C1287.75 40.424 1265.2 41.5258 1241.81 43.7685Z" fill="#D6C7E4"/>
<path d="M580.374 413.111L555.238 440.162M724.792 853.272L855.775 777.649C883.329 761.74 882.272 721.221 855.064 704.727C679.518 598.305 605.706 471.57 580.374 413.111C580.374 413.111 461.113 150.258 699.162 135.573C729.823 133.682 766.411 135.907 809.944 143.342C830.244 146.808 850.257 135.254 857.405 115.94C872.733 74.5219 889.1 41.7229 906.068 16.1157C1037.81 -182.699 1205.82 52.0116 1205.82 52.0116C1243.78 103.179 1316.63 230.469 1321.02 435.708C1321.7 467.517 1356.26 488.693 1383.82 472.784L1514.8 397.161M555.238 440.162C322.29 300.788 109.289 693.646 667.015 942.98C674.841 946.478 681.772 952.539 686.057 959.963C728.59 1033.64 753.499 1076.78 768.027 1101.94C779.071 1121.07 803.505 1127.59 822.632 1116.54L1258.26 865.036L1693.88 613.529C1713.01 602.486 1719.58 578.067 1708.54 558.939C1694.01 533.776 1669.1 490.633 1626.56 416.962C1622.28 409.538 1620.49 400.506 1621.38 391.979C1684.31 -215.693 1237.58 -227.658 1241.81 43.7685M555.238 440.162C541.601 459.297 529.371 478.277 519.192 497.161M724.792 853.272L689.462 873.669C679.083 879.662 666.511 880.76 655.456 876.132C506.078 813.595 420.684 697.112 397.214 644.261C377.845 605.284 353.487 519.656 401.597 494.388C430.464 479.227 465.793 474.174 519.192 497.161M724.792 853.272C472.03 729.018 455.69 614.968 519.192 497.161M640.123 359.81C673.61 324.801 768.289 260.734 833.129 226.433L875.45 201.999L917.772 177.564C979.897 138.561 1082.72 88.6012 1129.78 77.1045M833.129 226.433C750.458 191.12 576.559 177.612 640.123 359.81M640.123 359.81C643.747 370.198 648.143 381.222 653.372 392.915C726.079 555.501 895.287 652.637 985.342 687.047C996.004 691.121 1007.89 689.826 1017.77 684.119L1119.8 625.216L1221.82 566.314C1231.7 560.607 1238.77 550.963 1240.57 539.692C1255.8 444.497 1256.28 249.391 1151.83 105.131C1144.32 94.7563 1136.97 85.4371 1129.78 77.1045M1205.82 52.0116L1241.81 43.7685M1241.81 43.7685C1265.2 41.5257 1287.75 40.4241 1309.2 41.0508M1514.8 397.161L1550.13 376.764C1560.51 370.771 1567.75 360.433 1569.26 348.544C1589.79 187.911 1531.61 55.7165 1497.58 8.96458C1473.51 -27.2973 1411.53 -91.206 1365.59 -62.1756C1338.03 -44.7573 1315.99 -16.6875 1309.2 41.0508M1514.8 397.161C1533.57 116.137 1442.97 44.9605 1309.2 41.0508M917.772 177.564C928.525 88.3123 1003.78 -69.0423 1129.78 77.1045" stroke="black" stroke-width="30.004"/>
<path fill-rule="evenodd" clip-rule="evenodd" d="M555.238 440.162C322.29 300.788 109.289 693.646 667.015 942.98C674.841 946.478 681.772 952.539 686.057 959.963C728.59 1033.64 753.499 1076.78 768.027 1101.94C779.071 1121.07 803.505 1127.59 822.632 1116.54L1258.26 865.036L1693.88 613.529C1713 602.486 1719.58 578.067 1708.54 558.94C1694.01 533.776 1669.1 490.633 1626.56 416.962C1622.28 409.538 1620.49 400.505 1621.38 391.979C1684.31 -215.693 1237.58 -227.658 1241.81 43.7685C1265.2 41.5257 1287.75 40.424 1309.2 41.0507C1315.99 -16.6875 1338.03 -44.7573 1365.59 -62.1755C1411.53 -91.2059 1473.51 -27.2973 1497.58 8.96456C1531.61 55.7165 1589.79 187.911 1569.26 348.544C1567.74 360.433 1560.51 370.771 1550.13 376.764L1514.8 397.161L1383.82 472.784C1356.26 488.693 1321.7 467.517 1321.02 435.708C1316.63 230.469 1243.78 103.179 1205.82 52.0117C1205.82 52.0117 1037.81 -182.698 906.068 16.1158C889.1 41.7229 872.733 74.5219 857.405 115.94C850.257 135.254 830.244 146.808 809.944 143.342C766.411 135.907 729.823 133.682 699.162 135.573C461.113 150.258 580.374 413.111 580.374 413.111C605.706 471.57 679.518 598.305 855.064 704.727C882.272 721.221 883.329 761.74 855.775 777.648L724.792 853.271L689.462 873.669C679.083 879.662 666.511 880.76 655.456 876.132C506.078 813.595 420.684 697.112 397.213 644.261C377.845 605.284 353.487 519.656 401.597 494.388C430.464 479.226 465.793 474.174 519.192 497.161C529.371 478.277 541.601 459.297 555.238 440.162ZM1017.77 684.119C1007.89 689.826 996.004 691.121 985.342 687.047C895.287 652.637 726.079 555.501 653.372 392.915C648.143 381.222 643.747 370.198 640.123 359.81C576.559 177.612 750.458 191.12 833.129 226.433L875.45 201.999L917.772 177.564C928.525 88.3123 1003.78 -69.0423 1129.78 77.1045C1136.97 85.4371 1144.32 94.7563 1151.83 105.131C1256.28 249.391 1255.8 444.497 1240.57 539.692C1238.77 550.963 1231.7 560.607 1221.82 566.314L1119.8 625.216L1017.77 684.119Z" fill="#C0C0C0"/>
<path d="M580.374 413.111L555.238 440.162M724.792 853.271L855.775 777.648C883.329 761.74 882.272 721.221 855.064 704.727C679.518 598.305 605.706 471.57 580.374 413.111C580.374 413.111 461.113 150.258 699.162 135.573C729.823 133.682 766.411 135.907 809.944 143.342C830.244 146.808 850.257 135.254 857.405 115.94C872.733 74.5219 889.1 41.7229 906.068 16.1158C1037.81 -182.698 1205.82 52.0116 1205.82 52.0116C1243.78 103.179 1316.63 230.469 1321.02 435.708C1321.7 467.517 1356.26 488.693 1383.82 472.784L1514.8 397.161M555.238 440.162C322.29 300.788 109.289 693.646 667.015 942.98C674.841 946.478 681.772 952.539 686.057 959.963C728.59 1033.64 753.499 1076.78 768.027 1101.94C779.071 1121.07 803.505 1127.59 822.632 1116.54L1258.26 865.036L1693.88 613.529C1713 602.486 1719.58 578.067 1708.54 558.94C1694.01 533.776 1669.1 490.633 1626.56 416.962C1622.28 409.538 1620.49 400.505 1621.38 391.979C1684.31 -215.693 1237.58 -227.658 1241.81 43.7685M555.238 440.162C541.601 459.297 529.371 478.277 519.192 497.161M724.792 853.271L689.462 873.669C679.083 879.662 666.511 880.76 655.456 876.132C506.078 813.595 420.684 697.112 397.213 644.261C377.845 605.284 353.487 519.656 401.597 494.388C430.464 479.226 465.793 474.174 519.192 497.161M724.792 853.271C472.03 729.018 455.69 614.968 519.192 497.161M640.123 359.81C673.61 324.801 768.288 260.734 833.129 226.433L875.45 201.999L917.772 177.564C979.897 138.561 1082.72 88.6012 1129.78 77.1046M833.129 226.433C750.458 191.12 576.559 177.612 640.123 359.81M640.123 359.81C643.747 370.198 648.143 381.222 653.372 392.915C726.079 555.501 895.287 652.637 985.342 687.047C996.004 691.121 1007.89 689.826 1017.77 684.119L1119.8 625.216L1221.82 566.314C1231.7 560.607 1238.77 550.963 1240.57 539.692C1255.8 444.497 1256.28 249.391 1151.83 105.131C1144.32 94.7563 1136.97 85.4371 1129.78 77.1046M1205.82 52.0116L1241.81 43.7685M1241.81 43.7685C1265.2 41.5257 1287.75 40.424 1309.2 41.0507M1514.8 397.161L1550.13 376.764C1560.51 370.771 1567.74 360.433 1569.26 348.544C1589.79 187.911 1531.61 55.7165 1497.58 8.96459C1473.51 -27.2973 1411.53 -91.2059 1365.59 -62.1755C1338.03 -44.7573 1315.99 -16.6875 1309.2 41.0507M1514.8 397.161C1533.57 116.137 1442.97 44.9604 1309.2 41.0507M917.772 177.564C928.525 88.3123 1003.78 -69.0423 1129.78 77.1046" stroke="black" stroke-width="30.004"/>
<path d="M1052.05 507.465L935.688 441.672L935.531 305.653L1053.25 373.798L1052.05 507.465Z" fill="#5BC8FB" stroke="black" stroke-width="30.004"/>
</g>
<defs>
<clipPath id="clip0_4368_3907">
<rect width="3000" height="3000" fill="white" transform="translate(0 8.055) rotate(-0.153839)"/>
</clipPath>
</defs>
</svg>
