<svg width="3009" height="3009" viewBox="0 0 3009 3009" fill="none" xmlns="http://www.w3.org/2000/svg">
<g clip-path="url(#clip0_4368_3910)">
<path d="M656.976 397.833C729.684 560.419 898.892 657.555 988.947 691.965C999.609 696.039 1011.49 694.744 1021.38 689.037L1123.4 630.134L1225.42 571.232C1235.31 565.525 1242.37 555.881 1244.17 544.61C1259.4 449.415 1259.88 254.309 1155.43 110.049C1147.92 99.6743 1140.57 90.3551 1133.39 82.0225C1086.33 93.5192 983.502 143.479 921.377 182.482L879.055 206.917L836.733 231.351C771.893 265.652 677.215 329.719 643.727 364.728C647.351 375.116 651.747 386.14 656.976 397.833Z" fill="#D6C7E4"/>
<path d="M583.979 418.029L558.843 445.08C545.206 464.215 532.975 483.195 522.796 502.079C459.295 619.886 475.635 733.936 728.397 858.189L859.38 782.566C886.934 766.658 885.876 726.139 858.669 709.645C683.122 603.223 609.311 476.488 583.979 418.029Z" fill="#D6C7E4"/>
<path d="M1245.42 48.6865L1209.42 56.9295C1247.38 108.097 1320.23 235.387 1324.62 440.626C1325.3 472.435 1359.87 493.611 1387.42 477.702L1518.4 402.079C1537.18 121.054 1446.58 49.8784 1312.8 45.9687C1291.36 45.342 1268.81 46.4437 1245.42 48.6865Z" fill="#D6C7E4"/>
<path d="M583.979 418.029L558.843 445.08M728.397 858.19L859.38 782.566C886.934 766.658 885.876 726.139 858.669 709.645C683.122 603.223 609.311 476.488 583.979 418.029C583.979 418.029 464.717 155.176 702.767 140.491C733.427 138.6 770.015 140.825 813.549 148.26C833.849 151.726 853.862 140.172 861.01 120.858C876.338 79.4398 892.705 46.6408 909.673 21.0337C1041.41 -177.781 1209.42 56.9296 1209.42 56.9296C1247.38 108.097 1320.23 235.387 1324.62 440.626C1325.3 472.435 1359.87 493.611 1387.42 477.702L1518.4 402.079M558.843 445.08C325.895 305.706 112.893 698.564 670.62 947.898C678.445 951.396 685.376 957.457 689.662 964.881C732.195 1038.55 757.104 1081.7 771.632 1106.86C782.675 1125.99 807.11 1132.5 826.237 1121.46L1261.86 869.954L1697.48 618.447C1716.61 607.404 1723.18 582.985 1712.14 563.857C1697.61 538.694 1672.7 495.551 1630.17 421.88C1625.88 414.456 1624.1 405.423 1624.98 396.897C1687.91 -210.775 1241.19 -222.74 1245.42 48.6865M558.843 445.08C545.206 464.215 532.975 483.195 522.796 502.079M728.397 858.19L693.067 878.587C682.688 884.58 670.115 885.678 659.06 881.05C509.683 818.513 424.289 702.03 400.818 649.179C381.45 610.202 357.092 524.574 405.202 499.306C434.068 484.144 469.397 479.092 522.796 502.079M728.397 858.19C475.635 733.936 459.295 619.886 522.796 502.079M643.727 364.728C677.215 329.719 771.893 265.652 836.733 231.351L879.055 206.917L921.377 182.482C983.502 143.479 1086.33 93.5192 1133.39 82.0225M836.733 231.351C754.062 196.038 580.163 182.53 643.727 364.728M643.727 364.728C647.351 375.116 651.747 386.14 656.976 397.833C729.684 560.419 898.892 657.555 988.947 691.965C999.609 696.039 1011.49 694.744 1021.38 689.037L1123.4 630.134L1225.42 571.232C1235.31 565.525 1242.37 555.881 1244.17 544.61C1259.4 449.415 1259.88 254.309 1155.43 110.049C1147.92 99.6743 1140.57 90.3551 1133.39 82.0225M1209.42 56.9296L1245.42 48.6865M1245.42 48.6865C1268.81 46.4437 1291.36 45.342 1312.8 45.9687M1518.4 402.079L1553.73 381.682C1564.11 375.689 1571.35 365.35 1572.87 353.462C1593.4 192.829 1535.22 60.6345 1501.18 13.8825C1477.11 -22.3793 1415.14 -86.288 1369.2 -57.2576C1341.63 -39.8394 1319.59 -11.7696 1312.8 45.9687M1518.4 402.079C1537.18 121.055 1446.58 49.8784 1312.8 45.9687M921.377 182.482C932.13 93.2302 1007.38 -64.1243 1133.39 82.0225" stroke="black" stroke-width="30.004"/>
<path fill-rule="evenodd" clip-rule="evenodd" d="M558.843 445.08C325.894 305.706 112.893 698.564 670.62 947.898C678.445 951.396 685.376 957.457 689.662 964.881C732.195 1038.55 757.104 1081.7 771.632 1106.86C782.675 1125.99 807.11 1132.5 826.237 1121.46L1261.86 869.954L1697.48 618.447C1716.61 607.404 1723.18 582.985 1712.14 563.858C1697.61 538.694 1672.7 495.551 1630.17 421.88C1625.88 414.456 1624.1 405.423 1624.98 396.897C1687.91 -210.775 1241.19 -222.74 1245.42 48.6865C1268.81 46.4437 1291.36 45.342 1312.8 45.9687C1319.59 -11.7696 1341.63 -39.8394 1369.2 -57.2575C1415.14 -86.2879 1477.11 -22.3793 1501.18 13.8825C1535.22 60.6344 1593.4 192.829 1572.87 353.462C1571.35 365.351 1564.11 375.689 1553.73 381.682L1518.4 402.079L1387.42 477.702C1359.87 493.611 1325.3 472.435 1324.62 440.626C1320.23 235.387 1247.38 108.097 1209.42 56.9296C1209.42 56.9296 1041.41 -177.78 909.673 21.0338C892.705 46.6409 876.338 79.4398 861.01 120.858C853.862 140.172 833.849 151.726 813.549 148.26C770.015 140.825 733.427 138.6 702.767 140.491C464.717 155.176 583.979 418.029 583.979 418.029C609.31 476.488 683.122 603.223 858.669 709.645C885.876 726.139 886.934 766.658 859.38 782.566L728.397 858.19L693.067 878.587C682.688 884.58 670.115 885.678 659.06 881.05C509.683 818.513 424.289 702.03 400.818 649.179C381.45 610.202 357.092 524.574 405.202 499.306C434.068 484.144 469.397 479.092 522.796 502.079C532.975 483.195 545.206 464.215 558.843 445.08ZM1021.38 689.037C1011.49 694.744 999.609 696.039 988.947 691.965C898.892 657.555 729.684 560.419 656.976 397.833C651.747 386.14 647.351 375.116 643.727 364.728C580.163 182.53 754.062 196.038 836.733 231.351L879.055 206.917L921.377 182.482C932.13 93.2303 1007.38 -64.1243 1133.39 82.0225C1140.57 90.3551 1147.92 99.6742 1155.43 110.049C1259.88 254.309 1259.4 449.415 1244.17 544.61C1242.37 555.881 1235.31 565.525 1225.42 571.232L1123.4 630.134L1021.38 689.037Z" fill="#C0C0C0"/>
<path d="M583.979 418.029L558.843 445.08M728.397 858.189L859.38 782.566C886.934 766.658 885.876 726.139 858.669 709.645C683.122 603.223 609.31 476.488 583.979 418.029C583.979 418.029 464.717 155.176 702.767 140.491C733.427 138.6 770.015 140.825 813.549 148.26C833.849 151.726 853.862 140.172 861.01 120.858C876.338 79.4398 892.705 46.6409 909.673 21.0338C1041.41 -177.781 1209.42 56.9296 1209.42 56.9296C1247.38 108.097 1320.23 235.387 1324.62 440.626C1325.3 472.435 1359.87 493.611 1387.42 477.702L1518.4 402.079M558.843 445.08C325.894 305.706 112.893 698.564 670.62 947.898C678.445 951.396 685.376 957.457 689.662 964.881C732.195 1038.55 757.104 1081.7 771.632 1106.86C782.675 1125.99 807.11 1132.5 826.237 1121.46L1261.86 869.954L1697.48 618.447C1716.61 607.404 1723.18 582.985 1712.14 563.858C1697.61 538.694 1672.7 495.551 1630.17 421.88C1625.88 414.456 1624.1 405.423 1624.98 396.897C1687.91 -210.775 1241.19 -222.74 1245.42 48.6864M558.843 445.08C545.206 464.215 532.975 483.195 522.796 502.079M728.397 858.189L693.067 878.587C682.688 884.58 670.115 885.678 659.06 881.05C509.683 818.513 424.289 702.03 400.818 649.179C381.45 610.202 357.092 524.574 405.202 499.306C434.068 484.144 469.397 479.092 522.796 502.079M728.397 858.189C475.635 733.936 459.295 619.886 522.796 502.079M643.727 364.728C677.215 329.719 771.893 265.652 836.733 231.351L879.055 206.917L921.377 182.482C983.502 143.479 1086.33 93.5192 1133.39 82.0225M836.733 231.351C754.062 196.038 580.163 182.53 643.727 364.728M643.727 364.728C647.351 375.116 651.747 386.14 656.976 397.833C729.684 560.419 898.892 657.555 988.947 691.965C999.609 696.039 1011.49 694.744 1021.38 689.037L1123.4 630.134L1225.42 571.232C1235.31 565.525 1242.37 555.881 1244.17 544.61C1259.4 449.415 1259.88 254.309 1155.43 110.049C1147.92 99.6743 1140.57 90.3551 1133.39 82.0225M1209.42 56.9296L1245.42 48.6864M1245.42 48.6864C1268.81 46.4437 1291.36 45.342 1312.8 45.9687M1518.4 402.079L1553.73 381.682C1564.11 375.689 1571.35 365.351 1572.87 353.462C1593.4 192.829 1535.22 60.6345 1501.18 13.8825C1477.11 -22.3793 1415.14 -86.288 1369.2 -57.2576C1341.63 -39.8393 1319.59 -11.7696 1312.8 45.9687M1518.4 402.079C1537.18 121.055 1446.58 49.8784 1312.8 45.9687M921.377 182.482C932.13 93.2302 1007.38 -64.1243 1133.39 82.0225" stroke="black" stroke-width="30.004"/>
<path d="M811.725 90.2972L695.365 24.5037L695.209 -111.515L812.926 -43.3699L811.725 90.2972Z" fill="#55E748"/>
<path d="M811.725 90.2972L695.365 24.5037L695.209 -111.515L812.926 -43.3699L811.725 90.2972Z" stroke="black" stroke-width="30.004"/>
<path d="M1023.87 916.884C1021.43 928.56 1009.38 935.519 998.046 931.793L952.908 916.952C943.381 913.82 937.647 904.116 939.499 894.26L948.477 846.471C950.74 834.428 963.202 827.233 974.763 831.295L1020.64 847.414C1030.1 850.739 1035.64 860.556 1033.59 870.373L1023.87 916.884Z" fill="#5BC8FB" stroke="black" stroke-width="30.004"/>
<path d="M1447.32 672.403C1444.88 684.08 1432.83 691.039 1421.5 687.313L1376.36 672.472C1366.83 669.339 1361.1 659.636 1362.95 649.78L1371.93 601.991C1374.19 589.948 1386.65 582.752 1398.22 586.815L1444.09 602.934C1453.55 606.258 1459.09 616.076 1457.04 625.893L1447.32 672.403Z" fill="#5BC8FB" stroke="black" stroke-width="30.004"/>
<path d="M1015.8 495.999L886.998 531.754L790.708 435.686L922.132 400.633L1015.8 495.999Z" fill="#55E748"/>
<path d="M1015.8 495.999L886.998 531.754L790.708 435.686L922.132 400.633L1015.8 495.999Z" stroke="black" stroke-width="30.004"/>
<path d="M1061.03 469.881L1156.4 376.213L1121.34 244.789L1025.28 341.079L1061.03 469.881Z" fill="#55E748"/>
<path d="M1061.03 469.881L1156.4 376.213L1121.34 244.789L1025.28 341.079L1061.03 469.881Z" stroke="black" stroke-width="30.004"/>
</g>
<defs>
<clipPath id="clip0_4368_3910">
<rect width="3000" height="3000" fill="white" transform="translate(0 8.055) rotate(-0.153839)"/>
</clipPath>
</defs>
</svg>
