<svg width="3009" height="3009" viewBox="0 0 3009 3009" fill="none" xmlns="http://www.w3.org/2000/svg"><g clip-path="url(#clip0_4368_3913)"><path d="M1720.53 141.32C1726.32 139.79 1732.47 141.86 1736.17 146.57C1736.45 146.94 1736.7 147.27 1736.85 147.48C1737.04 147.74 1737.09 147.8 1737.16 147.9C1741.15 153.21 1744.91 160.24 1748.5 168.3L1749.22 169.93L1749.23 169.96C1755.34 184.1 1759.19 199.54 1760.85 215.9L1760.85 215.9C1762.71 232.89 1762.04 249.25 1758.57 264.5L1758.57 264.5C1755.98 276.12 1752.57 287.03 1748.35 297.07C1748.3 297.19 1748.25 297.31 1748.19 297.43C1748 297.87 1747.3 299.5 1746.59 300.9C1746.58 300.92 1746.57 300.94 1746.56 300.96C1752.09 297.33 1757.99 295.15 1764.31 295.11C1772.75 295.06 1778.94 298.89 1782.23 301.08C1782.25 301.1 1782.28 301.12 1782.3 301.13C1786.23 303.79 1789.84 307.84 1792.2 314.51L1792.43 315.16L1792.55 315.55C1792.59 315.68 1792.63 315.82 1792.67 315.95C1795.97 328 1796.08 339.96 1791.61 351.36C1788.05 360.43 1782.01 368.12 1774.28 374.76C1778.38 374.45 1782.5 374.56 1786.5 375.11L1787.45 375.24L1787.79 375.3C1791.12 375.89 1794.73 376.84 1798.05 378.52C1801.2 380.11 1805.43 383.06 1807.83 388.31L1808.06 388.82L1808.07 388.87C1809.52 392.31 1813.04 401.02 1809.16 413.1C1805.57 424.25 1796.41 435.93 1779.46 448.64C1779.45 448.65 1779.44 448.65 1779.43 448.66C1773.38 453.18 1766.52 457.69 1759.04 462.1C1759.65 462.25 1760.26 462.45 1760.86 462.68C1761.41 462.89 1761.63 462.98 1761.82 463.06L1762.61 463.37L1762.86 463.46C1772.71 467.46 1779.78 474.29 1784.04 483.93C1784.17 484.2 1784.26 484.41 1784.3 484.51C1784.35 484.62 1784.39 484.72 1784.42 484.82C1784.7 485.48 1784.94 486.17 1785.12 486.88L1785.14 486.95C1785.98 490.21 1785.68 493.49 1784.5 496.38L1784.29 496.9C1783.8 498.09 1783.17 499.26 1782.42 500.4C1780.81 502.86 1778.57 505.31 1775.59 507.8C1775.3 508.06 1775.01 508.29 1774.74 508.5C1765.2 516.58 1753.2 520.13 1740.92 523.98L1740.92 523.99C1731.31 527.03 1719.88 530.64 1706.5 536.35C1706.4 536.39 1706.3 536.43 1706.19 536.47C1705.59 536.71 1704.96 536.95 1704.43 537.14C1707.29 538.37 1709.77 540.49 1711.43 543.33C1711.51 543.46 1711.58 543.59 1711.64 543.7C1711.7 543.81 1711.76 543.91 1711.81 544C1711.9 544.18 1711.97 544.32 1712.02 544.42C1712.37 545.11 1712.67 545.83 1712.91 546.57C1714.63 551.83 1713.37 556.42 1712.23 559.04C1711.1 561.66 1709.55 563.68 1708.42 564.98C1706.13 567.62 1703.39 569.81 1701.48 571.23C1701.46 571.24 1701.44 571.26 1701.42 571.27C1689.82 579.78 1673.23 585.34 1654.62 588.42C1654.61 588.42 1654.59 588.42 1654.58 588.43C1642.49 590.39 1630.98 589.25 1620.32 584.17C1614.4 581.36 1611 575.03 1611.91 568.54L1632.28 423.74L1632.28 423.72C1633.48 415.31 1634.01 406.96 1633.94 398.7C1633.9 396.29 1633.85 394 1633.74 391.78C1632.8 373.47 1628.93 355.79 1622.52 339.25C1622.51 339.23 1622.5 339.21 1622.49 339.19C1621.17 335.73 1619.7 332.32 1618.1 328.91C1618.07 328.85 1618.02 328.76 1617.97 328.66C1617.92 328.56 1617.86 328.44 1617.79 328.3C1615.26 323.05 1615.99 316.81 1619.68 312.3C1624.26 306.68 1629.03 300.97 1634.05 295.28L1634.07 295.26L1635.38 293.79C1648.98 278.32 1666.55 258.2 1678.17 240.29L1678.29 240.12C1691.53 220.33 1704.58 197.06 1708.08 165.81C1708.31 163.55 1708.82 158.33 1709.53 153.61L1709.62 153.06C1710.68 147.39 1714.92 142.81 1720.53 141.32ZM1711.79 544C1711.79 543.99 1711.78 543.97 1711.77 543.96C1711.77 543.95 1711.76 543.94 1711.76 543.93C1711.77 543.96 1711.78 543.98 1711.79 544Z" fill="#E9F6FB" stroke="black" stroke-width="30" stroke-linejoin="round"/><path d="M381.29 912.54C376.99 916.72 375.58 923.05 377.71 928.65C377.88 929.09 378.04 929.47 378.14 929.7C378.26 930 378.29 930.07 378.34 930.19C380.83 936.34 384.91 943.19 389.96 950.42L390.99 951.88L391.01 951.91C399.97 964.43 411.21 975.7 424.37 985.56L424.37 985.56C437.97 995.92 452.32 1003.79 467.18 1008.68L467.18 1008.68C478.47 1012.46 489.58 1015.16 500.35 1016.73C500.48 1016.75 500.61 1016.77 500.74 1016.78C501.22 1016.84 502.97 1017.08 504.53 1017.2C504.56 1017.2 504.58 1017.2 504.61 1017.21C498.64 1020.07 493.74 1024 490.44 1029.4C486.04 1036.59 486.13 1043.88 486.31 1047.82C486.31 1047.85 486.31 1047.88 486.31 1047.91C486.56 1052.65 488.17 1057.83 492.67 1063.29L493.11 1063.82L493.38 1064.13C493.47 1064.24 493.56 1064.34 493.66 1064.43C502.27 1073.48 512.47 1079.74 524.54 1081.8C534.14 1083.43 543.85 1082.22 553.53 1079.03C551.14 1082.38 549.11 1085.96 547.51 1089.68L547.14 1090.56L547.01 1090.88C545.81 1094.03 544.75 1097.62 544.48 1101.33C544.22 1104.84 544.57 1109.99 547.82 1114.75L548.14 1115.21L548.17 1115.25C550.38 1118.26 556.02 1125.78 568.37 1128.68C579.78 1131.36 594.5 1129.55 614.14 1121.58C614.15 1121.57 614.16 1121.57 614.17 1121.57C621.16 1118.72 628.58 1115.17 636.21 1111.03C636.02 1111.64 635.87 1112.26 635.76 1112.89C635.66 1113.47 635.62 1113.71 635.59 1113.91L635.45 1114.74L635.4 1115.01C633.74 1125.51 635.95 1135.08 642.01 1143.71C642.18 1143.96 642.31 1144.14 642.37 1144.23C642.42 1144.31 642.48 1144.38 642.53 1144.45C642.97 1145.04 643.45 1145.62 643.98 1146.16L644.03 1146.21C646.39 1148.61 649.35 1150.05 652.44 1150.53L652.99 1150.62C654.26 1150.81 655.59 1150.87 656.95 1150.82C659.88 1150.71 663.14 1150.05 666.82 1148.78C667.19 1148.67 667.53 1148.55 667.85 1148.43C679.7 1144.42 688.93 1135.97 698.57 1127.43L698.57 1127.44C706.13 1120.77 715.12 1112.85 726.91 1104.33C727 1104.27 727.09 1104.2 727.18 1104.13C727.7 1103.74 728.23 1103.32 728.66 1102.97C728.25 1106.05 728.78 1109.27 730.35 1112.15C730.42 1112.29 730.5 1112.42 730.56 1112.53C730.62 1112.64 730.68 1112.74 730.74 1112.82C730.84 1112.99 730.93 1113.13 730.99 1113.22C731.4 1113.88 731.86 1114.51 732.36 1115.09C735.98 1119.28 740.57 1120.57 743.39 1120.95C746.23 1121.33 748.76 1121.04 750.46 1120.75C753.9 1120.15 757.19 1118.93 759.38 1118.03C759.41 1118.02 759.43 1118.01 759.46 1118C772.73 1112.45 786.05 1101.11 798.29 1086.76C798.3 1086.75 798.31 1086.73 798.32 1086.72C806.24 1077.38 811.2 1066.93 812.35 1055.18C812.99 1048.66 809.33 1042.48 803.3 1039.91L668.75 982.65L668.73 982.64C660.91 979.33 653.48 975.48 646.44 971.16C644.39 969.88 642.46 968.65 640.61 967.41C625.41 957.16 612.26 944.73 601.4 930.7C601.39 930.68 601.38 930.66 601.37 930.65C599.09 927.73 596.92 924.71 594.83 921.59C594.79 921.52 594.74 921.44 594.68 921.34C594.62 921.25 594.54 921.13 594.46 921C591.27 916.13 585.55 913.54 579.78 914.36C572.6 915.39 565.25 916.53 557.79 917.9L557.76 917.9L555.83 918.26C535.56 921.93 509.25 926.6 487.92 927.32L487.72 927.33C463.93 928.46 437.28 927.64 408.7 914.52C406.66 913.56 401.91 911.3 397.49 909.46L396.97 909.25C391.56 907.24 385.45 908.5 381.29 912.54ZM730.74 1112.82C730.73 1112.8 730.72 1112.79 730.71 1112.77C730.71 1112.76 730.7 1112.74 730.69 1112.73C730.71 1112.76 730.73 1112.79 730.74 1112.82ZM594.69 921.38C594.7 921.4 594.71 921.41 594.71 921.42C594.63 921.3 594.55 921.18 594.46 921.06C594.55 921.18 594.63 921.29 594.69 921.38Z" fill="#E9F6FB" stroke="black" stroke-width="30" stroke-linejoin="round"/><path d="M662.16 435.43C734.87 598.02 904.08 695.16 994.13 729.57C1004.8 733.64 1016.68 732.35 1026.57 726.64L1128.59 667.74L1230.61 608.83C1240.49 603.13 1247.56 593.48 1249.36 582.21C1264.59 487.02 1265.07 291.91 1160.62 147.65C1153.11 137.28 1145.76 127.96 1138.57 119.62C1091.51 131.12 988.69 181.08 926.56 220.08L884.24 244.52L841.92 268.95C777.08 303.25 682.4 367.32 648.91 402.33C652.54 412.72 656.93 423.74 662.16 435.43Z" fill="#D6C7E4"/><path d="M589.17 455.63L564.03 482.68C550.39 501.82 538.16 520.8 527.98 539.68C464.48 657.49 480.82 771.54 733.58 895.79L864.57 820.17C892.12 804.26 891.06 763.74 863.86 747.25C688.31 640.82 614.5 514.09 589.17 455.63Z" fill="#D6C7E4"/><path d="M1250.6 86.29L1214.61 94.53C1252.57 145.7 1325.42 272.99 1329.81 478.23C1330.49 510.04 1365.05 531.21 1392.61 515.3L1523.59 439.68C1542.36 158.66 1451.76 87.48 1317.99 83.57C1296.55 82.94 1273.99 84.05 1250.6 86.29Z" fill="#D6C7E4"/><path d="M589.17 455.63L564.03 482.68M733.58 895.79L864.57 820.17C892.12 804.26 891.06 763.74 863.86 747.25C688.31 640.82 614.5 514.09 589.17 455.63C589.17 455.63 469.9 192.78 707.95 178.09C738.62 176.2 775.2 178.43 818.74 185.86C839.04 189.33 859.05 177.77 866.2 158.46C881.53 117.04 897.89 84.24 914.86 58.64C1046.6 -140.18 1214.61 94.53 1214.61 94.53C1252.57 145.7 1325.42 272.99 1329.81 478.23C1330.49 510.04 1365.05 531.21 1392.61 515.3L1523.59 439.68M564.03 482.68C331.08 343.31 118.08 736.16 675.81 985.5C683.63 989 690.56 995.06 694.85 1002.48C737.38 1076.16 762.29 1119.3 776.82 1144.46C787.86 1163.59 812.3 1170.11 831.42 1159.06L1267.05 907.55L1702.67 656.05C1721.8 645 1728.37 620.59 1717.33 601.46C1702.8 576.3 1677.89 533.15 1635.36 459.48C1631.07 452.06 1629.29 443.02 1630.17 434.5C1693.1 -173.17 1246.38 -185.14 1250.6 86.29M564.03 482.68C550.39 501.82 538.16 520.8 527.98 539.68M733.58 895.79L698.25 916.19C687.88 922.18 675.3 923.28 664.25 918.65C514.87 856.12 429.48 739.63 406.01 686.78C386.64 647.8 362.28 562.18 410.39 536.91C439.26 521.75 474.58 516.69 527.98 539.68M733.58 895.79C480.82 771.54 464.48 657.49 527.98 539.68M648.91 402.33C682.4 367.32 777.08 303.25 841.92 268.95L884.24 244.52L926.56 220.08C988.69 181.08 1091.51 131.12 1138.57 119.62M841.92 268.95C759.25 233.64 585.35 220.13 648.91 402.33M648.91 402.33C652.54 412.72 656.93 423.74 662.16 435.43C734.87 598.02 904.08 695.16 994.13 729.57C1004.8 733.64 1016.68 732.35 1026.57 726.64L1128.59 667.74L1230.61 608.83C1240.49 603.13 1247.56 593.48 1249.36 582.21C1264.59 487.02 1265.07 291.91 1160.62 147.65C1153.11 137.28 1145.76 127.96 1138.57 119.62M1214.61 94.53L1250.6 86.29M1250.6 86.29C1273.99 84.05 1296.55 82.94 1317.99 83.57M1523.59 439.68L1558.92 419.28C1569.3 413.29 1576.54 402.95 1578.06 391.06C1598.59 230.43 1540.41 98.24 1506.37 51.48C1482.3 15.22 1420.32 -48.69 1374.39 -19.66C1346.82 -2.24 1324.78 25.83 1317.99 83.57M1523.59 439.68C1542.36 158.66 1451.76 87.48 1317.99 83.57M926.56 220.08C937.32 130.83 1012.57 -26.52 1138.57 119.62" stroke="black" stroke-width="30"/><path d="M1068.08 553.39C1068.05 557.2 1063.94 559.57 1060.62 557.7L954.18 497.51C952.62 496.63 951.64 494.96 951.64 493.17L951.5 368.74C951.5 364.89 955.67 362.48 959 364.41L1066.69 426.75C1068.24 427.65 1069.2 429.32 1069.18 431.12L1068.08 553.39Z" fill="#F35B5B"/><path d="M1068.08 553.39C1068.05 557.2 1063.94 559.57 1060.62 557.7L954.18 497.51C952.62 496.63 951.64 494.96 951.64 493.17L951.5 368.74C951.5 364.89 955.67 362.48 959 364.41L1066.69 426.75C1068.24 427.65 1069.2 429.32 1069.18 431.12L1068.08 553.39Z" stroke="black" stroke-width="30"/><path fill-rule="evenodd" clip-rule="evenodd" d="M564.03 482.68C331.08 343.31 118.08 736.16 675.81 985.5C683.63 989 690.56 995.06 694.85 1002.48C737.38 1076.16 762.29 1119.3 776.82 1144.46C787.86 1163.59 812.3 1170.11 831.42 1159.06L1267.05 907.56L1702.67 656.05C1721.8 645.01 1728.37 620.59 1717.33 601.46C1702.8 576.3 1677.89 533.15 1635.35 459.48C1631.07 452.06 1629.29 443.02 1630.17 434.5C1693.1 -173.17 1246.38 -185.14 1250.6 86.29C1273.99 84.05 1296.55 82.94 1317.99 83.57C1324.78 25.83 1346.82 -2.24 1374.39 -19.66C1420.32 -48.69 1482.3 15.22 1506.37 51.48C1540.41 98.24 1598.59 230.43 1578.06 391.06C1576.54 402.95 1569.3 413.29 1558.92 419.28L1523.59 439.68L1392.61 515.3C1365.05 531.21 1330.49 510.04 1329.81 478.23C1325.42 272.99 1252.57 145.7 1214.61 94.53C1214.61 94.53 1046.6 -140.18 914.86 58.64C897.89 84.24 881.53 117.04 866.2 158.46C859.05 177.77 839.04 189.33 818.74 185.86C775.2 178.43 738.62 176.2 707.95 178.09C469.9 192.78 589.17 455.63 589.17 455.63C614.5 514.09 688.31 640.82 863.86 747.25C891.06 763.74 892.12 804.26 864.57 820.17L733.58 895.79L698.25 916.19C687.88 922.18 675.3 923.28 664.25 918.65C514.87 856.12 429.48 739.63 406.01 686.78C386.64 647.8 362.28 562.18 410.39 536.91C439.26 521.75 474.58 516.69 527.98 539.68C538.16 520.8 550.39 501.82 564.03 482.68ZM1026.57 726.64C1016.68 732.35 1004.8 733.64 994.13 729.57C904.08 695.16 734.87 598.02 662.16 435.43C656.93 423.74 652.54 412.72 648.91 402.33C585.35 220.13 759.25 233.64 841.92 268.95L884.24 244.52L926.56 220.08C937.32 130.83 1012.57 -26.52 1138.57 119.62C1145.76 127.96 1153.11 137.28 1160.62 147.65C1265.07 291.91 1264.59 487.02 1249.36 582.21C1247.56 593.48 1240.49 603.13 1230.61 608.83L1128.59 667.74L1026.57 726.64Z" fill="#C0C0C0"/><path d="M589.17 455.63L564.03 482.68M733.58 895.79L864.57 820.17C892.12 804.26 891.06 763.74 863.86 747.25C688.31 640.82 614.5 514.09 589.17 455.63C589.17 455.63 469.9 192.78 707.95 178.09C738.62 176.2 775.2 178.43 818.74 185.86C839.04 189.33 859.05 177.77 866.2 158.46C881.53 117.04 897.89 84.24 914.86 58.64C1046.6 -140.18 1214.61 94.53 1214.61 94.53C1252.57 145.7 1325.42 272.99 1329.81 478.23C1330.49 510.04 1365.05 531.21 1392.61 515.3L1523.59 439.68M564.03 482.68C331.08 343.31 118.08 736.16 675.81 985.5C683.63 989 690.56 995.06 694.85 1002.48C737.38 1076.16 762.29 1119.3 776.82 1144.46C787.86 1163.59 812.3 1170.11 831.42 1159.06L1267.05 907.55L1702.67 656.05C1721.8 645 1728.37 620.59 1717.33 601.46C1702.8 576.3 1677.89 533.15 1635.35 459.48C1631.07 452.06 1629.29 443.02 1630.17 434.5C1693.1 -173.17 1246.38 -185.14 1250.6 86.29M564.03 482.68C550.39 501.82 538.16 520.8 527.98 539.68M733.58 895.79L698.25 916.19C687.88 922.18 675.3 923.28 664.25 918.65C514.87 856.12 429.48 739.63 406.01 686.78C386.64 647.8 362.28 562.18 410.39 536.91C439.26 521.75 474.58 516.69 527.98 539.68M733.58 895.79C480.82 771.54 464.48 657.49 527.98 539.68M648.91 402.33C682.4 367.32 777.08 303.25 841.92 268.95L884.24 244.52L926.56 220.08C988.69 181.08 1091.51 131.12 1138.57 119.62M841.92 268.95C759.25 233.64 585.35 220.13 648.91 402.33M648.91 402.33C652.54 412.72 656.93 423.74 662.16 435.43C734.87 598.02 904.08 695.16 994.13 729.57C1004.8 733.64 1016.68 732.35 1026.57 726.64L1128.59 667.74L1230.61 608.83C1240.49 603.13 1247.56 593.48 1249.36 582.21C1264.59 487.02 1265.07 291.91 1160.62 147.65C1153.11 137.28 1145.76 127.96 1138.57 119.62M1214.61 94.53L1250.6 86.29M1250.6 86.29C1273.99 84.05 1296.55 82.94 1317.99 83.57M1523.59 439.68L1558.92 419.28C1569.3 413.29 1576.54 402.95 1578.06 391.06C1598.59 230.43 1540.41 98.24 1506.37 51.48C1482.3 15.22 1420.32 -48.69 1374.39 -19.66C1346.82 -2.24 1324.78 25.83 1317.99 83.57M1523.59 439.68C1542.36 158.66 1451.76 87.48 1317.99 83.57M926.56 220.08C937.32 130.83 1012.57 -26.52 1138.57 119.62" stroke="black" stroke-width="30"/><path d="M937.7 1007.23C935.26 1018.9 923.21 1025.86 911.88 1022.14L866.74 1007.3C857.22 1004.16 851.48 994.46 853.33 984.6L862.31 936.82C864.57 924.77 877.04 917.58 888.6 921.64L934.47 937.76C943.93 941.08 949.47 950.9 947.42 960.72L937.7 1007.23Z" fill="#5BC8FB"/><path d="M937.7 1007.23C935.26 1018.9 923.21 1025.86 911.88 1022.14L866.74 1007.3C857.22 1004.16 851.48 994.46 853.33 984.6L862.31 936.82C864.57 924.77 877.04 917.58 888.6 921.64L934.47 937.76C943.93 941.08 949.47 950.9 947.42 960.72L937.7 1007.23Z" stroke="black" stroke-width="30"/><path d="M1236.21 854.14L1094.21 860.89L1169.69 738.93L1313.05 734.54L1236.21 854.14Z" fill="#55E748" stroke="black" stroke-width="30"/><path d="M1543.86 657.26C1541.42 668.94 1529.37 675.9 1518.04 672.17L1472.9 657.33C1463.38 654.2 1457.64 644.5 1459.49 634.64L1468.47 586.85C1470.73 574.81 1483.2 567.61 1494.76 571.67L1540.63 587.79C1550.09 591.12 1555.63 600.93 1553.58 610.75L1543.86 657.26Z" fill="#5BC8FB"/><path d="M1543.86 657.26C1541.42 668.94 1529.37 675.9 1518.04 672.17L1472.9 657.33C1463.38 654.2 1457.64 644.5 1459.49 634.64L1468.47 586.85C1470.73 574.81 1483.2 567.61 1494.76 571.67L1540.63 587.79C1550.09 591.12 1555.63 600.93 1553.58 610.75L1543.86 657.26Z" stroke="black" stroke-width="30"/><path d="M749.97 775.84C752.28 779.31 749.58 783.93 745.42 783.61L653.06 776.4C651.54 776.28 650.17 775.48 649.31 774.23L596.15 696.2C593.78 692.72 596.52 688.04 600.72 688.4L694.78 696.61C696.29 696.74 697.66 697.55 698.5 698.81L749.97 775.84Z" fill="#F35B5B"/><path d="M749.97 775.84C752.28 779.31 749.58 783.93 745.42 783.61L653.06 776.4C651.54 776.28 650.17 775.48 649.31 774.23L596.15 696.2C593.78 692.72 596.52 688.04 600.72 688.4L694.78 696.61C696.29 696.74 697.66 697.55 698.5 698.81L749.97 775.84Z" stroke="black" stroke-width="30"/><path d="M1411.52 393.88C1413.37 397.63 1418.72 397.6 1420.52 393.83L1460.45 310.24C1461.11 308.87 1461.11 307.28 1460.45 305.91L1419.46 220.86C1417.62 217.06 1412.2 217.09 1410.42 220.91L1370.49 306.47C1369.85 307.85 1369.87 309.44 1370.54 310.8L1411.52 393.88Z" fill="#F35B5B"/><path d="M1411.52 393.88C1413.37 397.63 1418.72 397.6 1420.52 393.83L1460.45 310.24C1461.11 308.87 1461.11 307.28 1460.45 305.91L1419.46 220.86C1417.62 217.06 1412.2 217.09 1410.42 220.91L1370.49 306.47C1369.85 307.85 1369.87 309.44 1370.54 310.8L1411.52 393.88Z" stroke="black" stroke-width="30"/><path d="M686.96 96.6L816.91 127.9L854.78 -.3L760.31 -98.15L735.92 -12.39L649.45 -34.15L686.96 96.6Z" fill="#55E748" stroke="black" stroke-width="30"/></g><defs><clipPath id="clip0_4368_3913"><rect width="3000" height="3000" fill="white" transform="translate(0 8.05) rotate(-.15)"/></clipPath></defs></svg>