<svg width="3009" height="3009" viewBox="0 0 3009 3009" fill="none" xmlns="http://www.w3.org/2000/svg"><g clip-path="url(#clip0_4368_3907)"><path d="M653.37 392.92C726.08 555.5 895.29 652.64 985.34 687.05C996 691.12 1007.89 689.83 1017.77 684.12L1119.8 625.22L1221.82 566.31C1231.7 560.61 1238.77 550.96 1240.57 539.69C1255.8 444.5 1256.28 249.39 1151.83 105.13C1144.32 94.76 1136.97 85.44 1129.78 77.1C1082.72 88.6 979.9 138.56 917.77 177.56L875.45 202L833.13 226.43C768.29 260.73 673.61 324.8 640.12 359.81C643.75 370.2 648.14 381.22 653.37 392.92Z" fill="#D6C7E4"/><path d="M580.37 413.11L555.24 440.16C541.6 459.3 529.37 478.28 519.19 497.16C455.69 614.97 472.03 729.02 724.79 853.27L855.77 777.65C883.33 761.74 882.27 721.22 855.06 704.73C679.52 598.3 605.71 471.57 580.37 413.11Z" fill="#D6C7E4"/><path d="M1241.81 43.77L1205.82 52.01C1243.78 103.18 1316.63 230.47 1321.02 435.71C1321.7 467.52 1356.26 488.69 1383.82 472.78L1514.8 397.16C1533.57 116.14 1442.97 44.96 1309.2 41.05C1287.75 40.42 1265.2 41.53 1241.81 43.77Z" fill="#D6C7E4"/><path d="M580.37 413.11L555.24 440.16M724.79 853.27L855.77 777.65C883.33 761.74 882.27 721.22 855.06 704.73C679.52 598.3 605.71 471.57 580.37 413.11C580.37 413.11 461.11 150.26 699.16 135.57C729.82 133.68 766.41 135.91 809.94 143.34C830.24 146.81 850.26 135.25 857.4 115.94C872.73 74.52 889.1 41.72 906.07 16.12C1037.81 -182.7 1205.82 52.01 1205.82 52.01C1243.78 103.18 1316.63 230.47 1321.02 435.71C1321.7 467.52 1356.26 488.69 1383.82 472.78L1514.8 397.16M555.24 440.16C322.29 300.79 109.29 693.65 667.01 942.98C674.84 946.48 681.77 952.54 686.06 959.96C728.59 1033.64 753.5 1076.78 768.03 1101.94C779.07 1121.07 803.5 1127.59 822.63 1116.54L1258.26 865.04L1693.88 613.53C1713.01 602.49 1719.58 578.07 1708.54 558.94C1694.01 533.78 1669.1 490.63 1626.56 416.96C1622.28 409.54 1620.49 400.51 1621.38 391.98C1684.31 -215.69 1237.58 -227.66 1241.81 43.77M555.24 440.16C541.6 459.3 529.37 478.28 519.19 497.16M724.79 853.27L689.46 873.67C679.08 879.66 666.51 880.76 655.46 876.13C506.08 813.6 420.68 697.11 397.21 644.26C377.85 605.28 353.49 519.66 401.6 494.39C430.46 479.23 465.79 474.17 519.19 497.16M724.79 853.27C472.03 729.02 455.69 614.97 519.19 497.16M640.12 359.81C673.61 324.8 768.29 260.73 833.13 226.43L875.45 202L917.77 177.56C979.9 138.56 1082.72 88.6 1129.78 77.1M833.13 226.43C750.46 191.12 576.56 177.61 640.12 359.81M640.12 359.81C643.75 370.2 648.14 381.22 653.37 392.92C726.08 555.5 895.29 652.64 985.34 687.05C996 691.12 1007.89 689.83 1017.77 684.12L1119.8 625.22L1221.82 566.31C1231.7 560.61 1238.77 550.96 1240.57 539.69C1255.8 444.5 1256.28 249.39 1151.83 105.13C1144.32 94.76 1136.97 85.44 1129.78 77.1M1205.82 52.01L1241.81 43.77M1241.81 43.77C1265.2 41.53 1287.75 40.42 1309.2 41.05M1514.8 397.16L1550.13 376.76C1560.51 370.77 1567.75 360.43 1569.26 348.54C1589.79 187.91 1531.61 55.72 1497.58 8.96C1473.51 -27.3 1411.53 -91.21 1365.59 -62.18C1338.03 -44.76 1315.99 -16.69 1309.2 41.05M1514.8 397.16C1533.57 116.14 1442.97 44.96 1309.2 41.05M917.77 177.56C928.52 88.31 1003.78 -69.04 1129.78 77.1" stroke="black" stroke-width="30"/><path fill-rule="evenodd" clip-rule="evenodd" d="M555.24 440.16C322.29 300.79 109.29 693.65 667.01 942.98C674.84 946.48 681.77 952.54 686.06 959.96C728.59 1033.64 753.5 1076.78 768.03 1101.94C779.07 1121.07 803.5 1127.59 822.63 1116.54L1258.26 865.04L1693.88 613.53C1713 602.49 1719.58 578.07 1708.54 558.94C1694.01 533.78 1669.1 490.63 1626.56 416.96C1622.28 409.54 1620.49 400.5 1621.38 391.98C1684.31 -215.69 1237.58 -227.66 1241.81 43.77C1265.2 41.53 1287.75 40.42 1309.2 41.05C1315.99 -16.69 1338.03 -44.76 1365.59 -62.18C1411.53 -91.21 1473.51 -27.3 1497.58 8.96C1531.61 55.72 1589.79 187.91 1569.26 348.54C1567.74 360.43 1560.51 370.77 1550.13 376.76L1514.8 397.16L1383.82 472.78C1356.26 488.69 1321.7 467.52 1321.02 435.71C1316.63 230.47 1243.78 103.18 1205.82 52.01C1205.82 52.01 1037.81 -182.7 906.07 16.12C889.1 41.72 872.73 74.52 857.4 115.94C850.26 135.25 830.24 146.81 809.94 143.34C766.41 135.91 729.82 133.68 699.16 135.57C461.11 150.26 580.37 413.11 580.37 413.11C605.71 471.57 679.52 598.3 855.06 704.73C882.27 721.22 883.33 761.74 855.77 777.65L724.79 853.27L689.46 873.67C679.08 879.66 666.51 880.76 655.46 876.13C506.08 813.6 420.68 697.11 397.21 644.26C377.85 605.28 353.49 519.66 401.6 494.39C430.46 479.23 465.79 474.17 519.19 497.16C529.37 478.28 541.6 459.3 555.24 440.16ZM1017.77 684.12C1007.89 689.83 996 691.12 985.34 687.05C895.29 652.64 726.08 555.5 653.37 392.92C648.14 381.22 643.75 370.2 640.12 359.81C576.56 177.61 750.46 191.12 833.13 226.43L875.45 202L917.77 177.56C928.52 88.31 1003.78 -69.04 1129.78 77.1C1136.97 85.44 1144.32 94.76 1151.83 105.13C1256.28 249.39 1255.8 444.5 1240.57 539.69C1238.77 550.96 1231.7 560.61 1221.82 566.31L1119.8 625.22L1017.77 684.12Z" fill="#C0C0C0"/><path d="M580.37 413.11L555.24 440.16M724.79 853.27L855.77 777.65C883.33 761.74 882.27 721.22 855.06 704.73C679.52 598.3 605.71 471.57 580.37 413.11C580.37 413.11 461.11 150.26 699.16 135.57C729.82 133.68 766.41 135.91 809.94 143.34C830.24 146.81 850.26 135.25 857.4 115.94C872.73 74.52 889.1 41.72 906.07 16.12C1037.81 -182.7 1205.82 52.01 1205.82 52.01C1243.78 103.18 1316.63 230.47 1321.02 435.71C1321.7 467.52 1356.26 488.69 1383.82 472.78L1514.8 397.16M555.24 440.16C322.29 300.79 109.29 693.65 667.01 942.98C674.84 946.48 681.77 952.54 686.06 959.96C728.59 1033.64 753.5 1076.78 768.03 1101.94C779.07 1121.07 803.5 1127.59 822.63 1116.54L1258.26 865.04L1693.88 613.53C1713 602.49 1719.58 578.07 1708.54 558.94C1694.01 533.78 1669.1 490.63 1626.56 416.96C1622.28 409.54 1620.49 400.5 1621.38 391.98C1684.31 -215.69 1237.58 -227.66 1241.81 43.77M555.24 440.16C541.6 459.3 529.37 478.28 519.19 497.16M724.79 853.27L689.46 873.67C679.08 879.66 666.51 880.76 655.46 876.13C506.08 813.6 420.68 697.11 397.21 644.26C377.85 605.28 353.49 519.66 401.6 494.39C430.46 479.23 465.79 474.17 519.19 497.16M724.79 853.27C472.03 729.02 455.69 614.97 519.19 497.16M640.12 359.81C673.61 324.8 768.29 260.73 833.13 226.43L875.45 202L917.77 177.56C979.9 138.56 1082.72 88.6 1129.78 77.1M833.13 226.43C750.46 191.12 576.56 177.61 640.12 359.81M640.12 359.81C643.75 370.2 648.14 381.22 653.37 392.92C726.08 555.5 895.29 652.64 985.34 687.05C996 691.12 1007.89 689.83 1017.77 684.12L1119.8 625.22L1221.82 566.31C1231.7 560.61 1238.77 550.96 1240.57 539.69C1255.8 444.5 1256.28 249.39 1151.83 105.13C1144.32 94.76 1136.97 85.44 1129.78 77.1M1205.82 52.01L1241.81 43.77M1241.81 43.77C1265.2 41.53 1287.75 40.42 1309.2 41.05M1514.8 397.16L1550.13 376.76C1560.51 370.77 1567.74 360.43 1569.26 348.54C1589.79 187.91 1531.61 55.72 1497.58 8.96C1473.51 -27.3 1411.53 -91.21 1365.59 -62.18C1338.03 -44.76 1315.99 -16.69 1309.2 41.05M1514.8 397.16C1533.57 116.14 1442.97 44.96 1309.2 41.05M917.77 177.56C928.52 88.31 1003.78 -69.04 1129.78 77.1" stroke="black" stroke-width="30"/><path d="M1052.05 507.46L935.69 441.67L935.53 305.65L1053.25 373.8L1052.05 507.46Z" fill="#5BC8FB" stroke="black" stroke-width="30"/></g><defs><clipPath id="clip0_4368_3907"><rect width="3000" height="3000" fill="white" transform="translate(0 8.05) rotate(-.15)"/></clipPath></defs></svg>