<svg xmlns="http://www.w3.org/2000/svg"><symbol id="default" viewBox="0 0 3000 3000"><g transform="matrix(2.92, 0, 0, 2.92, 698.6,402.35)"><g transform="matrix(1, 0, 0, 1, 0, 0)"><g><g id="santa-hat-default-HATS_7_Layer0_0_FILL"><path fill="#ffffff" d="M-59.9,47.8c-.3-.6-.7-1.1-1.1-1.6c.5-.3,1.1-.7,1.6-1.1c4.7-3.5,7.5-8.3,8.5-14.4 c.9-5.1-.5-11.1-4-17.8c-.2-.3-.3-.6-.5-.9c-3.1-4-7.1-6.6-12-7.6c-5.6-1.1-10.7,.1-15.3,3.6C-83,7.9-83,8-83,8 c-.5,.4-.9,.7-1.3,1.1c-.3-.6-.7-1.2-1-1.8c-3.3-5.1-7.7-8.3-13.2-9.4c-5.6-1.2-10.7,0-15.4,3.5 c-4.7,3.5-7.5,8.3-8.5,14.4c-1,6.1,.1,11.7,3.3,16.8c.3,.6,.7,1.1,1.1,1.7c-.5,.3-1.1,.7-1.6,1.1c-1,.8-2,1.6-2.8,2.5 c-3,3.2-4.9,7.1-5.7,11.8c-1,6.1,.1,11.8,3.4,16.9c3.3,5.1,7.7,8.3,13.2,9.4c4.3,.9,8.4,.4,12.2-1.5c1.1-.6,2.2-1.2,3.2-2.1 c.5-.4,1-.8,1.5-1.2c.3,.6,.7,1.1,1,1.7c3.2,5.2,7.7,8.3,13.2,9.5c5.6,1.2,10.8,0,15.5-3.5c4.7-3.5,7.5-8.3,8.5-14.4 c.4-2.5,.5-5,.1-7.4C-56.9,54-58.1,50.8-59.9,47.8 M261.5,34.2c-1.3-2.1-2.9-3.9-4.6-5.4c-2.7-2.4-5.9-3.9-9.5-4.7 c-3-.7-5.9-.7-8.7-.2c-2.8,.6-5.4,1.7-8,3.3c-2.6,1.7-4.7,3.7-6.3,6.1c-.8-.3-1.6-.6-2.6-.9c-6.1-1.5-11.8-.6-17,2.7 c-5.3,3.2-8.6,7.8-10,13.8c-.2,.8-.3,1.4-.3,2c-.7-.2-1.4-.4-2.1-.6c-6.1-1.6-11.9-.8-17.2,2.3 c-5.2,3.2-8.6,7.8-9.9,13.8c-.2,.7-.4,1.4-.4,2c-.7-.1-1.4-.3-1.9-.6c-6.1-1.5-11.8-.6-17.1,2.7 c-5.2,3.3-8.4,8-9.6,14.2c-.2,.8-.3,1.5-.3,2.1c-.7-.1-1.4-.3-2-.6c-5.9-1.3-11.4,0-16.4,3.7c-4.9,3.7-7.9,8.8-9,15.3 c-.1,.8-.2,1.6-.2,2.2c-.6-.1-1.2-.2-1.8-.4c-5.8-1-11,.6-15.8,4.7c-4.7,4.1-7.5,9.5-8.4,16.3 c-.2,.9-.2,1.6-.2,2.2c-.7-.1-1.3-.2-1.8-.3c-5.6-.8-10.8,.9-15.4,5.2c-4.6,4.3-7.3,9.9-8.1,16.7 c-.1,.9-.2,1.6-.2,2.2c-.6,0-1.2-.2-1.8-.4c-5.6-.7-10.7,1-15.4,5.2c-4.6,4.3-7.4,9.8-8.3,16.4 c-.2,1.3-.2,2.5-.2,3.6c-2.9,.8-5.8,2.3-8.5,4.5c-1.1,.9-2.1,1.9-3,3c-3,3.5-4.9,7.8-5.7,12.9c-.6,3.9-.3,7.7,.6,11.3 c.6,2.3,1.6,4.5,3,6.6c3.4,5.5,8,8.7,13.9,9.8c5.8,1.1,11.1-.3,15.9-4.3c2.6-2.3,4.6-5.1,6.1-8.2c.9,.3,1.9,.5,2.9,.7 c5.7,.9,10.9-.8,15.5-5.1c4.6-4.3,7.3-9.9,8.1-16.8c.1-.7,.1-1.5,.2-2.3c.6,.2,1.2,.3,1.8,.4c5.6,.8,10.7-1,15.3-5.4 c4.5-4.4,7.2-10,8-16.8c.1-.7,.2-1.5,.3-2.2c.5,.2,1.1,.3,1.8,.4c5.7,.8,10.8-.9,15.5-5.1c4.7-4.1,7.5-9.5,8.6-16 c.1-.8,.2-1.5,.2-2.2c.6,.2,1.2,.4,1.9,.5c5.8,.9,11.1-.5,16.1-4.2c5-3.7,8.1-8.6,9.3-14.8c.1-.7,.2-1.3,.4-2 c.6,.2,1.2,.4,1.9,.5c6,1.4,11.6,.4,16.9-2.9c5.2-3.2,8.6-7.8,9.9-13.9c.1-.6,.2-1.3,.3-2c.6,.3,1.3,.5,2,.6 c6.1,1.6,11.9,.8,17.3-2.2c5.3-3.1,8.6-7.7,10.1-13.7c.1-.7,.2-1.3,.4-2c.6,.3,1.2,.5,2,.7c6.1,1.6,11.9,.8,17.3-2.3 c5.3-3.1,8.6-7.8,9.9-13.9c.2-.9,.3-1.8,.4-2.7c2.9-.4,5.6-1.4,8.2-3c5.1-3.4,8.3-8.3,9.5-14.6 C266.1,45.6,264.9,39.7,261.5,34.2z"></path><path fill="#c75151" d="M230.7,27.3c2.6-1.7,5.2-2.8,8-3.3C144.9-34.6,46.9-38.3-55,12.9c3.6,6.7,4.9,12.7,4,17.8 c-1,6.1-3.8,10.9-8.5,14.4c-.5,.4-1.1,.8-1.6,1.1c.4,.5,.8,1,1.1,1.6c1.9,3,3.1,6.2,3.5,9.5c46,6.4,71.3,49.5,75.7,129.2 c.9-1.1,1.9-2.1,3-3c2.7-2.2,5.6-3.7,8.5-4.5c0-1.1,.1-2.3,.2-3.6c.9-6.7,3.7-12.1,8.3-16.4c4.7-4.2,9.8-5.9,15.4-5.2 c.6,.2,1.2,.3,1.8,.4c0-.6,.1-1.4,.2-2.2c.9-6.8,3.6-12.4,8.1-16.7c4.6-4.3,9.8-6,15.4-5.2c.6,.1,1.2,.2,1.8,.3 c0-.6,0-1.3,.2-2.2c.9-6.8,3.7-12.2,8.4-16.3c4.7-4.1,10-5.7,15.8-4.7c.6,.2,1.2,.3,1.8,.4c0-.6,.1-1.3,.2-2.2 c1.1-6.5,4.1-11.6,9-15.3c5-3.7,10.5-5,16.4-3.7c.6,.3,1.3,.5,2,.6c0-.6,.1-1.3,.3-2.1c1.2-6.2,4.4-11,9.6-14.2 c5.2-3.3,10.9-4.2,17.1-2.7c.6,.2,1.2,.4,1.9,.6c0-.6,.1-1.2,.4-2c1.4-6,4.7-10.6,9.9-13.8c5.4-3.1,11.1-3.9,17.2-2.3 c.6,.2,1.3,.4,2.1,.6c0-.5,.1-1.2,.3-2c1.4-6,4.7-10.6,10-13.8c5.3-3.2,10.9-4.1,17-2.7c.9,.3,1.8,.6,2.6,.9 C226.1,31,228.2,29,230.7,27.3z"></path></g></g><g><path d="M35,232.6c-1.6,0-3.1-.2-4.7-.5c-7.3-1.4-13.1-5.4-17.2-12c-1.7-2.5-2.9-5.2-3.6-8c-1.2-4.3-1.4-8.8-.8-13.3 c0,0,0,0,0-.1c.8-5.2,2.7-9.9,5.5-13.8c-2.3-38-9.5-67.6-21.5-88c-5.9-10.1-13.1-18.1-21.4-23.8c-6.7-4.7-14.3-7.9-22.7-9.8 c-.1,.7-.2,1.5-.3,2.2c-1.2,7.4-4.7,13.4-10.4,17.6c-5.9,4.4-12.4,5.9-19.5,4.4c-5.9-1.2-10.8-4.2-14.5-9 c-.4,.2-.7,.4-1.1,.6c0,0,0,0-.1,0c-4.8,2.4-10,3.1-15.5,1.9c-6.9-1.4-12.4-5.4-16.5-11.7c-3.9-6.2-5.3-13-4.1-20.4 c1-5.7,3.3-10.6,7-14.5c0,0,0,0,0,0c.5-.5,.9-.9,1.4-1.4c-2.9-5.6-3.9-11.7-2.8-18.1c1.2-7.4,4.7-13.3,10.5-17.6 c5.8-4.4,12.4-5.9,19.4-4.4c5.9,1.2,10.8,4.2,14.6,9c5.1-2.9,10.6-3.8,16.5-2.6c5.1,1.1,9.5,3.5,13,7.2c24.5-12,49-21,73.1-26.7 c25.3-6,50.7-8.6,75.5-7.7c24.8,.9,49.7,5.4,74,13.3c23.7,7.7,47.5,18.9,70.7,33.2c2.8-.3,5.7-.1,8.7,.5 c4.4,.9,8.3,2.9,11.7,5.8c2.1,1.8,4,4,5.5,6.5c0,0,0,0,0,0c4,6.5,5.4,13.6,4.2,21.2c0,0,0,.1,0,.1 c-1.5,7.7-5.4,13.7-11.6,17.9c0,0,0,0-.1,0c-2.1,1.3-4.2,2.3-6.5,3c-1.7,7.4-5.7,13-12.1,16.8c0,0,0,0,0,0 c-5.7,3.3-11.8,4.4-18.1,3.4c-2.1,5.9-5.9,10.6-11.5,13.9c0,0-.1,0-.1,0c-5.7,3.2-11.7,4.3-18,3.3c-2,6-5.8,10.7-11.3,14.1 c-5.5,3.5-11.4,4.8-17.6,4.1c-1.8,6.1-5.3,11.2-10.5,15c-5.2,3.9-10.8,5.7-16.8,5.4c-1.6,6.5-4.8,11.9-9.7,16.2 c-4.9,4.4-10.4,6.6-16.4,6.6c-1.3,6.7-4.4,12.4-9.1,17c0,0,0,0-.1,.1c-4.8,4.6-10.3,6.9-16.2,6.9c0,0,0,0,0,0 c-1.3,6.9-4.4,12.6-9.2,17.2c0,0,0,0-.1,.1c-5.7,5.2-12.1,7.3-19.2,6.4c-1.5,2.3-3.3,4.4-5.3,6.3c0,0-.1,.1-.1,.1 C45.6,230.6,40.5,232.6,35,232.6z M18.5,200.2c-.5,3.2-.3,6.3,.5,9.2c0,0,0,.1,0,.1c.5,1.8,1.2,3.5,2.3,5 c0,.1,.1,.1,.1,.2c2.6,4.2,6.1,6.7,10.6,7.6c0,0,0,0,0,0c4.4,.8,8.1-.2,11.7-3.2c2.1-1.8,3.6-4,4.8-6.5 c1-2.3,3.7-3.5,6.1-2.7c.7,.2,1.4,.4,2.2,.5c4.2,.6,7.8-.6,11.3-3.8c3.7-3.5,5.8-8,6.5-13.7c.1-.7,.1-1.4,.2-2.2 c.1-1.5,1-2.9,2.3-3.8c1.3-.8,2.9-1,4.4-.5c.1,0,.2,.1,.4,.1c.1,0,.3,0,.4,0c4.1,.6,7.7-.7,11.2-4 c3.7-3.6,5.8-8.1,6.6-13.8c0-.1,0-.2,0-.3c.1-.6,.2-1.2,.2-1.8c.1-1.6,1-3,2.3-3.8c1.3-.8,3-1,4.4-.4c0,0,.1,0,.3,0 c.1,0,.3,0,.4,0c4.2,.6,7.9-.7,11.5-3.9c0,0,0,0,0,0c3.8-3.3,6-7.6,7-12.9c.1-.8,.2-1.5,.3-2.3c.2-1.5,1.1-2.8,2.3-3.6 c1.3-.8,2.9-.9,4.3-.4c.3,.1,.7,.2,1.1,.3c4.4,.7,8.4-.4,12.2-3.3c0,0,0,0,0,0c4-2.9,6.4-6.8,7.4-11.8 c.1-.6,.2-1.2,.3-1.8c.2-1.5,1.1-2.8,2.4-3.5c1.3-.8,2.8-.9,4.2-.4c.3,.1,.6,.2,.9,.2c.1,0,.3,0,.4,.1 c4.7,1.1,8.9,.4,13-2.2c0,0,.1,0,.1,0c4.1-2.5,6.6-6,7.7-10.7c.1-.5,.2-1.1,.3-1.6c.2-1.6,1.2-2.9,2.5-3.7 c1.4-.8,3-.8,4.5-.2c.2,.1,.5,.2,.9,.2c.1,0,.2,0,.3,.1c4.8,1.2,9.3,.7,13.6-1.7c4-2.4,6.5-5.7,7.6-10.3 c.1-.7,.3-1.5,.5-2.2c.4-1.5,1.4-2.7,2.7-3.3c1.4-.6,2.9-.6,4.3,0c.2,.1,.5,.2,.9,.3c0,0,.1,0,.1,0 c4.9,1.2,9.3,.7,13.5-1.8c4-2.4,6.5-5.9,7.5-10.7c0,0,0-.1,0-.1c.1-.6,.2-1.3,.3-1.9c.2-2.4,2-4.3,4.4-4.6 c2.1-.3,4.1-1,6-2.3c4-2.7,6.4-6.4,7.3-11.3c.8-5.2-.1-9.8-2.8-14.2c-1.1-1.7-2.3-3.1-3.6-4.3c-2.1-1.8-4.5-3-7.3-3.6 c0,0,0,0,0,0c-2.3-.5-4.5-.6-6.6-.2c-2.1,.4-4.2,1.3-6.2,2.6c-2,1.3-3.7,2.9-4.9,4.8c-1.3,1.9-3.6,2.6-5.8,1.9 c-.7-.2-1.5-.5-2.3-.8c-4.7-1.1-9-.4-13,2.1c0,0,0,0,0,0c-4.1,2.5-6.6,6-7.7,10.6c0,.1,0,.1,0,.2 c-.1,.5-.1,.7-.1,.7c0,1.5-.7,3-1.9,3.9c-1.2,.9-2.7,1.3-4.2,1c-.8-.2-1.6-.4-2.3-.6c-4.8-1.2-9.1-.6-13.3,1.8 c-4.1,2.5-6.6,6-7.7,10.7c0,.1-.1,.3-.1,.4c-.1,.3-.1,.4-.1,.5c0,1.5-.7,2.9-1.8,3.8c-1.1,.9-2.7,1.3-4.1,1.1 c-.9-.2-1.7-.4-2.5-.7c-4.7-1.1-8.9-.4-12.9,2.1c-4,2.6-6.5,6.2-7.4,11c0,.1,0,.1,0,.2c-.2,.7-.2,.9-.2,.9 c0,1.5-.7,2.9-1.8,3.9c-1.1,.9-2.7,1.3-4.1,1.1c-.9-.2-1.7-.4-2.5-.7c-4.3-.8-8.3,.1-12,2.9c-3.9,2.9-6.2,6.9-7.1,12.1 c-.1,.8-.2,1.3-.2,1.6c-.1,1.4-.8,2.7-1.9,3.6c-1.1,.9-2.5,1.3-3.9,1c-.7-.1-1.4-.3-2.1-.4c-4.2-.7-7.8,.5-11.4,3.6 c0,0,0,0,0,0c-3.8,3.3-6,7.6-6.7,13.1c0,.1,0,.2,0,.3c-.1,.7-.1,1-.1,1c.1,1.5-.5,3-1.6,4c-1.1,1-2.6,1.5-4.1,1.2 c-.7-.1-1.3-.2-1.9-.3c-4.1-.6-7.7,.7-11.2,3.9c-3.7,3.5-5.9,8-6.6,13.6c0,0,0,.1,0,.1c-.1,.9-.1,1.3-.1,1.5 c0,1.4-.6,2.7-1.6,3.6c-1,.9-2.3,1.4-3.7,1.4c-.9,0-1.8-.2-2.6-.4c-4-.4-7.6,.9-11,4c-3.7,3.5-5.9,7.9-6.7,13.4 c-.1,1.1-.2,2.1-.2,2.9c0,2.3-1.5,4.3-3.7,4.8c-2.2,.6-4.4,1.8-6.6,3.5c-.9,.7-1.7,1.5-2.4,2.4c0,0,0,0,0,0 C20.7,192.6,19.2,196,18.5,200.2z M-52.3,52.9c22.8,4.1,40.8,17.2,53.6,38.9c11.9,20.3,19.4,48.8,22.3,84.7 c.8-.4,1.6-.8,2.4-1.2c0-.2,0-.4,.1-.6c0,0,0,0,0-.1c1.1-7.8,4.4-14.3,9.8-19.4c0,0,0,0,.1-.1 c4.9-4.4,10.4-6.7,16.2-6.7c0,0,0,0,0,0c1.3-6.8,4.5-12.5,9.3-17c0,0,0,0,0,0c4.9-4.6,10.4-6.8,16.3-6.7 c1.4-6.8,4.6-12.4,9.6-16.8c5-4.4,10.7-6.5,16.7-6.2c1.6-6.6,5.1-11.9,10.4-15.8c5.4-4,11.2-5.7,17.5-5.1 c1.9-6.2,5.6-11.1,11.2-14.6c5.6-3.5,11.6-4.9,18-3.9c2-5.9,5.8-10.6,11.4-14c0,0,.1,0,.1-.1c5.7-3.3,11.7-4.5,18.1-3.4 c2-5.9,5.9-10.6,11.4-14c6.3-3.9,13.2-5,20.5-3.3c1.5-1.6,3.2-3.1,5.1-4.4c-20.4-12-41.2-21.4-61.8-28.1 c-23.4-7.6-47.4-11.9-71.3-12.8c-23.9-.9-48.4,1.6-72.8,7.4C-1.2-4.8-24.8,3.7-48.4,15.2c2.4,5.9,3.2,11.4,2.4,16.3 c-1.1,6.5-3.9,11.8-8.4,15.9C-53.5,49.2-52.8,51-52.3,52.9z M-89.5,70.6c2.5,4,5.8,6.3,10,7.1c4.2,.9,7.9,0,11.5-2.6 c3.6-2.7,5.8-6.4,6.6-11.2c.3-2,.4-4,.1-5.9c0,0,0,0,0,0c-.4-2.6-1.3-5.1-2.8-7.5c0,0,0-.1-.1-.1c-.2-.4-.4-.7-.7-1 c-.9-1.1-1.3-2.6-1-4c.2-1.4,1.1-2.6,2.3-3.4c.4-.3,.8-.5,1.2-.9c3.6-2.7,5.8-6.4,6.6-11.2c.7-4-.5-8.9-3.5-14.6 c0,0,0,0,0,0c-.1-.2-.2-.4-.3-.5c-2.3-2.9-5.2-4.7-8.9-5.5c-4.1-.8-7.8,0-11.3,2.7C-80,12-80,12-80.1,12 c-.4,.3-.7,.6-1.1,.9c-1.1,1-2.7,1.4-4.1,1.1c-1.5-.3-2.7-1.2-3.5-2.5c-.3-.5-.6-1.1-.9-1.6c-2.5-3.9-5.8-6.3-10-7.1 c-4.2-.9-7.9,0-11.4,2.6c-3.7,2.7-5.8,6.4-6.6,11.3c-.8,4.9,0,9.3,2.6,13.4c0,0,.1,.1,.1,.1c.2,.4,.5,.8,.8,1.2 c.8,1.1,1.2,2.5,.9,3.9c-.3,1.4-1.1,2.6-2.3,3.3c-.4,.3-.8,.5-1.2,.8c-.8,.6-1.6,1.3-2.3,2c-2.3,2.5-3.8,5.5-4.4,9.2 c-.8,4.9,.1,9.3,2.7,13.4c2.5,4,5.8,6.3,10,7.2c3.2,.7,6.1,.3,8.9-1.1c.8-.4,1.6-.9,2.4-1.5c0,0,0,0,.1,0 c.4-.3,.9-.7,1.2-1c1.1-1,2.6-1.4,4.1-1.1c1.5,.2,2.7,1.1,3.5,2.4L-89.5,70.6z M-80.7,12.4C-80.7,12.4-80.7,12.4-80.7,12.4 C-80.7,12.4-80.7,12.4-80.7,12.4z M-79.5,11.5C-79.5,11.5-79.5,11.5-79.5,11.5C-79.5,11.5-79.5,11.5-79.5,11.5z"></path></g></g></g></symbol><symbol id="body" viewBox="0 0 3000 3000"><g transform="matrix(2.92, 0, 0, 2.92, 698.6,402.35)"><g transform="matrix(1, 0, 0, 1, 0, 0)"><g><g id="santa-hat-body-HATS_7_Layer0_0_FILL"><path fill="#ffffff" d="M-59.9,47.8c-.3-.6-.7-1.1-1.1-1.6c.5-.3,1.1-.7,1.6-1.1c4.7-3.5,7.5-8.3,8.5-14.4 c.9-5.1-.5-11.1-4-17.8c-.2-.3-.3-.6-.5-.9c-3.1-4-7.1-6.6-12-7.6c-5.6-1.1-10.7,.1-15.3,3.6C-83,7.9-83,8-83,8 c-.5,.4-.9,.7-1.3,1.1c-.3-.6-.7-1.2-1-1.8c-3.3-5.1-7.7-8.3-13.2-9.4c-5.6-1.2-10.7,0-15.4,3.5 c-4.7,3.5-7.5,8.3-8.5,14.4c-1,6.1,.1,11.7,3.3,16.8c.3,.6,.7,1.1,1.1,1.7c-.5,.3-1.1,.7-1.6,1.1c-1,.8-2,1.6-2.8,2.5 c-3,3.2-4.9,7.1-5.7,11.8c-1,6.1,.1,11.8,3.4,16.9c3.3,5.1,7.7,8.3,13.2,9.4c4.3,.9,8.4,.4,12.2-1.5c1.1-.6,2.2-1.2,3.2-2.1 c.5-.4,1-.8,1.5-1.2c.3,.6,.7,1.1,1,1.7c3.2,5.2,7.7,8.3,13.2,9.5c5.6,1.2,10.8,0,15.5-3.5c4.7-3.5,7.5-8.3,8.5-14.4 c.4-2.5,.5-5,.1-7.4C-56.9,54-58.1,50.8-59.9,47.8 M261.5,34.2c-1.3-2.1-2.9-3.9-4.6-5.4c-2.7-2.4-5.9-3.9-9.5-4.7 c-3-.7-5.9-.7-8.7-.2c-2.8,.6-5.4,1.7-8,3.3c-2.6,1.7-4.7,3.7-6.3,6.1c-.8-.3-1.6-.6-2.6-.9c-6.1-1.5-11.8-.6-17,2.7 c-5.3,3.2-8.6,7.8-10,13.8c-.2,.8-.3,1.4-.3,2c-.7-.2-1.4-.4-2.1-.6c-6.1-1.6-11.9-.8-17.2,2.3 c-5.2,3.2-8.6,7.8-9.9,13.8c-.2,.7-.4,1.4-.4,2c-.7-.1-1.4-.3-1.9-.6c-6.1-1.5-11.8-.6-17.1,2.7 c-5.2,3.3-8.4,8-9.6,14.2c-.2,.8-.3,1.5-.3,2.1c-.7-.1-1.4-.3-2-.6c-5.9-1.3-11.4,0-16.4,3.7c-4.9,3.7-7.9,8.8-9,15.3 c-.1,.8-.2,1.6-.2,2.2c-.6-.1-1.2-.2-1.8-.4c-5.8-1-11,.6-15.8,4.7c-4.7,4.1-7.5,9.5-8.4,16.3 c-.2,.9-.2,1.6-.2,2.2c-.7-.1-1.3-.2-1.8-.3c-5.6-.8-10.8,.9-15.4,5.2c-4.6,4.3-7.3,9.9-8.1,16.7 c-.1,.9-.2,1.6-.2,2.2c-.6,0-1.2-.2-1.8-.4c-5.6-.7-10.7,1-15.4,5.2c-4.6,4.3-7.4,9.8-8.3,16.4 c-.2,1.3-.2,2.5-.2,3.6c-2.9,.8-5.8,2.3-8.5,4.5c-1.1,.9-2.1,1.9-3,3c-3,3.5-4.9,7.8-5.7,12.9c-.6,3.9-.3,7.7,.6,11.3 c.6,2.3,1.6,4.5,3,6.6c3.4,5.5,8,8.7,13.9,9.8c5.8,1.1,11.1-.3,15.9-4.3c2.6-2.3,4.6-5.1,6.1-8.2c.9,.3,1.9,.5,2.9,.7 c5.7,.9,10.9-.8,15.5-5.1c4.6-4.3,7.3-9.9,8.1-16.8c.1-.7,.1-1.5,.2-2.3c.6,.2,1.2,.3,1.8,.4c5.6,.8,10.7-1,15.3-5.4 c4.5-4.4,7.2-10,8-16.8c.1-.7,.2-1.5,.3-2.2c.5,.2,1.1,.3,1.8,.4c5.7,.8,10.8-.9,15.5-5.1c4.7-4.1,7.5-9.5,8.6-16 c.1-.8,.2-1.5,.2-2.2c.6,.2,1.2,.4,1.9,.5c5.8,.9,11.1-.5,16.1-4.2c5-3.7,8.1-8.6,9.3-14.8c.1-.7,.2-1.3,.4-2 c.6,.2,1.2,.4,1.9,.5c6,1.4,11.6,.4,16.9-2.9c5.2-3.2,8.6-7.8,9.9-13.9c.1-.6,.2-1.3,.3-2c.6,.3,1.3,.5,2,.6 c6.1,1.6,11.9,.8,17.3-2.2c5.3-3.1,8.6-7.7,10.1-13.7c.1-.7,.2-1.3,.4-2c.6,.3,1.2,.5,2,.7c6.1,1.6,11.9,.8,17.3-2.3 c5.3-3.1,8.6-7.8,9.9-13.9c.2-.9,.3-1.8,.4-2.7c2.9-.4,5.6-1.4,8.2-3c5.1-3.4,8.3-8.3,9.5-14.6 C266.1,45.6,264.9,39.7,261.5,34.2z"></path><path fill="#c75151" d="M230.7,27.3c2.6-1.7,5.2-2.8,8-3.3C144.9-34.6,46.9-38.3-55,12.9c3.6,6.7,4.9,12.7,4,17.8 c-1,6.1-3.8,10.9-8.5,14.4c-.5,.4-1.1,.8-1.6,1.1c.4,.5,.8,1,1.1,1.6c1.9,3,3.1,6.2,3.5,9.5c46,6.4,71.3,49.5,75.7,129.2 c.9-1.1,1.9-2.1,3-3c2.7-2.2,5.6-3.7,8.5-4.5c0-1.1,.1-2.3,.2-3.6c.9-6.7,3.7-12.1,8.3-16.4c4.7-4.2,9.8-5.9,15.4-5.2 c.6,.2,1.2,.3,1.8,.4c0-.6,.1-1.4,.2-2.2c.9-6.8,3.6-12.4,8.1-16.7c4.6-4.3,9.8-6,15.4-5.2c.6,.1,1.2,.2,1.8,.3 c0-.6,0-1.3,.2-2.2c.9-6.8,3.7-12.2,8.4-16.3c4.7-4.1,10-5.7,15.8-4.7c.6,.2,1.2,.3,1.8,.4c0-.6,.1-1.3,.2-2.2 c1.1-6.5,4.1-11.6,9-15.3c5-3.7,10.5-5,16.4-3.7c.6,.3,1.3,.5,2,.6c0-.6,.1-1.3,.3-2.1c1.2-6.2,4.4-11,9.6-14.2 c5.2-3.3,10.9-4.2,17.1-2.7c.6,.2,1.2,.4,1.9,.6c0-.6,.1-1.2,.4-2c1.4-6,4.7-10.6,9.9-13.8c5.4-3.1,11.1-3.9,17.2-2.3 c.6,.2,1.3,.4,2.1,.6c0-.5,.1-1.2,.3-2c1.4-6,4.7-10.6,10-13.8c5.3-3.2,10.9-4.1,17-2.7c.9,.3,1.8,.6,2.6,.9 C226.1,31,228.2,29,230.7,27.3z"></path></g></g><g><path d="M35,232.6c-1.6,0-3.1-.2-4.7-.5c-7.3-1.4-13.1-5.4-17.2-12c-1.7-2.5-2.9-5.2-3.6-8c-1.2-4.3-1.4-8.8-.8-13.3 c0,0,0,0,0-.1c.8-5.2,2.7-9.9,5.5-13.8c-2.3-38-9.5-67.6-21.5-88c-5.9-10.1-13.1-18.1-21.4-23.8c-6.7-4.7-14.3-7.9-22.7-9.8 c-.1,.7-.2,1.5-.3,2.2c-1.2,7.4-4.7,13.4-10.4,17.6c-5.9,4.4-12.4,5.9-19.5,4.4c-5.9-1.2-10.8-4.2-14.5-9 c-.4,.2-.7,.4-1.1,.6c0,0,0,0-.1,0c-4.8,2.4-10,3.1-15.5,1.9c-6.9-1.4-12.4-5.4-16.5-11.7c-3.9-6.2-5.3-13-4.1-20.4 c1-5.7,3.3-10.6,7-14.5c0,0,0,0,0,0c.5-.5,.9-.9,1.4-1.4c-2.9-5.6-3.9-11.7-2.8-18.1c1.2-7.4,4.7-13.3,10.5-17.6 c5.8-4.4,12.4-5.9,19.4-4.4c5.9,1.2,10.8,4.2,14.6,9c5.1-2.9,10.6-3.8,16.5-2.6c5.1,1.1,9.5,3.5,13,7.2c24.5-12,49-21,73.1-26.7 c25.3-6,50.7-8.6,75.5-7.7c24.8,.9,49.7,5.4,74,13.3c23.7,7.7,47.5,18.9,70.7,33.2c2.8-.3,5.7-.1,8.7,.5 c4.4,.9,8.3,2.9,11.7,5.8c2.1,1.8,4,4,5.5,6.5c0,0,0,0,0,0c4,6.5,5.4,13.6,4.2,21.2c0,0,0,.1,0,.1 c-1.5,7.7-5.4,13.7-11.6,17.9c0,0,0,0-.1,0c-2.1,1.3-4.2,2.3-6.5,3c-1.7,7.4-5.7,13-12.1,16.8c0,0,0,0,0,0 c-5.7,3.3-11.8,4.4-18.1,3.4c-2.1,5.9-5.9,10.6-11.5,13.9c0,0-.1,0-.1,0c-5.7,3.2-11.7,4.3-18,3.3c-2,6-5.8,10.7-11.3,14.1 c-5.5,3.5-11.4,4.8-17.6,4.1c-1.8,6.1-5.3,11.2-10.5,15c-5.2,3.9-10.8,5.7-16.8,5.4c-1.6,6.5-4.8,11.9-9.7,16.2 c-4.9,4.4-10.4,6.6-16.4,6.6c-1.3,6.7-4.4,12.4-9.1,17c0,0,0,0-.1,.1c-4.8,4.6-10.3,6.9-16.2,6.9c0,0,0,0,0,0 c-1.3,6.9-4.4,12.6-9.2,17.2c0,0,0,0-.1,.1c-5.7,5.2-12.1,7.3-19.2,6.4c-1.5,2.3-3.3,4.4-5.3,6.3c0,0-.1,.1-.1,.1 C45.6,230.6,40.5,232.6,35,232.6z M18.5,200.2c-.5,3.2-.3,6.3,.5,9.2c0,0,0,.1,0,.1c.5,1.8,1.2,3.5,2.3,5 c0,.1,.1,.1,.1,.2c2.6,4.2,6.1,6.7,10.6,7.6c0,0,0,0,0,0c4.4,.8,8.1-.2,11.7-3.2c2.1-1.8,3.6-4,4.8-6.5 c1-2.3,3.7-3.5,6.1-2.7c.7,.2,1.4,.4,2.2,.5c4.2,.6,7.8-.6,11.3-3.8c3.7-3.5,5.8-8,6.5-13.7c.1-.7,.1-1.4,.2-2.2 c.1-1.5,1-2.9,2.3-3.8c1.3-.8,2.9-1,4.4-.5c.1,0,.2,.1,.4,.1c.1,0,.3,0,.4,0c4.1,.6,7.7-.7,11.2-4 c3.7-3.6,5.8-8.1,6.6-13.8c0-.1,0-.2,0-.3c.1-.6,.2-1.2,.2-1.8c.1-1.6,1-3,2.3-3.8c1.3-.8,3-1,4.4-.4c0,0,.1,0,.3,0 c.1,0,.3,0,.4,0c4.2,.6,7.9-.7,11.5-3.9c0,0,0,0,0,0c3.8-3.3,6-7.6,7-12.9c.1-.8,.2-1.5,.3-2.3c.2-1.5,1.1-2.8,2.3-3.6 c1.3-.8,2.9-.9,4.3-.4c.3,.1,.7,.2,1.1,.3c4.4,.7,8.4-.4,12.2-3.3c0,0,0,0,0,0c4-2.9,6.4-6.8,7.4-11.8 c.1-.6,.2-1.2,.3-1.8c.2-1.5,1.1-2.8,2.4-3.5c1.3-.8,2.8-.9,4.2-.4c.3,.1,.6,.2,.9,.2c.1,0,.3,0,.4,.1 c4.7,1.1,8.9,.4,13-2.2c0,0,.1,0,.1,0c4.1-2.5,6.6-6,7.7-10.7c.1-.5,.2-1.1,.3-1.6c.2-1.6,1.2-2.9,2.5-3.7 c1.4-.8,3-.8,4.5-.2c.2,.1,.5,.2,.9,.2c.1,0,.2,0,.3,.1c4.8,1.2,9.3,.7,13.6-1.7c4-2.4,6.5-5.7,7.6-10.3 c.1-.7,.3-1.5,.5-2.2c.4-1.5,1.4-2.7,2.7-3.3c1.4-.6,2.9-.6,4.3,0c.2,.1,.5,.2,.9,.3c0,0,.1,0,.1,0 c4.9,1.2,9.3,.7,13.5-1.8c4-2.4,6.5-5.9,7.5-10.7c0,0,0-.1,0-.1c.1-.6,.2-1.3,.3-1.9c.2-2.4,2-4.3,4.4-4.6 c2.1-.3,4.1-1,6-2.3c4-2.7,6.4-6.4,7.3-11.3c.8-5.2-.1-9.8-2.8-14.2c-1.1-1.7-2.3-3.1-3.6-4.3c-2.1-1.8-4.5-3-7.3-3.6 c0,0,0,0,0,0c-2.3-.5-4.5-.6-6.6-.2c-2.1,.4-4.2,1.3-6.2,2.6c-2,1.3-3.7,2.9-4.9,4.8c-1.3,1.9-3.6,2.6-5.8,1.9 c-.7-.2-1.5-.5-2.3-.8c-4.7-1.1-9-.4-13,2.1c0,0,0,0,0,0c-4.1,2.5-6.6,6-7.7,10.6c0,.1,0,.1,0,.2 c-.1,.5-.1,.7-.1,.7c0,1.5-.7,3-1.9,3.9c-1.2,.9-2.7,1.3-4.2,1c-.8-.2-1.6-.4-2.3-.6c-4.8-1.2-9.1-.6-13.3,1.8 c-4.1,2.5-6.6,6-7.7,10.7c0,.1-.1,.3-.1,.4c-.1,.3-.1,.4-.1,.5c0,1.5-.7,2.9-1.8,3.8c-1.1,.9-2.7,1.3-4.1,1.1 c-.9-.2-1.7-.4-2.5-.7c-4.7-1.1-8.9-.4-12.9,2.1c-4,2.6-6.5,6.2-7.4,11c0,.1,0,.1,0,.2c-.2,.7-.2,.9-.2,.9 c0,1.5-.7,2.9-1.8,3.9c-1.1,.9-2.7,1.3-4.1,1.1c-.9-.2-1.7-.4-2.5-.7c-4.3-.8-8.3,.1-12,2.9c-3.9,2.9-6.2,6.9-7.1,12.1 c-.1,.8-.2,1.3-.2,1.6c-.1,1.4-.8,2.7-1.9,3.6c-1.1,.9-2.5,1.3-3.9,1c-.7-.1-1.4-.3-2.1-.4c-4.2-.7-7.8,.5-11.4,3.6 c0,0,0,0,0,0c-3.8,3.3-6,7.6-6.7,13.1c0,.1,0,.2,0,.3c-.1,.7-.1,1-.1,1c.1,1.5-.5,3-1.6,4c-1.1,1-2.6,1.5-4.1,1.2 c-.7-.1-1.3-.2-1.9-.3c-4.1-.6-7.7,.7-11.2,3.9c-3.7,3.5-5.9,8-6.6,13.6c0,0,0,.1,0,.1c-.1,.9-.1,1.3-.1,1.5 c0,1.4-.6,2.7-1.6,3.6c-1,.9-2.3,1.4-3.7,1.4c-.9,0-1.8-.2-2.6-.4c-4-.4-7.6,.9-11,4c-3.7,3.5-5.9,7.9-6.7,13.4 c-.1,1.1-.2,2.1-.2,2.9c0,2.3-1.5,4.3-3.7,4.8c-2.2,.6-4.4,1.8-6.6,3.5c-.9,.7-1.7,1.5-2.4,2.4c0,0,0,0,0,0 C20.7,192.6,19.2,196,18.5,200.2z M-52.3,52.9c22.8,4.1,40.8,17.2,53.6,38.9c11.9,20.3,19.4,48.8,22.3,84.7 c.8-.4,1.6-.8,2.4-1.2c0-.2,0-.4,.1-.6c0,0,0,0,0-.1c1.1-7.8,4.4-14.3,9.8-19.4c0,0,0,0,.1-.1 c4.9-4.4,10.4-6.7,16.2-6.7c0,0,0,0,0,0c1.3-6.8,4.5-12.5,9.3-17c0,0,0,0,0,0c4.9-4.6,10.4-6.8,16.3-6.7 c1.4-6.8,4.6-12.4,9.6-16.8c5-4.4,10.7-6.5,16.7-6.2c1.6-6.6,5.1-11.9,10.4-15.8c5.4-4,11.2-5.7,17.5-5.1 c1.9-6.2,5.6-11.1,11.2-14.6c5.6-3.5,11.6-4.9,18-3.9c2-5.9,5.8-10.6,11.4-14c0,0,.1,0,.1-.1c5.7-3.3,11.7-4.5,18.1-3.4 c2-5.9,5.9-10.6,11.4-14c6.3-3.9,13.2-5,20.5-3.3c1.5-1.6,3.2-3.1,5.1-4.4c-20.4-12-41.2-21.4-61.8-28.1 c-23.4-7.6-47.4-11.9-71.3-12.8c-23.9-.9-48.4,1.6-72.8,7.4C-1.2-4.8-24.8,3.7-48.4,15.2c2.4,5.9,3.2,11.4,2.4,16.3 c-1.1,6.5-3.9,11.8-8.4,15.9C-53.5,49.2-52.8,51-52.3,52.9z M-89.5,70.6c2.5,4,5.8,6.3,10,7.1c4.2,.9,7.9,0,11.5-2.6 c3.6-2.7,5.8-6.4,6.6-11.2c.3-2,.4-4,.1-5.9c0,0,0,0,0,0c-.4-2.6-1.3-5.1-2.8-7.5c0,0,0-.1-.1-.1c-.2-.4-.4-.7-.7-1 c-.9-1.1-1.3-2.6-1-4c.2-1.4,1.1-2.6,2.3-3.4c.4-.3,.8-.5,1.2-.9c3.6-2.7,5.8-6.4,6.6-11.2c.7-4-.5-8.9-3.5-14.6 c0,0,0,0,0,0c-.1-.2-.2-.4-.3-.5c-2.3-2.9-5.2-4.7-8.9-5.5c-4.1-.8-7.8,0-11.3,2.7C-80,12-80,12-80.1,12 c-.4,.3-.7,.6-1.1,.9c-1.1,1-2.7,1.4-4.1,1.1c-1.5-.3-2.7-1.2-3.5-2.5c-.3-.5-.6-1.1-.9-1.6c-2.5-3.9-5.8-6.3-10-7.1 c-4.2-.9-7.9,0-11.4,2.6c-3.7,2.7-5.8,6.4-6.6,11.3c-.8,4.9,0,9.3,2.6,13.4c0,0,.1,.1,.1,.1c.2,.4,.5,.8,.8,1.2 c.8,1.1,1.2,2.5,.9,3.9c-.3,1.4-1.1,2.6-2.3,3.3c-.4,.3-.8,.5-1.2,.8c-.8,.6-1.6,1.3-2.3,2c-2.3,2.5-3.8,5.5-4.4,9.2 c-.8,4.9,.1,9.3,2.7,13.4c2.5,4,5.8,6.3,10,7.2c3.2,.7,6.1,.3,8.9-1.1c.8-.4,1.6-.9,2.4-1.5c0,0,0,0,.1,0 c.4-.3,.9-.7,1.2-1c1.1-1,2.6-1.4,4.1-1.1c1.5,.2,2.7,1.1,3.5,2.4L-89.5,70.6z M-80.7,12.4C-80.7,12.4-80.7,12.4-80.7,12.4 C-80.7,12.4-80.7,12.4-80.7,12.4z M-79.5,11.5C-79.5,11.5-79.5,11.5-79.5,11.5C-79.5,11.5-79.5,11.5-79.5,11.5z"></path></g></g></g></symbol><symbol id="left" viewBox="0 0 3000 3000"><g transform="matrix(2.92, 0, 0, 2.92, 698.6,402.35)"><g transform="matrix(1, 0, 0, 1, 0, 0)"><g><g id="santa-hat-left-HATS_7_Layer0_0_FILL"><path fill="#ffffff" d="M-59.9,47.8c-.3-.6-.7-1.1-1.1-1.6c.5-.3,1.1-.7,1.6-1.1c4.7-3.5,7.5-8.3,8.5-14.4 c.9-5.1-.5-11.1-4-17.8c-.2-.3-.3-.6-.5-.9c-3.1-4-7.1-6.6-12-7.6c-5.6-1.1-10.7,.1-15.3,3.6C-83,7.9-83,8-83,8 c-.5,.4-.9,.7-1.3,1.1c-.3-.6-.7-1.2-1-1.8c-3.3-5.1-7.7-8.3-13.2-9.4c-5.6-1.2-10.7,0-15.4,3.5 c-4.7,3.5-7.5,8.3-8.5,14.4c-1,6.1,.1,11.7,3.3,16.8c.3,.6,.7,1.1,1.1,1.7c-.5,.3-1.1,.7-1.6,1.1c-1,.8-2,1.6-2.8,2.5 c-3,3.2-4.9,7.1-5.7,11.8c-1,6.1,.1,11.8,3.4,16.9c3.3,5.1,7.7,8.3,13.2,9.4c4.3,.9,8.4,.4,12.2-1.5c1.1-.6,2.2-1.2,3.2-2.1 c.5-.4,1-.8,1.5-1.2c.3,.6,.7,1.1,1,1.7c3.2,5.2,7.7,8.3,13.2,9.5c5.6,1.2,10.8,0,15.5-3.5c4.7-3.5,7.5-8.3,8.5-14.4 c.4-2.5,.5-5,.1-7.4C-56.9,54-58.1,50.8-59.9,47.8 M261.5,34.2c-1.3-2.1-2.9-3.9-4.6-5.4c-2.7-2.4-5.9-3.9-9.5-4.7 c-3-.7-5.9-.7-8.7-.2c-2.8,.6-5.4,1.7-8,3.3c-2.6,1.7-4.7,3.7-6.3,6.1c-.8-.3-1.6-.6-2.6-.9c-6.1-1.5-11.8-.6-17,2.7 c-5.3,3.2-8.6,7.8-10,13.8c-.2,.8-.3,1.4-.3,2c-.7-.2-1.4-.4-2.1-.6c-6.1-1.6-11.9-.8-17.2,2.3 c-5.2,3.2-8.6,7.8-9.9,13.8c-.2,.7-.4,1.4-.4,2c-.7-.1-1.4-.3-1.9-.6c-6.1-1.5-11.8-.6-17.1,2.7 c-5.2,3.3-8.4,8-9.6,14.2c-.2,.8-.3,1.5-.3,2.1c-.7-.1-1.4-.3-2-.6c-5.9-1.3-11.4,0-16.4,3.7c-4.9,3.7-7.9,8.8-9,15.3 c-.1,.8-.2,1.6-.2,2.2c-.6-.1-1.2-.2-1.8-.4c-5.8-1-11,.6-15.8,4.7c-4.7,4.1-7.5,9.5-8.4,16.3 c-.2,.9-.2,1.6-.2,2.2c-.7-.1-1.3-.2-1.8-.3c-5.6-.8-10.8,.9-15.4,5.2c-4.6,4.3-7.3,9.9-8.1,16.7 c-.1,.9-.2,1.6-.2,2.2c-.6,0-1.2-.2-1.8-.4c-5.6-.7-10.7,1-15.4,5.2c-4.6,4.3-7.4,9.8-8.3,16.4 c-.2,1.3-.2,2.5-.2,3.6c-2.9,.8-5.8,2.3-8.5,4.5c-1.1,.9-2.1,1.9-3,3c-3,3.5-4.9,7.8-5.7,12.9c-.6,3.9-.3,7.7,.6,11.3 c.6,2.3,1.6,4.5,3,6.6c3.4,5.5,8,8.7,13.9,9.8c5.8,1.1,11.1-.3,15.9-4.3c2.6-2.3,4.6-5.1,6.1-8.2c.9,.3,1.9,.5,2.9,.7 c5.7,.9,10.9-.8,15.5-5.1c4.6-4.3,7.3-9.9,8.1-16.8c.1-.7,.1-1.5,.2-2.3c.6,.2,1.2,.3,1.8,.4c5.6,.8,10.7-1,15.3-5.4 c4.5-4.4,7.2-10,8-16.8c.1-.7,.2-1.5,.3-2.2c.5,.2,1.1,.3,1.8,.4c5.7,.8,10.8-.9,15.5-5.1c4.7-4.1,7.5-9.5,8.6-16 c.1-.8,.2-1.5,.2-2.2c.6,.2,1.2,.4,1.9,.5c5.8,.9,11.1-.5,16.1-4.2c5-3.7,8.1-8.6,9.3-14.8c.1-.7,.2-1.3,.4-2 c.6,.2,1.2,.4,1.9,.5c6,1.4,11.6,.4,16.9-2.9c5.2-3.2,8.6-7.8,9.9-13.9c.1-.6,.2-1.3,.3-2c.6,.3,1.3,.5,2,.6 c6.1,1.6,11.9,.8,17.3-2.2c5.3-3.1,8.6-7.7,10.1-13.7c.1-.7,.2-1.3,.4-2c.6,.3,1.2,.5,2,.7c6.1,1.6,11.9,.8,17.3-2.3 c5.3-3.1,8.6-7.8,9.9-13.9c.2-.9,.3-1.8,.4-2.7c2.9-.4,5.6-1.4,8.2-3c5.1-3.4,8.3-8.3,9.5-14.6 C266.1,45.6,264.9,39.7,261.5,34.2z"></path><path fill="#c75151" d="M230.7,27.3c2.6-1.7,5.2-2.8,8-3.3C144.9-34.6,46.9-38.3-55,12.9c3.6,6.7,4.9,12.7,4,17.8 c-1,6.1-3.8,10.9-8.5,14.4c-.5,.4-1.1,.8-1.6,1.1c.4,.5,.8,1,1.1,1.6c1.9,3,3.1,6.2,3.5,9.5c46,6.4,71.3,49.5,75.7,129.2 c.9-1.1,1.9-2.1,3-3c2.7-2.2,5.6-3.7,8.5-4.5c0-1.1,.1-2.3,.2-3.6c.9-6.7,3.7-12.1,8.3-16.4c4.7-4.2,9.8-5.9,15.4-5.2 c.6,.2,1.2,.3,1.8,.4c0-.6,.1-1.4,.2-2.2c.9-6.8,3.6-12.4,8.1-16.7c4.6-4.3,9.8-6,15.4-5.2c.6,.1,1.2,.2,1.8,.3 c0-.6,0-1.3,.2-2.2c.9-6.8,3.7-12.2,8.4-16.3c4.7-4.1,10-5.7,15.8-4.7c.6,.2,1.2,.3,1.8,.4c0-.6,.1-1.3,.2-2.2 c1.1-6.5,4.1-11.6,9-15.3c5-3.7,10.5-5,16.4-3.7c.6,.3,1.3,.5,2,.6c0-.6,.1-1.3,.3-2.1c1.2-6.2,4.4-11,9.6-14.2 c5.2-3.3,10.9-4.2,17.1-2.7c.6,.2,1.2,.4,1.9,.6c0-.6,.1-1.2,.4-2c1.4-6,4.7-10.6,9.9-13.8c5.4-3.1,11.1-3.9,17.2-2.3 c.6,.2,1.3,.4,2.1,.6c0-.5,.1-1.2,.3-2c1.4-6,4.7-10.6,10-13.8c5.3-3.2,10.9-4.1,17-2.7c.9,.3,1.8,.6,2.6,.9 C226.1,31,228.2,29,230.7,27.3z"></path></g></g><g><path d="M35,232.6c-1.6,0-3.1-.2-4.7-.5c-7.3-1.4-13.1-5.4-17.2-12c-1.7-2.5-2.9-5.2-3.6-8c-1.2-4.3-1.4-8.8-.8-13.3 c0,0,0,0,0-.1c.8-5.2,2.7-9.9,5.5-13.8c-2.3-38-9.5-67.6-21.5-88c-5.9-10.1-13.1-18.1-21.4-23.8c-6.7-4.7-14.3-7.9-22.7-9.8 c-.1,.7-.2,1.5-.3,2.2c-1.2,7.4-4.7,13.4-10.4,17.6c-5.9,4.4-12.4,5.9-19.5,4.4c-5.9-1.2-10.8-4.2-14.5-9 c-.4,.2-.7,.4-1.1,.6c0,0,0,0-.1,0c-4.8,2.4-10,3.1-15.5,1.9c-6.9-1.4-12.4-5.4-16.5-11.7c-3.9-6.2-5.3-13-4.1-20.4 c1-5.7,3.3-10.6,7-14.5c0,0,0,0,0,0c.5-.5,.9-.9,1.4-1.4c-2.9-5.6-3.9-11.7-2.8-18.1c1.2-7.4,4.7-13.3,10.5-17.6 c5.8-4.4,12.4-5.9,19.4-4.4c5.9,1.2,10.8,4.2,14.6,9c5.1-2.9,10.6-3.8,16.5-2.6c5.1,1.1,9.5,3.5,13,7.2c24.5-12,49-21,73.1-26.7 c25.3-6,50.7-8.6,75.5-7.7c24.8,.9,49.7,5.4,74,13.3c23.7,7.7,47.5,18.9,70.7,33.2c2.8-.3,5.7-.1,8.7,.5 c4.4,.9,8.3,2.9,11.7,5.8c2.1,1.8,4,4,5.5,6.5c0,0,0,0,0,0c4,6.5,5.4,13.6,4.2,21.2c0,0,0,.1,0,.1 c-1.5,7.7-5.4,13.7-11.6,17.9c0,0,0,0-.1,0c-2.1,1.3-4.2,2.3-6.5,3c-1.7,7.4-5.7,13-12.1,16.8c0,0,0,0,0,0 c-5.7,3.3-11.8,4.4-18.1,3.4c-2.1,5.9-5.9,10.6-11.5,13.9c0,0-.1,0-.1,0c-5.7,3.2-11.7,4.3-18,3.3c-2,6-5.8,10.7-11.3,14.1 c-5.5,3.5-11.4,4.8-17.6,4.1c-1.8,6.1-5.3,11.2-10.5,15c-5.2,3.9-10.8,5.7-16.8,5.4c-1.6,6.5-4.8,11.9-9.7,16.2 c-4.9,4.4-10.4,6.6-16.4,6.6c-1.3,6.7-4.4,12.4-9.1,17c0,0,0,0-.1,.1c-4.8,4.6-10.3,6.9-16.2,6.9c0,0,0,0,0,0 c-1.3,6.9-4.4,12.6-9.2,17.2c0,0,0,0-.1,.1c-5.7,5.2-12.1,7.3-19.2,6.4c-1.5,2.3-3.3,4.4-5.3,6.3c0,0-.1,.1-.1,.1 C45.6,230.6,40.5,232.6,35,232.6z M18.5,200.2c-.5,3.2-.3,6.3,.5,9.2c0,0,0,.1,0,.1c.5,1.8,1.2,3.5,2.3,5 c0,.1,.1,.1,.1,.2c2.6,4.2,6.1,6.7,10.6,7.6c0,0,0,0,0,0c4.4,.8,8.1-.2,11.7-3.2c2.1-1.8,3.6-4,4.8-6.5 c1-2.3,3.7-3.5,6.1-2.7c.7,.2,1.4,.4,2.2,.5c4.2,.6,7.8-.6,11.3-3.8c3.7-3.5,5.8-8,6.5-13.7c.1-.7,.1-1.4,.2-2.2 c.1-1.5,1-2.9,2.3-3.8c1.3-.8,2.9-1,4.4-.5c.1,0,.2,.1,.4,.1c.1,0,.3,0,.4,0c4.1,.6,7.7-.7,11.2-4 c3.7-3.6,5.8-8.1,6.6-13.8c0-.1,0-.2,0-.3c.1-.6,.2-1.2,.2-1.8c.1-1.6,1-3,2.3-3.8c1.3-.8,3-1,4.4-.4c0,0,.1,0,.3,0 c.1,0,.3,0,.4,0c4.2,.6,7.9-.7,11.5-3.9c0,0,0,0,0,0c3.8-3.3,6-7.6,7-12.9c.1-.8,.2-1.5,.3-2.3c.2-1.5,1.1-2.8,2.3-3.6 c1.3-.8,2.9-.9,4.3-.4c.3,.1,.7,.2,1.1,.3c4.4,.7,8.4-.4,12.2-3.3c0,0,0,0,0,0c4-2.9,6.4-6.8,7.4-11.8 c.1-.6,.2-1.2,.3-1.8c.2-1.5,1.1-2.8,2.4-3.5c1.3-.8,2.8-.9,4.2-.4c.3,.1,.6,.2,.9,.2c.1,0,.3,0,.4,.1 c4.7,1.1,8.9,.4,13-2.2c0,0,.1,0,.1,0c4.1-2.5,6.6-6,7.7-10.7c.1-.5,.2-1.1,.3-1.6c.2-1.6,1.2-2.9,2.5-3.7 c1.4-.8,3-.8,4.5-.2c.2,.1,.5,.2,.9,.2c.1,0,.2,0,.3,.1c4.8,1.2,9.3,.7,13.6-1.7c4-2.4,6.5-5.7,7.6-10.3 c.1-.7,.3-1.5,.5-2.2c.4-1.5,1.4-2.7,2.7-3.3c1.4-.6,2.9-.6,4.3,0c.2,.1,.5,.2,.9,.3c0,0,.1,0,.1,0 c4.9,1.2,9.3,.7,13.5-1.8c4-2.4,6.5-5.9,7.5-10.7c0,0,0-.1,0-.1c.1-.6,.2-1.3,.3-1.9c.2-2.4,2-4.3,4.4-4.6 c2.1-.3,4.1-1,6-2.3c4-2.7,6.4-6.4,7.3-11.3c.8-5.2-.1-9.8-2.8-14.2c-1.1-1.7-2.3-3.1-3.6-4.3c-2.1-1.8-4.5-3-7.3-3.6 c0,0,0,0,0,0c-2.3-.5-4.5-.6-6.6-.2c-2.1,.4-4.2,1.3-6.2,2.6c-2,1.3-3.7,2.9-4.9,4.8c-1.3,1.9-3.6,2.6-5.8,1.9 c-.7-.2-1.5-.5-2.3-.8c-4.7-1.1-9-.4-13,2.1c0,0,0,0,0,0c-4.1,2.5-6.6,6-7.7,10.6c0,.1,0,.1,0,.2 c-.1,.5-.1,.7-.1,.7c0,1.5-.7,3-1.9,3.9c-1.2,.9-2.7,1.3-4.2,1c-.8-.2-1.6-.4-2.3-.6c-4.8-1.2-9.1-.6-13.3,1.8 c-4.1,2.5-6.6,6-7.7,10.7c0,.1-.1,.3-.1,.4c-.1,.3-.1,.4-.1,.5c0,1.5-.7,2.9-1.8,3.8c-1.1,.9-2.7,1.3-4.1,1.1 c-.9-.2-1.7-.4-2.5-.7c-4.7-1.1-8.9-.4-12.9,2.1c-4,2.6-6.5,6.2-7.4,11c0,.1,0,.1,0,.2c-.2,.7-.2,.9-.2,.9 c0,1.5-.7,2.9-1.8,3.9c-1.1,.9-2.7,1.3-4.1,1.1c-.9-.2-1.7-.4-2.5-.7c-4.3-.8-8.3,.1-12,2.9c-3.9,2.9-6.2,6.9-7.1,12.1 c-.1,.8-.2,1.3-.2,1.6c-.1,1.4-.8,2.7-1.9,3.6c-1.1,.9-2.5,1.3-3.9,1c-.7-.1-1.4-.3-2.1-.4c-4.2-.7-7.8,.5-11.4,3.6 c0,0,0,0,0,0c-3.8,3.3-6,7.6-6.7,13.1c0,.1,0,.2,0,.3c-.1,.7-.1,1-.1,1c.1,1.5-.5,3-1.6,4c-1.1,1-2.6,1.5-4.1,1.2 c-.7-.1-1.3-.2-1.9-.3c-4.1-.6-7.7,.7-11.2,3.9c-3.7,3.5-5.9,8-6.6,13.6c0,0,0,.1,0,.1c-.1,.9-.1,1.3-.1,1.5 c0,1.4-.6,2.7-1.6,3.6c-1,.9-2.3,1.4-3.7,1.4c-.9,0-1.8-.2-2.6-.4c-4-.4-7.6,.9-11,4c-3.7,3.5-5.9,7.9-6.7,13.4 c-.1,1.1-.2,2.1-.2,2.9c0,2.3-1.5,4.3-3.7,4.8c-2.2,.6-4.4,1.8-6.6,3.5c-.9,.7-1.7,1.5-2.4,2.4c0,0,0,0,0,0 C20.7,192.6,19.2,196,18.5,200.2z M-52.3,52.9c22.8,4.1,40.8,17.2,53.6,38.9c11.9,20.3,19.4,48.8,22.3,84.7 c.8-.4,1.6-.8,2.4-1.2c0-.2,0-.4,.1-.6c0,0,0,0,0-.1c1.1-7.8,4.4-14.3,9.8-19.4c0,0,0,0,.1-.1 c4.9-4.4,10.4-6.7,16.2-6.7c0,0,0,0,0,0c1.3-6.8,4.5-12.5,9.3-17c0,0,0,0,0,0c4.9-4.6,10.4-6.8,16.3-6.7 c1.4-6.8,4.6-12.4,9.6-16.8c5-4.4,10.7-6.5,16.7-6.2c1.6-6.6,5.1-11.9,10.4-15.8c5.4-4,11.2-5.7,17.5-5.1 c1.9-6.2,5.6-11.1,11.2-14.6c5.6-3.5,11.6-4.9,18-3.9c2-5.9,5.8-10.6,11.4-14c0,0,.1,0,.1-.1c5.7-3.3,11.7-4.5,18.1-3.4 c2-5.9,5.9-10.6,11.4-14c6.3-3.9,13.2-5,20.5-3.3c1.5-1.6,3.2-3.1,5.1-4.4c-20.4-12-41.2-21.4-61.8-28.1 c-23.4-7.6-47.4-11.9-71.3-12.8c-23.9-.9-48.4,1.6-72.8,7.4C-1.2-4.8-24.8,3.7-48.4,15.2c2.4,5.9,3.2,11.4,2.4,16.3 c-1.1,6.5-3.9,11.8-8.4,15.9C-53.5,49.2-52.8,51-52.3,52.9z M-89.5,70.6c2.5,4,5.8,6.3,10,7.1c4.2,.9,7.9,0,11.5-2.6 c3.6-2.7,5.8-6.4,6.6-11.2c.3-2,.4-4,.1-5.9c0,0,0,0,0,0c-.4-2.6-1.3-5.1-2.8-7.5c0,0,0-.1-.1-.1c-.2-.4-.4-.7-.7-1 c-.9-1.1-1.3-2.6-1-4c.2-1.4,1.1-2.6,2.3-3.4c.4-.3,.8-.5,1.2-.9c3.6-2.7,5.8-6.4,6.6-11.2c.7-4-.5-8.9-3.5-14.6 c0,0,0,0,0,0c-.1-.2-.2-.4-.3-.5c-2.3-2.9-5.2-4.7-8.9-5.5c-4.1-.8-7.8,0-11.3,2.7C-80,12-80,12-80.1,12 c-.4,.3-.7,.6-1.1,.9c-1.1,1-2.7,1.4-4.1,1.1c-1.5-.3-2.7-1.2-3.5-2.5c-.3-.5-.6-1.1-.9-1.6c-2.5-3.9-5.8-6.3-10-7.1 c-4.2-.9-7.9,0-11.4,2.6c-3.7,2.7-5.8,6.4-6.6,11.3c-.8,4.9,0,9.3,2.6,13.4c0,0,.1,.1,.1,.1c.2,.4,.5,.8,.8,1.2 c.8,1.1,1.2,2.5,.9,3.9c-.3,1.4-1.1,2.6-2.3,3.3c-.4,.3-.8,.5-1.2,.8c-.8,.6-1.6,1.3-2.3,2c-2.3,2.5-3.8,5.5-4.4,9.2 c-.8,4.9,.1,9.3,2.7,13.4c2.5,4,5.8,6.3,10,7.2c3.2,.7,6.1,.3,8.9-1.1c.8-.4,1.6-.9,2.4-1.5c0,0,0,0,.1,0 c.4-.3,.9-.7,1.2-1c1.1-1,2.6-1.4,4.1-1.1c1.5,.2,2.7,1.1,3.5,2.4L-89.5,70.6z M-80.7,12.4C-80.7,12.4-80.7,12.4-80.7,12.4 C-80.7,12.4-80.7,12.4-80.7,12.4z M-79.5,11.5C-79.5,11.5-79.5,11.5-79.5,11.5C-79.5,11.5-79.5,11.5-79.5,11.5z"></path></g></g></g></symbol><symbol id="right" viewBox="0 0 3000 3000"><g transform="matrix(2.92, 0, 0, 2.92, 698.6,402.35)"><g transform="matrix(1, 0, 0, 1, 0, 0)"><g><g id="santa-hat-right-HATS_7_Layer0_0_FILL"><path fill="#ffffff" d="M-59.9,47.8c-.3-.6-.7-1.1-1.1-1.6c.5-.3,1.1-.7,1.6-1.1c4.7-3.5,7.5-8.3,8.5-14.4 c.9-5.1-.5-11.1-4-17.8c-.2-.3-.3-.6-.5-.9c-3.1-4-7.1-6.6-12-7.6c-5.6-1.1-10.7,.1-15.3,3.6C-83,7.9-83,8-83,8 c-.5,.4-.9,.7-1.3,1.1c-.3-.6-.7-1.2-1-1.8c-3.3-5.1-7.7-8.3-13.2-9.4c-5.6-1.2-10.7,0-15.4,3.5 c-4.7,3.5-7.5,8.3-8.5,14.4c-1,6.1,.1,11.7,3.3,16.8c.3,.6,.7,1.1,1.1,1.7c-.5,.3-1.1,.7-1.6,1.1c-1,.8-2,1.6-2.8,2.5 c-3,3.2-4.9,7.1-5.7,11.8c-1,6.1,.1,11.8,3.4,16.9c3.3,5.1,7.7,8.3,13.2,9.4c4.3,.9,8.4,.4,12.2-1.5c1.1-.6,2.2-1.2,3.2-2.1 c.5-.4,1-.8,1.5-1.2c.3,.6,.7,1.1,1,1.7c3.2,5.2,7.7,8.3,13.2,9.5c5.6,1.2,10.8,0,15.5-3.5c4.7-3.5,7.5-8.3,8.5-14.4 c.4-2.5,.5-5,.1-7.4C-56.9,54-58.1,50.8-59.9,47.8 M261.5,34.2c-1.3-2.1-2.9-3.9-4.6-5.4c-2.7-2.4-5.9-3.9-9.5-4.7 c-3-.7-5.9-.7-8.7-.2c-2.8,.6-5.4,1.7-8,3.3c-2.6,1.7-4.7,3.7-6.3,6.1c-.8-.3-1.6-.6-2.6-.9c-6.1-1.5-11.8-.6-17,2.7 c-5.3,3.2-8.6,7.8-10,13.8c-.2,.8-.3,1.4-.3,2c-.7-.2-1.4-.4-2.1-.6c-6.1-1.6-11.9-.8-17.2,2.3 c-5.2,3.2-8.6,7.8-9.9,13.8c-.2,.7-.4,1.4-.4,2c-.7-.1-1.4-.3-1.9-.6c-6.1-1.5-11.8-.6-17.1,2.7 c-5.2,3.3-8.4,8-9.6,14.2c-.2,.8-.3,1.5-.3,2.1c-.7-.1-1.4-.3-2-.6c-5.9-1.3-11.4,0-16.4,3.7c-4.9,3.7-7.9,8.8-9,15.3 c-.1,.8-.2,1.6-.2,2.2c-.6-.1-1.2-.2-1.8-.4c-5.8-1-11,.6-15.8,4.7c-4.7,4.1-7.5,9.5-8.4,16.3 c-.2,.9-.2,1.6-.2,2.2c-.7-.1-1.3-.2-1.8-.3c-5.6-.8-10.8,.9-15.4,5.2c-4.6,4.3-7.3,9.9-8.1,16.7 c-.1,.9-.2,1.6-.2,2.2c-.6,0-1.2-.2-1.8-.4c-5.6-.7-10.7,1-15.4,5.2c-4.6,4.3-7.4,9.8-8.3,16.4 c-.2,1.3-.2,2.5-.2,3.6c-2.9,.8-5.8,2.3-8.5,4.5c-1.1,.9-2.1,1.9-3,3c-3,3.5-4.9,7.8-5.7,12.9c-.6,3.9-.3,7.7,.6,11.3 c.6,2.3,1.6,4.5,3,6.6c3.4,5.5,8,8.7,13.9,9.8c5.8,1.1,11.1-.3,15.9-4.3c2.6-2.3,4.6-5.1,6.1-8.2c.9,.3,1.9,.5,2.9,.7 c5.7,.9,10.9-.8,15.5-5.1c4.6-4.3,7.3-9.9,8.1-16.8c.1-.7,.1-1.5,.2-2.3c.6,.2,1.2,.3,1.8,.4c5.6,.8,10.7-1,15.3-5.4 c4.5-4.4,7.2-10,8-16.8c.1-.7,.2-1.5,.3-2.2c.5,.2,1.1,.3,1.8,.4c5.7,.8,10.8-.9,15.5-5.1c4.7-4.1,7.5-9.5,8.6-16 c.1-.8,.2-1.5,.2-2.2c.6,.2,1.2,.4,1.9,.5c5.8,.9,11.1-.5,16.1-4.2c5-3.7,8.1-8.6,9.3-14.8c.1-.7,.2-1.3,.4-2 c.6,.2,1.2,.4,1.9,.5c6,1.4,11.6,.4,16.9-2.9c5.2-3.2,8.6-7.8,9.9-13.9c.1-.6,.2-1.3,.3-2c.6,.3,1.3,.5,2,.6 c6.1,1.6,11.9,.8,17.3-2.2c5.3-3.1,8.6-7.7,10.1-13.7c.1-.7,.2-1.3,.4-2c.6,.3,1.2,.5,2,.7c6.1,1.6,11.9,.8,17.3-2.3 c5.3-3.1,8.6-7.8,9.9-13.9c.2-.9,.3-1.8,.4-2.7c2.9-.4,5.6-1.4,8.2-3c5.1-3.4,8.3-8.3,9.5-14.6 C266.1,45.6,264.9,39.7,261.5,34.2z"></path><path fill="#c75151" d="M230.7,27.3c2.6-1.7,5.2-2.8,8-3.3C144.9-34.6,46.9-38.3-55,12.9c3.6,6.7,4.9,12.7,4,17.8 c-1,6.1-3.8,10.9-8.5,14.4c-.5,.4-1.1,.8-1.6,1.1c.4,.5,.8,1,1.1,1.6c1.9,3,3.1,6.2,3.5,9.5c46,6.4,71.3,49.5,75.7,129.2 c.9-1.1,1.9-2.1,3-3c2.7-2.2,5.6-3.7,8.5-4.5c0-1.1,.1-2.3,.2-3.6c.9-6.7,3.7-12.1,8.3-16.4c4.7-4.2,9.8-5.9,15.4-5.2 c.6,.2,1.2,.3,1.8,.4c0-.6,.1-1.4,.2-2.2c.9-6.8,3.6-12.4,8.1-16.7c4.6-4.3,9.8-6,15.4-5.2c.6,.1,1.2,.2,1.8,.3 c0-.6,0-1.3,.2-2.2c.9-6.8,3.7-12.2,8.4-16.3c4.7-4.1,10-5.7,15.8-4.7c.6,.2,1.2,.3,1.8,.4c0-.6,.1-1.3,.2-2.2 c1.1-6.5,4.1-11.6,9-15.3c5-3.7,10.5-5,16.4-3.7c.6,.3,1.3,.5,2,.6c0-.6,.1-1.3,.3-2.1c1.2-6.2,4.4-11,9.6-14.2 c5.2-3.3,10.9-4.2,17.1-2.7c.6,.2,1.2,.4,1.9,.6c0-.6,.1-1.2,.4-2c1.4-6,4.7-10.6,9.9-13.8c5.4-3.1,11.1-3.9,17.2-2.3 c.6,.2,1.3,.4,2.1,.6c0-.5,.1-1.2,.3-2c1.4-6,4.7-10.6,10-13.8c5.3-3.2,10.9-4.1,17-2.7c.9,.3,1.8,.6,2.6,.9 C226.1,31,228.2,29,230.7,27.3z"></path></g></g><g><path d="M35,232.6c-1.6,0-3.1-.2-4.7-.5c-7.3-1.4-13.1-5.4-17.2-12c-1.7-2.5-2.9-5.2-3.6-8c-1.2-4.3-1.4-8.8-.8-13.3 c0,0,0,0,0-.1c.8-5.2,2.7-9.9,5.5-13.8c-2.3-38-9.5-67.6-21.5-88c-5.9-10.1-13.1-18.1-21.4-23.8c-6.7-4.7-14.3-7.9-22.7-9.8 c-.1,.7-.2,1.5-.3,2.2c-1.2,7.4-4.7,13.4-10.4,17.6c-5.9,4.4-12.4,5.9-19.5,4.4c-5.9-1.2-10.8-4.2-14.5-9 c-.4,.2-.7,.4-1.1,.6c0,0,0,0-.1,0c-4.8,2.4-10,3.1-15.5,1.9c-6.9-1.4-12.4-5.4-16.5-11.7c-3.9-6.2-5.3-13-4.1-20.4 c1-5.7,3.3-10.6,7-14.5c0,0,0,0,0,0c.5-.5,.9-.9,1.4-1.4c-2.9-5.6-3.9-11.7-2.8-18.1c1.2-7.4,4.7-13.3,10.5-17.6 c5.8-4.4,12.4-5.9,19.4-4.4c5.9,1.2,10.8,4.2,14.6,9c5.1-2.9,10.6-3.8,16.5-2.6c5.1,1.1,9.5,3.5,13,7.2c24.5-12,49-21,73.1-26.7 c25.3-6,50.7-8.6,75.5-7.7c24.8,.9,49.7,5.4,74,13.3c23.7,7.7,47.5,18.9,70.7,33.2c2.8-.3,5.7-.1,8.7,.5 c4.4,.9,8.3,2.9,11.7,5.8c2.1,1.8,4,4,5.5,6.5c0,0,0,0,0,0c4,6.5,5.4,13.6,4.2,21.2c0,0,0,.1,0,.1 c-1.5,7.7-5.4,13.7-11.6,17.9c0,0,0,0-.1,0c-2.1,1.3-4.2,2.3-6.5,3c-1.7,7.4-5.7,13-12.1,16.8c0,0,0,0,0,0 c-5.7,3.3-11.8,4.4-18.1,3.4c-2.1,5.9-5.9,10.6-11.5,13.9c0,0-.1,0-.1,0c-5.7,3.2-11.7,4.3-18,3.3c-2,6-5.8,10.7-11.3,14.1 c-5.5,3.5-11.4,4.8-17.6,4.1c-1.8,6.1-5.3,11.2-10.5,15c-5.2,3.9-10.8,5.7-16.8,5.4c-1.6,6.5-4.8,11.9-9.7,16.2 c-4.9,4.4-10.4,6.6-16.4,6.6c-1.3,6.7-4.4,12.4-9.1,17c0,0,0,0-.1,.1c-4.8,4.6-10.3,6.9-16.2,6.9c0,0,0,0,0,0 c-1.3,6.9-4.4,12.6-9.2,17.2c0,0,0,0-.1,.1c-5.7,5.2-12.1,7.3-19.2,6.4c-1.5,2.3-3.3,4.4-5.3,6.3c0,0-.1,.1-.1,.1 C45.6,230.6,40.5,232.6,35,232.6z M18.5,200.2c-.5,3.2-.3,6.3,.5,9.2c0,0,0,.1,0,.1c.5,1.8,1.2,3.5,2.3,5 c0,.1,.1,.1,.1,.2c2.6,4.2,6.1,6.7,10.6,7.6c0,0,0,0,0,0c4.4,.8,8.1-.2,11.7-3.2c2.1-1.8,3.6-4,4.8-6.5 c1-2.3,3.7-3.5,6.1-2.7c.7,.2,1.4,.4,2.2,.5c4.2,.6,7.8-.6,11.3-3.8c3.7-3.5,5.8-8,6.5-13.7c.1-.7,.1-1.4,.2-2.2 c.1-1.5,1-2.9,2.3-3.8c1.3-.8,2.9-1,4.4-.5c.1,0,.2,.1,.4,.1c.1,0,.3,0,.4,0c4.1,.6,7.7-.7,11.2-4 c3.7-3.6,5.8-8.1,6.6-13.8c0-.1,0-.2,0-.3c.1-.6,.2-1.2,.2-1.8c.1-1.6,1-3,2.3-3.8c1.3-.8,3-1,4.4-.4c0,0,.1,0,.3,0 c.1,0,.3,0,.4,0c4.2,.6,7.9-.7,11.5-3.9c0,0,0,0,0,0c3.8-3.3,6-7.6,7-12.9c.1-.8,.2-1.5,.3-2.3c.2-1.5,1.1-2.8,2.3-3.6 c1.3-.8,2.9-.9,4.3-.4c.3,.1,.7,.2,1.1,.3c4.4,.7,8.4-.4,12.2-3.3c0,0,0,0,0,0c4-2.9,6.4-6.8,7.4-11.8 c.1-.6,.2-1.2,.3-1.8c.2-1.5,1.1-2.8,2.4-3.5c1.3-.8,2.8-.9,4.2-.4c.3,.1,.6,.2,.9,.2c.1,0,.3,0,.4,.1 c4.7,1.1,8.9,.4,13-2.2c0,0,.1,0,.1,0c4.1-2.5,6.6-6,7.7-10.7c.1-.5,.2-1.1,.3-1.6c.2-1.6,1.2-2.9,2.5-3.7 c1.4-.8,3-.8,4.5-.2c.2,.1,.5,.2,.9,.2c.1,0,.2,0,.3,.1c4.8,1.2,9.3,.7,13.6-1.7c4-2.4,6.5-5.7,7.6-10.3 c.1-.7,.3-1.5,.5-2.2c.4-1.5,1.4-2.7,2.7-3.3c1.4-.6,2.9-.6,4.3,0c.2,.1,.5,.2,.9,.3c0,0,.1,0,.1,0 c4.9,1.2,9.3,.7,13.5-1.8c4-2.4,6.5-5.9,7.5-10.7c0,0,0-.1,0-.1c.1-.6,.2-1.3,.3-1.9c.2-2.4,2-4.3,4.4-4.6 c2.1-.3,4.1-1,6-2.3c4-2.7,6.4-6.4,7.3-11.3c.8-5.2-.1-9.8-2.8-14.2c-1.1-1.7-2.3-3.1-3.6-4.3c-2.1-1.8-4.5-3-7.3-3.6 c0,0,0,0,0,0c-2.3-.5-4.5-.6-6.6-.2c-2.1,.4-4.2,1.3-6.2,2.6c-2,1.3-3.7,2.9-4.9,4.8c-1.3,1.9-3.6,2.6-5.8,1.9 c-.7-.2-1.5-.5-2.3-.8c-4.7-1.1-9-.4-13,2.1c0,0,0,0,0,0c-4.1,2.5-6.6,6-7.7,10.6c0,.1,0,.1,0,.2 c-.1,.5-.1,.7-.1,.7c0,1.5-.7,3-1.9,3.9c-1.2,.9-2.7,1.3-4.2,1c-.8-.2-1.6-.4-2.3-.6c-4.8-1.2-9.1-.6-13.3,1.8 c-4.1,2.5-6.6,6-7.7,10.7c0,.1-.1,.3-.1,.4c-.1,.3-.1,.4-.1,.5c0,1.5-.7,2.9-1.8,3.8c-1.1,.9-2.7,1.3-4.1,1.1 c-.9-.2-1.7-.4-2.5-.7c-4.7-1.1-8.9-.4-12.9,2.1c-4,2.6-6.5,6.2-7.4,11c0,.1,0,.1,0,.2c-.2,.7-.2,.9-.2,.9 c0,1.5-.7,2.9-1.8,3.9c-1.1,.9-2.7,1.3-4.1,1.1c-.9-.2-1.7-.4-2.5-.7c-4.3-.8-8.3,.1-12,2.9c-3.9,2.9-6.2,6.9-7.1,12.1 c-.1,.8-.2,1.3-.2,1.6c-.1,1.4-.8,2.7-1.9,3.6c-1.1,.9-2.5,1.3-3.9,1c-.7-.1-1.4-.3-2.1-.4c-4.2-.7-7.8,.5-11.4,3.6 c0,0,0,0,0,0c-3.8,3.3-6,7.6-6.7,13.1c0,.1,0,.2,0,.3c-.1,.7-.1,1-.1,1c.1,1.5-.5,3-1.6,4c-1.1,1-2.6,1.5-4.1,1.2 c-.7-.1-1.3-.2-1.9-.3c-4.1-.6-7.7,.7-11.2,3.9c-3.7,3.5-5.9,8-6.6,13.6c0,0,0,.1,0,.1c-.1,.9-.1,1.3-.1,1.5 c0,1.4-.6,2.7-1.6,3.6c-1,.9-2.3,1.4-3.7,1.4c-.9,0-1.8-.2-2.6-.4c-4-.4-7.6,.9-11,4c-3.7,3.5-5.9,7.9-6.7,13.4 c-.1,1.1-.2,2.1-.2,2.9c0,2.3-1.5,4.3-3.7,4.8c-2.2,.6-4.4,1.8-6.6,3.5c-.9,.7-1.7,1.5-2.4,2.4c0,0,0,0,0,0 C20.7,192.6,19.2,196,18.5,200.2z M-52.3,52.9c22.8,4.1,40.8,17.2,53.6,38.9c11.9,20.3,19.4,48.8,22.3,84.7 c.8-.4,1.6-.8,2.4-1.2c0-.2,0-.4,.1-.6c0,0,0,0,0-.1c1.1-7.8,4.4-14.3,9.8-19.4c0,0,0,0,.1-.1 c4.9-4.4,10.4-6.7,16.2-6.7c0,0,0,0,0,0c1.3-6.8,4.5-12.5,9.3-17c0,0,0,0,0,0c4.9-4.6,10.4-6.8,16.3-6.7 c1.4-6.8,4.6-12.4,9.6-16.8c5-4.4,10.7-6.5,16.7-6.2c1.6-6.6,5.1-11.9,10.4-15.8c5.4-4,11.2-5.7,17.5-5.1 c1.9-6.2,5.6-11.1,11.2-14.6c5.6-3.5,11.6-4.9,18-3.9c2-5.9,5.8-10.6,11.4-14c0,0,.1,0,.1-.1c5.7-3.3,11.7-4.5,18.1-3.4 c2-5.9,5.9-10.6,11.4-14c6.3-3.9,13.2-5,20.5-3.3c1.5-1.6,3.2-3.1,5.1-4.4c-20.4-12-41.2-21.4-61.8-28.1 c-23.4-7.6-47.4-11.9-71.3-12.8c-23.9-.9-48.4,1.6-72.8,7.4C-1.2-4.8-24.8,3.7-48.4,15.2c2.4,5.9,3.2,11.4,2.4,16.3 c-1.1,6.5-3.9,11.8-8.4,15.9C-53.5,49.2-52.8,51-52.3,52.9z M-89.5,70.6c2.5,4,5.8,6.3,10,7.1c4.2,.9,7.9,0,11.5-2.6 c3.6-2.7,5.8-6.4,6.6-11.2c.3-2,.4-4,.1-5.9c0,0,0,0,0,0c-.4-2.6-1.3-5.1-2.8-7.5c0,0,0-.1-.1-.1c-.2-.4-.4-.7-.7-1 c-.9-1.1-1.3-2.6-1-4c.2-1.4,1.1-2.6,2.3-3.4c.4-.3,.8-.5,1.2-.9c3.6-2.7,5.8-6.4,6.6-11.2c.7-4-.5-8.9-3.5-14.6 c0,0,0,0,0,0c-.1-.2-.2-.4-.3-.5c-2.3-2.9-5.2-4.7-8.9-5.5c-4.1-.8-7.8,0-11.3,2.7C-80,12-80,12-80.1,12 c-.4,.3-.7,.6-1.1,.9c-1.1,1-2.7,1.4-4.1,1.1c-1.5-.3-2.7-1.2-3.5-2.5c-.3-.5-.6-1.1-.9-1.6c-2.5-3.9-5.8-6.3-10-7.1 c-4.2-.9-7.9,0-11.4,2.6c-3.7,2.7-5.8,6.4-6.6,11.3c-.8,4.9,0,9.3,2.6,13.4c0,0,.1,.1,.1,.1c.2,.4,.5,.8,.8,1.2 c.8,1.1,1.2,2.5,.9,3.9c-.3,1.4-1.1,2.6-2.3,3.3c-.4,.3-.8,.5-1.2,.8c-.8,.6-1.6,1.3-2.3,2c-2.3,2.5-3.8,5.5-4.4,9.2 c-.8,4.9,.1,9.3,2.7,13.4c2.5,4,5.8,6.3,10,7.2c3.2,.7,6.1,.3,8.9-1.1c.8-.4,1.6-.9,2.4-1.5c0,0,0,0,.1,0 c.4-.3,.9-.7,1.2-1c1.1-1,2.6-1.4,4.1-1.1c1.5,.2,2.7,1.1,3.5,2.4L-89.5,70.6z M-80.7,12.4C-80.7,12.4-80.7,12.4-80.7,12.4 C-80.7,12.4-80.7,12.4-80.7,12.4z M-79.5,11.5C-79.5,11.5-79.5,11.5-79.5,11.5C-79.5,11.5-79.5,11.5-79.5,11.5z"></path></g></g></g></symbol></svg>