<svg width="3009" height="3009" viewBox="0 0 3009 3009" fill="none" xmlns="http://www.w3.org/2000/svg">
<path d="M1671.06 504.59C1400.14 573.244 988.696 792.751 749.95 1035.62C706.574 1084.85 759.055 1124.74 789.781 1084.48C919.342 914.698 1500.4 578.688 1691.28 564C1750.71 559.426 1735.07 488.37 1671.06 504.59Z" fill="#BEBDBF" stroke="black" stroke-width="30" stroke-linejoin="round"/>
<path d="M1557.41 307.739C1286.49 376.392 875.044 595.9 636.297 838.764C592.922 887.996 645.403 927.893 676.128 887.629C805.689 717.846 1386.75 381.836 1577.63 367.148C1637.06 362.575 1621.42 291.518 1557.41 307.739Z" fill="#BEBDBF" stroke="black" stroke-width="30" stroke-linejoin="round"/>
<path d="M1589.99 364.168C1319.07 432.822 907.622 652.33 668.875 895.193C625.5 944.426 727.981 1070.93 758.706 1030.66C888.267 860.879 1469.32 524.869 1660.21 510.18C1719.64 505.607 1654 347.948 1589.99 364.168Z" fill="#BEBDBF" stroke="black" stroke-width="30" stroke-linejoin="round"/>
<path d="M1069.76 544.748C1067.75 535.272 1079.03 528.755 1086.23 535.237L1121.96 567.404C1125.18 570.303 1129.9 570.799 1133.65 568.632L1175.28 544.596C1183.67 539.753 1193.36 548.474 1189.42 557.324L1169.86 601.24C1168.1 605.198 1169.09 609.84 1172.31 612.739L1208.03 644.905C1215.23 651.388 1209.93 663.295 1200.3 662.282L1152.49 657.257C1148.18 656.804 1144.07 659.177 1142.31 663.135L1122.75 707.051C1118.81 715.901 1105.85 714.538 1103.84 705.063L1093.84 658.041C1092.94 653.804 1089.41 650.628 1085.1 650.175L1037.3 645.15C1027.66 644.138 1024.95 631.388 1033.34 626.545L1074.97 602.509C1078.72 600.343 1080.66 596.007 1079.75 591.769L1069.76 544.748Z" fill="#FCFCFC" stroke="black" stroke-width="30" stroke-linejoin="round"/>
</svg>
