<svg width="3009" height="3009" viewBox="0 0 3009 3009" fill="none" xmlns="http://www.w3.org/2000/svg">
<path d="M1666.13 501.684C1395.2 570.337 983.76 789.845 745.013 1032.71C701.638 1081.94 754.119 1121.84 784.844 1081.57C914.405 911.792 1495.46 575.782 1686.34 561.093C1745.78 556.52 1730.14 485.464 1666.13 501.684Z" fill="#BEBDBF" stroke="black" stroke-width="30" stroke-linejoin="round"/>
<path d="M1519.97 248.539C1249.05 317.193 837.608 536.701 598.861 779.564C555.485 828.797 607.966 868.694 638.692 828.43C768.253 658.647 1349.31 322.637 1540.19 307.949C1599.62 303.376 1583.98 232.319 1519.97 248.539Z" fill="#BEBDBF" stroke="black" stroke-width="30" stroke-linejoin="round"/>
<path d="M1552.55 304.965C1281.63 373.619 870.186 593.126 631.439 835.99C588.063 885.223 723.044 1068.01 753.77 1027.75C883.331 857.967 1464.39 521.957 1655.27 507.269C1714.7 502.696 1616.56 288.745 1552.55 304.965Z" fill="#BEBDBF" stroke="black" stroke-width="30" stroke-linejoin="round"/>
<path d="M948.279 621.249C943.881 612.617 953.098 603.401 961.729 607.799L1004.56 629.623C1008.42 631.59 1013.11 630.847 1016.17 627.784L1050.16 593.792C1057.01 586.942 1068.63 592.859 1067.11 602.427L1059.59 649.908C1058.92 654.186 1061.07 658.415 1064.93 660.382L1107.76 682.206C1116.39 686.604 1114.35 699.478 1104.79 700.993L1057.31 708.513C1053.03 709.191 1049.67 712.547 1048.99 716.826L1041.47 764.306C1039.96 773.874 1027.08 775.913 1022.69 767.282L1000.86 724.449C998.896 720.589 994.667 718.434 990.388 719.112L942.908 726.632C933.34 728.148 927.422 716.534 934.272 709.684L968.265 675.692C971.328 672.629 972.07 667.941 970.104 664.081L948.279 621.249Z" fill="#FCFCFC" stroke="black" stroke-width="30" stroke-linejoin="round"/>
<path d="M1191.12 475.363C1191.63 465.689 1204.22 462.315 1209.5 470.44L1235.68 510.756C1238.04 514.39 1242.47 516.091 1246.65 514.969L1293.09 502.527C1302.45 500.02 1309.54 510.951 1303.45 518.48L1273.2 555.839C1270.47 559.206 1270.22 563.945 1272.58 567.578L1298.76 607.895C1304.04 616.02 1295.84 626.149 1286.79 622.677L1241.91 605.45C1237.87 603.897 1233.28 605.126 1230.56 608.492L1200.3 645.852C1194.21 653.38 1182.04 648.709 1182.55 639.035L1185.06 591.029C1185.29 586.702 1182.71 582.722 1178.66 581.17L1133.78 563.942C1124.74 560.47 1125.42 547.454 1134.78 544.947L1181.21 532.505C1185.4 531.384 1188.38 527.695 1188.61 523.369L1191.12 475.363Z" fill="#FCFCFC" stroke="black" stroke-width="30" stroke-linejoin="round"/>
</svg>
