<svg width="3009" height="3009" viewBox="0 0 3009 3009" fill="none" xmlns="http://www.w3.org/2000/svg"><path d="M1671.06 504.59C1400.14 573.24 988.7 792.75 749.95 1035.62C706.57 1084.85 759.05 1124.74 789.78 1084.48C919.34 914.7 1500.4 578.69 1691.28 564C1750.71 559.43 1735.07 488.37 1671.06 504.59Z" fill="#BEBDBF" stroke="black" stroke-width="30" stroke-linejoin="round"/><path d="M1557.41 307.74C1286.49 376.39 875.04 595.9 636.3 838.76C592.92 888 645.4 927.89 676.13 887.63C805.69 717.85 1386.75 381.84 1577.63 367.15C1637.06 362.57 1621.42 291.52 1557.41 307.74Z" fill="#BEBDBF" stroke="black" stroke-width="30" stroke-linejoin="round"/><path d="M1589.99 364.17C1319.07 432.82 907.62 652.33 668.88 895.19C625.5 944.43 727.98 1070.93 758.71 1030.66C888.27 860.88 1469.32 524.87 1660.21 510.18C1719.64 505.61 1654 347.95 1589.99 364.17Z" fill="#BEBDBF" stroke="black" stroke-width="30" stroke-linejoin="round"/><path d="M1069.76 544.75C1067.75 535.27 1079.03 528.75 1086.23 535.24L1121.96 567.4C1125.18 570.3 1129.9 570.8 1133.65 568.63L1175.28 544.6C1183.67 539.75 1193.36 548.47 1189.42 557.32L1169.86 601.24C1168.1 605.2 1169.09 609.84 1172.31 612.74L1208.03 644.9C1215.23 651.39 1209.93 663.29 1200.3 662.28L1152.49 657.26C1148.18 656.8 1144.07 659.18 1142.31 663.13L1122.75 707.05C1118.81 715.9 1105.85 714.54 1103.84 705.06L1093.84 658.04C1092.94 653.8 1089.41 650.63 1085.1 650.17L1037.3 645.15C1027.66 644.14 1024.95 631.39 1033.34 626.54L1074.97 602.51C1078.72 600.34 1080.66 596.01 1079.75 591.77L1069.76 544.75Z" fill="#FCFCFC" stroke="black" stroke-width="30" stroke-linejoin="round"/></svg>