<svg width="3009" height="3009" viewBox="0 0 3009 3009" fill="none" xmlns="http://www.w3.org/2000/svg"><path d="M1666.13 501.68C1395.2 570.34 983.76 789.85 745.01 1032.71C701.64 1081.94 754.12 1121.84 784.84 1081.57C914.4 911.79 1495.46 575.78 1686.34 561.09C1745.78 556.52 1730.14 485.46 1666.13 501.68Z" fill="#BEBDBF" stroke="black" stroke-width="30" stroke-linejoin="round"/><path d="M1519.97 248.54C1249.05 317.19 837.61 536.7 598.86 779.56C555.49 828.8 607.97 868.69 638.69 828.43C768.25 658.65 1349.31 322.64 1540.19 307.95C1599.62 303.38 1583.98 232.32 1519.97 248.54Z" fill="#BEBDBF" stroke="black" stroke-width="30" stroke-linejoin="round"/><path d="M1552.55 304.96C1281.63 373.62 870.19 593.13 631.44 835.99C588.06 885.22 723.04 1068.01 753.77 1027.75C883.33 857.97 1464.39 521.96 1655.27 507.27C1714.7 502.7 1616.56 288.75 1552.55 304.96Z" fill="#BEBDBF" stroke="black" stroke-width="30" stroke-linejoin="round"/><path d="M948.28 621.25C943.88 612.62 953.1 603.4 961.73 607.8L1004.56 629.62C1008.42 631.59 1013.11 630.85 1016.17 627.78L1050.16 593.79C1057.01 586.94 1068.63 592.86 1067.11 602.43L1059.59 649.91C1058.92 654.19 1061.07 658.41 1064.93 660.38L1107.76 682.21C1116.39 686.6 1114.35 699.48 1104.79 700.99L1057.31 708.51C1053.03 709.19 1049.67 712.55 1048.99 716.83L1041.47 764.31C1039.96 773.87 1027.08 775.91 1022.69 767.28L1000.86 724.45C998.9 720.59 994.67 718.43 990.39 719.11L942.91 726.63C933.34 728.15 927.42 716.53 934.27 709.68L968.26 675.69C971.33 672.63 972.07 667.94 970.1 664.08L948.28 621.25Z" fill="#FCFCFC" stroke="black" stroke-width="30" stroke-linejoin="round"/><path d="M1191.12 475.36C1191.63 465.69 1204.22 462.31 1209.5 470.44L1235.68 510.76C1238.04 514.39 1242.47 516.09 1246.65 514.97L1293.09 502.53C1302.45 500.02 1309.54 510.95 1303.45 518.48L1273.2 555.84C1270.47 559.21 1270.22 563.95 1272.58 567.58L1298.76 607.89C1304.04 616.02 1295.84 626.15 1286.79 622.68L1241.91 605.45C1237.87 603.9 1233.28 605.13 1230.56 608.49L1200.3 645.85C1194.21 653.38 1182.04 648.71 1182.55 639.03L1185.06 591.03C1185.29 586.7 1182.71 582.72 1178.66 581.17L1133.78 563.94C1124.74 560.47 1125.42 547.45 1134.78 544.95L1181.21 532.5C1185.4 531.38 1188.38 527.7 1188.61 523.37L1191.12 475.36Z" fill="#FCFCFC" stroke="black" stroke-width="30" stroke-linejoin="round"/></svg>