<svg width="3009" height="3009" viewBox="0 0 3009 3009" fill="none" xmlns="http://www.w3.org/2000/svg"><g clip-path="url(#clip0_4368_3898)"><path d="M747.3 700.94C665.88 756.92 553.99 743.29 500.87 636.53C491.75 612.76 512.96 556.39 518.87 577.84C543.82 668.29 699.16 709.8 759.98 641.52C778.91 620.27 766.54 687.71 747.3 700.94Z" fill="#FCFCFC" stroke="black" stroke-width="30" stroke-linejoin="round"/><path d="M1389.15 330.38C1478.35 287.85 1522.49 184.14 1456.59 84.76C1440.57 64.97 1381.14 55.15 1396.76 71C1462.62 137.82 1420.89 293.12 1331.36 311.64C1303.48 317.42 1368.08 340.43 1389.15 330.38Z" fill="#FCFCFC" stroke="black" stroke-width="30" stroke-linejoin="round"/><path d="M1133.22 448.35C1222.41 405.82 1266.55 302.11 1200.65 202.73C1184.63 182.94 1125.2 173.12 1140.82 188.97C1206.69 255.8 1164.96 411.09 1075.43 429.62C1047.55 435.39 1112.14 458.4 1133.22 448.35Z" fill="#FCFCFC" stroke="black" stroke-width="30" stroke-linejoin="round"/><path d="M977.47 538.33C896.04 594.31 784.15 580.68 731.03 473.92C721.91 450.15 743.12 393.78 749.03 415.23C773.98 505.68 929.32 547.19 990.14 478.92C1009.07 457.66 996.7 525.1 977.47 538.33Z" fill="#FCFCFC" stroke="black" stroke-width="30" stroke-linejoin="round"/><path d="M1328.56 254.55C1133.24 279.55 852.82 423.42 706.33 613.01C680.43 652.15 725.75 696.19 743.33 663.51C817.49 525.72 1209.86 298.65 1352.2 311.98C1396.53 316.13 1374.71 248.64 1328.56 254.55Z" fill="#BEBDBF" stroke="black" stroke-width="30" stroke-linejoin="round"/><path d="M1673.96 508.31C1403.04 576.97 991.6 796.47 752.85 1039.34C709.48 1088.57 761.96 1128.47 792.68 1088.2C922.24 918.42 1503.3 582.41 1694.18 567.72C1753.61 563.15 1737.97 492.09 1673.96 508.31Z" fill="#BEBDBF" stroke="black" stroke-width="30" stroke-linejoin="round"/><path d="M1510.31 224.86C1239.39 293.51 827.95 513.02 589.2 755.88C545.82 805.12 598.3 845.01 629.03 804.75C758.59 634.97 1339.65 298.96 1530.53 284.27C1589.96 279.7 1574.32 208.64 1510.31 224.86Z" fill="#BEBDBF" stroke="black" stroke-width="30" stroke-linejoin="round"/><path d="M1542.89 281.29C1271.97 349.94 860.52 569.45 621.78 812.31C578.4 861.54 730.88 1074.64 761.61 1034.38C891.17 864.6 1472.22 528.59 1663.11 513.9C1722.54 509.33 1606.9 265.06 1542.89 281.29Z" fill="#BEBDBF" stroke="black" stroke-width="30" stroke-linejoin="round"/><path d="M850.97 682.82C846.57 674.18 855.79 664.97 864.42 669.37L907.25 691.19C911.11 693.16 915.8 692.41 918.87 689.35L952.86 655.36C959.71 648.51 971.32 654.43 969.8 663.99L962.28 711.47C961.61 715.75 963.76 719.98 967.62 721.95L1010.45 743.77C1019.09 748.17 1017.05 761.04 1007.48 762.56L960 770.08C955.72 770.76 952.36 774.11 951.69 778.39L944.17 825.87C942.65 835.44 929.78 837.48 925.38 828.85L903.55 786.02C901.59 782.15 897.36 780 893.08 780.68L845.6 788.2C836.03 789.71 830.12 778.1 836.97 771.25L870.96 737.26C874.02 734.2 874.76 729.51 872.8 725.65L850.97 682.82Z" fill="#FCFCFC" stroke="black" stroke-width="30" stroke-linejoin="round"/><path d="M1065.74 535.15C1063.73 525.67 1075.02 519.16 1082.21 525.64L1117.94 557.81C1121.16 560.71 1125.88 561.2 1129.63 559.03L1171.26 535C1179.65 530.15 1189.34 538.88 1185.4 547.73L1165.84 591.64C1164.08 595.6 1165.07 600.24 1168.29 603.14L1204.01 635.31C1211.21 641.79 1205.91 653.7 1196.28 652.68L1148.47 647.66C1144.16 647.21 1140.05 649.58 1138.29 653.54L1118.73 697.45C1114.79 706.3 1101.83 704.94 1099.82 695.47L1089.82 648.44C1088.92 644.21 1085.4 641.03 1081.09 640.58L1033.28 635.55C1023.64 634.54 1020.93 621.79 1029.32 616.95L1070.95 592.91C1074.71 590.75 1076.64 586.41 1075.74 582.17L1065.74 535.15Z" fill="#FCFCFC" stroke="black" stroke-width="30" stroke-linejoin="round"/><path d="M1299.11 418.4C1299.62 408.72 1312.21 405.35 1317.48 413.48L1343.66 453.79C1346.02 457.43 1350.46 459.13 1354.64 458L1401.07 445.56C1410.43 443.06 1417.53 453.99 1411.43 461.51L1381.18 498.87C1378.45 502.24 1378.21 506.98 1380.57 510.61L1406.75 550.93C1412.02 559.05 1403.82 569.18 1394.78 565.71L1349.9 548.49C1345.85 546.93 1341.27 548.16 1338.54 551.53L1308.29 588.89C1302.19 596.41 1290.03 591.74 1290.53 582.07L1293.05 534.06C1293.27 529.74 1290.69 525.76 1286.65 524.21L1241.77 506.98C1232.72 503.51 1233.4 490.49 1242.76 487.98L1289.2 475.54C1293.38 474.42 1296.37 470.73 1296.59 466.4L1299.11 418.4Z" fill="#FCFCFC" stroke="black" stroke-width="30" stroke-linejoin="round"/></g><defs><clipPath id="clip0_4368_3898"><rect width="3000" height="3000" fill="white" transform="translate(0 8.05) rotate(-.15)"/></clipPath></defs></svg>