<svg version="1.1" id="shirt_x5F_skull" xmlns="http://www.w3.org/2000/svg" xmlns:xlink="http://www.w3.org/1999/xlink" x="0px" y="0px" viewBox="0 0 3000 3000" xml:space="preserve"><g id="shirt_x5F_skull_x5F_backarm" transform="matrix(-2.9166107177734375, 0, 0, 2.9166107177734375, 1880.95,1719.3)"><g transform="matrix(1, 0, 0, 1, 0, 0)"><g><g id="Shirt_Sleeve_0_Layer0_0_FILL"><path fill="#817b7b" d="M15.6,43.5c-0.7,1.9-1.4,3.7-2,5.6c25.3,1.4,47.2,7.3,65.9,17.8c4.5-12.3,12.4-25.5,23.6-39.7L49.7,0 C33.7,10.8,22.4,25.3,15.6,43.5z"></path></g></g><g><path d="M79.6,71.9c0.6,0,1.2-0.1,1.7-0.3c1.4-0.5,2.5-1.6,3-3c4.3-11.7,12-24.6,22.8-38.4c1.7-2.2,1.3-5.3-0.8-7 c-2.2-1.7-5.3-1.3-7,0.8C89.3,36.7,81.9,48.7,77,59.9c-16.5-8.3-35.4-13.5-56.5-15.4c6.4-16.8,17.2-30.3,32-40.4 c2.3-1.5,2.9-4.7,1.3-6.9c-1.5-2.3-4.7-2.9-6.9-1.3C30.1,7.2,18,22.7,10.9,41.7c-0.7,1.9-1.4,3.8-2,5.7c-0.5,1.5-0.3,3.1,0.6,4.4 c0.9,1.3,2.3,2.1,3.9,2.2c24.4,1.3,45.8,7.2,63.8,17.2C77.9,71.7,78.7,71.9,79.6,71.9z"></path></g></g></g></svg>