<svg version="1.1" id="shirt_x5F_skull" xmlns="http://www.w3.org/2000/svg" xmlns:xlink="http://www.w3.org/1999/xlink" x="0px" y="0px" viewBox="0 0 3000 3000" xml:space="preserve"><g id="shirt_x5F_skull_x5F_frontarm" transform="matrix(2.9166107177734375, 0, 0, 2.9166107177734375, 1002.9,1719.3)"><g transform="matrix(1, 0, 0, 1, 0, 0)"><g><g id="Shirt_Sleeve_0_Layer0_0_FILL_00000092458790865610786650000010148960853393181082_"><path fill="#817b7b" d="M15.6,43.5c-0.7,1.9-1.4,3.7-2,5.6c25.3,1.4,47.2,7.3,65.9,17.8c4.5-12.3,12.4-25.5,23.6-39.7L49.7,0 C33.7,10.8,22.4,25.3,15.6,43.5z"></path></g></g><g><path d="M79.6,71.9c-0.8,0-1.7-0.2-2.5-0.6C59.2,61.2,37.7,55.4,13.3,54c-1.6-0.1-3-0.9-3.9-2.2c-0.9-1.3-1.1-2.9-0.6-4.4 c0.7-1.9,1.3-3.8,2-5.7c7.1-19,19.2-34.5,36-45.8c2.3-1.5,5.4-0.9,6.9,1.3c1.5,2.3,0.9,5.4-1.3,6.9c-14.9,10.1-25.6,23.6-32,40.4 c21,1.9,40,7,56.5,15.4c4.9-11.2,12.3-23.2,22.2-35.8c1.7-2.2,4.9-2.5,7-0.8c2.2,1.7,2.5,4.9,0.8,7C96.3,44,88.6,56.9,84.2,68.7 c-0.5,1.4-1.6,2.5-3,3C80.7,71.8,80.1,71.9,79.6,71.9z"></path></g></g></g></svg>