<svg xmlns="http://www.w3.org/2000/svg"><symbol id="default" viewBox="0 0 3000 3000"></symbol><symbol id="body" viewBox="0 0 3000 3000"><g id="soccer-team-shirt-body-shirt_x5F_soccerteam_x5F_body" transform="matrix(2.92, 0, 0, 2.92, 956.65,1516.1)"><g><clipPath id="soccer-team-shirt-body-soccer-team-shirt-R0-shirt-body-US"><path d="M251.1,46.7c-1.5-1.5-3-3-4.5-4.5c-6.2-6-13.1-11.5-20.6-16.5c-6.6-4.4-13.6-8.4-21.1-11.9C193.7,8.4,182,4.5,169.7,2.2c-1.4-.3-2.8-.5-4.2-.7c-2.9-.4-5.7-.8-8.6-1.1c-.2,0-.5-.1-.8-.1c-.7,0-1.4-.1-2.1-.1l-2.7-.1c-.2,0-.4,0-.6,0h-1.4c-.3,0-.7,0-1,0H145c-.3,0-.7,0-1.1,0c0,0-.1,0-.1,0h-1.2c-.4,0-.8,0-1.1,0c-1.1,0-2.1,.1-3.2,.1c-.4,0-.8,.1-1.2,.1c-1.5,.1-3,.3-4.4,.5c-2.5,.3-5,.7-7.4,1.1c-1.6,.3-3.2,.6-4.8,.9c-11.1,2.3-21.8,6-32.1,10.9C44.2,34.9,16.9,69,6.4,115.9c-3,20.3-4.9,40.2-5.9,59.6c-.2,3.5-.3,7.1-.4,10.6c-.1,7.8,.3,15.1,1.3,22c.1,1.1,.3,2.1,.5,3.2c106.9,25.4,202.9,27.8,288.2,7.3c1.5-8.2,2.3-14,2.6-17.5c.4-4.8,.6-9.8,.5-15c-.8-22.8-2.9-46.2-6.4-70.2c-2.8-12.3-6.7-23.8-11.8-34.3c-.5-1.1-1.1-2.1-1.6-3.2c-.7-1.3-1.4-2.6-2.1-3.9c-.7-1.3-1.4-2.6-2.2-3.8c-1.6-2.7-3.3-5.3-5.1-7.9c-2.9-4.1-6-8.1-9.2-11.9C253.6,49.5,252.4,48.1,251.1,46.7z"></path></clipPath><g clip-path="url(#soccer-team-shirt-body-soccer-team-shirt-R0-shirt-body-US)"><rect x="0" y="0" width="294" height="224" fill="#ffffff"></rect><rect x="0" y="40.32" width="294" height="26.88" fill="#dc2626"></rect><rect x="0" y="100.8" width="294" height="26.88" fill="#1d4ed8"></rect><rect x="0" y="0" width="123.48" height="112" fill="#1d4ed8"></rect><circle cx="58.8" cy="51.52" r="17.92" fill="#dc2626"></circle><rect x="112.28" y="87.82" width="69.44" height="48.36" rx="8.68" fill="#ffffff" stroke="#050916" stroke-width="5"></rect><g opacity=".34"><rect x="116.03" y="91.57" width="61.94" height="40.86" fill="#ffffff"></rect><rect x="116.03" y="98.92" width="61.94" height="4.9" fill="#dc2626"></rect><rect x="116.03" y="109.96" width="61.94" height="4.9" fill="#1d4ed8"></rect><rect x="116.03" y="91.57" width="26.01" height="20.43" fill="#1d4ed8"></rect><circle cx="128.42" cy="100.97" r="3.27" fill="#dc2626"></circle></g><text x="147" y="120.7" text-anchor="middle" font-family="Arial, Helvetica, sans-serif" font-size="43.4" font-weight="900" letter-spacing="0" textLength="47.22" lengthAdjust="spacingAndGlyphs" stroke="#ffffff" stroke-width="3.47" paint-order="stroke" fill="#050916">US</text></g><path d="M103 8 C119 -2 176 -3 205 13 L184 45 C161 31 133 31 111 45Z" fill="#ffffff" stroke="#050916" stroke-linejoin="round" stroke-width="5"></path><path d="M118 34 C142 48 166 48 183 34" fill="none" stroke="#dc2626" stroke-linecap="round" stroke-width="5"></path><path d="M6.3,207.2c51.7,12.1,101.4,18.8,147.9,20c46.2,1.2,90.4-3.1,131.6-12.6c1.1-6.3,1.8-11,2-13.9c.4-4.6,.6-9.5,.5-14.4c-.8-22.4-2.9-45.8-6.3-69.4c-2.7-11.8-6.5-22.9-11.3-33c-.5-1-1-2.1-1.5-3.1l-2-3.8c-.7-1.2-1.4-2.4-2.1-3.6c-1.5-2.6-3.2-5.2-4.9-7.7c-2.7-4-5.7-7.8-8.9-11.5c-1.2-1.4-2.5-2.8-3.7-4.1c-1.4-1.5-2.9-2.9-4.3-4.3c-6-5.8-12.7-11.1-19.9-15.9c-6.3-4.2-13.2-8.1-20.5-11.6c-10.8-5.2-22.2-8.9-34-11.1c-1.4-.3-2.7-.5-4.1-.7c-2.8-.4-5.5-.8-8.3-1.1c-.7,0-1.3-.1-1.9-.1L151.1,5c-.2,0-.3,0-.5,0h-8c-.2,0-.4,0-.6,0l-3.1,.1c-.3,0-.7,.1-1.1,.1c-1.4,.1-2.8,.3-4.1,.5c-2.4,.3-4.8,.7-7.1,1.1c-1.5,.2-3,.5-4.5,.9c-10.7,2.2-21.1,5.8-31,10.5c-21.3,10.2-38.7,23.7-51.8,40c-13.1,16.3-22.3,36-27.3,58.6c-2.9,20-4.9,39.8-5.9,58.9c-.2,3.5-.3,7-.4,10.4C4.9,193.6,5.3,200.7,6.3,207.2z" fill="none" stroke="#050916" stroke-linecap="round" stroke-linejoin="round" stroke-width="5"></path></g></g></symbol><symbol id="left" viewBox="0 0 3000 3000"><g id="soccer-team-shirt-left-shirt_x5F_soccerteam_x5F_backarm" transform="matrix(-2.92, 0, 0, 2.92, 1880.95,1719.3)"><g><clipPath id="soccer-team-shirt-left-soccer-team-shirt-R0-shirt-sleeve-US"><path d="M15.6,43.5c-.7,1.9-1.4,3.7-2,5.6c25.3,1.4,47.2,7.3,65.9,17.8c4.5-12.3,12.4-25.5,23.6-39.7L49.7,0C33.7,10.8,22.4,25.3,15.6,43.5z"></path></clipPath><g clip-path="url(#soccer-team-shirt-left-soccer-team-shirt-R0-shirt-sleeve-US)"><path d="M15.6,43.5c-.7,1.9-1.4,3.7-2,5.6c25.3,1.4,47.2,7.3,65.9,17.8c4.5-12.3,12.4-25.5,23.6-39.7L49.7,0C33.7,10.8,22.4,25.3,15.6,43.5z" fill="#1d4ed8"></path><path d="M27 11 L96 45 L88 62 L17 27Z" fill="#ffffff" opacity=".95"></path><path d="M13 45 C35 46 58 52 80 64" fill="none" stroke="#dc2626" stroke-linecap="round" stroke-width="8"></path></g><path d="M79.6,71.9c.6,0,1.2-.1,1.7-.3c1.4-.5,2.5-1.6,3-3c4.3-11.7,12-24.6,22.8-38.4c1.7-2.2,1.3-5.3-.8-7c-2.2-1.7-5.3-1.3-7,.8C89.3,36.7,81.9,48.7,77,59.9c-16.5-8.3-35.4-13.5-56.5-15.4c6.4-16.8,17.2-30.3,32-40.4c2.3-1.5,2.9-4.7,1.3-6.9c-1.5-2.3-4.7-2.9-6.9-1.3C30.1,7.2,18,22.7,10.9,41.7c-.7,1.9-1.4,3.8-2,5.7c-.5,1.5-.3,3.1,.6,4.4c.9,1.3,2.3,2.1,3.9,2.2c24.4,1.3,45.8,7.2,63.8,17.2C77.9,71.7,78.7,71.9,79.6,71.9z" fill="none" stroke="#050916" stroke-width="4.5" stroke-linejoin="round"></path><path d="M29 18 L86 46" fill="none" stroke="#ffffff" stroke-linecap="round" stroke-width="4" opacity=".72"></path></g></g></symbol><symbol id="right" viewBox="0 0 3000 3000"><g id="soccer-team-shirt-right-shirt_x5F_soccerteam_x5F_frontarm" transform="matrix(2.92, 0, 0, 2.92, 1002.9,1719.3)"><g><clipPath id="soccer-team-shirt-right-soccer-team-shirt-R0-shirt-sleeve-US"><path d="M15.6,43.5c-.7,1.9-1.4,3.7-2,5.6c25.3,1.4,47.2,7.3,65.9,17.8c4.5-12.3,12.4-25.5,23.6-39.7L49.7,0C33.7,10.8,22.4,25.3,15.6,43.5z"></path></clipPath><g clip-path="url(#soccer-team-shirt-right-soccer-team-shirt-R0-shirt-sleeve-US)"><path d="M15.6,43.5c-.7,1.9-1.4,3.7-2,5.6c25.3,1.4,47.2,7.3,65.9,17.8c4.5-12.3,12.4-25.5,23.6-39.7L49.7,0C33.7,10.8,22.4,25.3,15.6,43.5z" fill="#1d4ed8"></path><path d="M27 11 L96 45 L88 62 L17 27Z" fill="#ffffff" opacity=".95"></path><path d="M13 45 C35 46 58 52 80 64" fill="none" stroke="#dc2626" stroke-linecap="round" stroke-width="8"></path></g><path d="M79.6,71.9c.6,0,1.2-.1,1.7-.3c1.4-.5,2.5-1.6,3-3c4.3-11.7,12-24.6,22.8-38.4c1.7-2.2,1.3-5.3-.8-7c-2.2-1.7-5.3-1.3-7,.8C89.3,36.7,81.9,48.7,77,59.9c-16.5-8.3-35.4-13.5-56.5-15.4c6.4-16.8,17.2-30.3,32-40.4c2.3-1.5,2.9-4.7,1.3-6.9c-1.5-2.3-4.7-2.9-6.9-1.3C30.1,7.2,18,22.7,10.9,41.7c-.7,1.9-1.4,3.8-2,5.7c-.5,1.5-.3,3.1,.6,4.4c.9,1.3,2.3,2.1,3.9,2.2c24.4,1.3,45.8,7.2,63.8,17.2C77.9,71.7,78.7,71.9,79.6,71.9z" fill="none" stroke="#050916" stroke-width="4.5" stroke-linejoin="round"></path><path d="M29 18 L86 46" fill="none" stroke="#ffffff" stroke-linecap="round" stroke-width="4" opacity=".72"></path></g></g></symbol></svg>