<svg xmlns="http://www.w3.org/2000/svg"><symbol id="rightLeg" viewBox="0 0 3000 3000"><g id="soccer-team-swim-trunks-rightLeg-pants_x5F_soccerteam_x5F_swimtrunks_x5F_backleg" transform="matrix(2.92, 0, 0, 2.92, 1463.45,1961.9)"><g><clipPath id="soccer-team-swim-trunks-rightLeg-soccer-team-trunks-R0-trunks-back-leg-US"><path d="M-5.5 102.2 C9.5 95.5 34.5 90.5 69.2 92.5 C80.4 94 91 98.2 97.2 102.2 V149.6 L84.2 149.8 L10.3 148.9 L-5.5 148.3Z"></path></clipPath><g clip-path="url(#soccer-team-swim-trunks-rightLeg-soccer-team-trunks-R0-trunks-back-leg-US)"><rect x="-7" y="90" width="106" height="64" fill="#ffffff"></rect><rect x="-7" y="101.52" width="106" height="7.68" fill="#dc2626"></rect><rect x="-7" y="118.8" width="106" height="7.68" fill="#1d4ed8"></rect><rect x="-7" y="90" width="44.52" height="32" fill="#1d4ed8"></rect><circle cx="14.2" cy="104.72" r="5.12" fill="#dc2626"></circle></g><path d="M-5.5 102.2 V148.3 L10.3 148.9 L84.2 149.8 L97.2 149.6 V102.2" fill="none" stroke="#050916" stroke-linecap="round" stroke-linejoin="round" stroke-width="4.5"></path></g></g></symbol><symbol id="leftLeg" viewBox="0 0 3000 3000"><g id="soccer-team-swim-trunks-leftLeg-pants_x5F_soccerteam_x5F_swimtrunks_x5F_frontleg" transform="matrix(2.92, 0, 0, 2.92, 1042.6,1961.9)"><g><clipPath id="soccer-team-swim-trunks-leftLeg-soccer-team-trunks-R0-trunks-front-leg-US"><path d="M-5.5 102.2 C9.5 95.5 34.5 90.5 69.2 92.5 C80.4 94 91 98.2 97.2 102.2 V149.6 L84.2 149.8 L10.3 148.9 L-5.5 148.3Z"></path></clipPath><g clip-path="url(#soccer-team-swim-trunks-leftLeg-soccer-team-trunks-R0-trunks-front-leg-US)"><rect x="-7" y="90" width="106" height="64" fill="#ffffff"></rect><rect x="-7" y="101.52" width="106" height="7.68" fill="#dc2626"></rect><rect x="-7" y="118.8" width="106" height="7.68" fill="#1d4ed8"></rect><rect x="-7" y="90" width="44.52" height="32" fill="#1d4ed8"></rect><circle cx="14.2" cy="104.72" r="5.12" fill="#dc2626"></circle></g><path d="M-5.5 102.2 V148.3 L10.3 148.9 L84.2 149.8 L97.2 149.6 V102.2" fill="none" stroke="#050916" stroke-linecap="round" stroke-linejoin="round" stroke-width="4.5"></path></g></g></symbol></svg>