<svg version="1.1" id="shirt_x5F_striped" xmlns="http://www.w3.org/2000/svg" xmlns:xlink="http://www.w3.org/1999/xlink" x="0px" y="0px" viewBox="0 0 3000 3000" xml:space="preserve"><g id="shirt_x5F_striped_x5F_frontarm" transform="matrix(2.9166107177734375, 0, 0, 2.9166107177734375, 1002.9,1719.3)"><g transform="matrix(1, 0, 0, 1, 0, 0)"><g><g id="Shirt_Sleeve_6_Layer0_0_FILL_00000068640702799464724310000002235644648649362608_"><path fill="#b6e0df" d="M5.4,79.7C4.7,84,4,88.3,3.4,92.5c-0.7,5.4-1.3,10.8-1.9,16.1c22.8-2.2,45.5,0.3,68,7.7 c0.7-7.4,1.7-14.9,3.1-22.3C51.6,85.2,29.2,80.4,5.4,79.7 M81.3,62.3c2.7-6.4,6.3-13,10.8-19.8C74.7,27,54.5,18.1,31.7,15.9 c-6.9,8-12.3,17.2-16.1,27.5c-0.1,0.3-0.2,0.5-0.3,0.8c25.2,1.9,47,8.3,65.6,19.2C81.1,63.1,81.2,62.7,81.3,62.3z"></path><path fill="#495f5f" d="M5.7,78.5c-0.1,0.4-0.2,0.8-0.2,1.2c23.8,0.6,46.2,5.4,67.2,14.3c0.3-1.6,0.6-3.2,0.9-4.9 c1.1-5,2.3-10.1,3.7-15.1c0.9-3.4,2.1-7,3.7-10.5C62.3,52.6,40.5,46.1,15.3,44.2c-0.9,2.5-1.8,5.1-2.7,7.6 C9.7,60.7,7.4,69.5,5.7,78.5 M92.1,42.5c3.2-5,6.9-10.1,11.1-15.3C81.3,13.3,63.5,4.2,49.7,0c-6.8,4.6-12.8,9.9-18,15.9 C54.5,18.1,74.7,27,92.1,42.5z"></path></g></g><g><path d="M69.6,121.4c-0.5,0-1-0.1-1.6-0.2c-21.8-7.1-44-9.6-66-7.5c-1.5,0.1-3-0.4-4-1.5c-1.1-1.1-1.6-2.6-1.4-4.1 c0.6-5.4,1.2-10.8,1.9-16.2c0.6-4.4,1.2-8.7,2.1-13c0,0,0-0.1,0-0.1c0.1-0.4,0.1-0.8,0.2-1.2c1.8-9.2,4.2-18.3,7.1-27.3 c0.9-2.6,1.8-5.2,2.7-7.7c0-0.1,0.1-0.2,0.1-0.2l0.3-0.7C15,30.8,20.7,21,28,12.6c0,0,0,0,0,0c5.4-6.3,11.8-11.9,19-16.8 c2.3-1.5,5.4-0.9,6.9,1.3c1.5,2.3,0.9,5.4-1.3,6.9c-3.7,2.5-7.2,5.2-10.4,8.2c18,3.3,34.4,11,48.9,22.8c2.5-3.6,5.2-7.3,8.1-11 c1.7-2.2,4.9-2.5,7-0.8c2.2,1.7,2.5,4.9,0.8,7c-4,5.1-7.6,10.1-10.8,14.9c0,0,0,0,0,0c0,0,0,0,0,0c-4.3,6.6-7.8,13-10.3,19.1 c-0.1,0.3-0.3,0.6-0.4,0.9c0,0.1-0.1,0.2-0.1,0.2c-1.4,3.4-2.5,6.7-3.4,9.9c-1.3,4.9-2.5,9.9-3.6,14.9c-0.3,1.5-0.6,3.1-0.9,4.6 c0,0.1,0,0.1,0,0.2c-1.4,7.3-2.4,14.6-3,21.8c-0.1,1.5-1,2.9-2.2,3.7C71.5,121.1,70.6,121.4,69.6,121.4z M17.3,102.9 c16,0,32.1,2.3,47.9,6.9c0.5-4.2,1.1-8.4,1.8-12.7C49,90,29.7,85.9,9.6,84.9c-0.5,2.7-0.9,5.5-1.2,8.3c-0.4,3.3-0.8,6.7-1.2,10.1 C10.6,103,14,102.9,17.3,102.9z M11.5,75c20,1.1,39.3,5.2,57.4,12.2c1-4.8,2.2-9.6,3.5-14.4c0.6-2.3,1.4-4.7,2.2-7 c-16.1-8.7-34.9-14.2-56-16.2c-0.5,1.3-0.9,2.6-1.3,3.9C15.1,60.5,13.1,67.8,11.5,75z M22.5,39.9c20.9,2.3,39.7,7.9,56.1,16.6 c2-4.2,4.4-8.5,7-12.9C70.4,31,53.1,23.5,33.9,21.2C29.3,26.8,25.5,33.1,22.5,39.9z"></path></g></g></g></svg>