<svg version="1.1" id="shirt_x5F_striped" xmlns="http://www.w3.org/2000/svg" xmlns:xlink="http://www.w3.org/1999/xlink" x="0px" y="0px" viewBox="0 0 3000 3000" xml:space="preserve"><g id="shirt_x5F_striped_x5F_backarm" transform="matrix(-2.9166107177734375, 0, 0, 2.9166107177734375, 1880.95,1719.3)"><g transform="matrix(1, 0, 0, 1, 0, 0)"><g><g id="Shirt_Sleeve_6_Layer0_0_FILL"><path fill="#b6e0df" d="M5.4,79.7C4.7,84,4,88.3,3.4,92.5c-0.7,5.4-1.3,10.8-1.9,16.1c22.8-2.2,45.5,0.3,68,7.7 c0.7-7.4,1.7-14.9,3.1-22.3C51.6,85.2,29.2,80.4,5.4,79.7 M81.3,62.3c2.7-6.4,6.3-13,10.8-19.8C74.7,27,54.5,18.1,31.7,15.9 c-6.9,8-12.3,17.2-16.1,27.5c-0.1,0.3-0.2,0.5-0.3,0.8c25.2,1.9,47,8.3,65.6,19.2C81.1,63.1,81.2,62.7,81.3,62.3z"></path><path fill="#495f5f" d="M5.7,78.5c-0.1,0.4-0.2,0.8-0.2,1.2c23.8,0.6,46.2,5.4,67.2,14.3c0.3-1.6,0.6-3.2,0.9-4.9 c1.1-5,2.3-10.1,3.7-15.1c0.9-3.4,2.1-7,3.7-10.5C62.3,52.6,40.5,46.1,15.3,44.2c-0.9,2.5-1.8,5.1-2.7,7.6 C9.7,60.7,7.4,69.5,5.7,78.5 M92.1,42.5c3.2-5,6.9-10.1,11.1-15.3C81.3,13.3,63.5,4.2,49.7,0c-6.8,4.6-12.8,9.9-18,15.9 C54.5,18.1,74.7,27,92.1,42.5z"></path></g></g><g><path d="M69.6,121.4c1,0,1.9-0.3,2.8-0.8c1.3-0.8,2.1-2.2,2.2-3.7c0.6-7.2,1.6-14.5,3-21.8c0-0.1,0-0.1,0-0.2 c0.3-1.5,0.6-3.1,0.9-4.6c1-4.9,2.2-9.9,3.6-14.9c0.9-3.2,2-6.5,3.4-9.9c0-0.1,0.1-0.2,0.1-0.2c0.1-0.3,0.3-0.6,0.4-0.9 c2.6-6.1,6.1-12.5,10.3-19.1c0,0,0,0,0,0c3.1-4.8,6.7-9.9,10.8-14.9c1.7-2.2,1.3-5.3-0.8-7c-2.2-1.7-5.3-1.3-7,0.8 c-2.9,3.7-5.6,7.4-8.1,11C76.5,23.3,60.1,15.7,42.2,12.3c3.2-2.9,6.7-5.7,10.4-8.2c2.3-1.5,2.9-4.7,1.3-6.9 c-1.5-2.3-4.7-2.9-6.9-1.3C39.8,0.7,33.4,6.4,28,12.6c0,0,0,0,0,0c-7.3,8.4-13,18.2-17,29.1l-0.3,0.7c0,0.1-0.1,0.2-0.1,0.2 c-0.9,2.5-1.8,5.1-2.7,7.7c-2.9,8.9-5.3,18.1-7.1,27.3c-0.1,0.4-0.1,0.8-0.2,1.2c0,0,0,0.1,0,0.1c-0.8,4.3-1.5,8.7-2.1,13 c-0.7,5.4-1.3,10.9-1.9,16.2c-0.2,1.5,0.4,3,1.4,4.1c1.1,1.1,2.5,1.6,4,1.5c22-2.2,44.2,0.4,66,7.5 C68.6,121.3,69.1,121.4,69.6,121.4z M67,97.2c-0.7,4.2-1.3,8.5-1.8,12.7c-19.2-5.6-38.7-7.8-58-6.6c0.4-3.4,0.8-6.7,1.2-10.1 c0.3-2.7,0.8-5.5,1.2-8.3C29.7,85.9,49,90,67,97.2z M74.7,65.7c-0.9,2.4-1.6,4.7-2.2,7c-1.3,4.8-2.5,9.6-3.5,14.4 c-18.1-7-37.4-11-57.4-12.2c1.6-7.3,3.5-14.5,5.8-21.5c0.4-1.3,0.9-2.6,1.3-3.9C39.8,51.6,58.6,57,74.7,65.7z M85.6,43.5 c-2.7,4.4-5,8.7-7,12.9c-16.4-8.7-35.2-14.3-56.1-16.6c3.1-6.8,6.9-13.1,11.4-18.7C53.1,23.5,70.4,31,85.6,43.5z"></path></g></g></g></svg>