<svg xmlns="http://www.w3.org/2000/svg"><symbol id="default" viewBox="0 0 3000 3000"><path fill="#000" d="M1835.2 889.42c-.87-60.67-21.58-108.79-61.83-144.08-39.96-35.58-98.29-38.5-175-9.33-61.83 23.63-114.33 50.46-157.79 80.79-49 33.54-104.41 44.92-165.66 33.83-49.87-11.38-107.62-15.75-172.66-13.42-80.79 3.21-134.75 29.17-161.29 78.17-26.54 49.29-30.62 102.67-12.83 160.12 18.08 57.17 51.04 99.17 98.88 126 47.83 26.54 101.5 33.83 160.99 21.88 53.38-11.09 97.42-34.71 132.13-70.88 49.87-44.04 107.33-55.7 172.37-35.58 43.75 20.42 92.45 25.37 145.83 14.29 59.5-12.25 107.33-40.25 143.79-84 36.46-44.33 54.25-96.83 53.08-157.79ZM1706.29 813.3c23.62 18.38 35.58 45.5 36.16 81.08.29 35.58-10.21 67.37-31.79 95.96-21.58 28-50.16 47.54-85.46 58.62-35.29 11.09-71.45 10.79-108.79-.87-37.04-11.38-60.08-33.54-69.41-65.92-9.04-32.37 3.21-62.41 36.75-89.25 33.54-27.13 73.21-51.62 119-73.5 45.2-22.17 79.91-24.21 103.54-6.13Zm-680.74 137.66c16.62-26.54 49.87-38.79 99.16-36.17 49.29 2.33 94.21 9.63 134.17 21.58 39.66 11.96 60.66 35 62.41 69.42 1.46 33.83-13.41 63.58-44.33 88.95-31.21 25.38-65.33 40.25-101.79 44.04-36.16 3.8-68.83-3.2-98-20.7-29.16-17.8-49.29-43.46-60.08-77-11.08-33.83-8.17-63.88 8.46-90.13Z"></path><path fill="#000" d="M1134.34 1243.5c-41.12 0-79.33-9.92-114.33-29.17-51.04-28.58-86.33-73.79-105.58-134.45-19.25-61.25-14.58-119 13.71-171.5 29.17-53.67 87.79-82.54 173.83-85.75 66.2-2.33 125.41 2.33 176.16 13.71 28.58 4.96 56 4.96 81.66-.292 25.67-5.25 50.17-15.75 72.92-31.21 44.04-30.92 98-58.62 160.71-82.54 81.95-31.21 145.83-27.12 189.87 11.96 43.16 38.21 65.62 90.12 66.79 154.87 1.16 64.17-17.79 120.46-56.59 167.12-38.49 46.09-89.54 76.13-151.95 89.25-56 11.38-107.62 6.42-154-15.16-59.79-18.38-111.12-7.59-156.91 32.37-36.46 37.92-83.42 63-139.42 74.67-19.54 4.08-38.49 6.12-56.87 6.12Zm.58-392.28c-10.5 0-21.29.292-32.08.584-38.21 1.46-70.29 8.46-95.08 20.42-24.21 11.67-42 28.29-53.96 50.17-12.25 22.75-19.25 46.66-21.29 71.17-2.04 24.79 1.17 50.75 9.63 77.58s20.71 50.16 35.87 69.71c15.17 19.25 34.12 35.58 56.29 47.83 44.63 24.79 95.37 31.5 151.08 20.41 50.17-10.2 92.17-32.66 124.54-66.79.29-.29.58-.58.88-.87 53.66-47.25 116.37-60.37 186.08-38.5.58.29 1.16.29 1.75.58 40.83 18.96 86.62 23.63 136.78 13.42 55.71-11.67 101.5-38.21 135.63-79.33 34.12-41.13 50.75-91 49.87-148.17-.87-56.87-19.54-100.62-56.87-133.58-17.79-15.75-38.79-23.92-65.04-25.37-27.13-1.46-59.21 4.96-95.38 18.67-60.37 23.04-112.29 49.58-154.58 79.04h-.29c-52.21 35.58-111.41 47.83-176.45 36.17h-.59c-39.95-8.46-86.04-13.13-136.79-13.13Zm21 303.03c-31.5 0-60.66-7.87-86.62-23.91-32.08-19.84-54.54-48.13-66.5-84.88v-.29c-11.96-37.62-8.46-72.04 10.5-102.08 19.54-31.21 57.46-45.79 112.29-42.88 50.17 2.33 96.54 9.92 137.67 22.17 57.45 17.21 71.16 54.25 72.62 82.54 1.75 38.5-14.88 72.63-49.88 100.92-33.54 27.12-70.29 43.16-109.66 47.25-6.71.87-13.71 1.16-20.42 1.16Zm-125.41-117.83c9.92 30.33 27.71 52.79 53.96 69.12 26.54 16.05 55.41 22.17 88.95 18.67 33.54-3.5 65.34-17.21 94.21-40.83 27.71-22.75 40.54-47.83 39.08-77-1.46-28-17.79-45.79-51.91-56-38.79-11.67-82.83-18.67-130.67-21-43.75-2.33-72.62 7.58-86.33 29.46-14.29 22.75-16.62 48.12-7.29 77.58Zm542.2 34.71c-20.13 0-40.54-3.21-60.96-9.63-42-12.83-68.54-38.5-79.04-75.83-5.25-19.25-4.37-38.21 2.92-56 7-17.21 19.83-33.54 38.5-48.42 34.41-27.71 75.54-53.08 121.91-75.25 50.46-24.5 90.71-25.96 119-4.38 27.12 21 41.12 52.21 41.71 92.46.29 38.79-11.38 74.08-35 105-23.63 30.33-54.54 51.91-92.75 63.58-18.09 5.83-37.04 8.46-56.29 8.46ZM1461 977.8c7.88 27.71 27.42 45.79 59.79 56 34.13 10.5 67.96 10.79 100.04.87 32.08-9.92 58.63-28 78.17-53.37 19.83-25.96 29.16-54.25 28.87-86.62-.29-31.21-10.5-53.96-30.33-69.71-18.96-14.29-48.71-11.96-88.67 7.29-44.62 21.29-83.7 45.21-116.08 71.46-42.87 34.71-34.71 64.46-31.79 74.08Z"></path></symbol><symbol id="body" viewBox="0 0 3000 3000"><path fill="#000" d="M1835.2 889.42c-.87-60.67-21.58-108.79-61.83-144.08-39.96-35.58-98.29-38.5-175-9.33-61.83 23.63-114.33 50.46-157.79 80.79-49 33.54-104.41 44.92-165.66 33.83-49.87-11.38-107.62-15.75-172.66-13.42-80.79 3.21-134.75 29.17-161.29 78.17-26.54 49.29-30.62 102.67-12.83 160.12 18.08 57.17 51.04 99.17 98.88 126 47.83 26.54 101.5 33.83 160.99 21.88 53.38-11.09 97.42-34.71 132.13-70.88 49.87-44.04 107.33-55.7 172.37-35.58 43.75 20.42 92.45 25.37 145.83 14.29 59.5-12.25 107.33-40.25 143.79-84 36.46-44.33 54.25-96.83 53.08-157.79ZM1706.29 813.3c23.62 18.38 35.58 45.5 36.16 81.08.29 35.58-10.21 67.37-31.79 95.96-21.58 28-50.16 47.54-85.46 58.62-35.29 11.09-71.45 10.79-108.79-.87-37.04-11.38-60.08-33.54-69.41-65.92-9.04-32.37 3.21-62.41 36.75-89.25 33.54-27.13 73.21-51.62 119-73.5 45.2-22.17 79.91-24.21 103.54-6.13Zm-680.74 137.66c16.62-26.54 49.87-38.79 99.16-36.17 49.29 2.33 94.21 9.63 134.17 21.58 39.66 11.96 60.66 35 62.41 69.42 1.46 33.83-13.41 63.58-44.33 88.95-31.21 25.38-65.33 40.25-101.79 44.04-36.16 3.8-68.83-3.2-98-20.7-29.16-17.8-49.29-43.46-60.08-77-11.08-33.83-8.17-63.88 8.46-90.13Z"></path><path fill="#000" d="M1134.34 1243.5c-41.12 0-79.33-9.92-114.33-29.17-51.04-28.58-86.33-73.79-105.58-134.45-19.25-61.25-14.58-119 13.71-171.5 29.17-53.67 87.79-82.54 173.83-85.75 66.2-2.33 125.41 2.33 176.16 13.71 28.58 4.96 56 4.96 81.66-.292 25.67-5.25 50.17-15.75 72.92-31.21 44.04-30.92 98-58.62 160.71-82.54 81.95-31.21 145.83-27.12 189.87 11.96 43.16 38.21 65.62 90.12 66.79 154.87 1.16 64.17-17.79 120.46-56.59 167.12-38.49 46.09-89.54 76.13-151.95 89.25-56 11.38-107.62 6.42-154-15.16-59.79-18.38-111.12-7.59-156.91 32.37-36.46 37.92-83.42 63-139.42 74.67-19.54 4.08-38.49 6.12-56.87 6.12Zm.58-392.28c-10.5 0-21.29.292-32.08.584-38.21 1.46-70.29 8.46-95.08 20.42-24.21 11.67-42 28.29-53.96 50.17-12.25 22.75-19.25 46.66-21.29 71.17-2.04 24.79 1.17 50.75 9.63 77.58s20.71 50.16 35.87 69.71c15.17 19.25 34.12 35.58 56.29 47.83 44.63 24.79 95.37 31.5 151.08 20.41 50.17-10.2 92.17-32.66 124.54-66.79.29-.29.58-.58.88-.87 53.66-47.25 116.37-60.37 186.08-38.5.58.29 1.16.29 1.75.58 40.83 18.96 86.62 23.63 136.78 13.42 55.71-11.67 101.5-38.21 135.63-79.33 34.12-41.13 50.75-91 49.87-148.17-.87-56.87-19.54-100.62-56.87-133.58-17.79-15.75-38.79-23.92-65.04-25.37-27.13-1.46-59.21 4.96-95.38 18.67-60.37 23.04-112.29 49.58-154.58 79.04h-.29c-52.21 35.58-111.41 47.83-176.45 36.17h-.59c-39.95-8.46-86.04-13.13-136.79-13.13Zm21 303.03c-31.5 0-60.66-7.87-86.62-23.91-32.08-19.84-54.54-48.13-66.5-84.88v-.29c-11.96-37.62-8.46-72.04 10.5-102.08 19.54-31.21 57.46-45.79 112.29-42.88 50.17 2.33 96.54 9.92 137.67 22.17 57.45 17.21 71.16 54.25 72.62 82.54 1.75 38.5-14.88 72.63-49.88 100.92-33.54 27.12-70.29 43.16-109.66 47.25-6.71.87-13.71 1.16-20.42 1.16Zm-125.41-117.83c9.92 30.33 27.71 52.79 53.96 69.12 26.54 16.05 55.41 22.17 88.95 18.67 33.54-3.5 65.34-17.21 94.21-40.83 27.71-22.75 40.54-47.83 39.08-77-1.46-28-17.79-45.79-51.91-56-38.79-11.67-82.83-18.67-130.67-21-43.75-2.33-72.62 7.58-86.33 29.46-14.29 22.75-16.62 48.12-7.29 77.58Zm542.2 34.71c-20.13 0-40.54-3.21-60.96-9.63-42-12.83-68.54-38.5-79.04-75.83-5.25-19.25-4.37-38.21 2.92-56 7-17.21 19.83-33.54 38.5-48.42 34.41-27.71 75.54-53.08 121.91-75.25 50.46-24.5 90.71-25.96 119-4.38 27.12 21 41.12 52.21 41.71 92.46.29 38.79-11.38 74.08-35 105-23.63 30.33-54.54 51.91-92.75 63.58-18.09 5.83-37.04 8.46-56.29 8.46ZM1461 977.8c7.88 27.71 27.42 45.79 59.79 56 34.13 10.5 67.96 10.79 100.04.87 32.08-9.92 58.63-28 78.17-53.37 19.83-25.96 29.16-54.25 28.87-86.62-.29-31.21-10.5-53.96-30.33-69.71-18.96-14.29-48.71-11.96-88.67 7.29-44.62 21.29-83.7 45.21-116.08 71.46-42.87 34.71-34.71 64.46-31.79 74.08Z"></path></symbol><symbol id="left" viewBox="0 0 3000 3000"><path fill="#000" d="M1835.2 889.42c-.87-60.67-21.58-108.79-61.83-144.08-39.96-35.58-98.29-38.5-175-9.33-61.83 23.63-114.33 50.46-157.79 80.79-49 33.54-104.41 44.92-165.66 33.83-49.87-11.38-107.62-15.75-172.66-13.42-80.79 3.21-134.75 29.17-161.29 78.17-26.54 49.29-30.62 102.67-12.83 160.12 18.08 57.17 51.04 99.17 98.88 126 47.83 26.54 101.5 33.83 160.99 21.88 53.38-11.09 97.42-34.71 132.13-70.88 49.87-44.04 107.33-55.7 172.37-35.58 43.75 20.42 92.45 25.37 145.83 14.29 59.5-12.25 107.33-40.25 143.79-84 36.46-44.33 54.25-96.83 53.08-157.79ZM1706.29 813.3c23.62 18.38 35.58 45.5 36.16 81.08.29 35.58-10.21 67.37-31.79 95.96-21.58 28-50.16 47.54-85.46 58.62-35.29 11.09-71.45 10.79-108.79-.87-37.04-11.38-60.08-33.54-69.41-65.92-9.04-32.37 3.21-62.41 36.75-89.25 33.54-27.13 73.21-51.62 119-73.5 45.2-22.17 79.91-24.21 103.54-6.13Zm-680.74 137.66c16.62-26.54 49.87-38.79 99.16-36.17 49.29 2.33 94.21 9.63 134.17 21.58 39.66 11.96 60.66 35 62.41 69.42 1.46 33.83-13.41 63.58-44.33 88.95-31.21 25.38-65.33 40.25-101.79 44.04-36.16 3.8-68.83-3.2-98-20.7-29.16-17.8-49.29-43.46-60.08-77-11.08-33.83-8.17-63.88 8.46-90.13Z"></path><path fill="#000" d="M1134.34 1243.5c-41.12 0-79.33-9.92-114.33-29.17-51.04-28.58-86.33-73.79-105.58-134.45-19.25-61.25-14.58-119 13.71-171.5 29.17-53.67 87.79-82.54 173.83-85.75 66.2-2.33 125.41 2.33 176.16 13.71 28.58 4.96 56 4.96 81.66-.292 25.67-5.25 50.17-15.75 72.92-31.21 44.04-30.92 98-58.62 160.71-82.54 81.95-31.21 145.83-27.12 189.87 11.96 43.16 38.21 65.62 90.12 66.79 154.87 1.16 64.17-17.79 120.46-56.59 167.12-38.49 46.09-89.54 76.13-151.95 89.25-56 11.38-107.62 6.42-154-15.16-59.79-18.38-111.12-7.59-156.91 32.37-36.46 37.92-83.42 63-139.42 74.67-19.54 4.08-38.49 6.12-56.87 6.12Zm.58-392.28c-10.5 0-21.29.292-32.08.584-38.21 1.46-70.29 8.46-95.08 20.42-24.21 11.67-42 28.29-53.96 50.17-12.25 22.75-19.25 46.66-21.29 71.17-2.04 24.79 1.17 50.75 9.63 77.58s20.71 50.16 35.87 69.71c15.17 19.25 34.12 35.58 56.29 47.83 44.63 24.79 95.37 31.5 151.08 20.41 50.17-10.2 92.17-32.66 124.54-66.79.29-.29.58-.58.88-.87 53.66-47.25 116.37-60.37 186.08-38.5.58.29 1.16.29 1.75.58 40.83 18.96 86.62 23.63 136.78 13.42 55.71-11.67 101.5-38.21 135.63-79.33 34.12-41.13 50.75-91 49.87-148.17-.87-56.87-19.54-100.62-56.87-133.58-17.79-15.75-38.79-23.92-65.04-25.37-27.13-1.46-59.21 4.96-95.38 18.67-60.37 23.04-112.29 49.58-154.58 79.04h-.29c-52.21 35.58-111.41 47.83-176.45 36.17h-.59c-39.95-8.46-86.04-13.13-136.79-13.13Zm21 303.03c-31.5 0-60.66-7.87-86.62-23.91-32.08-19.84-54.54-48.13-66.5-84.88v-.29c-11.96-37.62-8.46-72.04 10.5-102.08 19.54-31.21 57.46-45.79 112.29-42.88 50.17 2.33 96.54 9.92 137.67 22.17 57.45 17.21 71.16 54.25 72.62 82.54 1.75 38.5-14.88 72.63-49.88 100.92-33.54 27.12-70.29 43.16-109.66 47.25-6.71.87-13.71 1.16-20.42 1.16Zm-125.41-117.83c9.92 30.33 27.71 52.79 53.96 69.12 26.54 16.05 55.41 22.17 88.95 18.67 33.54-3.5 65.34-17.21 94.21-40.83 27.71-22.75 40.54-47.83 39.08-77-1.46-28-17.79-45.79-51.91-56-38.79-11.67-82.83-18.67-130.67-21-43.75-2.33-72.62 7.58-86.33 29.46-14.29 22.75-16.62 48.12-7.29 77.58Zm542.2 34.71c-20.13 0-40.54-3.21-60.96-9.63-42-12.83-68.54-38.5-79.04-75.83-5.25-19.25-4.37-38.21 2.92-56 7-17.21 19.83-33.54 38.5-48.42 34.41-27.71 75.54-53.08 121.91-75.25 50.46-24.5 90.71-25.96 119-4.38 27.12 21 41.12 52.21 41.71 92.46.29 38.79-11.38 74.08-35 105-23.63 30.33-54.54 51.91-92.75 63.58-18.09 5.83-37.04 8.46-56.29 8.46ZM1461 977.8c7.88 27.71 27.42 45.79 59.79 56 34.13 10.5 67.96 10.79 100.04.87 32.08-9.92 58.63-28 78.17-53.37 19.83-25.96 29.16-54.25 28.87-86.62-.29-31.21-10.5-53.96-30.33-69.71-18.96-14.29-48.71-11.96-88.67 7.29-44.62 21.29-83.7 45.21-116.08 71.46-42.87 34.71-34.71 64.46-31.79 74.08Z"></path></symbol><symbol id="right" viewBox="0 0 3000 3000"><path fill="#000" d="M1835.2 889.42c-.87-60.67-21.58-108.79-61.83-144.08-39.96-35.58-98.29-38.5-175-9.33-61.83 23.63-114.33 50.46-157.79 80.79-49 33.54-104.41 44.92-165.66 33.83-49.87-11.38-107.62-15.75-172.66-13.42-80.79 3.21-134.75 29.17-161.29 78.17-26.54 49.29-30.62 102.67-12.83 160.12 18.08 57.17 51.04 99.17 98.88 126 47.83 26.54 101.5 33.83 160.99 21.88 53.38-11.09 97.42-34.71 132.13-70.88 49.87-44.04 107.33-55.7 172.37-35.58 43.75 20.42 92.45 25.37 145.83 14.29 59.5-12.25 107.33-40.25 143.79-84 36.46-44.33 54.25-96.83 53.08-157.79ZM1706.29 813.3c23.62 18.38 35.58 45.5 36.16 81.08.29 35.58-10.21 67.37-31.79 95.96-21.58 28-50.16 47.54-85.46 58.62-35.29 11.09-71.45 10.79-108.79-.87-37.04-11.38-60.08-33.54-69.41-65.92-9.04-32.37 3.21-62.41 36.75-89.25 33.54-27.13 73.21-51.62 119-73.5 45.2-22.17 79.91-24.21 103.54-6.13Zm-680.74 137.66c16.62-26.54 49.87-38.79 99.16-36.17 49.29 2.33 94.21 9.63 134.17 21.58 39.66 11.96 60.66 35 62.41 69.42 1.46 33.83-13.41 63.58-44.33 88.95-31.21 25.38-65.33 40.25-101.79 44.04-36.16 3.8-68.83-3.2-98-20.7-29.16-17.8-49.29-43.46-60.08-77-11.08-33.83-8.17-63.88 8.46-90.13Z"></path><path fill="#000" d="M1134.34 1243.5c-41.12 0-79.33-9.92-114.33-29.17-51.04-28.58-86.33-73.79-105.58-134.45-19.25-61.25-14.58-119 13.71-171.5 29.17-53.67 87.79-82.54 173.83-85.75 66.2-2.33 125.41 2.33 176.16 13.71 28.58 4.96 56 4.96 81.66-.292 25.67-5.25 50.17-15.75 72.92-31.21 44.04-30.92 98-58.62 160.71-82.54 81.95-31.21 145.83-27.12 189.87 11.96 43.16 38.21 65.62 90.12 66.79 154.87 1.16 64.17-17.79 120.46-56.59 167.12-38.49 46.09-89.54 76.13-151.95 89.25-56 11.38-107.62 6.42-154-15.16-59.79-18.38-111.12-7.59-156.91 32.37-36.46 37.92-83.42 63-139.42 74.67-19.54 4.08-38.49 6.12-56.87 6.12Zm.58-392.28c-10.5 0-21.29.292-32.08.584-38.21 1.46-70.29 8.46-95.08 20.42-24.21 11.67-42 28.29-53.96 50.17-12.25 22.75-19.25 46.66-21.29 71.17-2.04 24.79 1.17 50.75 9.63 77.58s20.71 50.16 35.87 69.71c15.17 19.25 34.12 35.58 56.29 47.83 44.63 24.79 95.37 31.5 151.08 20.41 50.17-10.2 92.17-32.66 124.54-66.79.29-.29.58-.58.88-.87 53.66-47.25 116.37-60.37 186.08-38.5.58.29 1.16.29 1.75.58 40.83 18.96 86.62 23.63 136.78 13.42 55.71-11.67 101.5-38.21 135.63-79.33 34.12-41.13 50.75-91 49.87-148.17-.87-56.87-19.54-100.62-56.87-133.58-17.79-15.75-38.79-23.92-65.04-25.37-27.13-1.46-59.21 4.96-95.38 18.67-60.37 23.04-112.29 49.58-154.58 79.04h-.29c-52.21 35.58-111.41 47.83-176.45 36.17h-.59c-39.95-8.46-86.04-13.13-136.79-13.13Zm21 303.03c-31.5 0-60.66-7.87-86.62-23.91-32.08-19.84-54.54-48.13-66.5-84.88v-.29c-11.96-37.62-8.46-72.04 10.5-102.08 19.54-31.21 57.46-45.79 112.29-42.88 50.17 2.33 96.54 9.92 137.67 22.17 57.45 17.21 71.16 54.25 72.62 82.54 1.75 38.5-14.88 72.63-49.88 100.92-33.54 27.12-70.29 43.16-109.66 47.25-6.71.87-13.71 1.16-20.42 1.16Zm-125.41-117.83c9.92 30.33 27.71 52.79 53.96 69.12 26.54 16.05 55.41 22.17 88.95 18.67 33.54-3.5 65.34-17.21 94.21-40.83 27.71-22.75 40.54-47.83 39.08-77-1.46-28-17.79-45.79-51.91-56-38.79-11.67-82.83-18.67-130.67-21-43.75-2.33-72.62 7.58-86.33 29.46-14.29 22.75-16.62 48.12-7.29 77.58Zm542.2 34.71c-20.13 0-40.54-3.21-60.96-9.63-42-12.83-68.54-38.5-79.04-75.83-5.25-19.25-4.37-38.21 2.92-56 7-17.21 19.83-33.54 38.5-48.42 34.41-27.71 75.54-53.08 121.91-75.25 50.46-24.5 90.71-25.96 119-4.38 27.12 21 41.12 52.21 41.71 92.46.29 38.79-11.38 74.08-35 105-23.63 30.33-54.54 51.91-92.75 63.58-18.09 5.83-37.04 8.46-56.29 8.46ZM1461 977.8c7.88 27.71 27.42 45.79 59.79 56 34.13 10.5 67.96 10.79 100.04.87 32.08-9.92 58.63-28 78.17-53.37 19.83-25.96 29.16-54.25 28.87-86.62-.29-31.21-10.5-53.96-30.33-69.71-18.96-14.29-48.71-11.96-88.67 7.29-44.62 21.29-83.7 45.21-116.08 71.46-42.87 34.71-34.71 64.46-31.79 74.08Z"></path></symbol></svg>