<svg xmlns="http://www.w3.org/2000/svg"><symbol id="body" viewBox="0 0 3000 3000"><g id="swim-trunks-body-pants_x5F_swimtrunks_x5F_body" transform="matrix(2.92, 0, 0, 2.92, 956.65,1516.1)"><g transform="matrix(1, 0, 0, 1, 0, 0)"><g><g id="swim-trunks-body-pants_3_Layer1_0_FILL"><path fill="#fce370" d="M252.5,270c.3-1.8,.5-3.7,.5-5.8c0-2.5-.8-5.1-2.4-7.6c-1.9-3-4.1-4.5-6.7-4.4c-2.5,0-5,1.4-7.4,4.2 c-1.9,2.3-3,4.2-3.2,5.9c.1-2-.6-4.7-2.1-7.9c-2-4.4-4.7-6.6-8-6.6c-3.2,0-5.3,2.2-6.5,6.6c-.6,2.4-1,6.3-1.1,11.6 c-1.1-2.4-2.4-4.6-3.9-6.4c-1.9-2.2-3.6-3.3-5.4-3.3c-2.5,0-4.5,.8-6,2.4c-1.6,1.7-2.4,4-2.4,6.8c0,1.7,.3,3.4,.9,5.2 c.3,.9,.7,2,1.1,3.3c-1.7-.8-2.9-1.4-3.6-1.7c-1.3-.5-2.5-.7-3.6-.7c-3.6,0-6.4,1.1-8.4,3.2c-2.2,2.3-3.2,5.9-3.2,10.7 c0,2.4,.4,4.3,1.1,5.8c.6,0,1.2-.1,1.8-.1c22.3-2.3,41.2-7.1,56.6-14.4C244.7,274.7,248.8,272.5,252.5,270 M283.5,235.8 c.6-1.2,1.2-2.4,1.7-3.7c3.1-7.2,5.3-15,6.6-23.5c-17.8,1.3-35.7,2.4-53.6,3.2c-.4,1-.5,2.2-.5,3.5c0,3.3,1.3,5.6,3.8,6.9 c1.6,.8,3.8,1.2,6.6,1.2c2.6,0,4.2-.1,4.7-.2c1.4-.4,2.8-1.4,4.1-3.1h.5c-.8,.8-1.5,1.6-2.2,2.5 c-1.4,1.8-2.1,3.3-2.1,4.4c0,2.1,.8,3.5,2.2,4.2c.8,.4,2.2,.6,4.4,.6c2.3,0,4.1-.4,5.3-1.4c.9-.7,2.4-2.6,4.6-5.8 c0-.1,0-.3,.1-.4v.4h-.1c-.1,1-.3,1.8-.8,2.7c-.6,1-.9,2.1-.9,3.4c0,2.5,.6,4.3,1.7,5.5c1.3,1.5,3.5,2.2,6.6,2.2 C278.9,238.2,281.3,237.4,283.5,235.8 M32.1,210.6L32.1,210.6c-10.2-.6-20.5-1.3-30.7-2.1c1.2,7.9,3.2,15.2,5.9,21.9 c.2,.6,.4,1.1,.7,1.7c1.9,4.5,4.2,8.7,6.7,12.7c2.3-.5,4.2-1.8,5.9-3.8c2.1-2.4,3.3-4.7,3.5-6.8c.3-2.1,.1-4-.5-5.8 c-.1-.5-.3-.9-.5-1.2c.3,.3,.6,.6,.8,.8c.9,.7,2,1,3.5,1c5.2,0,7.8-2.8,7.8-8.4C35.3,217.6,34.2,214.3,32.1,210.6 M124.4,237.2c3.3-3.7,5.5-6.2,6.6-7.3c.1-.3,.2-.6,.2-.8v.6c-.1,.1-.2,.1-.2,.2c-.7,3.5,.2,7.2,2.9,11.2 c2.9,4.2,6.1,6.3,9.8,6.3c4,0,7.1-2.8,9.3-8.5c1.8-4.7,2.5-8.6,1.9-11.6c.7,.7,2.5,1.7,5.2,3c3.5,1.6,6.4,2.4,8.7,2.4 c4.4,0,7.4-1.2,9.2-3.6c1.2-1.8,1.8-4.4,1.8-7.9c0-2.5-.7-5-2-7.5c-3,.1-6,.1-9,.2h-.1c-24.7,.3-49.5,.1-74.3-.6 c-1.8,0-3.7-.1-5.5-.1c-1,1.4-1.4,3.2-1.4,5.4c0,4.5,1.6,7.4,4.9,8.8c1.8,.8,5.1,1.2,9.7,1.2c1,0,2.4-.3,4.3-.9 c1.5-.5,2.8-.8,3.7-.9c-.8,.2-1.6,1.1-2.4,2.7c-.9,1.7-1.3,3.2-1.3,4.6c0,2.6,.6,4.6,1.8,6.1c1.3,1.6,3.2,2.4,5.8,2.4 C117.2,242.4,120.7,240.7,124.4,237.2 M224.9,191.8c-17.9,.6-35.9,1.1-53.9,1.3c-56.8,.6-113.8-1-171.1-4.9 c0,7,.5,13.6,1.4,19.9c0,.1,0,.3,0,.4c10.2,.7,20.5,1.4,30.6,2c19,1.1,38,1.9,56.9,2.5c1.8,.1,3.7,.1,5.5,.1 c24.8,.7,49.6,.9,74.3,.6h.1c3,0,6-.1,9-.2c13.3-.2,26.6-.5,39.9-1c6.8-.2,13.6-.5,20.4-.8 c17.9-.8,35.8-1.9,53.6-3.2c1-6.4,1.4-13.2,1.4-20.3C270.5,189.9,247.8,191,224.9,191.8z"></path><path fill="#e686d4" d="M269.7,224c0,.1,0,.3-.1,.4h.1V224 M131,229.9c.1-.1,.2-.1,.2-.2V229 C131.2,229.3,131.1,229.6,131,229.9z"></path><path fill="#4fcac0" d="M131,229.9c-1.1,1.1-3.3,3.6-6.6,7.3c-3.7,3.5-7.2,5.2-10.5,5.2c-2.5,0-4.4-.8-5.8-2.4 c-1.2-1.5-1.8-3.5-1.8-6.1c0-1.4,.4-2.9,1.3-4.6c.8-1.6,1.6-2.4,2.4-2.7c-.9,.1-2.2,.4-3.7,.9c-1.9,.6-3.3,.9-4.3,.9 c-4.6,0-7.8-.4-9.7-1.2c-3.3-1.4-4.9-4.3-4.9-8.8c0-2.2,.5-4,1.4-5.4c-18.9-.6-37.9-1.4-56.9-2.5v.1c2.1,3.7,3.2,7,3.2,10 c0,5.6-2.6,8.4-7.8,8.4c-1.4,0-2.6-.3-3.5-1c-.2-.2-.4-.4-.8-.8c.2,.3,.3,.7,.5,1.2c.6,1.7,.7,3.7,.5,5.8 s-1.4,4.4-3.5,6.8c-1.7,2-3.7,3.3-5.9,3.8c7.2,11,17,20.2,29.4,27.4c0,0,.1,.1,.2,.1c22,12.7,52.1,19.5,90.4,20.4 c.5,0,1.1,0,1.6,0l5.5,.1c.3,0,.7,0,1,0h.9c.1,0,.1,0,.1,0h1.1c.3,0,.5,0,.8,0h2.9c.2,0,.4,0,.5,0 c0,0,.1,0,.2,0c.6,0,1.3,0,1.9,0l5.5-.1c.5,0,1.1,0,1.6,0c8.2-.2,16-.7,23.4-1.4c-.7-1.5-1.1-3.5-1.1-5.8 c0-4.8,1.1-8.4,3.2-10.7c2-2.1,4.8-3.2,8.4-3.2c1.1,0,2.3,.2,3.6,.7c.7,.3,1.9,.9,3.6,1.7c-.5-1.3-.8-2.4-1.1-3.3 c-.6-1.8-.9-3.5-.9-5.2c0-2.8,.8-5.1,2.4-6.8c1.5-1.6,3.5-2.4,6-2.4c1.7,0,3.5,1.1,5.4,3.3c1.6,1.8,2.9,4,3.9,6.4 c.1-5.3,.5-9.2,1.1-11.6c1.2-4.4,3.3-6.6,6.5-6.6c3.3,0,6,2.2,8,6.6c1.5,3.2,2.2,5.9,2.1,7.9c.2-1.7,1.3-3.6,3.2-5.9 c2.4-2.8,4.9-4.2,7.4-4.2c2.6,0,4.8,1.5,6.7,4.4c1.6,2.6,2.4,5.1,2.4,7.6c0,2.1-.2,4-.5,5.8c5.8-3.6,11-7.7,15.5-12.3 c1.2-1.2,2.4-2.5,3.5-3.7c1.4-1.6,2.7-3.2,3.9-4.8c3.1-4.2,5.8-8.6,8.1-13.4c-2.3,1.6-4.7,2.4-7.2,2.4c-3.1,0-5.3-.7-6.6-2.2 c-1.1-1.2-1.7-3-1.7-5.5c0-1.3,.3-2.4,.9-3.4c.4-.8,.7-1.7,.8-2.7c-2.2,3.2-3.8,5.1-4.6,5.8c-1.2,.9-3,1.4-5.3,1.4 c-2.1,0-3.6-.2-4.4-.6c-1.5-.6-2.2-2-2.2-4.2c0-1.1,.7-2.6,2.1-4.4c.7-.9,1.5-1.7,2.2-2.5h-.5c-1.3,1.7-2.7,2.8-4.1,3.1 c-.5,.1-2.1,.2-4.7,.2c-2.8,0-5-.4-6.6-1.2c-2.6-1.3-3.8-3.6-3.8-6.9c0-1.3,.2-2.5,.5-3.5c-6.8,.3-13.6,.6-20.4,.8 c-13.3,.5-26.6,.8-39.9,1c1.3,2.5,2,5,2,7.5c0,3.5-.6,6.1-1.8,7.9c-1.7,2.4-4.8,3.6-9.2,3.6c-2.3,0-5.2-.8-8.7-2.4 c-2.8-1.3-4.5-2.3-5.2-3c.5,3.1-.1,6.9-1.9,11.6c-2.2,5.6-5.3,8.5-9.3,8.5c-3.7,0-6.9-2.1-9.8-6.3 C131.2,237.1,130.3,233.4,131,229.9z"></path><path fill="#a87d4f" d="M156.9,.3c-.6,0-1.3-.1-1.9-.1c-.3,0-.6,0-.9,0c.7,0,1.4,.1,2.1,.1 C156.4,.3,156.7,.3,156.9,.3L156.9,.3z"></path></g></g><g><path d="M151.4,297.8h-9.6h-.1l-5.4-.1h-1.6h-.1c-39-.9-70.2-8-92.8-21c-.1-.1-.2-.1-.3-.2c-.1,0-.1-.1-.2-.2 C28.4,268.7,18,259,10.5,247.5c-2.7-4.2-5.1-8.6-7.1-13.3c-.3-.7-.6-1.3-.8-2c-2.8-7-4.9-14.7-6.2-22.8c0,0,0,0,0-.1 c0-.3-.1-.5-.1-.8c-.9-6.4-1.4-13.2-1.4-20.3v-.1c0-.7,0-1.5,0-2.2v-.1c.8-22.9,2.9-46.7,6.4-70.7c0-.1,0-.2,.1-.4 c5.5-24,15.4-45.1,29.4-62.7C44.9,34.5,63.5,20.1,86.1,9.2c10.6-5,21.8-8.8,33.2-11.2c1.6-.4,3.3-.7,5-1 c2.5-.5,5.1-.9,7.7-1.2c1.5-.2,3-.4,4.6-.5c0,0,0,0,.1,0c.4,0,.8-.1,1.1-.1c.1,0,.2,0,.3,0l3-.1 c.4,0,.9-.1,1.4-.1h8.1c.3,0,.7,0,1,.1l2.4,.1h.9c.1,0,.2,0,.3,0c.7,0,1.3,.1,2,.1c.4,0,.9,.1,1.3,.2 c2.6,.3,5.2,.6,7.8,1c0,0,0,0,.1,0c1.4,.2,2.9,.5,4.3,.8c12.7,2.4,24.9,6.4,36.5,12c7.7,3.7,15,7.8,21.7,12.3 c7.7,5.1,14.9,10.9,21.3,17.1l0,0c1.5,1.5,3.1,3.1,4.6,4.6c0,0,0,0,.1,.1c1.3,1.4,2.6,2.8,3.9,4.3l0,0 c3.4,3.9,6.6,8.1,9.6,12.3c1.9,2.7,3.6,5.5,5.3,8.2c.8,1.3,1.6,2.7,2.3,4l2.1,3.9c0,.1,.1,.1,.1,.2c.5,1,1,2,1.5,3.1 c0,0,0,0,0,.1c5.2,10.8,9.3,22.7,12.1,35.4c0,.1,.1,.2,.1,.4c3.5,24,5.7,47.8,6.4,70.7v.1c0,.8,0,1.5,0,2.2v.1 c0,7.3-.5,14.3-1.5,20.9c0,.1,0,.1,0,.2c-1.4,8.8-3.7,17.1-6.9,24.7c-.6,1.3-1.2,2.6-1.8,3.9c-2.4,5-5.3,9.8-8.6,14.2 c-1.3,1.7-2.7,3.5-4.1,5.1l0,0c-1.2,1.3-2.4,2.6-3.6,3.9l0,0c-4.8,4.8-10.3,9.2-16.3,13c-4,2.5-8.2,4.9-12.8,7 c-15.9,7.5-35.5,12.5-58.2,14.8c-.6,.1-1.3,.1-1.9,.2c-7.5,.7-15.5,1.2-23.8,1.4h-.1h-1.6L151.4,297.8 C151.5,297.8,151.4,297.8,151.4,297.8z M141.9,287.8h9.5l5.4-.1h.1h1.5c8-.2,15.8-.6,23-1.4c0,0,0,0,.1,0 c.6-.1,1.2-.1,1.7-.2c21.6-2.3,40.1-7,55-14c4.1-1.9,8-4.1,11.6-6.4c5.4-3.4,10.3-7.4,14.6-11.6c1.1-1.2,2.3-2.4,3.3-3.6 c1.3-1.5,2.5-3,3.7-4.5c2.9-3.9,5.5-8.1,7.6-12.5c.5-1.1,1.1-2.3,1.6-3.5c2.2-5,3.9-10.4,5.1-16.1c-15.7,1.1-31.6,2-47.3,2.7 c-6.8,.3-13.7,.6-20.5,.9c-13.3,.5-26.7,.8-40,1l0,0c-3,0-6,.1-9,.1h-.1l0,0c-24.7,.3-49.7,.1-74.5-.6 c-1.8,0-3.7-.1-5.5-.2c-18.9-.6-38.1-1.4-57-2.5c-8.1-.5-16.2-1-24.3-1.5c1.1,5.1,2.6,10,4.4,14.6c0,.1,.1,.1,.1,.2 c.1,.4,.3,.8,.5,1.2c0,.1,.1,.1,.1,.2c1.8,4.2,3.9,8.2,6.3,11.9c6.7,10.3,16.1,19,27.8,25.8c.2,.1,.3,.2,.4,.3 c21.1,12.1,50.6,18.7,87.7,19.5h1.5h.1L141.9,287.8z M47.7,268.7L47.7,268.7L47.7,268.7z M47.7,268.7L47.7,268.7L47.7,268.7z M5.8,203.9c8.8,.6,17.7,1.2,26.5,1.7c18.9,1.1,37.9,1.9,56.7,2.5c1.8,.1,3.7,.1,5.5,.1c24.7,.7,49.6,.9,74.2,.6h.1 c3,0,6-.1,8.9-.1l0,0c13.2-.2,26.6-.6,39.8-1c6.7-.2,13.6-.5,20.4-.8c16.4-.8,33-1.7,49.4-2.9c.4-3.3,.6-6.7,.8-10.2 c-20.9,1.4-42.1,2.4-63.1,3.2c-17.9,.6-36.1,1.1-54,1.3c-54.9,.6-110.7-1-166.1-4.5C5.2,197.1,5.4,200.6,5.8,203.9z M5.1,183.6 c55.3,3.6,111.1,5.1,165.9,4.5c17.9-.2,36-.7,53.8-1.3c21.1-.7,42.4-1.8,63.4-3.2c-.8-21.6-2.9-44.1-6.2-66.8 c-2.7-11.8-6.5-22.9-11.3-33c-.5-1-1-2.1-1.5-3.1l-2-3.8c-.7-1.2-1.4-2.4-2.1-3.6l0,0c-1.5-2.6-3.2-5.2-4.9-7.7 c-2.7-4-5.7-7.8-8.9-11.5c-1.2-1.4-2.5-2.8-3.7-4.1c-1.4-1.5-2.8-2.9-4.3-4.3c-6-5.8-12.7-11.1-19.9-15.9 c-6.3-4.2-13.2-8.1-20.5-11.6c-10.8-5.2-22.2-8.9-34-11.1c-1.4-.3-2.7-.5-4.1-.7c-2.8-.4-5.5-.8-8.3-1.1c-.1,0-.1,0-.2,0 h-.1c-.1,0-.3,0-.5-.1c-.7,0-1.3-.1-1.9-.1L151.1,5c-.2,0-.3,0-.5,0h-8c-.2,0-.4,0-.6,0c-.1,0-.2,0-.3,0 l-3.1,.1c-.3,0-.7,.1-1.1,.1c-1.4,.1-2.8,.3-4.1,.5h-.1c-2.4,.3-4.8,.7-7.1,1.1h-.1c-1.5,.2-3,.5-4.5,.9h-.1 c-10.7,2.2-21.1,5.8-31,10.5c-21.3,10.2-38.7,23.7-51.8,40s-22.3,36-27.3,58.6C8,139.5,5.9,162,5.1,183.6z"></path></g></g><g transform="matrix(1, 0, 0, 1, 27.25, 0)"><g><path fill="#ffffff" d="M170.9,254.4c2.7,0,5-2,5.3-4.7c.1-2.1,.3-4.3,.4-6.5c.7-14.8-2.5-29-10-42.1c-1.4-2.4-4.5-3.4-7.1-2.1 c-2.5,1.3-3.6,4.3-2.2,6.8c6.5,11.6,9.5,24,8.7,36.9c-.1,2.1-.2,4.2-.3,6.3c-.2,2.8,2,5.1,4.9,5.3 C170.7,254.3,170.8,254.4,170.9,254.4z"></path></g></g><g transform="matrix(-1, 0, 0, 1, 383.25, 0)"><g transform="matrix(-1, 0, 0, 1, 383.25, 0)"><path fill="#ffffff" d="M149,254.4c.1,0,.2,0,.3,0c2.8-.2,4.9-2.5,4.7-5.3c-.1-2.1-.2-4.2-.3-6.3c-.7-13,2.1-25.4,8.3-37 c1.3-2.4,.4-5.5-2.1-6.8c-2.4-1.3-5.5-.4-6.8,2.1c-7,13.2-10.2,27.4-9.5,42.2c.1,2.1,.2,4.3,.4,6.5 C144.2,252.3,146.4,254.4,149,254.4z"></path></g></g></g></symbol><symbol id="rightLeg" viewBox="0 0 3000 3000"><g id="swim-trunks-rightLeg-pants_x5F_swimtrunks_x5F_backleg" transform="matrix(2.92, 0, 0, 2.92, 1463.45,1961.9)"><g transform="matrix(1, 0, 0, 1, 0, 0)"><g><g id="swim-trunks-rightLeg-LEG_OUTFIT_3_Layer0_0_FILL"><path fill="#fce370" d="M79.1,128.9H24.8H-5.5v19.4l15.8,.6l73.9,.9l13-.2v-20.7H79.1 M77.6,105.9c-2.6,0-4.8,1-6.8,3.1 c-1.7,1.8-2.7,3.7-3,5.8c0-4.1-.3-7.8-.8-10.8c-.9-6-3-9-6.1-9c-2.9,0-4.9,1.7-6,5.1c-.7,2.1-1.2,5.4-1.5,9.9 c0-1.4-1.1-3.7-3.2-7c-2.6-4-4.9-5.9-7-5.9c-1.3,0-2.5,.8-3.8,2.4c-1.4,1.9-2.1,4.2-2.1,7c0,2.1,.2,4,.6,5.9 c.2,.9,.5,2,.8,3.2c.1,.1,.3,.2,.4,.3H39c0-.1-.1-.2-.1-.3c-2.2-1.9-3.9-3.3-5.1-4.2c-2.3-1.9-4.3-2.8-5.9-2.8 c-4.2,0-6.2,3-6.2,9c0,3.7,.9,7.2,2.6,10.2c.2,.4,.4,.7,.6,1h54.2c2.5-5.3,3.7-9.8,3.7-13.4c0-2.7-.4-4.9-1.2-6.6 C80.7,106.9,79.4,105.9,77.6,105.9z"></path><path fill="#e686d4" d="M38.9,115.6c0,.1,.1,.2,.1,.3h.3C39.2,115.8,39,115.7,38.9,115.6z"></path><path d="M80.8,96.1c-.9-.7-2.6-1.6-5.3-2.4c-2.6-.9-4.7-1.3-6.3-1.2c-35.5-4-60.4-.8-74.7,9.7v26.7h30.4 c-.2-.3-.4-.7-.6-1c-1.8-3.1-2.6-6.5-2.6-10.2c0-6,2.1-9,6.2-9c1.7,0,3.6,.9,5.9,2.8c1.2,.9,2.9,2.3,5.1,4.2 c-.3-1.2-.6-2.2-.8-3.2c-.4-1.9-.6-3.9-.6-5.9c0-2.8,.7-5.1,2.1-7c1.2-1.6,2.5-2.4,3.8-2.4c2.1,0,4.4,2,7,5.9 c2.1,3.3,3.2,5.6,3.2,7c.2-4.5,.7-7.8,1.5-9.9c1.2-3.4,3.2-5.1,6-5.1c3.1,0,5.2,3,6.1,9c.5,3.1,.8,6.7,.8,10.8 c.3-2,1.3-4,3-5.8c1.9-2.1,4.2-3.1,6.8-3.1c1.7,0,3.1,1,3.9,3c.8,1.7,1.2,3.9,1.2,6.6c0,3.6-1.2,8.1-3.7,13.4h18.1v-26.6 C91.5,99.9,86.1,97.9,80.8,96.1z"></path></g></g><g><path d="M84.2,154.7C84.1,154.7,84.1,154.7,84.2,154.7l-73.9-.9h-.1l-15.8-.6c-2.7-.1-4.8-2.3-4.8-5v-46.1c0-2.8,2.2-5,5-5 s5,2.2,5,5v21.7h92.7v-21.6c0-2.8,2.2-5,5-5s5,2.2,5,5v47.3c0,2.7-2.2,5-4.9,5L84.2,154.7L84.2,154.7z M10.4,143.9l73.7,.9 l8-.1V134H-.6v9.6L10.4,143.9z"></path></g></g></g></symbol><symbol id="leftLeg" viewBox="0 0 3000 3000"><g id="swim-trunks-leftLeg-pants_x5F_swimtrunks_x5F_frontleg" transform="matrix(2.92, 0, 0, 2.92, 1042.6,1961.9)"><g transform="matrix(1, 0, 0, 1, 0, 0)"><g><g id="swim-trunks-leftLeg-LEG_OUTFIT_3_Layer0_0_FILL_00000070805322384119374260000008665073614690141082_"><path fill="#fce370" d="M79.1,128.9H24.8H-5.5v19.4l15.8,.6l73.9,.9l13-.2v-20.7H79.1 M77.6,105.9c-2.6,0-4.8,1-6.8,3.1 c-1.7,1.8-2.7,3.7-3,5.8c0-4.1-.3-7.8-.8-10.8c-.9-6-3-9-6.1-9c-2.9,0-4.9,1.7-6,5.1c-.7,2.1-1.2,5.4-1.5,9.9 c0-1.4-1.1-3.7-3.2-7c-2.6-4-4.9-5.9-7-5.9c-1.3,0-2.5,.8-3.8,2.4c-1.4,1.9-2.1,4.2-2.1,7c0,2.1,.2,4,.6,5.9 c.2,.9,.5,2,.8,3.2c.1,.1,.3,.2,.4,.3H39c0-.1-.1-.2-.1-.3c-2.2-1.9-3.9-3.3-5.1-4.2c-2.3-1.9-4.3-2.8-5.9-2.8 c-4.2,0-6.2,3-6.2,9c0,3.7,.9,7.2,2.6,10.2c.2,.4,.4,.7,.6,1h54.2c2.5-5.3,3.7-9.8,3.7-13.4c0-2.7-.4-4.9-1.2-6.6 C80.7,106.9,79.4,105.9,77.6,105.9z"></path><path fill="#e686d4" d="M38.9,115.6c0,.1,.1,.2,.1,.3h.3C39.2,115.8,39,115.7,38.9,115.6z"></path><path fill="#4fcac0" d="M80.8,96.1c-.9-.7-2.6-1.6-5.3-2.4c-2.6-.9-4.7-1.3-6.3-1.2c-35.5-4-60.4-.8-74.7,9.7v26.7h30.4 c-.2-.3-.4-.7-.6-1c-1.8-3.1-2.6-6.5-2.6-10.2c0-6,2.1-9,6.2-9c1.7,0,3.6,.9,5.9,2.8c1.2,.9,2.9,2.3,5.1,4.2 c-.3-1.2-.6-2.2-.8-3.2c-.4-1.9-.6-3.9-.6-5.9c0-2.8,.7-5.1,2.1-7c1.2-1.6,2.5-2.4,3.8-2.4c2.1,0,4.4,2,7,5.9 c2.1,3.3,3.2,5.6,3.2,7c.2-4.5,.7-7.8,1.5-9.9c1.2-3.4,3.2-5.1,6-5.1c3.1,0,5.2,3,6.1,9c.5,3.1,.8,6.7,.8,10.8 c.3-2,1.3-4,3-5.8c1.9-2.1,4.2-3.1,6.8-3.1c1.7,0,3.1,1,3.9,3c.8,1.7,1.2,3.9,1.2,6.6c0,3.6-1.2,8.1-3.7,13.4h18.1v-26.6 C91.5,99.9,86.1,97.9,80.8,96.1z"></path></g></g><g><path d="M84.2,154.7C84.1,154.7,84.1,154.7,84.2,154.7l-73.9-.9h-.1l-15.8-.6c-2.7-.1-4.8-2.3-4.8-5v-46.1c0-2.8,2.2-5,5-5 s5,2.2,5,5v21.7h92.7v-21.6c0-2.8,2.2-5,5-5s5,2.2,5,5v47.3c0,2.7-2.2,5-4.9,5L84.2,154.7L84.2,154.7z M10.4,143.9l73.7,.9 l8-.1V134H-.6v9.6L10.4,143.9z"></path></g></g></g></symbol></svg>