<svg xmlns="http://www.w3.org/2000/svg" viewBox="0 0 3000 3000"><path fill="#E5FAFE" d="M701.479 1376.074c-1.75-1.75-10.5-16.916-26.833-45.79-16.625-27.417-27.124-40.833-31.791-40.25-9.042 1.167-16.333 9.625-21.875 25.666-3.791 10.792-6.416 24.791-8.166 41.708-2.625 25.666-1.167 52.499 4.666 80.498 5.834 29.166 15.459 55.124 28.583 77.582 10.5 18.083 21.583 33.833 33.25 47.54 1.75 2.042 3.5 4.084 5.25 5.834 3.208 3.5 6.708 6.708 10.791 10.208 11.375 9.625 25.374 19.25 42.29 28.291-16.916-8.75-30.915-18.083-42.29-27.708-29.166-13.708-52.207-9.624-69.415 11.959-6.125 7.583-8.75 16.624-8.75 27.124 1.458 44.04 24.791 73.79 70.29 88.957 19.833 11.374 51.04 21 93.332 28.29-42.291-7.29-73.499-16.624-93.332-28.29-1.75.291-3.208.291-4.666.583-9.625 1.458-19.25 4.375-28.583 9.042-15.167 7.874-23.333 17.79-24.5 30.04-3.208 34.417 21.875 60.958 75.832 79.916 14.292 4.958 30.333 9.333 48.124 13.124 3.792.584 7.583 1.459 11.375 2.042 20.125 3.208 31.208 5.25 33.541 5.833-2.333-.583-13.416-2.625-33.541-5.833-3.792-.583-7.583-1.458-11.375-2.042-4.375 2.334-8.458 5.25-12.25 8.459-13.708 11.374-21.29 25.666-23.04 43.165-1.46 13.125 7 23.625 25.082 30.917 16.041 6.708 35.583 9.916 58.624 9.333 16.041-.584 38.79 0 68.249 1.166 3.5.292 7 .292 9.916.584 16.041.291 25.083.291 27.125-.584-2.042.875-11.084.875-27.125.584-7.291 4.958-11.083 11.958-12.25 20.708-1.458 15.166 8.167 26.25 29.166 33.54 21.292 7.292 49.583 8.75 84.29 3.792 22.167-3.208 40.541-11.958 54.833-26.25 16.041-16.332 25.374-38.79 28-66.79 2.916-29.457 2.916-93.331 0-191.621-6.709-21-17.209-41.124-31.209-60.374-19.54-26.833-48.415-54.832-86.331-83.707l-6.125-4.374c-23.041-17.208-49.29-35-78.749-52.791-30.332-18.375-60.665-40.25-90.706-65.04-27.125-22.75-50.458-44.333-69.707-65.04z"></path><path d="M943.266 2009.562c-19.25 0-36.166-2.625-50.75-7.583-13.124-4.375-22.749-10.208-29.165-17.792-7.583-8.458-10.792-19.25-9.917-30.624l.875-6.125c-21.874-.583-39.374-.875-52.207-.583h-.292c-25.083.291-46.666-3.208-64.457-10.5-30.624-12.541-35.29-32.083-33.833-46.082 1.75-16.333 7.875-30.917 18.083-42.875-7.291-2.041-14.29-4.083-21-6.416-29.457-10.5-50.748-22.75-65.04-37.916-15.75-16.333-22.457-35.583-20.416-57.166 1.75-17.208 12.833-31.207 32.375-41.416-9.042-6.124-16.917-13.416-23.042-21.29-13.708-17.209-21-38.792-21.583-63.875-.291-14 3.5-26.25 11.667-36.457 12.833-16.042 27.416-23.041 41.707-24.791-7.874-10.5-15.458-22.167-22.458-34.416-14-23.917-24.207-51.624-30.332-82.249-6.125-29.166-7.583-57.749-4.959-84.873 1.75-18.375 4.667-33.25 8.75-45.208 7.292-21.291 18.667-33.25 33.833-35.29 12.833-1.75 23.333 8.75 46.374 46.957l.292.291c18.958 33.541 23.916 41.416 25.083 43.166 18.374 20.125 41.416 41.416 67.957 63.29 29.75 24.5 59.499 46.083 89.248 63.874 29.75 18.083 56.582 36.166 79.915 53.374l6.125 4.375c38.79 29.458 68.832 58.624 89.248 86.624 14.875 20.416 25.958 41.999 33.25 64.457.291 1.166.583 2.625.583 4.083 2.917 99.748 2.917 163.039 0 193.371-2.917 31.208-13.708 56.583-32.083 75.249-16.624 16.625-37.624 26.833-62.999 30.624-14.874 2.917-28.29 3.792-40.832 3.792zm-57.749-60.957c-1.75 2.041-2.625 4.375-2.917 7.583-.291 3.208-1.166 11.083 19.542 18.083 19.25 6.708 45.207 7.583 77.582 3.208 19.25-2.625 34.416-9.916 46.374-22.166 13.708-14 21.583-32.958 23.916-57.749 2.916-28.583 2.916-91.582 0-187.538-6.417-18.958-15.75-37.041-28.583-54.249-18.666-25.666-46.666-52.79-83.415-80.79-1.75-1.458-3.792-2.917-5.542-4.083 0 0-.291 0-.291-.292-22.458-16.916-48.708-34.416-77.582-51.916-30.624-18.666-61.832-41.124-92.457-66.498-27.707-22.75-51.624-44.916-71.165-66.207-2.042-2.042-4.667-5.542-28.874-48.416-10.792-17.792-17.208-26.541-20.708-30.625-2.042 2.334-4.375 6.417-6.709 13.417-3.5 9.916-5.833 22.75-7.291 38.5v.29c-2.333 24.209-.875 49.875 4.375 76.124 5.541 27.416 14.583 52.208 27.124 73.207a335.455 335.455 0 0 0 31.5 45.5c1.75 1.75 3.208 3.79 4.958 5.54 2.917 2.917 6.125 6.126 9.625 9.042 10.5 9.042 23.916 18.083 39.957 26.542 7 3.791 9.625 12.833 5.834 19.832-3.792 7-12.834 9.625-19.833 5.834-16.917-9.333-31.5-18.958-43.166-28.875-28.291-12.541-41.708-2.041-50.166 8.458-3.792 4.959-5.541 10.792-5.541 17.792.583 18.958 5.541 34.124 15.458 46.666 9.916 12.541 24.79 22.166 44.624 28.874l1.75.875c.291.292.875.292 1.166.583 18.375 10.5 48.124 19.542 88.374 26.25 7.874 1.458 13.416 8.75 11.958 16.916s-9.042 13.417-16.917 11.958c-41.415-7.291-72.04-16.333-93.623-27.708-7.875 1.167-16.041 3.792-23.624 7.584-15.458 8.166-16.625 15.75-16.917 18.374-2.625 26.833 18.958 48.124 66.207 64.749 13.708 4.667 29.166 8.75 46.083 12.541l11.083 2.042c30.624 4.958 33.25 5.833 34.708 6.125 7.874 2.042 12.541 9.916 10.5 17.791-2.042 7.875-9.917 12.542-17.792 10.5-1.167-.292-6.125-1.167-32.083-5.541h-.291l-5.834-1.167c-2.041 1.167-3.791 2.625-5.833 4.375h-.291c-10.792 9.041-16.625 19.833-18.083 33.54-.292 2.626-.875 9.042 16.041 16.042 14 5.833 31.791 8.75 52.79 8.458 16.334-.583 39.667 0 69.416 1.167h.292c3.5.292 6.708.292 9.916.583 16.625.292 21.583 0 22.75 0 7-2.041 14.874 1.75 17.5 8.75 2.916 7.583-.876 16.041-8.459 18.958-3.5.875-7.291 1.75-27.416 1.167zm16.916-28.875zm1.75-.291zM711.98 1365.574zm0 0z"></path></svg>