<svg xmlns="http://www.w3.org/2000/svg" viewBox="0 0 3000 3000"><path fill="#E5FAFE" d="M1999.11 1462.494c1.574-1.575 9.45-15.224 24.149-41.211 14.962-24.674 24.412-36.75 28.611-35.962 8.138 1.05 14.7 8.663 19.687 22.837 3.413 9.713 5.775 22.312 7.088 37.537 2.362 23.1 1.05 47.249-4.2 72.448-5.25 26.25-13.912 49.611-25.724 69.823-9.45 16.275-19.425 30.45-29.662 42.787-1.575 1.837-3.15 3.674-4.725 5.25-2.887 3.15-6.037 6.037-9.45 9.187-10.237 8.662-22.837 17.324-38.061 25.462 15.224-7.875 27.824-16.275 38.061-24.937 26.25-12.338 46.986-8.663 62.211 10.762 5.512 6.825 7.875 14.962 7.875 24.412-1.313 39.636-22.312 66.41-63.261 80.06-17.85 10.237-45.936 18.9-83.998 25.462 38.062-6.562 66.148-14.962 83.998-25.462 1.575.263 2.887.263 4.2.525 8.662 1.313 17.324 3.938 25.462 8.137 13.65 7.088 21 16.013 22.312 27.037 2.887 30.974-19.687 54.861-68.249 71.923-12.862 4.463-27.299 8.4-43.311 11.813-3.412.525-6.825 1.312-10.237 1.837-18.112 2.887-28.087 4.725-29.924 5.25 2.1-.525 12.074-2.363 29.924-5.25 3.412-.525 6.825-1.312 10.237-1.837 3.937 2.1 7.612 4.724 11.025 7.612 12.337 10.237 19.162 23.1 20.737 38.849 1.312 11.812-6.3 21.262-22.575 27.824-14.437 6.037-32.024 8.925-52.76 8.4-14.438-.525-34.912 0-61.687 1.05-3.15.262-6.3.262-8.924.525-14.438.262-22.575.262-24.412-.525 1.837.787 9.974.787 24.412.525 6.562 4.462 9.974 10.762 10.762 18.9 1.312 13.649-7.35 23.624-26.25 29.924-19.162 6.562-44.623 7.874-75.86 3.412-19.95-2.887-36.487-10.762-49.349-23.624-14.437-14.7-22.837-34.912-25.2-60.111-2.624-26.512-2.624-83.998 0-172.458 6.038-18.9 15.488-37.012 28.088-54.336 17.587-24.15 43.573-49.35 77.698-75.336l5.512-3.937c20.737-15.487 44.361-31.5 70.873-47.512 27.3-16.537 54.599-35.961 81.635-58.536 25.2-20.474 46.2-39.899 63.261-58.536z"></path><path d="M1781.765 2032.63c-11.025 0-23.362-1.05-36.487-2.888-22.836-3.412-41.998-12.6-56.96-27.562-16.538-16.8-25.987-39.636-28.875-67.723-2.625-27.3-2.625-84.26 0-174.033 0-1.312.263-2.362.525-3.675 6.562-20.212 16.537-39.636 29.924-58.01 18.375-25.2 45.412-51.45 80.323-77.961 1.838-1.313 3.675-2.625 5.513-4.2 21-15.75 45.148-32.024 71.923-48.036 26.512-16.012 53.548-35.437 80.323-57.486 24.149-19.687 44.624-38.85 61.423-56.961 1.05-1.575 5.512-8.663 22.574-38.85l.263-.262c20.737-34.386 30.187-43.836 41.736-42.261 13.388 1.837 23.625 12.337 30.45 31.761 3.675 10.763 6.3 24.15 7.874 40.687 2.363 24.412 1.05 50.136-4.462 76.385-5.512 27.562-14.7 52.499-27.3 74.023-6.562 11.025-13.386 21.525-20.211 30.975 12.862 1.575 25.987 7.874 37.536 22.312 7.35 9.45 11.025 20.474 10.5 32.811-.787 22.575-7.35 42-19.424 57.486-5.775 7.35-12.6 13.65-20.737 19.162 17.85 9.187 27.561 21.787 29.136 37.274 1.838 19.425-4.2 36.75-18.374 51.449-12.862 13.65-32.024 24.937-58.536 34.124-6.038 2.1-12.337 3.937-18.9 5.775 9.45 10.762 14.962 23.887 16.275 38.586 1.312 12.6-2.888 29.925-30.712 41.474-16.012 6.563-35.436 9.975-58.01 9.45h-.263c-11.55-.262-27.3-.262-46.987.525.525 1.838.788 3.675.788 5.512 1.05 10.238-2.1 19.95-8.925 27.562-6.037 6.825-14.7 12.075-26.25 16.012-13.386 4.2-28.348 6.563-45.673 6.563zm-74.548-48.824c10.762 11.025 24.674 17.587 41.736 19.95 29.137 3.937 52.499 3.15 69.824-2.888 18.637-6.3 17.849-13.387 17.587-16.275-.263-2.887-1.05-4.987-2.625-6.824-18.112.262-21.525-.263-24.412-1.575-6.825-2.625-10.237-10.238-7.613-17.062 2.363-6.3 9.188-9.713 15.75-7.875 1.313.262 5.775.525 20.475 0 2.624-.263 5.512-.263 8.662-.525h.262c26.775-1.05 47.774-1.313 62.474-1.05 18.9.262 34.911-2.1 47.248-7.613 15.488-6.3 14.963-12.337 14.7-14.437-1.312-12.337-6.562-22.05-16.275-30.186h-.262c-1.575-1.313-3.412-2.888-5.25-3.938l-5.25 1.05h-.262c-23.362 3.938-28.087 4.725-28.874 4.988-7.088 1.837-14.175-2.363-16.013-9.45-1.837-7.088 2.363-14.175 9.45-16.012 1.313-.263 3.675-1.05 31.237-5.513l9.975-1.837a347.325 347.325 0 0 0 41.474-11.287c42.26-14.437 61.948-33.337 59.585-57.749-.262-2.1-1.05-9.187-15.224-16.537-6.825-3.412-14.175-5.775-21.262-6.825-19.425 10.238-46.986 18.375-84.523 24.675-7.087 1.312-13.912-3.675-15.224-10.763-1.313-7.087 3.674-13.912 10.762-15.224 36.224-6.3 62.998-14.175 79.535-23.625.263-.262.788-.525 1.05-.525l1.575-.787c17.85-6.037 31.237-14.7 40.162-25.987 8.924-11.287 13.387-24.937 13.912-41.999.262-6.3-1.575-11.55-4.988-16.012-13.912-17.324-30.974-13.387-44.624-7.35-10.5 8.925-23.624 17.587-38.848 25.987-6.3 3.413-14.438 1.05-17.85-5.25-3.412-6.3-1.05-14.437 5.25-17.85 14.437-7.874 26.512-16.011 35.961-23.886 3.15-2.625 6.038-5.512 8.663-8.137 1.575-1.575 2.887-3.413 4.462-4.988 9.712-11.55 19.425-25.462 28.35-40.949 11.024-19.162 19.424-41.211 24.411-65.885 4.988-23.625 6.3-46.724 3.938-68.511v-.263c-1.313-14.174-3.413-25.724-6.563-34.649-2.1-6.3-4.462-9.975-6.037-12.074-3.15 3.674-8.925 11.55-18.637 27.561-21.787 38.587-24.15 41.737-25.987 43.574-17.587 19.162-39.111 39.112-64.048 59.586-27.825 22.837-55.911 43.049-83.736 59.849-25.986 15.75-49.61 31.499-69.823 46.723 0 0-.262 0-.262.263-1.838 1.312-3.413 2.625-5.25 3.675-32.812 24.937-58.011 49.348-75.073 72.448-11.287 15.487-19.95 32.024-25.725 48.824-2.624 86.36-2.624 143.32 0 168.783 2.625 22.574 9.713 39.636 22.05 52.236zm111.297-32.024zm-1.575-.263zm172.983-498.474zm60.373-54.861z"></path></svg>