<svg xmlns="http://www.w3.org/2000/svg" viewBox="0 0 3000 3000"><path fill="#437480" d="M953.9 1984.128s0 .292 0 0z"></path><path fill="#495F5F" d="M1193.355 1995.795c0 .291 0 .291 0 0-9.625-2.625-18.958-4.959-28.291-7-8.459-1.75-17.208-3.5-25.667-4.958-58.623-9.625-120.456-9.334-185.788.583h-.291c-6.709 14-9.917 23.624-9.917 29.458 0 7.291 4.083 14 12.542 20.708 6.416 4.958 20.416 5.541 42.29 1.75 71.166-6.417 142.04.875 212.33 22.457 16.624 7.292 26.54 11.084 29.457 11.084 12.542 0 21.583-6.125 26.833-18.083 2.917-6.417 4.959-14.875 6.125-25.375-25.374-12.833-51.916-22.75-79.623-30.624m97.123-152.83c2.625-12.542 7-33.833 12.541-64.458l-153.705-59.207-49.583 39.374-60.082 78.165c-28.874 30.625-49.29 60.666-61.249 90.707-11.958 29.75-20.124 48.416-24.207 56.582v.292c65.332-9.917 127.164-9.917 185.788-.583 8.458 1.458 16.916 3.208 25.666 4.958a490.74 490.74 0 0 1 28 7l-38.792-52.5-69.415 5.542 38.5-58.332-26.25-60.665 62.415 16.916 51.041-43.458.583 71.457 61.832 36.458-63.582 22.166-16.624 62.416c27.416 7.583 53.957 17.791 79.915 30.04.583-5.832 1.166-12.249 1.166-19.249-.291-24.791-.291-43.457-.583-55.999.292-22.458 5.542-58.332 16.625-107.623z"></path><path fill="#F0DA5C" d="m1210.854 1803.59-51.04 43.166-62.416-16.916 26.25 60.665-38.5 58.332 69.416-5.541 38.79 52.499h.292l16.333-62.416 63.582-22.166-61.832-36.458-.875-71.165z"></path><path d="M1240.604 2084.168c-4.083 0-9.333-.875-34.416-11.958-67.957-20.708-137.08-28-205.621-21.583-26.541 4.375-43.166 2.917-53.083-4.667-12.25-9.333-18.374-20.124-18.374-32.082 0-8.167 3.5-18.958 11.083-34.708 14-56.874 38.207-108.498 71.457-153.705 33.54-45.208 77.29-85.165 129.789-118.415 7-4.375 16.041-2.333 20.125 4.375 4.375 6.708 2.333 15.75-4.667 20.125-49.582 31.5-90.415 68.832-121.914 111.414-27.125 36.75-47.833 78.457-61.25 123.956 58.625-7 115.207-6.125 168.29 2.625 8.75 1.459 17.499 3.208 26.249 4.958 9.625 2.042 19.25 4.375 28.874 7.292h.584c21.29 5.833 41.999 13.416 62.415 22.166-.292-23.333-.292-41.124-.583-53.082v-.292c0-23.916 5.25-60.374 16.624-111.123 2.625-12.25 6.709-33.832 12.542-63.873 1.458-7.875 9.041-13.125 16.916-11.667 7.875 1.458 13.125 9.042 11.667 16.916-5.542 30.625-9.917 52.5-12.542 65.04-10.791 48.125-16.041 83.416-16.041 104.999.292 12.541.292 31.5.583 55.999v.583c-.291 7.583-.583 14.292-1.458 20.416-1.458 12.25-3.792 21.875-7.292 29.75-7.291 17.208-21.583 26.541-39.957 26.541zm-192.497-64.749c56 0 112.29 8.458 167.414 25.375.583.291 1.167.291 1.75.583 16.916 7.292 22.75 9.333 24.208 9.625 5.25-.292 9.333-2.042 12.541-9.625a60.444 60.444 0 0 0 3.208-10.791c-21.874-9.917-44.624-18.083-67.373-24.5h-.584c-9.041-2.625-18.083-4.666-27.124-6.708-8.167-1.75-16.625-3.5-24.791-4.958-54.54-9.042-112.873-9.042-173.539-.584-5.25 11.958-5.25 15.75-5.25 16.042 0 2.333 2.625 5.541 6.709 8.75.583.291 7 3.208 31.207-.875h1.167c16.625-1.459 33.541-2.334 50.457-2.334z"></path></svg>