<svg xmlns="http://www.w3.org/2000/svg"><symbol id="default" viewBox="0 0 3000 3000"><path fill="#F0DA5C" d="M1213.67 506.18c-13.12 9.92-25.95 19.54-39.08 29.17-15.75 11.38-31.79 22.46-47.83 33.25-.29.29-.58.29-.58.58-119 80.5-241.21 142.33-366.62 185.21l11.08 69.42c14.58 25.08 43.46 31.5 86.33 19.25 132.71-51.33 256.96-122.21 372.75-213.2 25.37-19.83 50.16-40.54 74.66-62.12 26.83-28.29 30.04-54.25 9.33-77.58-13.12-11.08-26.25-22.17-39.08-32.67-20.12 16.63-40.54 32.96-60.96 48.71Zm0 0 14.59-53.66-60.67 25.96-58.33-38.79 5.54 69.12-53.08 39.37 62.41 16.33 2.63 3.5c16.04-10.79 32.08-21.87 47.83-33.25 13.13-9.04 25.96-18.67 39.08-28.58Zm-584.48 16.33 31.79-26.25-28.58-29.17 18.08-69.71-60.96 28.58-22.17-12.25-42.29 98.58 34.13 6.13 18.08 46.37 26.83-21.87 11.37-19.54 13.71-.875Zm313.83-205.62 5.54 67.08 50.46-50.16 69.71 17.79-28.88-60.96 5.25-9.33c-30.62-21.29-60.66-40.83-90.12-58.62l-7 37.62-61.25 24.5 56.29 32.08ZM806.81 207.23l-65.62 9.92-45.21-51.92c-.292 0-.583.58-1.17 1.17l-12.25 66.21-44.91 17.79c-1.75 3.79-3.21 7.58-4.67 11.37l-.583 1.17 44.92 25.96 5.25 66.79 51.04-49.58 69.42 17.79-28.88-60.96 32.67-55.71Zm91.87 305.37-16.33-62.42-39.37 52.79-70-4.38 39.38 57.17-26.25 60.37 62.71-16.92 51.04 43.75.58-71.46 61.54-36.46-63.29-22.46Z"></path><path fill="#495F5F" d="M691.31 771.88c-12.25 11.38-24.21 22.75-35.29 34.13-81.08 81.96-110.83 141.46-89.25 178.5 21.58 37.34 88.08 41.41 199.5 12.25 15.46-4.08 31.21-8.46 46.96-13.71 98.87-30.92 206.79-80.21 324.04-147.58 56.29-32.38 107.62-65.33 154.58-98.29 66.2-46.67 123.08-94.21 170.62-142.33 41.71-42 69.71-78.46 84.29-108.79 13.41-28.58 15.16-51.92 4.96-69.71-10.5-18.08-31.5-28.29-63-30.92-33.54-2.33-79.04 3.79-136.21 18.67-32.96 8.75-67.08 19.54-102.08 32.37 8.46 6.71 16.63 13.42 24.5 20.42 12.83 10.5 25.96 21.58 39.08 32.67 20.42 23.33 17.5 49.29-9.33 77.58-24.5 21.58-49.29 42.29-74.67 62.12-115.79 91-240.03 161.87-372.74 213.2-43.16 12.25-71.75 5.83-86.33-19.25l-11.08-69.42-5.54-35.58c-22.46 18.08-43.46 35.87-63 53.66ZM559.18 518.43l-34.13-6.13-9.92 22.75c-.875 2.33-3.21 7.29-6.71 15.46-3.5 8.17-4.96 16.04-4.96 23.92.29 20.71 9.92 28 28.29 21.58 1.17-.583 2.63-1.17 4.08-1.75 10.5-5.83 20.71-12.54 30.04-20.13l11.67-9.63-18.37-46.08Zm123.37-285.83 12.25-66.21c-22.46 18.38-41.71 46.37-57.16 84l44.91-17.79Zm58.92-15.46 65.62-9.92-32.96 55.71 28.87 60.96-69.42-17.79-51.04 49.87-5.25-66.79-44.92-25.96-65.04 150.5 21.88 12.54 60.96-28.58-18.08 69.71 28.58 29.17 48.42-40.25 44.62 262.2 5.54 35.58c125.42-42.87 247.62-104.71 366.62-185.21l-1.75-4.08-62.41-16.33 53.08-39.37-5.54-69.12 58.33 38.79 60.66-25.96-14.58 53.67c20.42-15.75 40.83-32.08 60.96-48.71-8.17-7-16.33-14-24.5-20.42-9.92-8.17-19.83-16.33-29.75-24.21-34.71-28-68.83-54.25-102.37-78.75-24.5-18.38-48.71-35.58-72.63-52.21l-5.25 9.33 28.88 60.96-69.71-17.79-50.75 49.29-5.54-67.08-56.29-32.08 61.25-24.5 7.29-37.33c-49.29-30.62-96.54-56.58-141.75-78.17-46.37-12.25-85.46-5.25-117.54 20.42l45.5 51.92Zm140.87 233.04 16.63 62.42 63.29 22.75-61.83 36.17-.583 71.46-51.04-43.75-62.71 17.21 26.25-60.37-39.38-57.16 70 4.38 39.37-53.08Z"></path><path fill="#000" d="M645.23 1030.59c-46.37 0-76.42-12.84-91.29-38.5-25.37-44.04 4.67-108.21 91.58-196.29 11.37-11.38 23.33-23.04 35.87-34.71 17.79-16.33 36.75-32.67 56.58-48.42l-38.79-228.95-28.87 23.92-31.79 25.96-24.79 20.42-26.83 21.87-11.38 9.63c-10.21 8.17-21 15.46-32.37 21.58-.875.58-1.75.88-2.63 1.17-1.17.29-1.75.58-2.4.58l-1.75.88c-13.71 4.67-25.08 4.08-33.83-2.04-9.04-6.42-13.71-17.5-14-32.96-.292-9.92 1.75-19.83 5.83-29.75v-.292c3.5-8.17 5.83-13.42 6.71-15.46l10.21-23.04 42.29-98.58 65.04-150.5s0-.292.29-.292c0-.292.29-.292.29-.583l.291-.292c1.46-3.79 2.92-7.58 4.67-11.38 15.17-37.62 34.71-66.79 57.46-86.62 1.75-3.5 4.67-6.13 8.46-7.58.29 0 .584-.292.88-.292 35-25.67 77.29-32.37 126-19.54l2.63.88c45.5 21.87 93.62 48.41 143.21 79.04a2070.95 2070.95 0 0 1 90.99 59.21c23.92 16.33 48.42 34.12 72.92 52.21 33.54 24.5 67.96 51.04 102.96 79.33 7.58 6.13 15.45 12.54 23.33 18.96 32.66-11.96 64.75-21.87 95.66-30.04 59.5-15.46 105.58-21.58 141.17-18.96 36.45 2.92 61.54 15.75 74.37 38.21 12.54 22.17 11.08 50.16-4.37 83.42-15.46 32.37-43.75 69.12-87.21 112.87-47.83 48.41-106.17 96.83-172.66 143.79-46.96 33.25-99.46 66.5-155.75 98.87-117.54 67.67-227.5 117.83-326.95 149.04-16.04 4.96-32.08 9.62-47.54 13.71-50.17 13.12-91.58 19.54-124.83 19.54Zm98.29-284.66c-14.88 12.25-28.88 24.5-42.29 36.75-11.96 11.08-23.92 22.46-34.71 33.54-94.21 95.08-99.46 140-87.21 161 17.5 30.34 80.79 32.09 183.16 5.25 15.17-4.08 30.62-8.46 46.37-13.42 97.42-30.62 205.33-79.92 321.12-146.41 55.41-32.08 107.04-65.04 153.41-97.71 65.33-46.08 122.21-93.33 168.87-140.58 40.25-40.83 67.67-76.12 81.37-104.71 11.38-23.92 13.13-42.87 5.55-56.29-7.88-13.42-25.09-21.58-51.34-23.62-31.79-2.33-76.12 3.79-131.54 18.38-24.79 6.42-50.74 14.29-76.7 23.33 1.75 1.46 3.5 2.92 4.96 4.38 12.83 10.5 25.95 21.58 39.08 32.67.58.58 1.17.88 1.46 1.46 13.12 14.87 18.66 31.21 16.62 48.41-2.04 16.04-10.79 32.38-26.25 49l-.87.87c-24.5 21.88-49.88 42.88-75.25 62.71-116.37 91.29-242.96 163.91-376.54 215.25-.292.29-.875.29-1.17.29-24.21 6.71-44.04 8.17-60.96 4.38-18.37-4.08-32.67-14.29-42-30.33-.875-1.46-1.46-3.21-1.75-4.96l-11.67-68.54v-.584l-1.75-10.5Zm40.83 72.92c5.25 8.17 19.83 23.92 67.96 10.5 130.66-50.75 254.62-121.62 368.37-210.87 24.79-19.54 49.58-39.96 73.5-61.25 26.54-28.29 19.25-45.21 9.33-56.58-9.62-8.17-19.25-16.33-28.87-24.21-17.21 14.29-34.71 28-52.21 41.42-13.12 9.92-26.25 19.54-39.08 29.17-16.04 11.67-32.08 22.75-48.12 33.54-.3 0-.3.29-.59.29-115.79 78.46-236.53 140-358.45 183.16l8.17 54.83ZM768.31 716.76l2.92 18.08c118.12-42 234.5-101.79 346.79-177.91h.29c.29-.291.29-.291.58-.291 15.75-10.5 31.79-21.58 47.25-32.96 12.83-9.33 25.67-19.25 38.79-28.88 15.75-12.25 31.5-24.79 47.25-37.33-3.5-2.92-7.29-6.13-11.08-8.75l-.29-.292c-9.92-8.17-19.54-16.33-29.46-23.92-34.42-27.71-68.83-54.25-101.79-78.46-24.21-18.08-48.42-35.58-72.04-51.62-30.33-21-60.38-40.54-89.54-58.33-48.42-30.62-95.37-56.29-139.41-77.58-41.12-10.5-74.96-4.67-103.25 17.79l-.292.29-.291.29-.875.88c-20.42 16.63-38.21 43.17-52.79 78.17v.292c-1.46 3.5-2.92 7.29-4.38 10.79-.291.58-.291.88-.583 1.46l-.292.88-65.04 150.21-42.58 98.58-9.92 22.75c-.875 2.04-3.21 7.29-6.71 15.46-2.63 6.42-4.08 12.25-3.79 18.08v.292c0 6.12 1.17 8.75 1.46 9.33.88 0 2.92 0 6.71-1.17 1.17-.583 2.33-1.17 3.79-1.46 9.33-5.25 18.38-11.08 26.54-18.08l11.38-9.63 24.79-20.42 9.92-17.21c2.33-4.38 7-7 11.96-7.29l9.04-.583 28-23.04 41.71-34.42-4.38-24.21c-1.46-7.88 3.79-15.46 11.67-16.92 7.88-1.46 15.46 3.79 16.92 11.67l5.83 32.67v.292l44.63 261.91c.583 0 .583.29.58.58Z"></path></symbol><symbol id="body" viewBox="0 0 3000 3000"><path fill="#F0DA5C" d="M1213.67 506.18c-13.12 9.92-25.95 19.54-39.08 29.17-15.75 11.38-31.79 22.46-47.83 33.25-.29.29-.58.29-.58.58-119 80.5-241.21 142.33-366.62 185.21l11.08 69.42c14.58 25.08 43.46 31.5 86.33 19.25 132.71-51.33 256.96-122.21 372.75-213.2 25.37-19.83 50.16-40.54 74.66-62.12 26.83-28.29 30.04-54.25 9.33-77.58-13.12-11.08-26.25-22.17-39.08-32.67-20.12 16.63-40.54 32.96-60.96 48.71Zm0 0 14.59-53.66-60.67 25.96-58.33-38.79 5.54 69.12-53.08 39.37 62.41 16.33 2.63 3.5c16.04-10.79 32.08-21.87 47.83-33.25 13.13-9.04 25.96-18.67 39.08-28.58Zm-584.48 16.33 31.79-26.25-28.58-29.17 18.08-69.71-60.96 28.58-22.17-12.25-42.29 98.58 34.13 6.13 18.08 46.37 26.83-21.87 11.37-19.54 13.71-.875Zm313.83-205.62 5.54 67.08 50.46-50.16 69.71 17.79-28.88-60.96 5.25-9.33c-30.62-21.29-60.66-40.83-90.12-58.62l-7 37.62-61.25 24.5 56.29 32.08ZM806.81 207.23l-65.62 9.92-45.21-51.92c-.292 0-.583.58-1.17 1.17l-12.25 66.21-44.91 17.79c-1.75 3.79-3.21 7.58-4.67 11.37l-.583 1.17 44.92 25.96 5.25 66.79 51.04-49.58 69.42 17.79-28.88-60.96 32.67-55.71Zm91.87 305.37-16.33-62.42-39.37 52.79-70-4.38 39.38 57.17-26.25 60.37 62.71-16.92 51.04 43.75.58-71.46 61.54-36.46-63.29-22.46Z"></path><path fill="#495F5F" d="M691.31 771.88c-12.25 11.38-24.21 22.75-35.29 34.13-81.08 81.96-110.83 141.46-89.25 178.5 21.58 37.34 88.08 41.41 199.5 12.25 15.46-4.08 31.21-8.46 46.96-13.71 98.87-30.92 206.79-80.21 324.04-147.58 56.29-32.38 107.62-65.33 154.58-98.29 66.2-46.67 123.08-94.21 170.62-142.33 41.71-42 69.71-78.46 84.29-108.79 13.41-28.58 15.16-51.92 4.96-69.71-10.5-18.08-31.5-28.29-63-30.92-33.54-2.33-79.04 3.79-136.21 18.67-32.96 8.75-67.08 19.54-102.08 32.37 8.46 6.71 16.63 13.42 24.5 20.42 12.83 10.5 25.96 21.58 39.08 32.67 20.42 23.33 17.5 49.29-9.33 77.58-24.5 21.58-49.29 42.29-74.67 62.12-115.79 91-240.03 161.87-372.74 213.2-43.16 12.25-71.75 5.83-86.33-19.25l-11.08-69.42-5.54-35.58c-22.46 18.08-43.46 35.87-63 53.66ZM559.18 518.43l-34.13-6.13-9.92 22.75c-.875 2.33-3.21 7.29-6.71 15.46-3.5 8.17-4.96 16.04-4.96 23.92.29 20.71 9.92 28 28.29 21.58 1.17-.583 2.63-1.17 4.08-1.75 10.5-5.83 20.71-12.54 30.04-20.13l11.67-9.63-18.37-46.08Zm123.37-285.83 12.25-66.21c-22.46 18.38-41.71 46.37-57.16 84l44.91-17.79Zm58.92-15.46 65.62-9.92-32.96 55.71 28.87 60.96-69.42-17.79-51.04 49.87-5.25-66.79-44.92-25.96-65.04 150.5 21.88 12.54 60.96-28.58-18.08 69.71 28.58 29.17 48.42-40.25 44.62 262.2 5.54 35.58c125.42-42.87 247.62-104.71 366.62-185.21l-1.75-4.08-62.41-16.33 53.08-39.37-5.54-69.12 58.33 38.79 60.66-25.96-14.58 53.67c20.42-15.75 40.83-32.08 60.96-48.71-8.17-7-16.33-14-24.5-20.42-9.92-8.17-19.83-16.33-29.75-24.21-34.71-28-68.83-54.25-102.37-78.75-24.5-18.38-48.71-35.58-72.63-52.21l-5.25 9.33 28.88 60.96-69.71-17.79-50.75 49.29-5.54-67.08-56.29-32.08 61.25-24.5 7.29-37.33c-49.29-30.62-96.54-56.58-141.75-78.17-46.37-12.25-85.46-5.25-117.54 20.42l45.5 51.92Zm140.87 233.04 16.63 62.42 63.29 22.75-61.83 36.17-.583 71.46-51.04-43.75-62.71 17.21 26.25-60.37-39.38-57.16 70 4.38 39.37-53.08Z"></path><path fill="#000" d="M645.23 1030.59c-46.37 0-76.42-12.84-91.29-38.5-25.37-44.04 4.67-108.21 91.58-196.29 11.37-11.38 23.33-23.04 35.87-34.71 17.79-16.33 36.75-32.67 56.58-48.42l-38.79-228.95-28.87 23.92-31.79 25.96-24.79 20.42-26.83 21.87-11.38 9.63c-10.21 8.17-21 15.46-32.37 21.58-.875.58-1.75.88-2.63 1.17-1.17.29-1.75.58-2.4.58l-1.75.88c-13.71 4.67-25.08 4.08-33.83-2.04-9.04-6.42-13.71-17.5-14-32.96-.292-9.92 1.75-19.83 5.83-29.75v-.292c3.5-8.17 5.83-13.42 6.71-15.46l10.21-23.04 42.29-98.58 65.04-150.5s0-.292.29-.292c0-.292.29-.292.29-.583l.291-.292c1.46-3.79 2.92-7.58 4.67-11.38 15.17-37.62 34.71-66.79 57.46-86.62 1.75-3.5 4.67-6.13 8.46-7.58.29 0 .584-.292.88-.292 35-25.67 77.29-32.37 126-19.54l2.63.88c45.5 21.87 93.62 48.41 143.21 79.04a2070.95 2070.95 0 0 1 90.99 59.21c23.92 16.33 48.42 34.12 72.92 52.21 33.54 24.5 67.96 51.04 102.96 79.33 7.58 6.13 15.45 12.54 23.33 18.96 32.66-11.96 64.75-21.87 95.66-30.04 59.5-15.46 105.58-21.58 141.17-18.96 36.45 2.92 61.54 15.75 74.37 38.21 12.54 22.17 11.08 50.16-4.37 83.42-15.46 32.37-43.75 69.12-87.21 112.87-47.83 48.41-106.17 96.83-172.66 143.79-46.96 33.25-99.46 66.5-155.75 98.87-117.54 67.67-227.5 117.83-326.95 149.04-16.04 4.96-32.08 9.62-47.54 13.71-50.17 13.12-91.58 19.54-124.83 19.54Zm98.29-284.66c-14.88 12.25-28.88 24.5-42.29 36.75-11.96 11.08-23.92 22.46-34.71 33.54-94.21 95.08-99.46 140-87.21 161 17.5 30.34 80.79 32.09 183.16 5.25 15.17-4.08 30.62-8.46 46.37-13.42 97.42-30.62 205.33-79.92 321.12-146.41 55.41-32.08 107.04-65.04 153.41-97.71 65.33-46.08 122.21-93.33 168.87-140.58 40.25-40.83 67.67-76.12 81.37-104.71 11.38-23.92 13.13-42.87 5.55-56.29-7.88-13.42-25.09-21.58-51.34-23.62-31.79-2.33-76.12 3.79-131.54 18.38-24.79 6.42-50.74 14.29-76.7 23.33 1.75 1.46 3.5 2.92 4.96 4.38 12.83 10.5 25.95 21.58 39.08 32.67.58.58 1.17.88 1.46 1.46 13.12 14.87 18.66 31.21 16.62 48.41-2.04 16.04-10.79 32.38-26.25 49l-.87.87c-24.5 21.88-49.88 42.88-75.25 62.71-116.37 91.29-242.96 163.91-376.54 215.25-.292.29-.875.29-1.17.29-24.21 6.71-44.04 8.17-60.96 4.38-18.37-4.08-32.67-14.29-42-30.33-.875-1.46-1.46-3.21-1.75-4.96l-11.67-68.54v-.584l-1.75-10.5Zm40.83 72.92c5.25 8.17 19.83 23.92 67.96 10.5 130.66-50.75 254.62-121.62 368.37-210.87 24.79-19.54 49.58-39.96 73.5-61.25 26.54-28.29 19.25-45.21 9.33-56.58-9.62-8.17-19.25-16.33-28.87-24.21-17.21 14.29-34.71 28-52.21 41.42-13.12 9.92-26.25 19.54-39.08 29.17-16.04 11.67-32.08 22.75-48.12 33.54-.3 0-.3.29-.59.29-115.79 78.46-236.53 140-358.45 183.16l8.17 54.83ZM768.31 716.76l2.92 18.08c118.12-42 234.5-101.79 346.79-177.91h.29c.29-.291.29-.291.58-.291 15.75-10.5 31.79-21.58 47.25-32.96 12.83-9.33 25.67-19.25 38.79-28.88 15.75-12.25 31.5-24.79 47.25-37.33-3.5-2.92-7.29-6.13-11.08-8.75l-.29-.292c-9.92-8.17-19.54-16.33-29.46-23.92-34.42-27.71-68.83-54.25-101.79-78.46-24.21-18.08-48.42-35.58-72.04-51.62-30.33-21-60.38-40.54-89.54-58.33-48.42-30.62-95.37-56.29-139.41-77.58-41.12-10.5-74.96-4.67-103.25 17.79l-.292.29-.291.29-.875.88c-20.42 16.63-38.21 43.17-52.79 78.17v.292c-1.46 3.5-2.92 7.29-4.38 10.79-.291.58-.291.88-.583 1.46l-.292.88-65.04 150.21-42.58 98.58-9.92 22.75c-.875 2.04-3.21 7.29-6.71 15.46-2.63 6.42-4.08 12.25-3.79 18.08v.292c0 6.12 1.17 8.75 1.46 9.33.88 0 2.92 0 6.71-1.17 1.17-.583 2.33-1.17 3.79-1.46 9.33-5.25 18.38-11.08 26.54-18.08l11.38-9.63 24.79-20.42 9.92-17.21c2.33-4.38 7-7 11.96-7.29l9.04-.583 28-23.04 41.71-34.42-4.38-24.21c-1.46-7.88 3.79-15.46 11.67-16.92 7.88-1.46 15.46 3.79 16.92 11.67l5.83 32.67v.292l44.63 261.91c.583 0 .583.29.58.58Z"></path></symbol><symbol id="left" viewBox="0 0 3000 3000"><path fill="#F0DA5C" d="M1213.67 506.18c-13.12 9.92-25.95 19.54-39.08 29.17-15.75 11.38-31.79 22.46-47.83 33.25-.29.29-.58.29-.58.58-119 80.5-241.21 142.33-366.62 185.21l11.08 69.42c14.58 25.08 43.46 31.5 86.33 19.25 132.71-51.33 256.96-122.21 372.75-213.2 25.37-19.83 50.16-40.54 74.66-62.12 26.83-28.29 30.04-54.25 9.33-77.58-13.12-11.08-26.25-22.17-39.08-32.67-20.12 16.63-40.54 32.96-60.96 48.71Zm0 0 14.59-53.66-60.67 25.96-58.33-38.79 5.54 69.12-53.08 39.37 62.41 16.33 2.63 3.5c16.04-10.79 32.08-21.87 47.83-33.25 13.13-9.04 25.96-18.67 39.08-28.58Zm-584.48 16.33 31.79-26.25-28.58-29.17 18.08-69.71-60.96 28.58-22.17-12.25-42.29 98.58 34.13 6.13 18.08 46.37 26.83-21.87 11.37-19.54 13.71-.875Zm313.83-205.62 5.54 67.08 50.46-50.16 69.71 17.79-28.88-60.96 5.25-9.33c-30.62-21.29-60.66-40.83-90.12-58.62l-7 37.62-61.25 24.5 56.29 32.08ZM806.81 207.23l-65.62 9.92-45.21-51.92c-.292 0-.583.58-1.17 1.17l-12.25 66.21-44.91 17.79c-1.75 3.79-3.21 7.58-4.67 11.37l-.583 1.17 44.92 25.96 5.25 66.79 51.04-49.58 69.42 17.79-28.88-60.96 32.67-55.71Zm91.87 305.37-16.33-62.42-39.37 52.79-70-4.38 39.38 57.17-26.25 60.37 62.71-16.92 51.04 43.75.58-71.46 61.54-36.46-63.29-22.46Z"></path><path fill="#495F5F" d="M691.31 771.88c-12.25 11.38-24.21 22.75-35.29 34.13-81.08 81.96-110.83 141.46-89.25 178.5 21.58 37.34 88.08 41.41 199.5 12.25 15.46-4.08 31.21-8.46 46.96-13.71 98.87-30.92 206.79-80.21 324.04-147.58 56.29-32.38 107.62-65.33 154.58-98.29 66.2-46.67 123.08-94.21 170.62-142.33 41.71-42 69.71-78.46 84.29-108.79 13.41-28.58 15.16-51.92 4.96-69.71-10.5-18.08-31.5-28.29-63-30.92-33.54-2.33-79.04 3.79-136.21 18.67-32.96 8.75-67.08 19.54-102.08 32.37 8.46 6.71 16.63 13.42 24.5 20.42 12.83 10.5 25.96 21.58 39.08 32.67 20.42 23.33 17.5 49.29-9.33 77.58-24.5 21.58-49.29 42.29-74.67 62.12-115.79 91-240.03 161.87-372.74 213.2-43.16 12.25-71.75 5.83-86.33-19.25l-11.08-69.42-5.54-35.58c-22.46 18.08-43.46 35.87-63 53.66ZM559.18 518.43l-34.13-6.13-9.92 22.75c-.875 2.33-3.21 7.29-6.71 15.46-3.5 8.17-4.96 16.04-4.96 23.92.29 20.71 9.92 28 28.29 21.58 1.17-.583 2.63-1.17 4.08-1.75 10.5-5.83 20.71-12.54 30.04-20.13l11.67-9.63-18.37-46.08Zm123.37-285.83 12.25-66.21c-22.46 18.38-41.71 46.37-57.16 84l44.91-17.79Zm58.92-15.46 65.62-9.92-32.96 55.71 28.87 60.96-69.42-17.79-51.04 49.87-5.25-66.79-44.92-25.96-65.04 150.5 21.88 12.54 60.96-28.58-18.08 69.71 28.58 29.17 48.42-40.25 44.62 262.2 5.54 35.58c125.42-42.87 247.62-104.71 366.62-185.21l-1.75-4.08-62.41-16.33 53.08-39.37-5.54-69.12 58.33 38.79 60.66-25.96-14.58 53.67c20.42-15.75 40.83-32.08 60.96-48.71-8.17-7-16.33-14-24.5-20.42-9.92-8.17-19.83-16.33-29.75-24.21-34.71-28-68.83-54.25-102.37-78.75-24.5-18.38-48.71-35.58-72.63-52.21l-5.25 9.33 28.88 60.96-69.71-17.79-50.75 49.29-5.54-67.08-56.29-32.08 61.25-24.5 7.29-37.33c-49.29-30.62-96.54-56.58-141.75-78.17-46.37-12.25-85.46-5.25-117.54 20.42l45.5 51.92Zm140.87 233.04 16.63 62.42 63.29 22.75-61.83 36.17-.583 71.46-51.04-43.75-62.71 17.21 26.25-60.37-39.38-57.16 70 4.38 39.37-53.08Z"></path><path fill="#000" d="M645.23 1030.59c-46.37 0-76.42-12.84-91.29-38.5-25.37-44.04 4.67-108.21 91.58-196.29 11.37-11.38 23.33-23.04 35.87-34.71 17.79-16.33 36.75-32.67 56.58-48.42l-38.79-228.95-28.87 23.92-31.79 25.96-24.79 20.42-26.83 21.87-11.38 9.63c-10.21 8.17-21 15.46-32.37 21.58-.875.58-1.75.88-2.63 1.17-1.17.29-1.75.58-2.4.58l-1.75.88c-13.71 4.67-25.08 4.08-33.83-2.04-9.04-6.42-13.71-17.5-14-32.96-.292-9.92 1.75-19.83 5.83-29.75v-.292c3.5-8.17 5.83-13.42 6.71-15.46l10.21-23.04 42.29-98.58 65.04-150.5s0-.292.29-.292c0-.292.29-.292.29-.583l.291-.292c1.46-3.79 2.92-7.58 4.67-11.38 15.17-37.62 34.71-66.79 57.46-86.62 1.75-3.5 4.67-6.13 8.46-7.58.29 0 .584-.292.88-.292 35-25.67 77.29-32.37 126-19.54l2.63.88c45.5 21.87 93.62 48.41 143.21 79.04a2070.95 2070.95 0 0 1 90.99 59.21c23.92 16.33 48.42 34.12 72.92 52.21 33.54 24.5 67.96 51.04 102.96 79.33 7.58 6.13 15.45 12.54 23.33 18.96 32.66-11.96 64.75-21.87 95.66-30.04 59.5-15.46 105.58-21.58 141.17-18.96 36.45 2.92 61.54 15.75 74.37 38.21 12.54 22.17 11.08 50.16-4.37 83.42-15.46 32.37-43.75 69.12-87.21 112.87-47.83 48.41-106.17 96.83-172.66 143.79-46.96 33.25-99.46 66.5-155.75 98.87-117.54 67.67-227.5 117.83-326.95 149.04-16.04 4.96-32.08 9.62-47.54 13.71-50.17 13.12-91.58 19.54-124.83 19.54Zm98.29-284.66c-14.88 12.25-28.88 24.5-42.29 36.75-11.96 11.08-23.92 22.46-34.71 33.54-94.21 95.08-99.46 140-87.21 161 17.5 30.34 80.79 32.09 183.16 5.25 15.17-4.08 30.62-8.46 46.37-13.42 97.42-30.62 205.33-79.92 321.12-146.41 55.41-32.08 107.04-65.04 153.41-97.71 65.33-46.08 122.21-93.33 168.87-140.58 40.25-40.83 67.67-76.12 81.37-104.71 11.38-23.92 13.13-42.87 5.55-56.29-7.88-13.42-25.09-21.58-51.34-23.62-31.79-2.33-76.12 3.79-131.54 18.38-24.79 6.42-50.74 14.29-76.7 23.33 1.75 1.46 3.5 2.92 4.96 4.38 12.83 10.5 25.95 21.58 39.08 32.67.58.58 1.17.88 1.46 1.46 13.12 14.87 18.66 31.21 16.62 48.41-2.04 16.04-10.79 32.38-26.25 49l-.87.87c-24.5 21.88-49.88 42.88-75.25 62.71-116.37 91.29-242.96 163.91-376.54 215.25-.292.29-.875.29-1.17.29-24.21 6.71-44.04 8.17-60.96 4.38-18.37-4.08-32.67-14.29-42-30.33-.875-1.46-1.46-3.21-1.75-4.96l-11.67-68.54v-.584l-1.75-10.5Zm40.83 72.92c5.25 8.17 19.83 23.92 67.96 10.5 130.66-50.75 254.62-121.62 368.37-210.87 24.79-19.54 49.58-39.96 73.5-61.25 26.54-28.29 19.25-45.21 9.33-56.58-9.62-8.17-19.25-16.33-28.87-24.21-17.21 14.29-34.71 28-52.21 41.42-13.12 9.92-26.25 19.54-39.08 29.17-16.04 11.67-32.08 22.75-48.12 33.54-.3 0-.3.29-.59.29-115.79 78.46-236.53 140-358.45 183.16l8.17 54.83ZM768.31 716.76l2.92 18.08c118.12-42 234.5-101.79 346.79-177.91h.29c.29-.291.29-.291.58-.291 15.75-10.5 31.79-21.58 47.25-32.96 12.83-9.33 25.67-19.25 38.79-28.88 15.75-12.25 31.5-24.79 47.25-37.33-3.5-2.92-7.29-6.13-11.08-8.75l-.29-.292c-9.92-8.17-19.54-16.33-29.46-23.92-34.42-27.71-68.83-54.25-101.79-78.46-24.21-18.08-48.42-35.58-72.04-51.62-30.33-21-60.38-40.54-89.54-58.33-48.42-30.62-95.37-56.29-139.41-77.58-41.12-10.5-74.96-4.67-103.25 17.79l-.292.29-.291.29-.875.88c-20.42 16.63-38.21 43.17-52.79 78.17v.292c-1.46 3.5-2.92 7.29-4.38 10.79-.291.58-.291.88-.583 1.46l-.292.88-65.04 150.21-42.58 98.58-9.92 22.75c-.875 2.04-3.21 7.29-6.71 15.46-2.63 6.42-4.08 12.25-3.79 18.08v.292c0 6.12 1.17 8.75 1.46 9.33.88 0 2.92 0 6.71-1.17 1.17-.583 2.33-1.17 3.79-1.46 9.33-5.25 18.38-11.08 26.54-18.08l11.38-9.63 24.79-20.42 9.92-17.21c2.33-4.38 7-7 11.96-7.29l9.04-.583 28-23.04 41.71-34.42-4.38-24.21c-1.46-7.88 3.79-15.46 11.67-16.92 7.88-1.46 15.46 3.79 16.92 11.67l5.83 32.67v.292l44.63 261.91c.583 0 .583.29.58.58Z"></path></symbol><symbol id="right" viewBox="0 0 3000 3000"><path fill="#F0DA5C" d="M1213.67 506.18c-13.12 9.92-25.95 19.54-39.08 29.17-15.75 11.38-31.79 22.46-47.83 33.25-.29.29-.58.29-.58.58-119 80.5-241.21 142.33-366.62 185.21l11.08 69.42c14.58 25.08 43.46 31.5 86.33 19.25 132.71-51.33 256.96-122.21 372.75-213.2 25.37-19.83 50.16-40.54 74.66-62.12 26.83-28.29 30.04-54.25 9.33-77.58-13.12-11.08-26.25-22.17-39.08-32.67-20.12 16.63-40.54 32.96-60.96 48.71Zm0 0 14.59-53.66-60.67 25.96-58.33-38.79 5.54 69.12-53.08 39.37 62.41 16.33 2.63 3.5c16.04-10.79 32.08-21.87 47.83-33.25 13.13-9.04 25.96-18.67 39.08-28.58Zm-584.48 16.33 31.79-26.25-28.58-29.17 18.08-69.71-60.96 28.58-22.17-12.25-42.29 98.58 34.13 6.13 18.08 46.37 26.83-21.87 11.37-19.54 13.71-.875Zm313.83-205.62 5.54 67.08 50.46-50.16 69.71 17.79-28.88-60.96 5.25-9.33c-30.62-21.29-60.66-40.83-90.12-58.62l-7 37.62-61.25 24.5 56.29 32.08ZM806.81 207.23l-65.62 9.92-45.21-51.92c-.292 0-.583.58-1.17 1.17l-12.25 66.21-44.91 17.79c-1.75 3.79-3.21 7.58-4.67 11.37l-.583 1.17 44.92 25.96 5.25 66.79 51.04-49.58 69.42 17.79-28.88-60.96 32.67-55.71Zm91.87 305.37-16.33-62.42-39.37 52.79-70-4.38 39.38 57.17-26.25 60.37 62.71-16.92 51.04 43.75.58-71.46 61.54-36.46-63.29-22.46Z"></path><path fill="#495F5F" d="M691.31 771.88c-12.25 11.38-24.21 22.75-35.29 34.13-81.08 81.96-110.83 141.46-89.25 178.5 21.58 37.34 88.08 41.41 199.5 12.25 15.46-4.08 31.21-8.46 46.96-13.71 98.87-30.92 206.79-80.21 324.04-147.58 56.29-32.38 107.62-65.33 154.58-98.29 66.2-46.67 123.08-94.21 170.62-142.33 41.71-42 69.71-78.46 84.29-108.79 13.41-28.58 15.16-51.92 4.96-69.71-10.5-18.08-31.5-28.29-63-30.92-33.54-2.33-79.04 3.79-136.21 18.67-32.96 8.75-67.08 19.54-102.08 32.37 8.46 6.71 16.63 13.42 24.5 20.42 12.83 10.5 25.96 21.58 39.08 32.67 20.42 23.33 17.5 49.29-9.33 77.58-24.5 21.58-49.29 42.29-74.67 62.12-115.79 91-240.03 161.87-372.74 213.2-43.16 12.25-71.75 5.83-86.33-19.25l-11.08-69.42-5.54-35.58c-22.46 18.08-43.46 35.87-63 53.66ZM559.18 518.43l-34.13-6.13-9.92 22.75c-.875 2.33-3.21 7.29-6.71 15.46-3.5 8.17-4.96 16.04-4.96 23.92.29 20.71 9.92 28 28.29 21.58 1.17-.583 2.63-1.17 4.08-1.75 10.5-5.83 20.71-12.54 30.04-20.13l11.67-9.63-18.37-46.08Zm123.37-285.83 12.25-66.21c-22.46 18.38-41.71 46.37-57.16 84l44.91-17.79Zm58.92-15.46 65.62-9.92-32.96 55.71 28.87 60.96-69.42-17.79-51.04 49.87-5.25-66.79-44.92-25.96-65.04 150.5 21.88 12.54 60.96-28.58-18.08 69.71 28.58 29.17 48.42-40.25 44.62 262.2 5.54 35.58c125.42-42.87 247.62-104.71 366.62-185.21l-1.75-4.08-62.41-16.33 53.08-39.37-5.54-69.12 58.33 38.79 60.66-25.96-14.58 53.67c20.42-15.75 40.83-32.08 60.96-48.71-8.17-7-16.33-14-24.5-20.42-9.92-8.17-19.83-16.33-29.75-24.21-34.71-28-68.83-54.25-102.37-78.75-24.5-18.38-48.71-35.58-72.63-52.21l-5.25 9.33 28.88 60.96-69.71-17.79-50.75 49.29-5.54-67.08-56.29-32.08 61.25-24.5 7.29-37.33c-49.29-30.62-96.54-56.58-141.75-78.17-46.37-12.25-85.46-5.25-117.54 20.42l45.5 51.92Zm140.87 233.04 16.63 62.42 63.29 22.75-61.83 36.17-.583 71.46-51.04-43.75-62.71 17.21 26.25-60.37-39.38-57.16 70 4.38 39.37-53.08Z"></path><path fill="#000" d="M645.23 1030.59c-46.37 0-76.42-12.84-91.29-38.5-25.37-44.04 4.67-108.21 91.58-196.29 11.37-11.38 23.33-23.04 35.87-34.71 17.79-16.33 36.75-32.67 56.58-48.42l-38.79-228.95-28.87 23.92-31.79 25.96-24.79 20.42-26.83 21.87-11.38 9.63c-10.21 8.17-21 15.46-32.37 21.58-.875.58-1.75.88-2.63 1.17-1.17.29-1.75.58-2.4.58l-1.75.88c-13.71 4.67-25.08 4.08-33.83-2.04-9.04-6.42-13.71-17.5-14-32.96-.292-9.92 1.75-19.83 5.83-29.75v-.292c3.5-8.17 5.83-13.42 6.71-15.46l10.21-23.04 42.29-98.58 65.04-150.5s0-.292.29-.292c0-.292.29-.292.29-.583l.291-.292c1.46-3.79 2.92-7.58 4.67-11.38 15.17-37.62 34.71-66.79 57.46-86.62 1.75-3.5 4.67-6.13 8.46-7.58.29 0 .584-.292.88-.292 35-25.67 77.29-32.37 126-19.54l2.63.88c45.5 21.87 93.62 48.41 143.21 79.04a2070.95 2070.95 0 0 1 90.99 59.21c23.92 16.33 48.42 34.12 72.92 52.21 33.54 24.5 67.96 51.04 102.96 79.33 7.58 6.13 15.45 12.54 23.33 18.96 32.66-11.96 64.75-21.87 95.66-30.04 59.5-15.46 105.58-21.58 141.17-18.96 36.45 2.92 61.54 15.75 74.37 38.21 12.54 22.17 11.08 50.16-4.37 83.42-15.46 32.37-43.75 69.12-87.21 112.87-47.83 48.41-106.17 96.83-172.66 143.79-46.96 33.25-99.46 66.5-155.75 98.87-117.54 67.67-227.5 117.83-326.95 149.04-16.04 4.96-32.08 9.62-47.54 13.71-50.17 13.12-91.58 19.54-124.83 19.54Zm98.29-284.66c-14.88 12.25-28.88 24.5-42.29 36.75-11.96 11.08-23.92 22.46-34.71 33.54-94.21 95.08-99.46 140-87.21 161 17.5 30.34 80.79 32.09 183.16 5.25 15.17-4.08 30.62-8.46 46.37-13.42 97.42-30.62 205.33-79.92 321.12-146.41 55.41-32.08 107.04-65.04 153.41-97.71 65.33-46.08 122.21-93.33 168.87-140.58 40.25-40.83 67.67-76.12 81.37-104.71 11.38-23.92 13.13-42.87 5.55-56.29-7.88-13.42-25.09-21.58-51.34-23.62-31.79-2.33-76.12 3.79-131.54 18.38-24.79 6.42-50.74 14.29-76.7 23.33 1.75 1.46 3.5 2.92 4.96 4.38 12.83 10.5 25.95 21.58 39.08 32.67.58.58 1.17.88 1.46 1.46 13.12 14.87 18.66 31.21 16.62 48.41-2.04 16.04-10.79 32.38-26.25 49l-.87.87c-24.5 21.88-49.88 42.88-75.25 62.71-116.37 91.29-242.96 163.91-376.54 215.25-.292.29-.875.29-1.17.29-24.21 6.71-44.04 8.17-60.96 4.38-18.37-4.08-32.67-14.29-42-30.33-.875-1.46-1.46-3.21-1.75-4.96l-11.67-68.54v-.584l-1.75-10.5Zm40.83 72.92c5.25 8.17 19.83 23.92 67.96 10.5 130.66-50.75 254.62-121.62 368.37-210.87 24.79-19.54 49.58-39.96 73.5-61.25 26.54-28.29 19.25-45.21 9.33-56.58-9.62-8.17-19.25-16.33-28.87-24.21-17.21 14.29-34.71 28-52.21 41.42-13.12 9.92-26.25 19.54-39.08 29.17-16.04 11.67-32.08 22.75-48.12 33.54-.3 0-.3.29-.59.29-115.79 78.46-236.53 140-358.45 183.16l8.17 54.83ZM768.31 716.76l2.92 18.08c118.12-42 234.5-101.79 346.79-177.91h.29c.29-.291.29-.291.58-.291 15.75-10.5 31.79-21.58 47.25-32.96 12.83-9.33 25.67-19.25 38.79-28.88 15.75-12.25 31.5-24.79 47.25-37.33-3.5-2.92-7.29-6.13-11.08-8.75l-.29-.292c-9.92-8.17-19.54-16.33-29.46-23.92-34.42-27.71-68.83-54.25-101.79-78.46-24.21-18.08-48.42-35.58-72.04-51.62-30.33-21-60.38-40.54-89.54-58.33-48.42-30.62-95.37-56.29-139.41-77.58-41.12-10.5-74.96-4.67-103.25 17.79l-.292.29-.291.29-.875.88c-20.42 16.63-38.21 43.17-52.79 78.17v.292c-1.46 3.5-2.92 7.29-4.38 10.79-.291.58-.291.88-.583 1.46l-.292.88-65.04 150.21-42.58 98.58-9.92 22.75c-.875 2.04-3.21 7.29-6.71 15.46-2.63 6.42-4.08 12.25-3.79 18.08v.292c0 6.12 1.17 8.75 1.46 9.33.88 0 2.92 0 6.71-1.17 1.17-.583 2.33-1.17 3.79-1.46 9.33-5.25 18.38-11.08 26.54-18.08l11.38-9.63 24.79-20.42 9.92-17.21c2.33-4.38 7-7 11.96-7.29l9.04-.583 28-23.04 41.71-34.42-4.38-24.21c-1.46-7.88 3.79-15.46 11.67-16.92 7.88-1.46 15.46 3.79 16.92 11.67l5.83 32.67v.292l44.63 261.91c.583 0 .583.29.58.58Z"></path></symbol></svg>