<svg xmlns="http://www.w3.org/2000/svg" viewBox="0 0 3000 3000"><path fill="#437480" d="M1929.95 1984.128s0 .292 0 0z"></path><path fill="#495F5F" d="M1690.495 1995.795c0 .291 0 .291 0 0 9.625-2.625 18.958-4.959 28.291-7 8.459-1.75 17.208-3.5 25.667-4.958 58.623-9.625 120.456-9.334 185.788.583h.291c6.709 14 9.917 23.624 9.917 29.458 0 7.291-4.083 14-12.542 20.708-6.416 4.958-20.416 5.541-42.29 1.75-71.166-6.417-142.04.875-212.33 22.457-16.624 7.292-26.54 11.084-29.457 11.084-12.542 0-21.583-6.125-26.833-18.083-2.917-6.417-4.959-14.875-6.125-25.375 25.374-12.833 51.916-22.75 79.623-30.624m-97.123-152.83c-2.625-12.542-7-33.833-12.541-64.458l153.705-59.207 49.583 39.374 60.082 78.165c28.874 30.625 49.29 60.666 61.249 90.707 11.958 29.75 20.124 48.416 24.207 56.582v.292c-65.332-9.917-127.164-9.917-185.788-.583-8.458 1.458-16.916 3.208-25.666 4.958a490.74 490.74 0 0 0-28 7l38.792-52.5 69.415 5.542-38.5-58.332 26.25-60.665-62.415 16.916-51.041-43.458-.583 71.457-61.832 36.458 63.582 22.166 16.624 62.416c-27.416 7.583-53.957 17.791-79.915 30.04-.583-5.832-1.166-12.249-1.166-19.249.291-24.791.291-43.457.583-55.999-.292-22.458-5.542-58.332-16.625-107.623z"></path><path fill="#F0DA5C" d="m1672.996 1803.59 51.04 43.166 62.416-16.916-26.25 60.665 38.5 58.332-69.416-5.541-38.79 52.499h-.292l-16.333-62.416-63.582-22.166 61.832-36.458.875-71.165z"></path><path d="M1643.246 2084.168c-18.374 0-32.666-9.625-40.249-26.833-3.5-7.583-5.833-17.5-7-29.458-.583-6.124-1.167-13.124-1.458-20.416v-.583c.291-24.791.291-43.458.583-56 0-21.582-5.25-56.581-16.041-104.705-2.625-12.542-7-34.416-12.542-65.04-1.458-7.876 3.792-15.459 11.667-16.917 7.875-1.459 15.458 3.791 16.916 11.666 5.542 30.333 9.625 51.624 12.542 63.874 11.374 50.749 16.624 87.207 16.624 111.123v.292c-.291 11.958-.291 29.749-.583 53.082 20.416-8.75 41.416-16.041 62.415-22.166h.584c9.333-2.625 19.25-4.959 28.583-7.292 8.75-1.75 17.5-3.5 26.249-4.958 53.082-8.75 109.665-9.625 168.288-2.625-13.124-45.79-33.832-87.498-60.957-124.248-31.5-42.582-72.332-79.915-122.206-111.414-6.708-4.375-8.75-13.417-4.666-20.125 4.375-6.708 13.416-8.75 20.124-4.666 52.791 33.54 96.54 73.498 130.081 118.706 33.25 45.207 57.457 96.831 71.457 153.705 7.583 16.041 11.083 26.541 11.083 34.708 0 11.958-6.125 22.75-18.374 32.082-9.917 7.584-26.542 9.042-53.083 4.667-68.54-6.125-137.664 1.167-205.62 21.583-25.084 11.083-30.334 11.958-34.417 11.958zm-16.624-49.29a60.444 60.444 0 0 0 3.208 10.79c3.208 7.584 7.583 9.334 12.541 9.626 1.75-.584 7.292-2.334 24.208-9.625.583-.292 1.167-.292 1.75-.584 72.04-21.874 145.247-29.749 218.163-23.04h1.166c24.5 4.082 30.625 1.166 31.208.874 4.375-3.208 6.708-6.416 6.708-8.75 0-.583-.292-4.375-5.25-16.041-60.665-8.458-118.997-8.458-173.538.583-8.167 1.459-16.625 2.917-24.791 4.959-9.042 2.041-18.375 4.374-27.125 6.708h-.291c-23.625 6.125-46.375 14.583-67.957 24.5zm292.244-12.25z"></path></svg>