<svg xmlns="http://www.w3.org/2000/svg"><symbol id="default" viewBox="0 0 3000 3000"></symbol><symbol id="body" viewBox="0 0 3000 3000"><path fill="#437480" d="m943.23 2324.58-17.21-16.04c3.21 5.83 9.04 11.08 17.21 16.04m873.82-202.12-.291.58h.291v-.584m-37.62-318.2-.292.29v64.46l18.08 12.54c-.291-2.33-.583-4.67-1.17-7.29l-2.63-20.13a553.05 553.05 0 0 0-8.75-33.25l-5.25-16.62z"></path><path fill="#495F5F" d="m1781.47 2245.84-4.67 16.92c9.92 2.04 22.46 2.92 37.92 2.92 6.71 0 10.5 0 11.67-.292 3.79-.583 6.13-2.04 7.29-4.08v-.292h4.38a237.96 237.96 0 0 0-1.75-19.83 118.06 118.06 0 0 0-2.63-14l-52.21 18.67m-706.99-588.57 28 6.42c-7-6.13-12.25-12.25-16.04-18.96-4.08 4.37-7.88 8.46-11.96 12.54m197.16 80.21c-5.83-2.04-11.08-4.08-16.33-6.13-25.08-9.33-42.58-16.04-51.92-20.13-24.79-7-46.96-15.46-66.5-25.37a171.64 171.64 0 0 1-16.33-9.33l-44.92 33.83 3.5 64.75-53.67-38.5-9.04 3.5c-16.63 31.5-29.46 65.92-38.5 102.96-.875 3.5-1.75 7.29-2.33 10.79v.291l17.79 1.17 39.08-52.79 16.33 62.41 63 22.75-61.54 36.46-.292 71.46-51.04-43.75-36.46 9.92c-2.92 32.67-4.96 65.04-5.83 97.12-.292 22.75-2.63 49.87-6.42 81.67-.875 6.13-1.46 11.96-2.04 17.5s-1.17 10.79-1.75 15.46c-.583 4.08-.875 8.17-1.46 11.38l49-41.42.58 71.46 61.54 36.46-63.29 22.17-3.21 11.38c29.75 6.71 50.46 10.5 62.71 11.37a17418.81 17418.81 0 0 1 70.58 4.38c27.42 1.46 61.54 0 101.79-4.67 3.79-.584 7.58-.875 11.08-1.75 7.29-1.46 14-3.21 20.12-5.25 9.63-3.5 17.5-7.88 24.21-13.71l-23.62-31.5-69.42 5.54 38.5-58.33-26.25-60.67 62.41 16.92 51.04-43.46.58 71.17c.292-3.79.58-7.29.58-11.08v-8.75c0-3.79 0-7.58.29-11.8.58-26.54 1.17-48.71 2.04-66.79.58-9.63.88-18.67 1.17-27.42l-22.46-64.75-64.17-15.75 51.04-39.08-3.5-67.08 41.71 31.21c0-3.5-.292-7.87-.584-12.83-.875-19.25-2.04-50.75-3.79-94.79v-2.92c0-1.46.58-4.96 1.17-11.8.88-5.83 1.17-10.5 1.17-14-6.42-5.25-22.46-12.25-46.37-21.29m-16.33-6.13c4.96 2.04 10.5 4.08 16.33 6.13 23.92 9.04 39.96 16.04 48.42 20.71 0 3.5-.292 8.17-1.17 14-.875 5.83-1.17 9.62-1.17 11.08v2.92c1.75 44.04 2.92 75.54 3.79 94.79.29 5.25.29 9.63.58 12.83.29 5.25.29 8.46.29 9.33v25.67c0 4.67 0 11.38.29 20.71 0 4.38 0 8.75-.292 12.83v11.38c0 3.5-.292 7-.583 10.79 0 1.75-.292 3.21-.292 4.96-.583 16.63-1.46 36.46-2.63 60.08-.292 8.75-.875 17.79-1.17 27.42-.875 18.08-1.46 40.25-2.04 66.79 0 3.5 0 7.29-.292 11.08v8.75c-.292 3.79-.292 7.29-.583 11.08-.584 7.29-1.46 14.87-2.92 22.17-1.75 11.38-4.38 23.04-7.58 34.71-1.46 4.96-2.92 9.92-4.67 14.87-1.46 4.96-3.5 9.63-6.12 13.71-3.5 5.54-7.58 10.5-12.83 14.88-6.71 5.54-14.58 10.21-24.21 13.71-6.13 2.33-12.83 4.08-20.13 5.25-3.5.58-7 1.17-11.08 1.75-40.54 4.67-74.37 6.13-101.79 4.67-27.42-1.46-51.04-2.92-70.58-4.38-12.25-.875-33.25-4.67-62.71-11.38-3.21-.583-6.42-1.46-9.63-2.33-12.25-2.92-25.96-6.13-40.83-10.21-3.79-.874-7.88-2.04-11.96-2.92-1.46 5.54-2.33 10.5-3.21 14.88-.875 4.96-1.17 9.04-1.17 12.54 0 4.8.88 7.88 2.92 11.67l17.21 16.04c9.92 5.83 23.33 10.79 40.25 14.88 35.87 9.04 81.08 13.71 135.33 13.71 19.83 0 37.92-.292 54.54-.584 37.04-.875 66.5-2.33 88.08-4.96 11.96-1.46 21.58-2.92 28.88-4.67 10.5-2.62 19.25-6.12 26.83-10.5l.291-.291c4.38-2.33 8.17-5.25 11.67-8.17 8.75-7.88 16.04-18.96 21.87-33.54.29-.583.29-.874.58-1.46 8.17-20.71 12.83-44.04 14-69.71v-14.29c.291-21.58.58-38.79 1.17-51.33 0-.291.29-4.96.29-13.71.58-18.08 1.75-54.54 3.5-109.08l1.75-21c.291-1.17.29-2.63.29-3.79.29-4.38.58-8.46.88-12.83.29-2.33.29-4.96.29-7.58 0-1.17.29-2.63.29-4.8.88-14.29 1.17-29.46 1.46-44.91.29-8.75.29-17.5.29-26.54v-9.92c0-3.5 0-7-.292-10.5 0-17.5-.583-35.29-1.17-52.79-1.75-52.79-5.25-106.46-11.08-160.41-3.79-36.75-10.5-89.25-20.71-157.79-46.67-16.04-88.08-18.37-124.25-6.71-36.17 11.67-62.71 21.29-79.33 29.17-20.42 9.63-35.58 20.42-44.92 32.38-2.63 3.5-5.25 7.29-7.29 11.37-5.25 10.79-8.17 23.04-8.17 37.33 0 8.17 2.33 16.04 6.42 23.33 3.79 6.42 9.33 12.83 16.04 18.96 3.21 2.92 6.71 5.54 10.5 8.17 2.33 1.46 4.67 3.21 7.29 4.67 4.96 3.21 10.5 6.13 16.33 9.33 19.54 9.92 41.71 18.38 66.5 25.38 10.79 3.5 28.29 10.21 53.37 19.54m546.86 193.08-.583-.874-53.96 4.08c1.17 9.92 2.33 18.37 3.21 25.08V2018.34c0 25.38-1.17 55.71-3.5 90.42-.291 3.79-.583 7.88-.875 11.96-.583 9.33-1.46 18.08-1.75 26.83l37.92-32.8.58 71.46 47.83 28.29c-1.46-6.71-2.92-14.29-4.38-23.33-2.92-18.08-6.42-41.13-9.92-69.12h-.292l.292-.583c-.875-6.42-1.46-12.83-2.33-18.67a510.99 510.99 0 0 1-2.92-44.62c-1.17-44.04-4.38-88.67-9.33-134.46m-60.37-202.12c-3.21-5.54-6.71-11.08-10.21-16.62-6.42 13.42-9.62 23.92-9.62 32.08 0 13.13 2.63 34.42 7.88 63.29 2.62 15.17 4.96 27.71 6.42 36.75 2.04 11.67 3.21 18.96 3.5 21.29 2.04 18.96 4.08 35.29 5.83 49.58l25.38-38.21-26.25-60.66 34.42 9.63v-15.17l.292-.292c-5.83-17.5-12.83-34.12-20.42-50.16-1.46-3.21-3.21-6.13-4.67-9.33l-6.13-11.38c-2.04-3.21-4.08-7-6.42-10.79m7.29-133.29c-17.5-6.42-37.04-12.54-58.62-18.37h-107.33c11.38 6.42 22.46 13.12 32.96 20.12 38.79 77.29 65.62 158.66 80.5 244.12.29 1.75.58 3.21.88 4.96 5.25 31.79 8.46 65.04 9.63 100.04v2.62c.292 8.17.58 16.4.58 24.5.29 55.12 0 103.54-1.46 145.25 0 4.96-.292 9.63-.292 14.29-.291 5.25-.291 10.5-.583 15.17 0 3.21-.292 6.42-.583 9.63-.584 9.33-.875 18.37-1.46 26.83-2.33 35.29-3.79 61.54-4.67 79.33-.584 9.63-.875 16.63-.875 21-.292 12.83 7 22.46 21.87 29.46 9.33 4.38 24.79 6.42 46.37 6.42 48.71 0 72.92-14.29 72.92-42.58v-4.38c0-2.33 0-4.67-.292-6.71h-4.38v.291c-1.17 2.04-3.5 3.5-7.29 4.08-1.17 0-4.96.29-11.67.29-15.46 0-28-.875-37.92-2.92-4.96-.875-9.04-2.04-12.54-3.5-14.88-6.42-22.46-18.38-22.46-36.17V2219.59c0-17.5.58-37.33 2.04-59.21v-2.33c.291-3.21.29-6.71.58-10.21.58-8.75 1.17-17.5 1.75-26.83.29-4.8.58-8.17.88-11.96 2.33-34.71 3.5-65.04 3.5-90.42V1953.01c-.875-6.71-2.04-15.17-3.21-25.08a773.26 773.26 0 0 1-1.75-15.17c0-1.17-.291-2.33-.291-3.5-1.75-14.29-3.5-30.62-5.83-49.58-.292-2.33-1.46-9.63-3.5-21.29-1.75-9.33-3.79-21.58-6.42-36.75-5.25-28.87-7.88-50.17-7.88-63.29 0-8.17 3.21-18.67 9.63-32.08 3.5-7.58 8.17-15.75 14-25.08 15.75-25.67 24.5-45.5 26.83-60.08s-5.83-25.67-23.63-32.08z"></path><path fill="#F0DA5C" d="M1833.97 2227.17c-.292-.875-.292-2.04-.584-3.21-.583-2.63-1.46-5.54-2.04-8.75l-47.83-28.29-.583-71.46-37.92 32.08c-.292 3.5-.292 7-.583 10.21v2.33a1633.66 1633.66 0 0 0-2.04 59.21V2222.5c0 17.79 7.58 29.75 22.46 36.17 3.5 1.46 7.58 2.63 12.54 3.5l4.67-16.92 51.92-18.08m-839.11-12.25-.583-71.46-49.29 41.71c-.875 8.46-1.75 14.88-2.33 19.54-1.17 10.79-4.67 26.54-10.5 47.25-1.17 4.08-2.33 7.88-3.21 11.38-.583 2.04-.875 4.08-1.46 6.13 4.08 1.17 8.17 2.04 11.96 2.92 14.88 3.79 28.58 7.29 40.83 10.21 3.21.88 6.42 1.46 9.62 2.33l3.21-11.38 63.29-22.17-61.54-36.46m317.04-18.08c1.17-7.29 2.04-14.88 2.92-22.17l-.584-71.17-51.33 43.46-62.41-16.92 26.25 60.66-38.5 58.33 69.42-5.54 23.63 31.5c5.25-4.38 9.33-9.33 12.83-14.88 2.63-4.08 4.67-8.75 6.13-13.71 1.75-4.96 3.21-9.92 4.67-14.87 2.92-11.38 5.25-23.04 7-34.71m10.5-268.04v-25.67c0-.875 0-4.08-.292-9.33l-41.71-31.21 3.5 67.08-51.04 39.08 64.17 15.75 22.46 64.75c1.17-23.62 2.04-43.46 2.63-60.08 0-1.75.29-3.21.29-4.96.29-3.79.29-7.29.58-10.79v-11.38c0-4.8.29-8.17.29-12.83-.875-8.75-.875-15.75-.875-20.42m-329.29-73.21-17.79-1.17c-5.25 36.17-9.63 72.04-12.54 107.33l36.17-9.92 51.04 43.75.58-71.46 61.54-36.46-63-22.75-16.63-62.41-39.37 53.08m23.33-115.21 9.04-3.5 53.67 38.21-3.5-64.75 44.62-33.83c-2.63-1.46-4.96-3.21-7.29-4.67-3.79-2.63-7.29-5.25-10.5-8.17l-28-6.42c-22.75 25.08-42 52.79-58.04 83.12m785.15 183.16.58.88c-.291-2.63-.583-5.54-.875-8.17a752.31 752.31 0 0 0-4.37-34.71l-18.08-12.54v-49.29l-34.42-9.33 26.25 60.67-25.38 38.21c.291 1.17.29 2.63.29 3.5.58 5.54 1.17 10.5 1.75 15.17l54.25-4.37z"></path><path fill="#A87D4F" d="M1414.27 1517.27c-1.75-.292-3.79-.584-5.54-.584h-2.63c2.04 0 4.8.29 6.13.29.58 0 1.46 0 2.4.29z"></path><path d="M1119.11 2367.75c-55.41 0-102.08-4.67-139.12-14.29-18.38-4.67-32.96-10.21-44.04-16.63-10.5-6.13-18.08-13.42-22.75-21.58-3.21-5.83-4.67-11.96-4.67-18.67 0-4.8.58-9.04 1.46-14.88.88-4.67 2.04-9.92 3.21-16.4.58-2.4.87-4.08 1.46-6.42.88-3.5 2.04-7.58 3.21-11.67 5.83-19.83 9.04-35 10.21-44.92.58-4.67 1.17-11.38 2.33-19.83.29-3.5.87-7.29 1.46-11.67l1.75-15.75c.583-5.25 1.46-11.08 2.04-17.21 3.79-31.21 5.83-58.33 6.42-80.5v-.292a1899.59 1899.59 0 0 1 6.13-98c3.21-35.29 7.29-71.17 12.54-107.33v-.875c0-.292 0-.875.29-1.17.88-3.79 1.75-7.58 2.63-11.08 9.33-37.04 22.75-72.92 39.96-105.29 16.33-31.21 36.75-60.08 60.37-86.04 1.75-1.75 3.5-3.79 5.25-5.54-2.33-6.71-3.79-13.71-3.79-20.71 0-16.33 3.21-30.92 9.62-43.75 2.33-4.96 5.25-9.33 8.75-13.71 10.79-14 27.71-26.25 50.17-36.75 17.5-8.17 44.04-18.08 81.08-29.75 38.21-12.25 81.96-10.21 130.08 5.83 3.21-.292 6.71-.875 10.21-1.17h.291c1.17 0 2.33-.291 3.21-.291h.875l8.75-.292c1.17 0 2.62-.292 4.08-.292h23.62c.875 0 2.04 0 2.92.29l7 .292h3.5c2.04 0 3.79.29 5.83.29 1.17 0 2.63.29 3.79.58 7.58.88 15.17 1.75 22.75 2.92h.292c4.8.58 8.46 1.46 12.54 2.33 37.04 7 72.62 18.67 106.46 35 8.75 4.38 17.5 8.75 25.96 13.42l103.83-.291c1.17 0 2.63.29 3.79.58 21.88 6.13 42 12.25 60.08 18.67 32.67 11.96 34.42 34.71 32.38 47.25-2.63 16.62-11.96 38.21-28.88 65.62a578.17 578.17 0 0 0-9.63 16.63c2.04 3.21 4.08 6.71 6.13 9.92a238.79 238.79 0 0 1 6.71 11.67l6.12 11.37c0 .292.29.29.29.58 1.46 2.92 2.92 5.83 4.38 9.04v.292c7.88 16.63 15.17 33.83 21 51.92 1.75 5.54 3.79 11.37 5.54 17.21a582.79 582.79 0 0 1 8.75 34.12c0 .292.29.58.29 1.17.88 6.71 2.04 13.42 2.92 20.12.29 2.33.58 4.96.88 7.29l4.38 35c.292 2.92.58 5.54.88 8.17 4.96 45.5 8.17 91 9.92 135.33v.292c.291 13.42 1.17 28 2.92 43.46.58 6.13 1.46 12.25 2.04 18.38v1.17c3.5 27.42 6.71 50.16 9.92 67.96 1.46 8.75 2.92 16.33 4.38 22.75.58 2.92 1.17 5.83 1.75 8.46v.292c.292 1.17.58 2.33.58 3.21l2.63 14.88c.874 7 1.75 14 2.04 21 0 2.33.29 4.96.29 7.29v4.67c0 19.54-8.75 34.71-25.38 44.62-14.58 8.46-35 12.54-62.12 12.54-23.92 0-41.12-2.63-52.5-7.87-25.67-11.96-30.62-30.04-30.04-43.17.29-4.67.58-11.67 1.17-21.58.88-17.5 2.63-44.33 4.67-79.33.58-8.46.88-17.21 1.46-26.54.29-3.21.29-6.42.29-9.63.29-4.96.29-9.92.58-15.17.29-4.67.29-9.63.29-14.29 1.17-41.71 1.75-90.42 1.17-144.96 0-7.88-.291-16.04-.583-23.92v-2.62c-1.17-34.13-4.38-67.08-9.63-98.29-.292-1.75-.583-3.21-.875-4.96-14.29-82.54-40.25-161.87-77.58-236.54-9.33-6.12-18.96-11.96-28.87-17.21-9.04-4.96-18.38-9.92-27.71-14.29-31.5-15.17-64.75-25.96-99.17-32.37-4.08-.875-7.88-1.46-11.96-2.04-8.17-1.17-16.33-2.33-24.21-3.21h-.875c-.291 0-.875 0-1.17-.292-2.04 0-3.79-.292-5.54-.292l-7.58.29H1369.93l-9.4.29h-.583c9.04 61.25 15.17 109.66 18.67 143.5 5.54 53.96 9.33 108.5 11.08 161.29.58 17.79.88 35.58 1.17 53.37v20.42c0 9.04 0 18.08-.292 26.83-.291 15.46-.875 30.92-1.46 45.21 0 1.46 0 2.63-.292 4.08 0 2.63-.291 4.96-.583 7.58l-.875 13.12c0 1.17-.292 2.63-.292 3.79l-1.75 21-3.5 108.5c-.291 8.46-.291 13.13-.291 13.42v.291c-.583 12.54-.875 29.46-1.17 51.04v14.58c-1.17 27.13-6.42 52.21-14.88 74.37 0 .291-.291.29-.291.58s-.292.58-.292.88c-6.71 16.63-15.17 29.46-25.37 38.79-4.08 3.5-8.46 6.71-13.42 9.63-.291.29-.583.58-1.17.58-8.75 4.96-18.96 9.04-30.63 11.96-8.17 2.04-18.08 3.79-30.92 5.25-22.17 2.63-52.21 4.38-89.54 4.96-16.92 1.75-35.58 1.75-55.12 1.75zm206.21-23.04zm2.63-1.75zm-375.95-30.33c8.46 4.67 20.42 9.04 35 12.83 34.42 8.75 79.04 13.13 131.83 13.13 19.54 0 37.92-.291 54.25-.583 36.46-.875 65.62-2.33 86.92-4.96 11.08-1.17 20.12-2.92 26.83-4.67 8.75-2.33 16.33-5.25 22.75-8.75.29-.291.58-.291.88-.583 3.5-2.04 6.42-4.08 9.33-6.71 7-6.13 12.83-15.75 18.08-28 .292-.583.29-.875.58-1.46 7.29-19.25 11.67-40.83 12.83-64.75v-14c.292-21.58.58-39.08 1.17-51.91 0-.584 0-3.21.29-13.42.58-18.08 1.75-54.54 3.5-109.08v-.876c.583-6.71 1.17-13.71 1.75-20.71v-.291c0-1.17.29-2.33.29-3.5.29-4.38.58-8.46.88-12.83.29-2.63.29-4.96.29-7.58 0-1.46.29-2.63.29-4.8.88-14.29 1.17-29.17 1.46-44.33 0-8.46.29-17.5.29-26.25V1889.13c-.292-17.5-.584-35-1.17-52.5-1.75-52.21-5.54-105.87-11.08-159.54-3.5-34.71-9.92-84.58-19.25-148.46-39.96-12.54-75.83-13.71-106.75-4.08-35 12.25-60.96 21.58-77 29.17-18.38 8.75-31.79 18.08-39.67 28.29-2.04 2.63-4.08 5.83-5.54 8.75-4.38 8.46-6.42 18.96-6.42 30.63 0 5.54 1.46 10.79 4.38 16.04 0 .292.29.29.29.58 2.92 4.96 7.29 9.92 13.13 14.88 2.63 2.33 5.83 4.67 9.33 7 2.04 1.46 4.08 2.92 6.42 4.08h.291c4.67 2.92 9.63 5.83 15.17 8.46 18.67 9.33 40.25 17.5 63.87 24.5.58.29 1.17.29 1.46.58 9.33 3.79 26.83 10.5 51.62 20.13.29 0 .583.29.58.29 4.96 1.75 10.21 3.79 15.75 5.83 24.79 9.33 41.42 16.33 50.46 21.58 4.67 2.63 7.29 7.58 7.29 12.83 0 4.08-.292 9.33-1.17 15.75v.291c-.875 5.83-1.17 8.17-1.17 8.75v2.63c1.75 43.46 2.92 75.25 3.79 94.79.29 5.25.29 9.62.58 13.12.29 7.29.29 9.4.29 9.92v25.67c0 4.38 0 11.38.29 20.42v13.13c0 4.08 0 8.17-.292 11.67 0 3.5-.292 7-.583 10.79 0 1.46 0 3.21-.292 4.96-.583 16.33-1.46 36.75-2.63 60.08-.292 8.46-.875 17.79-1.46 27.13-.875 17.79-1.46 40.25-1.75 66.21V2163.88c-.292 3.79-.583 7.88-.875 11.67-.583 7.58-1.46 15.46-2.92 23.04-2.04 11.96-4.67 24.21-7.88 36.17-1.46 5.25-2.92 10.5-4.67 15.75-2.04 6.12-4.67 11.67-7.58 16.92-4.08 7-9.63 13.13-15.75 18.38-7.88 6.71-17.5 11.96-28.58 16.04-7 2.63-14.29 4.38-22.46 5.83-3.79.58-7.88 1.17-11.96 1.75-41.12 4.67-76.42 6.42-104.42 4.67-27.42-1.46-51.04-2.92-70.87-4.38-13.13-.875-34.42-4.67-65.04-11.67-3.21-.875-6.42-1.46-9.92-2.33-11.67-2.63-24.5-5.83-38.5-9.33-.874 4.96-.874 7.88-.874 9.63 0 .875 0 1.75.58 2.92l13.42 13.71zm769.69-370.41c.292 8.17.58 16.33.58 24.79.29 54.83 0 104.12-1.46 145.83 0 4.96-.292 9.92-.583 14.58-.292 5.25-.292 10.5-.584 15.46 0 3.21-.291 6.42-.583 9.62-.583 9.33-.875 18.38-1.46 26.83-2.33 35-3.79 61.54-4.67 79.04-.583 9.33-.875 16.33-.875 21 0 2.92-.291 9.33 13.42 15.75 5.25 2.33 16.04 5.25 40.25 5.25 26.83 0 40.54-4.67 47.25-8.75 5.25-3.21 8.46-6.71 9.92-11.67h-8.17c-16.63 0-29.75-.875-40.54-3.21-5.83-1.17-11.08-2.63-15.46-4.67-20.42-8.75-31.21-25.96-31.21-49.58v-3.21c0-17.79.58-37.92 2.04-60.08 0-.875 0-1.46.29-2.33l.583-10.21c.583-8.75 1.17-17.79 2.04-27.12.29-4.8.58-7.88.88-11.96 2.33-34.13 3.5-64.46 3.5-89.25v-64.46c-.875-6.71-2.04-14.87-2.92-24.5a773.26 773.26 0 0 1-1.75-15.17c0-1.17-.292-2.33-.292-3.5-1.75-14.29-3.5-30.92-5.83-49.87 0-1.17-.875-5.54-3.21-20.42-1.75-9.33-3.79-21.58-6.71-36.75-5.54-30.04-8.17-51.62-8.17-65.92 0-10.21 3.5-22.75 11.08-38.5 3.79-7.88 8.75-16.92 14.58-26.25 18.08-29.75 23.63-46.08 24.79-54.83.58-3.79 1.46-9.92-13.42-15.46-16.63-6.13-35.29-11.96-55.71-17.5h-58.92c39.08 77.87 66.5 161 81.37 247.33v.29c.291 1.46.58 3.21.87 4.67 5.25 32.37 8.75 66.5 9.92 101.79-.875 1.17-.875 2.04-.875 2.92zm-776.4 316.75c14 3.5 26.83 6.71 38.5 9.33 3.21.88 6.42 1.46 9.62 2.33 28.58 6.42 49 10.21 60.37 11.08 19.54 1.17 43.46 2.63 70.58 4.08 26.54 1.46 60.08 0 99.46-4.67 3.5-.292 6.71-.875 9.92-1.46 6.42-1.17 12.54-2.63 17.79-4.67 7.88-2.92 14.58-6.42 19.83-11.08 3.79-3.21 7.29-7 9.63-11.38 2.04-3.21 3.5-6.71 4.96-10.5 1.46-4.67 2.92-9.62 4.38-14.58 2.92-11.08 5.54-22.17 7.29-33.25 1.17-7 2.04-14 2.63-21 .291-3.5.58-7 .583-10.5v-8.46c0-3.79 0-7.58.29-11.8.58-26.54 1.17-49 2.04-67.8.58-9.63.88-18.67 1.46-27.12 1.17-23.63 2.04-43.75 2.63-60.08 0-1.75.29-3.21.29-4.96.29-3.79.29-7.29.29-10.79s.292-7.29.29-11.38v-12.25c-.292-9.33-.292-16.33-.292-21v-25.66c0-.292 0-1.75-.292-8.75 0-3.5-.291-7.58-.291-12.83-.875-19.25-2.04-51.04-3.79-94.5 0-1.17 0-2.04-.292-3.21v-.583c0-1.75.29-4.38 1.46-13.13.29-1.17.29-2.33.29-3.21-8.75-4.08-21.58-9.33-38.5-15.75-5.83-2.04-11.08-4.08-16.33-6.13-.292 0-.292-.291-.583-.291-24.21-9.04-41.42-15.75-51.33-19.83-25.08-7.29-48.12-16.04-67.96-26.25-6.42-3.21-12.25-6.42-17.5-9.92-2.62-1.75-5.54-3.5-7.87-5.25-4.38-2.92-8.17-5.83-11.67-9.04-2.92-2.33-5.54-4.96-7.87-7.58-21.88 23.92-40.54 50.75-56 79.92-16.04 30.33-28.58 63.87-37.33 99.75-.875 3.21-1.46 6.42-2.33 9.33v.584c-5.25 35.58-9.33 71.46-12.54 106.16-2.92 32.38-4.96 64.75-5.83 96.25-.292 23.04-2.63 51.04-6.42 83.12-.875 6.13-1.46 11.96-2.04 17.21l-1.75 15.75c-.583 4.08-.875 7.88-1.17 11.37v.292c-.875 8.17-1.75 14.88-2.04 19.25-1.17 11.67-4.96 28-11.08 49.87-.875 1.75-1.17 2.63-1.46 3.5zm834.73-10.5c8.75 1.75 20.42 2.63 34.71 2.63h8.17c-.291-2.33-.583-4.96-.875-7.29-.583-4.38-1.46-8.75-2.33-13.12-.292-.875-.292-1.75-.583-2.63-.584-2.63-1.46-5.83-2.04-9.04-1.46-6.71-2.92-14.88-4.38-23.92a2185.68 2185.68 0 0 1-9.92-69.42v-.875c-.875-6.42-1.46-12.83-2.33-18.96a536.32 536.32 0 0 1-2.92-45.79c-1.46-43.46-4.67-88.08-9.63-133l-.875-7.87a752.31 752.31 0 0 0-4.38-34.71c-.292-2.33-.583-4.96-.875-7.29l-2.63-19.25c-2.33-10.79-5.25-21.29-8.17-31.79-1.75-5.54-3.21-10.79-4.96-16.04a391.8 391.8 0 0 0-19.83-48.41c-1.46-2.92-2.92-6.13-4.38-9.04l-4.96-9.04c.584 12.54 2.92 31.21 7.58 56 2.92 15.46 4.96 27.71 6.71 37.04 2.92 16.33 3.5 20.42 3.5 22.17 2.04 18.67 4.08 35.29 5.54 49.58 0 1.17.29 2.33.58 3.5.58 5.25 1.17 10.5 1.75 15.17 1.17 9.63 2.33 18.08 3.21 24.79v.583c0 .875 0 1.75.29 25.96v40.83c0 25.67-1.17 56.58-3.79 91.29-.292 4.08-.583 7.88-.875 11.96-.583 9.04-1.46 18.08-1.75 26.54l-.583 10.21v2.04c-1.17 21.58-1.75 41.42-1.75 58.62v3.21c0 11.96 4.08 18.67 13.71 22.75 1.75.88 5.25 1.75 9.04 2.63z"></path></symbol><symbol id="left" viewBox="0 0 3000 3000"><path fill="#437480" d="M1929.95 1984.13s0 .292 0 0z"></path><path fill="#495F5F" d="M1690.49 1995.8c0 .291 0 .291 0 0 9.63-2.63 18.96-4.96 28.29-7 8.46-1.75 17.21-3.5 25.67-4.96 58.62-9.63 120.46-9.33 185.79.58h.291c6.71 14 9.92 23.62 9.92 29.46 0 7.29-4.08 14-12.54 20.71-6.42 4.96-20.42 5.54-42.29 1.75-71.17-6.42-142.4.88-212.33 22.46-16.62 7.29-26.54 11.08-29.46 11.08-12.54 0-21.58-6.13-26.83-18.08-2.92-6.42-4.96-14.88-6.13-25.38 25.37-12.83 51.92-22.75 79.62-30.62m-97.12-152.83c-2.63-12.54-7-33.83-12.54-64.46l153.71-59.21 49.58 39.37 60.08 78.17c28.87 30.63 49.29 60.67 61.25 90.71 11.96 29.75 20.12 48.42 24.21 56.58v.292c-65.33-9.92-127.16-9.92-185.79-.583-8.46 1.46-16.92 3.21-25.67 4.96a490.74 490.74 0 0 0-28 7l38.79-52.5 69.42 5.54-38.5-58.33 26.25-60.66-62.41 16.92-51.04-43.46-.583 71.46-61.83 36.46 63.58 22.17 16.62 62.42c-27.42 7.58-53.96 17.79-79.92 30.04-.583-5.83-1.17-12.25-1.17-19.25.29-24.79.29-43.46.58-56-.292-22.46-5.54-58.33-16.63-107.62z"></path><path fill="#F0DA5C" d="m1673 1803.59 51.04 43.17 62.42-16.92-26.25 60.66 38.5 58.33-69.42-5.54-38.79 52.5h-.292l-16.33-62.42-63.58-22.17 61.83-36.46.88-71.17z"></path><path d="M1643.25 2084.17c-18.37 0-32.67-9.63-40.25-26.83-3.5-7.58-5.83-17.5-7-29.46-.583-6.12-1.17-13.12-1.46-20.42v-.583c.291-24.79.29-43.46.58-56 0-21.58-5.25-56.58-16.04-104.7-2.63-12.54-7-34.42-12.54-65.04-1.46-7.88 3.79-15.46 11.67-16.92 7.88-1.46 15.46 3.79 16.92 11.67 5.54 30.33 9.63 51.62 12.54 63.87 11.37 50.75 16.62 87.21 16.62 111.12v.292c-.291 11.96-.291 29.75-.583 53.08 20.42-8.75 41.42-16.04 62.41-22.17h.584c9.33-2.63 19.25-4.96 28.58-7.29 8.75-1.75 17.5-3.5 26.25-4.96 53.08-8.75 109.67-9.63 168.29-2.63-13.12-45.79-33.83-87.5-60.96-124.25-31.5-42.58-72.33-79.92-122.21-111.41-6.71-4.38-8.75-13.42-4.67-20.13 4.38-6.71 13.42-8.75 20.12-4.67 52.79 33.54 96.54 73.5 130.08 118.71 33.25 45.21 57.46 96.83 71.46 153.71 7.58 16.04 11.08 26.54 11.08 34.71 0 11.96-6.13 22.75-18.37 32.08-9.92 7.58-26.54 9.04-53.08 4.67-68.54-6.13-137.66 1.17-205.62 21.58-25.08 11.08-30.33 11.96-34.42 11.96zm-16.62-49.29a60.44 60.44 0 0 0 3.21 10.79c3.21 7.58 7.58 9.33 12.54 9.63 1.75-.584 7.29-2.33 24.21-9.63.58-.292 1.17-.292 1.75-.584 72.04-21.87 145.25-29.75 218.16-23.04h1.17c24.5 4.08 30.63 1.17 31.21.87 4.38-3.21 6.71-6.42 6.71-8.75 0-.583-.292-4.38-5.25-16.04-60.66-8.46-119-8.46-173.54.58-8.17 1.46-16.63 2.92-24.79 4.96-9.04 2.04-18.38 4.37-27.13 6.71h-.291c-23.63 6.13-46.38 14.58-67.96 24.5zm292.24-12.25z"></path></symbol><symbol id="right" viewBox="0 0 3000 3000"><path fill="#437480" d="M953.9 1984.13s0 .292 0 0z"></path><path fill="#495F5F" d="M1193.36 1995.8c0 .291 0 .291 0 0-9.63-2.63-18.96-4.96-28.29-7-8.46-1.75-17.21-3.5-25.67-4.96-58.62-9.63-120.46-9.33-185.79.58h-.291c-6.71 14-9.92 23.62-9.92 29.46 0 7.29 4.08 14 12.54 20.71 6.42 4.96 20.42 5.54 42.29 1.75 71.17-6.42 142.4.88 212.33 22.46 16.62 7.29 26.54 11.08 29.46 11.08 12.54 0 21.58-6.13 26.83-18.08 2.92-6.42 4.96-14.88 6.13-25.38-25.37-12.83-51.92-22.75-79.62-30.62m97.12-152.83c2.63-12.54 7-33.83 12.54-64.46l-153.71-59.21-49.58 39.37-60.08 78.17c-28.87 30.63-49.29 60.67-61.25 90.71-11.96 29.75-20.12 48.42-24.21 56.58v.292c65.33-9.92 127.16-9.92 185.79-.583 8.46 1.46 16.92 3.21 25.67 4.96a490.74 490.74 0 0 1 28 7l-38.79-52.5-69.42 5.54 38.5-58.33-26.25-60.66 62.41 16.92 51.04-43.46.58 71.46 61.83 36.46-63.58 22.17-16.62 62.42c27.42 7.58 53.96 17.79 79.92 30.4.58-5.83 1.17-12.25 1.17-19.25-.291-24.79-.291-43.46-.583-56.29-22.46 5.54-58.33 16.63-107.62z"></path><path fill="#F0DA5C" d="m1210.85 1803.59-51.04 43.17-62.42-16.92 26.25 60.66-38.5 58.33 69.42-5.54 38.79 52.5h.292l16.33-62.42 63.58-22.17-61.83-36.46-.875-71.17z"></path><path d="M1240.6 2084.17c-4.08 0-9.33-.875-34.42-11.96-67.96-20.71-137.08-28-205.62-21.58-26.54 4.38-43.17 2.92-53.08-4.67-12.25-9.33-18.37-20.12-18.37-32.08 0-8.17 3.5-18.96 11.08-34.71 14-56.87 38.21-108.5 71.46-153.71 33.54-45.21 77.29-85.17 129.79-118.42 7-4.38 16.04-2.33 20.13 4.38 4.38 6.71 2.33 15.75-4.67 20.13-49.58 31.5-90.42 68.83-121.91 111.41-27.13 36.75-47.83 78.46-61.25 123.96 58.63-7 115.21-6.13 168.29 2.63 8.75 1.46 17.5 3.21 26.25 4.96 9.63 2.04 19.25 4.38 28.87 7.29h.584c21.29 5.83 42 13.42 62.41 22.17-.292-23.33-.292-41.12-.583-53.08v-.292c0-23.92 5.25-60.37 16.62-111.12 2.63-12.25 6.71-33.83 12.54-63.87 1.46-7.88 9.04-13.13 16.92-11.67 7.88 1.46 13.13 9.04 11.67 16.92-5.54 30.63-9.92 52.5-12.54 65.04-10.79 48.13-16.04 83.42-16.04 105.29 12.54.29 31.5.58 56v.583c-.291 7.58-.583 14.29-1.46 20.42-1.46 12.25-3.79 21.88-7.29 29.75-7.29 17.21-21.58 26.54-39.96 26.54zm-192.5-64.75c56 0 112.29 8.46 167.41 25.38.58.29 1.17.29 1.75.58 16.92 7.29 22.75 9.33 24.21 9.63 5.25-.292 9.33-2.04 12.54-9.63a60.44 60.44 0 0 0 3.21-10.79c-21.87-9.92-44.62-18.08-67.37-24.5h-.584c-9.04-2.63-18.08-4.67-27.12-6.71-8.17-1.75-16.63-3.5-24.79-4.96-54.54-9.04-112.87-9.04-173.54-.584-5.25 11.96-5.25 15.75-5.25 16.04 0 2.33 2.63 5.54 6.71 8.75.58.29 7 3.21 31.21-.875h1.17c16.63-1.46 33.54-2.33 50.46-2.33z"></path></symbol></svg>