<svg width="3009" height="3009" viewBox="0 0 3009 3009" fill="none" xmlns="http://www.w3.org/2000/svg">
<path d="M852.868 887.178C771.44 943.159 659.556 929.532 606.438 822.771C597.31 799.001 618.521 742.624 624.436 764.075C649.379 854.527 804.726 896.036 865.541 827.763C884.476 806.506 872.107 873.951 852.868 887.178Z" fill="#D28B59" stroke="black" stroke-width="30" stroke-linejoin="round"/>
<path d="M1494.71 516.62C1583.91 474.091 1628.05 370.384 1562.15 271.001C1546.13 251.211 1486.7 241.392 1502.32 257.24C1568.18 324.067 1526.46 479.357 1436.92 497.887C1409.05 503.657 1473.64 526.668 1494.71 516.62Z" fill="#D28B59" stroke="black" stroke-width="30" stroke-linejoin="round"/>
<path d="M1238.78 634.581C1327.97 592.052 1372.11 488.345 1306.21 388.962C1290.19 369.172 1230.76 359.353 1246.38 375.201C1312.24 442.028 1270.52 597.318 1180.99 615.848C1153.11 621.618 1217.7 644.629 1238.78 634.581Z" fill="#D28B59" stroke="black" stroke-width="30" stroke-linejoin="round"/>
<path d="M1083.02 724.56C1001.6 780.542 889.712 766.915 836.594 660.154C827.465 636.384 848.676 580.007 854.592 601.458C879.534 691.909 1034.88 733.419 1095.7 665.146C1114.63 643.889 1102.26 711.334 1083.02 724.56Z" fill="#D28B59" stroke="black" stroke-width="30" stroke-linejoin="round"/>
<path d="M1619.98 417.059C1294.54 389.45 873.107 588.469 701.522 945.416C673.575 1020.95 770.221 1137.51 786.613 1072.74C855.73 799.616 1434.46 464.167 1685.03 554.041C1763.05 582.024 1696.87 423.583 1619.98 417.059Z" fill="#D28B59" stroke="black" stroke-width="30" stroke-linejoin="round"/>
</svg>
