<svg width="3009" height="3009" viewBox="0 0 3009 3009" fill="none" xmlns="http://www.w3.org/2000/svg">
<path d="M1272.55 546.014C1361.74 503.486 1405.89 399.778 1339.99 300.396C1323.96 280.606 1264.54 270.787 1280.15 286.635C1346.02 353.461 1304.29 508.752 1214.76 527.282C1186.88 533.051 1251.47 556.062 1272.55 546.014Z" fill="#D28B59" stroke="black" stroke-width="30" stroke-linejoin="round"/>
<path d="M950.018 732.283C868.589 788.265 756.705 774.638 703.587 667.876C694.459 644.107 715.67 587.73 721.585 609.18C746.528 699.632 901.876 741.142 962.69 672.869C981.625 651.612 969.256 719.057 950.018 732.283Z" fill="#D28B59" stroke="black" stroke-width="30" stroke-linejoin="round"/>
<path d="M1616.23 425.204C1290.79 397.595 869.356 596.614 697.771 953.56C669.824 1029.09 766.47 1145.66 782.862 1080.89C851.979 807.761 1430.71 472.311 1681.28 562.185C1759.3 590.168 1693.12 431.727 1616.23 425.204Z" fill="#D28B59" stroke="black" stroke-width="30" stroke-linejoin="round"/>
</svg>
