<svg width="3009" height="3009" viewBox="0 0 3009 3009" fill="none" xmlns="http://www.w3.org/2000/svg">
<g clip-path="url(#clip0_4368_3920)">
<path d="M1868.28 456.628C1874.07 455.098 1880.22 457.16 1883.92 461.875C1884.21 462.243 1884.45 462.576 1884.6 462.784C1884.79 463.044 1884.84 463.103 1884.92 463.209C1888.9 468.51 1892.66 475.546 1896.25 483.604L1896.97 485.231L1896.98 485.269C1903.09 499.403 1906.94 514.849 1908.6 531.204L1908.6 531.204C1910.46 548.196 1909.79 564.553 1906.32 579.802L1906.33 579.803C1903.73 591.426 1900.32 602.337 1896.1 612.374C1896.05 612.495 1896 612.615 1895.94 612.733C1895.75 613.171 1895.05 614.801 1894.34 616.202C1894.33 616.224 1894.32 616.246 1894.31 616.269C1899.85 612.636 1905.74 610.46 1912.07 610.417C1920.5 610.36 1926.69 614.193 1929.98 616.388C1930 616.404 1930.03 616.421 1930.05 616.438C1933.98 619.094 1937.59 623.144 1939.95 629.813L1940.18 630.467L1940.31 630.858C1940.35 630.989 1940.38 631.12 1940.42 631.252C1943.72 643.3 1943.83 655.262 1939.36 666.665C1935.81 675.737 1929.76 683.427 1922.03 690.069C1926.13 689.751 1930.25 689.862 1934.26 690.409L1935.21 690.548L1935.55 690.604C1938.87 691.196 1942.48 692.143 1945.8 693.821C1948.95 695.412 1953.18 698.365 1955.58 703.612L1955.81 704.126L1955.83 704.171C1957.27 707.613 1960.8 716.326 1956.91 728.399C1953.32 739.553 1944.17 751.233 1927.21 763.947C1927.2 763.952 1927.19 763.958 1927.18 763.964C1921.14 768.481 1914.27 773 1906.79 777.408C1907.41 777.56 1908.01 777.75 1908.61 777.982C1909.16 778.197 1909.38 778.284 1909.57 778.36L1910.36 778.67L1910.61 778.767C1920.46 782.764 1927.53 789.592 1931.79 799.236C1931.92 799.508 1932.01 799.715 1932.05 799.815C1932.09 799.9 1932.12 799.984 1932.15 800.062C1932.44 800.741 1932.68 801.451 1932.87 802.187L1932.89 802.26C1933.73 805.527 1933.43 808.827 1932.23 811.731C1931.71 813.086 1931.02 814.411 1930.18 815.7C1928.56 818.163 1926.32 820.619 1923.33 823.113C1923.04 823.369 1922.76 823.599 1922.5 823.807C1912.95 831.883 1900.96 835.437 1888.67 839.289L1888.67 839.29C1879.06 842.331 1867.63 845.944 1854.25 851.65C1854.15 851.693 1854.05 851.737 1853.94 851.778C1853.34 852.019 1852.71 852.254 1852.18 852.448C1855.04 853.678 1857.52 855.796 1859.18 858.629C1859.26 858.765 1859.33 858.891 1859.39 859.002C1859.46 859.114 1859.51 859.216 1859.56 859.305C1859.65 859.48 1859.72 859.628 1859.77 859.727C1860.12 860.417 1860.42 861.133 1860.66 861.869C1862.38 867.134 1861.12 871.722 1859.99 874.343C1858.85 876.965 1857.3 878.983 1856.17 880.288C1853.88 882.929 1851.14 885.117 1849.23 886.532C1849.21 886.548 1849.19 886.564 1849.17 886.58C1837.57 895.09 1820.98 900.643 1802.37 903.726C1802.36 903.728 1802.35 903.73 1802.33 903.732C1790.24 905.699 1778.73 904.554 1768.07 899.48C1762.15 896.665 1758.75 890.335 1759.66 883.847L1780.03 739.047L1780.03 739.023C1781.23 730.617 1781.76 722.268 1781.69 714.003C1781.65 711.59 1781.6 709.303 1781.49 707.081C1780.55 688.771 1776.68 671.094 1770.27 654.55C1770.26 654.531 1770.25 654.513 1770.25 654.494C1768.92 651.038 1767.45 647.625 1765.86 644.217C1765.82 644.15 1765.78 644.062 1765.72 643.961C1765.67 643.86 1765.61 643.74 1765.55 643.604C1763.01 638.357 1763.75 632.118 1767.43 627.602C1772.01 621.979 1776.78 616.273 1781.8 610.585L1781.82 610.564L1783.13 609.091C1796.73 593.627 1814.3 573.502 1825.93 555.599L1826.04 555.427C1839.28 535.634 1852.33 512.369 1855.83 481.11C1856.06 478.855 1856.57 473.636 1857.28 468.916L1857.37 468.364C1858.43 462.692 1862.67 458.112 1868.28 456.628Z" fill="#E9F6FB" stroke="black" stroke-width="30" stroke-linejoin="round"/>
<path d="M615.642 1177.85C611.342 1182.02 609.937 1188.35 612.069 1193.95C612.235 1194.39 612.394 1194.77 612.493 1195.01C612.617 1195.31 612.646 1195.37 612.696 1195.5C615.18 1201.64 619.267 1208.5 624.319 1215.73L625.343 1217.18L625.367 1217.21C634.325 1229.74 645.568 1241.01 658.722 1250.87L658.722 1250.87C672.321 1261.22 686.676 1269.09 701.529 1273.99L701.529 1273.99C712.825 1277.76 723.931 1280.47 734.706 1282.03C734.835 1282.05 734.965 1282.07 735.094 1282.09C735.571 1282.14 737.328 1282.38 738.892 1282.5C738.916 1282.51 738.941 1282.51 738.966 1282.51C732.997 1285.38 728.092 1289.31 724.792 1294.7C720.391 1301.9 720.48 1309.18 720.665 1313.13C720.666 1313.16 720.667 1313.19 720.669 1313.22C720.919 1317.95 722.527 1323.13 727.019 1328.6L727.463 1329.13L727.733 1329.44C727.825 1329.54 727.918 1329.64 728.012 1329.74C736.627 1338.79 746.821 1345.05 758.894 1347.1C768.499 1348.74 778.207 1347.53 787.883 1344.33C785.495 1347.68 783.466 1351.27 781.868 1354.98L781.496 1355.86L781.369 1356.19C780.162 1359.34 779.107 1362.92 778.833 1366.63C778.573 1370.15 778.92 1375.3 782.175 1380.06L782.499 1380.52L782.528 1380.56C784.733 1383.57 790.377 1391.09 802.724 1393.99C814.132 1396.66 828.858 1394.85 848.499 1386.88C848.508 1386.88 848.517 1386.87 848.525 1386.87C855.516 1384.02 862.929 1380.47 870.563 1376.34C870.377 1376.94 870.226 1377.56 870.117 1378.19C870.015 1378.78 869.977 1379.01 869.944 1379.21L869.802 1380.05L869.757 1380.31C868.098 1390.81 870.301 1400.39 876.364 1409.01C876.531 1409.27 876.662 1409.45 876.726 1409.54C876.78 1409.61 876.835 1409.68 876.885 1409.75C877.319 1410.35 877.801 1410.92 878.334 1411.46L878.387 1411.52C880.74 1413.91 883.706 1415.36 886.797 1415.83L887.34 1415.92C888.616 1416.11 889.94 1416.18 891.301 1416.13C894.239 1416.02 897.498 1415.36 901.172 1414.09C901.542 1413.98 901.887 1413.85 902.205 1413.73C914.049 1409.72 923.283 1401.28 932.923 1392.74L932.923 1392.74C940.486 1386.08 949.477 1378.15 961.267 1369.64C961.357 1369.57 961.447 1369.5 961.536 1369.44C962.053 1369.05 962.58 1368.63 963.019 1368.27C962.6 1371.35 963.134 1374.57 964.703 1377.46C964.778 1377.6 964.849 1377.72 964.913 1377.83C964.977 1377.94 965.036 1378.04 965.088 1378.13C965.191 1378.3 965.28 1378.44 965.34 1378.53C965.75 1379.19 966.209 1379.81 966.716 1380.4C970.337 1384.59 974.921 1385.87 977.749 1386.25C980.58 1386.64 983.111 1386.35 984.812 1386.05C988.255 1385.45 991.544 1384.23 993.739 1383.33C993.764 1383.32 993.789 1383.31 993.813 1383.3C1007.09 1377.76 1020.4 1366.41 1032.64 1352.06C1032.65 1352.05 1032.66 1352.04 1032.67 1352.03C1040.59 1342.69 1045.55 1332.24 1046.7 1320.48C1047.35 1313.96 1043.68 1307.78 1037.65 1305.22L903.102 1247.96L903.08 1247.95C895.262 1244.64 887.836 1240.78 880.791 1236.46C878.743 1235.19 876.813 1233.96 874.965 1232.72C859.765 1222.47 846.618 1210.03 835.756 1196C835.743 1195.99 835.731 1195.97 835.719 1195.95C833.441 1193.04 831.276 1190.02 829.18 1186.89C829.141 1186.83 829.089 1186.74 829.029 1186.65C828.969 1186.55 828.897 1186.44 828.815 1186.31C825.628 1181.43 819.904 1178.84 814.136 1179.67C806.955 1180.69 799.604 1181.84 792.141 1183.2L792.114 1183.21L790.179 1183.56C769.914 1187.24 743.609 1191.91 722.275 1192.63L722.07 1192.64C698.283 1193.77 671.62 1192.94 643.035 1179.82C640.986 1178.85 636.251 1176.6 631.844 1174.76L631.323 1174.56C625.916 1172.54 619.807 1173.81 615.642 1177.85Z" fill="#E9F6FB" stroke="black" stroke-width="30" stroke-linejoin="round"/>
<path d="M149.865 707.721C145.565 711.893 144.16 718.224 146.291 723.823C146.48 724.318 146.661 724.757 146.785 725.052C146.925 725.387 146.98 725.517 147.048 725.684L147.356 726.433C150.605 734.213 155.992 743.076 162.782 752.622C162.79 752.632 162.799 752.643 162.806 752.654C174.006 768.309 188.094 782.444 204.635 794.837L204.635 794.839C221.735 807.86 239.709 817.695 258.222 823.795C272.474 828.555 286.447 831.959 299.967 833.923C300.096 833.941 300.226 833.959 300.356 833.974C301.137 834.067 303.247 834.359 305.111 834.495C305.175 834.503 305.25 834.513 305.328 834.522C305.451 834.536 305.633 834.553 305.855 834.571C308.915 834.866 312.152 834.989 316.319 834.927C316.349 834.927 316.38 834.926 316.41 834.925C328.259 834.678 340.726 832.941 353.494 829.963C353.514 829.958 353.535 829.953 353.555 829.948C354.366 829.756 355.285 830.251 355.529 831.166C355.729 832.071 355.151 832.952 354.321 833.158L354.276 833.169C341.682 836.341 329.761 838.113 318.891 838.518C317.508 838.569 316.138 838.812 314.822 839.239C303.784 842.819 295.287 848.265 290.257 856.491C285.618 864.077 285.371 871.797 285.546 876.74L285.586 877.69L285.59 877.78C285.872 883.11 287.701 889.094 293.287 895.645C293.465 895.853 293.649 896.057 293.838 896.256C304.38 907.327 316.651 914.789 331.034 917.238C345.108 919.635 359.563 916.95 374.239 910.796C374.428 910.728 374.616 910.657 374.802 910.581C374.966 910.527 375.047 910.505 375.06 910.502L375.06 910.501C387.589 907.922 407.878 900.542 439.45 881.16C439.826 880.96 440.171 880.758 440.483 880.56C440.766 880.418 441.078 880.37 441.425 880.424C441.798 880.482 442.12 880.647 442.356 880.87L442.451 880.969L442.464 880.983C442.49 881.012 442.553 881.089 442.675 881.278C443.1 882.021 442.844 883.006 442.135 883.44L442.094 883.466C416.232 899.423 396.198 908.702 380.662 912.684L380.06 912.853C377.073 913.753 374.435 915.563 372.521 918.038C368.903 922.716 365.884 927.82 363.6 933.128L363.153 934.192L363.026 934.514C361.558 938.345 360.355 942.511 360.046 946.694C359.752 950.668 360.171 956.179 363.606 961.205L363.947 961.689L363.976 961.728C366.589 965.297 373.055 973.941 387.401 977.31C400.806 980.458 418.707 978.454 443.461 968.412C443.469 968.409 443.478 968.405 443.486 968.402C453.768 964.209 464.822 958.797 476.235 952.386C476.574 952.196 476.904 951.992 477.227 951.776C478.008 951.254 478.738 950.843 480.298 949.921L480.297 949.919C481.632 949.15 482.913 948.337 483.888 947.72L483.888 947.719C493.189 941.836 503.054 935.704 505.478 934.468C505.519 934.447 505.561 934.425 505.602 934.404C505.919 934.239 506.221 934.202 506.544 934.265C506.859 934.327 507.153 934.48 507.381 934.698L507.475 934.795L507.498 934.822C507.469 934.788 507.564 934.891 507.732 935.196C508.11 935.947 507.82 936.976 507.008 937.408L507.009 937.408C504.842 938.562 497.66 942.939 485.723 950.475L485.527 950.601C484.83 951.056 484.473 951.283 484.159 951.463C480.295 953.685 477.62 957.51 476.857 961.901C476.741 962.571 476.687 962.891 476.639 963.182L476.452 964.288L476.407 964.551C474.45 976.944 477.028 988.118 484.186 998.274C484.368 998.55 484.512 998.753 484.581 998.85C484.677 998.982 484.771 999.103 484.854 999.211C485.27 999.775 485.728 1000.32 486.233 1000.83L486.302 1000.9C488.676 1003.32 491.675 1004.77 494.796 1005.23C494.801 1005.23 494.805 1005.23 494.81 1005.23C496.33 1005.51 497.955 1005.61 499.679 1005.55C502.949 1005.42 506.725 1004.68 511.154 1003.15C511.594 1003.01 511.998 1002.87 512.368 1002.73C526.596 997.936 537.779 987.779 550.342 976.652L550.342 976.654C560.027 968.12 571.671 957.853 586.945 946.822C587.035 946.757 587.125 946.691 587.214 946.624C588.198 945.878 589.215 945.051 589.854 944.537C591.377 943.361 591.633 943.118 592.353 942.599C592.696 942.352 593.029 942.089 593.35 941.814C600.361 935.799 603.721 932.523 606.211 930.03L607.406 928.857C607.442 928.822 607.476 928.785 607.512 928.749L607.75 928.538C608.362 928.04 609.346 928.067 609.955 928.689L609.955 928.69C610.571 929.32 610.595 930.36 609.907 931.036L609.445 931.489L609.19 931.744C607.887 933.087 605.34 935.735 600.694 939.877L600.218 940.32C595.417 944.986 594.274 952.307 597.496 958.236C597.647 958.513 597.784 958.744 597.888 958.915C597.96 959.033 598.026 959.135 598.08 959.219C598.515 959.939 599.011 960.621 599.561 961.258C603.291 965.576 608.04 966.928 611.07 967.338C614.101 967.748 616.871 967.442 618.829 967.103C622.786 966.416 626.664 964.99 629.378 963.874C629.402 963.864 629.427 963.853 629.451 963.843C645.578 957.108 662.111 943.141 677.584 925.001C677.593 924.991 677.602 924.98 677.611 924.969C687.294 913.552 693.218 900.956 694.6 886.895C695.241 880.374 691.575 874.192 685.546 871.626L513.298 798.324L513.275 798.314C503.095 794.001 493.427 788.988 484.256 783.366C481.58 781.7 479.032 780.082 476.582 778.44C456.743 765.061 439.582 748.829 425.404 730.515C425.391 730.499 425.378 730.483 425.366 730.467C422.366 726.624 419.522 722.656 416.778 718.561C416.76 718.531 416.739 718.497 416.717 718.461C416.632 718.322 416.493 718.097 416.322 717.835C413.135 712.957 407.412 710.366 401.644 711.19C392.485 712.498 383.131 713.956 373.648 715.691L373.621 715.695L371.194 716.144C345.307 720.838 311.288 726.889 283.591 727.826L283.386 727.834C252.657 729.294 217.712 728.26 180.198 711.019C177.551 709.767 171.593 706.932 166.067 704.636C160.535 702.336 154.165 703.549 149.865 707.721ZM379.523 907.812C379.78 907.59 380.018 907.371 380.238 907.155C380.002 907.387 379.762 907.605 379.523 907.812ZM377.73 909.139C378.058 908.932 378.368 908.72 378.658 908.505C378.797 908.401 378.931 908.297 379.062 908.193C378.619 908.546 378.174 908.86 377.73 909.139Z" fill="#E9F6FB" stroke="black" stroke-width="30" stroke-linejoin="round"/>
<path d="M377.215 698.643C372.915 702.815 371.51 709.145 373.641 714.745C373.808 715.182 373.966 715.563 374.066 715.802C374.19 716.099 374.219 716.166 374.269 716.288C376.753 722.438 380.839 729.291 385.892 736.521L386.916 737.975L386.94 738.008C395.898 750.529 407.141 761.8 420.295 771.659L420.295 771.66C433.894 782.016 448.249 789.885 463.101 794.781L463.101 794.782C474.398 798.555 485.504 801.262 496.279 802.827C496.408 802.846 496.537 802.864 496.667 802.879C497.143 802.936 498.901 803.178 500.465 803.295C500.489 803.298 500.514 803.301 500.539 803.304C494.57 806.171 489.665 810.098 486.365 815.495C481.964 822.692 482.053 829.973 482.238 833.92C482.239 833.95 482.24 833.98 482.242 834.01C482.492 838.743 484.1 843.923 488.591 849.392L489.035 849.922L489.306 850.231C489.398 850.333 489.491 850.433 489.585 850.532C498.2 859.58 508.394 865.839 520.467 867.895C530.072 869.531 539.779 868.319 549.456 865.125C547.068 868.475 545.039 872.058 543.441 875.773L543.069 876.657L542.942 876.978C541.735 880.129 540.68 883.717 540.406 887.426C540.146 890.94 540.493 896.089 543.748 900.852L544.072 901.312L544.101 901.351C546.306 904.362 551.949 911.879 564.297 914.778C575.704 917.457 590.431 915.643 610.072 907.675C610.08 907.672 610.089 907.668 610.098 907.664C617.089 904.813 624.502 901.263 632.136 897.131C631.95 897.735 631.799 898.354 631.689 898.985C631.588 899.57 631.55 899.803 631.517 900.005L631.375 900.841L631.33 901.104C629.671 911.606 631.874 921.182 637.937 929.807C638.104 930.058 638.234 930.242 638.298 930.331C638.352 930.406 638.407 930.476 638.458 930.544C638.891 931.141 639.374 931.714 639.907 932.257L639.959 932.31C642.312 934.707 645.278 936.149 648.369 936.625L648.913 936.715C650.189 936.905 651.512 936.97 652.874 936.919C655.811 936.809 659.071 936.153 662.744 934.882C663.115 934.768 663.459 934.646 663.778 934.524C675.622 930.515 684.856 922.071 694.496 913.533L694.496 913.534C702.059 906.87 711.05 898.944 722.839 890.429C722.93 890.364 723.02 890.298 723.109 890.23C723.625 889.84 724.152 889.419 724.592 889.067C724.173 892.147 724.707 895.365 726.276 898.251C726.351 898.39 726.422 898.516 726.486 898.626C726.55 898.736 726.609 898.835 726.661 898.921C726.764 899.09 726.853 899.229 726.913 899.321C727.322 899.978 727.782 900.603 728.288 901.19C731.91 905.382 736.493 906.664 739.322 907.047C742.153 907.43 744.684 907.139 746.385 906.844C749.828 906.246 753.117 905.026 755.312 904.123C755.336 904.113 755.361 904.104 755.386 904.093C768.66 898.549 781.973 887.206 794.216 872.854C794.225 872.843 794.234 872.832 794.243 872.821C802.166 863.48 807.122 853.03 808.277 841.278C808.918 834.757 805.252 828.575 799.223 826.009L664.675 768.75L664.652 768.741C656.834 765.429 649.409 761.577 642.364 757.254C640.316 755.978 638.385 754.75 636.537 753.512C621.338 743.26 608.19 730.825 597.328 716.794C597.316 716.778 597.304 716.762 597.291 716.747C595.014 713.829 592.849 710.81 590.753 707.684C590.714 707.619 590.662 707.535 590.602 707.439C590.542 707.343 590.47 707.229 590.387 707.103C587.2 702.225 581.477 699.634 575.709 700.458C568.528 701.484 561.176 702.629 553.714 703.994L553.687 703.999L551.751 704.357C531.487 708.031 505.182 712.7 483.847 713.422L483.642 713.43C459.855 714.56 433.193 713.737 404.608 700.611C402.559 699.642 397.824 697.389 393.417 695.557L392.896 695.351C387.489 693.336 381.38 694.601 377.215 698.643Z" fill="#E9F6FB" stroke="black" stroke-width="30" stroke-linejoin="round"/>
<path d="M1693.12 -183.277C1698.88 -184.914 1705.06 -182.965 1708.85 -178.32C1709.18 -177.909 1709.47 -177.533 1709.66 -177.278C1709.88 -176.99 1709.97 -176.877 1710.08 -176.734L1710.57 -176.093C1715.69 -169.39 1720.67 -160.293 1725.54 -149.639C1725.55 -149.627 1725.55 -149.614 1725.56 -149.602C1733.52 -132.076 1738.71 -112.808 1741.18 -92.2858L1741.18 -92.2851C1743.9 -70.9653 1743.43 -50.482 1739.46 -31.3996C1736.46 -16.6768 1732.42 -2.87393 1727.36 9.81692C1727.31 9.93794 1727.26 10.0591 1727.21 10.1788C1726.9 10.9018 1726.1 12.8751 1725.28 14.5576C1725.26 14.6168 1725.23 14.6869 1725.2 14.7586C1725.15 14.8722 1725.07 15.0386 1724.98 15.2396C1723.7 18.0376 1722.19 20.9028 1720.05 24.4801C1720.04 24.5062 1720.02 24.5322 1720.01 24.5581C1713.87 34.6959 1706.13 44.6245 1697.17 54.1927C1697.15 54.2078 1697.14 54.223 1697.12 54.2381C1696.55 54.8442 1696.52 55.887 1697.19 56.5566C1697.87 57.1823 1698.93 57.1222 1699.52 56.5063L1699.55 56.473C1708.6 47.152 1716.09 37.7138 1721.88 28.5031C1722.61 27.3311 1723.51 26.2663 1724.54 25.3397C1733.15 17.5706 1742.12 12.9353 1751.76 12.6919C1760.65 12.4674 1767.46 16.1135 1771.65 18.7363L1772.45 19.2458L1772.53 19.2948C1777 22.2036 1781.27 26.7797 1784.15 34.893C1784.24 35.1512 1784.33 35.4121 1784.4 35.6749C1788.72 50.3406 1789.05 64.698 1783.98 78.3794C1779.02 91.7661 1769.46 102.942 1756.8 112.574C1756.64 112.704 1756.49 112.831 1756.33 112.955C1756.2 113.07 1756.14 113.129 1756.13 113.139L1756.13 113.139C1747.63 122.7 1731.1 136.58 1698.53 154.231C1698.16 154.457 1697.82 154.655 1697.49 154.826C1697.23 155 1697.03 155.246 1696.9 155.573C1696.76 155.926 1696.75 156.286 1696.82 156.603L1696.86 156.735L1696.87 156.753C1696.88 156.79 1696.91 156.883 1697.01 157.083C1697.45 157.823 1698.43 158.093 1699.16 157.697L1699.2 157.674C1725.95 143.255 1744 130.545 1755.22 119.082L1755.67 118.644C1757.94 116.507 1760.83 115.128 1763.93 114.708C1769.79 113.914 1775.72 113.851 1781.46 114.527L1782.6 114.672L1782.94 114.723C1786.99 115.367 1791.2 116.408 1794.98 118.232C1798.57 119.965 1803.13 123.083 1805.77 128.57L1806.02 129.108L1806.04 129.152C1807.82 133.2 1812.07 143.122 1807.82 157.23C1803.84 170.414 1793.16 184.914 1772.08 201.33C1772.08 201.336 1772.07 201.342 1772.06 201.348C1763.29 208.155 1753.08 215.023 1741.82 221.701C1741.48 221.899 1741.14 222.083 1740.79 222.255C1739.95 222.67 1739.23 223.097 1737.65 223.987L1737.65 223.985C1736.32 224.756 1734.97 225.46 1733.95 225.995L1733.95 225.995C1724.2 231.108 1713.96 236.585 1711.68 238.067C1711.64 238.092 1711.6 238.117 1711.56 238.142C1711.26 238.334 1711.08 238.578 1710.97 238.889C1710.87 239.193 1710.85 239.524 1710.93 239.83L1710.96 239.959L1710.97 239.994C1710.96 239.951 1711 240.086 1711.18 240.383C1711.64 241.086 1712.68 241.349 1713.46 240.862L1713.46 240.863C1715.54 239.563 1722.92 235.532 1735.42 228.962L1735.62 228.855C1736.37 228.48 1736.74 228.283 1737.06 228.102C1740.91 225.866 1745.56 225.462 1749.75 226.997C1750.38 227.231 1750.69 227.345 1750.96 227.449L1752.02 227.84L1752.27 227.933C1763.98 232.434 1772.36 240.254 1777.58 251.531C1777.73 251.826 1777.83 252.052 1777.88 252.161C1777.95 252.309 1778.01 252.452 1778.06 252.578C1778.34 253.22 1778.58 253.888 1778.77 254.583L1778.8 254.677C1779.71 257.942 1779.46 261.262 1778.3 264.196C1778.3 264.201 1778.3 264.206 1778.3 264.211C1777.77 265.663 1777.05 267.123 1776.13 268.583C1774.39 271.355 1771.86 274.254 1768.32 277.322C1767.98 277.637 1767.66 277.914 1767.35 278.162C1756.08 288.089 1741.7 292.696 1725.78 298.012L1725.78 298.013C1713.55 302.134 1698.83 307.085 1681.64 314.796C1681.54 314.842 1681.44 314.887 1681.34 314.93C1680.2 315.41 1678.97 315.877 1678.21 316.173C1676.43 316.904 1676.09 317.005 1675.28 317.369C1674.9 317.542 1674.5 317.699 1674.1 317.839C1665.39 320.903 1660.87 322.175 1657.47 323.085L1655.85 323.533C1655.81 323.547 1655.76 323.558 1655.71 323.571L1655.41 323.672C1654.67 323.953 1654.2 324.819 1654.43 325.657L1654.44 325.658C1654.67 326.507 1655.56 327.047 1656.49 326.789L1657.11 326.615L1657.46 326.523C1659.28 326.065 1662.84 325.183 1668.75 323.231L1669.38 323.04C1675.82 321.215 1682.73 323.887 1686.25 329.641C1686.42 329.91 1686.55 330.144 1686.64 330.32C1686.71 330.441 1686.77 330.55 1686.81 330.638C1687.22 331.375 1687.56 332.145 1687.84 332.94C1689.71 338.33 1688.51 343.118 1687.35 345.947C1686.19 348.778 1684.54 351.023 1683.26 352.549C1680.69 355.632 1677.52 358.279 1675.19 360.07C1675.17 360.087 1675.15 360.102 1675.13 360.118C1661.23 370.717 1640.87 378.051 1617.43 382.382C1617.41 382.384 1617.4 382.387 1617.38 382.389C1602.66 385.066 1588.79 383.899 1575.92 378.065C1569.95 375.36 1566.43 369.094 1567.22 362.589L1589.86 176.767L1589.87 176.742C1591.22 165.77 1591.71 154.891 1591.43 144.137C1591.33 140.987 1591.2 137.971 1591 135.029C1589.33 111.157 1583.86 88.1797 1575.09 66.7442C1575.08 66.7256 1575.07 66.7063 1575.06 66.6877C1573.24 62.168 1571.22 57.7209 1569.05 53.297C1569.03 53.2663 1569.01 53.2309 1568.99 53.194C1568.91 53.0512 1568.79 52.8185 1568.65 52.5389C1566.01 47.3401 1566.63 41.0881 1570.23 36.5049C1575.94 29.2275 1581.88 21.8552 1588.13 14.51L1588.14 14.4889L1589.75 12.6117C1606.75 -7.46006 1629 -33.8961 1643.66 -57.414L1643.77 -57.5874C1660.4 -83.4692 1676.98 -114.249 1680.81 -155.358C1681.04 -158.276 1681.57 -164.854 1682.34 -170.788C1683.12 -176.728 1687.35 -181.639 1693.12 -183.277ZM1751.57 115.659C1751.25 115.77 1750.94 115.867 1750.64 115.949C1750.96 115.861 1751.27 115.762 1751.57 115.659ZM1753.62 114.77C1753.27 114.95 1752.93 115.112 1752.6 115.256C1752.44 115.325 1752.29 115.389 1752.13 115.45C1752.66 115.243 1753.15 115.014 1753.62 114.77Z" fill="#E9F6FB" stroke="black" stroke-width="30" stroke-linejoin="round"/>
<path d="M1571.58 9.07306C1577.34 7.43538 1583.53 9.38405 1587.31 14.0294C1587.61 14.3923 1587.86 14.7203 1588.01 14.9256C1588.21 15.1819 1588.25 15.2405 1588.33 15.3445C1592.42 20.5709 1596.31 27.5363 1600.04 35.5269L1600.79 37.1408L1600.81 37.1778C1607.17 51.1967 1611.31 66.5685 1613.27 82.8901L1613.27 82.8908C1615.44 99.8452 1615.08 116.212 1611.89 131.522L1611.89 131.523C1609.51 143.193 1606.31 154.164 1602.27 164.278C1602.22 164.399 1602.18 164.52 1602.12 164.64C1601.93 165.081 1601.27 166.724 1600.59 168.137C1600.58 168.159 1600.57 168.182 1600.56 168.205C1606.02 164.47 1611.88 162.186 1618.2 162.026C1626.63 161.813 1632.89 165.531 1636.22 167.664C1636.25 167.681 1636.27 167.697 1636.3 167.713C1640.27 170.296 1643.95 174.279 1646.44 180.903L1646.68 181.552L1646.81 181.941C1646.85 182.071 1646.9 182.202 1646.93 182.333C1650.46 194.318 1650.79 206.276 1646.53 217.759C1643.14 226.896 1637.24 234.696 1629.64 241.479C1633.73 241.086 1637.85 241.121 1641.87 241.594L1642.82 241.714L1643.16 241.765C1646.49 242.295 1650.13 243.175 1653.47 244.792C1656.65 246.324 1660.93 249.199 1663.43 254.4L1663.67 254.91L1663.69 254.955C1665.19 258.37 1668.88 267.016 1665.22 279.159C1661.83 290.378 1652.9 302.224 1636.18 315.249C1636.17 315.255 1636.16 315.261 1636.16 315.267C1630.19 319.895 1623.41 324.54 1616.01 329.086C1616.63 329.226 1617.24 329.405 1617.84 329.626C1618.4 329.83 1618.62 329.914 1618.81 329.987L1619.61 330.281L1619.86 330.374C1629.78 334.189 1636.97 340.884 1641.41 350.448C1641.55 350.717 1641.64 350.923 1641.68 351.022C1641.72 351.107 1641.76 351.189 1641.79 351.267C1642.09 351.941 1642.34 352.646 1642.55 353.378L1642.57 353.451C1643.47 356.687 1643.23 359.976 1642.1 362.891L1641.91 363.406C1641.43 364.607 1640.83 365.786 1640.1 366.939C1638.54 369.428 1636.34 371.922 1633.4 374.469C1633.12 374.733 1632.84 374.97 1632.58 375.185C1623.18 383.437 1611.25 387.212 1599.04 391.291L1599.04 391.292C1589.49 394.51 1578.13 398.334 1564.86 404.286C1564.76 404.332 1564.65 404.377 1564.55 404.42C1563.95 404.672 1563.33 404.918 1562.8 405.123C1565.68 406.3 1568.2 408.371 1569.91 411.173C1570 411.308 1570.07 411.432 1570.13 411.542C1570.2 411.653 1570.25 411.753 1570.3 411.842C1570.4 412.015 1570.47 412.162 1570.52 412.26C1570.89 412.943 1571.2 413.654 1571.45 414.385C1573.27 419.618 1572.09 424.228 1571.01 426.869C1569.92 429.512 1568.41 431.559 1567.3 432.884C1565.06 435.567 1562.36 437.806 1560.48 439.255C1560.46 439.271 1560.44 439.288 1560.42 439.304C1548.98 448.028 1532.5 453.886 1513.95 457.312C1513.94 457.315 1513.92 457.317 1513.91 457.32C1501.86 459.51 1490.33 458.578 1479.57 453.702C1473.61 450.996 1470.08 444.731 1470.88 438.227L1488.56 293.075L1488.57 293.051C1489.61 284.624 1489.98 276.267 1489.76 268.005C1489.68 265.593 1489.58 263.307 1489.44 261.088C1488.16 242.798 1483.96 225.195 1477.24 208.773C1477.23 208.754 1477.23 208.736 1477.22 208.717C1475.83 205.286 1474.3 201.901 1472.64 198.523C1472.6 198.457 1472.56 198.37 1472.5 198.27C1472.45 198.17 1472.39 198.051 1472.32 197.916C1469.69 192.717 1470.31 186.465 1473.9 181.882C1478.38 176.176 1483.05 170.382 1487.96 164.602L1487.98 164.581L1489.26 163.083C1502.57 147.371 1519.77 126.925 1531.06 108.809L1531.17 108.636C1544.04 88.601 1556.66 65.099 1559.59 33.7804C1559.77 31.5218 1560.19 26.2946 1560.81 21.5618L1560.89 21.0079C1561.85 15.3173 1566 10.6596 1571.58 9.07306Z" fill="#E9F6FB" stroke="black" stroke-width="30" stroke-linejoin="round"/>
<path d="M826.47 673.475C895.951 828.846 1053.56 924.447 1146 962.655C1164.46 970.285 1185.23 967.937 1202.53 957.95L1292.89 905.776L1383.26 853.602C1400.56 843.615 1412.98 826.802 1415.6 807.001C1428.73 707.84 1424.74 523.549 1324.93 385.691C1317.41 375.316 1310.07 365.997 1302.88 357.664C1255.82 369.161 1153 419.121 1090.87 458.124L1048.55 482.559L1006.23 506.993C941.387 541.293 846.709 605.361 813.221 640.37C816.845 650.758 821.241 661.782 826.47 673.475Z" fill="white"/>
<path d="M753.473 693.671L728.337 720.722C714.7 739.857 702.469 758.837 692.29 777.721C628.789 895.528 645.129 1009.58 897.891 1133.83L980.748 1085.99C1028.97 1058.15 1027.31 986.868 981.627 955.031C839.261 855.803 776.44 746.674 753.473 693.671Z" fill="white"/>
<path d="M1414.91 324.328L1378.92 332.571C1413.33 378.963 1476.43 487.932 1491.18 660.839C1495.92 716.316 1556.82 753.398 1605.04 725.559L1687.9 677.721C1706.67 396.696 1616.07 325.52 1482.3 321.611C1460.85 320.984 1438.3 322.085 1414.91 324.328Z" fill="white"/>
<path d="M753.473 693.671L728.337 720.722M753.473 693.671C753.473 693.671 634.211 430.818 872.261 416.133M753.473 693.671C776.44 746.674 839.261 855.803 981.627 955.031C1027.31 986.868 1028.97 1058.15 980.748 1085.99L897.891 1133.83M728.337 720.722C496.669 582.114 284.73 969.902 830.985 1219.41C844.63 1225.65 856.604 1236.1 864.104 1249.09C891.99 1297.4 911.916 1331.91 926.134 1356.54C945.46 1390.01 988.231 1401.43 1021.7 1382.11L1431.35 1145.6L1841 909.084C1874.48 889.758 1885.97 847.006 1866.64 813.533C1852.42 788.906 1832.5 754.394 1804.61 706.092C1797.11 693.101 1794.04 677.503 1795.47 662.571C1852.51 64.7434 1410.71 54.3942 1414.91 324.328M728.337 720.722C714.7 739.857 702.469 758.837 692.29 777.721M872.261 416.133C896.382 414.645 924.173 415.705 956.128 419.845C991.868 424.476 1026.59 404.43 1040.45 371.163C1052.84 341.419 1065.82 316.821 1079.17 296.675M872.261 416.133C854.215 381.257 837.874 300.102 916.874 254.491C995.875 208.88 1057.99 263.609 1079.17 296.675M897.891 1133.83L874.858 1147.13C856.695 1157.62 834.66 1159.65 815.538 1151.04C674.206 1087.36 593.093 976.117 570.312 924.821C550.944 885.844 526.586 800.216 574.696 774.947C603.562 759.786 638.891 754.734 692.29 777.721M897.891 1133.83C645.129 1009.58 628.789 895.528 692.29 777.721M1006.23 506.993L1048.55 482.559L1090.87 458.124M1006.23 506.993C923.556 471.679 749.657 458.172 813.221 640.37M1006.23 506.993C941.387 541.293 846.709 605.361 813.221 640.37M813.221 640.37C816.845 650.758 821.241 661.782 826.47 673.475C895.951 828.846 1053.56 924.447 1146 962.655C1164.46 970.285 1185.23 967.937 1202.53 957.95L1292.89 905.776L1383.26 853.602C1400.56 843.615 1412.98 826.802 1415.6 807.001C1428.73 707.84 1424.74 523.549 1324.93 385.691C1317.41 375.316 1310.07 365.997 1302.88 357.664M1378.92 332.571L1414.91 324.328M1378.92 332.571C1378.92 332.571 1210.91 97.8612 1079.17 296.675M1378.92 332.571C1413.33 378.963 1476.43 487.932 1491.18 660.839C1495.92 716.316 1556.82 753.398 1605.04 725.559L1687.9 677.721M1414.91 324.328C1438.3 322.085 1460.85 320.984 1482.3 321.611M1687.9 677.721L1710.93 664.423C1729.09 653.937 1741.87 635.872 1743.97 615.004C1759.49 460.768 1703.71 334.901 1670.68 289.524C1646.61 253.262 1584.63 189.354 1538.69 218.384C1511.13 235.802 1489.09 263.872 1482.3 321.611M1687.9 677.721C1706.67 396.696 1616.07 325.52 1482.3 321.611M1090.87 458.124C1101.62 368.872 1176.88 211.517 1302.88 357.664M1090.87 458.124C1153 419.121 1255.82 369.161 1302.88 357.664M910.569 177.774C917.981 152.212 902.947 125.549 877.239 118.66C851.897 111.87 825.849 126.909 819.059 152.251C812.17 177.959 827.744 204.31 853.588 210.672C878.331 216.764 903.473 202.248 910.569 177.774Z" stroke="black" stroke-width="30.004"/>
<path fill-rule="evenodd" clip-rule="evenodd" d="M728.337 720.722C496.669 582.114 284.73 969.902 830.985 1219.41C844.63 1225.65 856.604 1236.1 864.104 1249.09C891.99 1297.4 911.916 1331.91 926.134 1356.54C945.46 1390.01 988.231 1401.43 1021.7 1382.11L1431.35 1145.6L1841 909.084C1874.48 889.758 1885.97 847.006 1866.64 813.533C1852.42 788.906 1832.5 754.394 1804.61 706.091C1797.11 693.101 1794.04 677.503 1795.47 662.57C1852.51 64.7433 1410.71 54.3941 1414.91 324.328C1438.3 322.085 1460.85 320.984 1482.3 321.61C1489.09 263.872 1511.13 235.802 1538.69 218.384C1584.63 189.354 1646.61 253.262 1670.68 289.524C1703.71 334.901 1759.49 460.768 1743.97 615.004C1741.87 635.872 1729.09 653.937 1710.93 664.423L1687.9 677.721L1605.04 725.559C1556.82 753.398 1495.92 716.316 1491.18 660.838C1476.43 487.932 1413.33 378.963 1378.92 332.571C1378.92 332.571 1210.91 97.8612 1079.17 296.675C1065.82 316.821 1052.84 341.419 1040.45 371.163C1026.59 404.43 991.868 424.476 956.128 419.845C924.173 415.705 896.382 414.645 872.261 416.133C634.211 430.818 753.473 693.671 753.473 693.671C776.44 746.674 839.261 855.803 981.627 955.031C1027.31 986.868 1028.97 1058.15 980.748 1085.99L897.891 1133.83L874.858 1147.13C856.695 1157.62 834.66 1159.65 815.538 1151.04C674.206 1087.36 593.093 976.117 570.312 924.821C550.944 885.844 526.586 800.216 574.696 774.947C603.562 759.786 638.891 754.734 692.29 777.721C702.469 758.837 714.7 739.856 728.337 720.722ZM1202.53 957.95C1185.23 967.937 1164.46 970.285 1146 962.655C1053.56 924.447 895.951 828.846 826.47 673.475C821.241 661.782 816.845 650.758 813.221 640.37C749.657 458.172 923.556 471.679 1006.23 506.993L1048.55 482.558L1090.87 458.124C1101.62 368.872 1176.88 211.517 1302.88 357.664C1310.07 365.997 1317.41 375.316 1324.93 385.691C1424.74 523.549 1428.73 707.84 1415.6 807.001C1412.98 826.802 1400.56 843.615 1383.26 853.602L1292.89 905.776L1202.53 957.95Z" fill="#5BC8FB"/>
<path d="M872.261 416.133C896.382 414.645 924.173 415.705 956.128 419.845C991.868 424.476 1026.59 404.43 1040.45 371.163C1052.84 341.419 1065.82 316.821 1079.17 296.675C1057.99 263.609 995.875 208.88 916.874 254.491C837.874 300.102 854.215 381.257 872.261 416.133Z" fill="#5BC8FB"/>
<path d="M897.87 221.574L806.51 199.082L831.354 106.365L924.071 131.209L897.87 221.574Z" fill="#F35B5B"/>
<path d="M753.473 693.671L728.337 720.722M753.473 693.671C753.473 693.671 634.211 430.818 872.261 416.133M753.473 693.671C776.44 746.674 839.261 855.803 981.627 955.031C1027.31 986.868 1028.97 1058.15 980.748 1085.99L897.891 1133.83M728.337 720.722C496.669 582.114 284.73 969.902 830.985 1219.41C844.63 1225.65 856.604 1236.1 864.104 1249.09C891.99 1297.4 911.916 1331.91 926.134 1356.54C945.46 1390.01 988.231 1401.43 1021.7 1382.11L1431.35 1145.6L1841 909.084C1874.48 889.758 1885.97 847.006 1866.64 813.533C1852.42 788.906 1832.5 754.394 1804.61 706.091C1797.11 693.101 1794.04 677.503 1795.47 662.57C1852.51 64.7433 1410.71 54.3941 1414.91 324.328M728.337 720.722C714.7 739.856 702.469 758.837 692.29 777.721M872.261 416.133C896.382 414.645 924.173 415.705 956.128 419.845C991.868 424.476 1026.59 404.43 1040.45 371.163C1052.84 341.419 1065.82 316.821 1079.17 296.675M872.261 416.133C854.215 381.257 837.874 300.102 916.874 254.491C995.875 208.88 1057.99 263.609 1079.17 296.675M897.891 1133.83L874.858 1147.13C856.695 1157.62 834.66 1159.65 815.538 1151.04C674.206 1087.36 593.093 976.117 570.312 924.821C550.944 885.844 526.586 800.216 574.696 774.947C603.562 759.786 638.891 754.734 692.29 777.721M897.891 1133.83C645.129 1009.58 628.789 895.528 692.29 777.721M1006.23 506.993L1048.55 482.558L1090.87 458.124M1006.23 506.993C923.556 471.679 749.657 458.172 813.221 640.37M1006.23 506.993C941.387 541.293 846.709 605.361 813.221 640.37M813.221 640.37C816.845 650.758 821.241 661.782 826.47 673.475C895.951 828.846 1053.56 924.447 1146 962.655C1164.46 970.285 1185.23 967.937 1202.53 957.95L1292.89 905.776L1383.26 853.602C1400.56 843.615 1412.98 826.802 1415.6 807.001C1428.73 707.84 1424.74 523.549 1324.93 385.691C1317.41 375.316 1310.07 365.997 1302.88 357.664M1378.92 332.571L1414.91 324.328M1378.92 332.571C1378.92 332.571 1210.91 97.8612 1079.17 296.675M1378.92 332.571C1413.33 378.963 1476.43 487.932 1491.18 660.838C1495.92 716.316 1556.82 753.398 1605.04 725.559L1687.9 677.721M1414.91 324.328C1438.3 322.085 1460.85 320.984 1482.3 321.61M1687.9 677.721L1710.93 664.423C1729.09 653.937 1741.87 635.872 1743.97 615.004C1759.49 460.768 1703.71 334.901 1670.68 289.524C1646.61 253.262 1584.63 189.354 1538.69 218.384C1511.13 235.802 1489.09 263.872 1482.3 321.61M1687.9 677.721C1706.67 396.696 1616.07 325.52 1482.3 321.61M1090.87 458.124C1101.62 368.872 1176.88 211.517 1302.88 357.664M1090.87 458.124C1153 419.121 1255.82 369.161 1302.88 357.664M897.87 221.574L806.51 199.082L831.354 106.365L924.071 131.209L897.87 221.574Z" stroke="black" stroke-width="30.004"/>
<path d="M1216.38 617.21L1192.76 609.103L1080.18 674.101L1079.17 702.737L1244.82 839.414C1249.14 840.84 1253.14 842.11 1256.77 843.206L1216.38 617.21Z" fill="#88E6F5"/>
<path d="M1256.77 843.206C1270.33 785.34 1292.32 627.706 1287.48 561.914C1284.1 559.562 1279.54 556.771 1274.16 553.715L1216.38 617.21L1256.77 843.206Z" fill="#88E6F5"/>
<path fill-rule="evenodd" clip-rule="evenodd" d="M1084 543.967C1064.89 554.441 1027.87 579.623 1008.81 602.801C1002.61 623.476 996.619 690.73 997.434 721.872C997.505 724.594 997.629 727.039 997.808 729.154C1048.88 763.88 1181.43 818.485 1244.82 839.414L1079.17 702.737L1080.18 674.101L1192.76 609.103L1172.55 508.261C1142.95 513.186 1102.63 532.648 1084 543.967Z" fill="#88E6F5"/>
<path d="M1008.81 602.801C1027.87 579.623 1064.89 554.441 1084 543.967C1102.63 532.648 1142.95 513.186 1172.55 508.261M1008.81 602.801L1080.18 674.101M1008.81 602.801C1002.61 623.476 996.619 690.73 997.434 721.872M1256.77 843.206C1270.33 785.34 1292.32 627.706 1287.48 561.914C1284.1 559.562 1279.54 556.771 1274.16 553.715M1256.77 843.206L1216.38 617.21M1256.77 843.206C1253.14 842.11 1249.14 840.84 1244.82 839.414M1172.55 508.261L1192.76 609.103M1172.55 508.261C1191.83 512.823 1245.01 537.161 1274.16 553.715M1192.76 609.103L1216.38 617.21M1192.76 609.103L1080.18 674.101M1216.38 617.21L1274.16 553.715M1080.18 674.101L1079.17 702.737M1079.17 702.737L997.434 721.872M1079.17 702.737L1244.82 839.414M997.434 721.872C997.505 724.594 997.629 727.039 997.808 729.154C1048.88 763.88 1181.43 818.485 1244.82 839.414" stroke="black" stroke-width="30" stroke-linecap="round" stroke-linejoin="round"/>
<path d="M1192.76 609.112L1172.56 508.27C1151.25 511.815 1124.4 522.887 1104.08 533.035L1179.66 616.675L1192.76 609.112Z" fill="#5FD8F0"/>
<path d="M1172.55 508.261L1192.76 609.103L1216.38 617.21L1274.16 553.715C1245.01 537.161 1191.83 512.823 1172.55 508.261Z" fill="#5FD8F0"/>
<path d="M1216.38 617.21L1192.76 609.103L1080.18 674.101L1079.17 702.737L1244.82 839.414C1249.14 840.84 1253.14 842.11 1256.77 843.206L1216.38 617.21Z" fill="#5FD8F0"/>
<path d="M1256.77 843.206C1270.33 785.34 1292.32 627.706 1287.48 561.914C1284.1 559.562 1279.54 556.771 1274.16 553.715L1216.38 617.21L1256.77 843.206Z" fill="#5FD8F0"/>
<path d="M1008.81 602.801C1027.87 579.623 1064.89 554.441 1084 543.967C1102.63 532.648 1142.95 513.186 1172.55 508.261M1008.81 602.801L1080.18 674.101M1008.81 602.801C1002.61 623.476 996.619 690.73 997.434 721.872M1256.77 843.206C1270.33 785.34 1292.32 627.706 1287.48 561.914C1284.1 559.562 1279.54 556.771 1274.16 553.715M1256.77 843.206L1216.38 617.21M1256.77 843.206C1253.14 842.11 1249.14 840.84 1244.82 839.414M1172.55 508.261L1192.76 609.103M1172.55 508.261C1191.83 512.823 1245.01 537.161 1274.16 553.715M1192.76 609.103L1216.38 617.21M1192.76 609.103L1080.18 674.101M1216.38 617.21L1274.16 553.715M1080.18 674.101L1079.17 702.737M1079.17 702.737L997.434 721.872M1079.17 702.737L1244.82 839.414M997.434 721.872C997.505 724.594 997.629 727.039 997.808 729.154C1048.88 763.88 1181.43 818.485 1244.82 839.414" stroke="black" stroke-width="30" stroke-linecap="round" stroke-linejoin="round"/>
<path d="M1216.38 617.21L1192.76 609.103L1080.18 674.101L1079.17 702.737L1244.82 839.414C1249.14 840.84 1253.14 842.11 1256.77 843.206L1216.38 617.21Z" fill="#88E6F5"/>
<path d="M1256.77 843.206C1270.33 785.34 1292.32 627.706 1287.48 561.914C1284.1 559.562 1279.54 556.771 1274.16 553.715L1216.38 617.21L1256.77 843.206Z" fill="#88E6F5"/>
<path fill-rule="evenodd" clip-rule="evenodd" d="M1084 543.967C1064.89 554.441 1027.87 579.623 1008.81 602.801C1002.61 623.476 996.619 690.73 997.434 721.872C997.505 724.594 997.629 727.039 997.808 729.154C1048.88 763.88 1181.43 818.485 1244.82 839.414L1079.17 702.737L1080.18 674.101L1192.76 609.103L1172.55 508.261C1142.95 513.186 1102.63 532.648 1084 543.967Z" fill="#88E6F5"/>
<path d="M1008.81 602.801C1027.87 579.623 1064.89 554.441 1084 543.967C1102.63 532.648 1142.95 513.186 1172.55 508.261M1008.81 602.801L1080.18 674.101M1008.81 602.801C1002.61 623.476 996.619 690.73 997.434 721.872M1256.77 843.206C1270.33 785.34 1292.32 627.706 1287.48 561.914C1284.1 559.562 1279.54 556.771 1274.16 553.715M1256.77 843.206L1216.38 617.21M1256.77 843.206C1253.14 842.11 1249.14 840.84 1244.82 839.414M1172.55 508.261L1192.76 609.103M1172.55 508.261C1191.83 512.823 1245.01 537.161 1274.16 553.715M1192.76 609.103L1216.38 617.21M1192.76 609.103L1080.18 674.101M1216.38 617.21L1274.16 553.715M1080.18 674.101L1079.17 702.737M1079.17 702.737L997.434 721.872M1079.17 702.737L1244.82 839.414M997.434 721.872C997.505 724.594 997.629 727.039 997.808 729.154C1048.88 763.88 1181.43 818.485 1244.82 839.414" stroke="black" stroke-width="30" stroke-linecap="round" stroke-linejoin="round"/>
<path d="M1192.76 609.112L1172.56 508.27C1151.25 511.815 1124.4 522.887 1104.08 533.035L1179.66 616.675L1192.76 609.112Z" fill="#5FD8F0"/>
<path d="M1172.55 508.261L1192.76 609.103L1216.38 617.21L1274.16 553.715C1245.01 537.161 1191.83 512.823 1172.55 508.261Z" fill="#5FD8F0"/>
<path d="M1216.38 617.21L1192.76 609.103L1080.18 674.101L1079.17 702.737L1244.82 839.414C1249.14 840.84 1253.14 842.11 1256.77 843.206L1216.38 617.21Z" fill="#5FD8F0"/>
<path d="M1256.77 843.206C1270.33 785.34 1292.32 627.706 1287.48 561.914C1284.1 559.562 1279.54 556.771 1274.16 553.715L1216.38 617.21L1256.77 843.206Z" fill="#5FD8F0"/>
<path d="M1008.81 602.801C1027.87 579.623 1064.89 554.441 1084 543.967C1102.63 532.648 1142.95 513.186 1172.55 508.261M1008.81 602.801L1080.18 674.101M1008.81 602.801C1002.61 623.476 996.619 690.73 997.434 721.872M1256.77 843.206C1270.33 785.34 1292.32 627.706 1287.48 561.914C1284.1 559.562 1279.54 556.771 1274.16 553.715M1256.77 843.206L1216.38 617.21M1256.77 843.206C1253.14 842.11 1249.14 840.84 1244.82 839.414M1172.55 508.261L1192.76 609.103M1172.55 508.261C1191.83 512.823 1245.01 537.161 1274.16 553.715M1192.76 609.103L1216.38 617.21M1192.76 609.103L1080.18 674.101M1216.38 617.21L1274.16 553.715M1080.18 674.101L1079.17 702.737M1079.17 702.737L997.434 721.872M1079.17 702.737L1244.82 839.414M997.434 721.872C997.505 724.594 997.629 727.039 997.808 729.154C1048.88 763.88 1181.43 818.485 1244.82 839.414" stroke="black" stroke-width="30" stroke-linecap="round" stroke-linejoin="round"/>
<path d="M1103.11 1247.17C1100.67 1258.85 1088.62 1265.81 1077.28 1262.08L1032.15 1247.24C1022.62 1244.11 1016.89 1234.41 1018.74 1224.55L1027.72 1176.76C1029.98 1164.72 1042.44 1157.52 1054 1161.58L1099.88 1177.7C1109.34 1181.03 1114.87 1190.85 1112.82 1200.66L1103.11 1247.17Z" fill="#5BC8FB"/>
<path d="M1103.11 1247.17C1100.67 1258.85 1088.62 1265.81 1077.28 1262.08L1032.15 1247.24C1022.62 1244.11 1016.89 1234.41 1018.74 1224.55L1027.72 1176.76C1029.98 1164.72 1042.44 1157.52 1054 1161.58L1099.88 1177.7C1109.34 1181.03 1114.87 1190.85 1112.82 1200.66L1103.11 1247.17Z" stroke="black" stroke-width="30.004"/>
<path d="M1401.61 1094.09L1259.61 1100.83L1335.1 978.877L1478.46 974.483L1401.61 1094.09Z" fill="#55E748" stroke="black" stroke-width="30.004"/>
<path d="M1709.27 897.208C1706.83 908.884 1694.78 915.843 1683.44 912.117L1638.31 897.277C1628.78 894.144 1623.05 884.44 1624.9 874.584L1633.88 826.796C1636.14 814.752 1648.6 807.557 1660.16 811.619L1706.04 827.738C1715.5 831.063 1721.04 840.881 1718.98 850.697L1709.27 897.208Z" fill="#5BC8FB"/>
<path d="M1709.27 897.208C1706.83 908.884 1694.78 915.843 1683.44 912.117L1638.31 897.277C1628.78 894.144 1623.05 884.44 1624.9 874.584L1633.88 826.796C1636.14 814.752 1648.6 807.557 1660.16 811.619L1706.04 827.738C1715.5 831.063 1721.04 840.881 1718.98 850.697L1709.27 897.208Z" stroke="black" stroke-width="30.004"/>
</g>
<defs>
<clipPath id="clip0_4368_3920">
<rect width="3000" height="3000" fill="white" transform="translate(0 8.055) rotate(-0.153839)"/>
</clipPath>
</defs>
</svg>
