<svg width="3009" height="3009" viewBox="0 0 3009 3009" fill="none" xmlns="http://www.w3.org/2000/svg">
<g clip-path="url(#clip0_4368_3920)">
<path d="M1772.28 304.628C1778.07 303.098 1784.22 305.16 1787.92 309.875C1788.21 310.243 1788.45 310.576 1788.6 310.784C1788.79 311.044 1788.84 311.103 1788.92 311.209C1792.9 316.51 1796.66 323.546 1800.25 331.604L1800.97 333.231L1800.98 333.269C1807.09 347.403 1810.94 362.849 1812.6 379.204L1812.6 379.204C1814.46 396.196 1813.79 412.553 1810.32 427.802L1810.33 427.803C1807.73 439.426 1804.32 450.337 1800.1 460.374C1800.05 460.495 1800 460.615 1799.94 460.733C1799.75 461.171 1799.05 462.801 1798.34 464.202C1798.33 464.224 1798.32 464.246 1798.31 464.269C1803.85 460.636 1809.74 458.46 1816.07 458.417C1824.5 458.36 1830.69 462.193 1833.98 464.388C1834 464.404 1834.03 464.421 1834.05 464.438C1837.98 467.094 1841.59 471.144 1843.95 477.813L1844.18 478.467L1844.31 478.858C1844.35 478.989 1844.38 479.12 1844.42 479.252C1847.72 491.3 1847.83 503.262 1843.36 514.665C1839.81 523.737 1833.76 531.427 1826.03 538.069C1830.13 537.751 1834.25 537.862 1838.26 538.409L1839.2 538.547L1839.55 538.604C1842.87 539.196 1846.48 540.143 1849.8 541.821C1852.95 543.412 1857.18 546.365 1859.58 551.612L1859.81 552.126L1859.83 552.171C1861.27 555.613 1864.8 564.326 1860.91 576.399C1857.32 587.553 1848.17 599.233 1831.21 611.947C1831.2 611.952 1831.19 611.958 1831.18 611.964C1825.14 616.481 1818.27 621 1810.79 625.408C1811.4 625.56 1812.01 625.75 1812.61 625.982C1813.16 626.197 1813.38 626.284 1813.57 626.36L1814.36 626.67L1814.61 626.767C1824.46 630.764 1831.53 637.59 1835.79 647.232C1835.92 647.506 1836.01 647.714 1836.05 647.815C1836.1 647.922 1836.14 648.025 1836.18 648.12C1836.45 648.782 1836.69 649.472 1836.87 650.187L1836.89 650.26C1837.73 653.512 1837.43 656.796 1836.25 659.69L1836.04 660.201C1835.55 661.393 1834.92 662.56 1834.18 663.7C1832.57 666.16 1830.32 668.614 1827.34 671.106C1827.05 671.365 1826.77 671.597 1826.5 671.807C1816.95 679.883 1804.96 683.437 1792.67 687.289L1792.67 687.29C1783.06 690.331 1771.63 693.944 1758.25 699.65C1758.15 699.694 1758.05 699.737 1757.94 699.778C1757.34 700.019 1756.71 700.254 1756.18 700.448C1759.04 701.679 1761.52 703.796 1763.18 706.63C1763.26 706.766 1763.33 706.892 1763.39 707.004C1763.46 707.115 1763.51 707.217 1763.56 707.306C1763.65 707.481 1763.72 707.628 1763.77 707.727C1764.12 708.417 1764.42 709.133 1764.66 709.869C1766.38 715.134 1765.12 719.722 1763.99 722.343C1762.85 724.965 1761.3 726.983 1760.17 728.288C1757.88 730.929 1755.14 733.117 1753.23 734.532C1753.21 734.548 1753.19 734.564 1753.17 734.58C1741.57 743.09 1724.98 748.643 1706.37 751.726C1706.36 751.728 1706.35 751.73 1706.33 751.732C1694.24 753.699 1682.73 752.554 1672.07 747.48C1666.15 744.665 1662.75 738.335 1663.66 731.847L1684.03 587.047L1684.03 587.023C1685.23 578.617 1685.76 570.268 1685.69 562.003C1685.65 559.59 1685.6 557.303 1685.49 555.081C1684.55 536.771 1680.68 519.094 1674.27 502.55C1674.26 502.531 1674.25 502.513 1674.25 502.494C1672.92 499.038 1671.45 495.625 1669.86 492.217C1669.82 492.15 1669.78 492.062 1669.72 491.961C1669.67 491.86 1669.61 491.74 1669.55 491.604C1667.01 486.357 1667.75 480.118 1671.43 475.602C1676.01 469.979 1680.78 464.273 1685.8 458.585L1685.82 458.564L1687.13 457.091C1700.73 441.627 1718.3 421.502 1729.93 403.599L1730.04 403.427C1743.28 383.634 1756.33 360.369 1759.83 329.11C1760.06 326.855 1760.57 321.636 1761.28 316.916L1761.37 316.364C1762.43 310.692 1766.67 306.112 1772.28 304.628ZM1763.55 707.306C1763.54 707.291 1763.53 707.275 1763.52 707.26C1763.52 707.252 1763.51 707.245 1763.51 707.237C1763.52 707.26 1763.53 707.283 1763.55 707.306Z" fill="#E9F6FB" stroke="black" stroke-width="30" stroke-linejoin="round"/>
<path d="M519.642 1025.85C515.342 1030.02 513.938 1036.35 516.069 1041.95C516.236 1042.39 516.394 1042.77 516.493 1043.01C516.617 1043.31 516.646 1043.37 516.696 1043.5C519.18 1049.64 523.267 1056.5 528.319 1063.73L529.343 1065.18L529.367 1065.21C538.325 1077.74 549.568 1089.01 562.722 1098.87L562.722 1098.87C576.321 1109.22 590.676 1117.09 605.529 1121.99L605.529 1121.99C616.825 1125.76 627.931 1128.47 638.706 1130.03C638.835 1130.05 638.965 1130.07 639.094 1130.09C639.57 1130.14 641.321 1130.38 642.882 1130.5C642.909 1130.5 642.937 1130.51 642.965 1130.51C636.997 1133.38 632.092 1137.31 628.792 1142.7C624.391 1149.9 624.48 1157.18 624.665 1161.13C624.666 1161.16 624.667 1161.19 624.669 1161.22C624.919 1165.95 626.527 1171.13 631.019 1176.6L631.463 1177.13L631.733 1177.44C631.825 1177.54 631.918 1177.64 632.012 1177.74C640.627 1186.79 650.821 1193.05 662.894 1195.1C672.499 1196.74 682.207 1195.53 691.883 1192.33C689.495 1195.68 687.466 1199.27 685.868 1202.98L685.496 1203.86L685.369 1204.19C684.162 1207.34 683.107 1210.92 682.833 1214.63C682.573 1218.15 682.92 1223.3 686.175 1228.06L686.499 1228.52L686.528 1228.56C688.733 1231.57 694.377 1239.09 706.724 1241.99C718.132 1244.66 732.858 1242.85 752.499 1234.88C752.508 1234.88 752.517 1234.87 752.525 1234.87C759.516 1232.02 766.929 1228.47 774.563 1224.34C774.377 1224.94 774.227 1225.56 774.117 1226.19C774.015 1226.78 773.977 1227.01 773.944 1227.21L773.802 1228.05L773.757 1228.31C772.098 1238.81 774.301 1248.39 780.364 1257.01C780.531 1257.26 780.661 1257.45 780.725 1257.54C780.779 1257.61 780.835 1257.68 780.885 1257.75C781.319 1258.35 781.801 1258.92 782.334 1259.46L782.387 1259.52C784.74 1261.91 787.706 1263.36 790.797 1263.83L791.34 1263.92C792.616 1264.11 793.94 1264.18 795.301 1264.13C798.239 1264.02 801.498 1263.36 805.172 1262.09C805.542 1261.98 805.887 1261.85 806.205 1261.73C818.049 1257.72 827.283 1249.28 836.923 1240.74L836.923 1240.74C844.486 1234.08 853.477 1226.15 865.267 1217.64C865.357 1217.57 865.447 1217.51 865.536 1217.44C866.052 1217.05 866.58 1216.63 867.019 1216.27C866.6 1219.35 867.134 1222.57 868.704 1225.46C868.779 1225.6 868.85 1225.72 868.914 1225.83C868.978 1225.94 869.037 1226.04 869.089 1226.13C869.192 1226.3 869.28 1226.44 869.34 1226.53C869.75 1227.19 870.209 1227.81 870.716 1228.4C874.337 1232.59 878.921 1233.87 881.749 1234.25C884.58 1234.64 887.111 1234.35 888.812 1234.05C892.255 1233.45 895.544 1232.23 897.739 1231.33C897.764 1231.32 897.789 1231.31 897.813 1231.3C911.087 1225.76 924.4 1214.41 936.643 1200.06C936.652 1200.05 936.661 1200.04 936.671 1200.03C944.593 1190.69 949.55 1180.24 950.704 1168.48C951.345 1161.96 947.68 1155.78 941.651 1153.22L807.102 1095.96L807.08 1095.95C799.262 1092.64 791.836 1088.78 784.791 1084.46C782.743 1083.19 780.813 1081.96 778.965 1080.72C763.765 1070.47 750.618 1058.03 739.756 1044C739.743 1043.99 739.731 1043.97 739.719 1043.95C737.441 1041.04 735.276 1038.02 733.18 1034.89C733.141 1034.83 733.089 1034.74 733.03 1034.65C732.97 1034.55 732.897 1034.44 732.815 1034.31C729.628 1029.43 723.904 1026.84 718.136 1027.67C710.955 1028.69 703.604 1029.84 696.141 1031.2L696.114 1031.21L694.179 1031.56C673.914 1035.24 647.609 1039.91 626.275 1040.63L626.07 1040.64C602.288 1041.77 575.632 1040.94 547.055 1027.83C545.017 1026.86 540.266 1024.6 535.844 1022.76L535.323 1022.56C529.916 1020.54 523.807 1021.81 519.642 1025.85ZM869.096 1226.12C869.087 1226.11 869.077 1226.09 869.067 1226.08C869.059 1226.06 869.053 1226.05 869.044 1226.03C869.061 1226.06 869.079 1226.09 869.096 1226.12ZM733.042 1034.69C733.051 1034.7 733.06 1034.72 733.068 1034.73C732.986 1034.61 732.902 1034.49 732.816 1034.37C732.905 1034.49 732.98 1034.6 733.042 1034.69Z" fill="#E9F6FB" stroke="black" stroke-width="30" stroke-linejoin="round"/>
<path d="M53.8641 555.722C49.5645 559.894 48.1605 566.225 50.2921 571.824C50.4806 572.319 50.6615 572.757 50.7849 573.052C50.9247 573.387 50.9801 573.517 51.0483 573.684L51.3563 574.433C54.6047 582.213 59.9918 591.076 66.7824 600.622C66.7901 600.632 66.7985 600.643 66.8063 600.654C78.006 616.309 92.0936 630.444 108.635 642.837L108.635 642.839C125.735 655.86 143.709 665.695 162.221 671.794L162.221 671.796C176.473 676.556 190.447 679.959 203.967 681.923C204.096 681.941 204.226 681.959 204.356 681.974C205.137 682.067 207.247 682.359 209.111 682.495C209.175 682.503 209.25 682.513 209.328 682.522C209.438 682.534 209.595 682.549 209.785 682.566C212.866 682.865 216.121 682.99 220.319 682.927C220.349 682.927 220.38 682.926 220.41 682.925C232.259 682.678 244.726 680.941 257.494 677.963C257.514 677.958 257.535 677.953 257.555 677.948C258.366 677.756 259.285 678.251 259.529 679.166C259.729 680.071 259.151 680.952 258.321 681.158L258.276 681.169C245.682 684.341 233.761 686.113 222.891 686.518C221.508 686.569 220.138 686.812 218.822 687.239C207.784 690.819 199.287 696.266 194.257 704.491C189.618 712.077 189.371 719.797 189.546 724.74L189.586 725.69L189.59 725.78C189.872 731.109 191.701 737.094 197.287 743.645C197.465 743.853 197.649 744.057 197.838 744.256C208.38 755.327 220.651 762.789 235.034 765.238C249.108 767.635 263.563 764.95 278.239 758.796C278.428 758.728 278.616 758.657 278.802 758.581C278.968 758.526 279.048 758.505 279.06 758.502L279.06 758.501C291.59 755.922 311.879 748.542 343.453 729.158C343.828 728.959 344.171 728.758 344.482 728.561C344.766 728.419 345.078 728.37 345.425 728.424C345.798 728.482 346.12 728.647 346.356 728.87L346.451 728.969L346.463 728.982C346.489 729.012 346.553 729.089 346.675 729.278C347.1 730.021 346.844 731.006 346.135 731.44L346.094 731.466C320.232 747.423 300.198 756.701 284.662 760.684L284.06 760.853C281.073 761.753 278.435 763.563 276.521 766.038C272.903 770.716 269.884 775.82 267.6 781.128L267.153 782.192L267.026 782.514C265.558 786.345 264.355 790.511 264.046 794.694C263.752 798.668 264.171 804.178 267.605 809.204L267.947 809.689L267.976 809.728C270.589 813.297 277.055 821.941 291.401 825.31C304.806 828.458 322.707 826.454 347.461 816.412C347.469 816.409 347.478 816.405 347.486 816.402C357.768 812.209 368.822 806.797 380.235 800.386C380.574 800.196 380.904 799.992 381.227 799.776C382.008 799.254 382.737 798.842 384.297 797.92L384.297 797.919C385.632 797.15 386.913 796.337 387.888 795.72L387.888 795.719C397.189 789.836 407.054 783.704 409.478 782.468C409.519 782.447 409.561 782.425 409.602 782.404C409.919 782.239 410.221 782.202 410.544 782.265C410.904 782.336 411.237 782.526 411.475 782.795C411.482 782.804 411.49 782.813 411.498 782.822C411.469 782.788 411.564 782.891 411.732 783.196C412.11 783.947 411.82 784.976 411.008 785.408L411.009 785.408C408.842 786.562 401.66 790.939 389.723 798.475L389.526 798.602C388.83 799.056 388.473 799.283 388.159 799.463C384.295 801.685 381.62 805.51 380.857 809.901C380.741 810.569 380.687 810.89 380.639 811.182L380.452 812.288L380.407 812.551C378.449 824.947 381.03 836.123 388.192 846.282C388.371 846.554 388.512 846.754 388.581 846.85C388.677 846.982 388.771 847.103 388.854 847.211C389.27 847.775 389.728 848.318 390.233 848.832L390.302 848.902C392.676 851.32 395.675 852.766 398.796 853.229C398.801 853.23 398.805 853.232 398.81 853.233C400.33 853.505 401.955 853.61 403.679 853.545C406.949 853.423 410.725 852.683 415.154 851.146C415.594 851.014 415.998 850.87 416.368 850.726C430.596 845.936 441.779 835.779 454.342 824.652L454.342 824.654C464.027 816.12 475.671 805.853 490.945 794.822C491.035 794.757 491.125 794.691 491.214 794.624C492.198 793.878 493.215 793.051 493.854 792.537C495.377 791.361 495.633 791.117 496.353 790.598C496.696 790.351 497.029 790.089 497.35 789.814C504.361 783.799 507.721 780.523 510.211 778.03L511.406 776.857C511.443 776.82 511.479 776.782 511.516 776.745L511.749 776.539C512.36 776.04 513.346 776.067 513.955 776.689L513.955 776.69C514.571 777.32 514.595 778.36 513.907 779.036L513.445 779.489L513.19 779.744C511.887 781.087 509.34 783.735 504.694 787.877L504.218 788.32C499.417 792.985 498.275 800.307 501.497 806.235C501.648 806.512 501.783 806.743 501.887 806.914C501.959 807.032 502.026 807.135 502.08 807.219C502.515 807.939 503.011 808.621 503.561 809.258C507.291 813.576 512.04 814.928 515.07 815.338C518.101 815.748 520.871 815.442 522.829 815.103C526.786 814.416 530.664 812.99 533.378 811.874C533.402 811.864 533.427 811.853 533.451 811.843C549.578 805.108 566.111 791.141 581.584 773.001C581.593 772.991 581.602 772.98 581.611 772.969C591.294 761.552 597.218 748.956 598.6 734.895C599.241 728.374 595.575 722.192 589.546 719.626L417.298 646.324L417.275 646.314C407.1 642.003 397.435 636.993 388.267 631.373C385.587 629.704 383.036 628.084 380.582 626.44C360.743 613.061 343.582 596.829 329.404 578.515C329.391 578.499 329.378 578.483 329.366 578.467C326.366 574.624 323.522 570.656 320.778 566.561C320.76 566.531 320.739 566.497 320.717 566.461C320.632 566.322 320.493 566.097 320.321 565.834C317.134 560.957 311.412 558.366 305.644 559.19C296.485 560.498 287.131 561.956 277.648 563.691L277.621 563.695L275.194 564.144C249.307 568.838 215.288 574.889 187.591 575.826L187.386 575.834C156.657 577.294 121.712 576.26 84.1984 559.019C81.5512 557.767 75.5927 554.932 70.067 552.636C64.5345 550.336 58.1639 551.55 53.8641 555.722ZM283.533 755.803C283.786 755.584 284.021 755.368 284.238 755.155C284.005 755.383 283.769 755.598 283.533 755.803ZM281.721 757.145C282.053 756.936 282.365 756.722 282.659 756.504C282.798 756.4 282.933 756.295 283.064 756.191C282.617 756.547 282.169 756.864 281.721 757.145Z" fill="#E9F6FB" stroke="black" stroke-width="30" stroke-linejoin="round"/>
<path d="M281.215 546.643C276.915 550.815 275.51 557.146 277.642 562.745C277.808 563.182 277.966 563.563 278.066 563.802C278.19 564.099 278.219 564.166 278.269 564.288C280.753 570.438 284.839 577.291 289.892 584.521L290.916 585.975L290.94 586.008C299.898 598.529 311.141 609.8 324.295 619.659L324.295 619.66C337.894 630.016 352.249 637.885 367.101 642.781L367.101 642.782C378.398 646.555 389.504 649.262 400.279 650.827C400.408 650.846 400.537 650.864 400.667 650.879C401.143 650.936 402.893 651.177 404.455 651.295C404.481 651.298 404.509 651.301 404.538 651.304C398.569 654.172 393.665 658.098 390.365 663.495C385.964 670.692 386.053 677.973 386.238 681.92C386.239 681.95 386.24 681.98 386.242 682.01C386.492 686.743 388.1 691.923 392.591 697.392L393.035 697.922L393.306 698.231C393.398 698.333 393.491 698.433 393.585 698.532C402.2 707.58 412.394 713.839 424.467 715.895C434.072 717.531 443.779 716.319 453.456 713.125C451.068 716.475 449.039 720.058 447.441 723.773L447.069 724.657L446.942 724.978C445.735 728.129 444.68 731.717 444.406 735.426C444.146 738.94 444.493 744.089 447.748 748.852L448.072 749.312L448.101 749.351C450.306 752.362 455.949 759.879 468.297 762.778C479.704 765.457 494.431 763.643 514.072 755.675C514.08 755.672 514.089 755.668 514.098 755.664C521.089 752.813 528.502 749.263 536.136 745.131C535.95 745.735 535.8 746.353 535.69 746.984C535.588 747.571 535.55 747.803 535.517 748.005L535.375 748.841L535.33 749.104C533.671 759.606 535.874 769.182 541.937 777.807C542.103 778.058 542.234 778.242 542.298 778.33C542.352 778.405 542.407 778.476 542.458 778.544C542.891 779.141 543.374 779.714 543.907 780.257L543.959 780.31C546.312 782.707 549.278 784.149 552.369 784.625L552.913 784.715C554.189 784.905 555.512 784.97 556.874 784.919C559.811 784.809 563.071 784.153 566.744 782.882C567.115 782.768 567.459 782.646 567.778 782.524C579.622 778.515 588.856 770.071 598.496 761.533L598.496 761.534C606.059 754.87 615.05 746.944 626.839 738.429C626.93 738.364 627.019 738.298 627.108 738.231C627.625 737.84 628.152 737.42 628.592 737.067C628.173 740.148 628.707 743.365 630.276 746.252C630.352 746.391 630.423 746.517 630.487 746.627C630.551 746.737 630.609 746.836 630.662 746.922C630.764 747.091 630.853 747.229 630.913 747.321C631.322 747.978 631.782 748.603 632.288 749.19C635.91 753.382 640.493 754.664 643.322 755.047C646.153 755.43 648.684 755.139 650.385 754.844C653.828 754.246 657.117 753.026 659.312 752.123C659.336 752.113 659.361 752.104 659.386 752.093C672.66 746.549 685.973 735.206 698.216 720.854C698.225 720.843 698.234 720.832 698.243 720.821C706.166 711.48 711.122 701.03 712.277 689.278C712.918 682.757 709.252 676.575 703.223 674.009L568.675 616.75L568.652 616.741C560.834 613.429 553.409 609.577 546.364 605.254C544.316 603.978 542.385 602.75 540.537 601.512C525.338 591.26 512.19 578.825 501.328 564.794C501.316 564.778 501.304 564.762 501.291 564.747C499.014 561.829 496.849 558.81 494.753 555.684C494.714 555.62 494.662 555.536 494.602 555.44C494.542 555.344 494.47 555.229 494.387 555.103C491.2 550.225 485.477 547.634 479.709 548.458C472.528 549.484 465.176 550.629 457.714 551.994L457.687 551.999L455.751 552.357C435.487 556.031 409.182 560.7 387.847 561.422L387.642 561.43C363.861 562.56 337.205 561.738 308.628 548.62C306.59 547.657 301.839 545.395 297.417 543.557L296.896 543.351C291.489 541.336 285.38 542.601 281.215 546.643ZM630.669 746.915C630.66 746.9 630.649 746.884 630.64 746.868C630.632 746.854 630.625 746.839 630.617 746.825C630.634 746.855 630.651 746.885 630.669 746.915ZM494.615 555.482C494.624 555.496 494.633 555.509 494.641 555.521C494.558 555.4 494.475 555.279 494.389 555.16C494.477 555.282 494.553 555.391 494.615 555.482Z" fill="#E9F6FB" stroke="black" stroke-width="30" stroke-linejoin="round"/>
<path d="M1597.12 -335.277C1602.88 -336.914 1609.06 -334.965 1612.85 -330.319C1613.18 -329.908 1613.47 -329.533 1613.66 -329.278C1613.88 -328.99 1613.97 -328.877 1614.08 -328.734L1614.57 -328.093C1619.69 -321.39 1624.67 -312.293 1629.54 -301.639C1629.55 -301.627 1629.55 -301.614 1629.56 -301.602C1637.52 -284.075 1642.71 -264.808 1645.18 -244.286L1645.18 -244.285C1647.9 -222.966 1647.43 -202.483 1643.46 -183.401L1643.46 -183.4C1640.46 -168.677 1636.42 -154.874 1631.36 -142.183C1631.31 -142.062 1631.26 -141.941 1631.21 -141.821C1630.9 -141.098 1630.1 -139.125 1629.28 -137.442C1629.26 -137.383 1629.23 -137.313 1629.2 -137.241C1629.15 -137.14 1629.09 -136.996 1629.01 -136.823C1627.72 -134.005 1626.21 -131.124 1624.05 -127.52C1624.04 -127.494 1624.02 -127.468 1624.01 -127.442C1617.87 -117.304 1610.13 -107.376 1601.17 -97.8073C1601.15 -97.7922 1601.14 -97.777 1601.12 -97.7619C1600.55 -97.1558 1600.52 -96.1129 1601.19 -95.4434C1601.87 -94.8177 1602.93 -94.8778 1603.52 -95.4937L1603.55 -95.527C1612.6 -104.848 1620.09 -114.286 1625.88 -123.497C1626.61 -124.669 1627.51 -125.734 1628.54 -126.66C1637.15 -134.429 1646.12 -139.065 1655.76 -139.308C1664.65 -139.533 1671.46 -135.887 1675.65 -133.264L1676.45 -132.754L1676.53 -132.705C1681 -129.796 1685.27 -125.22 1688.15 -117.107C1688.24 -116.849 1688.33 -116.588 1688.4 -116.325C1692.72 -101.659 1693.05 -87.302 1687.98 -73.6206C1683.02 -60.2339 1673.46 -49.0577 1660.8 -39.4256C1660.64 -39.2961 1660.49 -39.1689 1660.33 -39.0452C1660.2 -38.9292 1660.14 -38.8698 1660.13 -38.8607L1660.13 -38.8614C1651.63 -29.3 1635.1 -15.4193 1602.52 2.23274C1602.16 2.45763 1601.82 2.65497 1601.49 2.82542C1601.23 2.99986 1601.03 3.24549 1600.9 3.57315C1600.76 3.92552 1600.75 4.28646 1600.82 4.60255L1600.86 4.73495L1600.87 4.75163C1600.88 4.78871 1600.91 4.88231 1601.01 5.08298C1601.45 5.82264 1602.43 6.09348 1603.16 5.69668L1603.2 5.67378C1629.95 -8.74492 1648 -21.4551 1659.22 -32.9184L1659.67 -33.3559C1661.94 -35.4926 1664.83 -36.872 1667.93 -37.2922C1673.79 -38.086 1679.72 -38.149 1685.46 -37.4732L1686.6 -37.3282L1686.94 -37.2774C1690.99 -36.6327 1695.2 -35.5916 1698.98 -33.7679C1702.57 -32.0354 1707.13 -28.9176 1709.77 -23.4308L1710.02 -22.8919L1710.04 -22.8476C1711.82 -18.7999 1716.07 -8.8781 1711.82 5.22976C1707.84 18.4136 1697.16 32.9142 1676.08 49.3304C1676.08 49.336 1676.07 49.3419 1676.06 49.3475C1667.29 56.1549 1657.08 63.0227 1645.82 69.7009C1645.48 69.8989 1645.14 70.0835 1644.79 70.255C1643.95 70.6702 1643.23 71.0959 1641.65 71.9858L1641.65 71.9851C1640.32 72.7565 1638.97 73.4597 1637.95 73.9952L1637.95 73.9946C1628.2 79.108 1617.96 84.5854 1615.68 86.0668C1615.64 86.0922 1615.6 86.1172 1615.56 86.1422C1615.26 86.3339 1615.08 86.5778 1614.97 86.8892C1614.85 87.236 1614.85 87.6192 1614.96 87.9594C1614.97 87.9707 1614.97 87.9823 1614.97 87.9937C1614.96 87.951 1615 88.0855 1615.18 88.383C1615.64 89.0858 1616.68 89.349 1617.46 88.8622L1617.46 88.8631C1619.54 87.5629 1626.92 83.5319 1639.42 76.9624L1639.63 76.8549C1640.37 76.4797 1640.74 76.2833 1641.06 76.1018C1644.91 73.8665 1649.56 73.4619 1653.75 74.9969C1654.38 75.2306 1654.69 75.3446 1654.96 75.449L1656.02 75.8397L1656.27 75.9325C1667.98 80.4348 1676.37 88.2579 1681.58 99.5399C1681.73 99.8308 1681.83 100.053 1681.88 100.161C1681.95 100.31 1682.01 100.452 1682.06 100.578C1682.34 101.22 1682.58 101.888 1682.77 102.583L1682.8 102.677C1683.71 105.942 1683.46 109.262 1682.3 112.196C1682.3 112.201 1682.3 112.206 1682.3 112.211C1681.77 113.663 1681.05 115.123 1680.13 116.583C1678.39 119.355 1675.86 122.254 1672.32 125.322C1671.98 125.637 1671.66 125.914 1671.35 126.162C1660.08 136.089 1645.7 140.696 1629.78 146.012L1629.78 146.013C1617.55 150.134 1602.83 155.085 1585.64 162.796C1585.54 162.842 1585.44 162.887 1585.34 162.93C1584.2 163.41 1582.97 163.877 1582.21 164.173C1580.43 164.904 1580.09 165.004 1579.28 165.368C1578.9 165.541 1578.5 165.699 1578.1 165.839C1569.39 168.903 1564.87 170.175 1561.47 171.085L1559.85 171.533C1559.8 171.547 1559.75 171.559 1559.7 171.573L1559.41 171.672C1558.67 171.952 1558.2 172.818 1558.43 173.657L1558.44 173.658C1558.67 174.507 1559.56 175.047 1560.49 174.789L1561.11 174.615L1561.46 174.523C1563.28 174.065 1566.84 173.183 1572.75 171.231L1573.38 171.04C1579.82 169.215 1586.73 171.887 1590.25 177.642C1590.42 177.91 1590.55 178.143 1590.64 178.319C1590.71 178.44 1590.77 178.549 1590.81 178.638C1591.22 179.375 1591.56 180.145 1591.84 180.94C1593.71 186.33 1592.51 191.118 1591.35 193.947C1590.19 196.778 1588.54 199.023 1587.26 200.549C1584.69 203.632 1581.52 206.279 1579.19 208.07C1579.17 208.087 1579.15 208.102 1579.13 208.118C1565.23 218.717 1544.87 226.051 1521.43 230.382C1521.41 230.384 1521.4 230.387 1521.38 230.389C1506.66 233.066 1492.79 231.899 1479.92 226.065C1473.95 223.36 1470.43 217.094 1471.22 210.589L1493.86 24.7674L1493.87 24.7425C1495.22 13.7747 1495.71 2.89964 1495.43 -7.8499C1495.33 -11.0048 1495.2 -14.0247 1495 -16.9712C1493.33 -40.8425 1487.86 -63.8203 1479.09 -85.2558C1479.08 -85.2744 1479.07 -85.2937 1479.06 -85.3123C1477.24 -89.832 1475.22 -94.2791 1473.05 -98.703C1473.03 -98.7337 1473.01 -98.769 1472.99 -98.806C1472.91 -98.9488 1472.79 -99.1822 1472.65 -99.4621C1470.01 -104.661 1470.63 -110.912 1474.23 -115.495C1479.94 -122.772 1485.88 -130.145 1492.13 -137.49L1492.14 -137.511L1493.75 -139.388C1510.75 -159.46 1533 -185.896 1547.66 -209.414L1547.77 -209.587C1564.4 -235.469 1580.98 -266.249 1584.81 -307.358C1585.04 -310.276 1585.57 -316.854 1586.34 -322.788C1587.12 -328.729 1591.35 -333.639 1597.12 -335.277ZM1655.56 -36.3369C1655.24 -36.2271 1654.94 -36.1319 1654.64 -36.0508C1654.96 -36.138 1655.26 -36.2346 1655.56 -36.3369ZM1657.63 -37.235C1657.28 -37.0526 1656.94 -36.889 1656.6 -36.7437C1656.44 -36.6746 1656.28 -36.6106 1656.13 -36.5494C1656.66 -36.7581 1657.16 -36.9883 1657.63 -37.235Z" fill="#E9F6FB" stroke="black" stroke-width="30" stroke-linejoin="round"/>
<path d="M1475.58 -142.927C1481.34 -144.565 1487.53 -142.615 1491.31 -137.97C1491.61 -137.607 1491.86 -137.28 1492.01 -137.074C1492.21 -136.818 1492.25 -136.76 1492.33 -136.656C1496.42 -131.429 1500.31 -124.464 1504.04 -116.473L1504.79 -114.859L1504.81 -114.822C1511.17 -100.803 1515.31 -85.4315 1517.27 -69.1099L1517.27 -69.1092C1519.44 -52.1548 1519.08 -35.7879 1515.89 -20.4778L1515.89 -20.4771C1513.51 -8.8073 1510.31 2.16417 1506.27 12.2781C1506.22 12.3991 1506.18 12.5201 1506.12 12.6398C1505.94 13.0803 1505.27 14.7169 1504.59 16.1281C1504.58 16.1528 1504.57 16.1788 1504.56 16.2052C1510.02 12.47 1515.88 10.1859 1522.2 10.0262C1530.63 9.81333 1536.89 13.5307 1540.22 15.6642C1540.25 15.6805 1540.27 15.6965 1540.3 15.7129C1544.27 18.2962 1547.95 22.2785 1550.44 28.9028L1550.68 29.5525L1550.81 29.9414C1550.85 30.0715 1550.9 30.2022 1550.93 30.3334C1554.46 42.3182 1554.79 54.2758 1550.53 65.7593C1547.14 74.8959 1541.24 82.6963 1533.64 89.4795C1537.73 89.0864 1541.85 89.1213 1545.87 89.5942L1546.82 89.714L1547.16 89.765C1550.49 90.2952 1554.13 91.1752 1557.47 92.7922C1560.65 94.3244 1564.93 97.1988 1567.43 102.4L1567.67 102.91L1567.69 102.955C1569.19 106.37 1572.88 115.016 1569.22 127.159C1565.83 138.378 1556.9 150.224 1540.18 163.249C1540.17 163.255 1540.16 163.261 1540.16 163.267C1534.19 167.895 1527.41 172.54 1520.01 177.086C1520.63 177.226 1521.24 177.405 1521.84 177.626C1522.4 177.831 1522.62 177.914 1522.81 177.987L1523.61 178.281L1523.86 178.374C1533.78 182.189 1540.97 188.884 1545.41 198.448C1545.55 198.717 1545.64 198.922 1545.68 199.021C1545.72 199.106 1545.76 199.189 1545.79 199.267C1546.09 199.941 1546.34 200.646 1546.55 201.378L1546.57 201.451C1547.47 204.687 1547.23 207.976 1546.1 210.891L1545.91 211.406C1545.43 212.607 1544.83 213.786 1544.1 214.939C1542.54 217.428 1540.34 219.922 1537.4 222.469C1537.12 222.733 1536.84 222.97 1536.58 223.185C1527.18 231.437 1515.25 235.212 1503.04 239.291L1503.04 239.292C1493.49 242.51 1482.13 246.334 1468.86 252.286C1468.76 252.332 1468.65 252.377 1468.55 252.42C1467.96 252.672 1467.33 252.918 1466.8 253.123C1469.68 254.3 1472.2 256.371 1473.91 259.174C1474 259.309 1474.07 259.434 1474.13 259.544C1474.2 259.654 1474.25 259.755 1474.3 259.843C1474.4 260.016 1474.47 260.162 1474.52 260.26C1474.89 260.943 1475.2 261.653 1475.45 262.385C1477.27 267.618 1476.09 272.228 1475.01 274.869C1473.92 277.512 1472.41 279.559 1471.3 280.884C1469.06 283.567 1466.36 285.806 1464.48 287.255C1464.46 287.271 1464.44 287.288 1464.42 287.304C1452.98 296.028 1436.5 301.886 1417.95 305.312C1417.94 305.315 1417.92 305.317 1417.91 305.32C1405.86 307.51 1394.33 306.578 1383.57 301.702C1377.61 298.996 1374.08 292.731 1374.88 286.227L1392.56 141.075L1392.57 141.051C1393.61 132.624 1393.98 124.267 1393.76 116.005C1393.68 113.593 1393.58 111.307 1393.44 109.088C1392.16 90.7984 1387.96 73.195 1381.24 56.7728C1381.23 56.7543 1381.23 56.7357 1381.22 56.7172C1379.83 53.286 1378.3 49.9011 1376.64 46.5232C1376.6 46.4571 1376.56 46.3706 1376.5 46.2711C1376.45 46.171 1376.39 46.0511 1376.32 45.916C1373.69 40.7171 1374.31 34.4651 1377.9 29.8818C1382.38 24.1757 1387.05 18.3818 1391.96 12.6018L1391.98 12.5808L1393.26 11.0835C1406.57 -4.62918 1423.77 -25.0753 1435.06 -43.1907L1435.17 -43.3641C1448.04 -63.3944 1460.66 -86.8901 1463.58 -118.198C1463.77 -120.444 1464.19 -125.69 1464.81 -130.438L1464.89 -130.992C1465.85 -136.683 1470 -141.34 1475.58 -142.927ZM1474.29 259.845C1474.28 259.83 1474.28 259.813 1474.27 259.797C1474.26 259.783 1474.25 259.77 1474.24 259.756C1474.26 259.786 1474.28 259.815 1474.29 259.845ZM1376.53 46.3032C1376.54 46.3175 1376.55 46.3314 1376.55 46.3451C1376.49 46.2128 1376.43 46.0801 1376.37 45.946C1376.43 46.0836 1376.49 46.2036 1376.53 46.3032Z" fill="#E9F6FB" stroke="black" stroke-width="30" stroke-linejoin="round"/>
<path d="M730.47 521.475C799.951 676.846 957.557 772.447 1050 810.655C1068.46 818.285 1089.23 815.937 1106.53 805.95L1196.89 753.776L1287.26 701.602C1304.56 691.615 1316.98 674.802 1319.6 655.001C1332.73 555.84 1328.74 371.549 1228.93 233.691C1221.41 223.316 1214.07 213.997 1206.88 205.664C1159.82 217.161 1057 267.121 994.871 306.124L952.549 330.559L910.227 354.993C845.387 389.293 750.709 453.361 717.221 488.37C720.845 498.758 725.241 509.782 730.47 521.475Z" fill="white"/>
<path d="M657.473 541.671L632.337 568.722C618.7 587.857 606.469 606.837 596.29 625.721C532.789 743.528 549.129 857.578 801.891 981.831L884.748 933.994C932.968 906.154 931.306 834.869 885.627 803.031C743.261 703.803 680.44 594.674 657.473 541.671Z" fill="white"/>
<path d="M1318.91 172.328L1282.92 180.571C1317.33 226.963 1380.43 335.932 1395.18 508.839C1399.92 564.316 1460.82 601.398 1509.04 573.559L1591.9 525.721C1610.67 244.696 1520.07 173.52 1386.3 169.611C1364.85 168.984 1342.3 170.085 1318.91 172.328Z" fill="white"/>
<path d="M657.473 541.671L632.337 568.722M801.891 981.831L884.748 933.994C932.968 906.154 931.306 834.868 885.627 803.031C743.261 703.803 680.44 594.674 657.473 541.671C657.473 541.671 538.211 278.818 776.261 264.133M632.337 568.722C400.669 430.114 188.73 817.902 734.985 1067.41C748.63 1073.65 760.604 1084.1 768.104 1097.09C795.99 1145.4 815.916 1179.91 830.134 1204.54C849.46 1238.01 892.231 1249.43 925.703 1230.11L1335.35 993.596L1745 757.084C1778.48 737.758 1789.97 695.006 1770.64 661.533C1756.42 636.906 1736.5 602.394 1708.61 554.092C1701.11 541.101 1698.04 525.503 1699.47 510.571C1756.51 -87.2566 1314.71 -97.6058 1318.91 172.328M632.337 568.722C618.7 587.857 606.469 606.837 596.29 625.721M1591.9 525.721L1509.04 573.559C1460.82 601.398 1399.92 564.316 1395.18 508.839C1380.43 335.932 1317.33 226.963 1282.92 180.571C1282.92 180.571 1114.91 -54.1388 983.167 144.675C969.818 164.821 956.84 189.419 944.448 219.163C930.588 252.43 895.868 272.476 860.128 267.845C828.173 263.705 800.382 262.645 776.261 264.133M776.261 264.133C758.215 229.257 741.874 148.102 820.874 102.491C899.875 56.8802 961.986 111.609 983.167 144.675M801.891 981.831L778.858 995.129C760.695 1005.62 738.66 1007.65 719.538 999.036C578.206 935.357 497.093 824.117 474.312 772.821C454.944 733.844 430.586 648.216 478.696 622.947C507.562 607.786 542.891 602.734 596.29 625.721M801.891 981.831C549.129 857.578 532.789 743.528 596.29 625.721M717.221 488.37C750.709 453.361 845.387 389.293 910.227 354.993L952.549 330.559L994.871 306.124C1057 267.121 1159.82 217.161 1206.88 205.664M910.227 354.993C827.556 319.679 653.657 306.172 717.221 488.37M717.221 488.37C720.845 498.758 725.241 509.782 730.47 521.475C799.951 676.846 957.557 772.447 1050 810.655C1068.46 818.285 1089.23 815.937 1106.53 805.95L1196.89 753.776L1287.26 701.602C1304.56 691.615 1316.98 674.802 1319.6 655.001C1332.73 555.84 1328.74 371.549 1228.93 233.691C1221.41 223.316 1214.07 213.997 1206.88 205.664M1282.92 180.571L1318.91 172.328M1318.91 172.328C1342.3 170.085 1364.85 168.984 1386.3 169.611M1591.9 525.721L1614.93 512.423C1633.09 501.937 1645.87 483.872 1647.97 463.004C1663.49 308.768 1607.71 182.901 1574.68 137.524C1550.61 101.262 1488.63 37.3538 1442.69 66.3842C1415.13 83.8024 1393.09 111.872 1386.3 169.611M1591.9 525.721C1610.67 244.696 1520.07 173.52 1386.3 169.611M994.871 306.124C1005.62 216.872 1080.88 59.5174 1206.88 205.664M814.569 25.7743C821.981 0.211882 806.947 -26.4514 781.239 -33.3399C755.897 -40.1302 729.849 -25.0912 723.059 0.250631C716.17 25.9589 731.744 52.3099 757.588 58.6724C782.331 64.764 807.473 50.2482 814.569 25.7743Z" stroke="black" stroke-width="30.004"/>
<path fill-rule="evenodd" clip-rule="evenodd" d="M632.337 568.722C400.669 430.114 188.73 817.902 734.985 1067.41C748.63 1073.65 760.604 1084.1 768.104 1097.09C795.99 1145.4 815.916 1179.91 830.134 1204.54C849.46 1238.01 892.231 1249.43 925.703 1230.11L1335.35 993.596L1745 757.084C1778.48 737.758 1789.97 695.006 1770.64 661.533C1756.42 636.906 1736.5 602.394 1708.61 554.091C1701.11 541.101 1698.04 525.503 1699.47 510.57C1756.51 -87.2567 1314.71 -97.6059 1318.91 172.328C1342.3 170.085 1364.85 168.984 1386.3 169.61C1393.09 111.872 1415.13 83.8024 1442.69 66.3842C1488.63 37.3538 1550.61 101.262 1574.68 137.524C1607.71 182.901 1663.49 308.767 1647.97 463.004C1645.87 483.872 1633.09 501.937 1614.93 512.423L1591.9 525.721L1509.04 573.559C1460.82 601.398 1399.92 564.316 1395.18 508.838C1380.43 335.932 1317.33 226.963 1282.92 180.571C1282.92 180.571 1114.91 -54.1388 983.167 144.675C969.817 164.821 956.84 189.419 944.448 219.163C930.588 252.43 895.868 272.476 860.128 267.845C828.173 263.705 800.382 262.645 776.261 264.133C538.211 278.818 657.473 541.671 657.473 541.671C680.44 594.674 743.261 703.803 885.627 803.031C931.306 834.868 932.968 906.154 884.748 933.993L801.891 981.831L778.858 995.129C760.695 1005.62 738.66 1007.65 719.538 999.036C578.206 935.357 497.093 824.117 474.312 772.821C454.944 733.844 430.586 648.216 478.696 622.947C507.562 607.786 542.891 602.734 596.29 625.721C606.469 606.837 618.7 587.856 632.337 568.722ZM1106.53 805.95C1089.23 815.937 1068.46 818.285 1050 810.655C957.557 772.447 799.951 676.846 730.47 521.475C725.241 509.782 720.845 498.758 717.221 488.37C653.658 306.172 827.556 319.679 910.227 354.993L952.549 330.558L994.871 306.124C1005.62 216.872 1080.88 59.5174 1206.88 205.664C1214.07 213.997 1221.41 223.316 1228.93 233.691C1328.74 371.549 1332.73 555.84 1319.6 655.001C1316.98 674.802 1304.56 691.615 1287.26 701.602L1196.89 753.776L1106.53 805.95Z" fill="#5BC8FB"/>
<path d="M776.261 264.133C800.382 262.645 828.173 263.705 860.128 267.845C895.868 272.476 930.588 252.43 944.448 219.163C956.84 189.419 969.817 164.821 983.167 144.675C961.986 111.609 899.875 56.8802 820.874 102.491C741.874 148.102 758.215 229.257 776.261 264.133Z" fill="#5BC8FB"/>
<path d="M801.87 69.5743L710.51 47.0821L735.354 -45.6349L828.071 -20.7915L801.87 69.5743Z" fill="#F35B5B"/>
<path d="M657.473 541.671L632.337 568.722M801.891 981.831L884.748 933.993C932.968 906.154 931.306 834.868 885.627 803.031C743.261 703.803 680.44 594.674 657.473 541.671C657.473 541.671 538.211 278.818 776.261 264.133C800.382 262.645 828.173 263.705 860.128 267.845C895.868 272.476 930.588 252.43 944.448 219.163C956.84 189.419 969.817 164.821 983.167 144.675C1114.91 -54.1388 1282.92 180.571 1282.92 180.571C1317.33 226.963 1380.43 335.932 1395.18 508.838C1399.92 564.316 1460.82 601.398 1509.04 573.559L1591.9 525.721M632.337 568.722C400.669 430.114 188.73 817.902 734.985 1067.41C748.63 1073.65 760.604 1084.1 768.104 1097.09C795.99 1145.4 815.916 1179.91 830.134 1204.54C849.46 1238.01 892.231 1249.43 925.703 1230.11L1335.35 993.596L1745 757.084C1778.48 737.758 1789.97 695.006 1770.64 661.533C1756.42 636.906 1736.5 602.394 1708.61 554.091C1701.11 541.101 1698.04 525.503 1699.47 510.57C1756.51 -87.2567 1314.71 -97.6059 1318.91 172.328M632.337 568.722C618.7 587.856 606.469 606.837 596.29 625.721M776.261 264.133C758.215 229.257 741.874 148.102 820.874 102.491C899.875 56.8802 961.986 111.609 983.167 144.675M801.891 981.831L778.858 995.129C760.695 1005.62 738.66 1007.65 719.538 999.036C578.206 935.357 497.093 824.117 474.312 772.821C454.944 733.844 430.586 648.216 478.696 622.947C507.562 607.786 542.891 602.734 596.29 625.721M801.891 981.831C549.129 857.578 532.789 743.528 596.29 625.721M717.221 488.37C750.709 453.361 845.387 389.293 910.227 354.993L952.549 330.558L994.871 306.124C1057 267.121 1159.82 217.161 1206.88 205.664M910.227 354.993C827.556 319.679 653.657 306.172 717.221 488.37M717.221 488.37C720.845 498.758 725.241 509.782 730.47 521.475C799.951 676.846 957.557 772.447 1050 810.655C1068.46 818.285 1089.23 815.937 1106.53 805.95L1196.89 753.776L1287.26 701.602C1304.56 691.615 1316.98 674.802 1319.6 655.001C1332.73 555.84 1328.74 371.549 1228.93 233.691C1221.41 223.316 1214.07 213.997 1206.88 205.664M1282.92 180.571L1318.91 172.328M1318.91 172.328C1342.3 170.085 1364.85 168.984 1386.3 169.61M1591.9 525.721L1614.93 512.423C1633.09 501.937 1645.87 483.872 1647.97 463.004C1663.49 308.768 1607.71 182.901 1574.68 137.524C1550.61 101.262 1488.63 37.3538 1442.69 66.3842C1415.13 83.8024 1393.09 111.872 1386.3 169.61M1591.9 525.721C1610.67 244.696 1520.07 173.52 1386.3 169.61M994.871 306.124C1005.62 216.872 1080.88 59.5174 1206.88 205.664M801.87 69.5743L710.51 47.0821L735.354 -45.6349L828.071 -20.7915L801.87 69.5743Z" stroke="black" stroke-width="30.004"/>
<path d="M1120.38 465.21L1096.76 457.103L984.177 522.101L983.174 550.737L1148.82 687.414C1153.14 688.84 1157.14 690.11 1160.77 691.206L1120.38 465.21Z" fill="#88E6F5"/>
<path d="M1160.77 691.206C1174.33 633.34 1196.32 475.706 1191.48 409.914C1188.1 407.562 1183.54 404.771 1178.16 401.715L1120.38 465.21L1160.77 691.206Z" fill="#88E6F5"/>
<path fill-rule="evenodd" clip-rule="evenodd" d="M988.003 391.967C968.885 402.441 931.875 427.623 912.805 450.801C906.608 471.476 900.619 538.73 901.434 569.872C901.505 572.594 901.629 575.039 901.808 577.154C952.883 611.88 1085.43 666.485 1148.82 687.414L983.174 550.737L984.177 522.101L1096.76 457.103L1076.55 356.261C1046.95 361.186 1006.63 380.648 988.003 391.967Z" fill="#88E6F5"/>
<path d="M1148.82 687.414C1085.43 666.485 952.883 611.88 901.808 577.154C901.629 575.039 901.505 572.594 901.434 569.872C900.619 538.73 906.608 471.476 912.805 450.801C931.875 427.623 968.885 402.441 988.003 391.967C1006.63 380.648 1046.95 361.186 1076.55 356.261C1095.83 360.823 1149.01 385.161 1178.16 401.715C1183.54 404.771 1188.1 407.562 1191.48 409.914C1196.32 475.706 1174.33 633.34 1160.77 691.206C1157.14 690.11 1153.14 688.84 1148.82 687.414ZM912.805 450.801L984.177 522.101M1160.77 691.206L1120.38 465.21M1076.55 356.261L1096.76 457.103M1096.76 457.103L1120.38 465.21M1096.76 457.103L984.177 522.101M1120.38 465.21L1178.16 401.715M984.177 522.101L983.174 550.737M983.174 550.737L901.434 569.872M983.174 550.737L1148.82 687.414" stroke="black" stroke-width="30" stroke-linecap="round" stroke-linejoin="round"/>
<path d="M1096.76 457.112L1076.56 356.27C1055.25 359.815 1028.4 370.887 1008.08 381.035L1083.66 464.675L1096.76 457.112Z" fill="#5FD8F0"/>
<path d="M1076.55 356.261L1096.76 457.103L1120.38 465.21L1178.16 401.715C1149.01 385.161 1095.83 360.823 1076.55 356.261Z" fill="#5FD8F0"/>
<path d="M1120.38 465.21L1096.76 457.103L984.177 522.101L983.174 550.737L1148.82 687.414C1153.14 688.84 1157.14 690.11 1160.77 691.206L1120.38 465.21Z" fill="#5FD8F0"/>
<path d="M1160.77 691.206C1174.33 633.34 1196.32 475.706 1191.48 409.914C1188.1 407.562 1183.54 404.771 1178.16 401.715L1120.38 465.21L1160.77 691.206Z" fill="#5FD8F0"/>
<path d="M1148.82 687.414C1085.43 666.485 952.883 611.88 901.808 577.154C901.629 575.039 901.505 572.594 901.434 569.872C900.619 538.73 906.608 471.476 912.805 450.801C931.875 427.623 968.885 402.441 988.003 391.967C1006.63 380.648 1046.95 361.186 1076.55 356.261C1095.83 360.823 1149.01 385.161 1178.16 401.715C1183.54 404.771 1188.1 407.562 1191.48 409.914C1196.32 475.706 1174.33 633.34 1160.77 691.206C1157.14 690.11 1153.14 688.84 1148.82 687.414ZM912.805 450.801L984.177 522.101M1160.77 691.206L1120.38 465.21M1076.55 356.261L1096.76 457.103M1096.76 457.103L1120.38 465.21M1096.76 457.103L984.177 522.101M1120.38 465.21L1178.16 401.715M984.177 522.101L983.174 550.737M983.174 550.737L901.434 569.872M983.174 550.737L1148.82 687.414" stroke="black" stroke-width="30" stroke-linecap="round" stroke-linejoin="round"/>
<path d="M1120.38 465.21L1096.76 457.103L984.177 522.101L983.174 550.737L1148.82 687.414C1153.14 688.84 1157.14 690.11 1160.77 691.206L1120.38 465.21Z" fill="#88E6F5"/>
<path d="M1160.77 691.206C1174.33 633.34 1196.32 475.706 1191.48 409.914C1188.1 407.562 1183.54 404.771 1178.16 401.715L1120.38 465.21L1160.77 691.206Z" fill="#88E6F5"/>
<path fill-rule="evenodd" clip-rule="evenodd" d="M988.003 391.967C968.885 402.441 931.875 427.623 912.805 450.801C906.608 471.476 900.619 538.73 901.434 569.872C901.505 572.594 901.629 575.039 901.808 577.154C952.883 611.88 1085.43 666.485 1148.82 687.414L983.174 550.737L984.177 522.101L1096.76 457.103L1076.55 356.261C1046.95 361.186 1006.63 380.648 988.003 391.967Z" fill="#88E6F5"/>
<path d="M1148.82 687.414C1085.43 666.485 952.883 611.88 901.808 577.154C901.629 575.039 901.505 572.594 901.434 569.872C900.619 538.73 906.608 471.476 912.805 450.801C931.875 427.623 968.885 402.441 988.003 391.967C1006.63 380.648 1046.95 361.186 1076.55 356.261C1095.83 360.823 1149.01 385.161 1178.16 401.715C1183.54 404.771 1188.1 407.562 1191.48 409.914C1196.32 475.706 1174.33 633.34 1160.77 691.206C1157.14 690.11 1153.14 688.84 1148.82 687.414ZM912.805 450.801L984.177 522.101M1160.77 691.206L1120.38 465.21M1076.55 356.261L1096.76 457.103M1096.76 457.103L1120.38 465.21M1096.76 457.103L984.177 522.101M1120.38 465.21L1178.16 401.715M984.177 522.101L983.174 550.737M983.174 550.737L901.434 569.872M983.174 550.737L1148.82 687.414" stroke="black" stroke-width="30" stroke-linecap="round" stroke-linejoin="round"/>
<path d="M1096.76 457.112L1076.56 356.27C1055.25 359.815 1028.4 370.887 1008.08 381.035L1083.66 464.675L1096.76 457.112Z" fill="#5FD8F0"/>
<path d="M1076.55 356.261L1096.76 457.103L1120.38 465.21L1178.16 401.715C1149.01 385.161 1095.83 360.823 1076.55 356.261Z" fill="#5FD8F0"/>
<path d="M1120.38 465.21L1096.76 457.103L984.177 522.101L983.174 550.737L1148.82 687.414C1153.14 688.84 1157.14 690.11 1160.77 691.206L1120.38 465.21Z" fill="#5FD8F0"/>
<path d="M1160.77 691.206C1174.33 633.34 1196.32 475.706 1191.48 409.914C1188.1 407.562 1183.54 404.771 1178.16 401.715L1120.38 465.21L1160.77 691.206Z" fill="#5FD8F0"/>
<path d="M1148.82 687.414C1085.43 666.485 952.883 611.88 901.808 577.154C901.629 575.039 901.505 572.594 901.434 569.872C900.619 538.73 906.608 471.476 912.805 450.801C931.875 427.623 968.885 402.441 988.003 391.967C1006.63 380.648 1046.95 361.186 1076.55 356.261C1095.83 360.823 1149.01 385.161 1178.16 401.715C1183.54 404.771 1188.1 407.562 1191.48 409.914C1196.32 475.706 1174.33 633.34 1160.77 691.206C1157.14 690.11 1153.14 688.84 1148.82 687.414ZM912.805 450.801L984.177 522.101M1160.77 691.206L1120.38 465.21M1076.55 356.261L1096.76 457.103M1096.76 457.103L1120.38 465.21M1096.76 457.103L984.177 522.101M1120.38 465.21L1178.16 401.715M984.177 522.101L983.174 550.737M983.174 550.737L901.434 569.872M983.174 550.737L1148.82 687.414" stroke="black" stroke-width="30" stroke-linecap="round" stroke-linejoin="round"/>
<path d="M1007.11 1095.17C1004.67 1106.85 992.616 1113.81 981.284 1110.08L936.147 1095.24C926.62 1092.11 920.886 1082.41 922.737 1072.55L931.715 1024.76C933.978 1012.72 946.44 1005.52 958.002 1009.58L1003.88 1025.7C1013.34 1029.03 1018.87 1038.85 1016.82 1048.66L1007.11 1095.17Z" fill="#5BC8FB"/>
<path d="M1007.11 1095.17C1004.67 1106.85 992.616 1113.81 981.284 1110.08L936.147 1095.24C926.62 1092.11 920.886 1082.41 922.737 1072.55L931.715 1024.76C933.978 1012.72 946.44 1005.52 958.002 1009.58L1003.88 1025.7C1013.34 1029.03 1018.87 1038.85 1016.82 1048.66L1007.11 1095.17Z" stroke="black" stroke-width="30.004"/>
<path d="M1305.61 942.086L1163.61 948.831L1239.1 826.877L1382.46 822.483L1305.61 942.086Z" fill="#55E748" stroke="black" stroke-width="30.004"/>
<path d="M1613.27 745.208C1610.83 756.884 1598.78 763.843 1587.44 760.117L1542.31 745.277C1532.78 742.144 1527.05 732.44 1528.9 722.584L1537.88 674.796C1540.14 662.752 1552.6 655.557 1564.16 659.619L1610.04 675.738C1619.5 679.063 1625.04 688.881 1622.98 698.697L1613.27 745.208Z" fill="#5BC8FB"/>
<path d="M1613.27 745.208C1610.83 756.884 1598.78 763.843 1587.44 760.117L1542.31 745.277C1532.78 742.144 1527.05 732.44 1528.9 722.584L1537.88 674.796C1540.14 662.752 1552.6 655.557 1564.16 659.619L1610.04 675.738C1619.5 679.063 1625.04 688.881 1622.98 698.697L1613.27 745.208Z" stroke="black" stroke-width="30.004"/>
</g>
<defs>
<clipPath id="clip0_4368_3920">
<rect width="3000" height="3000" fill="white" transform="translate(0 8.055) rotate(-0.153839)"/>
</clipPath>
</defs>
</svg>
