<svg width="3009" height="3009" viewBox="0 0 3009 3009" fill="none" xmlns="http://www.w3.org/2000/svg">
<g clip-path="url(#clip0_4368_3916)">
<path d="M1055.28 -276.081C1058.2 -281.314 1063.95 -284.309 1069.91 -283.7C1070.44 -283.646 1070.91 -283.584 1071.23 -283.541C1071.59 -283.493 1071.73 -283.473 1071.91 -283.45L1072.71 -283.347C1081.06 -282.223 1091.02 -279.313 1102 -275.224C1102.01 -275.22 1102.02 -275.214 1102.03 -275.21C1120.06 -268.443 1137.35 -258.494 1153.61 -245.724L1153.61 -245.724C1170.61 -232.577 1184.76 -217.761 1195.45 -201.458C1203.73 -188.923 1210.64 -176.307 1216.03 -163.756C1216.09 -163.636 1216.14 -163.515 1216.18 -163.394C1216.48 -162.664 1217.3 -160.701 1217.92 -158.936C1217.94 -158.876 1217.97 -158.806 1218 -158.734C1218.05 -158.618 1218.11 -158.446 1218.18 -158.237C1219.26 -155.357 1220.22 -152.262 1221.24 -148.222C1221.24 -148.192 1221.25 -148.163 1221.26 -148.133C1224.09 -136.623 1225.63 -124.132 1226.06 -111.028C1226.06 -111.007 1226.06 -110.986 1226.06 -110.965C1226.09 -110.132 1226.8 -109.373 1227.75 -109.374C1228.68 -109.415 1229.38 -110.201 1229.36 -111.056L1229.36 -111.103C1229.17 -124.089 1227.79 -136.062 1225.37 -146.666C1225.06 -148.016 1224.94 -149.401 1225.01 -150.784C1225.62 -162.372 1228.68 -171.989 1235.32 -178.976C1241.45 -185.421 1248.84 -187.657 1253.66 -188.768L1254.59 -188.975L1254.68 -188.994C1259.9 -190.101 1266.15 -189.884 1273.92 -186.183C1274.17 -186.066 1274.42 -185.941 1274.66 -185.81C1288.08 -178.492 1298.46 -168.571 1304.55 -155.311C1310.51 -142.337 1311.66 -127.68 1309.51 -111.912C1309.49 -111.711 1309.47 -111.511 1309.45 -111.312C1309.44 -111.139 1309.44 -111.056 1309.44 -111.042L1309.44 -111.041C1310.19 -98.272 1308.31 -76.7651 1297.76 -41.252C1297.67 -40.8372 1297.56 -40.4517 1297.45 -40.0989C1297.39 -39.7888 1297.42 -39.4751 1297.56 -39.1539C1297.72 -38.8082 1297.96 -38.5403 1298.23 -38.3703L1298.35 -38.3034L1298.37 -38.2951C1298.41 -38.2776 1298.5 -38.2365 1298.71 -38.1673C1299.54 -37.9492 1300.42 -38.4514 1300.66 -39.2486L1300.67 -39.2947C1309.39 -68.406 1313.17 -90.158 1313 -106.196L1313 -106.821C1313.1 -109.939 1314.17 -112.956 1316.06 -115.446C1319.64 -120.15 1323.79 -124.388 1328.33 -127.968L1329.24 -128.675L1329.52 -128.881C1332.84 -131.29 1336.55 -133.53 1340.51 -134.912C1344.27 -136.224 1349.71 -137.246 1355.45 -135.229L1356.01 -135.025L1356.05 -135.007C1360.17 -133.406 1370.2 -129.398 1377.16 -116.413C1383.67 -104.279 1386.37 -86.4696 1383.08 -59.9605C1383.08 -59.9514 1383.08 -59.9422 1383.08 -59.9331C1381.69 -48.9168 1379.32 -36.8383 1376.08 -24.1549C1375.99 -23.7788 1375.87 -23.4067 1375.75 -23.0392C1375.45 -22.1497 1375.24 -21.3385 1374.75 -19.5928L1374.75 -19.5929C1374.35 -18.1045 1373.9 -16.6565 1373.56 -15.5556L1373.55 -15.5552C1370.28 -5.04832 1366.91 6.0674 1366.34 8.72863C1366.33 8.77418 1366.32 8.81982 1366.31 8.86528C1366.24 9.21407 1366.28 9.51588 1366.42 9.8115C1366.56 10.0995 1366.79 10.3438 1367.06 10.5075L1367.18 10.5729L1367.21 10.589C1367.17 10.5689 1367.29 10.6348 1367.63 10.7176C1368.45 10.8885 1369.37 10.3422 1369.58 9.44644L1369.58 9.44692C1370.13 7.05492 1372.5 -1.01505 1376.69 -14.4956L1376.76 -14.7181C1377.02 -15.5085 1377.15 -15.9127 1377.24 -16.2624C1378.39 -20.5694 1381.39 -24.1436 1385.43 -26.0168C1386.05 -26.3025 1386.35 -26.437 1386.61 -26.5586L1387.64 -27.0263L1387.88 -27.1373C1399.34 -32.2354 1410.8 -32.637 1422.46 -28.3517C1422.78 -28.2477 1423.01 -28.1612 1423.12 -28.1189C1423.28 -28.0608 1423.42 -28.0009 1423.54 -27.9489C1424.19 -27.6932 1424.84 -27.3908 1425.47 -27.0362L1425.55 -26.9881C1428.5 -25.3208 1430.67 -22.7983 1431.93 -19.9035C1431.93 -19.899 1431.93 -19.8949 1431.94 -19.8904C1432.59 -18.4928 1433.11 -16.9505 1433.5 -15.269C1434.23 -12.078 1434.49 -8.23979 1434.15 -3.56314C1434.14 -3.10471 1434.1 -2.67682 1434.06 -2.28261C1433.11 12.7007 1426.2 26.1314 1418.7 41.1459L1418.7 41.1455C1412.97 52.7099 1406.06 66.6143 1399.36 84.2222C1399.32 84.3263 1399.28 84.4302 1399.24 84.5334C1398.77 85.6775 1398.24 86.8736 1397.91 87.6235C1397.17 89.3992 1397 89.71 1396.68 90.5398C1396.53 90.9351 1396.36 91.3239 1396.18 91.7051C1392.19 100.034 1389.89 104.127 1388.13 107.178L1387.3 108.636C1387.28 108.68 1387.25 108.722 1387.23 108.766L1387.09 109.051C1386.76 109.771 1387.04 110.715 1387.8 111.141L1387.8 111.142C1388.57 111.574 1389.58 111.328 1390.06 110.488L1390.37 109.924L1390.56 109.612C1391.51 108.006 1393.41 104.86 1396.21 99.3011L1396.52 98.7262C1399.78 92.881 1406.56 89.8824 1413.12 91.4604C1413.42 91.5341 1413.68 91.6065 1413.87 91.6629C1414.01 91.7016 1414.12 91.7393 1414.22 91.7695C1415.03 92.0038 1415.81 92.3059 1416.57 92.6725C1421.71 95.1579 1424.24 99.3948 1425.42 102.215C1426.6 105.037 1427.02 107.792 1427.2 109.771C1427.56 113.771 1427.19 117.886 1426.81 120.797C1426.81 120.823 1426.81 120.849 1426.8 120.875C1424.47 138.195 1415.26 157.78 1401.74 177.421C1401.74 177.432 1401.73 177.444 1401.72 177.455C1393.2 189.763 1382.56 198.746 1369.34 203.72C1363.21 206.026 1356.29 204.085 1352.25 198.926L1236.86 51.5192L1236.85 51.5C1230.05 42.7831 1222.7 34.7417 1214.9 27.3381C1212.6 25.1849 1210.37 23.1425 1208.15 21.2008C1190.09 5.50046 1169.97 -6.8752 1148.62 -15.83C1148.6 -15.8377 1148.58 -15.8459 1148.56 -15.8538C1144.07 -17.7568 1139.5 -19.4772 1134.84 -21.0679C1134.8 -21.0776 1134.76 -21.0894 1134.72 -21.1012C1134.57 -21.1468 1134.31 -21.2226 1134.02 -21.3203C1128.48 -23.1363 1124.5 -27.9938 1123.8 -33.7783C1122.69 -42.9633 1121.68 -52.3764 1120.9 -61.9856L1120.9 -62.0129L1120.7 -64.4729C1118.54 -90.6924 1115.58 -125.119 1109.31 -152.114L1109.27 -152.315C1102.73 -182.374 1092.68 -215.861 1066.32 -247.634C1064.43 -249.867 1060.14 -254.889 1056.5 -259.632C1052.84 -264.381 1052.37 -270.848 1055.28 -276.081ZM1308 -106.035C1307.85 -105.73 1307.7 -105.442 1307.55 -105.175C1307.71 -105.463 1307.86 -105.75 1308 -106.035ZM1308.81 -108.11C1308.7 -107.74 1308.57 -107.386 1308.44 -107.05C1308.38 -106.889 1308.31 -106.732 1308.25 -106.58C1308.47 -107.098 1308.66 -107.609 1308.81 -108.11Z" fill="#E9F6FB" stroke="black" stroke-width="30" stroke-linejoin="round"/>
<path d="M1105.36 -54.1258C1108.27 -59.3588 1114.03 -62.3544 1119.99 -61.7449C1120.45 -61.6972 1120.86 -61.6428 1121.12 -61.6083C1121.44 -61.5653 1121.51 -61.5548 1121.64 -61.5385C1128.22 -60.7302 1135.9 -58.557 1144.19 -55.5484L1145.86 -54.935L1145.9 -54.9204C1160.31 -49.5084 1174.11 -41.5661 1187.04 -31.4113L1187.04 -31.4117C1200.56 -20.9565 1211.88 -9.12706 1220.45 3.95208L1220.45 3.95171C1227.02 13.887 1232.51 23.9138 1236.81 33.9166C1236.86 34.0363 1236.91 34.1566 1236.96 34.2776C1237.14 34.7234 1237.82 36.3586 1238.34 37.8388C1238.35 37.8611 1238.36 37.8843 1238.37 37.9079C1239.6 31.4 1242.12 25.6463 1246.48 21.0616C1252.29 14.9479 1259.35 13.1493 1263.21 12.3063C1263.24 12.2998 1263.27 12.293 1263.3 12.2867C1267.93 11.3034 1273.35 11.5156 1279.8 14.4391L1280.42 14.7307L1280.79 14.912C1280.91 14.9742 1281.03 15.0381 1281.15 15.1036C1292.12 21.0837 1300.81 29.3097 1305.92 40.4391C1309.99 49.294 1311.33 58.9842 1310.75 69.1576C1313.36 65.9841 1316.3 63.0969 1319.47 60.5915L1320.23 60.0033L1320.51 59.7978C1323.24 57.8166 1326.43 55.8687 1329.94 54.6439C1333.27 53.4833 1338.33 52.4857 1343.78 54.3975L1344.31 54.5913L1344.35 54.6089C1347.83 55.9594 1356.55 59.4655 1362.55 70.6418C1368.09 80.9673 1370.15 95.6616 1367.53 116.695C1367.53 116.704 1367.53 116.714 1367.53 116.723C1366.59 124.214 1365.08 132.293 1363.06 140.737C1363.6 140.4 1364.15 140.095 1364.74 139.826C1365.27 139.576 1365.49 139.479 1365.68 139.395L1366.45 139.041L1366.69 138.93C1376.4 134.61 1386.22 134.259 1396.12 137.883C1396.41 137.979 1396.62 138.057 1396.72 138.096C1396.81 138.129 1396.89 138.164 1396.97 138.195C1397.66 138.459 1398.34 138.778 1399 139.152L1399.07 139.189C1401.99 140.841 1404.15 143.333 1405.41 146.195L1405.64 146.697C1406.15 147.88 1406.56 149.142 1406.86 150.47C1407.51 153.336 1407.72 156.654 1407.45 160.531C1407.43 160.919 1407.4 161.283 1407.37 161.622C1406.56 174.1 1400.8 185.205 1395.04 196.726L1395.04 196.726C1390.57 205.757 1385.24 216.492 1380.06 230.084C1380.02 230.188 1379.98 230.293 1379.94 230.396C1379.7 230.996 1379.43 231.614 1379.2 232.129C1382.07 230.927 1385.31 230.61 1388.51 231.379C1388.66 231.416 1388.8 231.452 1388.92 231.485C1389.05 231.518 1389.16 231.549 1389.25 231.578C1389.44 231.633 1389.6 231.683 1389.71 231.717C1390.45 231.943 1391.17 232.225 1391.87 232.562C1396.85 234.975 1399.28 239.071 1400.38 241.704C1401.48 244.339 1401.86 246.859 1402.01 248.579C1402.33 252.059 1402 255.552 1401.69 257.906C1401.69 257.932 1401.69 257.959 1401.69 257.985C1399.77 272.241 1392.25 288.037 1381.56 303.578C1381.55 303.589 1381.54 303.601 1381.54 303.612C1374.56 313.682 1365.75 321.175 1354.7 325.332C1348.57 327.639 1341.65 325.698 1337.61 320.539L1247.48 205.395L1247.46 205.375C1242.24 198.68 1236.6 192.505 1230.6 186.819C1228.83 185.171 1227.15 183.624 1225.47 182.16C1211.64 170.131 1196.22 160.65 1179.86 153.79C1179.84 153.782 1179.82 153.774 1179.8 153.766C1176.4 152.322 1172.92 151.012 1169.36 149.796C1169.29 149.775 1169.19 149.746 1169.08 149.713C1168.97 149.68 1168.85 149.641 1168.7 149.594C1163.17 147.778 1159.18 142.919 1158.48 137.135C1157.62 129.933 1156.82 122.536 1156.21 114.974L1156.21 114.947L1156.05 112.985C1154.35 92.4598 1152.06 65.8425 1147.23 45.0485L1147.19 44.8481C1142.12 21.5793 1134.43 -3.96181 1114.35 -28.1756C1112.88 -29.9036 1109.48 -33.894 1106.57 -37.677L1106.24 -38.1269C1102.89 -42.8285 1102.53 -49.0562 1105.36 -54.1258Z" fill="#E9F6FB" stroke="black" stroke-width="30" stroke-linejoin="round"/>
<path d="M394.299 105.543C388.309 105.453 382.838 108.936 380.386 114.402C380.169 114.886 379.988 115.324 379.866 115.62C379.728 115.956 379.676 116.087 379.605 116.254L379.294 117.001C376.089 124.799 373.632 134.875 371.684 146.427C371.681 146.44 371.68 146.454 371.677 146.467C368.527 165.456 368.494 185.412 371.427 205.872L371.426 205.873C374.31 227.172 380.065 246.836 388.842 264.24C395.554 277.684 403.028 289.971 411.199 300.92C411.277 301.024 411.357 301.128 411.438 301.231C411.925 301.849 413.21 303.547 414.432 304.962C414.472 305.012 414.517 305.073 414.566 305.134C414.643 305.231 414.76 305.372 414.904 305.541C416.86 307.914 419.061 310.29 422.051 313.193C422.073 313.214 422.095 313.235 422.117 313.256C430.671 321.459 440.715 329.047 451.849 335.969C451.866 335.98 451.885 335.991 451.902 336.002C452.612 336.439 452.911 337.439 452.437 338.259C451.939 339.04 450.907 339.254 450.174 338.813L450.134 338.789C438.986 332.127 429.304 324.95 421.331 317.55C420.317 316.609 419.177 315.812 417.944 315.183C407.607 309.91 397.748 307.753 388.375 310.012C379.731 312.096 374.097 317.38 370.726 320.999L370.082 321.699L370.022 321.766C366.452 325.733 363.513 331.258 362.832 339.841C362.81 340.114 362.796 340.388 362.789 340.662C362.415 355.945 365.815 369.898 374.254 381.801C382.511 393.447 394.631 401.77 409.36 407.795C409.541 407.881 409.725 407.963 409.91 408.041C410.065 408.119 410.137 408.161 410.148 408.169L410.149 408.168C420.832 415.204 440.396 424.331 476.427 432.95C476.834 433.075 477.22 433.177 477.581 433.257C477.882 433.357 478.136 433.543 478.344 433.827C478.567 434.132 478.678 434.476 478.686 434.8L478.684 434.938L478.683 434.957C478.681 434.996 478.671 435.095 478.624 435.315C478.399 436.141 477.521 436.656 476.713 436.462L476.666 436.451C447.095 429.447 426.369 421.842 412.566 413.673L412.021 413.366C409.273 411.89 406.128 411.305 403.024 411.702C397.158 412.451 391.415 413.925 386.046 416.063L384.978 416.5L384.66 416.638C380.913 418.309 377.117 420.404 373.94 423.143C370.922 425.746 367.322 429.938 366.197 435.921L366.095 436.505L366.088 436.553C365.413 440.924 363.873 451.609 371.634 464.134C378.888 475.84 392.962 487.081 417.566 497.483C417.575 497.487 417.583 497.491 417.592 497.494C427.827 501.799 439.47 505.789 452.073 509.326C452.447 509.431 452.825 509.521 453.206 509.596C454.127 509.779 454.934 510.005 456.689 510.456L456.69 510.454C458.178 510.854 459.659 511.185 460.784 511.438L460.785 511.437C471.522 513.854 482.833 516.494 485.421 517.334C485.465 517.348 485.51 517.362 485.554 517.376C485.895 517.483 486.135 517.672 486.318 517.945C486.497 518.211 486.597 518.527 486.604 518.842L486.602 518.977L486.6 519.013C486.602 518.968 486.597 519.109 486.5 519.443C486.236 520.241 485.304 520.763 484.425 520.495L484.425 520.496C482.077 519.779 473.903 517.796 460.134 514.684L459.906 514.634C459.091 514.464 458.678 514.371 458.329 514.277C454.026 513.116 449.43 513.928 445.785 516.494C445.229 516.885 444.965 517.074 444.725 517.246L443.81 517.896L443.593 518.05C433.446 525.429 427.368 535.153 425.248 547.396C425.181 547.72 425.139 547.965 425.12 548.083C425.094 548.244 425.076 548.396 425.058 548.531C424.953 549.224 424.893 549.932 424.887 550.653L424.886 550.75C424.854 554.139 425.953 557.282 427.832 559.816C427.835 559.82 427.837 559.825 427.84 559.829C428.722 561.097 429.797 562.32 431.061 563.493C433.46 565.719 436.653 567.865 440.872 569.911C441.276 570.128 441.664 570.312 442.027 570.471C455.475 577.145 470.565 577.871 487.316 578.886L487.315 578.887C500.198 579.702 515.691 580.676 534.291 583.675C534.401 583.693 534.511 583.71 534.622 583.725C535.845 583.895 537.149 584.028 537.964 584.117C539.872 584.362 540.226 584.372 541.102 584.514C541.519 584.582 541.94 584.631 542.361 584.663C551.572 585.367 556.264 585.427 559.789 585.425L561.462 585.44C561.513 585.441 561.563 585.439 561.614 585.439L561.932 585.458C562.717 585.539 563.393 586.254 563.383 587.124L563.383 587.125C563.374 588.006 562.655 588.758 561.691 588.749L561.043 588.743L560.683 588.744C558.812 588.771 555.138 588.843 548.925 588.487L548.275 588.463C541.58 588.367 535.595 592.737 533.682 599.208C533.592 599.51 533.526 599.77 533.478 599.964C533.446 600.098 533.42 600.218 533.399 600.315C533.198 601.132 533.066 601.964 533.005 602.804C532.589 608.495 534.991 612.809 536.843 615.241C538.697 617.675 540.871 619.417 542.496 620.561C545.78 622.874 549.53 624.608 552.239 625.738C552.263 625.748 552.288 625.758 552.312 625.768C568.478 632.408 590.045 634.223 613.812 632.337C613.826 632.336 613.84 632.335 613.854 632.334C628.775 631.108 641.87 626.39 652.79 617.425C657.854 613.267 659.633 606.303 657.184 600.225L587.219 426.595L587.21 426.572C583.061 416.324 579.77 405.943 577.26 395.483C576.546 392.412 575.889 389.467 575.317 386.574C570.749 363.084 570.092 339.472 573.017 316.497C573.019 316.477 573.021 316.456 573.024 316.436C573.62 311.597 574.415 306.78 575.37 301.944C575.378 301.91 575.387 301.871 575.397 301.83C575.436 301.672 575.497 301.415 575.561 301.108C576.757 295.406 574.542 289.527 569.881 286.031C562.48 280.48 554.834 274.896 546.902 269.417L546.879 269.401L544.846 268.003C523.223 253.017 494.888 233.24 474.641 214.318L474.49 214.179C451.73 193.483 427.751 168.042 413.416 129.325C412.429 126.567 410.221 120.349 407.937 114.818C405.651 109.281 400.289 105.634 394.299 105.543ZM415.206 409.422C415.545 409.446 415.869 409.46 416.176 409.463C415.845 409.46 415.522 409.445 415.206 409.422ZM413 409.093C413.378 409.178 413.747 409.247 414.105 409.3C414.276 409.325 414.445 409.346 414.61 409.365C414.048 409.302 413.511 409.209 413 409.093Z" fill="#E9F6FB" stroke="black" stroke-width="30" stroke-linejoin="round"/>
<path d="M561.479 259.885C555.488 259.794 550.018 263.278 547.566 268.744C547.375 269.171 547.217 269.553 547.119 269.791C546.997 270.09 546.97 270.157 546.918 270.279C544.327 276.384 542.37 284.119 540.83 292.805L540.527 294.557L540.52 294.597C538 309.785 537.98 325.705 540.311 341.978L540.31 341.979C542.603 358.917 547.189 374.632 554.23 388.596L554.229 388.597C559.549 399.253 565.488 409.02 572 417.746C572.078 417.85 572.157 417.954 572.238 418.056C572.535 418.434 573.607 419.847 574.629 421.037C574.644 421.055 574.66 421.075 574.676 421.095C568.427 418.902 562.182 418.21 556.032 419.693C547.832 421.67 542.746 426.881 540.086 429.803C540.066 429.825 540.045 429.847 540.025 429.869C536.855 433.393 534.329 438.193 533.638 445.236L533.577 445.925L533.55 446.335C533.543 446.471 533.538 446.608 533.534 446.745C533.229 459.234 536.01 470.868 543.093 480.859C548.729 488.808 556.45 494.815 565.551 499.398C561.494 500.079 557.525 501.178 553.768 502.674L552.88 503.036L552.563 503.174C549.482 504.549 546.199 506.339 543.382 508.768C540.714 511.069 537.318 514.955 536.252 520.626L536.156 521.179L536.149 521.227C535.579 524.916 534.254 534.222 540.935 545.003C547.107 554.963 558.803 564.094 578.325 572.348C578.334 572.351 578.343 572.355 578.352 572.359C585.311 575.286 593.063 578.018 601.383 580.494C600.824 580.789 600.28 581.12 599.756 581.489C599.27 581.831 599.079 581.969 598.913 582.088L598.221 582.579L598.004 582.733C589.405 588.986 584.191 597.315 582.38 607.701C582.32 607.997 582.282 608.219 582.264 608.327C582.25 608.419 582.239 608.507 582.227 608.591C582.111 609.319 582.047 610.066 582.04 610.826L582.039 610.901C582.008 614.26 583.086 617.377 584.935 619.899L585.256 620.347C586.024 621.384 586.914 622.366 587.912 623.292C590.067 625.291 592.836 627.132 596.332 628.831C596.675 629.013 597.005 629.17 597.316 629.309C608.526 634.849 621.026 635.408 633.88 636.186L633.879 636.187C643.939 636.823 655.901 637.577 670.259 639.892C670.369 639.91 670.48 639.927 670.59 639.942C671.231 640.031 671.901 640.106 672.461 640.168C669.987 642.05 668.089 644.702 667.157 647.853C667.113 648.004 667.074 648.143 667.041 648.266C667.009 648.389 666.98 648.501 666.956 648.599C666.91 648.791 666.874 648.952 666.851 649.06C666.677 649.814 666.56 650.581 666.503 651.354C666.099 656.879 668.434 661.027 670.163 663.297C671.894 665.57 673.89 667.154 675.301 668.148C678.159 670.16 681.346 671.623 683.537 672.537C683.562 672.547 683.586 672.558 683.61 672.568C696.917 678.033 714.352 679.427 733.158 677.935C733.172 677.934 733.186 677.933 733.2 677.932C745.407 676.928 756.301 673.044 765.428 665.55C770.492 661.392 772.271 654.429 769.822 648.352L715.17 512.724L715.161 512.701C711.974 504.831 709.448 496.856 707.523 488.818C706.977 486.468 706.481 484.234 706.049 482.052C702.551 464.055 702.047 445.966 704.288 428.364C704.29 428.344 704.293 428.324 704.295 428.304C704.748 424.631 705.352 420.964 706.08 417.272C706.098 417.199 706.121 417.103 706.146 416.993C706.171 416.882 706.202 416.751 706.233 416.603C707.428 410.9 705.212 405.021 700.551 401.525C694.748 397.173 688.741 392.784 682.498 388.473L682.476 388.457L680.854 387.341C663.927 375.61 642.025 360.312 626.429 345.736L626.278 345.597C608.659 329.576 590.388 310.141 579.457 280.647C578.693 278.513 576.939 273.571 575.117 269.16L574.895 268.646C572.496 263.397 567.282 259.972 561.479 259.885Z" fill="#E9F6FB" stroke="black" stroke-width="30" stroke-linejoin="round"/>
<path d="M760.245 551.705C829.726 707.076 987.332 802.677 1079.77 840.885C1098.23 848.515 1119 846.168 1136.3 836.181L1226.67 784.007L1317.04 731.832C1334.33 721.845 1346.75 705.033 1349.37 685.232C1362.51 586.07 1358.52 401.779 1258.7 263.921C1251.19 253.547 1243.84 244.227 1236.66 235.895C1189.59 247.391 1086.77 297.352 1024.65 336.355L982.324 360.789L940.002 385.223C875.162 419.524 780.483 483.591 746.996 518.6C750.62 528.988 755.016 540.012 760.245 551.705Z" fill="white"/>
<path d="M687.248 571.901L662.111 598.953C648.474 618.087 636.244 637.067 626.065 655.951C562.563 773.759 578.904 887.809 831.665 1012.06L914.523 964.224C962.742 936.384 961.08 865.099 915.402 833.261C773.036 734.033 710.215 624.904 687.248 571.901Z" fill="white"/>
<path d="M1348.69 202.559L1312.69 210.802C1347.11 257.194 1410.21 366.162 1424.96 539.069C1429.69 594.547 1490.59 631.629 1538.81 603.789L1621.67 555.951C1640.45 274.927 1549.85 203.751 1416.07 199.841C1394.63 199.214 1372.07 200.316 1348.69 202.559Z" fill="white"/>
<path d="M687.248 571.901L662.111 598.953M687.248 571.901C687.248 571.901 567.986 309.048 806.035 294.363M687.248 571.901C710.215 624.904 773.036 734.033 915.402 833.261C961.08 865.099 962.742 936.384 914.523 964.224L831.665 1012.06M662.111 598.953C430.444 460.344 218.505 848.132 764.76 1097.64C778.404 1103.88 790.379 1114.33 797.879 1127.32C825.765 1175.63 845.691 1210.14 859.909 1234.77C879.235 1268.24 922.005 1279.66 955.478 1260.34L1365.13 1023.83L1774.78 787.314C1808.25 767.989 1819.74 725.236 1800.42 691.764C1786.2 667.137 1766.27 632.624 1738.38 584.322C1730.88 571.331 1727.82 555.734 1729.24 540.801C1786.28 -57.0261 1344.48 -67.3753 1348.69 202.559M662.111 598.953C648.474 618.087 636.244 637.067 626.065 655.951M806.035 294.363C830.157 292.875 857.947 293.936 889.902 298.076C925.643 302.706 960.363 282.661 974.223 249.393C986.615 219.649 999.592 195.052 1012.94 174.906M806.035 294.363C787.99 259.487 771.648 178.333 850.649 132.722C929.65 87.1107 991.761 141.84 1012.94 174.906M831.665 1012.06L808.633 1025.36C790.47 1035.85 768.435 1037.88 749.313 1029.27C607.981 965.587 526.867 854.348 504.087 803.051C484.718 764.074 460.361 678.446 508.471 653.178C537.337 638.017 572.666 632.964 626.065 655.951M831.665 1012.06C578.904 887.809 562.563 773.759 626.065 655.951M940.002 385.223L982.324 360.789L1024.65 336.355M940.002 385.223C857.331 349.91 683.432 336.402 746.996 518.6M940.002 385.223C875.162 419.524 780.483 483.591 746.996 518.6M746.996 518.6C750.62 528.988 755.016 540.012 760.245 551.705C829.726 707.076 987.332 802.677 1079.77 840.885C1098.23 848.515 1119 846.168 1136.3 836.181L1226.67 784.007L1317.04 731.832C1334.33 721.845 1346.75 705.033 1349.37 685.232C1362.51 586.07 1358.52 401.779 1258.7 263.921C1251.19 253.547 1243.84 244.227 1236.66 235.895M1312.69 210.802L1348.69 202.559M1312.69 210.802C1312.69 210.802 1144.68 -23.9083 1012.94 174.906M1312.69 210.802C1347.11 257.194 1410.21 366.162 1424.96 539.069C1429.69 594.547 1490.59 631.629 1538.81 603.789L1621.67 555.951M1348.69 202.559C1372.07 200.316 1394.63 199.214 1416.07 199.841M1621.67 555.951L1644.7 542.654C1662.87 532.167 1675.65 514.102 1677.75 493.234C1693.27 338.998 1637.49 213.131 1604.45 167.755C1580.38 131.493 1518.4 67.5843 1472.47 96.6147C1444.9 114.033 1422.86 142.103 1416.07 199.841M1621.67 555.951C1640.45 274.927 1549.85 203.751 1416.07 199.841M1024.65 336.355C1035.4 247.102 1110.65 89.7479 1236.66 235.895M1024.65 336.355C1086.77 297.352 1189.59 247.391 1236.66 235.895M844.344 56.0047C851.755 30.4424 836.722 3.7791 811.014 -3.10942C785.672 -9.89975 759.624 5.13923 752.833 30.4811C745.945 56.1894 761.519 82.5404 787.363 88.9029C812.106 94.9945 837.248 80.4787 844.344 56.0047Z" stroke="black" stroke-width="30.004"/>
<path fill-rule="evenodd" clip-rule="evenodd" d="M662.111 598.953C430.444 460.344 218.504 848.132 764.76 1097.64C778.404 1103.88 790.378 1114.33 797.878 1127.32C825.765 1175.63 845.691 1210.14 859.909 1234.77C879.235 1268.24 922.005 1279.66 955.478 1260.34L1365.13 1023.83L1774.78 787.314C1808.25 767.989 1819.74 725.236 1800.42 691.764C1786.2 667.137 1766.27 632.624 1738.38 584.322C1730.88 571.331 1727.82 555.734 1729.24 540.801C1786.28 -57.0262 1344.48 -67.3754 1348.69 202.559C1372.07 200.316 1394.63 199.214 1416.07 199.841C1422.86 142.103 1444.9 114.033 1472.47 96.6146C1518.4 67.5842 1580.38 131.493 1604.45 167.755C1637.49 213.131 1693.27 338.998 1677.75 493.234C1675.65 514.102 1662.87 532.167 1644.7 542.654L1621.67 555.951L1538.81 603.789C1490.59 631.629 1429.69 594.547 1424.96 539.069C1410.21 366.162 1347.11 257.194 1312.69 210.802C1312.69 210.802 1144.68 -23.9083 1012.94 174.906C999.592 195.052 986.615 219.649 974.223 249.393C960.363 282.661 925.643 302.706 889.902 298.076C857.947 293.936 830.157 292.875 806.035 294.363C567.986 309.048 687.248 571.901 687.248 571.901C710.215 624.904 773.035 734.033 915.402 833.261C961.08 865.099 962.742 936.384 914.523 964.224L831.665 1012.06L808.633 1025.36C790.469 1035.85 768.435 1037.88 749.313 1029.27C607.981 965.587 526.867 854.348 504.087 803.051C484.718 764.074 460.361 678.446 508.471 653.178C537.337 638.017 572.666 632.964 626.065 655.951C636.244 637.067 648.474 618.087 662.111 598.953ZM1136.3 836.181C1119 846.168 1098.23 848.515 1079.77 840.885C987.332 802.677 829.726 707.076 760.245 551.705C755.016 540.012 750.62 528.988 746.996 518.6C683.432 336.402 857.331 349.91 940.002 385.223L982.324 360.789L1024.65 336.354C1035.4 247.102 1110.65 89.7479 1236.66 235.895C1243.84 244.227 1251.19 253.546 1258.7 263.921C1358.52 401.779 1362.51 586.07 1349.37 685.231C1346.75 705.033 1334.33 721.845 1317.04 731.832L1226.67 784.006L1136.3 836.181Z" fill="#5BC8FB"/>
<path d="M806.035 294.363C830.157 292.875 857.947 293.936 889.902 298.076C925.643 302.706 960.363 282.661 974.223 249.393C986.615 219.649 999.592 195.052 1012.94 174.906C991.761 141.84 929.65 87.1106 850.649 132.722C771.648 178.333 787.99 259.487 806.035 294.363Z" fill="#5BC8FB"/>
<path d="M831.644 99.8048L740.285 77.3126L765.128 -15.4044L857.845 9.439L831.644 99.8048Z" fill="#F35B5B"/>
<path d="M687.248 571.901L662.111 598.953M687.248 571.901C687.248 571.901 567.986 309.048 806.035 294.363M687.248 571.901C710.215 624.904 773.035 734.033 915.402 833.261C961.08 865.099 962.742 936.384 914.523 964.224L831.665 1012.06M662.111 598.953C430.444 460.344 218.504 848.132 764.76 1097.64C778.404 1103.88 790.378 1114.33 797.878 1127.32C825.765 1175.63 845.691 1210.14 859.909 1234.77C879.235 1268.24 922.005 1279.66 955.478 1260.34L1365.13 1023.83L1774.78 787.314C1808.25 767.989 1819.74 725.236 1800.42 691.764C1786.2 667.137 1766.27 632.624 1738.38 584.322C1730.88 571.331 1727.82 555.734 1729.24 540.801C1786.28 -57.0262 1344.48 -67.3754 1348.69 202.559M662.111 598.953C648.474 618.087 636.244 637.067 626.065 655.951M806.035 294.363C830.157 292.875 857.947 293.936 889.902 298.076C925.643 302.706 960.363 282.661 974.223 249.393C986.615 219.649 999.592 195.052 1012.94 174.906M806.035 294.363C787.99 259.487 771.648 178.333 850.649 132.722C929.65 87.1106 991.761 141.84 1012.94 174.906M831.665 1012.06L808.633 1025.36C790.469 1035.85 768.435 1037.88 749.313 1029.27C607.981 965.587 526.867 854.348 504.087 803.051C484.718 764.074 460.361 678.446 508.471 653.178C537.337 638.017 572.666 632.964 626.065 655.951M831.665 1012.06C578.904 887.808 562.563 773.759 626.065 655.951M940.002 385.223L982.324 360.789L1024.65 336.354M940.002 385.223C857.331 349.91 683.432 336.402 746.996 518.6M940.002 385.223C875.162 419.524 780.483 483.591 746.996 518.6M746.996 518.6C750.62 528.988 755.016 540.012 760.245 551.705C829.726 707.076 987.332 802.677 1079.77 840.885C1098.23 848.515 1119 846.168 1136.3 836.181L1226.67 784.006L1317.04 731.832C1334.33 721.845 1346.75 705.033 1349.37 685.231C1362.51 586.07 1358.52 401.779 1258.7 263.921C1251.19 253.546 1243.84 244.227 1236.66 235.895M1312.69 210.802L1348.69 202.559M1312.69 210.802C1312.69 210.802 1144.68 -23.9083 1012.94 174.906M1312.69 210.802C1347.11 257.194 1410.21 366.162 1424.96 539.069C1429.69 594.547 1490.59 631.629 1538.81 603.789L1621.67 555.951M1348.69 202.559C1372.07 200.316 1394.63 199.214 1416.07 199.841M1621.67 555.951L1644.7 542.654C1662.87 532.167 1675.65 514.102 1677.75 493.234C1693.27 338.998 1637.49 213.131 1604.45 167.755C1580.38 131.493 1518.4 67.5842 1472.47 96.6146C1444.9 114.033 1422.86 142.103 1416.07 199.841M1621.67 555.951C1640.45 274.927 1549.85 203.751 1416.07 199.841M1024.65 336.354C1035.4 247.102 1110.65 89.7479 1236.66 235.895M1024.65 336.354C1086.77 297.352 1189.59 247.391 1236.66 235.895M831.644 99.8048L740.285 77.3126L765.128 -15.4044L857.845 9.439L831.644 99.8048Z" stroke="black" stroke-width="30.004"/>
<path d="M1150.15 495.441L1126.53 487.333L1013.95 552.331L1012.95 580.967L1178.6 717.644C1182.92 719.07 1186.91 720.34 1190.54 721.436L1150.15 495.441Z" fill="#88E6F5"/>
<path d="M1190.54 721.436C1204.11 663.571 1226.1 505.937 1221.25 440.144C1217.87 437.792 1213.31 435.001 1207.93 431.945L1150.15 495.441L1190.54 721.436Z" fill="#88E6F5"/>
<path fill-rule="evenodd" clip-rule="evenodd" d="M1017.78 422.197C998.66 432.672 961.649 457.853 942.58 481.032C936.382 501.707 930.393 568.96 931.209 600.103C931.28 602.824 931.403 605.27 931.583 607.385C982.658 642.111 1115.21 696.716 1178.6 717.644L1012.95 580.967L1013.95 552.331L1126.53 487.333L1106.33 386.491C1076.72 391.417 1036.41 410.878 1017.78 422.197Z" fill="#88E6F5"/>
<path d="M942.58 481.032C961.649 457.853 998.66 432.672 1017.78 422.197C1036.41 410.878 1076.72 391.417 1106.33 386.491M942.58 481.032L1013.95 552.331M942.58 481.032C936.382 501.707 930.393 568.96 931.209 600.103M1190.54 721.436C1204.11 663.571 1226.1 505.937 1221.25 440.144C1217.87 437.792 1213.31 435.001 1207.93 431.945M1190.54 721.436L1150.15 495.441M1190.54 721.436C1186.91 720.34 1182.92 719.07 1178.6 717.644M1106.33 386.491L1126.53 487.333M1106.33 386.491C1125.61 391.054 1178.79 415.391 1207.93 431.945M1126.53 487.333L1150.15 495.441M1126.53 487.333L1013.95 552.331M1150.15 495.441L1207.93 431.945M1013.95 552.331L1012.95 580.967M1012.95 580.967L931.209 600.103M1012.95 580.967L1178.6 717.644M931.209 600.103C931.28 602.824 931.403 605.27 931.583 607.385C982.658 642.111 1115.21 696.716 1178.6 717.644" stroke="black" stroke-width="30" stroke-linecap="round" stroke-linejoin="round"/>
<path d="M1126.54 487.343L1106.33 386.501C1085.03 390.045 1058.17 401.118 1037.85 411.266L1113.44 494.906L1126.54 487.343Z" fill="#5FD8F0"/>
<path d="M1106.33 386.491L1126.53 487.333L1150.15 495.441L1207.93 431.945C1178.79 415.391 1125.61 391.054 1106.33 386.491Z" fill="#5FD8F0"/>
<path d="M1150.15 495.441L1126.53 487.333L1013.95 552.331L1012.95 580.967L1178.6 717.644C1182.92 719.07 1186.91 720.34 1190.54 721.436L1150.15 495.441Z" fill="#5FD8F0"/>
<path d="M1190.54 721.436C1204.11 663.571 1226.1 505.937 1221.25 440.144C1217.87 437.792 1213.31 435.001 1207.93 431.945L1150.15 495.441L1190.54 721.436Z" fill="#5FD8F0"/>
<path d="M942.58 481.032C961.649 457.853 998.66 432.672 1017.78 422.197C1036.41 410.878 1076.72 391.417 1106.33 386.491M942.58 481.032L1013.95 552.331M942.58 481.032C936.382 501.707 930.393 568.96 931.209 600.103M1190.54 721.436C1204.11 663.571 1226.1 505.937 1221.25 440.144C1217.87 437.792 1213.31 435.001 1207.93 431.945M1190.54 721.436L1150.15 495.441M1190.54 721.436C1186.91 720.34 1182.92 719.07 1178.6 717.644M1106.33 386.491L1126.53 487.333M1106.33 386.491C1125.61 391.054 1178.79 415.391 1207.93 431.945M1126.53 487.333L1150.15 495.441M1126.53 487.333L1013.95 552.331M1150.15 495.441L1207.93 431.945M1013.95 552.331L1012.95 580.967M1012.95 580.967L931.209 600.103M1012.95 580.967L1178.6 717.644M931.209 600.103C931.28 602.824 931.403 605.27 931.583 607.385C982.658 642.111 1115.21 696.716 1178.6 717.644" stroke="black" stroke-width="30" stroke-linecap="round" stroke-linejoin="round"/>
<path d="M1150.15 495.441L1126.53 487.333L1013.95 552.331L1012.95 580.967L1178.6 717.644C1182.92 719.07 1186.91 720.34 1190.54 721.436L1150.15 495.441Z" fill="#88E6F5"/>
<path d="M1190.54 721.436C1204.11 663.571 1226.1 505.937 1221.25 440.144C1217.87 437.792 1213.31 435.001 1207.93 431.945L1150.15 495.441L1190.54 721.436Z" fill="#88E6F5"/>
<path fill-rule="evenodd" clip-rule="evenodd" d="M1017.78 422.197C998.66 432.672 961.649 457.853 942.58 481.032C936.382 501.707 930.393 568.96 931.209 600.103C931.28 602.824 931.403 605.27 931.583 607.385C982.658 642.111 1115.21 696.716 1178.6 717.644L1012.95 580.967L1013.95 552.331L1126.53 487.333L1106.33 386.491C1076.72 391.417 1036.41 410.878 1017.78 422.197Z" fill="#88E6F5"/>
<path d="M942.58 481.032C961.649 457.853 998.66 432.672 1017.78 422.197C1036.41 410.878 1076.72 391.417 1106.33 386.491M942.58 481.032L1013.95 552.331M942.58 481.032C936.382 501.707 930.393 568.96 931.209 600.103M1190.54 721.436C1204.11 663.571 1226.1 505.937 1221.25 440.144C1217.87 437.792 1213.31 435.001 1207.93 431.945M1190.54 721.436L1150.15 495.441M1190.54 721.436C1186.91 720.34 1182.92 719.07 1178.6 717.644M1106.33 386.491L1126.53 487.333M1106.33 386.491C1125.61 391.054 1178.79 415.391 1207.93 431.945M1126.53 487.333L1150.15 495.441M1126.53 487.333L1013.95 552.331M1150.15 495.441L1207.93 431.945M1013.95 552.331L1012.95 580.967M1012.95 580.967L931.209 600.103M1012.95 580.967L1178.6 717.644M931.209 600.103C931.28 602.824 931.403 605.27 931.583 607.385C982.658 642.111 1115.21 696.716 1178.6 717.644" stroke="black" stroke-width="30" stroke-linecap="round" stroke-linejoin="round"/>
<path d="M1126.54 487.343L1106.33 386.501C1085.03 390.045 1058.17 401.118 1037.85 411.266L1113.44 494.906L1126.54 487.343Z" fill="#5FD8F0"/>
<path d="M1106.33 386.491L1126.53 487.333L1150.15 495.441L1207.93 431.945C1178.79 415.391 1125.61 391.054 1106.33 386.491Z" fill="#5FD8F0"/>
<path d="M1150.15 495.441L1126.53 487.333L1013.95 552.331L1012.95 580.967L1178.6 717.644C1182.92 719.07 1186.91 720.34 1190.54 721.436L1150.15 495.441Z" fill="#5FD8F0"/>
<path d="M1190.54 721.436C1204.11 663.571 1226.1 505.937 1221.25 440.144C1217.87 437.792 1213.31 435.001 1207.93 431.945L1150.15 495.441L1190.54 721.436Z" fill="#5FD8F0"/>
<path d="M942.58 481.032C961.649 457.853 998.66 432.672 1017.78 422.197C1036.41 410.878 1076.72 391.417 1106.33 386.491M942.58 481.032L1013.95 552.331M942.58 481.032C936.382 501.707 930.393 568.96 931.209 600.103M1190.54 721.436C1204.11 663.571 1226.1 505.937 1221.25 440.144C1217.87 437.792 1213.31 435.001 1207.93 431.945M1190.54 721.436L1150.15 495.441M1190.54 721.436C1186.91 720.34 1182.92 719.07 1178.6 717.644M1106.33 386.491L1126.53 487.333M1106.33 386.491C1125.61 391.054 1178.79 415.391 1207.93 431.945M1126.53 487.333L1150.15 495.441M1126.53 487.333L1013.95 552.331M1150.15 495.441L1207.93 431.945M1013.95 552.331L1012.95 580.967M1012.95 580.967L931.209 600.103M1012.95 580.967L1178.6 717.644M931.209 600.103C931.28 602.824 931.403 605.27 931.583 607.385C982.658 642.111 1115.21 696.716 1178.6 717.644" stroke="black" stroke-width="30" stroke-linecap="round" stroke-linejoin="round"/>
</g>
<defs>
<clipPath id="clip0_4368_3916">
<rect width="3000" height="3000" fill="white" transform="translate(0 8.055) rotate(-0.153839)"/>
</clipPath>
</defs>
</svg>
