<svg width="3009" height="3009" viewBox="0 0 3009 3009" fill="none" xmlns="http://www.w3.org/2000/svg">
<g clip-path="url(#clip0_4368_3918)">
<path d="M-2.07028 437.76C-6.36999 441.932 -7.77494 448.263 -5.64365 453.862C-5.45512 454.357 -5.27363 454.796 -5.15021 455.091C-5.01028 455.426 -4.9549 455.556 -4.88673 455.723L-4.57876 456.472C-1.33041 464.252 4.05674 473.115 10.8473 482.661C10.855 482.671 10.8634 482.682 10.8712 482.693C22.0709 498.348 36.1586 512.483 52.7002 524.876L52.7002 524.878C69.8002 537.899 87.7739 547.734 106.287 553.834C120.539 558.594 134.512 561.998 148.032 563.962C148.161 563.98 148.291 563.998 148.421 564.013C149.202 564.106 151.312 564.398 153.176 564.534C153.24 564.542 153.315 564.552 153.392 564.561C153.516 564.575 153.698 564.592 153.92 564.61C156.98 564.905 160.217 565.028 164.384 564.966C164.414 564.966 164.445 564.965 164.475 564.965C176.324 564.717 188.791 562.98 201.559 560.002C201.579 559.997 201.6 559.992 201.62 559.987C202.431 559.795 203.349 560.29 203.594 561.205C203.794 562.11 203.216 562.991 202.386 563.197L202.341 563.208C189.747 566.381 177.826 568.152 166.956 568.557C165.573 568.609 164.203 568.851 162.887 569.278C151.849 572.858 143.352 578.305 138.322 586.53C133.683 594.116 133.436 601.836 133.611 606.779L133.651 607.729L133.655 607.819C133.937 613.149 135.766 619.134 141.352 625.684C141.53 625.892 141.714 626.096 141.903 626.295C152.445 637.366 164.715 644.828 179.099 647.277C193.173 649.674 207.628 646.989 222.304 640.835C222.493 640.767 222.681 640.696 222.867 640.62C223.031 640.566 223.112 640.545 223.125 640.541L223.125 640.54C235.654 637.961 255.942 630.581 287.515 611.199C287.891 610.999 288.236 610.797 288.548 610.599C288.831 610.457 289.143 610.409 289.49 610.463C289.863 610.521 290.185 610.686 290.421 610.909L290.516 611.008L290.529 611.022C290.555 611.051 290.618 611.128 290.74 611.317C291.165 612.06 290.909 613.045 290.2 613.48L290.159 613.505C264.297 629.462 244.263 638.741 228.727 642.724L228.125 642.892C225.138 643.792 222.5 645.602 220.586 648.077C216.968 652.755 213.949 657.859 211.665 663.167L211.218 664.231L211.091 664.553C209.623 668.384 208.42 672.55 208.111 676.733C207.817 680.707 208.236 686.218 211.671 691.244L212.012 691.728L212.041 691.767C214.654 695.336 221.12 703.98 235.466 707.349C248.871 710.497 266.772 708.493 291.526 698.451C291.534 698.448 291.543 698.444 291.551 698.441C301.833 694.248 312.887 688.836 324.3 682.425C324.638 682.235 324.969 682.031 325.292 681.815C326.073 681.293 326.802 680.882 328.363 679.96L328.362 679.958C329.697 679.189 330.978 678.376 331.953 677.759L331.953 677.758C341.254 671.875 351.119 665.743 353.543 664.507C353.584 664.486 353.626 664.464 353.667 664.443C353.984 664.278 354.286 664.241 354.609 664.304C354.924 664.366 355.218 664.519 355.446 664.737L355.539 664.834L355.563 664.861C355.533 664.827 355.629 664.93 355.797 665.235C356.175 665.986 355.885 667.015 355.073 667.447L355.074 667.447C352.907 668.601 345.725 672.978 333.788 680.514L333.592 680.64C332.895 681.095 332.538 681.322 332.224 681.502C328.36 683.724 325.685 687.549 324.922 691.94C324.806 692.61 324.752 692.93 324.704 693.221L324.517 694.328L324.472 694.59C322.515 706.983 325.093 718.157 332.251 728.313C332.433 728.589 332.577 728.792 332.646 728.889C332.742 729.021 332.836 729.142 332.919 729.25C333.335 729.814 333.793 730.357 334.298 730.871L334.367 730.941C336.741 733.36 339.74 734.805 342.861 735.268C342.866 735.269 342.87 735.271 342.875 735.272C344.395 735.544 346.02 735.649 347.744 735.585C351.014 735.462 354.79 734.722 359.219 733.185C359.659 733.053 360.063 732.909 360.432 732.765C374.661 727.975 385.844 717.818 398.407 706.692L398.407 706.693C408.092 698.159 419.736 687.893 435.009 676.861C435.1 676.796 435.19 676.73 435.279 676.663C436.263 675.918 437.28 675.09 437.919 674.576C439.442 673.4 439.698 673.157 440.418 672.638C440.761 672.391 441.094 672.128 441.414 671.853C448.426 665.838 451.786 662.562 454.276 660.069L455.471 658.896C455.507 658.861 455.541 658.824 455.577 658.788L455.815 658.577C456.427 658.079 457.411 658.106 458.02 658.728L458.02 658.729C458.636 659.359 458.66 660.399 457.972 661.075L457.51 661.528L457.255 661.783C455.952 663.126 453.405 665.774 448.759 669.916L448.283 670.359C443.482 675.025 442.339 682.347 445.561 688.275C445.712 688.552 445.849 688.783 445.953 688.954C446.025 689.072 446.091 689.174 446.145 689.258C446.58 689.978 447.076 690.66 447.626 691.297C451.356 695.615 456.105 696.967 459.135 697.377C462.166 697.787 464.936 697.482 466.894 697.142C470.851 696.455 474.729 695.029 477.443 693.913C477.467 693.903 477.492 693.892 477.516 693.882C493.643 687.147 510.176 673.18 525.649 655.04C525.658 655.03 525.667 655.019 525.676 655.008C535.359 643.591 541.283 630.995 542.665 616.934C543.306 610.413 539.64 604.231 533.611 601.665L361.363 528.363L361.34 528.353C351.16 524.04 341.492 519.028 332.321 513.405C329.645 511.739 327.097 510.121 324.647 508.479C304.808 495.1 287.647 478.868 273.469 460.554C273.456 460.538 273.443 460.522 273.431 460.506C270.431 456.663 267.587 452.695 264.843 448.6C264.825 448.57 264.803 448.536 264.782 448.5C264.697 448.361 264.558 448.136 264.387 447.874C261.2 442.996 255.477 440.405 249.709 441.229C240.55 442.537 231.196 443.995 221.713 445.73L221.686 445.735L219.259 446.183C193.372 450.877 159.353 456.928 131.656 457.865L131.451 457.873C100.722 459.333 65.7774 458.299 28.2633 441.058C25.6161 439.806 19.6577 436.971 14.1319 434.675C8.59965 432.375 2.22954 433.588 -2.07028 437.76ZM227.588 637.851C227.845 637.629 228.083 637.41 228.302 637.194C228.067 637.426 227.827 637.644 227.588 637.851ZM225.795 639.178C226.123 638.971 226.432 638.759 226.723 638.544C226.862 638.441 226.996 638.336 227.126 638.232C226.684 638.585 226.239 638.899 225.795 639.178Z" fill="#E9F6FB" stroke="black" stroke-width="30" stroke-linejoin="round"/>
<path d="M225.28 428.682C220.98 432.854 219.575 439.184 221.706 444.784C221.873 445.221 222.032 445.602 222.131 445.841C222.255 446.138 222.284 446.205 222.334 446.327C224.818 452.477 228.904 459.33 233.957 466.561L234.981 468.014L235.005 468.047C243.963 480.568 255.206 491.839 268.36 501.698L268.36 501.7C281.959 512.055 296.314 519.924 311.167 524.82L311.167 524.821C322.463 528.594 333.569 531.301 344.344 532.866C344.473 532.885 344.602 532.903 344.732 532.918C345.209 532.975 346.966 533.217 348.53 533.334C348.554 533.337 348.579 533.34 348.604 533.343C342.635 536.211 337.73 540.137 334.43 545.534C330.029 552.731 330.118 560.012 330.303 563.959C330.304 563.989 330.305 564.019 330.307 564.049C330.557 568.782 332.165 573.962 336.657 579.431L337.101 579.961L337.371 580.27C337.463 580.372 337.556 580.472 337.65 580.571C346.265 589.619 356.459 595.878 368.532 597.934C378.137 599.57 387.845 598.358 397.521 595.164C395.133 598.514 393.104 602.097 391.506 605.812L391.134 606.696L391.007 607.017C389.8 610.168 388.745 613.756 388.471 617.465C388.211 620.979 388.558 626.128 391.813 630.891L392.137 631.351L392.166 631.39C394.371 634.401 400.015 641.918 412.362 644.817C423.77 647.496 438.496 645.682 458.137 637.714C458.145 637.711 458.155 637.707 458.163 637.703C465.154 634.852 472.567 631.302 480.201 627.17C480.015 627.774 479.864 628.393 479.755 629.024C479.653 629.609 479.615 629.842 479.582 630.044L479.44 630.88L479.395 631.143C477.736 641.645 479.939 651.221 486.002 659.846C486.169 660.097 486.299 660.282 486.363 660.37C486.418 660.445 486.473 660.515 486.523 660.583C486.956 661.18 487.439 661.753 487.972 662.296L488.025 662.349C490.377 664.746 493.344 666.188 496.434 666.664L496.978 666.754C498.254 666.944 499.578 667.009 500.939 666.958C503.876 666.848 507.136 666.192 510.809 664.921C511.18 664.808 511.525 664.685 511.843 664.563C523.687 660.554 532.921 652.11 542.561 643.572L542.561 643.573C550.124 636.909 559.115 628.983 570.904 620.468C570.995 620.403 571.085 620.337 571.174 620.269C571.69 619.879 572.218 619.459 572.657 619.106C572.238 622.186 572.772 625.404 574.341 628.29C574.416 628.429 574.487 628.555 574.551 628.665C574.615 628.775 574.674 628.874 574.726 628.96C574.829 629.129 574.918 629.268 574.978 629.361C575.388 630.017 575.847 630.642 576.354 631.229C579.975 635.421 584.559 636.703 587.387 637.086C590.218 637.469 592.749 637.178 594.45 636.883C597.893 636.285 601.182 635.066 603.377 634.162C603.402 634.152 603.426 634.143 603.451 634.132C616.725 628.588 630.038 617.245 642.281 602.893C642.29 602.882 642.299 602.871 642.309 602.86C650.231 593.519 655.188 583.069 656.342 571.317C656.983 564.796 653.318 558.614 647.289 556.048L512.74 498.789L512.718 498.78C504.899 495.468 497.474 491.616 490.429 487.293C488.381 486.017 486.451 484.789 484.603 483.551C469.403 473.299 456.256 460.864 445.394 446.833C445.381 446.817 445.369 446.801 445.357 446.786C443.079 443.868 440.914 440.849 438.818 437.723C438.779 437.659 438.727 437.574 438.667 437.479C438.607 437.383 438.535 437.268 438.452 437.142C435.265 432.264 429.542 429.673 423.774 430.497C416.593 431.523 409.242 432.668 401.779 434.033L401.752 434.038L399.817 434.396C379.552 438.07 353.247 442.739 331.913 443.461L331.707 443.469C307.921 444.599 281.258 443.776 252.673 430.65C250.624 429.681 245.889 427.428 241.482 425.596L240.961 425.39C235.554 423.375 229.445 424.64 225.28 428.682Z" fill="#E9F6FB" stroke="black" stroke-width="30" stroke-linejoin="round"/>
<path d="M1541.18 -453.237C1546.94 -454.875 1553.13 -452.926 1556.91 -448.281C1557.25 -447.87 1557.54 -447.494 1557.73 -447.239C1557.95 -446.951 1558.03 -446.838 1558.15 -446.695L1558.64 -446.054C1563.75 -439.351 1568.74 -430.254 1573.61 -419.6C1573.61 -419.588 1573.62 -419.575 1573.62 -419.563C1581.58 -402.036 1586.78 -382.769 1589.24 -362.247L1589.24 -362.246C1591.97 -340.926 1591.5 -320.443 1587.52 -301.361C1584.52 -286.638 1580.48 -272.835 1575.42 -260.144C1575.37 -260.023 1575.32 -259.902 1575.27 -259.782C1574.96 -259.059 1574.16 -257.086 1573.35 -255.403C1573.32 -255.344 1573.29 -255.274 1573.26 -255.202C1573.21 -255.089 1573.14 -254.922 1573.04 -254.721C1571.77 -251.923 1570.25 -249.058 1568.12 -245.481C1568.1 -245.455 1568.09 -245.429 1568.07 -245.403C1561.93 -235.265 1554.19 -225.336 1545.23 -215.768C1545.22 -215.753 1545.2 -215.738 1545.19 -215.723C1544.61 -215.117 1544.58 -214.074 1545.25 -213.404C1545.94 -212.779 1546.99 -212.839 1547.58 -213.455L1547.62 -213.488C1556.66 -222.809 1564.16 -232.247 1569.94 -241.458C1570.68 -242.63 1571.57 -243.695 1572.6 -244.621C1581.22 -252.39 1590.18 -257.026 1599.82 -257.269C1608.71 -257.494 1615.52 -253.847 1619.71 -251.225L1620.52 -250.715L1620.59 -250.666C1625.07 -247.757 1629.34 -243.181 1632.22 -235.068C1632.31 -234.81 1632.39 -234.549 1632.47 -234.286C1636.79 -219.62 1637.11 -205.263 1632.04 -191.582C1627.08 -178.195 1617.53 -167.019 1604.86 -157.387C1604.71 -157.257 1604.55 -157.13 1604.39 -157.006C1604.26 -156.891 1604.21 -156.832 1604.2 -156.822L1604.2 -156.822C1595.7 -147.261 1579.16 -133.381 1546.59 -115.73C1546.23 -115.504 1545.88 -115.306 1545.55 -115.135C1545.29 -114.961 1545.09 -114.715 1544.97 -114.388C1544.83 -114.035 1544.81 -113.674 1544.89 -113.358L1544.92 -113.226L1544.93 -113.208C1544.94 -113.171 1544.98 -113.078 1545.08 -112.878C1545.51 -112.138 1546.49 -111.867 1547.22 -112.264L1547.27 -112.287C1574.02 -126.706 1592.07 -139.416 1603.29 -150.879L1603.73 -151.317C1606 -153.454 1608.89 -154.833 1611.99 -155.253C1617.85 -156.047 1623.78 -156.11 1629.52 -155.434L1630.67 -155.289L1631.01 -155.238C1635.06 -154.594 1639.27 -153.553 1643.05 -151.729C1646.64 -149.996 1651.2 -146.878 1653.83 -141.391L1654.08 -140.853L1654.1 -140.809C1655.89 -136.761 1660.14 -126.839 1655.88 -112.731C1651.91 -99.5474 1641.22 -85.0467 1620.15 -68.6306C1620.14 -68.6249 1620.13 -68.619 1620.13 -68.6134C1611.35 -61.806 1601.14 -54.9383 1589.88 -48.26C1589.55 -48.062 1589.21 -47.8774 1588.86 -47.7059C1588.01 -47.2907 1587.29 -46.8643 1585.72 -45.9742L1585.71 -45.9759C1584.38 -45.2045 1583.04 -44.5013 1582.01 -43.9657L1582.01 -43.9664C1572.27 -38.8529 1562.02 -33.3755 1559.74 -31.8941C1559.7 -31.8687 1559.66 -31.8438 1559.62 -31.8188C1559.32 -31.627 1559.14 -31.3832 1559.03 -31.0717C1558.93 -30.7683 1558.92 -30.4371 1558.99 -30.1311L1559.03 -30.0016L1559.04 -29.9673C1559.02 -30.01 1559.07 -29.8754 1559.25 -29.5779C1559.71 -28.8751 1560.74 -28.6119 1561.52 -29.0988L1561.52 -29.0978C1563.61 -30.3981 1570.99 -34.4291 1583.48 -40.9985L1583.69 -41.1058C1584.43 -41.4814 1584.81 -41.6776 1585.12 -41.8591C1588.98 -44.0945 1593.63 -44.499 1597.81 -42.964C1598.45 -42.7298 1598.75 -42.616 1599.03 -42.5119L1600.08 -42.1212L1600.33 -42.0284C1612.04 -37.5273 1620.43 -29.7074 1625.65 -18.4302C1625.79 -18.1348 1625.9 -17.9087 1625.95 -17.8002C1626.01 -17.6514 1626.07 -17.5091 1626.12 -17.3831C1626.4 -16.7411 1626.65 -16.0725 1626.84 -15.3781L1626.86 -15.284C1627.77 -12.0187 1627.52 -8.6989 1626.36 -5.76453C1626.36 -5.75987 1626.36 -5.75487 1626.36 -5.75021C1625.84 -4.29746 1625.11 -2.83796 1624.2 -1.37763C1622.46 1.39363 1619.93 4.2933 1616.38 7.36113C1616.05 7.67564 1615.72 7.95333 1615.41 8.20148C1604.15 18.1285 1589.76 22.7352 1573.84 28.0514L1573.84 28.052C1561.61 32.1733 1546.9 37.1239 1529.71 44.8353C1529.61 44.8809 1529.5 44.9257 1529.4 44.9691C1528.26 45.4493 1527.04 45.9158 1526.27 46.212C1524.49 46.9431 1524.16 47.0438 1523.35 47.4079C1522.96 47.5813 1522.57 47.7378 1522.17 47.8781C1513.45 50.9422 1508.94 52.2142 1505.53 53.1244L1503.92 53.5725C1503.87 53.586 1503.82 53.5972 1503.77 53.6102L1503.47 53.7115C1502.73 53.9921 1502.27 54.858 1502.5 55.6962L1502.5 55.6971C1502.74 56.5457 1503.63 57.0859 1504.56 56.8277L1505.18 56.6544L1505.53 56.5617C1507.34 56.1042 1510.91 55.2223 1516.82 53.2701L1517.44 53.0791C1523.88 51.2541 1530.79 53.9256 1534.32 59.6804C1534.48 59.9491 1534.61 60.1831 1534.71 60.359C1534.78 60.4798 1534.83 60.5886 1534.88 60.6773C1535.28 61.414 1535.62 62.184 1535.9 62.9791C1537.78 68.369 1536.57 73.1572 1535.41 75.9862C1534.25 78.8168 1532.6 81.0624 1531.33 82.5881C1528.76 85.6716 1525.58 88.3177 1523.26 90.1095C1523.24 90.1256 1523.22 90.1414 1523.2 90.1574C1509.3 100.756 1488.94 108.09 1465.49 112.421C1465.48 112.423 1465.46 112.426 1465.45 112.428C1450.72 115.105 1436.85 113.938 1423.98 108.104C1418.01 105.399 1414.49 99.1326 1415.29 92.6284L1437.93 -93.1935L1437.93 -93.2185C1439.29 -104.191 1439.78 -115.07 1439.5 -125.824C1439.39 -128.974 1439.26 -131.99 1439.07 -134.932C1437.4 -158.803 1431.92 -181.781 1423.15 -203.217C1423.14 -203.235 1423.14 -203.255 1423.13 -203.273C1421.3 -207.793 1419.29 -212.24 1417.11 -216.664C1417.09 -216.695 1417.08 -216.73 1417.06 -216.767C1416.98 -216.91 1416.85 -217.142 1416.71 -217.422C1414.08 -222.621 1414.7 -228.873 1418.29 -233.456C1424.01 -240.733 1429.95 -248.106 1436.19 -255.451L1436.21 -255.472L1437.81 -257.349C1454.82 -277.421 1477.07 -303.857 1491.73 -327.375L1491.84 -327.548C1508.47 -353.43 1525.04 -384.21 1528.87 -425.319C1529.11 -428.237 1529.63 -434.815 1530.41 -440.749C1531.18 -446.689 1535.42 -451.6 1541.18 -453.237ZM1599.63 -154.302C1599.31 -154.191 1599.01 -154.094 1598.71 -154.012C1599.03 -154.1 1599.34 -154.198 1599.63 -154.302ZM1601.68 -155.191C1601.34 -155.011 1601 -154.849 1600.67 -154.705C1600.51 -154.636 1600.35 -154.572 1600.2 -154.511C1600.72 -154.718 1601.22 -154.947 1601.68 -155.191Z" fill="#E9F6FB" stroke="black" stroke-width="30" stroke-linejoin="round"/>
<path d="M1419.64 -260.888C1425.41 -262.526 1431.59 -260.577 1435.37 -255.932C1435.67 -255.569 1435.92 -255.241 1436.08 -255.035C1436.27 -254.779 1436.32 -254.72 1436.4 -254.616C1440.48 -249.39 1444.37 -242.425 1448.11 -234.434L1448.86 -232.82L1448.87 -232.783C1455.24 -218.764 1459.38 -203.392 1461.34 -187.071L1461.34 -187.07C1463.51 -170.116 1463.14 -153.749 1459.96 -138.439L1459.96 -138.438C1457.58 -126.768 1454.37 -115.797 1450.34 -105.683C1450.29 -105.562 1450.24 -105.441 1450.19 -105.321C1450 -104.88 1449.33 -103.237 1448.65 -101.824C1448.64 -101.801 1448.63 -101.779 1448.62 -101.755C1454.09 -105.491 1459.94 -107.775 1466.27 -107.935C1474.7 -108.148 1480.96 -104.43 1484.29 -102.297C1484.31 -102.28 1484.34 -102.264 1484.36 -102.248C1488.34 -99.6647 1492.02 -95.6824 1494.51 -89.0581L1494.75 -88.4085L1494.88 -88.0196C1494.92 -87.8895 1494.96 -87.7587 1495 -87.6275C1498.53 -75.6427 1498.85 -63.6852 1494.59 -52.2016C1491.21 -43.0651 1485.31 -35.2646 1477.7 -28.4814C1481.8 -28.8746 1485.91 -28.8397 1489.93 -28.3667L1490.88 -28.247L1491.22 -28.1959C1494.56 -27.6657 1498.19 -26.7857 1501.54 -25.1687C1504.71 -23.6365 1509 -20.7621 1511.5 -15.5608L1511.73 -15.0507L1511.75 -15.0064C1513.26 -11.5912 1516.94 -2.94494 1513.28 9.19799C1509.9 20.4166 1500.96 32.2629 1484.24 45.2885C1484.24 45.2942 1484.23 45.3002 1484.22 45.3059C1478.26 49.9344 1471.47 54.5794 1464.08 59.1247C1464.7 59.2655 1465.31 59.4442 1465.91 59.6647C1466.47 59.8695 1466.69 59.9531 1466.88 60.0256L1467.67 60.3204L1467.92 60.4132C1477.85 64.2277 1485.04 70.9233 1489.48 80.4866C1489.61 80.7564 1489.71 80.9617 1489.75 81.0614C1489.79 81.1458 1489.82 81.2284 1489.85 81.306C1490.15 81.9799 1490.41 82.6847 1490.61 83.4172L1490.63 83.4896C1491.53 86.7257 1491.3 90.0154 1490.17 92.9303L1489.97 93.4455C1489.5 94.6461 1488.89 95.8247 1488.17 96.9782C1486.6 99.4671 1484.41 101.961 1481.47 104.508C1481.18 104.772 1480.91 105.009 1480.64 105.224C1471.25 113.477 1459.32 117.251 1447.1 121.33L1447.1 121.331C1437.55 124.549 1426.19 128.373 1412.92 134.325C1412.82 134.371 1412.72 134.416 1412.62 134.459C1412.02 134.711 1411.39 134.958 1410.87 135.162C1413.74 136.339 1416.26 138.41 1417.98 141.212C1418.06 141.347 1418.14 141.471 1418.2 141.581C1418.26 141.692 1418.32 141.793 1418.37 141.881C1418.46 142.054 1418.54 142.201 1418.59 142.299C1418.95 142.982 1419.26 143.693 1419.52 144.425C1421.34 149.657 1420.16 154.267 1419.07 156.908C1417.99 159.551 1416.47 161.598 1415.37 162.923C1413.13 165.606 1410.43 167.845 1408.55 169.294C1408.53 169.31 1408.5 169.327 1408.48 169.343C1397.05 178.067 1380.57 183.925 1362.01 187.351C1362 187.354 1361.99 187.356 1361.97 187.359C1349.92 189.549 1338.39 188.617 1327.64 183.741C1321.67 181.035 1318.15 174.77 1318.94 168.266L1336.63 23.114L1336.63 23.0898C1337.67 14.6631 1338.05 6.30616 1337.83 -1.95641C1337.75 -4.36794 1337.65 -6.65385 1337.5 -8.87314C1336.22 -27.1625 1332.03 -44.7659 1325.31 -61.1882C1325.3 -61.2067 1325.29 -61.2252 1325.28 -61.2438C1323.9 -64.6749 1322.36 -68.0599 1320.7 -71.4378C1320.67 -71.504 1320.62 -71.5911 1320.57 -71.6908C1320.52 -71.7908 1320.45 -71.91 1320.38 -72.045C1317.75 -77.2438 1318.37 -83.4959 1321.97 -88.0792C1326.45 -93.7853 1331.12 -99.5792 1336.03 -105.359L1336.05 -105.38L1337.32 -106.877C1350.64 -122.59 1367.83 -143.036 1379.13 -161.152L1379.24 -161.325C1392.11 -181.36 1404.73 -204.862 1407.65 -236.181C1407.84 -238.439 1408.25 -243.666 1408.87 -248.399L1408.95 -248.953C1409.91 -254.644 1414.06 -259.301 1419.64 -260.888Z" fill="#E9F6FB" stroke="black" stroke-width="30" stroke-linejoin="round"/>
<path d="M729.535 498.779C799.016 654.151 956.623 749.751 1049.06 787.96C1067.52 795.589 1088.29 793.242 1105.59 783.255L1195.96 731.081L1286.33 678.907C1303.63 668.92 1316.04 652.107 1318.66 632.306C1331.8 533.145 1327.81 348.853 1227.99 210.995C1220.48 200.621 1213.13 191.302 1205.95 182.969C1158.88 194.466 1056.06 244.426 993.936 283.429L951.614 307.863L909.292 332.298C844.452 366.598 749.774 430.666 716.286 465.674C719.911 476.062 724.307 487.087 729.535 498.779Z" fill="white"/>
<path d="M656.538 518.976L631.402 546.027C617.765 565.161 605.534 584.142 595.355 603.025C531.854 720.833 548.194 834.883 800.956 959.136L883.813 911.298C932.033 883.459 930.371 812.173 884.692 780.336C742.326 681.108 679.506 571.978 656.538 518.976Z" fill="white"/>
<path d="M1317.98 149.633L1281.98 157.876C1316.4 204.268 1379.5 313.237 1394.25 486.143C1398.98 541.621 1459.89 578.703 1508.1 550.863L1590.96 503.026C1609.74 222.001 1519.14 150.825 1385.36 146.915C1363.92 146.288 1341.37 147.39 1317.98 149.633Z" fill="white"/>
<path d="M656.538 518.976L631.402 546.027M656.538 518.976C656.538 518.976 537.277 256.122 775.326 241.438M656.538 518.976C679.506 571.978 742.326 681.108 884.692 780.336C930.371 812.173 932.033 883.459 883.813 911.298L800.956 959.136M631.402 546.027C399.734 407.418 187.795 795.207 734.05 1044.72C747.695 1050.95 759.669 1061.41 767.169 1074.4C795.056 1122.7 814.981 1157.21 829.2 1181.84C848.525 1215.31 891.296 1226.74 924.768 1207.41L1334.42 970.9L1744.07 734.389C1777.54 715.063 1789.03 672.311 1769.71 638.838C1755.49 614.211 1735.56 579.698 1707.68 531.396C1700.17 518.406 1697.11 502.808 1698.53 487.875C1755.58 -109.952 1313.77 -120.301 1317.98 149.633M631.402 546.027C617.765 565.161 605.534 584.142 595.355 603.025M775.326 241.438C799.447 239.95 827.238 241.01 859.193 245.15C894.933 249.78 929.653 229.735 943.513 196.467C955.906 166.723 968.883 142.126 982.232 121.98M775.326 241.438C757.28 206.562 740.939 125.407 819.939 79.796C898.94 34.1849 961.052 88.9142 982.232 121.98M800.956 959.136L777.924 972.434C759.76 982.92 737.725 984.957 718.603 976.341C577.272 912.662 496.158 801.422 473.377 750.126C454.009 711.149 429.651 625.52 477.761 600.252C506.627 585.091 541.957 580.038 595.355 603.025M800.956 959.136C548.194 834.883 531.854 720.833 595.355 603.025M909.292 332.298L951.614 307.863L993.936 283.429M909.292 332.298C826.621 296.984 652.723 283.476 716.286 465.674M909.292 332.298C844.452 366.598 749.774 430.666 716.286 465.674M716.286 465.674C719.911 476.062 724.307 487.087 729.535 498.779C799.016 654.151 956.623 749.751 1049.06 787.96C1067.52 795.589 1088.29 793.242 1105.59 783.255L1195.96 731.081L1286.33 678.907C1303.63 668.92 1316.04 652.107 1318.66 632.306C1331.8 533.145 1327.81 348.853 1227.99 210.995C1220.48 200.621 1213.13 191.302 1205.95 182.969M1281.98 157.876L1317.98 149.633M1281.98 157.876C1281.98 157.876 1113.97 -76.8341 982.232 121.98M1281.98 157.876C1316.4 204.268 1379.5 313.237 1394.25 486.143C1398.98 541.621 1459.89 578.703 1508.1 550.863L1590.96 503.026M1317.98 149.633C1341.37 147.39 1363.92 146.288 1385.36 146.915M1590.96 503.026L1613.99 489.728C1632.16 479.241 1644.94 461.177 1647.04 440.309C1662.56 286.072 1606.78 160.206 1573.74 114.829C1549.67 78.5672 1487.7 14.6585 1441.76 43.6889C1414.19 61.1071 1392.15 89.1769 1385.36 146.915M1590.96 503.026C1609.74 222.001 1519.14 150.825 1385.36 146.915M993.936 283.429C1004.69 194.177 1079.94 36.8221 1205.95 182.969M993.936 283.429C1056.06 244.426 1158.88 194.466 1205.95 182.969M813.634 3.07896C821.046 -22.4834 806.013 -49.1467 780.304 -56.0352C754.962 -62.8255 728.914 -47.7865 722.124 -22.4447C715.235 3.26361 730.81 29.6146 756.653 35.9771C781.396 42.0687 806.538 27.5529 813.634 3.07896Z" stroke="black" stroke-width="30.004"/>
<path fill-rule="evenodd" clip-rule="evenodd" d="M631.402 546.027C399.734 407.418 187.795 795.206 734.05 1044.72C747.695 1050.95 759.669 1061.41 767.169 1074.4C795.055 1122.7 814.981 1157.21 829.2 1181.84C848.525 1215.31 891.296 1226.74 924.768 1207.41L1334.42 970.9L1744.07 734.389C1777.54 715.063 1789.03 672.311 1769.71 638.838C1755.49 614.211 1735.56 579.698 1707.67 531.396C1700.17 518.405 1697.11 502.808 1698.53 487.875C1755.58 -109.952 1313.77 -120.301 1317.98 149.633C1341.37 147.39 1363.92 146.288 1385.36 146.915C1392.15 89.1769 1414.19 61.1071 1441.76 43.6888C1487.7 14.6585 1549.67 78.5671 1573.74 114.829C1606.78 160.206 1662.56 286.072 1647.04 440.308C1644.94 461.177 1632.16 479.241 1613.99 489.728L1590.96 503.026L1508.1 550.863C1459.89 578.703 1398.98 541.621 1394.25 486.143C1379.5 313.236 1316.4 204.268 1281.98 157.876C1281.98 157.876 1113.97 -76.8341 982.232 121.98C968.883 142.126 955.906 166.723 943.513 196.467C929.653 229.735 894.934 249.78 859.193 245.15C827.238 241.01 799.447 239.95 775.326 241.438C537.277 256.122 656.538 518.976 656.538 518.976C679.505 571.978 742.326 681.107 884.692 780.335C930.371 812.173 932.033 883.459 883.813 911.298L800.956 959.136L777.924 972.434C759.76 982.92 737.725 984.956 718.603 976.341C577.272 912.662 496.158 801.422 473.377 750.125C454.009 711.149 429.651 625.52 477.761 600.252C506.627 585.091 541.957 580.038 595.355 603.025C605.534 584.142 617.765 565.161 631.402 546.027ZM1105.59 783.255C1088.29 793.242 1067.52 795.589 1049.06 787.96C956.623 749.751 799.016 654.151 729.535 498.779C724.307 487.087 719.911 476.062 716.286 465.674C652.723 283.476 826.621 296.984 909.292 332.298L951.614 307.863L993.936 283.429C1004.69 194.177 1079.94 36.8221 1205.95 182.969C1213.13 191.302 1220.48 200.621 1227.99 210.995C1327.81 348.853 1331.8 533.145 1318.66 632.306C1316.04 652.107 1303.63 668.92 1286.33 678.907L1195.96 731.081L1105.59 783.255Z" fill="#5BC8FB"/>
<path d="M775.326 241.438C799.447 239.95 827.238 241.01 859.193 245.15C894.934 249.78 929.653 229.735 943.513 196.467C955.906 166.723 968.883 142.126 982.232 121.98C961.051 88.9142 898.94 34.1849 819.94 79.7959C740.939 125.407 757.28 206.562 775.326 241.438Z" fill="#5BC8FB"/>
<path d="M800.935 46.879L709.575 24.3868L734.419 -68.3302L827.136 -43.4868L800.935 46.879Z" fill="#F35B5B"/>
<path d="M656.538 518.976L631.402 546.027M656.538 518.976C656.538 518.976 537.277 256.122 775.326 241.438M656.538 518.976C679.505 571.978 742.326 681.107 884.692 780.335C930.371 812.173 932.033 883.459 883.813 911.298L800.956 959.136M631.402 546.027C399.734 407.418 187.795 795.206 734.05 1044.72C747.695 1050.95 759.669 1061.41 767.169 1074.4C795.055 1122.7 814.981 1157.21 829.2 1181.84C848.525 1215.31 891.296 1226.74 924.768 1207.41L1334.42 970.9L1744.07 734.389C1777.54 715.063 1789.03 672.311 1769.71 638.838C1755.49 614.211 1735.56 579.698 1707.67 531.396C1700.17 518.405 1697.11 502.808 1698.53 487.875C1755.58 -109.952 1313.77 -120.301 1317.98 149.633M631.402 546.027C617.765 565.161 605.534 584.142 595.355 603.025M775.326 241.438C799.447 239.95 827.238 241.01 859.193 245.15C894.934 249.78 929.653 229.735 943.513 196.467C955.906 166.723 968.883 142.126 982.232 121.98M775.326 241.438C757.28 206.562 740.939 125.407 819.94 79.7959C898.94 34.1849 961.051 88.9142 982.232 121.98M800.956 959.136L777.924 972.434C759.76 982.92 737.725 984.956 718.603 976.341C577.272 912.662 496.158 801.422 473.377 750.125C454.009 711.149 429.651 625.52 477.761 600.252C506.627 585.091 541.957 580.038 595.355 603.025M800.956 959.136C548.194 834.883 531.854 720.833 595.355 603.025M909.292 332.298L951.614 307.863L993.936 283.429M909.292 332.298C826.621 296.984 652.723 283.476 716.286 465.674M909.292 332.298C844.452 366.598 749.774 430.666 716.286 465.674M716.286 465.674C719.911 476.062 724.307 487.087 729.535 498.779C799.016 654.151 956.623 749.751 1049.06 787.96C1067.52 795.589 1088.29 793.242 1105.59 783.255L1195.96 731.081L1286.33 678.907C1303.63 668.92 1316.04 652.107 1318.66 632.306C1331.8 533.145 1327.81 348.853 1227.99 210.995C1220.48 200.621 1213.13 191.302 1205.95 182.969M1281.98 157.876L1317.98 149.633M1281.98 157.876C1281.98 157.876 1113.97 -76.8341 982.232 121.98M1281.98 157.876C1316.4 204.268 1379.5 313.236 1394.25 486.143C1398.98 541.621 1459.89 578.703 1508.1 550.863L1590.96 503.026M1317.98 149.633C1341.37 147.39 1363.92 146.288 1385.36 146.915M1590.96 503.026L1613.99 489.728C1632.16 479.241 1644.94 461.177 1647.04 440.308C1662.56 286.072 1606.78 160.206 1573.74 114.829C1549.67 78.5671 1487.7 14.6585 1441.76 43.6888C1414.19 61.1071 1392.15 89.1769 1385.36 146.915M1590.96 503.026C1609.74 222.001 1519.14 150.825 1385.36 146.915M993.936 283.429C1004.69 194.177 1079.94 36.8221 1205.95 182.969M993.936 283.429C1056.06 244.426 1158.88 194.466 1205.95 182.969M800.935 46.879L709.575 24.3868L734.419 -68.3302L827.136 -43.4868L800.935 46.879Z" stroke="black" stroke-width="30.004"/>
<path d="M1119.44 442.515L1095.82 434.407L983.242 499.405L982.239 528.042L1147.89 664.719C1152.21 666.145 1156.2 667.414 1159.83 668.511L1119.44 442.515Z" fill="#88E6F5"/>
<path d="M1159.83 668.511C1173.4 610.645 1195.39 453.011 1190.54 387.218C1187.16 384.866 1182.6 382.076 1177.22 379.019L1119.44 442.515L1159.83 668.511Z" fill="#88E6F5"/>
<path fill-rule="evenodd" clip-rule="evenodd" d="M987.068 369.272C967.95 379.746 930.94 404.928 911.87 428.106C905.673 448.781 899.684 516.034 900.499 547.177C900.57 549.898 900.694 552.344 900.873 554.459C951.948 589.185 1084.5 643.79 1147.89 664.719L982.239 528.042L983.242 499.405L1095.82 434.407L1075.62 333.565C1046.01 338.491 1005.7 357.952 987.068 369.272Z" fill="#88E6F5"/>
<path d="M911.87 428.106C930.94 404.928 967.95 379.746 987.068 369.272C1005.7 357.952 1046.01 338.491 1075.62 333.565M911.87 428.106L983.242 499.405M911.87 428.106C905.673 448.781 899.684 516.034 900.499 547.177M1159.83 668.511C1173.4 610.645 1195.39 453.011 1190.54 387.218C1187.16 384.866 1182.6 382.076 1177.22 379.019M1159.83 668.511L1119.44 442.515M1159.83 668.511C1156.2 667.414 1152.21 666.145 1147.89 664.719M1075.62 333.565L1095.82 434.407M1075.62 333.565C1094.9 338.128 1148.08 362.466 1177.22 379.019M1095.82 434.407L1119.44 442.515M1095.82 434.407L983.242 499.405M1119.44 442.515L1177.22 379.019M983.242 499.405L982.239 528.042M982.239 528.042L900.499 547.177M982.239 528.042L1147.89 664.719M900.499 547.177C900.57 549.898 900.694 552.344 900.873 554.459C951.948 589.185 1084.5 643.79 1147.89 664.719" stroke="black" stroke-width="30" stroke-linecap="round" stroke-linejoin="round"/>
<path d="M1095.83 434.417L1075.62 333.575C1054.32 337.12 1027.47 348.192 1007.14 358.34L1082.73 441.98L1095.83 434.417Z" fill="#5FD8F0"/>
<path d="M1075.62 333.565L1095.82 434.407L1119.44 442.515L1177.22 379.019C1148.08 362.466 1094.9 338.128 1075.62 333.565Z" fill="#5FD8F0"/>
<path d="M1119.44 442.515L1095.82 434.407L983.242 499.405L982.239 528.042L1147.89 664.719C1152.21 666.145 1156.2 667.414 1159.83 668.511L1119.44 442.515Z" fill="#5FD8F0"/>
<path d="M1159.83 668.511C1173.4 610.645 1195.39 453.011 1190.54 387.218C1187.16 384.866 1182.6 382.076 1177.22 379.019L1119.44 442.515L1159.83 668.511Z" fill="#5FD8F0"/>
<path d="M911.87 428.106C930.94 404.928 967.95 379.746 987.068 369.272C1005.7 357.952 1046.01 338.491 1075.62 333.565M911.87 428.106L983.242 499.405M911.87 428.106C905.673 448.781 899.684 516.034 900.499 547.177M1159.83 668.511C1173.4 610.645 1195.39 453.011 1190.54 387.218C1187.16 384.866 1182.6 382.076 1177.22 379.019M1159.83 668.511L1119.44 442.515M1159.83 668.511C1156.2 667.414 1152.21 666.145 1147.89 664.719M1075.62 333.565L1095.82 434.407M1075.62 333.565C1094.9 338.128 1148.08 362.466 1177.22 379.019M1095.82 434.407L1119.44 442.515M1095.82 434.407L983.242 499.405M1119.44 442.515L1177.22 379.019M983.242 499.405L982.239 528.042M982.239 528.042L900.499 547.177M982.239 528.042L1147.89 664.719M900.499 547.177C900.57 549.898 900.694 552.344 900.873 554.459C951.948 589.185 1084.5 643.79 1147.89 664.719" stroke="black" stroke-width="30" stroke-linecap="round" stroke-linejoin="round"/>
<path d="M1119.44 442.515L1095.82 434.407L983.242 499.405L982.239 528.042L1147.89 664.719C1152.21 666.145 1156.2 667.414 1159.83 668.511L1119.44 442.515Z" fill="#88E6F5"/>
<path d="M1159.83 668.511C1173.4 610.645 1195.39 453.011 1190.54 387.218C1187.16 384.866 1182.6 382.076 1177.22 379.019L1119.44 442.515L1159.83 668.511Z" fill="#88E6F5"/>
<path fill-rule="evenodd" clip-rule="evenodd" d="M987.068 369.272C967.95 379.746 930.94 404.928 911.87 428.106C905.673 448.781 899.684 516.034 900.499 547.177C900.57 549.898 900.694 552.344 900.873 554.459C951.948 589.185 1084.5 643.79 1147.89 664.719L982.239 528.042L983.242 499.405L1095.82 434.407L1075.62 333.565C1046.01 338.491 1005.7 357.952 987.068 369.272Z" fill="#88E6F5"/>
<path d="M911.87 428.106C930.94 404.928 967.95 379.746 987.068 369.272C1005.7 357.952 1046.01 338.491 1075.62 333.565M911.87 428.106L983.242 499.405M911.87 428.106C905.673 448.781 899.684 516.034 900.499 547.177M1159.83 668.511C1173.4 610.645 1195.39 453.011 1190.54 387.218C1187.16 384.866 1182.6 382.076 1177.22 379.019M1159.83 668.511L1119.44 442.515M1159.83 668.511C1156.2 667.414 1152.21 666.145 1147.89 664.719M1075.62 333.565L1095.82 434.407M1075.62 333.565C1094.9 338.128 1148.08 362.466 1177.22 379.019M1095.82 434.407L1119.44 442.515M1095.82 434.407L983.242 499.405M1119.44 442.515L1177.22 379.019M983.242 499.405L982.239 528.042M982.239 528.042L900.499 547.177M982.239 528.042L1147.89 664.719M900.499 547.177C900.57 549.898 900.694 552.344 900.873 554.459C951.948 589.185 1084.5 643.79 1147.89 664.719" stroke="black" stroke-width="30" stroke-linecap="round" stroke-linejoin="round"/>
<path d="M1095.83 434.417L1075.62 333.575C1054.32 337.12 1027.47 348.192 1007.14 358.34L1082.73 441.98L1095.83 434.417Z" fill="#5FD8F0"/>
<path d="M1075.62 333.565L1095.82 434.407L1119.44 442.515L1177.22 379.019C1148.08 362.466 1094.9 338.128 1075.62 333.565Z" fill="#5FD8F0"/>
<path d="M1119.44 442.515L1095.82 434.407L983.242 499.405L982.239 528.042L1147.89 664.719C1152.21 666.145 1156.2 667.414 1159.83 668.511L1119.44 442.515Z" fill="#5FD8F0"/>
<path d="M1159.83 668.511C1173.4 610.645 1195.39 453.011 1190.54 387.218C1187.16 384.866 1182.6 382.076 1177.22 379.019L1119.44 442.515L1159.83 668.511Z" fill="#5FD8F0"/>
<path d="M911.87 428.106C930.94 404.928 967.95 379.746 987.068 369.272C1005.7 357.952 1046.01 338.491 1075.62 333.565M911.87 428.106L983.242 499.405M911.87 428.106C905.673 448.781 899.684 516.034 900.499 547.177M1159.83 668.511C1173.4 610.645 1195.39 453.011 1190.54 387.218C1187.16 384.866 1182.6 382.076 1177.22 379.019M1159.83 668.511L1119.44 442.515M1159.83 668.511C1156.2 667.414 1152.21 666.145 1147.89 664.719M1075.62 333.565L1095.82 434.407M1075.62 333.565C1094.9 338.128 1148.08 362.466 1177.22 379.019M1095.82 434.407L1119.44 442.515M1095.82 434.407L983.242 499.405M1119.44 442.515L1177.22 379.019M983.242 499.405L982.239 528.042M982.239 528.042L900.499 547.177M982.239 528.042L1147.89 664.719M900.499 547.177C900.57 549.898 900.694 552.344 900.873 554.459C951.948 589.185 1084.5 643.79 1147.89 664.719" stroke="black" stroke-width="30" stroke-linecap="round" stroke-linejoin="round"/>
<path d="M1097.53 1019.74C1095.09 1031.41 1083.03 1038.37 1071.7 1034.64L1026.57 1019.8C1017.04 1016.67 1011.3 1006.97 1013.16 997.112L1022.13 949.323C1024.4 937.28 1036.86 930.085 1048.42 934.147L1094.3 950.266C1103.76 953.59 1109.29 963.408 1107.24 973.225L1097.53 1019.74Z" fill="#5BC8FB" stroke="black" stroke-width="30.004"/>
<path d="M1520.98 775.255C1518.54 786.931 1506.49 793.89 1495.16 790.164L1450.02 775.323C1440.49 772.191 1434.76 762.487 1436.61 752.631L1445.59 704.842C1447.85 692.799 1460.31 685.604 1471.87 689.666L1517.75 705.785C1527.21 709.11 1532.75 718.927 1530.7 728.744L1520.98 775.255Z" fill="#5BC8FB" stroke="black" stroke-width="30.004"/>
</g>
<defs>
<clipPath id="clip0_4368_3918">
<rect width="3000" height="3000" fill="white" transform="translate(0 8.055) rotate(-0.153839)"/>
</clipPath>
</defs>
</svg>
