<svg width="3009" height="3009" viewBox="0 0 3009 3009" fill="none" xmlns="http://www.w3.org/2000/svg">
<g clip-path="url(#clip0_4368_4161)">
<path d="M1690.18 46.4487C1695.97 44.9179 1702.12 46.9806 1705.82 51.6951C1706.11 52.0634 1706.35 52.396 1706.5 52.6042C1706.69 52.864 1706.74 52.9234 1706.82 53.0289C1710.8 58.3299 1714.56 65.366 1718.15 73.4243L1718.87 75.0518L1718.88 75.0891C1724.99 89.2232 1728.84 104.669 1730.5 121.024L1730.5 121.025C1732.36 138.016 1731.69 154.374 1728.22 169.622L1728.23 169.623C1725.63 181.247 1722.22 192.157 1718 202.195C1717.95 202.315 1717.9 202.435 1717.84 202.554C1717.65 202.991 1716.95 204.622 1716.24 206.022C1716.23 206.044 1716.22 206.067 1716.21 206.09C1721.75 202.456 1727.64 200.28 1733.97 200.238C1742.4 200.181 1748.59 204.013 1751.88 206.208C1751.9 206.225 1751.93 206.241 1751.95 206.258C1755.88 208.914 1759.49 212.964 1761.86 219.633L1762.08 220.287L1762.21 220.678C1762.25 220.809 1762.28 220.941 1762.32 221.073C1765.63 233.121 1765.73 245.082 1761.26 256.485C1757.71 265.557 1751.66 273.247 1743.93 279.889C1748.03 279.571 1752.15 279.682 1756.16 280.23L1757.11 280.368L1757.45 280.424C1760.77 281.016 1764.39 281.963 1767.7 283.642C1770.85 285.232 1775.08 288.185 1777.48 293.432L1777.71 293.946L1777.73 293.991C1779.17 297.434 1782.7 306.147 1778.81 318.22C1775.22 329.374 1766.07 341.053 1749.11 353.767C1749.1 353.773 1749.09 353.778 1749.08 353.784C1743.04 358.301 1736.17 362.82 1728.69 367.228C1729.31 367.38 1729.91 367.57 1730.51 367.802C1731.06 368.017 1731.28 368.105 1731.47 368.181L1732.26 368.49L1732.51 368.587C1742.36 372.585 1749.43 379.412 1753.69 389.056C1753.82 389.328 1753.91 389.535 1753.95 389.636C1753.99 389.721 1754.02 389.804 1754.05 389.882C1754.34 390.562 1754.58 391.271 1754.77 392.007L1754.79 392.08C1755.63 395.347 1755.33 398.648 1754.13 401.551C1753.61 402.906 1752.92 404.231 1752.08 405.521C1750.46 407.983 1748.22 410.439 1745.23 412.933C1744.94 413.19 1744.66 413.419 1744.4 413.627C1734.85 421.703 1722.86 425.257 1710.57 429.109L1710.57 429.11C1700.96 432.151 1689.53 435.764 1676.15 441.47C1676.05 441.514 1675.95 441.557 1675.84 441.598C1675.24 441.839 1674.61 442.074 1674.08 442.269C1676.94 443.499 1679.42 445.616 1681.08 448.449C1681.16 448.586 1681.23 448.711 1681.29 448.822C1681.36 448.934 1681.41 449.036 1681.46 449.125C1681.55 449.3 1681.62 449.448 1681.67 449.547C1682.02 450.237 1682.32 450.953 1682.56 451.689C1684.28 456.954 1683.02 461.542 1681.89 464.163C1680.75 466.785 1679.2 468.804 1678.07 470.108C1675.78 472.749 1673.04 474.938 1671.13 476.352C1671.11 476.368 1671.09 476.384 1671.07 476.4C1659.47 484.91 1642.89 490.463 1624.27 493.546C1624.26 493.548 1624.25 493.55 1624.23 493.553C1612.14 495.52 1600.63 494.374 1589.97 489.3C1584.05 486.485 1580.65 480.156 1581.56 473.667L1601.93 328.867L1601.93 328.843C1603.13 320.437 1603.66 312.089 1603.59 303.823C1603.56 301.411 1603.5 299.123 1603.39 296.902C1602.45 278.592 1598.58 260.914 1592.17 244.37C1592.16 244.351 1592.15 244.333 1592.15 244.314C1590.82 240.858 1589.35 237.445 1587.76 234.037C1587.72 233.97 1587.68 233.882 1587.62 233.782C1587.57 233.681 1587.51 233.56 1587.45 233.424C1584.91 228.178 1585.65 221.938 1589.33 217.422C1593.91 211.8 1598.68 206.093 1603.7 200.405L1603.72 200.384L1605.03 198.911C1618.63 183.447 1636.2 163.322 1647.83 145.419L1647.94 145.247C1661.18 125.454 1674.23 102.189 1677.73 70.9302C1677.96 68.6753 1678.47 63.4567 1679.18 58.7362L1679.27 58.1839C1680.33 52.5119 1684.57 47.9318 1690.18 46.4487Z" fill="#E9F6FB" stroke="black" stroke-width="30" stroke-linejoin="round"/>
<path d="M350.94 817.67C346.64 821.842 345.235 828.173 347.366 833.772C347.533 834.209 347.691 834.591 347.791 834.829C347.915 835.126 347.944 835.193 347.994 835.316C350.478 841.465 354.564 848.318 359.617 855.549L360.641 857.002L360.665 857.035C369.623 869.557 380.866 880.828 394.02 890.686L394.02 890.688C407.619 901.043 421.974 908.913 436.826 913.808L436.826 913.809C448.123 917.582 459.229 920.289 470.004 921.855C470.133 921.873 470.262 921.891 470.392 921.906C470.868 921.963 472.626 922.205 474.19 922.323C474.214 922.326 474.239 922.328 474.264 922.331C468.295 925.199 463.39 929.125 460.09 934.522C455.689 941.719 455.778 949 455.963 952.947C455.964 952.977 455.965 953.008 455.967 953.038C456.217 957.771 457.825 962.951 462.316 968.419L462.76 968.95L463.031 969.259C463.123 969.36 463.216 969.461 463.31 969.56C471.925 978.607 482.119 984.867 494.192 986.923C503.797 988.559 513.504 987.346 523.181 984.152C520.793 987.502 518.764 991.086 517.166 994.8L516.794 995.684L516.667 996.006C515.46 999.156 514.405 1002.74 514.131 1006.45C513.871 1009.97 514.218 1015.12 517.473 1019.88L517.797 1020.34L517.826 1020.38C520.031 1023.39 525.675 1030.91 538.022 1033.81C549.43 1036.48 564.156 1034.67 583.797 1026.7C583.805 1026.7 583.815 1026.7 583.823 1026.69C590.814 1023.84 598.227 1020.29 605.861 1016.16C605.675 1016.76 605.524 1017.38 605.414 1018.01C605.313 1018.6 605.275 1018.83 605.242 1019.03L605.1 1019.87L605.055 1020.13C603.396 1030.63 605.599 1040.21 611.662 1048.83C611.829 1049.09 611.959 1049.27 612.023 1049.36C612.078 1049.43 612.132 1049.5 612.183 1049.57C612.616 1050.17 613.099 1050.74 613.632 1051.28L613.685 1051.34C616.037 1053.73 619.004 1055.18 622.094 1055.65L622.638 1055.74C623.914 1055.93 625.238 1056 626.599 1055.95C629.536 1055.84 632.796 1055.18 636.469 1053.91C636.84 1053.8 637.185 1053.67 637.503 1053.55C649.347 1049.54 658.581 1041.1 668.221 1032.56L668.221 1032.56C675.784 1025.9 684.775 1017.97 696.564 1009.46C696.655 1009.39 696.745 1009.32 696.834 1009.26C697.35 1008.87 697.878 1008.45 698.317 1008.09C697.898 1011.17 698.432 1014.39 700.001 1017.28C700.076 1017.42 700.147 1017.54 700.211 1017.65C700.275 1017.76 700.334 1017.86 700.386 1017.95C700.489 1018.12 700.578 1018.26 700.638 1018.35C701.047 1019.01 701.507 1019.63 702.014 1020.22C705.635 1024.41 710.219 1025.69 713.047 1026.07C715.878 1026.46 718.409 1026.17 720.11 1025.87C723.553 1025.27 726.842 1024.05 729.037 1023.15C729.062 1023.14 729.086 1023.13 729.111 1023.12C742.385 1017.58 755.698 1006.23 767.941 991.881C767.95 991.87 767.959 991.859 767.968 991.849C775.891 982.508 780.847 972.058 782.002 960.305C782.643 953.784 778.977 947.602 772.949 945.037L638.4 887.778L638.378 887.768C630.559 884.457 623.134 880.604 616.089 876.281C614.041 875.005 612.11 873.777 610.263 872.539C595.063 862.287 581.915 849.852 571.053 835.821C571.041 835.805 571.029 835.79 571.017 835.774C568.739 832.856 566.574 829.837 564.478 826.711C564.439 826.647 564.387 826.563 564.327 826.467C564.267 826.371 564.195 826.256 564.112 826.13C560.925 821.252 555.202 818.662 549.434 819.486C542.253 820.511 534.901 821.656 527.439 823.022L527.412 823.026L525.477 823.384C505.212 827.058 478.907 831.728 457.573 832.449L457.367 832.457C433.581 833.588 406.918 832.765 378.333 819.638C376.284 818.669 371.549 816.416 367.142 814.584L366.621 814.379C361.214 812.363 355.105 813.628 350.94 817.67Z" fill="#E9F6FB" stroke="black" stroke-width="30" stroke-linejoin="round"/>
<path d="M751.512 1036.89L477.011 730.264L701.301 704.604L674.547 497.342L884.43 531.923L888.585 212.54L1167.29 368.698L1242.29 169.643L1408.4 296.444L1542.77 115.033L1672.63 505.865C1736.64 489.645 1752.27 560.701 1692.84 565.275C1501.96 579.963 920.905 915.973 791.343 1085.76C760.618 1126.02 708.137 1086.12 751.512 1036.89Z" fill="#F8DA62"/>
<path d="M751.512 1036.89L477.011 730.264L701.301 704.604L674.547 497.342L884.43 531.923L888.585 212.54L1167.29 368.698L1242.29 169.643L1408.4 296.444L1542.77 115.033L1672.63 505.865M751.512 1036.89C990.259 794.026 1401.7 574.519 1672.63 505.865M751.512 1036.89C708.137 1086.12 760.618 1126.02 791.343 1085.76C920.905 915.973 1501.96 579.963 1692.84 565.275C1752.28 560.701 1736.64 489.645 1672.63 505.865" stroke="black" stroke-width="30" stroke-linejoin="round"/>
<path d="M1279.66 114.186C1293.65 138.417 1285.34 169.401 1261.11 183.39C1236.88 197.38 1205.9 189.078 1191.91 164.847C1177.92 140.616 1186.22 109.632 1210.45 95.6423C1234.68 81.6525 1265.67 89.9547 1279.66 114.186Z" fill="#FFF6CC" stroke="black" stroke-width="30"/>
<path d="M925.47 175.108C939.46 199.338 931.157 230.322 906.927 244.312C882.696 258.302 851.712 250 837.722 225.769C823.732 201.538 832.034 170.554 856.265 156.564C880.496 142.574 911.48 150.877 925.47 175.108Z" fill="#FFF6CC" stroke="black" stroke-width="30"/>
<path d="M695.373 451.522C709.362 475.753 701.06 506.737 676.829 520.726C652.598 534.716 621.614 526.414 607.625 502.183C593.635 477.952 601.937 446.968 626.168 432.978C650.399 418.988 681.383 427.291 695.373 451.522Z" fill="#FFF6CC" stroke="black" stroke-width="30"/>
<path d="M515.558 695.709C529.548 719.94 521.246 750.924 497.015 764.914C472.784 778.904 441.8 770.601 427.81 746.37C413.82 722.139 422.123 691.155 446.354 677.166C470.584 663.176 501.568 671.478 515.558 695.709Z" fill="#FFF6CC" stroke="black" stroke-width="30"/>
<path d="M1589.92 75.4278C1603.91 99.6588 1595.6 130.643 1571.37 144.633C1547.14 158.622 1516.16 150.32 1502.17 126.089C1488.18 101.858 1496.48 70.8742 1520.71 56.8845C1544.94 42.8947 1575.93 51.1969 1589.92 75.4278Z" fill="#FFF6CC" stroke="black" stroke-width="30"/>
<path d="M1046.59 505.244C1044.58 495.769 1055.87 489.252 1063.07 495.734L1098.79 527.9C1102.01 530.799 1106.73 531.295 1110.48 529.129L1152.11 505.093C1160.5 500.249 1170.19 508.971 1166.25 517.82L1146.7 561.736C1144.93 565.694 1145.92 570.336 1149.14 573.235L1184.87 605.401C1192.06 611.883 1186.76 623.79 1177.13 622.777L1129.32 617.753C1125.01 617.3 1120.9 619.673 1119.14 623.63L1099.59 667.546C1095.65 676.396 1082.68 675.033 1080.67 665.558L1070.68 618.537C1069.77 614.299 1066.25 611.123 1061.94 610.671L1014.13 605.646C1004.5 604.633 1001.79 591.884 1010.18 587.04L1051.81 563.005C1055.56 560.838 1057.49 556.503 1056.59 552.265L1046.59 505.244Z" fill="#FFF6CC" stroke="black" stroke-width="30" stroke-linejoin="round"/>
<path d="M1363.11 363.258C1363.62 353.584 1376.21 350.21 1381.48 358.335L1407.66 398.651C1410.02 402.284 1414.46 403.985 1418.64 402.864L1465.07 390.422C1474.43 387.914 1481.53 398.846 1475.43 406.374L1445.18 443.733C1442.45 447.099 1442.21 451.839 1444.57 455.472L1470.75 495.788C1476.02 503.913 1467.82 514.042 1458.78 510.571L1413.9 493.343C1409.85 491.791 1405.27 493.019 1402.54 496.386L1372.29 533.744C1366.19 541.273 1354.03 536.602 1354.53 526.928L1357.05 478.922C1357.28 474.596 1354.69 470.616 1350.65 469.063L1305.77 451.836C1296.72 448.364 1297.41 435.348 1306.76 432.841L1353.2 420.399C1357.38 419.278 1360.37 415.589 1360.59 411.263L1363.11 363.258Z" fill="#FFF6CC" stroke="black" stroke-width="30" stroke-linejoin="round"/>
<path d="M781.847 698.849C773.216 694.451 763.999 703.668 768.397 712.299L790.221 755.131C792.188 758.991 791.446 763.679 788.382 766.742L754.391 800.734C747.541 807.584 753.458 819.197 763.026 817.682L810.506 810.162C814.784 809.484 819.013 811.639 820.98 815.499L842.804 858.331C847.202 866.962 860.075 864.923 861.591 855.355L869.111 807.875C869.789 803.596 873.145 800.241 877.423 799.563L924.903 792.043C934.471 790.527 936.51 777.654 927.879 773.256L885.047 751.432C881.187 749.465 879.032 745.236 879.71 740.958L887.23 693.478C888.745 683.91 877.132 677.993 870.282 684.843L836.29 718.834C833.227 721.898 828.539 722.64 824.679 720.673L781.847 698.849Z" fill="#FFF6CC" stroke="black" stroke-width="30" stroke-linejoin="round"/>
</g>
<defs>
<clipPath id="clip0_4368_4161">
<rect width="3000" height="3000" fill="white" transform="translate(0 8.055) rotate(-0.153839)"/>
</clipPath>
</defs>
</svg>
