<svg width="3009" height="3009" viewBox="0 0 3009 3009" fill="none" xmlns="http://www.w3.org/2000/svg">
<g clip-path="url(#clip0_4368_4163)">
<path d="M745.296 1033.49L470.794 726.864L695.084 701.204L713.947 572.954L878.213 528.524L909.738 256.548L1161.08 365.299L1281.69 245.256L1402.19 293.044L1536.55 111.634L1666.41 502.466C1730.42 486.245 1746.06 557.302 1686.63 561.875C1495.74 576.563 914.688 912.574 785.127 1082.36C754.401 1122.62 701.92 1082.72 745.296 1033.49Z" fill="#F8DA62"/>
<path d="M745.296 1033.49L470.794 726.864L695.084 701.204L713.947 572.954L878.213 528.524L909.738 256.548L1161.08 365.299L1281.69 245.256L1402.19 293.044L1536.55 111.634L1666.41 502.466M745.296 1033.49C984.043 790.627 1395.49 571.119 1666.41 502.466M745.296 1033.49C701.92 1082.72 754.401 1122.62 785.127 1082.36C914.688 912.574 1495.74 576.563 1686.63 561.875C1746.06 557.302 1730.42 486.245 1666.41 502.466" stroke="black" stroke-width="30" stroke-linejoin="round"/>
<path d="M946.629 219.119C960.618 243.35 952.316 274.334 928.085 288.324C903.854 302.314 872.87 294.012 858.881 269.781C844.891 245.55 853.193 214.566 877.424 200.576C901.655 186.586 932.639 194.888 946.629 219.119Z" fill="#FFF6CC" stroke="black" stroke-width="30"/>
<path d="M509.344 692.311C523.334 716.542 515.031 747.526 490.8 761.515C466.57 775.505 435.586 767.203 421.596 742.972C407.606 718.741 415.908 687.757 440.139 673.767C464.37 659.778 495.354 668.08 509.344 692.311Z" fill="#FFF6CC" stroke="black" stroke-width="30"/>
<path d="M1583.7 72.0294C1597.69 96.2603 1589.39 127.244 1565.16 141.234C1540.93 155.224 1509.94 146.922 1495.95 122.691C1481.96 98.4598 1490.27 67.4758 1514.5 53.486C1538.73 39.4963 1569.71 47.7984 1583.7 72.0294Z" fill="#FFF6CC" stroke="black" stroke-width="30"/>
<path d="M1040.38 501.846C1038.37 492.37 1049.65 485.853 1056.85 492.335L1092.58 524.501C1095.8 527.4 1100.52 527.896 1104.27 525.73L1145.9 501.694C1154.29 496.851 1163.98 505.572 1160.04 514.422L1140.48 558.337C1138.72 562.295 1139.71 566.937 1142.93 569.836L1178.65 602.002C1185.85 608.484 1180.55 620.392 1170.91 619.379L1123.11 614.354C1118.8 613.901 1114.69 616.274 1112.93 620.232L1093.37 664.148C1089.43 672.997 1076.47 671.635 1074.46 662.159L1064.46 615.138C1063.56 610.901 1060.03 607.725 1055.73 607.272L1007.92 602.247C998.283 601.235 995.573 588.486 1003.96 583.642L1045.59 559.606C1049.35 557.44 1051.28 553.104 1050.38 548.867L1040.38 501.846Z" fill="#FFF6CC" stroke="black" stroke-width="30" stroke-linejoin="round"/>
</g>
<defs>
<clipPath id="clip0_4368_4163">
<rect width="3000" height="3000" fill="white" transform="translate(0 8.055) rotate(-0.153839)"/>
</clipPath>
</defs>
</svg>
