<svg width="3009" height="3009" viewBox="0 0 3009 3009" fill="none" xmlns="http://www.w3.org/2000/svg">
<g clip-path="url(#clip0_4368_4161)">
<path d="M1671.88 114.75C1677.67 113.219 1683.82 115.281 1687.52 119.996C1687.81 120.364 1688.05 120.697 1688.2 120.905C1688.39 121.165 1688.44 121.224 1688.52 121.33C1692.5 126.631 1696.26 133.667 1699.85 141.725L1700.57 143.353L1700.58 143.39C1706.69 157.524 1710.54 172.97 1712.2 189.325L1712.2 189.325C1714.06 206.317 1713.39 222.674 1709.92 237.923L1709.92 237.924C1707.33 249.548 1703.92 260.458 1699.7 270.496C1699.65 270.616 1699.6 270.736 1699.54 270.854C1699.35 271.292 1698.65 272.922 1697.94 274.323C1697.93 274.345 1697.92 274.367 1697.91 274.39C1703.45 270.757 1709.34 268.581 1715.67 268.538C1724.1 268.482 1730.29 272.314 1733.58 274.509C1733.6 274.525 1733.63 274.542 1733.65 274.559C1737.58 277.215 1741.19 281.265 1743.55 287.934L1743.78 288.588L1743.9 288.979C1743.94 289.11 1743.98 289.242 1744.02 289.373C1747.32 301.421 1747.43 313.383 1742.96 324.786C1739.41 333.858 1733.36 341.548 1725.63 348.19C1729.73 347.872 1733.85 347.983 1737.85 348.53L1738.8 348.668L1739.14 348.725C1742.47 349.317 1746.08 350.264 1749.4 351.943C1752.55 353.533 1756.78 356.486 1759.18 361.733L1759.41 362.247L1759.43 362.292C1760.87 365.734 1764.39 374.447 1760.51 386.52C1756.92 397.675 1747.76 409.354 1730.81 422.068C1730.8 422.073 1730.79 422.079 1730.78 422.085C1724.73 426.602 1717.87 431.121 1710.39 435.529C1711 435.681 1711.61 435.871 1712.21 436.103C1712.76 436.318 1712.98 436.405 1713.17 436.481L1713.96 436.791L1714.21 436.888C1724.06 440.885 1731.13 447.711 1735.39 457.353C1735.52 457.627 1735.61 457.835 1735.65 457.936C1735.7 458.043 1735.74 458.146 1735.78 458.241C1736.05 458.903 1736.29 459.593 1736.47 460.308L1736.49 460.381C1737.33 463.633 1737.03 466.918 1735.85 469.811L1735.64 470.322C1735.15 471.514 1734.52 472.681 1733.78 473.821C1732.17 476.281 1729.92 478.735 1726.94 481.227C1726.65 481.486 1726.36 481.718 1726.1 481.928C1716.55 490.004 1704.55 493.558 1692.27 497.41L1692.27 497.411C1682.66 500.452 1671.23 504.065 1657.85 509.771C1657.75 509.815 1657.65 509.858 1657.54 509.899C1656.94 510.14 1656.31 510.375 1655.78 510.57C1658.64 511.8 1661.12 513.917 1662.78 516.751C1662.86 516.887 1662.93 517.013 1662.99 517.125C1663.06 517.236 1663.11 517.338 1663.16 517.427C1663.25 517.602 1663.32 517.749 1663.37 517.848C1663.72 518.538 1664.02 519.254 1664.26 519.99C1665.98 525.255 1664.72 529.843 1663.58 532.464C1662.45 535.086 1660.9 537.104 1659.77 538.409C1657.48 541.05 1654.74 543.238 1652.83 544.653C1652.81 544.669 1652.79 544.685 1652.77 544.701C1641.17 553.211 1624.58 558.764 1605.97 561.847C1605.96 561.849 1605.94 561.851 1605.93 561.853C1593.84 563.821 1582.33 562.675 1571.67 557.601C1565.75 554.786 1562.35 548.456 1563.26 541.968L1583.63 397.168L1583.63 397.144C1584.83 388.738 1585.36 380.389 1585.29 372.124C1585.25 369.711 1585.2 367.424 1585.09 365.202C1584.15 346.893 1580.28 329.215 1573.87 312.671C1573.86 312.652 1573.85 312.634 1573.84 312.615C1572.52 309.159 1571.05 305.746 1569.45 302.338C1569.42 302.271 1569.37 302.183 1569.32 302.082C1569.27 301.982 1569.21 301.861 1569.15 301.725C1566.61 296.478 1567.34 290.239 1571.03 285.723C1575.61 280.1 1580.38 274.394 1585.4 268.706L1585.42 268.685L1586.73 267.212C1600.33 251.748 1617.9 231.623 1629.52 213.72L1629.64 213.548C1642.88 193.755 1655.93 170.49 1659.43 139.231C1659.66 136.976 1660.17 131.757 1660.88 127.037L1660.97 126.485C1662.03 120.813 1666.27 116.233 1671.88 114.75ZM1663.15 517.427C1663.14 517.412 1663.13 517.396 1663.12 517.381C1663.12 517.373 1663.11 517.366 1663.11 517.358C1663.12 517.381 1663.13 517.404 1663.15 517.427Z" fill="#E9F6FB" stroke="black" stroke-width="30" stroke-linejoin="round"/>
<path d="M419.242 835.967C414.942 840.139 413.537 846.47 415.669 852.069C415.835 852.507 415.993 852.888 416.093 853.126C416.217 853.423 416.246 853.49 416.295 853.612C418.78 859.762 422.866 866.615 427.918 873.846L428.943 875.299L428.967 875.332C437.925 887.854 449.167 899.125 462.322 908.983L462.322 908.985C475.921 919.34 490.276 927.209 505.128 932.105L505.128 932.106C516.425 935.879 527.531 938.586 538.306 940.151C538.435 940.17 538.564 940.188 538.693 940.203C539.17 940.26 540.92 940.501 542.482 940.619C542.508 940.622 542.536 940.625 542.565 940.629C536.596 943.496 531.692 947.423 528.392 952.819C523.991 960.016 524.08 967.297 524.264 971.244C524.266 971.274 524.267 971.304 524.268 971.335C524.519 976.068 526.126 981.248 530.618 986.716L531.062 987.246L531.333 987.556C531.424 987.657 531.517 987.757 531.612 987.856C540.227 996.904 550.421 1003.16 562.493 1005.22C572.099 1006.86 581.806 1005.64 591.483 1002.45C589.095 1005.8 587.066 1009.38 585.468 1013.1L585.095 1013.98L584.969 1014.3C583.762 1017.45 582.707 1021.04 582.432 1024.75C582.173 1028.26 582.519 1033.41 585.775 1038.18L586.099 1038.64L586.127 1038.67C588.332 1041.69 593.976 1049.2 606.324 1052.1C617.731 1054.78 632.458 1052.97 652.099 1045C652.107 1045 652.116 1044.99 652.125 1044.99C659.115 1042.14 666.529 1038.59 674.163 1034.46C673.977 1035.06 673.826 1035.68 673.717 1036.31C673.615 1036.9 673.577 1037.13 673.544 1037.33L673.401 1038.17L673.357 1038.43C671.698 1048.93 673.901 1058.51 679.964 1067.13C680.13 1067.38 680.26 1067.57 680.324 1067.65C680.379 1067.73 680.434 1067.8 680.485 1067.87C680.918 1068.47 681.401 1069.04 681.934 1069.58L681.986 1069.63C684.339 1072.03 687.305 1073.47 690.396 1073.95L690.939 1074.04C692.216 1074.23 693.539 1074.29 694.901 1074.24C697.838 1074.13 701.097 1073.48 704.771 1072.21C705.142 1072.09 705.486 1071.97 705.805 1071.85C717.649 1067.84 726.883 1059.4 736.522 1050.86L736.522 1050.86C744.086 1044.19 753.077 1036.27 764.866 1027.75C764.956 1027.69 765.046 1027.62 765.135 1027.56C765.652 1027.16 766.179 1026.74 766.619 1026.39C766.2 1029.47 766.734 1032.69 768.303 1035.58C768.379 1035.72 768.45 1035.84 768.514 1035.95C768.578 1036.06 768.636 1036.16 768.689 1036.25C768.791 1036.41 768.88 1036.55 768.94 1036.65C769.349 1037.3 769.809 1037.93 770.315 1038.51C773.936 1042.71 778.52 1043.99 781.349 1044.37C784.179 1044.75 786.711 1044.46 788.412 1044.17C791.855 1043.57 795.144 1042.35 797.339 1041.45C797.363 1041.44 797.388 1041.43 797.412 1041.42C810.686 1035.87 824 1024.53 836.243 1010.18C836.252 1010.17 836.261 1010.16 836.27 1010.15C844.192 1000.8 849.149 990.354 850.304 978.602C850.945 972.081 847.279 965.899 841.25 963.333L706.702 906.074L706.679 906.065C698.861 902.753 691.436 898.901 684.391 894.578C682.343 893.302 680.412 892.074 678.564 890.836C663.365 880.584 650.217 868.149 639.355 854.118C639.343 854.102 639.331 854.087 639.318 854.071C637.041 851.153 634.876 848.134 632.78 845.008C632.74 844.944 632.689 844.86 632.629 844.764C632.569 844.668 632.497 844.554 632.414 844.427C629.227 839.549 623.504 836.959 617.736 837.783C610.554 838.808 603.203 839.953 595.741 841.319L595.714 841.323L593.778 841.681C573.514 845.355 547.209 850.025 525.874 850.746L525.669 850.754C501.888 851.884 475.232 851.062 446.655 837.945C444.617 836.981 439.865 834.719 435.444 832.881L434.923 832.675C429.515 830.66 423.407 831.925 419.242 835.967ZM768.696 1036.24C768.686 1036.22 768.676 1036.21 768.667 1036.19C768.659 1036.18 768.652 1036.16 768.644 1036.15C768.661 1036.18 768.678 1036.21 768.696 1036.24ZM632.642 844.807C632.651 844.82 632.659 844.833 632.668 844.846C632.585 844.724 632.502 844.603 632.416 844.484C632.504 844.606 632.58 844.715 632.642 844.807Z" fill="#E9F6FB" stroke="black" stroke-width="30" stroke-linejoin="round"/>
<path d="M751.512 1036.89L477.011 730.264L701.301 704.604L674.547 497.342L884.43 531.923L888.585 212.54L1167.29 368.698L1242.29 169.643L1408.4 296.444L1542.77 115.033L1672.63 505.865C1736.64 489.645 1752.27 560.701 1692.84 565.275C1501.96 579.963 920.905 915.973 791.343 1085.76C760.618 1126.02 708.137 1086.12 751.512 1036.89Z" fill="#F8DA62"/>
<path d="M751.512 1036.89L477.011 730.264L701.301 704.604L674.547 497.342L884.43 531.923L888.585 212.54L1167.29 368.698L1242.29 169.643L1408.4 296.444L1542.77 115.033L1672.63 505.865M751.512 1036.89C990.259 794.026 1401.7 574.519 1672.63 505.865M751.512 1036.89C708.137 1086.12 760.618 1126.02 791.343 1085.76C920.905 915.973 1501.96 579.963 1692.84 565.275C1752.28 560.701 1736.64 489.645 1672.63 505.865" stroke="black" stroke-width="30" stroke-linejoin="round"/>
<path d="M1279.66 114.186C1293.65 138.417 1285.34 169.401 1261.11 183.39C1236.88 197.38 1205.9 189.078 1191.91 164.847C1177.92 140.616 1186.22 109.632 1210.45 95.6423C1234.68 81.6525 1265.67 89.9547 1279.66 114.186Z" fill="#FFF6CC" stroke="black" stroke-width="30"/>
<path d="M925.47 175.108C939.46 199.338 931.157 230.322 906.927 244.312C882.696 258.302 851.712 250 837.722 225.769C823.732 201.538 832.034 170.554 856.265 156.564C880.496 142.574 911.48 150.877 925.47 175.108Z" fill="#FFF6CC" stroke="black" stroke-width="30"/>
<path d="M695.373 451.522C709.362 475.753 701.06 506.737 676.829 520.726C652.598 534.716 621.614 526.414 607.625 502.183C593.635 477.952 601.937 446.968 626.168 432.978C650.399 418.988 681.383 427.291 695.373 451.522Z" fill="#FFF6CC" stroke="black" stroke-width="30"/>
<path d="M515.558 695.709C529.548 719.94 521.246 750.924 497.015 764.914C472.784 778.904 441.8 770.601 427.81 746.37C413.82 722.139 422.123 691.155 446.354 677.166C470.584 663.176 501.568 671.478 515.558 695.709Z" fill="#FFF6CC" stroke="black" stroke-width="30"/>
<path d="M1589.92 75.4278C1603.91 99.6588 1595.6 130.643 1571.37 144.633C1547.14 158.622 1516.16 150.32 1502.17 126.089C1488.18 101.858 1496.48 70.8742 1520.71 56.8845C1544.94 42.8947 1575.93 51.1969 1589.92 75.4278Z" fill="#FFF6CC" stroke="black" stroke-width="30"/>
<path d="M1046.59 505.244C1044.58 495.769 1055.87 489.252 1063.07 495.734L1098.79 527.9C1102.01 530.799 1106.73 531.295 1110.48 529.129L1152.11 505.093C1160.5 500.249 1170.19 508.971 1166.25 517.82L1146.7 561.736C1144.93 565.694 1145.92 570.336 1149.14 573.235L1184.87 605.401C1192.06 611.883 1186.76 623.79 1177.13 622.777L1129.32 617.753C1125.01 617.3 1120.9 619.673 1119.14 623.63L1099.59 667.546C1095.65 676.396 1082.68 675.033 1080.67 665.558L1070.68 618.537C1069.77 614.299 1066.25 611.123 1061.94 610.671L1014.13 605.646C1004.5 604.633 1001.79 591.884 1010.18 587.04L1051.81 563.005C1055.56 560.838 1057.49 556.503 1056.59 552.265L1046.59 505.244Z" fill="#FFF6CC" stroke="black" stroke-width="30" stroke-linejoin="round"/>
<path d="M1363.11 363.258C1363.62 353.584 1376.21 350.21 1381.48 358.335L1407.66 398.651C1410.02 402.284 1414.46 403.985 1418.64 402.864L1465.07 390.422C1474.43 387.914 1481.53 398.846 1475.43 406.374L1445.18 443.733C1442.45 447.099 1442.21 451.839 1444.57 455.472L1470.75 495.788C1476.02 503.913 1467.82 514.042 1458.78 510.571L1413.9 493.343C1409.85 491.791 1405.27 493.019 1402.54 496.386L1372.29 533.744C1366.19 541.273 1354.03 536.602 1354.53 526.928L1357.05 478.922C1357.28 474.596 1354.69 470.616 1350.65 469.063L1305.77 451.836C1296.72 448.364 1297.41 435.348 1306.76 432.841L1353.2 420.399C1357.38 419.278 1360.37 415.589 1360.59 411.263L1363.11 363.258Z" fill="#FFF6CC" stroke="black" stroke-width="30" stroke-linejoin="round"/>
<path d="M781.847 698.849C773.216 694.451 763.999 703.668 768.397 712.299L790.221 755.131C792.188 758.991 791.446 763.679 788.382 766.742L754.391 800.734C747.541 807.584 753.458 819.197 763.026 817.682L810.506 810.162C814.784 809.484 819.013 811.639 820.98 815.499L842.804 858.331C847.202 866.962 860.075 864.923 861.591 855.355L869.111 807.875C869.789 803.596 873.145 800.241 877.423 799.563L924.903 792.043C934.471 790.527 936.51 777.654 927.879 773.256L885.047 751.432C881.187 749.465 879.032 745.236 879.71 740.958L887.23 693.478C888.745 683.91 877.132 677.993 870.282 684.843L836.29 718.834C833.227 721.898 828.539 722.64 824.679 720.673L781.847 698.849Z" fill="#FFF6CC" stroke="black" stroke-width="30" stroke-linejoin="round"/>
</g>
<defs>
<clipPath id="clip0_4368_4161">
<rect width="3000" height="3000" fill="white" transform="translate(0 8.055) rotate(-0.153839)"/>
</clipPath>
</defs>
</svg>
