<svg width="3009" height="3009" viewBox="0 0 3009 3009" fill="none" xmlns="http://www.w3.org/2000/svg">
<g clip-path="url(#clip0_4368_3929)">
<path d="M1692.55 147.285C1698.35 145.754 1704.49 147.817 1708.19 152.531C1708.48 152.899 1708.72 153.232 1708.88 153.44C1709.07 153.7 1709.11 153.759 1709.19 153.865C1713.17 159.166 1716.94 166.202 1720.52 174.26L1721.24 175.888L1721.26 175.925C1727.36 190.059 1731.22 205.505 1732.88 221.86L1732.88 221.861C1734.73 238.852 1734.07 255.21 1730.6 270.458L1730.6 270.459C1728 282.083 1724.59 292.993 1720.37 303.031C1720.32 303.151 1720.27 303.271 1720.22 303.39C1720.02 303.827 1719.32 305.458 1718.61 306.858C1718.6 306.88 1718.59 306.903 1718.58 306.926C1724.12 303.292 1730.01 301.116 1736.34 301.074C1744.78 301.017 1750.97 304.849 1754.25 307.044C1754.28 307.061 1754.3 307.077 1754.33 307.094C1758.25 309.75 1761.86 313.8 1764.23 320.469L1764.45 321.123L1764.58 321.514C1764.62 321.645 1764.66 321.777 1764.69 321.909C1768 333.957 1768.1 345.918 1763.63 357.321C1760.08 366.393 1754.03 374.083 1746.3 380.725C1750.41 380.407 1754.52 380.518 1758.53 381.066L1759.48 381.204L1759.82 381.26C1763.14 381.852 1766.76 382.799 1770.08 384.478C1773.22 386.068 1777.45 389.021 1779.85 394.268L1780.08 394.782L1780.1 394.827C1781.54 398.269 1785.07 406.982 1781.18 419.056C1777.59 430.21 1768.44 441.889 1751.48 454.603C1751.47 454.609 1751.46 454.614 1751.46 454.62C1745.41 459.137 1738.54 463.656 1731.06 468.064C1731.68 468.216 1732.29 468.406 1732.88 468.638C1733.44 468.853 1733.66 468.941 1733.85 469.017L1734.64 469.326L1734.88 469.423C1744.74 473.421 1751.8 480.248 1756.06 489.892C1756.19 490.164 1756.28 490.371 1756.33 490.472C1756.36 490.557 1756.39 490.64 1756.43 490.718C1756.71 491.398 1756.96 492.107 1757.14 492.843L1757.16 492.916C1758.01 496.183 1757.71 499.483 1756.5 502.387C1755.98 503.742 1755.29 505.067 1754.45 506.356C1752.84 508.819 1750.59 511.275 1747.6 513.769C1747.32 514.026 1747.04 514.255 1746.77 514.463C1737.22 522.539 1725.23 526.093 1712.94 529.945L1712.94 529.946C1703.33 532.987 1691.9 536.6 1678.53 542.306C1678.42 542.35 1678.32 542.393 1678.22 542.434C1677.62 542.675 1676.98 542.91 1676.46 543.105C1679.31 544.335 1681.79 546.452 1683.45 549.285C1683.53 549.422 1683.61 549.547 1683.67 549.658C1683.73 549.77 1683.78 549.872 1683.83 549.961C1683.92 550.136 1683.99 550.284 1684.04 550.383C1684.39 551.073 1684.69 551.789 1684.93 552.525C1686.66 557.79 1685.39 562.378 1684.26 564.999C1683.13 567.621 1681.57 569.64 1680.44 570.944C1678.15 573.585 1675.41 575.774 1673.5 577.188C1673.48 577.204 1673.46 577.22 1673.44 577.236C1661.84 585.746 1645.26 591.299 1626.65 594.382C1626.63 594.384 1626.62 594.386 1626.6 594.389C1614.52 596.356 1603.01 595.21 1592.34 590.136C1586.43 587.321 1583.02 580.992 1583.93 574.503L1604.3 429.703L1604.31 429.679C1605.5 421.273 1606.03 412.924 1605.96 404.659C1605.93 402.247 1605.87 399.959 1605.76 397.738C1604.82 379.428 1600.96 361.75 1594.54 345.206C1594.53 345.187 1594.53 345.169 1594.52 345.15C1593.19 341.694 1591.72 338.281 1590.13 334.873C1590.09 334.806 1590.05 334.718 1590 334.618C1589.95 334.517 1589.88 334.396 1589.82 334.26C1587.28 329.014 1588.02 322.774 1591.7 318.258C1596.28 312.636 1601.06 306.929 1606.08 301.241L1606.09 301.22L1607.4 299.747C1621 284.283 1638.57 264.158 1650.2 246.255L1650.31 246.083C1663.55 226.29 1676.6 203.025 1680.11 171.766C1680.33 169.511 1680.85 164.293 1681.55 159.572L1681.64 159.02C1682.71 153.348 1686.94 148.768 1692.55 147.285Z" fill="#E9F6FB" stroke="black" stroke-width="30" stroke-linejoin="round"/>
<path d="M439.915 868.506C435.615 872.678 434.21 879.009 436.341 884.608C436.508 885.045 436.667 885.427 436.766 885.665C436.89 885.962 436.919 886.029 436.969 886.152C439.453 892.301 443.539 899.154 448.592 906.385L449.616 907.838L449.64 907.871C458.598 920.393 469.841 931.664 482.995 941.522L482.995 941.524C496.594 951.879 510.949 959.749 525.802 964.644L525.802 964.645C537.098 968.418 548.204 971.125 558.979 972.69C559.108 972.709 559.237 972.727 559.367 972.742C559.844 972.799 561.601 973.041 563.165 973.159C563.189 973.161 563.214 973.164 563.239 973.167C557.27 976.035 552.365 979.961 549.065 985.358C544.664 992.555 544.753 999.836 544.938 1003.78C544.939 1003.81 544.94 1003.84 544.942 1003.87C545.192 1008.61 546.8 1013.79 551.292 1019.26L551.736 1019.79L552.006 1020.09C552.098 1020.2 552.191 1020.3 552.285 1020.4C560.9 1029.44 571.094 1035.7 583.167 1037.76C592.772 1039.39 602.48 1038.18 612.156 1034.99C609.768 1038.34 607.739 1041.92 606.141 1045.64L605.769 1046.52L605.642 1046.84C604.435 1049.99 603.38 1053.58 603.106 1057.29C602.846 1060.8 603.193 1065.95 606.448 1070.72L606.772 1071.18L606.801 1071.21C609.006 1074.23 614.65 1081.74 626.997 1084.64C638.405 1087.32 653.131 1085.51 672.772 1077.54C672.78 1077.53 672.79 1077.53 672.798 1077.53C679.789 1074.68 687.202 1071.13 694.836 1066.99C694.65 1067.6 694.499 1068.22 694.39 1068.85C694.288 1069.43 694.25 1069.67 694.217 1069.87L694.075 1070.7L694.03 1070.97C692.371 1081.47 694.574 1091.05 700.637 1099.67C700.804 1099.92 700.934 1100.11 700.998 1100.19C701.053 1100.27 701.108 1100.34 701.158 1100.41C701.591 1101 702.074 1101.58 702.607 1102.12L702.66 1102.17C705.012 1104.57 707.979 1106.01 711.069 1106.49L711.613 1106.58C712.889 1106.77 714.213 1106.83 715.574 1106.78C718.511 1106.67 721.771 1106.02 725.444 1104.75C725.815 1104.63 726.16 1104.51 726.478 1104.39C738.322 1100.38 747.556 1091.93 757.196 1083.4L757.196 1083.4C764.759 1076.73 773.75 1068.81 785.539 1060.29C785.63 1060.23 785.72 1060.16 785.809 1060.09C786.326 1059.7 786.853 1059.28 787.292 1058.93C786.873 1062.01 787.407 1065.23 788.976 1068.11C789.051 1068.25 789.122 1068.38 789.186 1068.49C789.25 1068.6 789.309 1068.7 789.361 1068.78C789.464 1068.95 789.553 1069.09 789.613 1069.18C790.023 1069.84 790.482 1070.47 790.989 1071.05C794.61 1075.25 799.194 1076.53 802.022 1076.91C804.853 1077.29 807.384 1077 809.085 1076.71C812.528 1076.11 815.817 1074.89 818.012 1073.99C818.037 1073.98 818.061 1073.97 818.086 1073.96C831.36 1068.41 844.673 1057.07 856.916 1042.72C856.925 1042.71 856.934 1042.7 856.944 1042.68C864.866 1033.34 869.823 1022.89 870.977 1011.14C871.618 1004.62 867.953 998.438 861.924 995.872L727.375 938.614L727.353 938.604C719.534 935.292 712.109 931.44 705.064 927.117C703.016 925.841 701.086 924.613 699.238 923.375C684.038 913.123 670.891 900.688 660.029 886.657C660.016 886.641 660.004 886.626 659.992 886.61C657.714 883.692 655.549 880.673 653.453 877.547C653.414 877.483 653.362 877.398 653.302 877.303C653.242 877.207 653.17 877.092 653.088 876.966C649.901 872.088 644.177 869.498 638.409 870.322C631.228 871.347 623.877 872.492 616.414 873.858L616.387 873.862L614.452 874.22C594.187 877.894 567.882 882.564 546.548 883.285L546.342 883.293C522.556 884.424 495.893 883.601 467.308 870.474C465.259 869.505 460.524 867.252 456.117 865.42L455.596 865.215C450.189 863.199 444.08 864.464 439.915 868.506Z" fill="#E9F6FB" stroke="black" stroke-width="30" stroke-linejoin="round"/>
<path d="M-37.6924 387.885C-41.9921 392.057 -43.397 398.388 -41.2657 403.987C-41.0772 404.482 -40.8957 404.921 -40.7723 405.216C-40.6324 405.551 -40.577 405.681 -40.5088 405.848L-40.2008 406.597C-36.9525 414.377 -31.5653 423.24 -24.7747 432.786C-24.767 432.796 -24.7586 432.807 -24.7509 432.818C-13.5512 448.473 0.5365 462.608 17.0781 475.001L17.0781 475.003C34.1782 488.024 52.1519 497.859 70.6647 503.959C84.9168 508.719 98.89 512.123 112.41 514.087C112.539 514.105 112.669 514.123 112.799 514.138C113.58 514.231 115.689 514.523 117.554 514.659C117.618 514.667 117.693 514.677 117.77 514.686C117.894 514.7 118.076 514.717 118.298 514.735C121.358 515.03 124.595 515.153 128.762 515.091C128.792 515.091 128.823 515.09 128.853 515.09C140.702 514.842 153.169 513.105 165.937 510.127C165.957 510.122 165.978 510.117 165.998 510.112C166.809 509.92 167.727 510.415 167.972 511.33C168.172 512.235 167.594 513.116 166.764 513.322L166.719 513.333C154.125 516.506 142.204 518.277 131.334 518.682C129.951 518.734 128.581 518.976 127.265 519.403C116.227 522.983 107.73 528.43 102.7 536.655C98.061 544.241 97.8141 551.961 97.9891 556.904L98.0286 557.854L98.0333 557.944C98.3151 563.274 100.144 569.259 105.73 575.809C105.908 576.017 106.092 576.221 106.28 576.42C116.823 587.491 129.093 594.953 143.477 597.402C157.551 599.799 172.006 597.114 186.682 590.96C186.87 590.892 187.058 590.821 187.245 590.745C187.409 590.691 187.49 590.67 187.503 590.666L187.503 590.665C200.032 588.086 220.32 580.706 251.893 561.324C252.269 561.124 252.614 560.922 252.926 560.724C253.209 560.582 253.521 560.534 253.868 560.588C254.241 560.646 254.563 560.811 254.799 561.034L254.894 561.133L254.907 561.147C254.933 561.176 254.996 561.253 255.118 561.442C255.543 562.185 255.287 563.17 254.578 563.605L254.537 563.63C228.675 579.587 208.641 588.866 193.105 592.849L192.503 593.017C189.516 593.917 186.878 595.727 184.964 598.202C181.346 602.88 178.327 607.984 176.043 613.292L175.596 614.356L175.469 614.678C174.001 618.509 172.798 622.675 172.489 626.858C172.195 630.832 172.614 636.343 176.048 641.369L176.39 641.853L176.419 641.892C179.032 645.461 185.498 654.105 199.843 657.474C213.249 660.622 231.15 658.618 255.903 648.576C255.912 648.573 255.921 648.569 255.929 648.566C266.211 644.373 277.265 638.961 288.678 632.55C289.016 632.36 289.347 632.156 289.67 631.94C290.451 631.418 291.18 631.007 292.741 630.085L292.74 630.083C294.075 629.314 295.356 628.501 296.33 627.884L296.33 627.883C305.632 622 315.497 615.868 317.921 614.632C317.962 614.611 318.003 614.589 318.045 614.568C318.362 614.403 318.664 614.366 318.987 614.429C319.302 614.491 319.596 614.644 319.824 614.862L319.917 614.959L319.941 614.986C319.911 614.952 320.007 615.055 320.175 615.36C320.553 616.111 320.263 617.14 319.451 617.572L319.452 617.572C317.285 618.726 310.103 623.103 298.166 630.639L297.969 630.765C297.273 631.22 296.915 631.447 296.602 631.627C292.738 633.849 290.063 637.674 289.3 642.065C289.184 642.735 289.13 643.055 289.082 643.346L288.895 644.453L288.85 644.715C286.893 657.108 289.471 668.282 296.629 678.438C296.811 678.714 296.954 678.917 297.024 679.014C297.12 679.146 297.214 679.267 297.297 679.375C297.713 679.939 298.171 680.482 298.676 680.996L298.745 681.066C301.119 683.485 304.118 684.93 307.239 685.393C307.244 685.394 307.248 685.396 307.253 685.397C308.773 685.669 310.398 685.774 312.121 685.71C315.392 685.587 319.168 684.847 323.597 683.31C324.037 683.178 324.441 683.034 324.81 682.89C339.039 678.1 350.222 667.943 362.785 656.817L362.785 656.818C372.47 648.284 384.114 638.018 399.387 626.986C399.478 626.921 399.568 626.855 399.657 626.788C400.641 626.043 401.658 625.215 402.296 624.701C403.82 623.525 404.076 623.282 404.796 622.763C405.139 622.516 405.472 622.253 405.792 621.978C412.804 615.963 416.163 612.687 418.654 610.194L419.848 609.021C419.884 608.986 419.919 608.949 419.954 608.913L420.193 608.702C420.805 608.204 421.789 608.231 422.398 608.853L422.398 608.854C423.014 609.484 423.038 610.524 422.35 611.2L421.888 611.653L421.633 611.908C420.33 613.251 417.782 615.899 413.137 620.041L412.661 620.484C407.86 625.15 406.717 632.472 409.939 638.4C410.09 638.677 410.227 638.908 410.331 639.079C410.403 639.197 410.469 639.299 410.523 639.383C410.958 640.103 411.454 640.785 412.004 641.422C415.734 645.74 420.483 647.092 423.512 647.502C426.544 647.912 429.314 647.607 431.272 647.267C435.229 646.58 439.107 645.154 441.821 644.038C441.845 644.028 441.87 644.017 441.894 644.007C458.021 637.272 474.554 623.305 490.027 605.165C490.036 605.155 490.045 605.144 490.054 605.133C499.737 593.716 505.661 581.12 507.043 567.059C507.684 560.538 504.018 554.356 497.989 551.79L325.741 478.488L325.718 478.478C315.538 474.165 305.87 469.153 296.699 463.53C294.023 461.864 291.475 460.246 289.025 458.604C269.186 445.225 252.024 428.993 237.847 410.679C237.834 410.663 237.821 410.647 237.809 410.631C234.809 406.788 231.965 402.82 229.221 398.725C229.203 398.695 229.181 398.661 229.16 398.625C229.075 398.486 228.936 398.261 228.765 397.999C225.578 393.121 219.855 390.53 214.087 391.354C204.928 392.662 195.574 394.12 186.091 395.855L186.064 395.86L183.637 396.308C157.75 401.002 123.731 407.053 96.0338 407.99L95.8286 407.998C65.1001 409.458 30.1553 408.424 -7.35876 391.183C-10.006 389.931 -15.9644 387.096 -21.4901 384.8C-27.0224 382.5 -33.3925 383.713 -37.6924 387.885ZM191.966 587.976C192.223 587.754 192.461 587.535 192.68 587.319C192.445 587.551 192.205 587.769 191.966 587.976ZM190.173 589.303C190.501 589.096 190.81 588.884 191.101 588.669C191.24 588.566 191.374 588.461 191.504 588.357C191.062 588.71 190.617 589.024 190.173 589.303Z" fill="#E9F6FB" stroke="black" stroke-width="30" stroke-linejoin="round"/>
<path d="M189.658 378.807C185.358 382.979 183.953 389.309 186.084 394.909C186.251 395.346 186.409 395.727 186.509 395.966C186.633 396.263 186.662 396.33 186.711 396.452C189.196 402.602 193.282 409.455 198.334 416.686L199.359 418.139L199.383 418.172C208.341 430.693 219.583 441.964 232.738 451.823L232.738 451.825C246.337 462.18 260.692 470.049 275.544 474.945L275.544 474.946C286.841 478.719 297.947 481.426 308.722 482.991C308.851 483.01 308.98 483.028 309.11 483.043C309.586 483.1 311.344 483.342 312.908 483.459C312.932 483.462 312.956 483.465 312.982 483.468C307.013 486.336 302.108 490.262 298.808 495.659C294.407 502.856 294.496 510.137 294.68 514.084C294.682 514.114 294.683 514.144 294.684 514.174C294.935 518.907 296.542 524.087 301.034 529.556L301.478 530.086L301.749 530.395C301.84 530.497 301.933 530.597 302.028 530.696C310.643 539.744 320.837 546.003 332.909 548.059C342.515 549.695 352.222 548.483 361.899 545.289C359.511 548.639 357.482 552.222 355.884 555.937L355.511 556.821L355.385 557.142C354.178 560.293 353.123 563.881 352.849 567.59C352.589 571.104 352.935 576.253 356.191 581.016L356.515 581.476L356.543 581.515C358.748 584.526 364.392 592.043 376.74 594.942C388.147 597.621 402.874 595.807 422.515 587.839C422.523 587.836 422.532 587.832 422.541 587.828C429.531 584.977 436.945 581.427 444.579 577.295C444.393 577.899 444.242 578.518 444.132 579.149C444.03 579.734 443.993 579.967 443.96 580.169L443.817 581.005L443.773 581.268C442.114 591.77 444.317 601.346 450.38 609.971C450.546 610.222 450.677 610.407 450.741 610.495C450.795 610.57 450.85 610.64 450.901 610.708C451.334 611.305 451.817 611.878 452.35 612.421L452.402 612.474C454.755 614.871 457.721 616.313 460.812 616.789L461.355 616.879C462.632 617.069 463.955 617.134 465.317 617.083C468.254 616.973 471.513 616.317 475.187 615.046C475.558 614.933 475.902 614.81 476.221 614.688C488.065 610.679 497.299 602.235 506.938 593.697L506.938 593.698C514.502 587.034 523.493 579.108 535.282 570.593C535.373 570.528 535.463 570.462 535.552 570.394C536.068 570.004 536.595 569.584 537.035 569.231C536.616 572.311 537.15 575.529 538.719 578.415C538.794 578.554 538.865 578.68 538.928 578.79C538.992 578.9 539.052 578.999 539.104 579.085C539.207 579.254 539.296 579.393 539.356 579.486C539.765 580.142 540.225 580.767 540.731 581.354C544.353 585.546 548.936 586.828 551.765 587.211C554.595 587.594 557.127 587.303 558.828 587.008C562.271 586.41 565.56 585.191 567.755 584.287C567.779 584.277 567.804 584.268 567.828 584.257C581.102 578.713 594.416 567.37 606.659 553.018C606.668 553.007 606.677 552.996 606.686 552.985C614.608 543.644 619.565 533.194 620.72 521.442C621.361 514.921 617.695 508.739 611.666 506.173L477.118 448.914L477.095 448.905C469.277 445.593 461.852 441.741 454.807 437.418C452.759 436.142 450.828 434.914 448.98 433.676C433.781 423.424 420.633 410.989 409.771 396.958C409.759 396.942 409.747 396.926 409.734 396.911C407.457 393.993 405.292 390.974 403.196 387.848C403.156 387.784 403.104 387.699 403.045 387.604C402.985 387.508 402.913 387.393 402.83 387.267C399.643 382.389 393.919 379.798 388.152 380.622C380.97 381.648 373.619 382.793 366.157 384.158L366.13 384.163L364.194 384.521C343.93 388.195 317.625 392.864 296.29 393.586L296.085 393.594C272.298 394.724 245.636 393.901 217.051 380.775C215.002 379.806 210.267 377.553 205.86 375.721L205.339 375.515C199.931 373.5 193.823 374.765 189.658 378.807Z" fill="#E9F6FB" stroke="black" stroke-width="30" stroke-linejoin="round"/>
<path d="M1505.56 -503.112C1511.32 -504.75 1517.51 -502.801 1521.29 -498.156C1521.62 -497.745 1521.91 -497.369 1522.11 -497.114C1522.33 -496.826 1522.41 -496.713 1522.52 -496.57L1523.02 -495.929C1528.13 -489.226 1533.11 -480.129 1537.98 -469.475C1537.99 -469.463 1538 -469.45 1538 -469.438C1545.96 -451.911 1551.16 -432.644 1553.62 -412.122L1553.62 -412.121C1556.35 -390.801 1555.88 -370.318 1551.9 -351.236C1548.9 -336.513 1544.86 -322.71 1539.8 -310.019C1539.75 -309.898 1539.7 -309.777 1539.65 -309.657C1539.34 -308.934 1538.54 -306.961 1537.72 -305.278C1537.7 -305.219 1537.67 -305.149 1537.64 -305.077C1537.59 -304.964 1537.51 -304.797 1537.42 -304.596C1536.14 -301.798 1534.63 -298.933 1532.5 -295.356C1532.48 -295.33 1532.46 -295.304 1532.45 -295.278C1526.31 -285.14 1518.57 -275.211 1509.61 -265.643C1509.59 -265.628 1509.58 -265.613 1509.56 -265.598C1508.99 -264.992 1508.96 -263.949 1509.63 -263.279C1510.32 -262.654 1511.37 -262.714 1511.96 -263.33L1511.99 -263.363C1521.04 -272.684 1528.53 -282.122 1534.32 -291.333C1535.05 -292.505 1535.95 -293.57 1536.98 -294.496C1545.6 -302.265 1554.56 -306.901 1564.2 -307.144C1573.09 -307.369 1579.9 -303.722 1584.09 -301.1L1584.9 -300.59L1584.97 -300.541C1589.45 -297.632 1593.71 -293.056 1596.59 -284.943C1596.69 -284.685 1596.77 -284.424 1596.85 -284.161C1601.16 -269.495 1601.49 -255.138 1596.42 -241.457C1591.46 -228.07 1581.91 -216.894 1569.24 -207.262C1569.09 -207.132 1568.93 -207.005 1568.77 -206.881C1568.64 -206.766 1568.58 -206.707 1568.57 -206.697L1568.57 -206.697C1560.08 -197.136 1543.54 -183.256 1510.97 -165.605C1510.61 -165.379 1510.26 -165.181 1509.93 -165.01C1509.67 -164.836 1509.47 -164.59 1509.34 -164.263C1509.21 -163.91 1509.19 -163.549 1509.26 -163.233L1509.3 -163.101L1509.31 -163.083C1509.32 -163.046 1509.36 -162.953 1509.46 -162.753C1509.89 -162.013 1510.87 -161.742 1511.6 -162.139L1511.64 -162.162C1538.39 -176.581 1556.45 -189.291 1567.66 -200.754L1568.11 -201.192C1570.38 -203.329 1573.27 -204.708 1576.37 -205.128C1582.23 -205.922 1588.16 -205.985 1593.9 -205.309L1595.04 -205.164L1595.39 -205.113C1599.44 -204.469 1603.65 -203.428 1607.42 -201.604C1611.01 -199.871 1615.58 -196.753 1618.21 -191.266L1618.46 -190.728L1618.48 -190.684C1620.26 -186.636 1624.52 -176.714 1620.26 -162.606C1616.28 -149.422 1605.6 -134.922 1584.53 -118.506C1584.52 -118.5 1584.51 -118.494 1584.5 -118.488C1575.73 -111.681 1565.52 -104.813 1554.26 -98.135C1553.93 -97.937 1553.58 -97.7524 1553.24 -97.5809C1552.39 -97.1657 1551.67 -96.7393 1550.09 -95.8492L1550.09 -95.8509C1548.76 -95.0795 1547.41 -94.3763 1546.39 -93.8407L1546.39 -93.8414C1536.65 -88.7279 1526.4 -83.2505 1524.12 -81.7691C1524.08 -81.7437 1524.04 -81.7188 1524 -81.6938C1523.7 -81.502 1523.52 -81.2582 1523.41 -80.9467C1523.31 -80.6433 1523.29 -80.3121 1523.37 -80.0061L1523.41 -79.8766L1523.42 -79.8423C1523.4 -79.885 1523.44 -79.7504 1523.62 -79.4529C1524.09 -78.7501 1525.12 -78.4869 1525.9 -78.9738L1525.9 -78.9728C1527.98 -80.2731 1535.37 -84.3041 1547.86 -90.8735L1548.07 -90.9808C1548.81 -91.3564 1549.19 -91.5526 1549.5 -91.7341C1553.35 -93.9695 1558 -94.374 1562.19 -92.839C1562.83 -92.6048 1563.13 -92.491 1563.41 -92.3869L1564.46 -91.9962L1564.71 -91.9034C1576.42 -87.4023 1584.81 -79.5824 1590.02 -68.3052C1590.17 -68.0098 1590.28 -67.7837 1590.32 -67.6752C1590.39 -67.5264 1590.45 -67.3841 1590.5 -67.2581C1590.78 -66.6161 1591.02 -65.9475 1591.22 -65.2531L1591.24 -65.159C1592.15 -61.8937 1591.9 -58.5739 1590.74 -55.6395C1590.74 -55.6349 1590.74 -55.6299 1590.74 -55.6252C1590.21 -54.1725 1589.49 -52.713 1588.57 -51.2526C1586.83 -48.4814 1584.31 -45.5817 1580.76 -42.5139C1580.43 -42.1994 1580.1 -41.9217 1579.79 -41.6735C1568.53 -31.7465 1554.14 -27.1398 1538.22 -21.8236L1538.22 -21.823C1525.99 -17.7017 1511.28 -12.7511 1494.09 -5.03974C1493.98 -4.99412 1493.88 -4.94928 1493.78 -4.90594C1492.64 -4.42574 1491.42 -3.95924 1490.65 -3.66297C1488.87 -2.93193 1488.53 -2.83116 1487.72 -2.46712C1487.34 -2.29369 1486.95 -2.13715 1486.55 -1.99691C1477.83 1.06721 1473.31 2.33916 1469.91 3.24938L1468.3 3.69753C1468.25 3.71104 1468.2 3.72221 1468.15 3.73523L1467.85 3.83646C1467.11 4.11709 1466.64 4.98303 1466.88 5.8212L1466.88 5.82214C1467.12 6.6707 1468 7.21089 1468.93 6.95274L1469.56 6.77939L1469.91 6.68667C1471.72 6.22916 1475.29 5.34735 1481.2 3.39512L1481.82 3.20405C1488.26 1.37906 1495.17 4.05057 1498.69 9.80542C1498.86 10.0741 1498.99 10.3081 1499.09 10.484C1499.15 10.6048 1499.21 10.7136 1499.25 10.8023C1499.66 11.539 1500 12.309 1500.28 13.1041C1502.15 18.494 1500.95 23.2822 1499.79 26.1112C1498.63 28.9418 1496.98 31.1874 1495.71 32.7131C1493.13 35.7966 1489.96 38.4427 1487.64 40.2345C1487.62 40.2506 1487.59 40.2664 1487.57 40.2824C1473.68 50.8807 1453.31 58.2154 1429.87 62.5458C1429.86 62.5484 1429.84 62.5508 1429.83 62.5533C1415.1 65.2304 1401.23 64.0631 1388.36 58.2293C1382.39 55.5237 1378.87 49.2576 1379.66 42.7534L1402.31 -143.069L1402.31 -143.093C1403.66 -154.066 1404.16 -164.945 1403.87 -175.699C1403.77 -178.849 1403.64 -181.865 1403.44 -184.807C1401.78 -208.678 1396.3 -231.656 1387.53 -253.092C1387.52 -253.11 1387.51 -253.13 1387.51 -253.148C1385.68 -257.668 1383.66 -262.115 1381.49 -266.539C1381.47 -266.57 1381.45 -266.605 1381.43 -266.642C1381.36 -266.785 1381.23 -267.017 1381.09 -267.297C1378.46 -272.496 1379.08 -278.748 1382.67 -283.331C1388.38 -290.608 1394.32 -297.981 1400.57 -305.326L1400.59 -305.347L1402.19 -307.224C1419.2 -327.296 1441.45 -353.732 1456.11 -377.25L1456.22 -377.423C1472.85 -403.305 1489.42 -434.085 1493.25 -475.194C1493.49 -478.112 1494.01 -484.69 1494.79 -490.624C1495.56 -496.564 1499.8 -501.475 1505.56 -503.112ZM1564.01 -204.177C1563.69 -204.066 1563.38 -203.969 1563.09 -203.887C1563.41 -203.975 1563.71 -204.073 1564.01 -204.177ZM1566.06 -205.066C1565.72 -204.886 1565.38 -204.724 1565.05 -204.58C1564.89 -204.511 1564.73 -204.447 1564.57 -204.386C1565.1 -204.593 1565.6 -204.822 1566.06 -205.066Z" fill="#E9F6FB" stroke="black" stroke-width="30" stroke-linejoin="round"/>
<path d="M1384.02 -310.763C1389.78 -312.401 1395.97 -310.452 1399.75 -305.807C1400.05 -305.444 1400.3 -305.116 1400.46 -304.91C1400.65 -304.654 1400.7 -304.595 1400.78 -304.491C1404.86 -299.265 1408.75 -292.3 1412.49 -284.309L1413.23 -282.695L1413.25 -282.658C1419.62 -268.639 1423.75 -253.267 1425.72 -236.946L1425.72 -236.945C1427.89 -219.991 1427.52 -203.624 1424.34 -188.314L1424.34 -188.313C1421.96 -176.643 1418.75 -165.672 1414.72 -155.558C1414.67 -155.437 1414.62 -155.316 1414.57 -155.196C1414.38 -154.755 1413.71 -153.112 1413.03 -151.699C1413.02 -151.676 1413.01 -151.654 1413 -151.63C1418.47 -155.366 1424.32 -157.65 1430.64 -157.81C1439.08 -158.023 1445.34 -154.305 1448.66 -152.172C1448.69 -152.155 1448.71 -152.139 1448.74 -152.123C1452.71 -149.54 1456.4 -145.557 1458.89 -138.933L1459.12 -138.283L1459.26 -137.895C1459.3 -137.764 1459.34 -137.634 1459.38 -137.503C1462.9 -125.518 1463.23 -113.56 1458.97 -102.077C1455.59 -92.9401 1449.68 -85.1396 1442.08 -78.3564C1446.17 -78.7496 1450.29 -78.7147 1454.31 -78.2417L1455.26 -78.122L1455.6 -78.0709C1458.93 -77.5407 1462.57 -76.6607 1465.92 -75.0437C1469.09 -73.5115 1473.38 -70.6371 1475.87 -65.4358L1476.11 -64.9257L1476.13 -64.8814C1477.63 -61.4662 1481.32 -52.8199 1477.66 -40.677C1474.28 -29.4584 1465.34 -17.6121 1448.62 -4.58653C1448.61 -4.58084 1448.61 -4.57481 1448.6 -4.56913C1442.63 0.0593864 1435.85 4.70439 1428.46 9.24974C1429.07 9.39048 1429.68 9.56922 1430.29 9.78966C1430.84 9.99445 1431.06 10.0781 1431.26 10.1506L1432.05 10.4454L1432.3 10.5382C1442.23 14.3527 1449.42 21.0483 1453.85 30.6116C1453.99 30.8814 1454.08 31.0867 1454.13 31.1864C1454.17 31.2708 1454.2 31.3534 1454.23 31.431C1454.53 32.1049 1454.79 32.8097 1454.99 33.5422L1455.01 33.6146C1455.91 36.8507 1455.68 40.1404 1454.54 43.0553L1454.35 43.5705C1453.88 44.7711 1453.27 45.9497 1452.55 47.1032C1450.98 49.5921 1448.78 52.0865 1445.85 54.6327C1445.56 54.897 1445.28 55.1342 1445.02 55.349C1435.63 63.6015 1423.7 67.3763 1411.48 71.4554L1411.48 71.4561C1401.93 74.6743 1390.57 78.4979 1377.3 84.4502C1377.2 84.4959 1377.1 84.5409 1376.99 84.5843C1376.4 84.836 1375.77 85.0825 1375.25 85.2871C1378.12 86.4641 1380.64 88.535 1382.36 91.3373C1382.44 91.472 1382.51 91.5959 1382.58 91.7061C1382.64 91.8166 1382.7 91.9175 1382.74 92.006C1382.84 92.1794 1382.92 92.3257 1382.97 92.4241C1383.33 93.1071 1383.64 93.8176 1383.9 94.5495C1385.72 99.7817 1384.53 104.392 1383.45 107.033C1382.37 109.676 1380.85 111.723 1379.74 113.048C1377.5 115.731 1374.8 117.97 1372.92 119.419C1372.9 119.435 1372.88 119.452 1372.86 119.468C1361.42 128.192 1344.94 134.05 1326.39 137.476C1326.38 137.479 1326.36 137.481 1326.35 137.484C1314.3 139.674 1302.77 138.742 1292.02 133.866C1286.05 131.16 1282.53 124.895 1283.32 118.391L1301.01 -26.761L1301.01 -26.7852C1302.05 -35.2119 1302.43 -43.5688 1302.21 -51.8314C1302.12 -54.2429 1302.03 -56.5288 1301.88 -58.7481C1300.6 -77.0375 1296.4 -94.6409 1289.68 -111.063C1289.68 -111.082 1289.67 -111.1 1289.66 -111.119C1288.27 -114.55 1286.74 -117.935 1285.08 -121.313C1285.05 -121.379 1285 -121.466 1284.95 -121.566C1284.89 -121.666 1284.83 -121.785 1284.76 -121.92C1282.13 -127.119 1282.75 -133.371 1286.35 -137.954C1290.83 -143.66 1295.49 -149.454 1300.41 -155.234L1300.42 -155.255L1301.7 -156.752C1315.02 -172.465 1332.21 -192.911 1343.5 -211.027L1343.61 -211.2C1356.49 -231.235 1369.1 -254.737 1372.03 -286.056C1372.21 -288.314 1372.63 -293.541 1373.25 -298.274L1373.33 -298.828C1374.29 -304.519 1378.44 -309.176 1384.02 -310.763Z" fill="#E9F6FB" stroke="black" stroke-width="30" stroke-linejoin="round"/>
<path d="M1137.22 65.6006C1236.3 202.438 1240.96 385.024 1228.18 484.695C1225.46 505.922 1212.15 523.933 1193.62 534.633L1105.19 585.686L1016.76 636.739C998.23 647.439 975.975 649.963 956.231 641.707C863.524 602.938 707.733 507.605 638.766 353.384C633.537 341.692 629.141 330.668 625.517 320.279C659.005 285.271 753.683 221.203 818.523 186.903L860.845 162.468L903.167 138.034C965.292 99.0309 1068.11 49.0708 1115.18 37.5742C1122.36 45.9068 1129.71 55.2259 1137.22 65.6006Z" fill="#CC1A1C"/>
<path d="M1191.21 12.4812L1227.21 4.2381C1250.6 1.99532 1273.15 0.893659 1294.59 1.52036C1428.37 5.43006 1518.97 76.6061 1500.19 357.631L1425.36 400.838C1373.69 430.666 1308.37 390.844 1302.63 331.463C1286.46 163.935 1225.01 58.037 1191.21 12.4812Z" fill="#CC1A1C"/>
<path d="M540.632 400.632L565.769 373.581C588.322 425.628 649.306 531.798 786.304 629.567C834.863 664.221 836.687 740.706 785.023 770.534L710.187 813.741C457.425 689.488 441.085 575.438 504.586 457.631C514.765 438.747 526.995 419.766 540.632 400.632Z" fill="#CC1A1C"/>
<path d="M1191.21 12.4812L1227.21 4.2381M1191.21 12.4812C1191.21 12.4812 1023.2 -222.229 891.463 -23.4146C878.744 -4.22049 866.363 19.0144 854.504 46.8912C839.389 82.4233 802.252 103.864 763.922 99.1888C733.851 95.5205 707.538 94.6251 684.556 96.0428C446.507 110.727 565.769 373.581 565.769 373.581M1191.21 12.4812C1225.01 58.037 1286.46 163.935 1302.63 331.463C1308.37 390.844 1373.69 430.666 1425.36 400.838L1500.19 357.631M1227.21 4.2381C1223.01 -265.447 1663.99 -255.366 1607.92 340.83C1606.41 356.831 1609.7 373.526 1617.74 387.445C1643.61 432.26 1662.58 465.102 1676.46 489.143C1697.16 525.007 1684.83 570.787 1648.97 591.493L1243.65 825.506L838.328 1059.52C802.464 1080.22 756.654 1068.01 735.948 1032.15C722.068 1008.11 703.106 975.262 677.233 930.446C669.198 916.527 656.383 905.332 641.773 898.634C97.4163 649.098 309.178 262.151 540.632 400.632M1227.21 4.2381C1250.6 1.99532 1273.15 0.893659 1294.59 1.52036M1500.19 357.631L1521.18 345.516C1540.64 334.281 1554.35 314.915 1556.5 292.547C1571.22 139.39 1515.84 14.5785 1482.97 -30.5658C1458.9 -66.8277 1396.93 -130.736 1350.99 -101.706C1323.42 -84.2877 1301.38 -56.2179 1294.59 1.52036M1500.19 357.631C1518.97 76.6061 1428.37 5.43006 1294.59 1.52036M903.167 138.034L860.845 162.468L818.523 186.903M903.167 138.034C913.92 48.7818 989.171 -108.573 1115.18 37.5742M903.167 138.034C965.292 99.0309 1068.11 49.0708 1115.18 37.5742M1115.18 37.5742C1122.36 45.9068 1129.71 55.2259 1137.22 65.6006C1236.3 202.438 1240.96 385.024 1228.18 484.695C1225.46 505.922 1212.15 523.933 1193.62 534.633L1105.19 585.686L1016.76 636.739C998.23 647.439 975.975 649.963 956.231 641.707C863.524 602.938 707.733 507.605 638.766 353.384C633.537 341.692 629.141 330.668 625.517 320.279M565.769 373.581L540.632 400.632M565.769 373.581C588.322 425.628 649.306 531.798 786.304 629.567C834.863 664.221 836.687 740.706 785.023 770.534L710.187 813.741M540.632 400.632C526.995 419.766 514.765 438.747 504.586 457.631M710.187 813.741L689.204 825.855C669.743 837.091 646.114 839.287 625.667 829.964C485.673 766.129 405.272 655.764 382.608 604.731C363.24 565.754 338.882 480.126 386.992 454.857C415.858 439.696 451.187 434.644 504.586 457.631M710.187 813.741C457.425 689.488 441.085 575.438 504.586 457.631M818.523 186.903C735.852 151.589 561.953 138.081 625.517 320.279M818.523 186.903C753.683 221.203 659.005 285.271 625.517 320.279" stroke="black" stroke-width="30.004"/>
<path fill-rule="evenodd" clip-rule="evenodd" d="M540.632 400.635C309.178 262.154 97.4159 649.101 641.773 898.637C656.383 905.335 669.197 916.53 677.233 930.449C703.106 975.265 722.067 1008.11 735.947 1032.15C756.653 1068.01 802.464 1080.23 838.327 1059.52L1243.65 825.508L1648.97 591.496C1684.83 570.79 1697.16 525.01 1676.46 489.146C1662.58 465.105 1643.61 432.263 1617.74 387.448C1609.7 373.529 1606.41 356.834 1607.92 340.832C1663.99 -255.363 1223.01 -265.444 1227.21 4.24107C1250.6 1.99831 1273.15 0.896669 1294.59 1.52336C1301.38 -56.2149 1323.42 -84.2847 1350.99 -101.703C1396.93 -130.733 1458.9 -66.8247 1482.97 -30.5628C1515.84 14.5815 1571.22 139.393 1556.5 292.549C1554.35 314.918 1540.64 334.284 1521.18 345.519L1500.19 357.634L1425.36 400.841C1373.69 430.669 1308.37 390.846 1302.63 331.466C1286.46 163.938 1225.01 58.0399 1191.21 12.4842C1191.21 12.4842 1023.2 -222.226 891.462 -23.4115C878.744 -4.21739 866.363 19.0175 854.504 46.8943C839.389 82.4264 802.251 103.868 763.922 99.1919C733.851 95.5236 707.538 94.6282 684.556 96.0459C446.507 110.73 565.768 373.584 565.768 373.584C588.322 425.631 649.305 531.801 786.303 629.57C834.862 664.224 836.686 740.709 785.023 770.537L710.186 813.744L689.203 825.858C669.742 837.094 646.113 839.29 625.667 829.967C485.673 766.132 405.271 655.767 382.608 604.734C363.239 565.757 338.881 480.129 386.992 454.86C415.858 439.699 451.187 434.647 504.586 457.634C514.765 438.75 526.995 419.769 540.632 400.635ZM1016.76 636.742C998.23 647.442 975.975 649.966 956.231 641.71C863.524 602.941 707.732 507.609 638.766 353.387C633.537 341.695 629.141 330.671 625.517 320.282C561.953 138.084 735.852 151.592 818.523 186.906L860.844 162.471L903.166 138.037C913.919 48.7849 989.171 -108.57 1115.18 37.5771C1122.36 45.9097 1129.71 55.2289 1137.22 65.6036C1236.3 202.441 1240.96 385.027 1228.18 484.698C1225.46 505.924 1212.15 523.936 1193.62 534.636L1105.19 585.689L1016.76 636.742Z" fill="#FBEA5B"/>
<path d="M565.768 373.584L540.632 400.635M565.768 373.584C565.768 373.584 446.507 110.73 684.556 96.0459C707.538 94.6282 733.851 95.5236 763.922 99.1919C802.251 103.868 839.389 82.4264 854.504 46.8943C866.363 19.0175 878.744 -4.21739 891.462 -23.4115C1023.2 -222.226 1191.21 12.4842 1191.21 12.4842M565.768 373.584C588.322 425.631 649.305 531.801 786.303 629.57C834.862 664.224 836.686 740.709 785.023 770.537L710.186 813.744M540.632 400.635C309.178 262.154 97.4159 649.101 641.773 898.637C656.383 905.335 669.197 916.53 677.233 930.449C703.106 975.265 722.067 1008.11 735.947 1032.15C756.653 1068.01 802.464 1080.23 838.327 1059.52L1243.65 825.508L1648.97 591.496C1684.83 570.79 1697.16 525.01 1676.46 489.146C1662.58 465.105 1643.61 432.263 1617.74 387.448C1609.7 373.529 1606.41 356.834 1607.92 340.832C1663.99 -255.363 1223.01 -265.444 1227.21 4.24107M540.632 400.635C526.995 419.769 514.765 438.75 504.586 457.634M710.186 813.744L689.203 825.858C669.742 837.094 646.113 839.29 625.667 829.967C485.673 766.132 405.271 655.767 382.608 604.734C363.239 565.757 338.881 480.129 386.992 454.86C415.858 439.699 451.187 434.647 504.586 457.634M710.186 813.744C457.424 689.491 441.084 575.441 504.586 457.634M818.523 186.906L860.844 162.471L903.166 138.037M818.523 186.906C735.852 151.592 561.953 138.084 625.517 320.282M818.523 186.906C753.683 221.206 659.004 285.274 625.517 320.282M625.517 320.282C629.141 330.671 633.537 341.695 638.766 353.387C707.732 507.609 863.524 602.941 956.231 641.71C975.975 649.966 998.23 647.442 1016.76 636.742L1105.19 585.689L1193.62 534.636C1212.15 523.936 1225.46 505.924 1228.18 484.698C1240.96 385.027 1236.3 202.441 1137.22 65.6036C1129.71 55.2289 1122.36 45.9097 1115.18 37.5771M1191.21 12.4842L1227.21 4.24107M1191.21 12.4842C1225.01 58.0399 1286.46 163.938 1302.63 331.466C1308.37 390.846 1373.69 430.669 1425.36 400.841L1500.19 357.634M1227.21 4.24107C1250.6 1.99831 1273.15 0.896669 1294.59 1.52336M1500.19 357.634L1521.18 345.519C1540.64 334.284 1554.35 314.918 1556.5 292.549C1571.22 139.393 1515.84 14.5815 1482.97 -30.5628C1458.9 -66.8247 1396.93 -130.733 1350.99 -101.703C1323.42 -84.2847 1301.38 -56.2149 1294.59 1.52336M1500.19 357.634C1518.97 76.609 1428.37 5.43306 1294.59 1.52336M903.166 138.037C913.919 48.7849 989.171 -108.57 1115.18 37.5771M903.166 138.037C965.291 99.0339 1068.11 49.0738 1115.18 37.5771" stroke="black" stroke-width="30.004"/>
<path d="M879.636 945.2C877.196 956.877 865.143 963.835 853.811 960.11L808.674 945.269C799.147 942.136 793.413 932.433 795.265 922.576L804.243 874.788C806.505 862.745 818.968 855.549 830.529 859.612L876.404 875.731C885.866 879.055 891.402 888.873 889.352 898.689L879.636 945.2Z" fill="#55E748"/>
<path d="M879.636 945.2C877.196 956.877 865.143 963.835 853.811 960.11L808.674 945.269C799.147 942.136 793.413 932.433 795.265 922.576L804.243 874.788C806.505 862.745 818.968 855.549 830.529 859.612L876.404 875.731C885.866 879.055 891.402 888.873 889.352 898.689L879.636 945.2Z" stroke="black" stroke-width="30.004"/>
<path d="M1085.79 845.428L1002.76 818.128L1019.28 730.219L1103.67 759.871L1085.79 845.428Z" fill="#55E748"/>
<path d="M1085.79 845.428L1002.76 818.128L1019.28 730.219L1103.67 759.871L1085.79 845.428Z" stroke="black" stroke-width="30.004"/>
<path d="M1339.83 698.764L1256.8 671.464L1273.31 583.555L1357.7 613.207L1339.83 698.764Z" fill="#55E748"/>
<path d="M1339.83 698.764L1256.8 671.464L1273.31 583.555L1357.7 613.207L1339.83 698.764Z" stroke="black" stroke-width="30.004"/>
<path d="M1555.14 555.2C1552.7 566.877 1540.64 573.835 1529.31 570.11L1484.17 555.269C1474.65 552.136 1468.91 542.433 1470.77 532.576L1479.74 484.788C1482.01 472.745 1494.47 465.549 1506.03 469.612L1551.91 485.731C1561.37 489.055 1566.9 498.873 1564.85 508.689L1555.14 555.2Z" fill="#55E748"/>
<path d="M1555.14 555.2C1552.7 566.877 1540.64 573.835 1529.31 570.11L1484.17 555.269C1474.65 552.136 1468.91 542.433 1470.77 532.576L1479.74 484.788C1482.01 472.745 1494.47 465.549 1506.03 469.612L1551.91 485.731C1561.37 489.055 1566.9 498.873 1564.85 508.689L1555.14 555.2Z" stroke="black" stroke-width="30.004"/>
<path d="M1037.72 468.832L921.364 403.039L921.208 267.021L1038.92 335.165L1037.72 468.832Z" fill="#55E748"/>
<path d="M1037.72 468.832L921.364 403.039L921.208 267.021L1038.92 335.165L1037.72 468.832Z" stroke="black" stroke-width="30.004"/>
<path d="M732.289 702.36L627.267 694.164L566.82 605.443L673.77 614.768L732.289 702.36Z" fill="#FBEA5B" stroke="black" stroke-width="30.004"/>
<path d="M1392.68 321.074L1438.09 226.024L1391.48 129.315L1346.08 226.599L1392.68 321.074Z" fill="#FBEA5B" stroke="black" stroke-width="30.004"/>
<path d="M826.113 -91.4763L788.242 36.7195L658.286 5.41834L620.774 -125.325L707.247 -103.568L731.642 -189.334L826.113 -91.4763Z" fill="#55E748" stroke="black" stroke-width="30"/>
</g>
<defs>
<clipPath id="clip0_4368_3929">
<rect width="3000" height="3000" fill="white" transform="translate(0 8.055) rotate(-0.153839)"/>
</clipPath>
</defs>
</svg>
