<svg width="3009" height="3009" viewBox="0 0 3009 3009" fill="none" xmlns="http://www.w3.org/2000/svg">
<g clip-path="url(#clip0_4368_3929)">
<path d="M1696.55 145.285C1702.35 143.754 1708.49 145.816 1712.19 150.531C1712.48 150.899 1712.72 151.232 1712.88 151.44C1713.07 151.7 1713.11 151.759 1713.19 151.865C1717.17 157.166 1720.94 164.202 1724.52 172.26L1725.24 173.888L1725.26 173.925C1731.36 188.059 1735.22 203.505 1736.88 219.86L1736.88 219.861C1738.73 236.852 1738.07 253.21 1734.6 268.458L1734.6 268.459C1732 280.083 1728.59 290.993 1724.37 301.031C1724.32 301.151 1724.27 301.271 1724.22 301.39C1724.02 301.827 1723.32 303.458 1722.61 304.858C1722.6 304.88 1722.59 304.903 1722.58 304.926C1728.12 301.292 1734.01 299.116 1740.34 299.074C1748.78 299.017 1754.97 302.849 1758.25 305.044C1758.28 305.061 1758.3 305.077 1758.33 305.094C1762.25 307.75 1765.86 311.8 1768.23 318.469L1768.45 319.123L1768.58 319.514C1768.62 319.645 1768.66 319.777 1768.69 319.909C1772 331.957 1772.1 343.918 1767.63 355.321C1764.08 364.393 1758.03 372.083 1750.3 378.725C1754.41 378.407 1758.52 378.518 1762.53 379.066L1763.48 379.203L1763.82 379.26C1767.14 379.852 1770.76 380.799 1774.08 382.478C1777.22 384.068 1781.45 387.021 1783.85 392.268L1784.08 392.782L1784.1 392.827C1785.54 396.269 1789.07 404.982 1785.18 417.056C1781.59 428.21 1772.44 439.889 1755.48 452.603C1755.47 452.609 1755.46 452.614 1755.46 452.62C1749.41 457.137 1742.54 461.656 1735.06 466.064C1735.68 466.216 1736.29 466.407 1736.88 466.638C1737.44 466.853 1737.66 466.941 1737.85 467.017L1738.64 467.326L1738.88 467.423C1748.73 471.42 1755.8 478.246 1760.06 487.888C1760.19 488.162 1760.28 488.37 1760.33 488.471C1760.37 488.578 1760.41 488.681 1760.45 488.776C1760.73 489.438 1760.96 490.128 1761.14 490.843L1761.16 490.916C1762 494.168 1761.71 497.453 1760.52 500.346L1760.32 500.858C1759.82 502.049 1759.19 503.217 1758.45 504.356C1756.84 506.816 1754.6 509.27 1751.61 511.762C1751.32 512.022 1751.04 512.253 1750.77 512.463C1741.22 520.539 1729.23 524.093 1716.94 527.945L1716.94 527.946C1707.33 530.987 1695.9 534.6 1682.53 540.306C1682.42 540.35 1682.32 540.393 1682.22 540.434C1681.62 540.675 1680.98 540.91 1680.46 541.105C1683.31 542.335 1685.79 544.452 1687.46 547.286C1687.54 547.423 1687.61 547.549 1687.67 547.66C1687.73 547.771 1687.78 547.873 1687.83 547.962C1687.92 548.137 1687.99 548.284 1688.04 548.383C1688.39 549.073 1688.69 549.789 1688.93 550.525C1690.66 555.79 1689.39 560.378 1688.26 562.999C1687.13 565.621 1685.57 567.64 1684.44 568.944C1682.15 571.585 1679.41 573.774 1677.5 575.188C1677.48 575.204 1677.46 575.22 1677.44 575.236C1665.84 583.746 1649.26 589.299 1630.65 592.382C1630.63 592.384 1630.62 592.386 1630.6 592.389C1618.52 594.356 1607.01 593.21 1596.34 588.136C1590.43 585.321 1587.02 578.992 1587.93 572.503L1608.3 427.703L1608.31 427.679C1609.5 419.273 1610.03 410.924 1609.96 402.659C1609.93 400.247 1609.87 397.959 1609.76 395.738C1608.82 377.428 1604.96 359.75 1598.54 343.206C1598.53 343.187 1598.53 343.169 1598.52 343.15C1597.19 339.694 1595.72 336.281 1594.13 332.873C1594.09 332.806 1594.05 332.718 1594 332.618C1593.95 332.517 1593.88 332.396 1593.82 332.26C1591.28 327.014 1592.02 320.774 1595.7 316.258C1600.28 310.636 1605.06 304.929 1610.08 299.241L1610.09 299.22L1611.4 297.747C1625 282.283 1642.57 262.158 1654.2 244.255L1654.31 244.083C1667.55 224.29 1680.6 201.025 1684.11 169.766C1684.33 167.511 1684.85 162.293 1685.55 157.572L1685.64 157.02C1686.71 151.348 1690.94 146.768 1696.55 145.285ZM1687.82 547.962C1687.81 547.947 1687.8 547.932 1687.8 547.917C1687.79 547.909 1687.79 547.901 1687.78 547.893C1687.79 547.916 1687.81 547.939 1687.82 547.962Z" fill="#E9F6FB" stroke="black" stroke-width="30" stroke-linejoin="round"/>
<path d="M443.915 866.502C439.615 870.674 438.211 877.005 440.342 882.605C440.509 883.042 440.667 883.423 440.766 883.661C440.89 883.958 440.919 884.025 440.969 884.148C443.453 890.297 447.539 897.15 452.592 904.381L453.616 905.834L453.64 905.867C462.598 918.389 473.841 929.66 486.995 939.518L486.995 939.52C500.594 949.875 514.949 957.745 529.802 962.64L529.802 962.641C541.098 966.414 552.204 969.121 562.979 970.687C563.108 970.705 563.237 970.723 563.367 970.738C563.843 970.795 565.594 971.036 567.155 971.154C567.182 971.157 567.21 971.161 567.238 971.164C561.27 974.031 556.365 977.958 553.065 983.354C548.664 990.551 548.753 997.832 548.938 1001.78C548.939 1001.81 548.94 1001.84 548.942 1001.87C549.192 1006.6 550.8 1011.78 555.292 1017.25L555.736 1017.78L556.006 1018.09C556.098 1018.19 556.191 1018.29 556.285 1018.39C564.9 1027.44 575.094 1033.7 587.167 1035.75C596.772 1037.39 606.48 1036.18 616.156 1032.98C613.768 1036.33 611.739 1039.92 610.141 1043.63L609.769 1044.52L609.642 1044.84C608.435 1047.99 607.38 1051.58 607.106 1055.29C606.846 1058.8 607.193 1063.95 610.448 1068.71L610.772 1069.17L610.801 1069.21C613.006 1072.22 618.65 1079.74 630.997 1082.64C642.405 1085.32 657.131 1083.5 676.772 1075.53C676.78 1075.53 676.79 1075.53 676.798 1075.52C683.789 1072.67 691.202 1069.12 698.836 1064.99C698.65 1065.59 698.5 1066.21 698.39 1066.84C698.288 1067.43 698.25 1067.66 698.217 1067.86L698.075 1068.7L698.03 1068.96C696.371 1079.47 698.574 1089.04 704.637 1097.67C704.804 1097.92 704.934 1098.1 704.998 1098.19C705.052 1098.26 705.107 1098.34 705.158 1098.4C705.591 1099 706.074 1099.57 706.607 1100.12L706.66 1100.17C709.012 1102.57 711.979 1104.01 715.069 1104.48L715.613 1104.57C716.889 1104.76 718.213 1104.83 719.574 1104.78C722.511 1104.67 725.771 1104.01 729.444 1102.74C729.815 1102.63 730.16 1102.51 730.478 1102.38C742.322 1098.37 751.556 1089.93 761.196 1081.39L761.196 1081.39C768.759 1074.73 777.75 1066.8 789.539 1058.29C789.63 1058.22 789.72 1058.16 789.809 1058.09C790.325 1057.7 790.853 1057.28 791.292 1056.93C790.873 1060.01 791.407 1063.22 792.977 1066.11C793.052 1066.25 793.123 1066.38 793.187 1066.49C793.251 1066.6 793.31 1066.7 793.362 1066.78C793.465 1066.95 793.553 1067.09 793.613 1067.18C794.023 1067.84 794.482 1068.46 794.989 1069.05C798.61 1073.24 803.194 1074.52 806.022 1074.91C808.853 1075.29 811.384 1075 813.085 1074.7C816.528 1074.11 819.817 1072.89 822.012 1071.98C822.037 1071.97 822.061 1071.96 822.086 1071.95C835.36 1066.41 848.673 1055.07 860.916 1040.71C860.925 1040.7 860.934 1040.69 860.944 1040.68C868.866 1031.34 873.823 1020.89 874.977 1009.14C875.618 1002.62 871.953 996.434 865.924 993.869L731.375 936.61L731.353 936.6C723.534 933.289 716.109 929.436 709.064 925.113C707.016 923.837 705.085 922.609 703.238 921.371C688.038 911.119 674.891 898.684 664.029 884.653C664.016 884.637 664.004 884.622 663.992 884.606C661.714 881.688 659.549 878.669 657.453 875.543C657.414 875.479 657.362 875.395 657.303 875.3C657.243 875.203 657.17 875.089 657.088 874.962C653.901 870.084 648.177 867.494 642.409 868.318C635.228 869.343 627.877 870.488 620.414 871.854L620.387 871.858L618.452 872.216C598.187 875.89 571.882 880.56 550.548 881.281L550.342 881.29C526.561 882.419 499.905 881.597 471.328 868.48C469.29 867.516 464.539 865.254 460.117 863.416L459.596 863.211C454.189 861.195 448.08 862.46 443.915 866.502ZM793.369 1066.77C793.36 1066.76 793.35 1066.74 793.34 1066.73C793.332 1066.71 793.325 1066.7 793.317 1066.68C793.334 1066.71 793.351 1066.74 793.369 1066.77ZM657.315 875.342C657.324 875.355 657.333 875.368 657.341 875.381C657.259 875.259 657.175 875.138 657.089 875.019C657.178 875.141 657.253 875.25 657.315 875.342Z" fill="#E9F6FB" stroke="black" stroke-width="30" stroke-linejoin="round"/>
<path d="M-33.6935 385.882C-37.9932 390.054 -39.3972 396.385 -37.2655 401.984C-37.0771 402.479 -36.8962 402.917 -36.7728 403.212C-36.6329 403.547 -36.5775 403.677 -36.5093 403.844L-36.2013 404.593C-32.953 412.373 -27.5658 421.236 -20.7752 430.782C-20.7675 430.793 -20.7591 430.804 -20.7514 430.814C-9.55165 446.47 4.53602 460.604 21.0776 472.997L21.0776 472.999C38.1774 486.02 56.151 495.855 74.6635 501.954L74.6635 501.956C88.9157 506.716 102.889 510.119 116.41 512.083C116.539 512.102 116.669 512.119 116.798 512.134C117.579 512.227 119.689 512.519 121.553 512.655C121.617 512.663 121.692 512.673 121.77 512.682C121.88 512.694 122.037 512.709 122.227 512.726C125.309 513.025 128.563 513.15 132.761 513.088C132.792 513.087 132.822 513.086 132.852 513.086C144.702 512.838 157.169 511.101 169.937 508.123C169.957 508.118 169.978 508.113 169.998 508.108C170.809 507.916 171.727 508.411 171.972 509.326C172.172 510.231 171.594 511.112 170.763 511.318L170.718 511.329C158.124 514.502 146.203 516.273 135.334 516.678C133.951 516.73 132.581 516.972 131.264 517.399C120.226 520.98 111.73 526.426 106.7 534.651C102.061 542.237 101.814 549.957 101.989 554.9L102.028 555.85L102.033 555.94C102.315 561.27 104.143 567.255 109.73 573.805C109.907 574.014 110.091 574.217 110.28 574.416C120.822 585.487 133.093 592.949 147.477 595.399C161.55 597.795 176.006 595.11 190.681 588.956C190.87 588.888 191.058 588.817 191.245 588.741C191.41 588.686 191.491 588.665 191.503 588.662L191.503 588.661C204.032 586.082 224.321 578.702 255.896 559.318C256.27 559.119 256.614 558.918 256.925 558.721C257.208 558.579 257.52 558.53 257.867 558.584C258.241 558.642 258.562 558.807 258.798 559.03L258.894 559.129L258.905 559.142C258.931 559.172 258.995 559.249 259.117 559.438C259.542 560.181 259.286 561.166 258.578 561.601L258.537 561.626C232.674 577.583 212.641 586.862 197.105 590.845L196.502 591.013C193.515 591.913 190.878 593.723 188.963 596.199C185.346 600.876 182.327 605.98 180.042 611.288L179.595 612.352L179.468 612.674C178.001 616.505 176.798 620.671 176.488 624.854C176.194 628.828 176.613 634.339 180.047 639.364L180.389 639.849L180.418 639.888C183.032 643.457 189.498 652.101 203.843 655.47C217.249 658.618 235.15 656.614 259.903 646.572C259.911 646.569 259.92 646.566 259.929 646.562C270.21 642.369 281.265 636.957 292.678 630.546C293.016 630.356 293.347 630.152 293.669 629.937C294.45 629.414 295.18 629.002 296.739 628.08L296.739 628.079C298.074 627.31 299.356 626.497 300.33 625.88L300.33 625.879C309.631 619.996 319.496 613.864 321.92 612.628C321.962 612.607 322.003 612.585 322.044 612.564C322.361 612.399 322.664 612.362 322.987 612.426C323.346 612.496 323.679 612.686 323.917 612.955C323.925 612.964 323.933 612.973 323.941 612.982C323.911 612.948 324.007 613.051 324.174 613.356C324.552 614.107 324.262 615.136 323.451 615.568L323.451 615.568C321.284 616.722 314.102 621.099 302.166 628.635L301.968 628.762C301.273 629.217 300.915 629.443 300.601 629.624C296.738 631.845 294.062 635.67 293.299 640.061C293.183 640.729 293.13 641.05 293.082 641.342L292.894 642.449L292.85 642.711C290.892 655.107 293.472 666.283 300.635 676.442C300.814 676.714 300.955 676.914 301.024 677.01C301.119 677.142 301.214 677.263 301.297 677.371C301.712 677.935 302.171 678.478 302.676 678.993L302.744 679.062C305.118 681.481 308.117 682.926 311.238 683.389C311.243 683.39 311.248 683.392 311.253 683.393C312.773 683.665 314.397 683.77 316.121 683.706C319.392 683.583 323.167 682.843 327.597 681.306C328.036 681.175 328.44 681.03 328.81 680.886C343.038 676.096 354.221 665.94 366.784 654.813L366.784 654.814C376.47 646.28 388.114 636.014 403.387 624.982C403.477 624.917 403.567 624.851 403.656 624.784C404.641 624.039 405.657 623.211 406.296 622.697C407.819 621.521 408.075 621.277 408.795 620.758C409.138 620.511 409.471 620.25 409.792 619.974C416.803 613.959 420.163 610.683 422.654 608.19L423.848 607.017C423.885 606.981 423.921 606.942 423.958 606.905L424.191 606.699C424.803 606.2 425.788 606.227 426.397 606.85L426.398 606.85C427.014 607.48 427.037 608.52 426.349 609.196L425.887 609.649L425.633 609.904C424.329 611.247 421.782 613.895 417.137 618.037L416.66 618.48C411.859 623.146 410.718 630.467 413.94 636.395C414.09 636.672 414.225 636.903 414.33 637.074C414.401 637.192 414.468 637.295 414.522 637.379C414.958 638.099 415.453 638.781 416.003 639.418C419.734 643.737 424.482 645.088 427.512 645.498C430.544 645.909 433.313 645.603 435.271 645.263C439.228 644.576 443.107 643.15 445.82 642.034C445.845 642.024 445.869 642.014 445.893 642.003C462.02 635.268 478.553 621.301 494.026 603.162C494.035 603.151 494.044 603.14 494.053 603.129C503.737 591.712 509.661 579.116 511.043 565.055C511.683 558.534 508.017 552.352 501.988 549.786L329.74 476.484L329.718 476.474C319.542 472.163 309.877 467.153 300.709 461.533C298.03 459.864 295.478 458.244 293.025 456.601C273.185 443.221 256.024 426.989 241.846 408.675C241.834 408.659 241.821 408.643 241.809 408.627C238.809 404.784 235.964 400.816 233.22 396.721C233.202 396.691 233.181 396.657 233.159 396.621C233.074 396.482 232.935 396.257 232.764 395.994C229.577 391.117 223.854 388.526 218.086 389.35C208.928 390.658 199.573 392.116 190.09 393.851L190.063 393.856L187.636 394.304C161.75 398.998 127.73 405.049 100.033 405.986L99.8281 405.994C69.0996 407.454 34.1548 406.42 -3.35925 389.18C-6.00646 387.927 -11.9649 385.092 -17.4906 382.796C-23.0231 380.496 -29.3937 381.71 -33.6935 385.882ZM195.976 585.963C196.229 585.744 196.464 585.528 196.68 585.315C196.447 585.544 196.212 585.759 195.976 585.963ZM194.164 587.305C194.495 587.096 194.808 586.882 195.101 586.664C195.241 586.561 195.375 586.456 195.506 586.352C195.06 586.707 194.611 587.024 194.164 587.305Z" fill="#E9F6FB" stroke="black" stroke-width="30" stroke-linejoin="round"/>
<path d="M193.658 376.807C189.358 380.979 187.953 387.31 190.085 392.909C190.251 393.346 190.409 393.727 190.509 393.966C190.633 394.263 190.662 394.33 190.711 394.452C193.196 400.602 197.282 407.455 202.334 414.686L203.359 416.139L203.383 416.172C212.341 428.693 223.583 439.964 236.738 449.823L236.738 449.825C250.337 460.18 264.692 468.049 279.544 472.945L279.544 472.946C290.841 476.719 301.947 479.426 312.722 480.991C312.851 481.01 312.98 481.028 313.11 481.043C313.586 481.1 315.336 481.341 316.898 481.459C316.924 481.462 316.952 481.465 316.981 481.468C311.012 484.336 306.108 488.262 302.808 493.659C298.407 500.856 298.496 508.137 298.68 512.084C298.682 512.114 298.683 512.144 298.684 512.174C298.935 516.908 300.542 522.088 305.034 527.556L305.478 528.086L305.749 528.395C305.84 528.497 305.933 528.597 306.028 528.696C314.643 537.744 324.837 544.003 336.909 546.059C346.515 547.695 356.222 546.483 365.899 543.289C363.511 546.639 361.482 550.222 359.884 553.937L359.511 554.821L359.385 555.142C358.178 558.293 357.123 561.881 356.849 565.59C356.589 569.104 356.935 574.253 360.191 579.016L360.515 579.476L360.543 579.515C362.748 582.526 368.392 590.043 380.74 592.942C392.147 595.621 406.874 593.807 426.515 585.839C426.523 585.836 426.532 585.832 426.541 585.828C433.531 582.977 440.945 579.427 448.579 575.295C448.393 575.899 448.242 576.518 448.133 577.148C448.031 577.735 447.993 577.968 447.96 578.169L447.817 579.005L447.773 579.268C446.114 589.77 448.317 599.346 454.38 607.971C454.546 608.222 454.676 608.406 454.74 608.494C454.795 608.569 454.85 608.64 454.901 608.708C455.334 609.305 455.817 609.878 456.35 610.421L456.402 610.474C458.755 612.871 461.721 614.313 464.812 614.789L465.355 614.879C466.632 615.069 467.955 615.134 469.317 615.083C472.254 614.973 475.513 614.317 479.187 613.046C479.558 612.933 479.902 612.81 480.221 612.688C492.065 608.679 501.299 600.235 510.938 591.697L510.938 591.698C518.502 585.034 527.493 577.108 539.282 568.593C539.372 568.528 539.462 568.462 539.551 568.395C540.068 568.004 540.595 567.584 541.035 567.231C540.616 570.312 541.15 573.529 542.719 576.416C542.795 576.555 542.866 576.681 542.93 576.791C542.994 576.901 543.052 577 543.105 577.086C543.207 577.255 543.296 577.393 543.356 577.486C543.765 578.142 544.225 578.767 544.731 579.354C548.353 583.546 552.936 584.828 555.765 585.211C558.595 585.594 561.127 585.303 562.828 585.008C566.271 584.41 569.56 583.19 571.755 582.287C571.779 582.277 571.804 582.268 571.828 582.257C585.102 576.713 598.416 565.37 610.659 551.018C610.668 551.007 610.677 550.996 610.686 550.985C618.608 541.644 623.565 531.194 624.72 519.442C625.361 512.921 621.695 506.739 615.666 504.173L481.118 446.914L481.095 446.905C473.277 443.593 465.852 439.741 458.807 435.418C456.759 434.142 454.828 432.914 452.98 431.676C437.781 421.424 424.633 408.989 413.771 394.958C413.759 394.942 413.747 394.926 413.734 394.911C411.457 391.993 409.292 388.974 407.196 385.848C407.157 385.784 407.105 385.7 407.045 385.604C406.985 385.508 406.913 385.393 406.83 385.267C403.643 380.389 397.92 377.798 392.152 378.622C384.97 379.648 377.619 380.793 370.157 382.158L370.13 382.163L368.194 382.521C347.93 386.195 321.625 390.864 300.29 391.586L300.085 391.594C276.304 392.724 249.648 391.902 221.071 378.784C219.033 377.821 214.281 375.559 209.86 373.721L209.339 373.515C203.931 371.5 197.823 372.765 193.658 376.807ZM543.112 577.079C543.102 577.064 543.092 577.048 543.083 577.032C543.075 577.018 543.068 577.003 543.06 576.989C543.077 577.019 543.094 577.049 543.112 577.079ZM407.058 385.646C407.067 385.66 407.075 385.673 407.084 385.685C407.001 385.564 406.918 385.443 406.832 385.324C406.92 385.446 406.996 385.555 407.058 385.646Z" fill="#E9F6FB" stroke="black" stroke-width="30" stroke-linejoin="round"/>
<path d="M1509.56 -505.113C1515.32 -506.75 1521.51 -504.801 1525.29 -500.155C1525.62 -499.744 1525.91 -499.369 1526.11 -499.114C1526.33 -498.826 1526.41 -498.713 1526.52 -498.57L1527.02 -497.929C1532.13 -491.226 1537.11 -482.129 1541.98 -471.475C1541.99 -471.463 1542 -471.45 1542 -471.438C1549.96 -453.911 1555.16 -434.644 1557.62 -414.122L1557.62 -414.121C1560.35 -392.802 1559.88 -372.319 1555.9 -353.237L1555.9 -353.236C1552.9 -338.513 1548.86 -324.71 1543.8 -312.019C1543.75 -311.898 1543.7 -311.777 1543.65 -311.657C1543.34 -310.934 1542.54 -308.961 1541.72 -307.278C1541.7 -307.219 1541.67 -307.149 1541.64 -307.077C1541.6 -306.976 1541.53 -306.832 1541.45 -306.659C1540.17 -303.841 1538.65 -300.96 1536.5 -297.356C1536.48 -297.33 1536.46 -297.304 1536.45 -297.278C1530.31 -287.14 1522.57 -277.211 1513.61 -267.643C1513.59 -267.628 1513.58 -267.613 1513.56 -267.598C1512.99 -266.992 1512.96 -265.949 1513.63 -265.279C1514.32 -264.654 1515.37 -264.714 1515.96 -265.33L1515.99 -265.363C1525.04 -274.684 1532.53 -284.122 1538.32 -293.333C1539.05 -294.505 1539.95 -295.57 1540.98 -296.496C1549.6 -304.265 1558.56 -308.901 1568.2 -309.144C1577.09 -309.369 1583.9 -305.722 1588.09 -303.1L1588.9 -302.59L1588.97 -302.541C1593.45 -299.632 1597.71 -295.056 1600.59 -286.943C1600.69 -286.685 1600.77 -286.424 1600.85 -286.161C1605.16 -271.495 1605.49 -257.138 1600.42 -243.457C1595.46 -230.07 1585.91 -218.894 1573.24 -209.262C1573.09 -209.132 1572.93 -209.005 1572.77 -208.881C1572.64 -208.765 1572.58 -208.706 1572.57 -208.697L1572.57 -208.697C1564.08 -199.136 1547.54 -185.255 1514.96 -167.603C1514.61 -167.378 1514.26 -167.181 1513.93 -167.011C1513.67 -166.836 1513.47 -166.59 1513.34 -166.263C1513.21 -165.91 1513.19 -165.549 1513.26 -165.233L1513.3 -165.101L1513.31 -165.084C1513.32 -165.047 1513.36 -164.954 1513.46 -164.753C1513.89 -164.013 1514.87 -163.742 1515.6 -164.139L1515.64 -164.162C1542.39 -178.581 1560.45 -191.291 1571.66 -202.754L1572.11 -203.192C1574.38 -205.329 1577.27 -206.708 1580.37 -207.128C1586.23 -207.922 1592.16 -207.985 1597.9 -207.309L1599.04 -207.164L1599.39 -207.113C1603.44 -206.469 1607.65 -205.428 1611.42 -203.604C1615.01 -201.871 1619.58 -198.754 1622.21 -193.267L1622.46 -192.728L1622.48 -192.684C1624.26 -188.636 1628.52 -178.714 1624.26 -164.606C1620.28 -151.422 1609.6 -136.922 1588.53 -120.506C1588.52 -120.5 1588.51 -120.494 1588.5 -120.488C1579.73 -113.681 1569.52 -106.813 1558.26 -100.135C1557.93 -99.937 1557.58 -99.7524 1557.24 -99.5809C1556.39 -99.1657 1555.67 -98.74 1554.09 -97.8502L1554.09 -97.8509C1552.76 -97.0795 1551.41 -96.3762 1550.39 -95.8407L1550.39 -95.8414C1540.65 -90.7279 1530.4 -85.2505 1528.12 -83.7691C1528.08 -83.7438 1528.04 -83.7188 1528 -83.6938C1527.7 -83.502 1527.52 -83.2582 1527.41 -82.9467C1527.29 -82.5999 1527.29 -82.2167 1527.41 -81.8766C1527.41 -81.8652 1527.41 -81.8536 1527.42 -81.8423C1527.4 -81.8849 1527.44 -81.7504 1527.62 -81.4529C1528.09 -80.7501 1529.12 -80.4869 1529.9 -80.9738L1529.9 -80.9728C1531.98 -82.273 1539.37 -86.3041 1551.86 -92.8735L1552.07 -92.9811C1552.81 -93.3562 1553.19 -93.5526 1553.5 -93.7341C1557.35 -95.9694 1562 -96.374 1566.19 -94.839C1566.83 -94.6054 1567.13 -94.4913 1567.41 -94.3869L1568.46 -93.9962L1568.71 -93.9034C1580.42 -89.4011 1588.81 -81.578 1594.03 -70.296C1594.17 -70.0052 1594.28 -69.7826 1594.32 -69.6752C1594.39 -69.5264 1594.45 -69.3841 1594.5 -69.2581C1594.78 -68.6161 1595.02 -67.9475 1595.22 -67.2531L1595.24 -67.159C1596.15 -63.8937 1595.9 -60.5739 1594.74 -57.6395C1594.74 -57.6349 1594.74 -57.6299 1594.74 -57.6252C1594.21 -56.1725 1593.49 -54.713 1592.57 -53.2526C1590.83 -50.4814 1588.31 -47.5817 1584.76 -44.5139C1584.43 -44.1994 1584.1 -43.9217 1583.79 -43.6735C1572.53 -33.7465 1558.14 -29.1398 1542.22 -23.8236L1542.22 -23.823C1529.99 -19.7017 1515.28 -14.7511 1498.09 -7.03974C1497.98 -6.99412 1497.88 -6.94928 1497.78 -6.90594C1496.64 -6.42568 1495.42 -5.9593 1494.65 -5.66297C1492.87 -4.93185 1492.53 -4.83207 1491.72 -4.46807C1491.34 -4.29461 1490.95 -4.13717 1490.55 -3.99691C1481.83 -0.932785 1477.31 0.339156 1473.91 1.24938L1472.3 1.69753C1472.25 1.71156 1472.2 1.7233 1472.15 1.7368L1471.85 1.83594C1471.11 2.1158 1470.64 2.9823 1470.88 3.8212L1470.88 3.82214C1471.12 4.67067 1472 5.21089 1472.93 4.95274L1473.56 4.77939L1473.91 4.68667C1475.72 4.2292 1479.29 3.34736 1485.2 1.39512L1485.82 1.20405C1492.26 -0.620896 1499.17 2.05105 1502.69 7.80569C1502.86 8.07427 1502.99 8.3072 1503.09 8.48302C1503.15 8.60408 1503.21 8.71348 1503.25 8.80229C1503.66 9.539 1504 10.309 1504.28 11.1041C1506.15 16.494 1504.95 21.2822 1503.79 24.1112C1502.63 26.9418 1500.98 29.1874 1499.71 30.7131C1497.13 33.7966 1493.96 36.4427 1491.64 38.2345C1491.62 38.2506 1491.59 38.2664 1491.57 38.2824C1477.68 48.8807 1457.31 56.2154 1433.87 60.5458C1433.86 60.5484 1433.84 60.5508 1433.83 60.5533C1419.1 63.2304 1405.23 62.0631 1392.36 56.2293C1386.39 53.5237 1382.87 47.2576 1383.66 40.7534L1406.31 -145.069L1406.31 -145.093C1407.66 -156.061 1408.16 -166.936 1407.87 -177.686C1407.77 -180.841 1407.64 -183.861 1407.44 -186.807C1405.78 -210.678 1400.3 -233.656 1391.53 -255.092C1391.52 -255.11 1391.51 -255.13 1391.51 -255.148C1389.68 -259.668 1387.66 -264.115 1385.49 -268.539C1385.47 -268.57 1385.45 -268.605 1385.43 -268.642C1385.36 -268.785 1385.23 -269.018 1385.09 -269.298C1382.46 -274.497 1383.08 -280.748 1386.67 -285.331C1392.38 -292.608 1398.32 -299.981 1404.57 -307.326L1404.59 -307.347L1406.19 -309.224C1423.2 -329.296 1445.45 -355.732 1460.11 -379.25L1460.22 -379.423C1476.85 -405.305 1493.42 -436.085 1497.25 -477.194C1497.49 -480.112 1498.01 -486.69 1498.79 -492.624C1499.56 -498.565 1503.8 -503.475 1509.56 -505.113ZM1568 -206.173C1567.68 -206.063 1567.38 -205.968 1567.09 -205.887C1567.4 -205.974 1567.71 -206.071 1568 -206.173ZM1570.07 -207.071C1569.72 -206.889 1569.38 -206.725 1569.04 -206.58C1568.88 -206.511 1568.73 -206.447 1568.57 -206.385C1569.1 -206.594 1569.6 -206.824 1570.07 -207.071Z" fill="#E9F6FB" stroke="black" stroke-width="30" stroke-linejoin="round"/>
<path d="M1388.02 -312.759C1393.78 -314.397 1399.97 -312.447 1403.75 -307.802C1404.05 -307.439 1404.3 -307.112 1404.46 -306.906C1404.65 -306.65 1404.7 -306.592 1404.78 -306.488C1408.86 -301.261 1412.75 -294.296 1416.49 -286.305L1417.23 -284.691L1417.25 -284.654C1423.62 -270.635 1427.75 -255.264 1429.72 -238.942L1429.72 -238.941C1431.89 -221.987 1431.52 -205.62 1428.34 -190.31L1428.34 -190.309C1425.96 -178.639 1422.75 -167.668 1418.72 -157.554C1418.67 -157.433 1418.62 -157.312 1418.57 -157.192C1418.38 -156.752 1417.71 -155.115 1417.03 -153.704C1417.02 -153.679 1417.01 -153.653 1417 -153.627C1422.47 -157.362 1428.32 -159.646 1434.64 -159.806C1443.08 -160.019 1449.34 -156.301 1452.66 -154.168C1452.69 -154.152 1452.71 -154.136 1452.74 -154.119C1456.71 -151.536 1460.4 -147.553 1462.89 -140.929L1463.12 -140.28L1463.26 -139.891C1463.3 -139.761 1463.34 -139.63 1463.38 -139.499C1466.9 -127.514 1467.23 -115.556 1462.97 -104.073C1459.59 -94.9362 1453.68 -87.1357 1446.08 -80.3525C1450.17 -80.7457 1454.29 -80.7108 1458.31 -80.2378L1459.26 -80.1181L1459.6 -80.067C1462.93 -79.5368 1466.57 -78.6568 1469.92 -77.0398C1473.09 -75.5076 1477.38 -72.6332 1479.87 -67.4319L1480.11 -66.9217L1480.13 -66.8775C1481.63 -63.4623 1485.32 -54.816 1481.66 -42.6731C1478.28 -31.4545 1469.34 -19.6081 1452.62 -6.58263C1452.61 -6.57693 1452.61 -6.5709 1452.6 -6.56522C1446.63 -1.9367 1439.85 2.70829 1432.46 7.25365C1433.07 7.39436 1433.68 7.57345 1434.28 7.79383C1434.84 7.99904 1435.06 8.08218 1435.26 8.15448L1436.05 8.44933L1436.3 8.54209C1446.22 12.3566 1453.42 19.0522 1457.85 28.6155C1457.99 28.8848 1458.08 29.0895 1458.13 29.1893C1458.17 29.2739 1458.2 29.3572 1458.23 29.4349C1458.53 30.1088 1458.79 30.8136 1458.99 31.5461L1459.01 31.6185C1459.91 34.8546 1459.68 38.1443 1458.54 41.0592L1458.35 41.5744C1457.88 42.7751 1457.27 43.9536 1456.55 45.1071C1454.98 47.596 1452.78 50.0904 1449.85 52.6366C1449.56 52.9009 1449.28 53.1381 1449.02 53.3529C1439.63 61.6054 1427.7 65.3802 1415.48 69.4593L1415.48 69.46C1405.93 72.6782 1394.57 76.5018 1381.3 82.4541C1381.2 82.4997 1381.1 82.5446 1381 82.5879C1380.4 82.8398 1379.77 83.0864 1379.25 83.291C1382.12 84.4682 1384.64 86.5393 1386.36 89.3421C1386.44 89.477 1386.51 89.6016 1386.58 89.7119C1386.64 89.8222 1386.7 89.9225 1386.75 90.0108C1386.84 90.184 1386.92 90.3297 1386.97 90.428C1387.33 91.111 1387.64 91.8215 1387.9 92.5534C1389.72 97.7856 1388.53 102.396 1387.45 105.037C1386.37 107.68 1384.85 109.727 1383.74 111.052C1381.5 113.735 1378.8 115.974 1376.92 117.423C1376.9 117.439 1376.88 117.456 1376.86 117.472C1365.42 126.196 1348.94 132.054 1330.39 135.48C1330.38 135.483 1330.36 135.485 1330.35 135.488C1318.3 137.678 1306.77 136.746 1296.02 131.87C1290.05 129.164 1286.53 122.899 1287.32 116.395L1305.01 -28.757L1305.01 -28.7813C1306.05 -37.208 1306.43 -45.5649 1306.21 -53.8275C1306.12 -56.239 1306.03 -58.525 1305.88 -60.7442C1304.6 -79.0336 1300.4 -96.637 1293.68 -113.059C1293.68 -113.078 1293.67 -113.096 1293.66 -113.115C1292.27 -116.546 1290.74 -119.931 1289.08 -123.309C1289.05 -123.375 1289 -123.461 1288.95 -123.561C1288.89 -123.661 1288.83 -123.781 1288.76 -123.916C1286.13 -129.115 1286.75 -135.367 1290.35 -139.95C1294.83 -145.656 1299.49 -151.45 1304.41 -157.23L1304.42 -157.251L1305.7 -158.749C1319.02 -174.461 1336.21 -194.907 1347.5 -213.023L1347.61 -213.196C1360.48 -233.226 1373.1 -256.722 1376.03 -288.03C1376.21 -290.276 1376.63 -295.522 1377.25 -300.27L1377.33 -300.824C1378.29 -306.515 1382.44 -311.172 1388.02 -312.759ZM1386.74 90.0134C1386.73 89.9978 1386.72 89.9812 1386.71 89.9651C1386.7 89.9512 1386.69 89.9379 1386.68 89.9236C1386.7 89.9535 1386.72 89.9834 1386.74 90.0134ZM1288.98 -123.529C1288.98 -123.514 1288.99 -123.501 1289 -123.487C1288.93 -123.619 1288.87 -123.752 1288.81 -123.886C1288.87 -123.748 1288.93 -123.628 1288.98 -123.529Z" fill="#E9F6FB" stroke="black" stroke-width="30" stroke-linejoin="round"/>
<path d="M1141.22 63.6006C1240.3 200.438 1244.96 383.024 1232.18 482.695C1229.46 503.922 1216.15 521.933 1197.62 532.633L1109.19 583.686L1020.76 634.739C1002.23 645.439 979.975 647.963 960.231 639.707C867.524 600.938 711.733 505.605 642.766 351.384C637.537 339.692 633.141 328.668 629.517 318.279C663.005 283.271 757.683 219.203 822.523 184.903L864.845 160.468L907.167 136.034C969.292 97.0309 1072.11 47.0708 1119.18 35.5742C1126.36 43.9068 1133.71 53.2259 1141.22 63.6006Z" fill="#CC1A1C"/>
<path d="M1195.21 10.4812L1231.21 2.2381C1254.6 -0.00467745 1277.15 -1.10634 1298.59 -0.479645C1432.37 3.43008 1522.97 74.6061 1504.19 355.631L1429.36 398.838C1377.69 428.666 1312.37 388.844 1306.63 329.463C1290.46 161.935 1229.01 56.037 1195.21 10.4812Z" fill="#CC1A1C"/>
<path d="M544.633 398.632L569.769 371.581C592.322 423.629 653.306 529.798 790.304 627.567C838.863 662.221 840.687 738.706 789.023 768.534L714.187 811.741C461.425 687.488 445.085 573.438 508.586 455.631C518.765 436.747 530.995 417.766 544.633 398.632Z" fill="#CC1A1C"/>
<path d="M1195.21 10.4812L1231.21 2.2381M1504.19 355.631L1429.36 398.838C1377.69 428.666 1312.37 388.844 1306.63 329.463C1290.46 161.935 1229.01 56.037 1195.21 10.4812C1195.21 10.4812 1027.2 -224.229 895.463 -25.4146C882.744 -6.22049 870.363 17.0144 858.504 44.8912C843.389 80.4233 806.252 101.864 767.922 97.1888C737.851 93.5205 711.538 92.6251 688.556 94.0428C450.507 108.727 569.769 371.581 569.769 371.581C592.322 423.628 653.306 529.798 790.304 627.567C838.863 662.221 840.687 738.706 789.023 768.534L714.187 811.741M1231.21 2.2381C1227.01 -267.447 1667.99 -257.366 1611.92 338.83C1610.41 354.831 1613.7 371.526 1621.74 385.445C1647.61 430.26 1666.58 463.102 1680.46 487.143C1701.16 523.007 1688.83 568.787 1652.97 589.493L1247.65 823.506L842.328 1057.52C806.464 1078.22 760.654 1066.01 739.948 1030.15C726.068 1006.11 707.106 973.262 681.233 928.446C673.198 914.527 660.383 903.332 645.773 896.634C101.416 647.098 313.178 260.151 544.632 398.632M1231.21 2.2381C1254.6 -0.0046769 1277.15 -1.10634 1298.59 -0.479638M1504.19 355.631L1525.18 343.516C1544.64 332.281 1558.35 312.915 1560.5 290.547C1575.22 137.39 1519.84 12.5785 1486.97 -32.5658C1462.9 -68.8277 1400.93 -132.736 1354.99 -103.706C1327.42 -86.2877 1305.38 -58.2179 1298.59 -0.479638M1504.19 355.631C1522.97 74.6061 1432.37 3.43006 1298.59 -0.479638M1119.18 35.5742C1072.11 47.0708 969.292 97.0309 907.167 136.034L864.845 160.468L822.523 184.903C757.683 219.203 663.005 283.271 629.517 318.279M629.517 318.279C633.141 328.668 637.537 339.692 642.766 351.384C711.733 505.605 867.524 600.938 960.231 639.707C979.975 647.963 1002.23 645.439 1020.76 634.739L1109.19 583.686L1197.62 532.633C1216.15 521.933 1229.46 503.922 1232.18 482.695C1244.96 383.024 1240.3 200.438 1141.22 63.6006C1133.71 53.2259 1126.36 43.9068 1119.18 35.5742C993.171 -110.573 917.92 46.7818 907.167 136.034M569.769 371.581L544.632 398.632M544.632 398.632C530.995 417.766 518.765 436.747 508.586 455.631M714.187 811.741L693.204 823.855C673.743 835.091 650.114 837.287 629.667 827.964C489.673 764.129 409.272 653.764 386.608 602.731C367.24 563.754 342.882 478.126 390.992 452.857C419.858 437.696 455.187 432.644 508.586 455.631M714.187 811.741C461.425 687.488 445.085 573.438 508.586 455.631M822.523 184.903C739.852 149.589 565.953 136.081 629.517 318.279" stroke="black" stroke-width="30.004"/>
<path fill-rule="evenodd" clip-rule="evenodd" d="M544.632 398.635C313.178 260.154 101.416 647.101 645.773 896.637C660.383 903.335 673.197 914.53 681.233 928.449C707.106 973.265 726.067 1006.11 739.947 1030.15C760.653 1066.01 806.464 1078.23 842.327 1057.52L1247.65 823.508L1652.97 589.496C1688.83 568.79 1701.16 523.01 1680.46 487.146C1666.58 463.105 1647.61 430.263 1621.74 385.448C1613.7 371.529 1610.41 354.834 1611.92 338.832C1667.99 -257.363 1227.01 -267.444 1231.21 2.24109C1254.6 -0.00170899 1277.15 -1.10333 1298.59 -0.476642C1305.38 -58.2149 1327.42 -86.2847 1354.99 -103.703C1400.93 -132.733 1462.9 -68.8247 1486.97 -32.5628C1519.84 12.5815 1575.22 137.393 1560.5 290.549C1558.35 312.918 1544.64 332.284 1525.18 343.519L1504.19 355.634L1429.36 398.841C1377.69 428.669 1312.37 388.846 1306.63 329.466C1290.46 161.938 1229.01 56.0399 1195.21 10.4842C1195.21 10.4842 1027.2 -224.226 895.462 -25.4115C882.744 -6.2174 870.363 17.0175 858.504 44.8943C843.389 80.4264 806.251 101.868 767.922 97.1919C737.851 93.5236 711.538 92.6282 688.556 94.0459C450.507 108.73 569.768 371.584 569.768 371.584C592.322 423.631 653.305 529.801 790.303 627.57C838.862 662.224 840.686 738.709 789.023 768.537L714.186 811.744L693.203 823.858C673.742 835.094 650.113 837.29 629.667 827.967C489.673 764.132 409.271 653.767 386.608 602.734C367.239 563.757 342.881 478.129 390.992 452.86C419.858 437.699 455.187 432.647 508.586 455.634C518.765 436.75 530.995 417.769 544.632 398.635ZM1020.76 634.742C1002.23 645.442 979.975 647.966 960.231 639.71C867.524 600.941 711.732 505.609 642.766 351.387C637.537 339.695 633.141 328.671 629.517 318.282C565.953 136.084 739.852 149.592 822.523 184.906L864.844 160.471L907.166 136.037C917.919 46.7849 993.171 -110.57 1119.18 35.5771C1126.36 43.9097 1133.71 53.2289 1141.22 63.6036C1240.3 200.441 1244.96 383.027 1232.18 482.697C1229.46 503.924 1216.15 521.936 1197.62 532.636L1109.19 583.689L1020.76 634.742Z" fill="#FBEA5B"/>
<path d="M569.768 371.584L544.632 398.635M714.186 811.744L789.023 768.537C840.686 738.709 838.862 662.224 790.303 627.57C653.305 529.801 592.322 423.631 569.768 371.584C569.768 371.584 450.507 108.73 688.556 94.0459C711.538 92.6282 737.851 93.5236 767.922 97.1919C806.251 101.868 843.389 80.4264 858.504 44.8943C870.363 17.0175 882.744 -6.21739 895.462 -25.4115C1027.2 -224.226 1195.21 10.4842 1195.21 10.4842C1229.01 56.0399 1290.46 161.938 1306.63 329.466C1312.37 388.846 1377.69 428.669 1429.36 398.841L1504.19 355.634M544.632 398.635C313.178 260.154 101.416 647.101 645.773 896.637C660.383 903.335 673.197 914.53 681.233 928.449C707.106 973.265 726.067 1006.11 739.947 1030.15C760.653 1066.01 806.464 1078.23 842.327 1057.52L1247.65 823.508L1652.97 589.496C1688.83 568.79 1701.16 523.01 1680.46 487.146C1666.58 463.105 1647.61 430.263 1621.74 385.448C1613.7 371.529 1610.41 354.834 1611.92 338.832C1667.99 -257.363 1227.01 -267.444 1231.21 2.24107M544.632 398.635C530.995 417.769 518.765 436.75 508.586 455.634M714.186 811.744L693.203 823.858C673.742 835.094 650.113 837.29 629.667 827.967C489.673 764.132 409.271 653.767 386.608 602.734C367.239 563.757 342.881 478.129 390.992 452.86C419.858 437.699 455.187 432.647 508.586 455.634M714.186 811.744C461.424 687.491 445.084 573.441 508.586 455.634M629.517 318.282C663.004 283.274 757.683 219.206 822.523 184.906L864.844 160.471L907.166 136.037C969.291 97.0339 1072.11 47.0738 1119.18 35.5771M1119.18 35.5771C1126.36 43.9097 1133.71 53.2289 1141.22 63.6036C1240.3 200.441 1244.96 383.027 1232.18 482.698C1229.46 503.924 1216.15 521.936 1197.62 532.636L1109.19 583.689L1020.76 634.742C1002.23 645.442 979.975 647.966 960.231 639.71C867.524 600.941 711.732 505.609 642.766 351.387C637.537 339.695 633.141 328.671 629.517 318.282C565.953 136.084 739.852 149.592 822.523 184.906M1195.21 10.4842L1231.21 2.24107M1231.21 2.24107C1254.6 -0.0016885 1277.15 -1.10333 1298.59 -0.476641M1504.19 355.634L1525.18 343.519C1544.64 332.284 1558.35 312.918 1560.5 290.549C1575.22 137.393 1519.84 12.5815 1486.97 -32.5628C1462.9 -68.8247 1400.93 -132.733 1354.99 -103.703C1327.42 -86.2847 1305.38 -58.2149 1298.59 -0.476641M1504.19 355.634C1522.97 74.609 1432.37 3.43306 1298.59 -0.476641M907.166 136.037C917.919 46.7849 993.171 -110.57 1119.18 35.5771" stroke="black" stroke-width="30.004"/>
<path d="M883.636 943.196C881.196 954.873 869.143 961.832 857.811 958.106L812.674 943.265C803.147 940.132 797.413 930.429 799.265 920.573L808.243 872.784C810.505 860.741 822.968 853.545 834.529 857.608L880.404 873.727C889.866 877.051 895.402 886.869 893.352 896.686L883.636 943.196Z" fill="#55E748"/>
<path d="M883.636 943.196C881.196 954.873 869.143 961.832 857.811 958.106L812.674 943.265C803.147 940.132 797.413 930.429 799.265 920.573L808.243 872.784C810.505 860.741 822.968 853.545 834.529 857.608L880.404 873.727C889.866 877.051 895.402 886.869 893.352 896.686L883.636 943.196Z" stroke="black" stroke-width="30.004"/>
<path d="M1089.79 843.425L1006.76 816.124L1023.28 728.215L1107.67 757.867L1089.79 843.425Z" fill="#55E748"/>
<path d="M1089.79 843.425L1006.76 816.124L1023.28 728.215L1107.67 757.867L1089.79 843.425Z" stroke="black" stroke-width="30.004"/>
<path d="M1343.83 696.76L1260.8 669.46L1277.31 581.551L1361.7 611.203L1343.83 696.76Z" fill="#55E748"/>
<path d="M1343.83 696.76L1260.8 669.46L1277.31 581.551L1361.7 611.203L1343.83 696.76Z" stroke="black" stroke-width="30.004"/>
<path d="M1559.14 553.196C1556.7 564.873 1544.64 571.832 1533.31 568.106L1488.17 553.265C1478.65 550.132 1472.91 540.429 1474.77 530.573L1483.74 482.784C1486.01 470.741 1498.47 463.545 1510.03 467.608L1555.91 483.727C1565.37 487.051 1570.9 496.869 1568.85 506.686L1559.14 553.196Z" fill="#55E748"/>
<path d="M1559.14 553.196C1556.7 564.873 1544.64 571.832 1533.31 568.106L1488.17 553.265C1478.65 550.132 1472.91 540.429 1474.77 530.573L1483.74 482.784C1486.01 470.741 1498.47 463.545 1510.03 467.608L1555.91 483.727C1565.37 487.051 1570.9 496.869 1568.85 506.686L1559.14 553.196Z" stroke="black" stroke-width="30.004"/>
<path d="M1041.72 466.832L925.364 401.039L925.208 265.021L1042.92 333.165L1041.72 466.832Z" fill="#55E748"/>
<path d="M1041.72 466.832L925.364 401.039L925.208 265.021L1042.92 333.165L1041.72 466.832Z" stroke="black" stroke-width="30.004"/>
<path d="M736.289 700.36L631.267 692.164L570.82 603.443L677.77 612.768L736.289 700.36Z" fill="#FBEA5B" stroke="black" stroke-width="30.004"/>
<path d="M1396.68 319.074L1442.09 224.024L1395.48 127.315L1350.08 224.599L1396.68 319.074Z" fill="#FBEA5B" stroke="black" stroke-width="30.004"/>
<path d="M830.113 -93.4763L792.242 34.7195L662.286 3.41834L624.774 -127.325L711.247 -105.568L735.642 -191.334L830.113 -93.4763Z" fill="#55E748" stroke="black" stroke-width="30"/>
</g>
<defs>
<clipPath id="clip0_4368_3929">
<rect width="3000" height="3000" fill="white" transform="translate(0 8.055) rotate(-0.153839)"/>
</clipPath>
</defs>
</svg>
