<svg width="3009" height="3009" viewBox="0 0 3009 3009" fill="none" xmlns="http://www.w3.org/2000/svg">
<g clip-path="url(#clip0_4368_3925)">
<path d="M949.322 -460.195C952.24 -465.428 957.991 -468.422 963.951 -467.812C964.478 -467.759 964.948 -467.697 965.265 -467.654C965.625 -467.606 965.765 -467.586 965.944 -467.564L966.747 -467.46C975.103 -466.336 985.058 -463.426 996.036 -459.337C996.048 -459.333 996.061 -459.328 996.073 -459.323C1014.09 -452.557 1031.39 -442.607 1047.65 -429.837L1047.65 -429.837C1064.65 -416.69 1078.8 -401.875 1089.48 -385.572L1089.49 -385.572C1097.77 -373.037 1104.68 -360.421 1110.07 -347.869C1110.12 -347.75 1110.17 -347.628 1110.22 -347.507C1110.51 -346.777 1111.34 -344.815 1111.96 -343.049C1111.98 -342.989 1112.01 -342.92 1112.04 -342.847C1112.08 -342.744 1112.13 -342.596 1112.2 -342.416C1113.29 -339.517 1114.25 -336.406 1115.28 -332.335C1115.28 -332.305 1115.29 -332.276 1115.3 -332.246C1118.12 -320.737 1119.67 -308.245 1120.1 -295.141C1120.1 -295.121 1120.1 -295.099 1120.1 -295.079C1120.13 -294.245 1120.84 -293.487 1121.79 -293.487C1122.72 -293.528 1123.42 -294.314 1123.4 -295.17L1123.4 -295.216C1123.21 -308.202 1121.83 -320.175 1119.41 -330.78C1119.1 -332.129 1118.98 -333.515 1119.05 -334.897C1119.65 -346.485 1122.72 -356.102 1129.36 -363.09C1135.49 -369.534 1142.88 -371.771 1147.7 -372.881L1148.63 -373.089L1148.71 -373.107C1153.94 -374.215 1160.19 -373.997 1167.96 -370.297C1168.21 -370.179 1168.45 -370.054 1168.7 -369.923C1182.12 -362.605 1192.5 -352.684 1198.59 -339.425C1204.55 -326.451 1205.7 -311.793 1203.55 -296.025C1203.53 -295.825 1203.51 -295.625 1203.49 -295.425C1203.48 -295.251 1203.48 -295.168 1203.48 -295.155L1203.48 -295.155C1204.23 -282.385 1202.35 -260.877 1191.8 -225.361C1191.7 -224.948 1191.6 -224.565 1191.49 -224.213C1191.43 -223.903 1191.46 -223.589 1191.6 -223.267C1191.75 -222.922 1192 -222.654 1192.27 -222.484L1192.39 -222.417L1192.41 -222.409C1192.44 -222.391 1192.54 -222.35 1192.75 -222.281C1193.58 -222.062 1194.46 -222.565 1194.7 -223.362L1194.71 -223.408C1203.43 -252.519 1207.21 -274.271 1207.04 -290.309L1207.04 -290.934C1207.14 -294.052 1208.2 -297.069 1210.1 -299.559C1213.68 -304.264 1217.83 -308.501 1222.37 -312.081L1223.28 -312.788L1223.56 -312.994C1226.88 -315.403 1230.59 -317.644 1234.55 -319.025C1238.31 -320.338 1243.74 -321.359 1249.49 -319.343L1250.04 -319.138L1250.09 -319.12C1254.21 -317.52 1264.24 -313.511 1271.2 -300.526C1277.71 -288.392 1280.41 -270.583 1277.12 -244.074C1277.12 -244.065 1277.12 -244.056 1277.11 -244.046C1275.73 -233.03 1273.36 -220.952 1270.12 -208.268C1270.02 -207.892 1269.91 -207.52 1269.79 -207.152C1269.49 -206.263 1269.28 -205.452 1268.79 -203.707L1268.79 -203.706C1268.39 -202.218 1267.94 -200.77 1267.59 -199.669L1267.59 -199.669C1264.32 -189.162 1260.95 -178.046 1260.38 -175.385C1260.37 -175.339 1260.36 -175.293 1260.35 -175.248C1260.27 -174.899 1260.32 -174.597 1260.46 -174.302C1260.62 -173.973 1260.89 -173.7 1261.21 -173.54C1261.22 -173.535 1261.24 -173.53 1261.25 -173.524C1261.21 -173.544 1261.33 -173.479 1261.67 -173.396C1262.49 -173.225 1263.41 -173.771 1263.62 -174.667L1263.62 -174.666C1264.17 -177.058 1266.54 -185.128 1270.73 -198.609L1270.8 -198.832C1271.06 -199.622 1271.19 -200.026 1271.28 -200.376C1272.43 -204.683 1275.43 -208.257 1279.47 -210.13C1280.09 -210.415 1280.38 -210.55 1280.65 -210.672L1281.67 -211.14L1281.92 -211.251C1293.38 -216.35 1304.85 -216.75 1316.51 -212.461C1316.82 -212.358 1317.05 -212.274 1317.16 -212.232C1317.31 -212.174 1317.46 -212.114 1317.58 -212.062C1318.23 -211.806 1318.88 -211.504 1319.5 -211.149L1319.59 -211.101C1322.54 -209.434 1324.71 -206.912 1325.97 -204.017C1325.97 -204.012 1325.97 -204.008 1325.97 -204.004C1326.63 -202.606 1327.15 -201.064 1327.54 -199.382C1328.26 -196.191 1328.53 -192.353 1328.19 -187.676C1328.18 -187.218 1328.14 -186.79 1328.1 -186.396C1327.15 -171.413 1320.24 -157.982 1312.74 -142.967L1312.74 -142.968C1307.01 -131.403 1300.1 -117.499 1293.4 -99.8911C1293.36 -99.787 1293.32 -99.6831 1293.28 -99.5798C1292.81 -98.4356 1292.28 -97.2398 1291.95 -96.4897C1291.2 -94.7139 1291.03 -94.4036 1290.72 -93.574C1290.57 -93.1786 1290.4 -92.7894 1290.22 -92.4081C1286.22 -84.0791 1283.93 -79.9858 1282.17 -76.9348L1281.34 -75.4775C1281.32 -75.4319 1281.29 -75.3875 1281.26 -75.3421L1281.12 -75.0636C1280.8 -74.3438 1281.08 -73.3992 1281.84 -72.972L1281.84 -72.9715C1282.61 -72.5393 1283.62 -72.7857 1284.09 -73.6255L1284.41 -74.1892L1284.59 -74.501C1285.55 -76.1071 1287.45 -79.2533 1290.25 -84.8122L1290.55 -85.387C1293.82 -91.2322 1300.6 -94.2298 1307.16 -92.652C1307.46 -92.5783 1307.72 -92.5073 1307.91 -92.4509C1308.04 -92.4121 1308.16 -92.374 1308.26 -92.3438C1309.06 -92.1094 1309.85 -91.8074 1310.61 -91.4408C1315.75 -88.9554 1318.28 -84.7185 1319.46 -81.898C1320.64 -79.0758 1321.06 -76.3214 1321.24 -74.3421C1321.6 -70.3421 1321.23 -66.2269 1320.85 -63.3167C1320.85 -63.2906 1320.85 -63.2646 1320.84 -63.2385C1318.51 -45.9179 1309.3 -26.3334 1295.78 -6.69262C1295.77 -6.68104 1295.77 -6.66954 1295.76 -6.65798C1287.24 5.6501 1276.6 14.6326 1263.38 19.6064C1257.25 21.9131 1250.33 19.9721 1246.29 14.8125L1130.9 -132.594L1130.88 -132.613C1124.09 -141.327 1116.75 -149.365 1108.95 -156.766C1106.64 -158.923 1104.41 -160.968 1102.19 -162.912C1084.13 -178.613 1064.01 -190.988 1042.65 -199.943C1042.64 -199.951 1042.62 -199.959 1042.6 -199.967C1038.11 -201.87 1033.54 -203.59 1028.87 -205.181C1028.84 -205.191 1028.8 -205.203 1028.76 -205.214C1028.61 -205.26 1028.35 -205.336 1028.05 -205.434C1022.52 -207.25 1018.53 -212.107 1017.84 -217.892C1016.73 -227.077 1015.72 -236.49 1014.94 -246.099L1014.94 -246.126L1014.74 -248.586C1012.58 -274.806 1009.62 -309.232 1003.35 -336.228L1003.31 -336.428C996.764 -366.487 986.721 -399.974 960.359 -431.747C958.464 -433.98 954.183 -439.002 950.535 -443.745C946.882 -448.494 946.405 -454.962 949.322 -460.195ZM1202.03 -290.136C1201.88 -289.835 1201.73 -289.552 1201.59 -289.288C1201.75 -289.572 1201.89 -289.855 1202.03 -290.136ZM1202.86 -292.234C1202.74 -291.86 1202.61 -291.502 1202.48 -291.162C1202.42 -291.001 1202.35 -290.844 1202.28 -290.69C1202.51 -291.213 1202.7 -291.729 1202.86 -292.234Z" fill="#E9F6FB" stroke="black" stroke-width="30" stroke-linejoin="round"/>
<path d="M999.396 -238.239C1002.31 -243.472 1008.06 -246.467 1014.02 -245.858C1014.49 -245.81 1014.9 -245.756 1015.15 -245.722C1015.47 -245.679 1015.55 -245.668 1015.68 -245.652C1022.26 -244.844 1029.94 -242.67 1038.23 -239.662L1039.9 -239.048L1039.94 -239.034C1054.35 -233.622 1068.15 -225.679 1081.07 -215.525L1081.08 -215.525C1094.6 -205.07 1105.91 -193.24 1114.49 -180.161L1114.49 -180.162C1121.06 -170.226 1126.55 -160.199 1130.85 -150.197C1130.9 -150.077 1130.95 -149.957 1131 -149.836C1131.17 -149.391 1131.86 -147.762 1132.38 -146.284C1132.39 -146.259 1132.4 -146.233 1132.41 -146.206C1133.63 -152.714 1136.16 -158.467 1140.52 -163.052C1146.33 -169.165 1153.38 -170.964 1157.25 -171.807C1157.27 -171.813 1157.3 -171.82 1157.33 -171.827C1161.97 -172.81 1167.39 -172.598 1173.83 -169.674L1174.46 -169.383L1174.83 -169.201C1174.95 -169.139 1175.07 -169.075 1175.19 -169.01C1186.16 -163.03 1194.85 -154.804 1199.96 -143.674C1204.02 -134.819 1205.37 -125.129 1204.78 -114.956C1207.4 -118.129 1210.34 -121.016 1213.51 -123.522L1214.27 -124.11L1214.55 -124.315C1217.28 -126.297 1220.47 -128.245 1223.98 -129.469C1227.31 -130.63 1232.37 -131.628 1237.82 -129.716L1238.34 -129.522L1238.39 -129.504C1241.87 -128.154 1250.59 -124.648 1256.59 -113.471C1262.13 -103.146 1264.19 -88.4517 1261.57 -67.418C1261.57 -67.4088 1261.57 -67.399 1261.57 -67.3898C1260.63 -59.8995 1259.11 -51.8201 1257.1 -43.3766C1257.63 -43.7128 1258.19 -44.0179 1258.77 -44.2869C1259.31 -44.5373 1259.53 -44.6344 1259.72 -44.7184L1260.49 -45.0724L1260.73 -45.1834C1270.44 -49.5037 1280.26 -49.8548 1290.16 -46.2302C1290.45 -46.1346 1290.66 -46.0564 1290.76 -46.0175C1290.85 -45.9845 1290.93 -45.9493 1291.01 -45.9179C1291.7 -45.6539 1292.38 -45.3358 1293.04 -44.9618L1293.1 -44.9248C1296.03 -43.2724 1298.19 -40.7805 1299.45 -37.9183L1299.68 -37.4166C1300.19 -36.233 1300.6 -34.9714 1300.9 -33.6432C1301.55 -30.7774 1301.76 -27.4593 1301.49 -23.5819C1301.47 -23.1945 1301.44 -22.8301 1301.41 -22.4909C1300.6 -10.0129 1294.83 1.09192 1289.08 12.6131L1289.08 12.6128C1284.6 21.6432 1279.28 32.3792 1274.1 45.9706C1274.06 46.0747 1274.02 46.1786 1273.98 46.2819C1273.74 46.8819 1273.47 47.5003 1273.24 48.0162C1276.11 46.814 1279.35 46.4971 1282.55 47.2659C1282.7 47.3029 1282.84 47.3392 1282.96 47.3723C1283.09 47.4055 1283.2 47.4364 1283.29 47.4647C1283.48 47.5203 1283.64 47.5699 1283.75 47.6039C1284.49 47.8295 1285.21 48.1116 1285.91 48.4491C1290.89 50.8619 1293.32 54.9576 1294.42 57.5908C1295.52 60.2257 1295.9 62.7461 1296.05 64.4656C1296.36 67.946 1296.04 71.4383 1295.73 73.7927C1295.73 73.8189 1295.73 73.8453 1295.72 73.8714C1293.8 88.128 1286.29 103.924 1275.6 119.464C1275.59 119.476 1275.58 119.487 1275.57 119.499C1268.6 129.569 1259.79 137.061 1248.74 141.219C1242.6 143.525 1235.69 141.585 1231.65 136.425L1141.51 21.2813L1141.5 21.2617C1136.28 14.5671 1130.63 8.39168 1124.64 2.70548C1122.87 1.05759 1121.19 -0.489207 1119.51 -1.95367C1105.68 -13.982 1090.26 -23.463 1073.9 -30.3235C1073.88 -30.3312 1073.86 -30.339 1073.84 -30.3468C1070.44 -31.7916 1066.96 -33.1016 1063.4 -34.3172C1063.32 -34.3383 1063.23 -34.3664 1063.12 -34.3993C1063.01 -34.4324 1062.88 -34.4725 1062.74 -34.5197C1057.2 -36.3356 1053.22 -41.1938 1052.52 -46.9785C1051.66 -54.1804 1050.86 -61.5774 1050.25 -69.139L1050.24 -69.1662L1050.09 -71.1284C1048.39 -91.6534 1046.09 -118.271 1041.27 -139.065L1041.22 -139.265C1036.16 -162.529 1028.47 -188.063 1008.4 -212.272C1006.94 -213.991 1003.53 -217.995 1000.61 -221.79L1000.28 -222.24C996.929 -226.942 996.57 -233.17 999.396 -238.239ZM1283.29 47.4732C1283.27 47.4685 1283.25 47.4627 1283.24 47.4579C1283.22 47.4537 1283.2 47.451 1283.19 47.4467C1283.22 47.4555 1283.26 47.4642 1283.29 47.4732ZM1063.17 -34.3979C1063.18 -34.3927 1063.2 -34.3879 1063.21 -34.383C1063.07 -34.4315 1062.93 -34.4805 1062.8 -34.533C1062.94 -34.4792 1063.06 -34.4341 1063.17 -34.3979Z" fill="#E9F6FB" stroke="black" stroke-width="30" stroke-linejoin="round"/>
<path d="M288.337 -78.5738C282.346 -78.6639 276.877 -75.1803 274.425 -69.7138C274.208 -69.2305 274.027 -68.793 273.905 -68.4969C273.767 -68.1611 273.714 -68.03 273.644 -67.8635L273.333 -67.1163C270.128 -59.3179 267.67 -49.2418 265.722 -37.6903C265.72 -37.6772 265.718 -37.6635 265.716 -37.6503C262.566 -18.6611 262.532 1.29502 265.466 21.7552L265.465 21.7561C268.349 43.0549 274.104 62.7184 282.881 80.1218L282.88 80.1227C289.592 93.5665 297.067 105.854 305.238 116.803C305.316 116.907 305.396 117.011 305.476 117.113C305.963 117.732 307.248 119.43 308.47 120.844C308.51 120.895 308.556 120.955 308.605 121.017C308.674 121.103 308.775 121.225 308.897 121.371C310.864 123.762 313.077 126.151 316.09 129.075C316.112 129.097 316.134 129.118 316.156 129.139C324.71 137.342 334.753 144.93 345.888 151.852C345.905 151.863 345.923 151.874 345.941 151.885C346.651 152.322 346.95 153.321 346.476 154.142C345.977 154.923 344.946 155.137 344.213 154.696L344.173 154.672C333.024 148.009 323.342 140.833 315.37 133.433C314.356 132.492 313.215 131.695 311.983 131.066C301.646 125.792 291.787 123.635 282.414 125.895C273.769 127.979 268.136 133.263 264.765 136.882L264.12 137.582L264.06 137.648C260.491 141.616 257.552 147.141 256.87 155.723C256.849 155.997 256.834 156.27 256.828 156.544C256.454 171.828 259.854 185.78 268.293 197.683C276.549 209.33 288.67 217.653 303.398 223.678C303.58 223.763 303.763 223.846 303.949 223.924C304.105 224.003 304.176 224.045 304.187 224.051L304.188 224.05C314.871 231.087 334.436 240.215 370.47 248.834C370.875 248.959 371.26 249.06 371.619 249.14C371.92 249.24 372.175 249.426 372.382 249.709C372.606 250.014 372.716 250.358 372.725 250.683L372.723 250.821L372.722 250.839C372.719 250.878 372.71 250.977 372.663 251.197C372.438 252.023 371.56 252.539 370.752 252.345L370.705 252.334C341.134 245.33 320.407 237.725 306.605 229.556L306.06 229.249C303.312 227.773 300.167 227.188 297.062 227.584C291.197 228.334 285.453 229.808 280.085 231.946L279.016 232.383L278.698 232.52C274.952 234.192 271.156 236.287 267.979 239.026C264.961 241.628 261.361 245.821 260.235 251.803L260.134 252.388L260.127 252.435C259.451 256.807 257.911 267.491 265.673 280.017C272.926 291.722 287.001 302.963 311.605 313.366C311.613 313.37 311.622 313.373 311.63 313.377C321.865 317.682 333.509 321.672 346.112 325.209C346.486 325.314 346.864 325.404 347.244 325.479C348.166 325.662 348.973 325.887 350.728 326.338L350.729 326.337C352.217 326.737 353.697 327.068 354.822 327.321L354.823 327.32C365.56 329.737 376.872 332.377 379.459 333.217C379.504 333.231 379.548 333.245 379.593 333.259C379.934 333.366 380.174 333.554 380.357 333.828C380.562 334.132 380.663 334.502 380.641 334.86C380.64 334.872 380.639 334.884 380.638 334.896C380.641 334.851 380.636 334.992 380.539 335.326C380.275 336.124 379.343 336.646 378.463 336.378L378.463 336.379C376.115 335.662 367.942 333.679 354.172 330.567L353.943 330.517C353.13 330.347 352.717 330.254 352.367 330.16C348.065 328.998 343.468 329.811 339.824 332.377C339.269 332.767 339.004 332.956 338.764 333.129L337.849 333.778L337.632 333.933C327.482 341.313 321.404 351.041 319.285 363.289C319.22 363.607 319.178 363.849 319.159 363.965C319.133 364.126 319.114 364.279 319.096 364.414C318.991 365.107 318.932 365.815 318.925 366.536L318.924 366.633C318.893 370.022 319.991 373.165 321.871 375.699C321.874 375.703 321.876 375.708 321.879 375.712C322.761 376.979 323.835 378.202 325.1 379.375C327.499 381.602 330.692 383.748 334.911 385.794C335.315 386.011 335.703 386.194 336.066 386.354C349.514 393.028 364.603 393.754 381.354 394.769L381.353 394.77C394.237 395.585 409.73 396.559 428.33 399.558C428.44 399.576 428.55 399.593 428.66 399.608C429.884 399.778 431.187 399.911 432.002 399.999C433.911 400.245 434.265 400.253 435.141 400.396C435.558 400.463 435.978 400.514 436.4 400.546C445.611 401.25 450.303 401.31 453.827 401.308L455.501 401.323C455.553 401.324 455.606 401.322 455.658 401.322L455.969 401.341C456.754 401.42 457.432 402.136 457.422 403.007L457.422 403.008C457.412 403.889 456.694 404.641 455.729 404.632L455.082 404.626L454.721 404.627C452.851 404.654 449.177 404.726 442.964 404.369L442.313 404.346C435.619 404.25 429.635 408.62 427.721 415.09C427.632 415.392 427.564 415.652 427.517 415.846C427.484 415.98 427.459 416.1 427.438 416.198C427.237 417.015 427.105 417.847 427.043 418.687C426.627 424.378 429.029 428.692 430.882 431.124C432.735 433.558 434.91 435.3 436.535 436.444C439.819 438.757 443.569 440.491 446.278 441.62C446.302 441.631 446.326 441.64 446.35 441.65C462.517 448.291 484.083 450.106 507.851 448.22C507.865 448.219 507.879 448.218 507.893 448.217C522.813 446.99 535.909 442.273 546.828 433.307C551.893 429.15 553.672 422.186 551.223 416.108L481.258 242.478L481.249 242.455C477.102 232.211 473.811 221.835 471.302 211.378C470.587 208.303 469.928 205.353 469.356 202.456C464.788 178.967 464.13 155.355 467.055 132.379C467.058 132.359 467.06 132.339 467.063 132.319C467.659 127.48 468.453 122.663 469.409 117.827C469.417 117.793 469.426 117.754 469.436 117.713C469.475 117.555 469.536 117.297 469.6 116.99C470.795 111.288 468.58 105.409 463.92 101.914C456.519 96.3625 448.873 90.7787 440.94 85.3L440.918 85.2842L438.885 83.8854C417.261 68.8997 388.927 49.1233 368.68 30.2009L368.529 30.0618C345.768 9.3658 321.79 -16.0751 307.454 -54.7926C306.468 -57.5499 304.259 -63.7677 301.976 -69.2989C299.69 -74.8369 294.327 -78.4836 288.337 -78.5738ZM309.259 225.305C309.592 225.33 309.911 225.343 310.214 225.346C309.889 225.343 309.57 225.328 309.259 225.305ZM307.028 224.973C307.41 225.06 307.783 225.129 308.145 225.183C308.316 225.208 308.486 225.229 308.652 225.248C308.085 225.184 307.543 225.091 307.028 224.973Z" fill="#E9F6FB" stroke="black" stroke-width="30" stroke-linejoin="round"/>
<path d="M455.517 75.7676C449.527 75.6773 444.057 79.1611 441.605 84.6276C441.413 85.0544 441.256 85.4355 441.158 85.6743C441.035 85.9724 441.008 86.0402 440.957 86.1617C438.365 92.2669 436.409 100.002 434.869 108.687L434.565 110.44L434.559 110.48C432.039 125.668 432.019 141.588 434.349 157.861L434.348 157.862C436.642 174.799 441.228 190.515 448.269 204.479L448.268 204.479C453.588 215.136 459.527 224.903 466.039 233.628C466.117 233.733 466.196 233.837 466.276 233.939C466.573 234.316 467.641 235.724 468.661 236.912C468.678 236.933 468.695 236.955 468.713 236.978C462.465 234.785 456.221 234.093 450.071 235.576C441.87 237.553 436.785 242.764 434.124 245.685C434.104 245.708 434.083 245.73 434.063 245.752C430.893 249.276 428.367 254.076 427.677 261.119L427.616 261.808L427.589 262.218C427.581 262.354 427.576 262.491 427.573 262.628C427.267 275.117 430.049 286.751 437.132 296.742C442.768 304.691 450.489 310.697 459.59 315.281C455.532 315.961 451.564 317.061 447.807 318.557L446.919 318.919L446.602 319.057C443.521 320.431 440.238 322.222 437.421 324.651C434.752 326.952 431.357 330.838 430.291 336.508L430.195 337.062L430.187 337.11C429.617 340.798 428.293 350.105 434.974 360.886C441.146 370.846 452.842 379.977 472.364 388.231C472.373 388.234 472.382 388.238 472.39 388.242C479.349 391.169 487.101 393.9 495.422 396.377C494.863 396.672 494.319 397.003 493.796 397.372C493.309 397.715 493.117 397.852 492.952 397.971L492.26 398.462L492.042 398.616C483.443 404.869 478.229 413.198 476.418 423.584C476.358 423.879 476.32 424.101 476.303 424.209C476.288 424.301 476.277 424.39 476.265 424.473C476.15 425.202 476.086 425.949 476.079 426.709L476.078 426.784C476.047 430.143 477.125 433.26 478.974 435.782L479.295 436.229C480.062 437.267 480.952 438.248 481.951 439.175C484.106 441.174 486.875 443.015 490.371 444.714C490.713 444.896 491.043 445.053 491.355 445.192C502.565 450.732 515.065 451.29 527.919 452.069L527.918 452.07C537.978 452.706 549.94 453.459 564.297 455.775C564.407 455.793 564.517 455.809 564.628 455.825C565.269 455.914 565.94 455.989 566.5 456.051C564.025 457.933 562.128 460.585 561.196 463.737C561.151 463.888 561.113 464.028 561.08 464.151C561.047 464.274 561.019 464.385 560.995 464.483C560.948 464.675 560.913 464.835 560.89 464.943C560.715 465.697 560.598 466.464 560.542 467.237C560.138 472.762 562.473 476.909 564.202 479.18C565.933 481.453 567.928 483.037 569.34 484.031C572.197 486.043 575.385 487.506 577.576 488.419C577.6 488.43 577.625 488.44 577.649 488.45C590.955 493.916 608.39 495.31 627.196 493.818C627.21 493.817 627.224 493.816 627.238 493.814C639.445 492.811 650.34 488.927 659.466 481.433C664.53 477.275 666.31 470.312 663.861 464.235L609.209 328.606L609.2 328.584C606.013 320.714 603.487 312.739 601.562 304.701C601.016 302.35 600.519 300.117 600.088 297.935C596.59 279.938 596.086 261.848 598.326 244.246C598.329 244.227 598.331 244.207 598.334 244.187C598.786 240.513 599.39 236.847 600.118 233.155C600.136 233.082 600.159 232.986 600.185 232.876C600.21 232.766 600.24 232.634 600.271 232.486C601.467 226.783 599.251 220.904 594.59 217.408C588.787 213.055 582.779 208.667 576.537 204.356L576.515 204.34L574.893 203.224C557.966 191.493 536.063 176.194 520.468 161.619L520.317 161.48C502.702 145.463 484.435 126.033 473.503 96.55C472.744 94.4276 470.983 89.4685 469.156 85.0425L468.933 84.5287C466.535 79.28 461.321 75.8551 455.517 75.7676ZM561.005 464.483C561.009 464.466 561.013 464.447 561.018 464.429C561.022 464.414 561.028 464.399 561.032 464.383C561.023 464.416 561.014 464.45 561.005 464.483ZM600.164 232.915C600.161 232.931 600.157 232.946 600.154 232.961C600.182 232.817 600.209 232.672 600.232 232.527C600.208 232.676 600.185 232.806 600.164 232.915Z" fill="#E9F6FB" stroke="black" stroke-width="30" stroke-linejoin="round"/>
<path d="M654.21 367.467C731.761 540.885 919.098 639.841 1003.07 667.642L1120.63 599.768L1238.19 531.895C1256.11 445.27 1264.07 233.553 1152.67 79.683C1145.15 69.3083 1137.81 59.9891 1130.62 51.6565C1083.56 63.1532 980.736 113.113 918.611 152.116L876.289 176.551L833.967 200.985C769.127 235.286 674.449 299.353 640.961 334.362C644.585 344.75 648.981 355.774 654.21 367.467Z" fill="#7600ED"/>
<path d="M581.213 387.663L556.076 414.714C542.439 433.849 530.209 452.829 520.03 471.713C456.528 589.52 472.869 703.57 725.63 827.823L920.781 715.153C698.026 602.997 609.466 452.864 581.213 387.663Z" fill="#7600ED"/>
<path d="M1242.65 18.3204L1206.66 26.5635C1248.99 83.6318 1334.73 235.394 1320.49 484.383L1515.64 371.713C1534.41 90.6884 1443.81 19.5124 1310.04 15.6027C1288.59 14.9761 1266.04 16.0776 1242.65 18.3204Z" fill="#7600ED"/>
<path d="M581.213 387.663L556.076 414.714M725.63 827.823L920.781 715.153C698.026 602.997 609.466 452.864 581.213 387.663C581.213 387.663 461.951 124.81 700 110.125C738.689 107.739 786.815 111.907 846.424 124.824C865.043 66.742 885.496 22.9795 906.907 -9.33227C1038.65 -208.147 1206.66 26.5636 1206.66 26.5636C1248.99 83.6318 1334.73 235.394 1320.49 484.383L1515.64 371.713M556.076 414.714C321.421 274.318 107.005 673.986 680.243 922.991C780.692 1096.98 788.841 1111.09 788.841 1111.09L1259.09 839.588L1729.35 568.087C1729.35 568.087 1721.21 553.978 1620.75 379.991C1691.72 -240.951 1238.39 -255.095 1242.65 18.3204M556.076 414.714C542.439 433.849 530.209 452.829 520.03 471.713M700 110.125C681.955 75.2492 665.614 -5.90552 744.614 -51.5165C823.615 -97.1276 885.726 -42.3983 906.907 -9.33227M725.63 827.823L673.904 857.688C513.611 797.248 422.43 673.707 398.052 618.813C378.684 579.836 354.326 494.208 402.436 468.94C431.302 453.778 466.631 448.726 520.03 471.713M725.63 827.823C472.869 703.57 456.528 589.52 520.03 471.713M640.961 334.362C674.449 299.353 769.127 235.286 833.967 200.985L876.289 176.551L918.611 152.116C980.736 113.113 1083.56 63.1532 1130.62 51.6565M1130.62 51.6565C1137.81 59.9891 1145.15 69.3083 1152.67 79.683C1264.07 233.553 1256.11 445.27 1238.19 531.895L1120.63 599.768L1003.07 667.642C919.098 639.841 731.761 540.885 654.21 367.467C648.981 355.774 644.585 344.75 640.961 334.362C577.397 152.164 751.296 165.672 833.967 200.985M1206.66 26.5636L1242.65 18.3204M1242.65 18.3204C1266.04 16.0777 1288.59 14.976 1310.04 15.6027M1515.64 371.713L1567.36 341.849C1595.17 172.811 1533.77 32.0757 1498.42 -16.4835C1474.35 -52.7453 1412.37 -116.654 1366.43 -87.6236C1338.87 -70.2054 1316.83 -42.1355 1310.04 15.6027M1515.64 371.713C1534.41 90.6884 1443.81 19.5124 1310.04 15.6027M918.611 152.116C929.364 62.8642 1004.61 -94.4903 1130.62 51.6565M725.61 -84.4335L634.25 -106.926L659.093 -199.643L751.81 -174.799L725.61 -84.4335Z" stroke="black" stroke-width="30.004"/>
<path fill-rule="evenodd" clip-rule="evenodd" d="M556.076 414.714C321.421 274.318 107.005 673.986 680.243 922.991C780.692 1096.98 788.841 1111.09 788.841 1111.09L1259.09 839.588L1729.35 568.087C1729.35 568.087 1721.21 553.978 1620.75 379.991C1691.72 -240.951 1238.39 -255.096 1242.65 18.3204C1266.04 16.0776 1288.59 14.976 1310.04 15.6027C1316.83 -42.1355 1338.87 -70.2054 1366.43 -87.6236C1412.37 -116.654 1474.35 -52.7453 1498.42 -16.4835C1533.77 32.0757 1595.17 172.811 1567.36 341.849L1515.64 371.713L1320.49 484.383C1334.73 235.394 1248.99 83.6317 1206.66 26.5635C1206.66 26.5635 1038.65 -208.147 906.907 -9.33224C885.496 22.9795 865.043 66.7421 846.424 124.824C786.815 111.907 738.689 107.739 700 110.125C461.951 124.81 581.213 387.663 581.213 387.663C609.466 452.864 698.026 602.997 920.781 715.153L725.63 827.823L673.904 857.688C513.611 797.248 422.43 673.707 398.052 618.813C378.684 579.836 354.326 494.208 402.436 468.94C431.302 453.778 466.631 448.726 520.03 471.713C530.209 452.829 542.439 433.849 556.076 414.714ZM1003.07 667.642C919.098 639.841 731.761 540.885 654.21 367.467C648.981 355.774 644.585 344.75 640.961 334.362C577.397 152.164 751.296 165.672 833.967 200.985L876.289 176.551L918.611 152.116C929.364 62.8642 1004.61 -94.4903 1130.62 51.6565C1137.81 59.9891 1145.15 69.3083 1152.67 79.6829C1264.08 233.553 1256.11 445.27 1238.19 531.895L1120.63 599.768L1003.07 667.642Z" fill="#FBEA5B"/>
<path d="M700 110.125C738.689 107.739 786.815 111.907 846.424 124.824C865.043 66.7421 885.496 22.9795 906.907 -9.33224C885.726 -42.3983 823.615 -97.1276 744.614 -51.5165C665.613 -5.90551 681.955 75.2492 700 110.125Z" fill="#FBEA5B"/>
<path d="M725.609 -84.4334L634.25 -106.926L659.093 -199.643L751.81 -174.799L725.609 -84.4334Z" fill="#55E748"/>
<path d="M581.213 387.663L556.076 414.714M725.63 827.823L920.781 715.153C698.026 602.997 609.466 452.864 581.213 387.663C581.213 387.663 461.951 124.81 700 110.125M556.076 414.714C321.421 274.318 107.005 673.986 680.243 922.991C780.692 1096.98 788.841 1111.09 788.841 1111.09L1259.09 839.588L1729.35 568.087C1729.35 568.087 1721.21 553.978 1620.75 379.991C1691.72 -240.951 1238.39 -255.096 1242.65 18.3204M556.076 414.714C542.439 433.849 530.209 452.829 520.03 471.713M1515.64 371.713L1320.49 484.383C1334.73 235.394 1248.99 83.6318 1206.66 26.5635C1206.66 26.5635 1038.65 -208.147 906.907 -9.33227C885.496 22.9795 865.043 66.742 846.424 124.824C786.815 111.907 738.689 107.739 700 110.125M700 110.125C681.955 75.2492 665.614 -5.90552 744.614 -51.5165C823.615 -97.1276 885.726 -42.3983 906.907 -9.33227M725.63 827.823L673.904 857.688C513.611 797.248 422.43 673.707 398.052 618.813C378.684 579.836 354.326 494.208 402.436 468.94C431.302 453.778 466.631 448.726 520.03 471.713M725.63 827.823C472.869 703.57 456.528 589.52 520.03 471.713M640.961 334.362C674.449 299.353 769.127 235.286 833.967 200.985L876.289 176.551L918.611 152.116C980.736 113.113 1083.56 63.1531 1130.62 51.6565M1130.62 51.6565C1137.81 59.9891 1145.15 69.3083 1152.67 79.683C1264.08 233.553 1256.11 445.27 1238.19 531.895L1120.63 599.768L1003.07 667.642C919.098 639.841 731.761 540.885 654.21 367.467C648.981 355.774 644.585 344.75 640.961 334.362C577.397 152.164 751.296 165.672 833.967 200.985M1206.66 26.5635L1242.65 18.3204M1242.65 18.3204C1266.04 16.0777 1288.59 14.976 1310.04 15.6027M1515.64 371.713L1567.36 341.849C1595.17 172.811 1533.77 32.0757 1498.42 -16.4835C1474.35 -52.7453 1412.37 -116.654 1366.43 -87.6236C1338.87 -70.2053 1316.83 -42.1356 1310.04 15.6027M1515.64 371.713C1534.41 90.6884 1443.81 19.5124 1310.04 15.6027M918.611 152.116C929.364 62.8642 1004.61 -94.4904 1130.62 51.6565M725.61 -84.4335L634.25 -106.926L659.093 -199.643L751.81 -174.799L725.61 -84.4335Z" stroke="black" stroke-width="30.004"/>
<path d="M1013.87 307.473L1122.21 308.443L1069.71 401.294L1068.75 507.972L974.438 454.645L868.774 454.764L922.549 361.86L922.432 254.537L1013.87 307.473Z" fill="#55E748" stroke="black" stroke-width="30"/>
<path d="M889.837 981.561L806.805 954.261L823.321 866.352L907.71 896.004L889.837 981.561Z" fill="#55E748"/>
<path d="M889.837 981.561L806.805 954.261L823.321 866.352L907.71 896.004L889.837 981.561Z" stroke="black" stroke-width="30.004"/>
<path d="M1100.57 859.893L1017.54 832.593L1034.05 744.684L1118.44 774.336L1100.57 859.893Z" fill="#55E748"/>
<path d="M1100.57 859.893L1017.54 832.593L1034.05 744.684L1118.44 774.336L1100.57 859.893Z" stroke="black" stroke-width="30.004"/>
<path d="M1354.6 713.229L1271.57 685.929L1288.09 598.02L1372.48 627.672L1354.6 713.229Z" fill="#55E748"/>
<path d="M1354.6 713.229L1271.57 685.929L1288.09 598.02L1372.48 627.672L1354.6 713.229Z" stroke="black" stroke-width="30.004"/>
<path d="M1565.34 591.561L1482.31 564.261L1498.82 476.352L1583.21 506.004L1565.34 591.561Z" fill="#55E748"/>
<path d="M1565.34 591.561L1482.31 564.261L1498.82 476.352L1583.21 506.004L1565.34 591.561Z" stroke="black" stroke-width="30.004"/>
</g>
<defs>
<clipPath id="clip0_4368_3925">
<rect width="3000" height="3000" fill="white" transform="translate(0 8.055) rotate(-0.153839)"/>
</clipPath>
</defs>
</svg>
