<svg width="3009" height="3009" viewBox="0 0 3009 3009" fill="none" xmlns="http://www.w3.org/2000/svg">
<g clip-path="url(#clip0_4368_3927)">
<path d="M-87.2986 308.709C-91.5983 312.881 -93.0032 319.212 -90.8719 324.811C-90.6834 325.307 -90.5019 325.745 -90.3785 326.04C-90.2386 326.375 -90.1832 326.505 -90.115 326.673L-89.807 327.421C-86.5587 335.202 -81.1715 344.064 -74.3809 353.61C-74.3732 353.621 -74.3648 353.632 -74.3571 353.643C-63.1574 369.298 -49.0697 383.432 -32.5281 395.826L-32.5281 395.827C-15.428 408.848 2.54568 418.684 21.0585 424.783C35.3106 429.543 49.2838 432.947 62.804 434.911C62.933 434.93 63.063 434.947 63.1924 434.962C63.9736 435.055 66.0832 435.348 67.9476 435.483C68.0115 435.491 68.0864 435.502 68.1642 435.51C68.2875 435.524 68.4699 435.541 68.6913 435.559C71.7521 435.854 74.9891 435.978 79.1556 435.916C79.1859 435.915 79.2164 435.914 79.2468 435.914C91.096 435.666 103.563 433.929 116.331 430.951C116.351 430.946 116.372 430.941 116.392 430.936C117.203 430.744 118.121 431.239 118.366 432.154C118.566 433.059 117.988 433.94 117.158 434.146L117.113 434.158C104.518 437.33 92.5974 439.101 81.7279 439.506C80.3448 439.558 78.9752 439.801 77.6586 440.228C66.6208 443.808 58.124 449.254 53.0939 457.479C48.4548 465.066 48.2079 472.785 48.3829 477.728L48.4224 478.679L48.4271 478.768C48.7089 484.098 50.5375 490.083 56.124 496.633C56.3018 496.842 56.4853 497.046 56.6743 497.244C67.2168 508.315 79.4872 515.777 93.8708 518.227C107.945 520.623 122.4 517.938 137.075 511.784C137.264 511.716 137.452 511.645 137.639 511.569C137.803 511.515 137.884 511.494 137.897 511.491L137.897 511.489C150.426 508.911 170.714 501.531 202.287 482.148C202.663 481.949 203.008 481.747 203.32 481.548C203.603 481.407 203.915 481.358 204.261 481.412C204.635 481.47 204.956 481.635 205.192 481.858L205.288 481.957L205.3 481.971C205.326 482.001 205.39 482.077 205.512 482.266C205.937 483.009 205.681 483.994 204.972 484.429L204.931 484.454C179.068 500.411 159.035 509.69 143.499 513.673L142.897 513.841C139.91 514.741 137.272 516.551 135.357 519.027C131.74 523.705 128.721 528.808 126.437 534.116L125.99 535.18L125.862 535.502C124.395 539.333 123.192 543.499 122.883 547.682C122.589 551.656 123.008 557.167 126.442 562.193L126.784 562.677L126.812 562.716C129.426 566.285 135.892 574.929 150.237 578.298C163.643 581.446 181.544 579.442 206.297 569.4C206.306 569.397 206.314 569.394 206.323 569.39C216.604 565.197 227.659 559.785 239.072 553.374C239.41 553.184 239.741 552.98 240.064 552.765C240.845 552.242 241.574 551.831 243.134 550.909L243.134 550.907C244.468 550.138 245.75 549.325 246.724 548.708L246.724 548.707C256.025 542.824 265.89 536.692 268.314 535.457C268.356 535.435 268.397 535.414 268.439 535.392C268.755 535.227 269.058 535.19 269.381 535.254C269.696 535.315 269.99 535.469 270.217 535.686L270.311 535.783L270.335 535.81C270.305 535.776 270.401 535.88 270.568 536.185C270.947 536.935 270.657 537.964 269.845 538.396L269.846 538.397C267.678 539.55 260.497 543.927 248.56 551.463L248.363 551.589C247.667 552.044 247.309 552.271 246.996 552.452C243.132 554.673 240.456 558.498 239.694 562.889C239.577 563.559 239.524 563.879 239.476 564.17L239.288 565.277L239.244 565.539C237.287 577.932 239.865 589.106 247.023 599.263C247.204 599.539 247.348 599.742 247.418 599.838C247.513 599.97 247.608 600.091 247.691 600.2C248.107 600.763 248.565 601.306 249.07 601.821L249.138 601.89C251.513 604.309 254.511 605.754 257.632 606.217C257.637 606.218 257.642 606.22 257.647 606.221C259.167 606.494 260.792 606.598 262.515 606.534C265.786 606.411 269.561 605.671 273.991 604.134C274.43 604.003 274.835 603.858 275.204 603.714C289.433 598.924 300.616 588.768 313.178 577.641L313.178 577.642C322.864 569.108 334.508 558.842 349.781 547.81C349.872 547.745 349.961 547.679 350.05 547.612C351.035 546.867 352.052 546.039 352.69 545.525C354.213 544.349 354.47 544.106 355.19 543.587C355.533 543.34 355.865 543.078 356.186 542.802C363.197 536.787 366.557 533.511 369.048 531.018L370.242 529.845C370.278 529.81 370.313 529.773 370.348 529.737L370.587 529.526C371.199 529.028 372.183 529.055 372.791 529.678L372.792 529.678C373.408 530.308 373.432 531.348 372.743 532.024L372.281 532.477L372.027 532.733C370.724 534.075 368.176 536.723 363.531 540.865L363.055 541.308C358.253 545.974 357.111 553.296 360.333 559.224C360.484 559.501 360.62 559.732 360.725 559.903C360.796 560.021 360.863 560.123 360.917 560.208C361.352 560.927 361.847 561.609 362.398 562.246C366.128 566.565 370.876 567.916 373.906 568.326C376.938 568.737 379.708 568.431 381.666 568.091C385.623 567.404 389.501 565.979 392.215 564.862C392.239 564.852 392.263 564.842 392.288 564.832C408.414 558.096 424.947 544.129 440.421 525.99C440.43 525.979 440.439 525.968 440.448 525.957C450.131 514.54 456.055 501.944 457.437 487.884C458.078 481.363 454.412 475.18 448.382 472.614L276.135 399.312L276.112 399.302C265.932 394.99 256.264 389.977 247.093 384.354C244.417 382.688 241.869 381.07 239.419 379.429C219.58 366.049 202.418 349.818 188.24 331.503C188.228 331.488 188.215 331.471 188.203 331.455C185.203 327.612 182.359 323.644 179.615 319.549C179.596 319.519 179.575 319.485 179.553 319.449C179.469 319.31 179.33 319.085 179.159 318.823C175.972 313.945 170.248 311.354 164.481 312.178C155.322 313.486 145.968 314.944 136.484 316.679L136.457 316.684L134.031 317.132C108.144 321.826 74.1243 327.878 46.4276 328.814L46.2224 328.822C15.4939 330.282 -19.4509 329.248 -56.965 312.008C-59.6122 310.755 -65.5706 307.921 -71.0963 305.624C-76.6286 303.325 -82.9987 304.538 -87.2986 308.709ZM142.36 508.8C142.616 508.578 142.855 508.359 143.074 508.144C142.838 508.375 142.599 508.593 142.36 508.8ZM140.567 510.127C140.895 509.92 141.204 509.708 141.495 509.493C141.634 509.39 141.768 509.285 141.898 509.182C141.456 509.534 141.01 509.848 140.567 510.127Z" fill="#E9F6FB" stroke="black" stroke-width="30" stroke-linejoin="round"/>
<path d="M140.052 299.631C135.752 303.803 134.347 310.134 136.478 315.733C136.645 316.17 136.803 316.552 136.903 316.79C137.027 317.087 137.056 317.154 137.105 317.277C139.59 323.426 143.676 330.279 148.728 337.51L149.753 338.963L149.777 338.996C158.735 351.518 169.977 362.789 183.132 372.647L183.132 372.649C196.731 383.004 211.086 390.874 225.938 395.769L225.938 395.77C237.235 399.543 248.341 402.25 259.116 403.815C259.245 403.834 259.374 403.852 259.504 403.867C259.98 403.924 261.738 404.166 263.302 404.284C263.326 404.286 263.351 404.289 263.376 404.292C257.407 407.16 252.502 411.086 249.202 416.483C244.801 423.68 244.89 430.961 245.075 434.908C245.076 434.938 245.077 434.969 245.079 434.999C245.329 439.732 246.936 444.912 251.428 450.38L251.872 450.911L252.143 451.22C252.234 451.321 252.328 451.421 252.422 451.521C261.037 460.568 271.231 466.828 283.304 468.884C292.909 470.52 302.616 469.307 312.293 466.113C309.905 469.463 307.876 473.047 306.278 476.761L305.905 477.645L305.779 477.967C304.572 481.117 303.517 484.705 303.243 488.414C302.983 491.929 303.329 497.077 306.585 501.841L306.909 502.3L306.937 502.339C309.142 505.35 314.786 512.867 327.134 515.767C338.541 518.445 353.268 516.631 372.909 508.663C372.917 508.66 372.926 508.656 372.935 508.653C379.926 505.801 387.339 502.252 394.973 498.119C394.787 498.724 394.636 499.342 394.526 499.973C394.425 500.559 394.387 500.791 394.354 500.993L394.211 501.83L394.167 502.092C392.508 512.594 394.711 522.171 400.774 530.795C400.941 531.046 401.071 531.231 401.135 531.319C401.189 531.394 401.244 531.464 401.295 531.532C401.728 532.129 402.211 532.702 402.744 533.245L402.796 533.299C405.149 535.695 408.115 537.137 411.206 537.614L411.75 537.703C413.026 537.893 414.349 537.958 415.711 537.907C418.648 537.797 421.907 537.141 425.581 535.87C425.952 535.757 426.296 535.634 426.615 535.512C438.459 531.503 447.693 523.059 457.332 514.521L457.332 514.522C464.896 507.858 473.887 499.933 485.676 491.418C485.767 491.352 485.857 491.286 485.946 491.219C486.462 490.828 486.989 490.408 487.429 490.056C487.01 493.135 487.544 496.353 489.113 499.24C489.188 499.378 489.259 499.504 489.323 499.614C489.386 499.724 489.446 499.824 489.498 499.91C489.601 500.078 489.69 500.217 489.75 500.31C490.159 500.966 490.619 501.591 491.125 502.178C494.747 506.37 499.33 507.652 502.159 508.035C504.989 508.418 507.521 508.127 509.222 507.832C512.665 507.234 515.954 506.015 518.149 505.111C518.173 505.101 518.198 505.092 518.222 505.082C531.496 499.537 544.81 488.195 557.053 473.842C557.062 473.831 557.071 473.82 557.08 473.81C565.003 464.469 569.959 454.019 571.114 442.266C571.755 435.745 568.089 429.563 562.06 426.997L427.512 369.739L427.489 369.729C419.671 366.417 412.246 362.565 405.201 358.242C403.153 356.966 401.222 355.738 399.374 354.5C384.175 344.248 371.027 331.813 360.165 317.782C360.153 317.766 360.141 317.751 360.128 317.735C357.851 314.817 355.686 311.798 353.59 308.672C353.55 308.608 353.498 308.523 353.439 308.428C353.379 308.332 353.307 308.217 353.224 308.091C350.037 303.213 344.314 300.623 338.546 301.447C331.365 302.472 324.013 303.617 316.551 304.983L316.524 304.987L314.588 305.345C294.324 309.019 268.019 313.689 246.684 314.41L246.479 314.418C222.692 315.549 196.03 314.726 167.445 301.599C165.396 300.63 160.661 298.377 156.254 296.545L155.733 296.34C150.326 294.324 144.217 295.589 140.052 299.631Z" fill="#E9F6FB" stroke="black" stroke-width="30" stroke-linejoin="round"/>
<path d="M1455.95 -582.288C1461.72 -583.926 1467.9 -581.977 1471.68 -577.332C1472.02 -576.921 1472.31 -576.545 1472.5 -576.29C1472.72 -576.001 1472.81 -575.888 1472.92 -575.746L1473.41 -575.105C1478.53 -568.401 1483.51 -559.305 1488.38 -548.651C1488.38 -548.639 1488.39 -548.626 1488.39 -548.614C1496.35 -531.087 1501.55 -511.82 1504.01 -491.298L1504.01 -491.297C1506.74 -469.977 1506.27 -449.494 1502.3 -430.411C1499.29 -415.689 1495.25 -401.886 1490.19 -389.195C1490.15 -389.074 1490.1 -388.953 1490.05 -388.833C1489.73 -388.11 1488.93 -386.137 1488.12 -384.454C1488.09 -384.395 1488.07 -384.325 1488.03 -384.253C1487.98 -384.14 1487.91 -383.973 1487.81 -383.772C1486.54 -380.974 1485.03 -378.109 1482.89 -374.532C1482.87 -374.506 1482.86 -374.48 1482.84 -374.454C1476.7 -364.316 1468.97 -354.387 1460 -344.819C1459.99 -344.804 1459.97 -344.789 1459.96 -344.774C1459.39 -344.168 1459.36 -343.125 1460.03 -342.455C1460.71 -341.829 1461.76 -341.89 1462.36 -342.505L1462.39 -342.539C1471.43 -351.86 1478.93 -361.298 1484.71 -370.509C1485.45 -371.681 1486.34 -372.745 1487.37 -373.672C1495.99 -381.441 1504.96 -386.076 1514.59 -386.32C1523.48 -386.544 1530.29 -382.898 1534.49 -380.275L1535.29 -379.766L1535.37 -379.717C1539.84 -376.808 1544.11 -372.232 1546.99 -364.119C1547.08 -363.861 1547.16 -363.6 1547.24 -363.337C1551.56 -348.671 1551.89 -334.314 1546.82 -320.632C1541.85 -307.246 1532.3 -296.069 1519.63 -286.437C1519.48 -286.308 1519.32 -286.181 1519.17 -286.057C1519.04 -285.942 1518.98 -285.882 1518.97 -285.872L1518.97 -285.873C1510.47 -276.312 1493.93 -262.432 1461.36 -244.781C1461 -244.555 1460.65 -244.357 1460.33 -244.186C1460.06 -244.012 1459.86 -243.766 1459.74 -243.439C1459.6 -243.086 1459.58 -242.725 1459.66 -242.409L1459.7 -242.277L1459.7 -242.259C1459.71 -242.222 1459.75 -242.129 1459.85 -241.929C1460.28 -241.189 1461.26 -240.918 1461.99 -241.315L1462.04 -241.338C1488.79 -255.757 1506.84 -268.467 1518.06 -279.93L1518.5 -280.368C1520.78 -282.504 1523.66 -283.884 1526.76 -284.304C1532.62 -285.098 1538.55 -285.161 1544.29 -284.485L1545.44 -284.34L1545.78 -284.289C1549.83 -283.644 1554.04 -282.603 1557.82 -280.78C1561.41 -279.047 1565.97 -275.929 1568.61 -270.442L1568.85 -269.904L1568.87 -269.859C1570.66 -265.812 1574.91 -255.89 1570.66 -241.782C1566.68 -228.598 1555.99 -214.098 1534.92 -197.681C1534.91 -197.676 1534.91 -197.67 1534.9 -197.664C1526.13 -190.857 1515.91 -183.989 1504.65 -177.311C1504.32 -177.113 1503.98 -176.928 1503.63 -176.757C1502.79 -176.342 1502.07 -175.915 1500.49 -175.025L1500.49 -175.027C1499.15 -174.255 1497.81 -173.552 1496.79 -173.016L1496.79 -173.017C1487.04 -167.904 1476.8 -162.426 1474.51 -160.945C1474.48 -160.92 1474.44 -160.895 1474.4 -160.87C1474.1 -160.678 1473.91 -160.434 1473.81 -160.122C1473.7 -159.819 1473.69 -159.488 1473.76 -159.182L1473.8 -159.052L1473.81 -159.018C1473.8 -159.061 1473.84 -158.926 1474.02 -158.629C1474.48 -157.926 1475.52 -157.663 1476.3 -158.15L1476.3 -158.149C1478.38 -159.449 1485.76 -163.48 1498.25 -170.049L1498.46 -170.157C1499.2 -170.532 1499.58 -170.728 1499.89 -170.91C1503.75 -173.145 1508.4 -173.55 1512.58 -172.015C1513.22 -171.781 1513.52 -171.667 1513.8 -171.563L1514.85 -171.172L1515.1 -171.079C1526.81 -166.578 1535.2 -158.758 1540.42 -147.481C1540.57 -147.186 1540.67 -146.959 1540.72 -146.851C1540.79 -146.702 1540.84 -146.56 1540.9 -146.434C1541.18 -145.792 1541.42 -145.123 1541.61 -144.429L1541.64 -144.335C1542.54 -141.069 1542.3 -137.75 1541.14 -134.815C1541.13 -134.811 1541.13 -134.806 1541.13 -134.801C1540.61 -133.348 1539.89 -131.889 1538.97 -130.428C1537.23 -127.657 1534.7 -124.757 1531.15 -121.69C1530.82 -121.375 1530.49 -121.097 1530.18 -120.849C1518.92 -110.922 1504.53 -106.316 1488.62 -100.999L1488.62 -100.999C1476.38 -96.8775 1461.67 -91.9269 1444.48 -84.2155C1444.38 -84.1699 1444.28 -84.1251 1444.17 -84.0817C1443.04 -83.6015 1441.81 -83.135 1441.05 -82.8388C1439.27 -82.1077 1438.93 -82.0069 1438.12 -81.6429C1437.73 -81.4695 1437.34 -81.3129 1436.94 -81.1727C1428.23 -78.1086 1423.71 -76.8366 1420.3 -75.9264L1418.69 -75.4783C1418.64 -75.4647 1418.59 -75.4536 1418.54 -75.4406L1418.24 -75.3393C1417.51 -75.0587 1417.04 -74.1928 1417.27 -73.3546L1417.27 -73.3536C1417.51 -72.5051 1418.4 -71.9649 1419.33 -72.223L1419.95 -72.3964L1420.3 -72.4891C1422.11 -72.9466 1425.68 -73.8284 1431.59 -75.7807L1432.21 -75.9717C1438.65 -77.7967 1445.57 -75.1252 1449.09 -69.3704C1449.25 -69.1016 1449.39 -68.8676 1449.48 -68.6918C1449.55 -68.5709 1449.6 -68.4622 1449.65 -68.3735C1450.05 -67.6368 1450.4 -66.8668 1450.67 -66.0716C1452.55 -60.6818 1451.34 -55.8936 1450.19 -53.0646C1449.02 -50.234 1447.37 -47.9884 1446.1 -46.4627C1443.53 -43.3792 1440.35 -40.733 1438.03 -38.9413C1438.01 -38.9252 1437.99 -38.9094 1437.97 -38.8934C1424.07 -28.295 1403.71 -20.9604 1380.26 -16.63C1380.25 -16.6274 1380.24 -16.625 1380.22 -16.6225C1365.49 -13.9454 1351.62 -15.1127 1338.75 -20.9465C1332.79 -23.6521 1329.27 -29.9182 1330.06 -36.4224L1352.7 -222.244L1352.7 -222.269C1354.06 -233.241 1354.55 -244.121 1354.27 -254.875C1354.16 -258.025 1354.03 -261.04 1353.84 -263.983C1352.17 -287.854 1346.69 -310.832 1337.92 -332.268C1337.92 -332.286 1337.91 -332.305 1337.9 -332.324C1336.07 -336.844 1334.06 -341.291 1331.88 -345.715C1331.87 -345.745 1331.85 -345.781 1331.83 -345.818C1331.75 -345.96 1331.62 -346.193 1331.48 -346.473C1328.85 -351.672 1329.47 -357.924 1333.07 -362.507C1338.78 -369.784 1344.72 -377.157 1350.96 -384.502L1350.98 -384.523L1352.58 -386.4C1369.59 -406.472 1391.84 -432.908 1406.5 -456.426L1406.61 -456.599C1423.24 -482.481 1439.82 -513.261 1443.64 -554.369C1443.88 -557.288 1444.41 -563.866 1445.18 -569.799C1445.95 -575.74 1450.19 -580.65 1455.95 -582.288ZM1514.41 -283.353C1514.09 -283.242 1513.78 -283.145 1513.48 -283.063C1513.8 -283.151 1514.11 -283.249 1514.41 -283.353ZM1516.45 -284.242C1516.11 -284.062 1515.77 -283.9 1515.44 -283.756C1515.28 -283.687 1515.12 -283.623 1514.97 -283.562C1515.49 -283.769 1515.99 -283.998 1516.45 -284.242Z" fill="#E9F6FB" stroke="black" stroke-width="30" stroke-linejoin="round"/>
<path d="M1334.42 -389.939C1340.18 -391.576 1346.36 -389.628 1350.15 -384.982C1350.44 -384.619 1350.69 -384.291 1350.85 -384.086C1351.05 -383.83 1351.09 -383.771 1351.17 -383.667C1355.25 -378.441 1359.15 -371.475 1362.88 -363.485L1363.63 -361.871L1363.64 -361.834C1370.01 -347.815 1374.15 -332.443 1376.11 -316.122L1376.11 -316.121C1378.28 -299.166 1377.92 -282.8 1374.73 -267.49L1374.73 -267.489C1372.35 -255.819 1369.14 -244.848 1365.11 -234.734C1365.06 -234.613 1365.01 -234.492 1364.96 -234.372C1364.77 -233.931 1364.1 -232.288 1363.42 -230.874C1363.41 -230.852 1363.4 -230.83 1363.39 -230.806C1368.86 -234.542 1374.71 -236.826 1381.04 -236.986C1389.47 -237.198 1395.73 -233.481 1399.06 -231.347C1399.08 -231.331 1399.11 -231.315 1399.13 -231.299C1403.11 -228.716 1406.79 -224.733 1409.28 -218.109L1409.52 -217.459L1409.65 -217.07C1409.69 -216.94 1409.73 -216.81 1409.77 -216.678C1413.3 -204.694 1413.62 -192.736 1409.37 -181.252C1405.98 -172.116 1400.08 -164.315 1392.47 -157.532C1396.57 -157.925 1400.69 -157.89 1404.7 -157.417L1405.65 -157.298L1406 -157.247C1409.33 -156.717 1412.96 -155.836 1416.31 -154.219C1419.48 -152.687 1423.77 -149.813 1426.27 -144.612L1426.5 -144.101L1426.52 -144.057C1428.03 -140.642 1431.72 -131.996 1428.05 -119.853C1424.67 -108.634 1415.74 -96.7878 1399.01 -83.7623C1399.01 -83.7566 1399 -83.7506 1398.99 -83.7449C1393.03 -79.1164 1386.25 -74.4714 1378.85 -69.926C1379.47 -69.7853 1380.08 -69.6066 1380.68 -69.3861C1381.24 -69.1813 1381.46 -69.0976 1381.65 -69.0252L1382.44 -68.7304L1382.69 -68.6376C1392.62 -64.8231 1399.81 -58.1275 1404.25 -48.5642C1404.38 -48.2944 1404.48 -48.0891 1404.52 -47.9894C1404.56 -47.905 1404.59 -47.8223 1404.63 -47.7448C1404.93 -47.0708 1405.18 -46.3661 1405.39 -45.6336L1405.41 -45.5612C1406.3 -42.3251 1406.07 -39.0354 1404.94 -36.1205L1404.74 -35.6053C1404.27 -34.4046 1403.66 -33.2261 1402.94 -32.0726C1401.38 -29.5837 1399.18 -27.0893 1396.24 -24.5431C1395.96 -24.2788 1395.68 -24.0416 1395.41 -23.8268C1386.02 -15.5742 1374.09 -11.7995 1361.88 -7.72034L1361.88 -7.71966C1352.32 -4.50146 1340.96 -0.677902 1327.7 5.27443C1327.59 5.32011 1327.49 5.36509 1327.39 5.40849C1326.79 5.66024 1326.16 5.90675 1325.64 6.11133C1328.52 7.28834 1331.04 9.35925 1332.75 12.1615C1332.83 12.2962 1332.91 12.4201 1332.97 12.5304C1333.03 12.6408 1333.09 12.7418 1333.14 12.8302C1333.23 13.0036 1333.31 13.1499 1333.36 13.2483C1333.72 13.9313 1334.03 14.6418 1334.29 15.3737C1336.11 20.606 1334.93 25.2166 1333.85 27.8576C1332.76 30.5005 1331.24 32.5471 1330.14 33.8726C1327.9 36.5555 1325.2 38.794 1323.32 40.2436C1323.3 40.2596 1323.28 40.2764 1323.26 40.2924C1311.82 49.0159 1295.34 54.8743 1276.79 58.3007C1276.77 58.3032 1276.76 58.3056 1276.74 58.3082C1264.69 60.4985 1253.17 59.5661 1242.41 54.69C1236.44 51.9845 1232.92 45.7191 1233.71 39.215L1251.4 -105.937L1251.4 -105.961C1252.44 -114.388 1252.82 -122.745 1252.6 -131.007C1252.52 -133.419 1252.42 -135.705 1252.27 -137.924C1250.99 -156.213 1246.8 -173.817 1240.08 -190.239C1240.07 -190.257 1240.06 -190.276 1240.06 -190.295C1238.67 -193.726 1237.14 -197.111 1235.48 -200.489C1235.44 -200.555 1235.39 -200.642 1235.34 -200.742C1235.29 -200.842 1235.22 -200.961 1235.16 -201.096C1232.53 -206.295 1233.14 -212.547 1236.74 -217.13C1241.22 -222.836 1245.89 -228.63 1250.8 -234.41L1250.82 -234.431L1252.1 -235.928C1265.41 -251.641 1282.61 -272.087 1293.9 -290.202L1294.01 -290.376C1306.88 -310.411 1319.5 -333.913 1322.42 -365.231C1322.61 -367.49 1323.03 -372.717 1323.64 -377.45L1323.72 -378.004C1324.68 -383.694 1328.83 -388.352 1334.42 -389.939Z" fill="#E9F6FB" stroke="black" stroke-width="30" stroke-linejoin="round"/>
<path d="M644.16 369.473C721.711 542.891 909.048 641.848 993.023 669.649L1110.58 601.775L1228.14 533.901C1246.05 447.277 1254.02 235.56 1142.62 81.6896C1135.1 71.315 1127.76 61.9958 1120.57 53.6632C1073.51 65.1599 970.685 115.12 908.56 154.123L866.239 178.557L823.917 202.992C759.077 237.292 664.398 301.36 630.911 336.369C634.535 346.757 638.931 357.781 644.16 369.473Z" fill="#7600ED"/>
<path d="M571.163 389.67L546.026 416.721C532.389 435.855 520.159 454.836 509.98 473.72C446.478 591.527 462.819 705.577 715.58 829.83L910.731 717.16C687.976 605.004 599.416 454.871 571.163 389.67Z" fill="#7600ED"/>
<path d="M1232.6 20.3271L1196.61 28.5702C1238.94 85.6385 1324.68 237.401 1310.44 486.39L1505.59 373.72C1524.36 92.6952 1433.76 21.5191 1299.99 17.6094C1278.54 16.9827 1255.99 18.0844 1232.6 20.3271Z" fill="#7600ED"/>
<path d="M571.163 389.67L546.026 416.721M571.163 389.67C571.163 389.67 451.901 126.816 689.95 112.132C728.638 109.745 776.765 113.914 836.374 126.831C854.993 68.7487 875.446 24.9861 896.856 -7.32561C1028.6 -206.14 1196.61 28.5702 1196.61 28.5702M571.163 389.67C599.416 454.871 687.976 605.004 910.731 717.16L715.58 829.83M546.026 416.721C311.371 276.325 96.9551 675.992 670.193 924.998C770.642 1098.99 778.791 1113.09 778.791 1113.09L1249.04 841.595L1719.3 570.094C1719.3 570.094 1711.16 555.985 1610.7 381.997C1681.67 -238.944 1228.34 -253.089 1232.6 20.3271M546.026 416.721C532.389 435.855 520.159 454.836 509.98 473.72M715.58 829.83L663.854 859.694C503.561 799.254 412.38 675.714 388.002 620.82C368.633 581.843 344.275 496.215 392.386 470.946C421.252 455.785 456.581 450.733 509.98 473.72M715.58 829.83C462.819 705.577 446.478 591.527 509.98 473.72M823.917 202.992L866.239 178.557L908.56 154.123M823.917 202.992C741.246 167.678 567.347 154.171 630.911 336.369M823.917 202.992C759.077 237.292 664.398 301.36 630.911 336.369M630.911 336.369C634.535 346.757 638.931 357.781 644.16 369.473C721.711 542.891 909.048 641.848 993.023 669.649L1110.58 601.775L1228.14 533.901C1246.05 447.277 1254.02 235.56 1142.62 81.6896C1135.1 71.315 1127.76 61.9958 1120.57 53.6632M1196.61 28.5702L1232.6 20.3271M1196.61 28.5702C1238.94 85.6385 1324.68 237.401 1310.44 486.39L1505.59 373.72M1232.6 20.3271C1255.99 18.0844 1278.54 16.9827 1299.99 17.6094M1505.59 373.72L1557.31 343.855C1585.12 174.818 1523.72 34.0824 1488.37 -14.4768C1464.3 -50.7387 1402.32 -114.647 1356.38 -85.6169C1328.82 -68.1987 1306.78 -40.1289 1299.99 17.6094M1505.59 373.72C1524.36 92.6952 1433.76 21.5191 1299.99 17.6094M908.56 154.123C919.313 64.8709 994.565 -92.4837 1120.57 53.6632M908.56 154.123C970.685 115.12 1073.51 65.1599 1120.57 53.6632" stroke="black" stroke-width="30.004"/>
<path fill-rule="evenodd" clip-rule="evenodd" d="M546.029 416.725C311.373 276.329 96.9574 675.996 670.195 925.002C770.644 1098.99 778.793 1113.1 778.793 1113.1L1249.05 841.598L1719.3 570.098C1719.3 570.098 1711.16 555.988 1610.7 382.001C1681.67 -238.94 1228.34 -253.085 1232.6 20.3311C1255.99 18.0884 1278.54 16.9867 1299.99 17.6134C1306.78 -40.1249 1328.82 -68.1946 1356.38 -85.6129C1402.32 -114.643 1464.3 -50.7346 1488.37 -14.4728C1523.72 34.0864 1585.12 174.822 1557.32 343.859L1505.59 373.724L1310.44 486.394C1324.69 237.405 1238.95 85.6425 1196.61 28.5742C1196.61 28.5742 1028.6 -206.136 896.859 -7.3215C875.448 24.9902 854.995 68.7529 836.377 126.835C776.767 113.918 728.641 109.749 689.953 112.136C451.903 126.821 571.165 389.674 571.165 389.674C599.418 454.875 687.978 605.008 910.733 717.164L715.583 829.834L663.856 859.698C503.563 799.258 412.382 675.718 388.004 620.824C368.636 581.847 344.278 496.219 392.388 470.95C421.254 455.789 456.583 450.737 509.982 473.724C520.161 454.84 532.391 435.859 546.029 416.725ZM993.025 669.652C909.051 641.852 721.713 542.895 644.162 369.478C638.933 357.785 634.537 346.761 630.913 336.373C567.349 154.175 741.248 167.682 823.919 202.996L866.241 178.561L908.563 154.127C919.316 64.8749 994.567 -92.4797 1120.57 53.6672C1127.76 61.9998 1135.11 71.319 1142.62 81.6936C1254.03 235.564 1246.06 447.281 1228.15 533.905L1110.59 601.779L993.025 669.652Z" fill="#FBEA5B"/>
<path d="M801.892 67.1066L685.533 1.31308L685.376 -134.705L803.093 -66.5605L801.892 67.1066Z" fill="#55E748"/>
<path d="M571.165 389.674L546.029 416.725M571.165 389.674C571.165 389.674 451.903 126.821 689.953 112.136C728.641 109.749 776.767 113.918 836.377 126.835C854.995 68.7529 875.448 24.9902 896.859 -7.3215C1028.6 -206.136 1196.61 28.5742 1196.61 28.5742M571.165 389.674C599.418 454.875 687.978 605.008 910.733 717.164L715.583 829.834M546.029 416.725C311.373 276.329 96.9574 675.996 670.195 925.002C770.644 1098.99 778.793 1113.1 778.793 1113.1L1249.05 841.598L1719.3 570.098C1719.3 570.098 1711.16 555.988 1610.7 382.001C1681.67 -238.94 1228.34 -253.085 1232.6 20.3311M546.029 416.725C532.391 435.859 520.161 454.84 509.982 473.724M715.583 829.834L663.856 859.698C503.563 799.258 412.382 675.718 388.004 620.824C368.636 581.847 344.278 496.219 392.388 470.95C421.254 455.789 456.583 450.737 509.982 473.724M715.583 829.834C462.821 705.581 446.481 591.531 509.982 473.724M823.919 202.996L866.241 178.561L908.563 154.127M823.919 202.996C741.248 167.682 567.349 154.175 630.913 336.373M823.919 202.996C759.079 237.296 664.401 301.364 630.913 336.373M630.913 336.373C634.537 346.761 638.933 357.785 644.162 369.478C721.713 542.895 909.051 641.852 993.025 669.652L1110.59 601.779L1228.15 533.905C1246.06 447.281 1254.03 235.564 1142.62 81.6936C1135.11 71.319 1127.76 61.9998 1120.57 53.6672M1196.61 28.5742L1232.6 20.3311M1196.61 28.5742C1238.95 85.6425 1324.69 237.405 1310.44 486.394L1505.59 373.724M1232.6 20.3311C1255.99 18.0884 1278.54 16.9867 1299.99 17.6134M1505.59 373.724L1557.32 343.859C1585.12 174.822 1523.72 34.0864 1488.37 -14.4728C1464.3 -50.7346 1402.32 -114.643 1356.38 -85.6129C1328.82 -68.1946 1306.78 -40.1249 1299.99 17.6134M1505.59 373.724C1524.36 92.6991 1433.76 21.5231 1299.99 17.6134M908.563 154.127C919.316 64.8749 994.567 -92.4797 1120.57 53.6672M908.563 154.127C970.688 115.124 1073.51 65.1638 1120.57 53.6672M801.892 67.1066L685.533 1.31308L685.376 -134.705L803.093 -66.5605L801.892 67.1066Z" stroke="black" stroke-width="30.004"/>
<path d="M880.455 983.182L797.424 955.882L813.939 867.973L898.328 897.625L880.455 983.182Z" fill="#55E748"/>
<path d="M880.455 983.182L797.424 955.882L813.939 867.973L898.328 897.625L880.455 983.182Z" stroke="black" stroke-width="30.004"/>
<path d="M1091.19 861.514L1008.16 834.214L1024.67 746.305L1109.06 775.957L1091.19 861.514Z" fill="#55E748"/>
<path d="M1091.19 861.514L1008.16 834.214L1024.67 746.305L1109.06 775.957L1091.19 861.514Z" stroke="black" stroke-width="30.004"/>
<path d="M1345.22 714.85L1262.19 687.55L1278.71 599.641L1363.1 629.293L1345.22 714.85Z" fill="#55E748"/>
<path d="M1345.22 714.85L1262.19 687.55L1278.71 599.641L1363.1 629.293L1345.22 714.85Z" stroke="black" stroke-width="30.004"/>
<path d="M1555.96 593.182L1472.93 565.882L1489.44 477.973L1573.83 507.625L1555.96 593.182Z" fill="#55E748"/>
<path d="M1555.96 593.182L1472.93 565.882L1489.44 477.973L1573.83 507.625L1555.96 593.182Z" stroke="black" stroke-width="30.004"/>
</g>
<defs>
<clipPath id="clip0_4368_3927">
<rect width="3000" height="3000" fill="white" transform="translate(0 8.055) rotate(-0.153839)"/>
</clipPath>
</defs>
</svg>
