<svg width="3009" height="3009" viewBox="0 0 3009 3009" fill="none" xmlns="http://www.w3.org/2000/svg">
<g clip-path="url(#clip0_4368_3907)">
<path d="M749.372 544.915C822.079 707.501 991.287 804.637 1081.34 839.047C1092 843.121 1103.89 841.826 1113.77 836.119L1215.8 777.216L1317.82 718.314C1327.7 712.607 1334.77 702.963 1336.57 691.692C1351.8 596.497 1352.28 401.391 1247.83 257.131C1240.32 246.756 1232.97 237.437 1225.78 229.105C1178.72 240.601 1075.9 290.561 1013.77 329.564L971.45 353.999L929.129 378.433C864.289 412.734 769.61 476.801 736.123 511.81C739.747 522.198 744.143 533.222 749.372 544.915Z" fill="#D6C7E4"/>
<path d="M676.374 565.111L651.238 592.162C637.601 611.297 625.371 630.277 615.192 649.161C551.69 766.968 568.03 881.018 820.792 1005.27L951.775 929.649C979.329 913.74 978.272 873.221 951.064 856.727C775.518 750.305 701.706 623.57 676.374 565.111Z" fill="#D6C7E4"/>
<path d="M1337.81 195.769L1301.82 204.012C1339.78 255.179 1412.63 382.469 1417.02 587.708C1417.7 619.517 1452.26 640.693 1479.82 624.784L1610.8 549.161C1629.57 268.137 1538.97 196.96 1405.2 193.051C1383.75 192.424 1361.2 193.526 1337.81 195.769Z" fill="#D6C7E4"/>
<path d="M676.374 565.111L651.238 592.162M676.374 565.111C676.374 565.111 557.113 302.258 795.162 287.573C825.823 285.682 862.411 287.907 905.944 295.342C926.244 298.808 946.257 287.254 953.405 267.94C968.733 226.522 985.1 193.723 1002.07 168.116C1133.81 -30.6985 1301.82 204.012 1301.82 204.012M676.374 565.111C701.706 623.57 775.518 750.305 951.064 856.727C978.272 873.221 979.329 913.74 951.775 929.649L820.792 1005.27M651.238 592.162C418.29 452.788 205.289 845.646 763.015 1094.98C770.841 1098.48 777.772 1104.54 782.057 1111.96C824.59 1185.64 849.499 1228.78 864.027 1253.94C875.071 1273.07 899.505 1279.59 918.632 1268.54L1354.26 1017.04L1789.88 765.529C1809.01 754.486 1815.58 730.067 1804.54 710.939C1790.01 685.776 1765.1 642.633 1722.56 568.962C1718.28 561.538 1716.49 552.506 1717.38 543.979C1780.31 -63.6933 1333.58 -75.6578 1337.81 195.769M651.238 592.162C637.601 611.297 625.371 630.277 615.192 649.161M820.792 1005.27L785.462 1025.67C775.083 1031.66 762.511 1032.76 751.456 1028.13C602.078 965.595 516.684 849.112 493.214 796.261C473.845 757.284 449.487 671.656 497.597 646.388C526.464 631.227 561.793 626.174 615.192 649.161M820.792 1005.27C568.03 881.018 551.69 766.968 615.192 649.161M929.129 378.433L971.45 353.999L1013.77 329.564M929.129 378.433C846.458 343.12 672.559 329.612 736.123 511.81M929.129 378.433C864.289 412.734 769.61 476.801 736.123 511.81M736.123 511.81C739.747 522.198 744.143 533.222 749.372 544.915C822.079 707.501 991.287 804.637 1081.34 839.047C1092 843.121 1103.89 841.826 1113.77 836.119L1215.8 777.216L1317.82 718.314C1327.7 712.607 1334.77 702.963 1336.57 691.692C1351.8 596.497 1352.28 401.391 1247.83 257.131C1240.32 246.756 1232.97 237.437 1225.78 229.105M1301.82 204.012L1337.81 195.769M1301.82 204.012C1339.78 255.179 1412.63 382.469 1417.02 587.708C1417.7 619.517 1452.26 640.693 1479.82 624.784L1610.8 549.161M1337.81 195.769C1361.2 193.526 1383.75 192.424 1405.2 193.051M1610.8 549.161L1646.13 528.764C1656.51 522.771 1663.75 512.433 1665.26 500.544C1685.79 339.911 1627.61 207.716 1593.58 160.965C1569.51 124.703 1507.53 60.794 1461.59 89.8244C1434.03 107.243 1411.99 135.312 1405.2 193.051M1610.8 549.161C1629.57 268.137 1538.97 196.96 1405.2 193.051M1013.77 329.564C1024.53 240.312 1099.78 82.9577 1225.78 229.105M1013.77 329.564C1075.9 290.561 1178.72 240.601 1225.78 229.105" stroke="black" stroke-width="30.004"/>
<path fill-rule="evenodd" clip-rule="evenodd" d="M651.238 592.162C418.29 452.788 205.289 845.646 763.015 1094.98C770.841 1098.48 777.772 1104.54 782.057 1111.96C824.59 1185.64 849.499 1228.78 864.027 1253.94C875.071 1273.07 899.505 1279.59 918.632 1268.54L1354.26 1017.04L1789.88 765.529C1809 754.486 1815.58 730.067 1804.54 710.94C1790.01 685.776 1765.1 642.633 1722.56 568.962C1718.28 561.538 1716.49 552.505 1717.38 543.979C1780.31 -63.6933 1333.58 -75.6578 1337.81 195.768C1361.2 193.526 1383.75 192.424 1405.2 193.051C1411.99 135.312 1434.03 107.243 1461.59 89.8245C1507.53 60.7941 1569.51 124.703 1593.58 160.965C1627.61 207.717 1685.79 339.911 1665.26 500.544C1663.74 512.433 1656.51 522.771 1646.13 528.764L1610.8 549.161L1479.82 624.784C1452.26 640.693 1417.7 619.517 1417.02 587.708C1412.63 382.469 1339.78 255.179 1301.82 204.012C1301.82 204.012 1133.81 -30.6985 1002.07 168.116C985.1 193.723 968.733 226.522 953.405 267.94C946.257 287.254 926.244 298.808 905.944 295.342C862.411 287.907 825.823 285.682 795.162 287.573C557.113 302.258 676.374 565.111 676.374 565.111C701.706 623.57 775.518 750.305 951.064 856.727C978.272 873.221 979.329 913.74 951.775 929.648L820.792 1005.27L785.462 1025.67C775.083 1031.66 762.511 1032.76 751.456 1028.13C602.078 965.595 516.684 849.112 493.213 796.261C473.845 757.284 449.487 671.656 497.597 646.388C526.464 631.226 561.793 626.174 615.192 649.161C625.371 630.277 637.601 611.297 651.238 592.162ZM1113.77 836.119C1103.89 841.826 1092 843.121 1081.34 839.047C991.287 804.637 822.079 707.501 749.372 544.915C744.143 533.222 739.747 522.198 736.123 511.81C672.559 329.612 846.458 343.12 929.129 378.433L971.45 353.999L1013.77 329.564C1024.53 240.312 1099.78 82.9577 1225.78 229.105C1232.97 237.437 1240.32 246.756 1247.83 257.131C1352.28 401.391 1351.8 596.497 1336.57 691.692C1334.77 702.963 1327.7 712.607 1317.82 718.314L1215.8 777.216L1113.77 836.119Z" fill="#C0C0C0"/>
<path d="M676.374 565.111L651.238 592.162M676.374 565.111C676.374 565.111 557.113 302.258 795.162 287.573C825.823 285.682 862.411 287.907 905.944 295.342C926.244 298.808 946.257 287.254 953.405 267.94C968.733 226.522 985.1 193.723 1002.07 168.116C1133.81 -30.6985 1301.82 204.012 1301.82 204.012M676.374 565.111C701.706 623.57 775.518 750.305 951.064 856.727C978.272 873.221 979.329 913.74 951.775 929.648L820.792 1005.27M651.238 592.162C418.29 452.788 205.289 845.646 763.015 1094.98C770.841 1098.48 777.772 1104.54 782.057 1111.96C824.59 1185.64 849.499 1228.78 864.027 1253.94C875.071 1273.07 899.505 1279.59 918.632 1268.54L1354.26 1017.04L1789.88 765.529C1809 754.486 1815.58 730.067 1804.54 710.94C1790.01 685.776 1765.1 642.633 1722.56 568.962C1718.28 561.538 1716.49 552.505 1717.38 543.979C1780.31 -63.6933 1333.58 -75.6578 1337.81 195.768M651.238 592.162C637.601 611.297 625.371 630.277 615.192 649.161M820.792 1005.27L785.462 1025.67C775.083 1031.66 762.511 1032.76 751.456 1028.13C602.078 965.595 516.684 849.112 493.213 796.261C473.845 757.284 449.487 671.656 497.597 646.388C526.464 631.226 561.793 626.174 615.192 649.161M820.792 1005.27C568.03 881.018 551.69 766.968 615.192 649.161M929.129 378.433L971.45 353.999L1013.77 329.564M929.129 378.433C846.458 343.12 672.559 329.612 736.123 511.81M929.129 378.433C864.288 412.734 769.61 476.801 736.123 511.81M736.123 511.81C739.747 522.198 744.143 533.222 749.372 544.915C822.079 707.501 991.287 804.637 1081.34 839.047C1092 843.121 1103.89 841.826 1113.77 836.119L1215.8 777.216L1317.82 718.314C1327.7 712.607 1334.77 702.963 1336.57 691.692C1351.8 596.497 1352.28 401.391 1247.83 257.131C1240.32 246.756 1232.97 237.437 1225.78 229.105M1301.82 204.012L1337.81 195.768M1301.82 204.012C1339.78 255.179 1412.63 382.469 1417.02 587.708C1417.7 619.517 1452.26 640.693 1479.82 624.784L1610.8 549.161M1337.81 195.768C1361.2 193.526 1383.75 192.424 1405.2 193.051M1610.8 549.161L1646.13 528.764C1656.51 522.771 1663.74 512.433 1665.26 500.544C1685.79 339.911 1627.61 207.717 1593.58 160.965C1569.51 124.703 1507.53 60.7941 1461.59 89.8245C1434.03 107.243 1411.99 135.312 1405.2 193.051M1610.8 549.161C1629.57 268.137 1538.97 196.96 1405.2 193.051M1013.77 329.564C1024.53 240.312 1099.78 82.9577 1225.78 229.105M1013.77 329.564C1075.9 290.561 1178.72 240.601 1225.78 229.105" stroke="black" stroke-width="30.004"/>
<path d="M1148.05 659.465L1031.69 593.672L1031.53 457.653L1149.25 525.798L1148.05 659.465Z" fill="#5BC8FB" stroke="black" stroke-width="30.004"/>
</g>
<defs>
<clipPath id="clip0_4368_3907">
<rect width="3000" height="3000" fill="white" transform="translate(0 8.055) rotate(-0.153839)"/>
</clipPath>
</defs>
</svg>
