<svg width="3009" height="3009" viewBox="0 0 3009 3009" fill="none" xmlns="http://www.w3.org/2000/svg">
<g clip-path="url(#clip0_4368_3898)">
<path d="M747.304 700.939C665.876 756.921 553.992 743.294 500.874 636.533C491.746 612.763 512.957 556.386 518.872 577.837C543.815 668.288 699.162 709.798 759.977 641.525C778.912 620.268 766.543 687.713 747.304 700.939Z" fill="#FCFCFC" stroke="black" stroke-width="30" stroke-linejoin="round"/>
<path d="M1389.15 330.377C1478.35 287.849 1522.49 184.141 1456.59 84.7592C1440.57 64.9692 1381.14 55.1498 1396.76 70.9978C1462.62 137.825 1420.89 293.115 1331.36 311.645C1303.48 317.415 1368.08 340.425 1389.15 330.377Z" fill="#FCFCFC" stroke="black" stroke-width="30" stroke-linejoin="round"/>
<path d="M1133.22 448.35C1222.41 405.822 1266.55 302.114 1200.65 202.732C1184.63 182.942 1125.2 173.122 1140.82 188.97C1206.69 255.797 1164.96 411.088 1075.43 429.618C1047.55 435.387 1112.14 458.398 1133.22 448.35Z" fill="#FCFCFC" stroke="black" stroke-width="30" stroke-linejoin="round"/>
<path d="M977.466 538.33C896.037 594.311 784.153 580.685 731.035 473.923C721.907 450.154 743.118 393.777 749.033 415.227C773.976 505.679 929.324 547.189 990.138 478.916C1009.07 457.659 996.704 525.103 977.466 538.33Z" fill="#FCFCFC" stroke="black" stroke-width="30" stroke-linejoin="round"/>
<path d="M1328.56 254.549C1133.24 279.551 852.818 423.415 706.33 613.013C680.434 652.154 725.746 696.189 743.332 663.511C817.488 525.717 1209.86 298.646 1352.2 311.979C1396.53 316.13 1374.71 248.642 1328.56 254.549Z" fill="#BEBDBF" stroke="black" stroke-width="30" stroke-linejoin="round"/>
<path d="M1673.96 508.313C1403.04 576.966 991.598 796.474 752.851 1039.34C709.475 1088.57 761.956 1128.47 792.682 1088.2C922.243 918.421 1503.3 582.41 1694.18 567.722C1753.61 563.149 1737.97 492.092 1673.96 508.313Z" fill="#BEBDBF" stroke="black" stroke-width="30" stroke-linejoin="round"/>
<path d="M1510.31 224.86C1239.39 293.513 827.945 513.021 589.199 755.885C545.823 805.117 598.304 845.014 629.03 804.75C758.591 634.967 1339.65 298.957 1530.53 284.269C1589.96 279.696 1574.32 208.639 1510.31 224.86Z" fill="#BEBDBF" stroke="black" stroke-width="30" stroke-linejoin="round"/>
<path d="M1542.89 281.285C1271.97 349.939 860.524 569.447 621.777 812.311C578.401 861.543 730.882 1074.64 761.608 1034.38C891.169 864.598 1472.22 528.588 1663.11 513.9C1722.54 509.327 1606.9 265.065 1542.89 281.285Z" fill="#BEBDBF" stroke="black" stroke-width="30" stroke-linejoin="round"/>
<path d="M850.972 682.815C846.574 674.184 855.79 664.967 864.422 669.365L907.254 691.189C911.114 693.156 915.802 692.414 918.865 689.35L952.857 655.358C959.707 648.508 971.321 654.426 969.805 663.994L962.285 711.474C961.607 715.753 963.762 719.982 967.622 721.948L1010.45 743.773C1019.09 748.171 1017.05 761.044 1007.48 762.56L959.999 770.08C955.72 770.757 952.364 774.113 951.686 778.392L944.166 825.873C942.651 835.441 929.777 837.48 925.379 828.848L903.555 786.016C901.588 782.155 897.359 780.001 893.08 780.679L845.6 788.199C836.032 789.714 830.115 778.101 836.965 771.251L870.957 737.259C874.02 734.195 874.763 729.508 872.796 725.648L850.972 682.815Z" fill="#FCFCFC" stroke="black" stroke-width="30" stroke-linejoin="round"/>
<path d="M1065.74 535.15C1063.73 525.674 1075.02 519.157 1082.21 525.639L1117.94 557.806C1121.16 560.705 1125.88 561.201 1129.63 559.035L1171.26 534.999C1179.65 530.155 1189.34 538.877 1185.4 547.726L1165.84 591.642C1164.08 595.6 1165.07 600.242 1168.29 603.141L1204.01 635.308C1211.21 641.79 1205.91 653.697 1196.28 652.684L1148.47 647.66C1144.16 647.207 1140.05 649.58 1138.29 653.537L1118.73 697.454C1114.79 706.303 1101.83 704.941 1099.82 695.465L1089.82 648.444C1088.92 644.206 1085.4 641.03 1081.09 640.578L1033.28 635.553C1023.64 634.54 1020.93 621.791 1029.32 616.947L1070.95 592.911C1074.71 590.745 1076.64 586.409 1075.74 582.172L1065.74 535.15Z" fill="#FCFCFC" stroke="black" stroke-width="30" stroke-linejoin="round"/>
<path d="M1299.11 418.398C1299.62 408.724 1312.21 405.351 1317.48 413.475L1343.66 453.792C1346.02 457.425 1350.46 459.126 1354.64 458.004L1401.07 445.562C1410.43 443.055 1417.53 453.987 1411.43 461.515L1381.18 498.874C1378.45 502.241 1378.21 506.98 1380.57 510.614L1406.75 550.93C1412.02 559.055 1403.82 569.184 1394.78 565.713L1349.9 548.485C1345.85 546.932 1341.27 548.161 1338.54 551.528L1308.29 588.887C1302.19 596.415 1290.03 591.744 1290.53 582.07L1293.05 534.064C1293.27 529.738 1290.69 525.757 1286.65 524.205L1241.77 506.977C1232.72 503.506 1233.4 490.489 1242.76 487.982L1289.2 475.54C1293.38 474.419 1296.37 470.731 1296.59 466.404L1299.11 418.398Z" fill="#FCFCFC" stroke="black" stroke-width="30" stroke-linejoin="round"/>
</g>
<defs>
<clipPath id="clip0_4368_3898">
<rect width="3000" height="3000" fill="white" transform="translate(0 8.055) rotate(-0.153839)"/>
</clipPath>
</defs>
</svg>
